<?xml version="1.0" encoding="UTF-8" standalone="no"?>
<!DOCTYPE svg PUBLIC "-//W3C//DTD SVG 1.1//EN" "http://www.w3.org/Graphics/SVG/1.1/DTD/svg11.dtd">
<svg width="100%" height="100%" viewBox="0 0 200 200" version="1.1" xmlns="http://www.w3.org/2000/svg" xmlns:xlink="http://www.w3.org/1999/xlink" xml:space="preserve" xmlns:serif="http://www.serif.com/" style="fill-rule:evenodd;clip-rule:evenodd;stroke-linejoin:round;stroke-miterlimit:1.41421;">
    <g transform="matrix(1,0,0,1,0,35.5)">
        <g>
            <g>
                <path d="M158.2,105.9C158.1,106.5 158,107.2 157.9,108C158.5,108.4 159,108.8 159.4,109.1C159.9,108.9 160.3,108.8 160.8,108.6C161,108.3 161.2,108 161.4,107.6L161.4,106.5C161,106.1 160.7,105.8 160.3,105.4C159.6,105.4 158.9,105.4 158.2,105.9Z" style="fill:rgb(253,253,253);fill-rule:nonzero;"/>
                <path d="M140.7,116.6C140.5,117 140.2,117.4 140,117.7C140.3,118.4 140.6,119.1 141.5,119.2C141.9,118.9 142.4,118.6 142.8,118.3L142.8,117.4C142.5,117.1 142.3,116.8 142.1,116.6L140.7,116.6Z" style="fill:rgb(253,253,253);fill-rule:nonzero;"/>
                <path d="M137.8,114.7C137.3,114.6 136.8,114.4 136.3,114.5C135.9,114.5 135.4,114.8 135,115.1C134.5,115.4 134,115.7 133.8,116.2C133.2,117.3 133.4,118.9 135,120.3C135.7,120.5 136.2,120.6 136.7,120.7C140,119.5 140.2,116.7 137.8,114.7Z" style="fill:rgb(253,253,253);fill-rule:nonzero;"/>
                <path d="M171.4,98.3L173.3,98.3C174.9,97.7 175.3,96.6 175.2,95.3C173.6,96 172,96.7 170.4,97.3C170.6,97.7 171,98 171.4,98.3Z" style="fill:rgb(253,253,253);fill-rule:nonzero;"/>
                <path d="M160.9,101.6C161.1,102.1 161.3,102.7 161.6,103.3C161.8,103.5 162,103.8 162.4,104.1C162.8,104.4 163.3,104.6 163.9,104.9C164.2,104.9 164.6,104.9 165,104.9C166.3,105.1 167.3,104.6 168.2,103.6C169.3,102.3 169.7,100.9 169.1,99.4C169,99.1 168.9,98.9 168.8,98.5C168.7,98.4 168.7,98.3 168.6,98.2C166.1,99.3 163.5,100.3 161,101.3C160.8,101.4 160.8,101.5 160.9,101.6Z" style="fill:rgb(253,253,253);fill-rule:nonzero;"/>
                <path d="M54.7,42.3C54.6,42.3 54.6,42.3 54.7,42.3Z" style="fill:rgb(253,253,253);fill-rule:nonzero;"/>
                <path d="M118.2,120.6C119.1,121 120,121.4 120.9,121.4C122.1,121.4 123.3,121.5 124.4,121.4C125.4,121.3 126.5,121.2 127.3,120.7C128.7,119.9 130.1,119.1 131.2,117.8C132.9,115.9 133.8,113.7 134.1,111.2C127.5,113.5 120.9,115.6 114.2,117.6C115.6,119.1 116.5,119.9 118.2,120.6Z" style="fill:rgb(253,253,253);fill-rule:nonzero;"/>
                <path d="M141,109.3C141,109.8 140.9,110.4 141.1,110.8C141.6,112.3 142.3,113.8 143.6,114.9C144.8,115.9 146.1,116.6 147.7,116.5C148.5,116.5 149.3,116.5 150,116.5C150.6,116.2 151,116 151.5,115.8C153,115.1 153.9,114.3 154.6,113C155.2,112 155.3,110.8 155.3,109.6C155.3,108 154.9,106.6 154,105.3C153.7,105 153.5,104.6 153.2,104.3C149.2,105.8 145.2,107.3 141.2,108.8C141.1,109 141,109.2 141,109.3Z" style="fill:rgb(253,253,253);fill-rule:nonzero;"/>
                <path d="M137.7,111.2L138.7,111.2C138.7,111.1 138.6,111.1 138.6,111C138.9,110.8 139.2,110.6 139.4,110.5L139.4,109.3C138.6,109.6 137.8,109.9 137,110.2C137.4,110.7 137.6,111 137.7,111.2Z" style="fill:rgb(253,253,253);fill-rule:nonzero;"/>
                <path d="M160.7,51.4C160.4,49.1 161.6,47 162.6,44.9C163.7,43.8 164.8,42.6 166.2,41.7C167.4,40.9 170,40.2 171.4,40.2C171.7,40.2 171.9,40.2 172.2,40.2C174.2,40 175.9,40.6 177.6,41.5C180.4,43.1 182.2,45.5 183.2,48.5C183.7,49.9 183.5,52.2 183.2,53.9C182.8,56.6 181.3,58.7 179.3,60.4C178,61.5 176.4,62.2 174.7,62.6C173.2,63 171.8,62.9 170.4,62.8C168.9,62.7 167.3,62 166,61.2C164.1,59.9 162.6,58.2 161.6,56.1C161,54.6 160.7,53.6 160.7,51.4Z" style="fill:rgb(168,82,84);fill-rule:nonzero;"/>
                <path d="M25.3,66.4C26.2,66.7 27.3,66.6 28.2,67C29.2,67.4 30.2,67.8 31,68.4C31.8,69.1 32.6,69.8 33.3,70.6C33.9,71.4 34.5,72.2 34.9,73.1C35.3,74 35.7,75.1 35.9,76.1C36.1,77.2 36.2,78.3 35.9,79.3C35.6,80.2 35.7,81.3 35.1,82.2C34.6,82.9 34.4,83.8 33.9,84.5C33.5,85.2 33,85.8 32.4,86.3C31.5,87 30.6,87.8 29.5,88.2C28.7,88.5 27.9,88.9 27.1,89.1C26.2,89.3 25.2,89.5 24.3,89.4C22.9,89.3 21.4,89.1 20.1,88.5C18.6,87.8 17.1,87 16.1,85.7C14.9,84.2 14,82.6 13.6,80.8C13,78.3 13,76 14,73.6C14.9,71.3 16.4,69.7 18.4,68.2C20.5,66.8 22.8,66.7 25.3,66.4Z" style="fill:rgb(87,118,142);fill-rule:nonzero;"/>
                <path d="M119.2,97.7C119.9,97.9 119.2,98.5 119.7,98.9C120,98.9 120.5,99.1 120.8,98.7C122.1,98.7 123.4,98.5 124.6,98.7C125.6,98.8 126.5,99.2 127.5,99.6C128.1,99.8 128.7,100.2 129.3,100.6C130.8,101.7 132.1,103 132.9,104.6C133.4,105.6 133.9,106.7 134.1,108C134.2,108.9 134.4,109.9 134.3,110.8C134.1,113.5 133.2,115.8 131.4,117.9C130.3,119.2 128.9,120 127.5,120.8C126.7,121.3 125.6,121.4 124.6,121.5C123.4,121.6 122.2,121.5 121.1,121.5C120.1,121.5 119.2,121.1 118.4,120.7C116.6,119.9 115.7,119.1 114.2,117.5C113.2,116.4 112.6,115.2 112.2,113.9C112,113.1 111.6,112.2 111.7,111.3C111.7,110.8 111.6,110.3 111.5,109.7C112,108.8 111.9,107.5 112.3,106.3C112.7,105.1 113.5,104.2 113.9,103.1C113.9,103 114,102.9 114,102.8C114.1,102.8 114.2,102.9 114.2,102.9C114.2,103 114.2,103.2 114.3,103.3C114.6,103.3 115,103.6 115.2,103C115.7,102.9 116.2,103.2 116.6,102.7C117.8,102.5 118.4,101.4 119.2,100.7C119.3,100.6 119.2,100.4 119.2,100.3C119.3,100.2 119.5,100.1 119.5,100.1C119.5,99.8 119.4,99.4 119.4,99.1C119,98.6 119.1,98.1 119.2,97.7Z" style="fill:rgb(158,158,158);fill-rule:nonzero;"/>
                <path d="M81.9,46.6C82,47.4 81.6,48.2 82.2,48.9C81.7,50 82,51.2 81.5,52.3C81.1,53.2 80.7,54 80.2,54.8C79.5,55.9 78.6,57 77.6,57.7C76,58.7 74.4,59.8 72.3,59.8C71.9,59.8 71.5,60.1 71,60.1C68.9,60.1 66.9,59.7 65.2,58.6C63.3,57.6 61.7,56.2 60.8,54.2C60.4,53.3 59.9,52.4 59.6,51.5C59.5,51.2 59.5,50.9 59.4,50.7C59.3,50.1 59.6,49.4 59.1,48.8L59.1,48.7C59.8,47.7 59.3,46.5 59.6,45.4C60,44.3 60.4,43.4 61,42.4C62.4,40.1 64.5,38.8 66.9,37.7C67.4,37.5 68,37.4 68.6,37.3C69.2,37.2 69.8,37.3 70.4,37.3C70.9,37.3 71.4,37.2 71.8,37.2C73.6,37.3 75.1,38.1 76.7,38.8C77.3,39.6 78.4,39.7 78.8,40.6C78.3,41.3 77.8,41.9 77.3,42.5C77.2,45.3 77.2,45.3 79.6,46.7C80.3,46.7 81,46.9 81.6,46.4C81.7,46.6 81.8,46.6 81.9,46.6Z" style="fill:rgb(114,114,114);fill-rule:nonzero;"/>
                <path d="M107.1,45C107,44.1 107.7,43.5 108.1,43C109.3,41.6 110.6,40.1 112.4,39.3C113.6,38.7 114.9,38.3 116.3,38.3C116.7,38.3 117.1,38.4 117.4,38.1C117.5,38 117.8,38 118,38.1C119,38.5 120.2,38.4 121.2,38.8C122.7,39.4 123.9,40.2 125.2,41.2C126.2,42 126.7,43.2 127.7,44C127.8,45 128.5,45.8 128.8,46.8C129.2,48.4 129.2,49.9 129,51.4C128.8,53.1 128.2,54.6 127.3,56C126.7,56.9 126,57.8 125.1,58.4C124.9,58.4 124.5,58.2 124.5,58.7C124.4,58.8 124.3,58.9 124.2,59C124,59 123.6,58.8 123.6,59.3C123.5,59.4 123.4,59.5 123.3,59.6C123.1,59.6 122.7,59.4 122.7,59.9C122.6,60.4 122.2,60.1 122,60.2C121.7,60.3 121.5,60.5 121.1,60.7C121.4,60.8 121.6,61 121.9,61.1C121.7,61.8 121.6,62.4 121.5,63C121,63 120.6,63 120.1,63C119.8,62.8 119.6,62.5 119.3,62.2C119.4,61.9 119.5,61.6 119.6,61.2C118.7,61.2 117.6,61.1 116.6,61.2C115.6,61.3 114.9,60.5 113.8,60.6C113.8,61 113.8,61.5 113.7,61.9C113.7,62 113.5,62.1 113.4,62.1C113.4,61.6 113.4,61.1 113.4,60.7C113.2,60.6 113,60.5 112.7,60.4C112.9,60.3 113,60.3 113.1,60.3C113.2,60.3 113.3,60.3 113.4,60.3C113.8,60.3 114.2,60.3 114.6,60.2C114.6,60.1 114.6,60.1 114.6,60C114.2,59.9 113.8,59.8 113.4,59.6C112.8,58.4 111.9,57.6 110.6,57.1C110.5,57 110.4,56.8 110.2,56.8C109.8,56.7 109.4,56.7 109.1,56.6C109.1,56.9 108.8,57.3 109.4,57.4L110.6,58.6C110.8,58.7 111,58.8 111.2,58.9C111.3,59 111.4,59.1 111.5,59.2C111.4,59.3 111.4,59.4 111.3,59.6C110.8,59.3 110.3,59.1 109.9,58.7C109.5,58.2 108.6,57.9 108.7,57.1C108.7,56.8 108.6,56.5 108.4,56.3C107.6,55.6 107.4,54.6 106.9,53.7C106.8,53.5 106.9,53.3 106.9,53.1C107.4,53.2 107.8,53 108.3,53.4C108.6,53.6 109.2,53.3 109.7,53.1C111.1,52.7 112.3,52 112.8,50.4C113,49.6 113,48.8 113.1,48.1C113,48 112.8,47.9 112.8,47.7C112.4,46.6 111.8,45.8 110.7,45.3C109.7,44.8 108.7,44.5 107.7,45.1C107.5,45.1 107.3,45 107.1,45ZM117.7,57.3C118,56.9 118.1,56.7 118.2,56.5C118.4,56.3 118.7,56.1 118.8,56.1C118.9,54.4 118.5,53.2 117.2,52.4C115.7,52.2 114.3,52.4 113.6,54.2C113.6,54.6 113.6,55.3 113.6,55.9C114.7,57.9 116,58 117.7,57.3Z" style="fill:rgb(125,125,125);fill-rule:nonzero;"/>
                <path d="M99.7,114.4C99.6,114.4 99.5,114.4 99.4,114.4C99.2,114.4 98.8,114.2 98.8,114.7C97.6,114.7 96.4,114.7 95.3,114.7C93.4,114.7 91.9,113.8 90.4,112.8C89.8,112.4 89.2,111.9 88.7,111.4C88.2,110.9 87.7,110.4 87.4,109.8C86.9,108.9 86.5,108 86.2,107.1C85.7,105.4 85.6,103.8 85.7,102.1C85.8,100.1 86.6,98.4 87.7,96.8C88.9,95 90.6,94 92.4,93C93.4,92.5 94.3,92.1 95.5,92.2C95.9,92.2 96.3,92.1 96.8,92C97.2,92.1 97.6,92.2 98,92.2C100.3,92.3 102.2,93.1 103.9,94.6C104.7,95.2 105.3,96 105.9,96.7C106.9,97.8 107.4,99.2 107.8,100.7C108,101.5 108.3,102.2 108.1,103C108.1,103.1 108.1,103.2 108.1,103.3C107.6,103.2 107.1,103.5 106.7,103C104.9,104.2 104.7,104.5 104.7,106.8C105.2,107.3 105.6,107.8 106.1,108.2C106.5,108.2 106.8,108.2 107.2,108.2C107.2,108.3 107.2,108.4 107.2,108.5C107.1,108.6 107,108.8 106.9,108.9C106.8,109 106.7,109.1 106.6,109.1L104,109.1C102,109.2 100,111.4 99.8,113.2C99.8,113.4 99.7,113.7 100.1,113.7C100.1,114.2 100.5,114 100.7,114C100.5,114.6 100,114.2 99.7,114.4ZM97,94.6C96.9,94.5 96.8,94.3 96.7,94.2C95.7,95.3 95.4,96.2 95.5,97.9C95.6,98 95.8,98.2 95.9,98.3C96.2,98.8 96.5,99.2 97,99.5C97.6,99.8 98.2,99.7 98.8,100C99.3,100.3 99.8,99.6 100.4,99.4C101.1,99.1 101.3,98.4 101.6,97.8C101.7,97.6 101.7,97.3 101.3,97.3C101.3,96.7 101.3,96.2 101.3,95.6C100.8,95.1 100.4,94.7 99.9,94.2C99.3,94.2 98.6,94.2 97.9,94.2C97.6,94.4 97.3,94.5 97,94.6ZM93,107C93.1,107.2 93.2,107.4 93.3,107.6C94.7,110.2 96.9,110.8 99.4,109.9C100.1,109.6 100.6,109 101.1,108.5C102.5,106.9 102.6,104.1 101.1,102.9C100.8,102.7 100.7,102.4 100.5,102.1C99.9,101.8 99.3,101.5 98.6,101.1C96,100.8 94,101.7 93,104.5C93,105.2 93,106.1 93,107ZM88.5,100.2C88.2,100.5 87.8,100.9 87.5,101.2L87.4,101.3C87.5,102.5 87.5,102.6 88.5,103.6C89.2,103.7 89.9,103.6 90.5,103.1C90.6,102.5 90.7,101.9 90.8,101.4C90.4,100.9 90,100.6 89.7,100.2C89.3,100.2 88.9,100.2 88.5,100.2Z" style="fill:rgb(126,126,126);fill-rule:nonzero;"/>
                <path d="M92.3,64.8C91.3,65.7 90.3,66.3 88.9,66.4C88.7,66.4 88.5,66.7 88.4,66.8C88.7,67.5 89.1,68.1 89.2,68.8C89.3,69.2 89.4,69.8 89,70.2C88.8,70.4 88.8,70.7 89.2,70.7C89,70.9 88.8,71.2 88.6,71.4C88.4,71.2 88.2,71.1 88,71C88,71.2 88,71.4 88,71.5C88.2,71.6 88.4,71.7 88.6,71.8C88.4,72.1 88.2,72.3 88,72.6C87.8,72.6 87.6,72.6 87.4,72.7C86.2,73.6 84.9,73.7 83.5,73.2C83.3,73.1 83.1,73.2 82.9,73.1C82.4,72.9 82.3,72.2 81.6,72.2C81,70.9 80.1,69.8 80.7,68.2C81.2,66.8 81.8,65.6 83.6,65.2C81.7,63.8 81,62 80.6,60C80.7,59.9 80.8,59.8 80.9,59.7C80.8,59.6 80.7,59.5 80.6,59.4C80.7,59 80.8,58.5 80.9,58.1C81,56.9 81.5,56 82.4,55.2C83.2,54.4 84,53.7 85,52.9C84,52.2 83.6,51.2 83.5,50.1C83.5,49.2 83.6,48.2 84.4,47.5C84.7,48.1 85.4,47.9 85.7,48.3C87.2,48.7 88.1,48 88.8,47.2C89,46.6 89.2,46.3 89.3,45.9C89.5,46 89.8,46 90,46.1C90.3,46.4 90.7,46.7 91.1,46.9C91.4,47.5 91.7,48.2 92.1,49C92.4,50.4 91.8,51.8 90.8,53C91.4,53.4 91.9,53.6 92.4,54C93.6,55.1 94.4,56.4 94.8,57.9C95.1,59 95.2,60.2 94.6,61.2C94,61.8 94,62.5 93.9,63.3C93.3,63.9 92.8,64.3 92.3,64.8ZM85.2,62.5C86.6,62.2 87.7,62 88.4,60.7C88.5,60.1 88.6,59.3 88.7,58.7C88.1,57.5 87.3,56.7 86.2,56.2C85.9,56.2 85.5,56.2 85.1,56.2C84.7,56.3 84.3,56.4 83.9,56.6C83.4,57 82.9,57.5 82.5,57.9C82.7,58.7 81.9,59.4 82.5,60.3C83,61 83.3,61.8 83.8,62.2C84.4,62.3 84.8,62.4 85.2,62.5ZM85.3,52.9C86,53.8 86.9,54.2 87.9,53.9C88.7,53.7 89.7,53.9 90.3,52.9C88.6,52.3 87,52.3 85.3,52.9ZM83.9,65.2C85,66.4 86.6,66.3 88,66.8C87.5,65.5 86,64.9 83.9,65.2Z" style="fill:rgb(126,126,126);fill-rule:nonzero;"/>
                <path d="M140.5,44.4C141.5,44.2 142.6,44.5 143.5,45C144.8,45.7 145.8,46.7 146.5,48C147.1,49.1 147.4,50.4 147.4,51.6C147.3,53.5 146.6,55.3 145.1,56.6C143.6,57.9 141.9,58.6 139.9,58.5C138.7,58.5 137.7,58.1 136.7,57.6C135.5,56.9 134.6,56 133.9,54.9C133.2,53.9 133.3,52.6 132.9,51.5C133.2,49.7 133.6,47.9 134.9,46.5C136.5,45 138.3,44.3 140.5,44.4Z" style="fill:rgb(168,82,84);fill-rule:nonzero;"/>
                <path d="M153,19.7C152.6,20.4 152.1,21.1 151.7,21.9C150.9,23.6 149.1,23.9 147.6,24.7C146.1,24.6 144.6,24.9 143.2,24.1C142.2,23.6 141.3,23.1 140.6,22.3C139.9,21.4 139.4,20.5 139.1,19.4C139,18.8 138.8,18.3 138.8,17.7C138.9,14.9 140.5,12 143.8,10.9C146.3,10.1 148.6,10.7 150.7,12.2C150.9,12.8 151.6,13 151.8,13.6C152,14.2 152.6,14.5 152.8,15.2C153,15.8 153.1,16.5 153,17.1C152.9,17.6 153.3,17.9 153.1,18.4C153,18.7 153,19.2 153,19.7Z" style="fill:rgb(168,82,84);fill-rule:nonzero;"/>
                <path d="M150,116.5C149.4,116.5 148.6,116.5 147.7,116.5C146.1,116.6 144.8,115.8 143.6,114.9C142.3,113.9 141.7,112.4 141.1,110.8C140.9,110.3 141,109.8 141,109.3C141.1,107.6 141.6,106 142.8,104.7C143.8,103.7 145,103 146.4,102.6C148.1,102 149.7,102.5 151.3,103C152.5,103.3 153.2,104.4 154,105.3C154.9,106.5 155.3,108 155.3,109.6C155.3,110.8 155.1,112 154.6,113C153.9,114.3 153,115.1 151.5,115.8C151,116 150.5,116.2 150,116.5Z" style="fill:rgb(218,97,101);fill-rule:nonzero;"/>
                <path d="M151.7,74.3C151.2,74.3 150.5,74.3 149.7,74.3C147.2,74.4 145.5,73.1 144.1,71.3C142.9,69.8 142.6,67.9 142.9,66.1C143.3,64 144.3,62.2 146.4,61.1C147.8,60.4 149.3,59.9 150.9,60.2C152.2,60.4 153.4,60.8 154.4,61.7C155.1,62.4 155.7,63.2 156.4,64C156.8,64.5 156.6,65.3 157.1,65.9C157.2,68.2 157.1,70.3 155.3,72.1C154.3,72.9 153.3,73.8 151.7,74.3Z" style="fill:rgb(168,82,84);fill-rule:nonzero;"/>
                <path d="M137.3,69.7C139.3,69.4 140.9,70.3 142.3,71.4C143.2,72.1 143.7,73.2 144.1,74.3C144.3,74.7 144.4,75.2 144.4,75.7C144.4,76.2 144.7,76.6 144.6,77C144.5,77.5 144.6,78 144.4,78.5C144.3,79 144,79.5 143.8,79.9C142.9,81.3 141.8,82.7 140.1,83.2C138.8,83.7 137.4,84 135.9,83.5C135.1,83.2 134.3,83 133.5,82.6C131.8,81.7 131,80.1 130.5,78.3C129.7,75.6 130.9,72.3 133.2,70.8C134.5,70.1 135.8,69.4 137.3,69.7Z" style="fill:rgb(218,97,101);fill-rule:nonzero;"/>
                <path d="M165.8,77.9C165.1,77.8 164.5,77.7 164.2,77.6C162.6,77 161.4,76.1 160.4,75C160.3,74.8 160.1,74.7 160,74.6C159.2,73 158.6,71.3 159,69.4C159.2,68.4 159.6,67.5 160.1,66.6C161.2,64.9 162.7,64.2 164.6,63.7C166.8,63.2 166.6,63.4 169.2,64.3C171,65 172,66.4 172.6,68.1C173.6,71 173.1,73.7 170.9,75.8C169.8,76.9 168.4,77.7 166.7,77.6C166.4,77.7 166,77.9 165.8,77.9Z" style="fill:rgb(168,82,84);fill-rule:nonzero;"/>
                <path d="M130.9,20.1C132,20.1 133.2,20 134.3,20.5C136.2,21.4 137.6,22.9 138.3,24.8C139.4,27.9 138.2,31.1 135.8,32.8C134.2,34 132.3,34.5 130.1,34C127.7,33.4 126.1,32.1 125,30C124.5,28.9 124.5,28.9 124.5,27C124.5,25.7 124.8,24.6 125.4,23.5C126,22.6 126.4,21.6 127.6,21.3C128.1,21.3 128.4,21.2 128.5,20.7C129.4,20.8 130.1,20.4 131,20.2C130.9,20.2 130.9,20.1 130.9,20.1Z" style="fill:rgb(168,82,84);fill-rule:nonzero;"/>
                <path d="M36.9,35.5C37,37.4 36.3,39 34.9,40.4C33.5,41.9 31.7,42.6 29.8,42.5C26,42.4 22.8,39.3 22.8,35.6C22.8,33.7 23.4,31.9 24.8,30.4C26.3,28.9 28.1,28.3 30.2,28.3C33.3,28.2 37.4,31.9 36.9,35.5Z" style="fill:rgb(87,118,142);fill-rule:nonzero;"/>
                <path d="M52.1,68.8C49.3,68.8 47.1,67.6 45.9,65.1C44.6,62.4 44.4,60.5 46.3,57.7C47.1,56.5 48,55.7 49.2,55.2C50.3,54.7 51.4,54.4 52.6,54.6C53.5,54.7 54.5,54.9 55.4,55.4C56.4,55.9 57.3,56.7 57.9,57.7C59,59.7 59.4,61.3 58.9,63.5C58.6,65.1 57.6,66.1 56.6,67.2C55.8,68.1 54.7,68.3 53.7,68.8C53.2,68.9 52.6,68.8 52.1,68.8Z" style="fill:rgb(87,118,141);fill-rule:nonzero;"/>
                <path d="M32.3,91.4C32.4,91 32.6,90.7 32.6,90.4C32.8,87.9 34.8,85.3 37.2,84.8C37.9,84.6 38.6,84.2 39.3,84.2C41.2,84.1 42.9,84.6 44.2,86C45.2,87 45.9,87.9 46.3,89.3C46.5,90 46.3,90.8 46.8,91.4C46.4,92.3 46.5,93.4 46.1,94.3C45.7,95 45.3,95.7 44.7,96.3C43.4,97.7 41.8,98.3 39.8,98.3C37.9,98.4 36.3,97.6 34.8,96.5C33.8,95.8 33.2,94.7 33,93.6C32.8,93 32.5,92.4 32.6,91.7C32.6,91.7 32.4,91.5 32.3,91.4Z" style="fill:rgb(87,118,142);fill-rule:nonzero;"/>
                <path d="M44.6,78.5C45.2,77.8 45.3,76.9 45.8,76.2C46.8,74.7 48.3,73.9 49.9,73.4C50.4,73.3 51,73.1 51.5,73.1C53.1,73.3 54.6,73.6 55.9,74.7C57.8,76.3 58.8,78.2 58.7,80.6C58.6,82.3 58.1,83.8 56.8,85.1C55.8,86.1 54.8,86.9 53.5,87.1C51.2,87.6 49,87.4 47.1,85.7C46.5,85.2 46,84.5 45.5,83.9C44.7,82.9 44.6,81.9 44.5,80.8C44.5,80 44.6,79.2 44.6,78.5Z" style="fill:rgb(87,118,141);fill-rule:nonzero;"/>
                <path d="M46.8,29C49.6,29.2 51,29.4 53.4,32.4C53.6,33 53.7,33.4 53.9,33.7C54.7,35.2 54.8,36.7 54.2,38.2C53.5,40.2 52.3,41.8 50.3,42.7C49.2,43.2 49.2,43.2 47.1,43.2C46,43.2 45,43 44.2,42.5C42,41.1 40.3,39.2 40.4,36.3C40.4,34.2 41.2,32.4 42.7,31C43.3,30.5 44.1,30.1 44.8,29.7C45.3,29.4 46,29.2 46.8,29Z" style="fill:rgb(87,118,142);fill-rule:nonzero;"/>
                <path d="M100.7,22.2C101,22.2 101.2,22.2 101.5,22.2C102.2,20.5 103.6,19.3 105.1,18.4C105.8,17.9 106.8,17.9 107.7,17.6C109.2,18.2 111.1,17.7 112.3,19.1C114,19.8 114.3,21.6 115.3,23C115.3,23.7 115.2,24.5 115.3,25.2C115.4,26.8 114.8,28.1 113.9,29.2C112.4,31.1 110.4,32.1 108,32C106.6,31.9 105.2,31.5 103.9,30.5C102.7,29.6 102,28.5 101.6,27.2C101.4,27.2 101.3,27.2 101.1,27.2C101.2,26.6 101.9,27.2 102,26.7C102,26.6 102,26.4 102,26.2C102.9,25.6 102.5,24.7 102.6,23.9C102.3,23.5 102,23.2 101.7,22.9C101.6,22.8 101.5,22.7 101.3,22.6C101,22.5 100.7,22.6 100.7,22.2Z" style="fill:rgb(158,158,158);fill-rule:nonzero;"/>
                <path d="M68.7,119.6C68.9,119.1 68.3,118.9 68.1,118.5C67.9,118.1 67.7,117.6 67.8,117.3C68,116.8 67.1,116.5 67.6,115.9C67.8,115.7 67.1,115.1 67.8,114.8C67.7,114.3 67.9,113.8 68.1,113.4C68.3,113 68.5,112.5 68.7,112.1C68.9,111.7 69.2,111.3 69.5,111C69.8,110.6 70.2,110.3 70.6,110.1C71,109.9 71.1,109.4 71.7,109.4C72.1,109.4 72.6,109.1 73,109C75.9,108 79.7,110 81.1,113.1C81.7,114.4 81.7,115.7 81.5,117.1C81.3,118.4 80.6,119.6 79.7,120.6C78.8,121.6 77.6,122 76.5,122.6C73.4,123 70.7,122.6 68.7,119.6Z" style="fill:rgb(101,129,151);fill-rule:nonzero;"/>
                <path d="M69.3,75.2C70.4,75.8 71.4,76.2 72.2,77.1C73.4,78.5 74.3,79.9 74.2,81.8C74.2,82.3 74.2,82.8 74.2,83.3C74.2,83.7 74,84.1 73.9,84.6C73.8,84.8 73.8,85 73.7,85.1C73.1,86 72.5,86.8 71.7,87.5C69.9,89.1 67.3,89.6 65,88.6C63.6,88 62.5,87.2 61.6,86.1C61.1,85.5 60.9,84.8 60.7,84C60.5,83.2 60.5,82.3 60.4,81.5C60.3,79.3 61.5,77.7 63.1,76.5C64,75.8 65,75.1 66.2,75.2C66.4,74.7 66.6,75.4 66.9,75.2C67.1,75.1 67.4,75 67.6,75C67.9,75 68.1,75.2 68.4,75.3C68.6,75.3 69,75.2 69.3,75.2Z" style="fill:rgb(101,129,151);fill-rule:nonzero;"/>
                <path d="M59.4,20.6C59.6,20.2 59.8,20 60,19.7C60.7,18 62,16.9 63.6,16.1C65.2,15.3 67,15.2 68.7,15.9C70.6,16.6 71.9,17.9 72.8,19.7C73,20.2 73.3,20.8 73.4,21.3C73.6,23.6 73.3,25.7 71.5,27.4C70.9,28 70.2,28.4 69.5,28.8C68.8,29.3 68,29.1 67.3,29.4C66.6,29.7 65.9,29.4 65.2,29.3C62.9,28.9 61.3,27.5 60.2,25.6C59.8,25 59.5,24.2 59.6,23.4C59.4,22.5 59.4,21.5 59.4,20.6Z" style="fill:rgb(101,129,151);fill-rule:nonzero;"/>
                <path d="M92,28.7C91.8,28.9 91.6,29 91.3,29.2C92,30 92.3,30.9 92.4,31.9L92.6,32C92.7,32.3 92.8,32.6 92.9,33C92.4,33.6 92.7,34.4 92.6,35.1C92.4,35 92.3,34.9 92.1,34.8C91.9,36.4 90.9,37.4 89.7,38.4C90.2,38.8 90.6,39.2 91.2,39.6C91.1,40 90.9,40.3 90.8,40.6C90.7,40.6 90.5,40.6 90.3,40.6C90.2,40.8 90.1,41 90,41.2C89.6,41.2 89.3,41.2 88.9,41.2C89,41 89.1,40.9 89.1,40.8C89,40.7 88.9,40.6 88.8,40.4C88.7,40.3 88.6,40.1 88.5,40C88.5,39.8 88.5,39.7 88.5,39.5C87.8,39.2 87.1,39.7 86.4,39.8C85.4,40 84.8,40 83.8,39.8C82.7,39.6 81.7,39.1 80.8,38.5C79.8,37.8 78.6,35.9 78.3,34.7C78.1,33.9 78,33 78,32.2C78,31.7 78.2,31.2 78.4,30.7C77.1,29.3 77.1,29.3 77.1,27.1C77.3,26.9 77.7,26.6 78,26.3C78.3,26 78.7,25.8 79.1,25.5C80.2,25.4 81.1,25.6 82,26.5C83.5,25.5 85.3,25.9 86.9,25.9C87.5,25.9 87.9,26.5 88.5,26.5C88.5,27 88.9,26.8 89.1,26.8C89.2,26.9 89.3,27 89.4,27.1C89.5,27.2 89.6,27.3 89.6,27.4C89.7,27.3 89.9,27.2 90,27.1C90.3,26.9 90.6,26.7 91,26.4C91.3,26.6 91.6,26.7 91.8,26.9C92,27.6 92,28.1 92,28.7ZM88.3,33.1C87.8,31.3 86.3,30.6 84.9,30.3C84.2,30.4 83.6,30.5 82.7,30.6C82,31.3 81.2,32.1 80.4,32.9C80.4,34.1 80.4,35 80.4,36C80.9,36.6 81.4,37.3 82,37.9C82.6,38.5 83.3,38.6 84.2,38.6C84.9,38.6 85.5,38.6 86.1,38.3C86.8,38 87.4,37.6 87.9,37C88.4,36.3 88.3,35.5 88.7,35C88.4,34.3 88.4,33.7 88.3,33.1ZM82.5,27C81.6,26.6 81.3,27.4 80.7,27.7C80.1,28 79.8,28.7 79.4,29.3C79,29.8 78.6,30.3 78.9,31C81.3,31 81.4,31 82.5,29.3C82.5,28.4 82.5,27.7 82.5,27ZM89.9,28.6C90.3,28.8 90.7,29 91.3,29.3C91,28.4 90.5,28.2 90,27.5C89.9,28 89.9,28.3 89.9,28.6Z" style="fill:rgb(125,125,125);fill-rule:nonzero;"/>
                <path d="M130.9,20.1L130.9,20.2C130.1,20.4 129.3,20.8 128.4,20.7C128.5,20.5 128.6,20.4 128.7,20.2C128.6,20.2 128.4,20.1 128.3,20.1C127.9,20.2 127.5,20.4 127.2,20.4C126.4,20.2 125.5,20.1 124.8,19.6C123,18.5 121.7,17.1 121.7,14.8C121.7,14.1 121.7,13.4 121.7,12.8C122.8,9.4 125.2,8 128.6,8.4C130.7,8.6 132.5,9.8 133.1,11.9C133.9,14.7 134,16.9 131.1,19.2C130.4,19.5 130.1,19.7 129.7,19.8C129.7,19.9 129.7,20 129.8,20C130.1,20.1 130.5,20.1 130.9,20.1Z" style="fill:rgb(168,82,84);fill-rule:nonzero;"/>
                <path d="M43.1,29C41.2,28.6 39.8,27.4 38.8,25.8C38.6,25.5 38.5,25.1 38.5,24.9C38.5,23.6 38.2,22.3 38.7,21C39.2,19.8 39.8,18.9 40.9,18.3C43,17 43.9,17.1 46.4,17.7C47.2,17.9 48.2,18.8 48.7,19.4C49.2,20.1 49.8,20.8 50,21.6C50.4,23.2 50.2,24.8 49.4,26.3C49.1,26.8 48.8,27.2 48.4,27.6C48,28 47.5,28.2 47.1,28.5C45.8,28.8 44.4,29.2 43.1,29Z" style="fill:rgb(87,118,141);fill-rule:nonzero;"/>
                <path d="M87.4,24.4C87,24.3 86.6,24.3 86.3,24.1C85.1,23.3 83.8,21.6 83.2,20.2C83,19.7 83.1,19.2 83,18.7C83,18.4 83,18 82.9,17.5C82.9,17.4 83.1,17 83.1,16.7C83.2,15.9 83.3,15.2 83.9,14.6C84.2,14.2 84.4,13.8 84.7,13.4C85,13.1 85.4,12.9 85.7,12.6C87.3,11.1 89.3,10.9 91.3,11C92.2,11.5 93.4,11.5 94.1,12.3C95,13.1 96,13.8 96.4,15C96.4,15.2 96.4,15.4 96.4,15.6C95.8,15.5 95.6,16.1 95.3,16.3C95.1,16.9 94.9,17.4 94.9,17.9C94.9,18.4 95.1,19 95.2,19.6C94.6,19.2 94.1,18.6 93.8,18.7C93.2,18.8 92.8,17.8 92.3,18.6C91.8,18 91.3,18.6 90.9,18.7C90.1,18.9 89.3,19.4 88.7,20.1C87.9,21.1 87.6,22.7 87.8,24.1C87.8,24.1 88,24.2 88.1,24.2C88,24.5 87.7,24.3 87.4,24.4Z" style="fill:rgb(114,114,114);fill-rule:nonzero;"/>
                <path d="M113.3,62.6C113.7,63.2 114.3,63.7 114.6,64.4C115.1,65.3 115.3,66.3 115.4,67.2C115.3,67.2 115.2,67.2 115.1,67.2C114.4,67.1 113.6,67.4 113.3,68C113,68.6 112.4,69.3 112.7,70.2C112.9,70.8 113.2,71.3 113.4,71.9C113.6,71.9 113.7,71.9 113.9,71.9C114,72 114.1,72.1 114.2,72.2C113.4,72.8 112.5,73.3 111.7,73.9C111.2,74.4 110.6,74.4 110.1,74.6C109.2,74.8 108.3,75.2 107.3,75C107.3,74.9 107.3,74.8 107.3,74.7C108.2,74.5 107.7,73.5 108.2,73.2C108,72.5 107.6,71.9 107.6,71.3C107.6,70.6 107,70.3 106.8,69.8C106.5,69.3 105.8,69.1 105.3,68.8C104.7,68.6 104,69.1 103.5,68.5C103.3,68.6 103,68.6 102.8,68.7C102.2,69 101.4,69 101.4,69.9C101.2,69.9 101,69.9 100.8,69.9C100.9,69.6 101.1,69.3 101.1,69C101.1,67.9 101.1,66.9 101.1,66.3C101.8,63.9 102.9,62.3 104.8,61.4C104.9,61.7 105,61.9 105.1,62.2C105.9,64.7 107.5,65.5 109.5,65.4C110.9,65.3 112.1,64.5 112.8,63.3C113.5,63.2 113.3,62.8 113.3,62.6Z" style="fill:rgb(158,158,158);fill-rule:nonzero;"/>
                <path d="M84.3,78C84.6,77.9 84.8,77.9 85.1,77.8C85.5,78 86,78.1 86.4,78.3C86.4,79.1 86.4,79.8 86.4,80.5C86.4,81.3 86.6,81.9 87.3,82.4C87.4,82.1 87.6,81.8 87.7,81.6C87.8,81.3 87.9,81.1 88,80.8C87.4,80 87.9,78.7 86.5,78.3C87,77.7 87.4,76.8 88.3,76.5C88.3,76.2 88.3,75.9 88.3,75.6C88.5,75.7 88.7,75.8 88.9,75.9C88.9,76.2 88.9,76.4 88.9,76.7C89.5,77.1 90,77.4 90.6,77.7C91.6,77.7 92.5,77.7 93.5,77.7L93.6,77.6C93.5,77.1 93.1,76.8 92.7,76.6C92,76.3 91.4,75.8 90.5,76C90.4,75.8 90.3,75.7 90.2,75.5C91.6,75 92.5,76.1 93.5,76.4C93.7,76.7 93.8,77 93.9,77.2C94,77.6 94.1,78 94.2,78.3C95,80 95,80.1 94.2,82C95.1,82.5 96.3,82.9 96.6,84.1C96.6,84.6 96.6,85.1 96.6,85.9C96.1,86.4 95.4,87.1 95,87.6C93.7,88 93,87.4 92.2,87.1C92,86.8 91.7,86.4 91.4,86C91.4,85.6 91.4,85.1 91.4,84.5C90.8,84.5 90.1,84.5 89.5,84.5C88.7,84 87.9,83.5 87,82.8C86.8,82.9 86.4,83.1 85.8,83.4C85.6,83.4 85.1,83.4 84.6,83.4C84.5,83.4 84.4,83.2 84.4,83.1C84.9,82.4 84.6,81.7 84.7,80.9C84.1,81.3 83.7,81.5 83.3,81.8C83,81.7 82.9,81.6 82.8,81.6C82.7,81.4 82.6,81.2 82.5,81C82.5,80.7 82.5,80.5 82.5,80.2C82.6,79.1 83.4,78.3 84.3,78ZM90.8,83.8C91.5,83.8 91.8,83.9 92.2,83.9C92.7,83.2 93.8,83.2 93.9,82.1C93.5,82.2 93.2,82.3 92.7,82.4C92.3,82.8 91.9,83.5 90.8,83.8Z" style="fill:rgb(125,125,125);fill-rule:nonzero;"/>
                <path d="M182.9,75.8C183,76.7 183.9,77.7 183.5,78.7C183.2,79.7 182.9,80.7 182.1,81.5C181.3,82.2 180.4,82.5 179.4,82.8C179,82.8 178.5,82.7 178,82.6C177.5,82.5 177.1,82.4 176.6,82.3C175.2,81.2 174.2,79.8 174.3,77.8C174.4,75.8 175.8,74.8 177.3,73.8C179.4,73.5 181.4,73.6 182.9,75.8Z" style="fill:rgb(218,97,101);fill-rule:nonzero;"/>
                <path d="M99.7,114.4C100,114.3 100.5,114.7 100.6,114.1C100.8,114.1 101,114.1 101.2,114C103.1,112.9 105.1,111.9 106.2,109.8C106.3,109.7 106.4,109.6 106.5,109.5C106.7,109.7 106.8,110 107.1,110.1C109.2,111 110,112.6 109.9,114.8C109.9,115.2 109.9,115.5 109.9,115.8C109.3,116.8 109,118 108,118.7C107.1,119.3 106.1,119.6 105.1,119.7C104,119.9 102.9,119.3 102,118.7C101.1,118.2 100.5,117.2 100,115.9C100,115.5 100.2,114.9 99.7,114.4Z" style="fill:rgb(158,158,158);fill-rule:nonzero;"/>
                <path d="M30.9,99.9C34,99.7 35.2,100 36.5,102.7C36.6,103.3 36.7,103.8 36.7,104.2C36.7,104.6 36.6,105 36.6,105.4C36.6,105.7 36.4,105.9 36.3,106.2C35.5,107.7 33.8,109 32,108.8C31.1,108.7 30.2,108.5 29.5,107.8C28.8,107.1 28,106.4 27.8,105.3C27.7,104.8 27.5,104.3 27.7,103.9C28.2,102.3 28.7,101 30.7,100.3C30.7,100.1 30.8,100 30.9,99.9Z" style="fill:rgb(101,129,151);fill-rule:nonzero;"/>
                <path d="M114.8,103C114.7,103.6 114.3,103.2 113.9,103.3C113.9,103.2 113.9,103 113.8,102.9C113.8,102.8 113.7,102.8 113.6,102.8C113.6,102.9 113.5,103 113.5,103.1C112.2,103.1 111.3,102.3 110.4,101.4C110,101 109.8,100.4 109.5,99.8C109.5,98.9 109.5,97.9 109.5,96.9C110.1,95.6 110.8,94.4 112.3,93.9C112.6,93.9 112.9,93.9 113.2,93.9C113.9,95.2 115,95.7 116.4,95.4C116.7,95.2 117,95.1 117.3,94.9C117.1,94.6 117,94.4 116.9,94.2C117.1,94.2 117.3,94.2 117.4,94.2C117.7,94.5 117.3,95.1 117.8,95.1C118,95.3 118.2,95.5 118.4,95.7C118.7,96.4 119.2,97 119,97.9C118.9,98.3 118.8,98.7 118.8,99.2C118.8,99.5 118.9,99.9 118.9,100.2C118.9,100.3 118.7,100.3 118.6,100.4C118.6,100.2 118.5,100 118.5,99.7C117.6,100.2 116.7,100.5 116,101C115.3,101.6 114.6,102.3 113.8,103.1C114.5,103 114.6,103 114.8,103Z" style="fill:rgb(126,126,126);fill-rule:nonzero;"/>
                <path d="M146.5,84.9C145.2,82.6 145.3,81.2 146.2,79.6C146.7,78.7 147.6,78.4 148.3,78C150.3,77.1 152.6,78.5 153.3,79.8C154.6,82.2 153.8,84.3 152,85.5C150.5,86.6 148.3,87 146.5,84.9Z" style="fill:rgb(218,97,101);fill-rule:nonzero;"/>
                <path d="M165.8,22.8C168.5,23 170.3,24.6 170.3,27.1C170.2,29.8 168.7,31.1 166.1,31.4C165.1,31.5 164,31 163.2,30.3C162.3,29.4 161.7,28.2 161.8,27C161.8,25.9 162.4,24.8 163.3,24C164,23.2 165,23.1 165.8,22.8Z" style="fill:rgb(167,82,84);fill-rule:nonzero;"/>
                <path d="M99.9,91.5C96.7,89.9 96.3,87.6 97.1,85.7C98,83.6 100.1,82.5 102.3,83.2C103.1,83.4 103.9,83.8 104.4,84.7C104.9,85.7 105.5,86.6 105.3,87.7C104.8,89.8 103.2,92 99.9,91.5Z" style="fill:rgb(157,157,157);fill-rule:nonzero;"/>
                <path d="M153.7,88.9L153.8,88.8C154.2,87 155.8,86.6 157.2,86C157.9,85.7 158.7,86.1 159.4,86.3C161.1,86.9 162.5,89.6 162,91.3C161.8,92 161.3,92.7 160.8,93.3C160.2,94 159.3,94.4 158.5,94.5C157,94.8 155.7,94.4 154.7,93.2C154.1,92.5 153.7,91.8 153.7,90.8C153.7,90.3 153.7,89.7 153.7,88.9Z" style="fill:rgb(168,82,84);fill-rule:nonzero;"/>
                <path d="M137.7,35.2C138,35.2 138.6,35.2 139.1,35.2C140.6,35.2 141.4,35.7 142.2,36.9C143,38 143.2,39 142.9,40.4C142.4,42 141.3,42.8 140,43.4C139.3,43.7 138.5,43.5 138,43.5C135.5,42.5 134.4,40.9 134.5,38.8C135.1,37 136,35.8 137.7,35.2Z" style="fill:rgb(218,97,101);fill-rule:nonzero;"/>
                <path d="M130.6,62.1C130.6,62.5 130.5,63 130.6,63.5C130.8,64.6 130.3,65.6 129.6,66.3C129.1,66.8 128.5,67.3 127.8,67.4C127.2,67.6 126.4,68.3 125.8,67.5C124.1,67.5 123.2,66.4 122.5,65C121.9,63.7 122.1,62.5 122.7,61.3C123.7,59.4 125.7,58.8 127.8,59.5C129,59.9 129.7,60.7 130.2,61.8C130.3,61.9 130.4,62 130.6,62.1Z" style="fill:rgb(125,125,125);fill-rule:nonzero;"/>
                <path d="M161,41.5C161.8,45.2 161.2,44.9 160.3,46.6C159.1,47.4 157.9,48.1 156.6,47.8C154,46.9 152.7,45.3 153.1,42.7C153.3,41.1 154.4,40.1 155.8,39.5C157.5,38.8 159,39.2 161,41.5Z" style="fill:rgb(168,82,84);fill-rule:nonzero;"/>
                <path d="M167.2,89.1C166.4,88.5 165.5,87.8 164.6,87.2C164.5,86 164.4,84.9 164.3,83.9C165.4,82 165.4,82 167.2,80.9C168.8,80.8 170.3,80.8 171.5,82.1C172.3,83 172.6,84 172.7,85.2C172.8,86 172.5,86.8 172,87.4C171.7,87.9 171.2,88.3 170.8,88.6C169.8,89.1 169.8,89.1 167.2,89.1Z" style="fill:rgb(218,97,101);fill-rule:nonzero;"/>
                <path d="M163.2,96.7C164.1,96.6 165.1,96.5 165.8,96.4C167.1,96.9 168,97.5 168.6,98.4C168.7,98.8 168.8,99 168.9,99.3C169.5,100.9 169.1,102.3 168,103.5C167.1,104.5 166.1,104.9 164.8,104.8C164.4,104.8 164,104.8 163.7,104.8C163.1,104.5 162.6,104.3 162.2,104C161.9,103.8 161.6,103.4 161.4,103.2C161.1,102.6 160.9,102 160.7,101.5C160.4,99.5 161.6,98.1 163.2,96.7Z" style="fill:rgb(167,82,84);fill-rule:nonzero;"/>
                <path d="M149.6,30.9C154.2,33.1 153.3,37.2 149.8,39.2C149.4,39.2 149,39.1 148.6,39.2C147.4,39.4 146.4,38.8 145.5,38.2C145.3,38.1 145.2,37.8 145.1,37.6C144.2,36 144.2,36 144.2,34.2C145.1,31.8 146.8,30.5 149.6,30.9Z" style="fill:rgb(218,97,101);fill-rule:nonzero;"/>
                <path d="M146.6,101.6C145.3,101.2 143.8,100.9 143.1,99.4C142.6,98.4 142.3,97.4 142.6,96.4C143.1,94.6 144.9,92.8 147.9,93.1C148.8,93.6 149.7,94 150.3,94.9C150.8,95.7 150.7,96.8 151.2,97.6C150.8,98.6 150.5,99.7 149.6,100.5C148.7,101.3 147.7,101.3 146.6,101.6Z" style="fill:rgb(218,97,101);fill-rule:nonzero;"/>
                <path d="M128.4,94.6C129.3,92.7 130.5,91.5 132.6,91.6C134.6,91.7 136,92.7 136.7,94.7C136.7,96 136.9,97.5 135.6,98.7C134.7,99.6 133.7,99.9 132.5,99.9C131.3,99.9 130.3,99.5 129.4,98.7C128.3,97.6 128.3,96.1 128.4,94.6Z" style="fill:rgb(168,82,84);fill-rule:nonzero;"/>
                <path d="M76.9,94.9C77.5,93.7 78,92.6 79.3,92.2C80.3,91.9 81.3,91.7 82.4,92C84.3,92.6 85.7,95.1 85.2,96.9C84.6,99 83.6,100.5 79.8,100.2C77.3,98.7 76.9,97.9 76.9,94.9Z" style="fill:rgb(87,118,141);fill-rule:nonzero;"/>
                <path d="M37.2,65.4C35.8,67.2 34.2,67.8 32.1,67.4C31.1,66.8 30,66.2 29.5,64.9C29.1,63.8 29.1,62.7 29.5,61.6C30.1,59.9 32.6,58.8 34.4,59.3C36.9,60 38.1,62 37.2,65.4Z" style="fill:rgb(87,117,141);fill-rule:nonzero;"/>
                <path d="M65.8,64.1C66.3,62.9 66.9,61.9 67.9,61.4C68.5,61.1 69.2,60.9 69.9,60.8C70.4,60.8 71,61 71.6,61.2C72.6,61.6 73.3,62.3 73.8,63.2C74.3,64.1 74.4,65.2 74.1,66.2C73.9,66.8 73.7,67.5 73.2,68C72.8,68.5 72.1,68.8 71.5,69.1C71,69.3 70.4,69.5 70,69.4C67.7,68.9 65.6,67.7 65.8,64.1Z" style="fill:rgb(87,117,141);fill-rule:nonzero;"/>
                <path d="M52.4,104.3C52.6,102.9 52.7,101.6 53.9,100.9C54.2,100.7 54.5,100.4 54.9,100.3C55.8,100 56.7,99.8 57.7,99.9C58.8,100.5 60,101 60.4,102.3C60.7,103 61.1,103.8 60.9,104.5C60.7,105.5 60.2,106.4 59.6,107.1C59.1,107.6 58.3,108 57.4,108.1C56.1,108.3 55,107.9 54,107.2C53,106.5 52.6,105.4 52.4,104.3Z" style="fill:rgb(87,117,141);fill-rule:nonzero;"/>
                <path d="M13.9,56.1C13.7,55.3 13.5,54.5 13.3,53.7C13.5,53.1 13.5,52.3 13.9,51.7C14.3,51.1 14.9,50.6 15.6,49.9C16.6,49.8 17.7,49.7 18.7,49.6C19.9,50.2 20.6,50.9 21.3,51.8C21.7,52.4 21.9,53.2 21.8,53.8C21.8,54.5 21.7,55.4 21.1,56.1C20.5,56.7 20,57.4 19.1,57.6C17.1,58.3 15.5,57.9 13.9,56.1Z" style="fill:rgb(87,117,140);fill-rule:nonzero;"/>
                <path d="M59.7,115.8C59.7,116.1 59.7,116.6 59.7,117.2C59.6,117.7 59.5,118.2 59.4,118.8C57.8,120.6 57,120.9 54.6,120.8C52.7,120.1 51.8,118.8 51.5,117.1C51.2,115.3 52.3,114 53.7,112.9C54.8,112.4 56.1,112.3 57.3,112.8C58.4,113.3 59.3,114.2 59.7,115.8Z" style="fill:rgb(87,118,141);fill-rule:nonzero;"/>
                <path d="M83.1,14C81.8,16.6 80,17.5 77.1,16.6C74.1,13.8 74.6,12.5 75.4,10.7C76.2,9 78.6,8.2 79.9,8.7C82,9.5 83.4,10.4 83.1,14Z" style="fill:rgb(101,129,151);fill-rule:nonzero;"/>
                <path d="M32.6,52.8C32.8,52 32.5,51.2 32.9,50.3C33.2,49.6 33.4,48.8 34.1,48.4C34.8,48 35.5,47.6 36.3,47.5C37,47.4 37.8,47.7 38.6,47.8C41.6,50.2 41.7,53 38.6,55.5C37.8,55.6 36.9,55.8 36.1,55.8C35.4,55.7 34.7,55.3 34.1,54.8C33.4,54.2 33.1,53.5 32.6,52.8Z" style="fill:rgb(101,129,151);fill-rule:nonzero;"/>
                <path d="M63.4,94.2C63.1,94.6 62.8,94.9 62.7,95.3C62.2,96.4 61.2,96.5 60.3,96.9C58.9,97.5 57.9,96.7 56.8,96.2C56.2,95.8 55.6,94.9 55.5,94.2C55.4,93.6 55.2,92.9 55.4,92.2C55.6,91.5 55.8,90.9 56.3,90.4C56.9,89.6 58,89 58.9,88.9C59.6,88.9 60.2,88.9 60.8,88.9C61.9,89.6 62.8,90.4 63.4,91.5C63.4,92.3 63.4,93.2 63.4,94.2Z" style="fill:rgb(101,129,151);fill-rule:nonzero;"/>
                <path d="M51,51.8C50.6,53 49.7,53.5 49.1,54.2C48.5,54.3 48,54.5 47.5,54.5C47,54.6 46.5,54.5 46,54.5C44.6,54.1 43.8,53.1 43.1,51.8C43.1,51 43.1,50.1 43.1,49.2C43.5,47.9 44.5,47.1 45.7,46.7C46.3,46.5 46.9,46.1 47.7,46.4C49.2,46.9 50,47.3 50.4,47.9C51.2,49.1 51.1,50.5 51,51.8Z" style="fill:rgb(101,129,151);fill-rule:nonzero;"/>
                <path d="M96.4,48.4C96.4,48.2 96.4,48.1 96.4,47.9C95.5,47.4 95.5,47.4 94.6,45.7C94.6,44.8 94.6,43.9 94.6,42.9C95.1,42.2 95.6,41.4 96,40.8C96.8,40.6 97.4,40.5 97.9,40.3C98.6,39.9 99.2,40.1 99.8,40.4C99.9,41 100.4,40.6 100.7,40.7C100.8,41.3 100.9,41.9 101.1,42.5C101.6,42.8 102,43.1 102.5,43.4C103,42.9 103.6,43.3 104.2,43.2C104,43.9 103.4,43.3 103,43.6C103,44.2 103,44.8 103,45.3C102.2,47 101.4,48.3 99.6,48.6C99.6,48.8 99.6,49 99.6,49.1C99.4,49 99.2,48.8 99,48.7C99.1,48.5 99.2,48.4 99.3,48.3C98.7,48.2 98.2,48 97.6,47.9C97.1,48 96.9,48.6 96.4,48.4Z" style="fill:rgb(158,158,158);fill-rule:nonzero;"/>
                <path d="M40.6,103.4C41.9,101.4 43.3,100.1 46.6,101.1C47.1,101.6 47.6,102.1 48.1,102.6C48.6,103.5 48.6,104.5 48.6,105.5C48.6,106.1 48.4,106.6 47.9,107.1C47.4,107.7 46.8,108.2 46.3,108.7C45.8,108.8 45.3,109.1 44.9,109.1C42.8,109.1 41.5,108.4 40.6,106.2C40.5,105.9 40.5,105.6 40.5,105.3C40.6,104.7 40.6,104.1 40.6,103.4Z" style="fill:rgb(101,129,151);fill-rule:nonzero;"/>
                <path d="M65.9,106.6C65.4,105.2 65.3,103.9 65.9,102.4C67,100.8 68.7,100.2 71,100.6C72.3,101.6 72.8,101.5 73.8,104.5C73.4,105.7 73.3,107 72.2,107.8C71.6,107.8 71.4,108.7 70.6,108.5C70.1,108.4 69.6,109 68.9,108.7C67.8,108.3 66.8,107.6 65.9,106.6Z" style="fill:rgb(101,129,151);fill-rule:nonzero;"/>
                <path d="M107.1,45C107.3,45 107.4,45.1 107.6,45C108.7,44.4 109.6,44.8 110.6,45.2C111.6,45.7 112.3,46.5 112.7,47.6C112.7,47.7 112.9,47.8 113,48C112.9,48.8 113,49.5 112.7,50.3C112.2,51.9 111.1,52.6 109.6,53C109.1,53.1 108.5,53.4 108.2,53.3C107.7,53 107.2,53.1 106.8,53C106.7,52.8 106.6,52.6 106.5,52.4C106.4,52 106.4,51.5 106.3,51.1C106.1,50.1 106.1,49.1 106.3,48.2C106.4,47.7 106.2,47.1 106.5,46.8C106.9,46.3 106.7,45.8 106.8,45.4C106.9,45.2 107,45.1 107.1,45Z" style="fill:rgb(86,86,86);fill-rule:nonzero;"/>
                <path d="M115.8,81.1C115.9,81.2 116.1,81.3 116.1,81.3C116.1,81.7 116.1,82.1 116.1,82.6C117,82.4 117.6,82.9 118.3,83.2C118.4,83.3 118.5,83.4 118.6,83.5C118.6,85 118.8,86.3 120.4,86.9C120.4,87 120.4,87.1 120.4,87.2C120.2,88.8 119.4,90 117.9,90.6C117.3,91.1 116.7,90.9 116.1,90.9C114.9,90.9 114.7,90.8 113.9,90C112.7,89.4 112.3,88.3 112.4,87.1C112.4,86.7 112.2,86.4 112.1,86C112.2,86 112.3,86 112.4,86C112.9,85.9 113.3,85.8 113.9,85.6C114.3,85.2 114.7,84.8 115.2,84.3C115.7,83.8 115.9,83.3 115.8,82.6C115.8,82.1 115.8,81.6 115.8,81.1Z" style="fill:rgb(126,126,126);fill-rule:nonzero;"/>
                <path d="M89,75.8C88.8,75.7 88.6,75.6 88.4,75.5C88.1,75.1 88.1,74.7 88.1,74.3L88.1,72.5C88.3,72.3 88.5,72 88.7,71.7C88.5,71.6 88.3,71.5 88.1,71.4C88.1,71.3 88.1,71.1 88.1,70.9C88.3,71 88.4,71.1 88.7,71.3C88.9,71.1 89.1,70.8 89.3,70.6C89.5,69.8 90.3,69.6 90.9,69.5C91.6,69.4 92.3,69.3 92.9,69.5C94.4,69.9 95,70.5 96,72.3C96,72.9 96,73.5 96,74.1C96,74.6 95.8,75.1 95.7,75.8C95.4,76.1 94.9,76.6 94.5,77C94.4,77.1 94.1,77.1 93.9,77.1C93.8,76.8 93.7,76.6 93.5,76.3C92.5,76 91.6,74.9 90.2,75.4C90.3,75.6 90.4,75.7 90.5,75.9C90.3,75.9 90.1,75.9 89.9,75.9C89.6,75.4 89.3,75.4 89,75.8ZM91.8,72.2C92.1,71.7 92.6,71.9 93,71.8C93.5,71.7 93.7,71.2 93.4,70.9C93,70.5 92.6,70.1 92.4,69.8C92,70.1 91.6,70.5 91.1,71C91.3,71.3 91.5,71.7 91.8,72.2Z" style="fill:rgb(115,115,115);fill-rule:nonzero;"/>
                <path d="M92.7,35.2C92.8,34.5 92.5,33.7 93,33.1C92.9,32.8 92.8,32.5 92.7,32.1C93,31.2 93.7,30.7 94.3,30.1C94.4,30 94.7,30 94.9,30C95.5,29.8 96.1,29.6 96.8,29.4C97.9,29.9 99.2,30.1 99.9,31.2C99.9,31.5 99.9,31.7 100,31.8C98.8,32.4 97.6,32.9 96.3,32.1C95.9,31.7 95.6,31.2 95.2,30.8C95.2,30.8 95.1,30.8 95,30.8C95,31 95,31.2 95,31.6C95.1,31.7 95.4,31.9 95.7,32.2C96.3,32.8 96.9,33.3 97.8,33.2C98.7,33.1 99.5,32.9 100,31.9C100,32 100.1,32 100.2,32C100.9,32.4 100.8,33.2 100.8,33.8C100.2,33.8 99.6,33.8 99,33.8C98.1,33.8 96.8,34.9 96.5,35.8C96.3,36.5 96,37.1 96.5,37.8C96.2,37.8 95.9,37.8 95.6,37.8C94.8,38 94.3,37.4 93.8,36.9C93.2,36.3 93,35.7 92.7,35.2Z" style="fill:rgb(114,114,114);fill-rule:nonzero;"/>
                <path d="M88.7,25C88.6,24.9 88.5,24.8 88.4,24.7C88.4,24.5 88.6,24.1 88.1,24.1C88.1,23.9 88.1,23.7 88.1,23.5C88.1,22 88.6,20.7 89.8,19.8C90.6,19.2 91.5,18.9 92.5,18.9C93,19.4 93.6,19.1 94.2,19.3C94.6,19.6 95,19.8 95.4,20.1C95.7,20.4 95.9,20.9 96.2,21.3C96.2,22.3 95.5,23 94.8,23.4C93.3,24.4 91.6,25.1 89.8,25C89.3,25 89,25 88.7,25Z" style="fill:rgb(113,113,113);fill-rule:nonzero;"/>
                <path d="M169.7,35.9C169.7,35.3 169.7,34.7 169.7,33.9C170.2,33.3 170.8,32.7 171.3,32.1C172,32 172.6,31.7 173.2,31.8C173.8,31.9 174.4,32.2 174.9,32.5C175.2,32.8 175.3,33.4 175.6,33.7C176.2,34.5 175.7,35.4 175.9,36.1C174.8,37.8 173.4,38.5 171.3,37.7C170.8,37.3 170.2,36.6 169.7,35.9Z" style="fill:rgb(167,82,84);fill-rule:nonzero;"/>
                <path d="M14.5,66.9C14,66.5 13.5,66.1 13,65.7C12.2,62.7 12.7,62.7 14.2,61.1C14.7,61 15.2,60.8 15.7,60.8C16.2,60.8 16.6,61 17.2,61.2C17.7,61.7 18.2,62.4 18.7,62.9C18.8,64.2 18.8,65.2 17.9,66.1C16.9,67.1 15.7,66.9 14.5,66.9Z" style="fill:rgb(86,117,141);fill-rule:nonzero;"/>
                <path d="M112.4,86L110.9,86C110.6,86 110.4,85.9 110.1,85.7C108.8,85 108.2,84 107.7,82.7C107.3,81.7 107.9,81 107.9,80.1L108,80.1C108.3,81.6 109.5,82.2 110.8,82.6C111.9,82.2 113.1,82 113.5,80.6C113.7,79.7 113.3,78.8 112.9,78C113.2,78 113.4,78 113.7,78C114.2,78.7 115.2,79.2 115.5,80.1C115.6,80.4 115.6,80.7 115.7,81.1C115.7,81.6 115.7,82.1 115.7,82.6C115.5,82.7 115.4,82.9 115.2,82.9C113.5,83.1 112.8,84.5 112.4,86Z" style="fill:rgb(124,124,124);fill-rule:nonzero;"/>
                <path d="M136.6,120.5C136.1,120.4 135.6,120.2 134.9,120.1C133.3,118.8 133.1,117.2 133.7,116C133.9,115.6 134.5,115.2 134.9,114.9C135.3,114.6 135.7,114.4 136.2,114.3C136.7,114.3 137.2,114.4 137.7,114.5C140.2,116.7 140,119.5 136.6,120.5Z" style="fill:rgb(218,97,101);fill-rule:nonzero;"/>
                <path d="M89.6,113.7C90.2,114.2 90.8,114.7 91.3,115.2C91.4,115.8 91.5,116.3 91.7,116.9C91.6,117.1 91.5,117.5 91.3,118C91,118.3 90.5,118.8 90,119.2C89.5,119.3 88.9,119.5 88.4,119.5C87.9,119.4 87.4,119 86.8,118.7C86.6,118.2 86.3,117.7 85.9,117C86,116.5 86.1,115.8 86.2,115.1C87.4,113.9 87.7,113.7 89.6,113.7Z" style="fill:rgb(101,129,151);fill-rule:nonzero;"/>
                <path d="M157.3,27.5C157.7,28 158.2,28.6 158.5,29.1C158.7,30.7 158.6,32.1 156.7,32.8C156.2,32.8 155.5,32.8 154.8,32.8C154.5,32.6 154.2,32.3 153.7,32C153.6,31.7 153.3,31.3 153,30.7C153,29.7 153.1,28.5 154.1,27.9C155,27.4 156,26.7 157.1,27.9C157.2,27.7 157.2,27.6 157.3,27.5Z" style="fill:rgb(217,98,102);fill-rule:nonzero;"/>
                <path d="M160.3,78.6C162.3,79.8 162.3,79.8 162.2,82.3C161.6,84.1 160.3,84.3 158.7,84.1C157.7,83.8 157.2,82.9 156.8,82C156.7,81.7 156.5,81.2 156.7,81C157.1,80.4 157.2,79.6 157.8,79.2C158.6,78.7 159.4,78.5 160.3,78.6Z" style="fill:rgb(218,98,102);fill-rule:nonzero;"/>
                <path d="M163.3,39.4C162.9,39 162.5,38.6 162,38.1C162,37.4 162,36.6 162,35.9C162.5,35.4 162.9,34.7 163.8,34.3C164.4,34.3 165.1,34.3 165.9,34.3C166.3,34.7 166.8,35.2 167.2,35.6C167.5,37.1 167.5,37.1 167.2,38.5C166.9,38.8 166.5,39.1 166.1,39.5C165.7,39.6 165.3,39.8 164.8,39.8C164.3,39.8 163.8,39.6 163.3,39.4Z" style="fill:rgb(215,101,105);fill-rule:nonzero;"/>
                <path d="M179.8,68.1C179.3,68.5 178.8,68.9 178.3,69.3C176.7,69.5 175.3,69.3 174.6,67.5C174.6,67 174.6,66.3 174.6,65.6C175.5,64.7 176.3,63.6 177.9,63.9C180,65 180.4,65.9 179.8,68.1Z" style="fill:rgb(218,98,102);fill-rule:nonzero;"/>
                <path d="M173.9,93.1C174.4,93.7 174.8,94.2 175.2,94.7C175.4,96.3 175.3,97.7 173.4,98.4C172.9,98.4 172.2,98.4 171.5,98.4C169.5,96.8 169.4,95.8 170.3,94.3C170.7,93.5 171.4,93.4 171.9,93C172.5,92.4 173.1,93.2 173.9,93.1Z" style="fill:rgb(218,97,101);fill-rule:nonzero;"/>
                <path d="M116.4,12.5C116.1,12.9 115.9,13.2 115.6,13.6C114.9,14 114,14.5 112.9,14.2C112,13.9 111.5,13.3 111.2,12.5C111,11.7 110.7,10.9 111.1,10.1C111.7,9.6 112.2,9.2 112.7,8.7C113.4,8.7 114,8.7 114.5,8.7C114.9,9 115.4,9.2 115.7,9.4C116,9.7 116.1,10.1 116.4,10.5C116.4,11.1 116.4,11.8 116.4,12.5Z" style="fill:rgb(218,97,101);fill-rule:nonzero;"/>
                <path d="M153.1,101.7C152.3,99.6 152.7,98.2 153.7,97.6C154.3,97.2 155,97.1 155.8,97.1C156.3,97.1 156.7,97.4 157.1,97.7C157.8,98.2 158,99 158.2,99.7C158.5,100.5 157.7,101.1 157.5,101.9C157,102.2 156.5,102.4 155.9,102.7C154.8,102.7 155.1,102.8 153.1,101.7Z" style="fill:rgb(167,82,84);fill-rule:nonzero;"/>
                <path d="M128.8,41.6C128.3,41.5 127.8,41.4 127.3,41.2C126.1,40.4 125.8,39.2 126,37.9C126.5,36.6 127.4,36.1 128.5,35.9C128.9,36 129.3,36.1 129.8,36.2C130.2,36.6 130.6,37.1 131.1,37.7C131.3,38.4 131.5,39.2 131,40.2C130.5,41.2 129.5,41.2 128.8,41.6Z" style="fill:rgb(218,98,101);fill-rule:nonzero;"/>
                <path d="M90.5,87.9C92.5,88.6 92.5,90.2 92.4,91.7C91.9,92.2 91.5,92.7 91,93.1C88.9,93.5 88.9,93.5 87.8,92.4C86.8,91.5 86.7,90.4 87.3,89.1C87.2,89.2 87.4,89.1 87.5,89C87.9,88.6 88.2,88.3 88.6,87.9C89.2,87.9 89.9,87.9 90.5,87.9Z" style="fill:rgb(157,157,157);fill-rule:nonzero;"/>
                <path d="M139.7,105.9C138.3,105.7 137.2,105.4 136.7,103.8C136.7,103.3 136.7,102.6 136.7,101.9C137.1,101.5 137.6,101 138,100.6C138.5,100.5 138.9,100.4 139.6,100.3C139.7,100.3 140.1,100.5 140.4,100.6C140.4,100.5 140.5,100.5 140.5,100.4C140.9,100.8 141.3,101.2 141.6,101.6C141.9,102 142.2,102.4 142.1,102.9C142,103.5 141.8,104 141.5,104.5C141.2,105 140.7,105.3 140.5,105.6C140.2,105.8 139.9,105.8 139.7,105.9Z" style="fill:rgb(167,81,84);fill-rule:nonzero;"/>
                <path d="M119.7,16.8C119.9,17.7 119.5,18.4 119.1,19.1C118.7,20 117.7,19.8 117.1,20.3C116.2,20 115,20 114.4,19C113.9,18.2 114.1,17.4 114.1,16.5C115.2,14.6 116.2,14.6 118,14.8C118.3,15.1 118.7,15.4 119,15.8C119.3,16.2 119.5,16.5 119.7,16.8Z" style="fill:rgb(218,98,102);fill-rule:nonzero;"/>
                <path d="M65.7,109.7C66.6,112.3 66.1,112.8 64.6,113.7C63.2,113.9 61.9,113.7 61,112.3C60.9,112.1 60.8,111.7 60.7,111.2C61,110.3 61,109 62.6,108.5C63.1,108.5 63.9,108.5 64.8,108.5C65,108.9 65.4,109.3 65.7,109.7Z" style="fill:rgb(86,117,141);fill-rule:nonzero;"/>
                <path d="M78,108.5C76,107.4 76,106.1 76.7,104C78.7,103 78.7,103 80.3,103.3C80.7,103.8 81.2,104.3 81.6,104.9C81.6,105.6 81.6,106.2 81.6,106.7C81.3,107.1 81.2,107.5 80.9,107.9C80.6,108.2 80.2,108.3 79.8,108.6C79.3,108.5 78.6,108.5 78,108.5Z" style="fill:rgb(86,117,141);fill-rule:nonzero;"/>
                <path d="M80.6,21.3C80.5,21.7 80.4,22.1 80.3,22.5C80,22.8 79.6,23.2 79.2,23.5C79.2,23.6 79.3,23.6 79.3,23.7C78.5,23.8 77.8,24 77,24.1C76.3,23.5 75.7,22.9 75,22.3C75.1,21.5 75.2,20.7 75.4,19.8C75.8,19.5 76.3,19.1 76.8,18.8C77.5,18.8 78.2,18.8 79,18.8C79.7,19.5 80.4,20.2 80.6,21.3Z" style="fill:rgb(101,129,151);fill-rule:nonzero;"/>
                <path d="M48,95.9C48.5,95.5 49,95.1 49.5,94.7C50.1,94.7 50.6,94.7 51.2,94.7C51.7,95.1 52.3,95.5 52.8,95.9C52.9,96.6 53.2,97.1 53.1,97.7C53.1,98.2 52.7,98.6 52.4,99.2C51.8,99.5 51.2,100 50.5,100.1C49.8,99.8 48.9,99.9 48.4,99.1C47.7,97.5 47.7,97.5 48,95.9Z" style="fill:rgb(102,129,151);fill-rule:nonzero;"/>
                <path d="M110.5,90.9C110.6,91.1 110.7,91.2 110.8,91.4C110.7,91.8 110.6,92.3 110.4,92.8C110,93.2 109.5,93.7 108.9,94.3C108.4,94.3 107.7,94.3 106.9,94.3C106.1,94 105.6,93.4 105.3,92.5C105,91.6 105.3,91 105.7,90.3C106,89.8 106.5,89.5 106.9,89.1C107.5,89.1 108,89.1 108.6,89.1C109.1,89.3 109.6,89.6 110,90C110.4,90.3 109.9,90.9 110.5,90.9Z" style="fill:rgb(126,126,126);fill-rule:nonzero;"/>
                <path d="M55.7,23.2C55.2,23.2 54.6,23.2 54,23.2C53.5,22.9 53.1,22.5 52.7,22.3C52.5,21.7 52.3,21.3 52.3,20.9C52.2,20.5 52.3,20.1 52.3,19.7C52.6,19.3 52.8,18.9 53.1,18.6C53.2,18.5 53.2,18.4 53.3,18.4C53.6,18.3 53.9,18.1 54.2,18.1C54.7,18 55.2,18 55.7,18C56.5,18.4 57.2,18.8 57.5,19.7C57.7,21.1 57.5,22.5 55.7,23.2Z" style="fill:rgb(101,129,151);fill-rule:nonzero;"/>
                <path d="M26.9,96.2C25.2,95.1 25.2,95 25.2,92.4C25.6,92 26.2,91.4 26.7,90.9C27.5,90.9 28.1,90.9 28.7,90.9C29.9,91.3 30.2,92.3 30.4,93.5C30.6,94.9 29.6,95.5 28.6,96.2C28.1,96.2 27.5,96.2 26.9,96.2Z" style="fill:rgb(102,129,151);fill-rule:nonzero;"/>
                <path d="M47.8,118.7C47.4,118.7 46.9,118.5 46.6,119C46.3,118.5 45.8,118.8 45.3,118.6C44.9,118.1 44.5,117.6 44.1,117.1C44.1,116.4 44.1,115.8 44.1,115.2C44.3,114.9 44.6,114.5 44.9,114.1C45.2,114 45.6,113.7 46.3,113.4C47,113.2 47.7,113.8 48.6,114.2C48.8,114.5 49,114.8 49.3,115.3C49.2,117.3 49.2,117.3 47.8,118.7Z" style="fill:rgb(101,129,151);fill-rule:nonzero;"/>
                <path d="M69.1,9.9C70.3,8.7 70.3,8.7 72.1,8.7C72.6,9 73,9.2 73.5,9.4C74.4,11.5 74.4,11.5 73.2,13.5C72.4,13.6 71.6,13.8 70.8,14C70.1,13.5 69.5,13 69.1,12.7C68.9,12 68.8,11.6 68.7,11C68.8,10.8 68.9,10.5 69.1,9.9Z" style="fill:rgb(101,129,151);fill-rule:nonzero;"/>
                <path d="M27.3,48.4C28.1,48.3 28.9,48.6 29.6,49.2C30.4,50 30.5,50.9 30.4,51.7C29.8,53.5 28.5,53.7 26.9,53.5C26.2,53.2 25.4,52.8 25.3,51.8C25.3,50.9 25,50 25.8,49.1C26.2,49 26.7,48.8 27.3,48.4Z" style="fill:rgb(101,129,151);fill-rule:nonzero;"/>
                <path d="M53.9,16.3C51.9,15.1 51.8,14.6 52.3,12.1C52.7,11.8 53.2,11.5 53.7,11.2C56,11.1 56.1,11.2 57.2,12.8C57.2,13.8 57.4,14.8 56.6,15.6C55.9,16.4 55,16.5 53.9,16.3Z" style="fill:rgb(101,129,151);fill-rule:nonzero;"/>
                <path d="M26.1,60.8C26.1,61.5 26.1,62.1 26.1,62.7C25.2,64.1 24,64.4 22.5,64.1C21.7,63.2 20.6,62.5 20.9,60.9C21.6,59.8 21.7,59.6 22.8,58.9C24.3,58.7 25.5,59.1 26.1,60.8Z" style="fill:rgb(101,129,151);fill-rule:nonzero;"/>
                <path d="M58.1,43.9L58.1,46.1C57.6,46.5 57,47 56.5,47.4C54.5,47.4 54.5,47.4 53.2,46C53.1,45.4 52.9,44.8 52.9,44.3C53,43.8 53.3,43.4 53.5,43C53.9,42.7 54.2,42.5 54.6,42.2C54.5,42.3 54.5,42.2 54.6,42.2C55.2,42.2 55.7,42.2 56.3,42.2C57.1,42.7 57.9,43 58.1,43.9Z" style="fill:rgb(101,129,151);fill-rule:nonzero;"/>
                <path d="M84.3,78C83.3,78.3 82.6,79.1 82.5,80C82.5,80.2 82.5,80.5 82.5,80.8C82.1,80.9 81.7,81.2 81.4,81.1C80.7,80.9 79.8,80.7 79.4,79.9C79.2,79.6 79,79.3 78.8,79C78.8,78.6 78.8,78.1 78.8,77.6C78.5,77.1 77.8,77.8 77.6,77.1C78.1,77.1 78.6,77.1 79.1,77.1C79.2,76.7 79.3,76.3 79.5,75.9C80.3,75.9 81.1,75.5 82,75.6C83.3,75.7 83.7,76 84.2,77.3C84.2,77.5 84.4,77.7 84.3,78Z" style="fill:rgb(157,157,157);fill-rule:nonzero;"/>
                <path d="M104.1,43.2C103.5,43.3 102.9,43 102.4,43.4C102,43.1 101.5,42.8 101,42.5C100.9,41.9 100.8,41.3 100.6,40.7C100.7,40.6 100.9,40.5 100.9,40.3C100.9,40 100.9,39.7 100.9,39.4C101.2,39 101.5,38.7 101.9,38.5C102,38.4 102,38.3 102.1,38.2L103.9,38.2C104.8,38.3 105.2,39 105.5,39.7C106.3,41.1 105.6,42.8 104.1,43.2Z" style="fill:rgb(125,125,125);fill-rule:nonzero;"/>
                <path d="M107.4,74.6C107.4,74.7 107.4,74.8 107.4,74.9C107.5,75.3 107.3,75.6 107,75.8C106.5,76.1 105.9,76.4 105.4,76.8C104.7,76.9 103.9,76.6 103.2,77.1C103.2,77 103.2,76.9 103.2,76.8C103.3,76.6 103.4,76.4 103.4,76.4C103.4,75.1 102.5,74.5 101.8,73.8C101.2,73.7 100.7,73.6 100.1,73.5C100,73.4 100,73.2 99.9,73.1C100.1,72.1 100.1,71 101,70.1C101.2,70.1 101.4,70.1 101.6,70.1C101.9,70.5 102.2,71 102.4,71.4C102.9,72.6 104,73.2 105,74C105.5,74.4 106.1,74.5 106.8,74.5C107,74.3 107.2,74.5 107.4,74.6Z" style="fill:rgb(128,128,128);fill-rule:nonzero;"/>
                <path d="M92.3,64.8C92.8,64.4 93.3,63.9 93.8,63.5C93.9,62.8 93.9,62 94.5,61.4C94.5,61.7 94.5,62 94.5,62.3C95.1,62.3 95.6,62.3 96,62.3C96,62.5 96,62.7 96,62.9C95.9,64.1 96.6,64.8 97.5,65.4C97.5,65.9 97.9,65.7 98.1,65.7C98.3,66.4 97.4,66.5 97.5,67.1C96.6,67.5 95.7,68.1 94.3,67.7C94,67.4 93.4,67 93,66.6C92.8,65.8 92.8,65.2 92.3,64.8Z" style="fill:rgb(158,158,158);fill-rule:nonzero;"/>
                <path d="M96,62.9C96,62.7 96,62.5 96,62.3C96.3,61.6 96.7,61 97.5,60.5C97.9,60.4 98.6,60.2 99.2,60.2C99.7,60.3 100.2,60.7 100.7,61C101.6,62.6 101.6,62.6 101.3,64.4C100.9,64.7 100.6,65.1 100.2,65.4C99.6,65.3 99,66 98.3,65.7C98.1,65.7 97.7,65.9 97.7,65.4C97.9,65.4 98.1,65.4 98.3,65.4C98.5,63.9 97.4,63.4 96.7,62.7C96.3,62.8 96.2,62.8 96,62.9Z" style="fill:rgb(115,115,115);fill-rule:nonzero;"/>
                <path d="M118.5,83.5C118.4,83.4 118.3,83.3 118.2,83.2C118.4,83.2 118.5,83.2 118.7,83.2C119.1,82.5 119.1,82.5 120.5,81.7C121,81.7 121.5,81.7 122,81.7C123.4,82.1 123.7,83.4 124.1,84.7C124,84.8 123.8,85 123.8,85.2C123.4,86.8 122.3,87.4 120.7,87.2C120.6,87.2 120.5,87.2 120.4,87.2C120.4,87.1 120.4,87 120.4,86.9C120.5,86.9 120.5,86.9 120.6,86.9L120.7,86.8C120.6,86.6 120.4,86.5 120.5,86.3C120.6,85.1 119.7,84.5 119.2,83.6C119,83.6 118.7,83.6 118.5,83.5Z" style="fill:rgb(157,157,157);fill-rule:nonzero;"/>
                <path d="M113,78C113.3,78.9 113.8,79.7 113.6,80.6C113.2,82 112,82.2 110.9,82.6C109.6,82.2 108.4,81.7 108.1,80.1C108.1,80 108.1,79.9 108.1,79.8C109.2,78.3 110.4,77.7 112.4,77.6C112.6,77.7 113,77.5 113,78Z" style="fill:rgb(85,85,85);fill-rule:nonzero;"/>
                <path d="M104.4,53.9C104.8,53.4 105,53.7 105.3,54.1C105.5,55.4 105.2,56.6 103.9,57.5C103.1,57.7 102.2,58.3 101.2,57.6C100.9,57.2 100.5,56.8 100.1,56.4C99.8,55.5 99.5,54.5 100.3,53.5C101.2,52.4 102.3,52.2 103.8,52.4C103.9,52.6 103.9,53.3 104.4,53.9C104.7,53.6 104.2,53 103,52.7C102.5,53.2 101.9,53.7 101.9,54.2C102.3,54.9 102.5,55.2 102.7,55.5C103.1,55.5 103.4,55.5 103.6,55.5C103.8,55.3 104.1,55 104.4,53.9Z" style="fill:rgb(158,158,158);fill-rule:nonzero;"/>
                <path d="M101.9,26.2C101.9,26.4 101.9,26.5 101.9,26.7C101.7,27.1 101,26.5 101,27.2C100.9,27.2 100.8,27.2 100.7,27.2C99.7,27.3 98.8,27.2 97.9,26.6C97.7,26.4 97.6,26.1 97.3,25.8C97.2,25.5 97.2,25.1 97.1,24.5C97.5,24 97.2,22.9 98.3,22.6C99.1,22.4 99.8,21.6 100.7,22.3C100.7,22.7 101,22.5 101.2,22.6C101.3,22.6 101.5,22.8 101.6,22.9C101.5,22.9 101.4,23 101.4,23C101.4,24.2 101.4,25.4 101.4,26.6C101.6,26.4 101.7,26.3 101.9,26.2Z" style="fill:rgb(126,126,126);fill-rule:nonzero;"/>
                <path d="M88.7,25C89,25 89.3,25 89.6,25C91.5,25.1 93.1,24.4 94.6,23.4C95.3,22.9 96,22.3 96,21.3C96.1,21.3 96.2,21.3 96.3,21.3C96.3,22 96.3,22.6 96.3,23.3C96.4,25.1 94.7,27.2 92.3,27.2C92.3,27.6 92.3,28.1 92.3,28.5C92.3,28.6 92.1,28.7 92,28.7C92,28.1 92,27.6 92,26.9C91.7,26.8 91.5,26.6 91.2,26.4C90.8,26.7 90.5,26.9 90.2,27.1C90.2,26.9 90.4,26.5 89.9,26.5L89.3,25.9C89.1,25.6 88.9,25.3 88.7,25Z" style="fill:rgb(157,157,157);fill-rule:nonzero;"/>
                <path d="M96.4,15.5C96.4,15.3 96.4,15.1 96.4,14.9C96.7,15 97,15.2 97.3,15.2C97.9,15.2 98.4,15.2 99,15.2C100.9,16.3 100.9,17.3 100.6,19.1C100.2,19.5 99.7,20 99.3,20.4C99.2,20.4 99,20.3 98.9,20.4C98.4,20.8 97.9,20.8 97.3,20.4C97.2,20.3 96.9,20.4 96.7,20.4C96.7,20.3 96.7,20.2 96.7,20.1C96.8,20 97,19.9 97,19.9C97,18.6 97,17.3 97,16.1C97,16 96.8,15.9 96.7,15.9C96.6,15.7 96.5,15.6 96.4,15.5Z" style="fill:rgb(157,157,157);fill-rule:nonzero;"/>
                <path d="M96.4,48.4C97,48.6 97.1,48 97.5,47.8C98.1,47.9 98.6,48.1 99.2,48.2C99.1,48.3 99.1,48.4 98.9,48.6C99.1,48.7 99.3,48.9 99.5,49C100.4,49.6 100.2,50.6 100.1,51.4C100,52.3 99.4,52.9 98.1,53.3C97.8,53.3 97.2,53.3 96.6,53.3C96.5,53.3 96.4,53.1 96.4,53C96.7,53 96.9,53 97.2,53C97.1,53 97,52.9 97,52.9C97.3,52.7 97.7,52.5 97.9,52.4C97.9,51.9 97.9,51.6 97.9,51.3C97.5,51.1 97.1,50.8 96.7,50.6C96.4,50.8 96.1,50.9 95.8,51.1C95.7,51.5 95.6,51.8 95.5,52.2C95.3,52.1 95.1,51.9 94.9,51.8C94.6,50.3 95.1,49.2 96.4,48.4Z" style="fill:rgb(129,129,129);fill-rule:nonzero;"/>
                <path d="M103.1,76.8C103.1,76.9 103.1,77 103.1,77.1C103,78 102.4,78.3 101.7,78.6C101.6,78.7 101.5,78.8 101.4,78.9C100.7,78.9 100,79.1 99.4,78.6C99.4,78.1 99,78.3 98.8,78.3C98.6,78 98.4,77.7 98.2,77.4C98.2,77.2 98.4,76.8 97.9,76.8C97.9,76.2 97.9,75.7 97.9,75.1C98.3,74.7 98.7,74.3 99.1,74C99.3,73.9 99.5,73.8 99.8,73.8C99.9,73.8 100,73.8 100.1,73.8C100.5,75.5 101.3,76.3 103.1,76.8Z" style="fill:rgb(124,124,124);fill-rule:nonzero;"/>
                <path d="M108.7,57.1C108.6,58 109.5,58.2 109.9,58.7C110.2,59.1 110.8,59.3 111.3,59.6C111.4,59.5 111.4,59.3 111.5,59.2C112.2,59.2 112.6,59.8 113,60.1C112.9,60.1 112.8,60.2 112.6,60.2C112.9,60.3 113.1,60.4 113.3,60.5L113.3,62.2C113.2,62.2 113.1,62.2 113,62.2C113.1,61.8 112.9,61.5 112.6,61.3C112,61 111.4,60.7 110.8,60.5C109.8,60.2 108.7,59.9 107.6,60.1C107.2,60.2 106.9,60.3 106.5,60.4C106.1,60.5 105.7,60.6 105.3,60.7C105.1,59.2 106.1,58.3 107.1,57.6C107.6,57.4 108,56.8 108.7,57.1Z" style="fill:rgb(115,115,115);fill-rule:nonzero;"/>
                <path d="M113.9,90C114.6,90.8 114.9,90.9 116.1,90.9C116.7,90.9 117.4,91 117.9,90.6C118,90.8 118,91.1 118.1,91.3C118.7,92.3 118.7,93.3 118.1,94.3C118,94.5 118,94.7 117.9,95C117.3,94.9 117.7,94.4 117.5,94.1C117.4,94.1 117.2,94.1 117,94.1C116.5,93.6 115.8,93.7 115.3,93.4C114.4,92.9 113.9,93.2 113.3,93.8C113,93.8 112.7,93.8 112.4,93.8C112.6,93.7 112.7,93.5 113,93.3C112.8,92.3 113.2,91.3 113.9,90.4C114,90.3 113.9,90.1 113.9,90Z" style="fill:rgb(158,158,158);fill-rule:nonzero;"/>
                <path d="M102.2,38.3C102.1,38.4 102.1,38.6 102,38.6C101.6,38.8 101.3,39.1 101,39.5C100.9,39.4 100.8,39.2 100.8,39.2C100,39.7 99.2,39.4 98.4,39.5C97.8,39 96.9,38.9 97,38C98,37.6 99,37.3 99.7,36.4C100.2,35.8 100.4,35.2 100.7,34.6C100.7,34.5 100.7,34.4 100.7,34.3C101.8,34.8 101.8,35.9 102.2,36.8C102.3,37 102,37.2 102,37.5C101.9,37.7 101.6,38.1 102.2,38.3Z" style="fill:rgb(159,159,159);fill-rule:nonzero;"/>
                <path d="M97.9,26.5C98.7,27.1 99.7,27.2 100.7,27.1C100.2,27.4 100.2,27.4 99.5,27.5C99.7,27.9 99.8,28.3 100.1,28.5C100.5,28.9 100.3,29.4 100.4,29.9C100.5,30.3 100.3,30.7 100.1,31.1C100,31.3 100.1,31.5 100.1,31.7C100,31.7 99.9,31.7 99.8,31.7C99.8,31.5 99.8,31.3 99.8,31C99.1,29.9 97.8,29.8 96.7,29.2C96.1,29.4 95.4,29.6 94.8,29.8C94.9,28.1 95.7,27.2 97.5,26.7C97.6,26.8 97.8,26.7 97.9,26.5Z" style="fill:rgb(158,158,158);fill-rule:nonzero;"/>
                <path d="M115.1,67.2C115.2,67.2 115.3,67.2 115.4,67.2C117,67.3 117.8,68.2 117.9,69.7C117.9,70.2 117.9,70.6 117.9,71C117.1,72 116.2,72.7 114.8,72.4C114.8,71.9 114.4,72.1 114.2,72.1C114.1,72 114,71.9 113.9,71.8C114.7,70.7 115.4,69.5 115.1,68.1C115.1,67.8 115.1,67.5 115.1,67.2Z" style="fill:rgb(128,128,128);fill-rule:nonzero;"/>
                <path d="M84.3,47.2C83.6,46.3 83.6,46.3 84,44.2C84.2,44.1 84.4,43.8 84.6,43.7C84.8,43.5 85.1,43.4 85.4,43.3C86.3,43.3 87.3,43.1 88.1,43.9C88.6,44.4 88.9,45 88.9,45.7C88,45.5 87.1,45.9 86.2,46C85.4,46 85,46.8 84.3,47.2Z" style="fill:rgb(128,128,128);fill-rule:nonzero;"/>
                <path d="M105.9,14.6C105.7,15.9 105.2,16.7 104.1,16.9C103.2,17.1 102.5,16.5 102,15.8C102,15.2 102,14.6 102,14C103.6,12.4 104.6,12.6 105.9,14.6Z" style="fill:rgb(218,99,103);fill-rule:nonzero;"/>
                <path d="M63.9,13.4C63.5,12.8 63.3,12.5 63,12.1C63.1,11.6 63.3,11.1 63.5,10.6C63.8,10.4 64.1,10.2 64.5,10C64.8,10 65.2,10 65.7,10C66.1,10.5 66.6,11.1 67,11.5C66.9,11.9 66.8,12.3 66.6,12.7C66.3,12.9 66,13.3 65.5,13.7C65.1,13.6 64.5,13.5 63.9,13.4Z" style="fill:rgb(102,130,152);fill-rule:nonzero;"/>
                <path d="M160.3,105.4C160.7,105.8 161,106.1 161.4,106.5C161.4,106.9 161.4,107.3 161.4,107.6C161.2,108 161,108.3 160.8,108.6C160.3,108.8 159.9,108.9 159.4,109.1C159,108.8 158.4,108.4 157.9,108C158,107.2 158.1,106.5 158.2,105.9C158.9,105.4 159.6,105.4 160.3,105.4Z" style="fill:rgb(214,103,107);fill-rule:nonzero;"/>
                <path d="M81.9,46.6C81.8,46.6 81.7,46.6 81.6,46.6C81.6,46.5 81.6,46.4 81.6,46.3C81.7,45.5 81.5,44.7 81,44C80.4,43.2 80.1,42.3 79.7,41.4C79.5,41.4 79.3,41.4 79.2,41.4C79.2,41.3 79.2,41.2 79.2,41.1C80,41.1 80.7,41.1 81.5,41.1C82.5,42 83.6,42.9 83.1,44.8C82.9,45.1 82.5,45.6 82.1,46.1C81.9,46.2 81.9,46.4 81.9,46.6Z" style="fill:rgb(157,157,157);fill-rule:nonzero;"/>
                <path d="M96.7,20.1C96.7,20.2 96.7,20.3 96.7,20.4C96.6,20.7 96.5,21 96.4,21.3C96.3,21.3 96.2,21.3 96.1,21.3C95.8,20.9 95.7,20.4 95.3,20.1C95,19.8 94.5,19.6 94.1,19.3C93.6,19.1 92.9,19.4 92.4,18.9C91.4,18.9 90.5,19.2 89.7,19.8C88.6,20.7 88,22 88,23.5C88,23.7 88,23.9 88,24.1C87.9,24.1 87.8,24 87.7,24C87.5,22.5 87.8,21 88.6,20C89.2,19.3 89.9,18.8 90.8,18.6C91.2,18.5 91.7,17.9 92.2,18.5C92.7,17.7 93.1,18.7 93.7,18.6C94.1,18.5 94.6,19.1 95.1,19.5C95,18.9 94.8,18.3 94.8,17.8C94.8,17.3 95,16.8 95.2,16.2C95.5,16 95.7,15.4 96.3,15.5C96.4,15.6 96.5,15.7 96.6,15.8C96.4,15.8 96.3,15.8 96.2,15.8C95.9,16.2 95.7,16.5 95.4,17C95.4,18.1 95.3,19.4 96.7,20.1Z" style="fill:rgb(131,131,131);fill-rule:nonzero;"/>
                <path d="M84.3,47.2C85,46.8 85.4,46.1 86.2,46C87.1,45.9 88,45.5 88.9,45.7C89,45.8 89.1,45.9 89.2,46C89.1,46.3 88.9,46.7 88.7,47.3C88,48.1 87,48.8 85.6,48.4C85.3,48 84.6,48.1 84.3,47.6C84.3,47.4 84.3,47.3 84.3,47.2Z" style="fill:rgb(89,89,89);fill-rule:nonzero;"/>
                <path d="M106.8,45.3C106.7,45.8 106.9,46.2 106.5,46.7C106.2,47 106.4,47.6 106.3,48.1C106.1,49 106.1,50.1 106.3,51C106.4,51.4 106.4,51.9 106.5,52.3C106.1,51.9 105.6,51.6 105.2,51.1C104.9,50.7 104.6,50.2 104.7,49.7C104.8,48.6 104.5,47.4 105.3,46.5C105.7,46 106,45.3 106.8,45.3Z" style="fill:rgb(118,118,118);fill-rule:nonzero;"/>
                <path d="M62.2,120.7C61.6,119.3 61.8,118.7 63.3,117.8C63.8,117.9 64.2,118.1 64.6,118.2C65.4,119.2 65.4,120.1 64.5,121.1C63.2,121.1 63.2,121.1 62.2,120.7Z" style="fill:rgb(103,130,153);fill-rule:nonzero;"/>
                <path d="M108.1,103.3C108.1,103.2 108.1,103.1 108.1,103C108.5,103.4 109.1,103.7 109.4,104.2C109.7,104.6 110,105.1 109.9,105.6C109.8,106 109.9,106.4 109.9,106.7C109.6,107.1 109.4,107.4 109.1,107.8C108.6,107.9 108,108.6 107.2,108.5C107.2,108.4 107.2,108.3 107.2,108.2C107.9,106.8 108,105.2 108.4,103.8C108.2,103.6 108.2,103.4 108.1,103.3Z" style="fill:rgb(157,157,157);fill-rule:nonzero;"/>
                <path d="M135.1,12.2C135.2,11.9 135.3,11.4 135.5,10.8C136.2,10.7 136.8,10.6 137.4,10.5C138.1,11.1 138.3,11.7 138.2,12.6C137.9,12.9 137.5,13.2 136.8,13.7C136.8,13.7 136.5,13.7 136.1,13.7C136,13.3 135.7,12.9 135.1,12.2Z" style="fill:rgb(219,103,106);fill-rule:nonzero;"/>
                <path d="M35.4,24.3C35.9,24.8 36.2,25.2 36.7,25.6C36.5,26.1 36.2,26.7 36,27.2C35.3,27.2 34.8,27.2 34.3,27.2C33.5,26.6 34.1,25.9 33.8,25.2C34.3,24.8 34.8,24.5 35.4,24.3Z" style="fill:rgb(104,132,154);fill-rule:nonzero;"/>
                <path d="M177.4,39.7C177.3,39.2 177.1,38.7 177,38.2C177.3,37.9 177.6,37.6 177.9,37.3C178.4,37.4 178.9,37.5 179.4,37.7C179.6,38.1 179.7,38.5 179.9,38.9C179.4,39.4 179.1,39.8 178.7,40.2C178.3,40 177.8,39.8 177.4,39.7Z" style="fill:rgb(219,103,106);fill-rule:nonzero;"/>
                <path d="M125.9,78.2C125.5,78.3 125.2,78.4 124.8,78.5C124.4,78.2 124,77.9 123.5,77.6C123.5,77.2 123.5,76.9 123.5,76.5C123.7,76.4 124,76.2 124.3,76C124.3,75.9 124.2,75.9 124.2,75.8C124.6,75.8 125.1,75.8 125.6,75.8C125.8,76.2 126.1,76.6 126.3,77C126.2,77.5 126,77.8 125.9,78.2Z" style="fill:rgb(131,131,131);fill-rule:nonzero;"/>
                <path d="M134,16.8C134.2,16.6 134.4,16.4 134.7,16.1C135,16.1 135.3,16.1 135.6,16.1C135.8,16.3 136,16.6 136.3,17C136.3,17.3 136.3,17.7 136.3,18.2C136.1,18.3 135.8,18.5 135.5,18.7C135.5,18.8 135.6,18.8 135.6,18.9C135.3,18.9 135,18.9 134.5,18.9C134.4,18.8 134.2,18.5 134,18.1C133.9,18.1 133.9,18.2 133.8,18.2C134,17.7 134,17.3 134,16.8Z" style="fill:rgb(218,99,103);fill-rule:nonzero;"/>
                <path d="M127.3,90.2C127.1,90.8 126.9,91.1 126.7,91.5C126.2,91.6 125.7,91.8 125.2,91.9C124.9,91.6 124.6,91.3 124.3,91C124.3,90.8 124.3,90.5 124.3,90.3C124.7,89.9 125.1,89.5 125.6,89C126.1,89.4 126.7,89.8 127.3,90.2Z" style="fill:rgb(219,103,108);fill-rule:nonzero;"/>
                <path d="M118.2,68.2C118.2,68 118.2,67.7 118.2,67.3C118.4,67.1 118.8,66.9 119.3,66.5C119.4,66.5 119.8,66.5 120.2,66.5C120.4,66.7 120.7,67 121,67.3C121,67.6 121,67.9 121,68.2C120.8,68.4 120.5,68.6 120.1,68.9C119.9,68.9 119.5,68.9 119,68.9C118.8,68.8 118.5,68.5 118.2,68.2Z" style="fill:rgb(159,159,159);fill-rule:nonzero;"/>
                <path d="M109.5,12.4C109.8,12.7 110,12.9 110.2,13.1C110.2,13.5 110.2,13.9 110.2,14.4C110,14.6 109.7,14.8 109.4,15.1C109.2,15.1 108.9,15.1 108.5,15.1C108.4,14.9 108.1,14.6 107.8,14.2C107.8,14 107.8,13.6 107.8,13.1C108,12.9 108.2,12.7 108.5,12.4C108.8,12.4 109.1,12.4 109.5,12.4Z" style="fill:rgb(169,85,87);fill-rule:nonzero;"/>
                <path d="M88.7,40.1C88.8,40.2 88.9,40.4 89,40.5C89.1,40.6 89.2,40.7 89.3,40.9C89.2,41 89.2,41.2 89.1,41.3C89.5,41.3 89.8,41.3 90.2,41.3C90.3,41.1 90.4,40.9 90.5,40.7C90.7,40.7 90.8,40.7 91,40.7C90.9,40.8 90.9,41 90.8,41.1C91.3,41.7 91,42.4 90.5,43.1C90.2,43.2 89.8,43.4 89.3,43.5C88.9,43.1 88.5,42.7 88.2,42.3C87.9,41.6 88.9,41 88.7,40.1Z" style="fill:rgb(161,161,161);fill-rule:nonzero;"/>
                <path d="M176.4,89.3C176.7,89 177,88.7 177.3,88.4C177.8,88.5 178.3,88.7 178.8,88.8C179,89.3 179.1,89.7 179.3,90.1C178.8,90.5 178.4,90.8 177.9,91.2C177.5,91.1 177.2,91 176.7,90.8C176.7,90.4 176.5,89.8 176.4,89.3Z" style="fill:rgb(219,102,106);fill-rule:nonzero;"/>
                <path d="M167.2,93.7C166.8,93.7 166.5,93.7 166.1,93.7C165.9,93.5 165.7,93.2 165.4,92.8C165.4,92.6 165.4,92.1 165.4,91.6C165.9,91.4 166.4,91.1 167,90.8C167.4,91.4 167.8,91.8 168.2,92.3C167.8,92.8 167.5,93.2 167.2,93.7Z" style="fill:rgb(219,100,104);fill-rule:nonzero;"/>
                <path d="M133.7,61.3C134.2,61.1 134.7,60.8 135.2,60.6C135.5,61 135.7,61.3 136.1,61.8C136.1,61.9 136.1,62.3 136.1,62.7C135.9,62.9 135.6,63.2 135.3,63.5C135,63.5 134.7,63.5 134.4,63.5C134.2,63.3 134,63 133.7,62.7C133.7,62.3 133.7,61.8 133.7,61.3Z" style="fill:rgb(219,100,104);fill-rule:nonzero;"/>
                <path d="M107.2,38.2C107,37.8 106.8,37.4 106.5,37C106.7,36.6 107,36.2 107.2,35.8C107.8,35.8 108.4,35.8 109,35.8C109.1,36.3 109.3,36.8 109.5,37.5C109.2,37.7 108.8,37.8 108.5,38C108.6,38.1 108.6,38.2 108.7,38.3C108.2,38.2 107.7,38.2 107.2,38.2Z" style="fill:rgb(158,158,158);fill-rule:nonzero;"/>
                <path d="M140.1,117.7C140.3,117.4 140.5,117 140.8,116.6C141.3,116.6 141.7,116.6 142.2,116.6C142.4,116.8 142.6,117.1 142.9,117.4C142.9,117.6 142.9,117.9 142.9,118.3C142.5,118.6 142,118.9 141.6,119.2C140.7,119.1 140.4,118.4 140.1,117.7Z" style="fill:rgb(167,82,84);fill-rule:nonzero;"/>
                <path d="M157.6,18.2C157.9,18.2 158.1,18.2 158.5,18.2C158.7,18.4 158.9,18.7 159.2,19.1C159.2,19.3 159.2,19.7 159.2,20.3C159,20.4 158.6,20.7 158.1,21C157.8,20.9 157.3,20.7 156.8,20.4C156.8,19.9 156.8,19.4 156.8,18.9C157,18.8 157.2,18.5 157.6,18.2Z" style="fill:rgb(219,102,105);fill-rule:nonzero;"/>
                <path d="M160.6,62.9C160.3,62.6 160.1,62.4 159.8,62.1C159.8,61.8 159.8,61.5 159.8,61.1C160,60.9 160.3,60.7 160.6,60.4C160.9,60.4 161.4,60.4 161.9,60.4C162.1,60.9 162.4,61.4 162.7,62C162.3,62.3 162,62.5 161.5,62.9C161.4,62.9 161,62.9 160.6,62.9Z" style="fill:rgb(218,99,103);fill-rule:nonzero;"/>
                <path d="M150.6,54.6C150.9,54.2 151.1,53.9 151.4,53.5C152,53.8 152.5,54 153,54.3C153,54.8 153,55.2 153,55.7C152.8,55.8 152.5,56 152.1,56.4C152.1,56.4 151.8,56.4 151.3,56.4C151.2,56.2 151,55.9 150.8,55.6C150.7,55.6 150.7,55.7 150.6,55.7C150.6,55.3 150.6,54.9 150.6,54.6Z" style="fill:rgb(213,107,110);fill-rule:nonzero;"/>
                <path d="M137,109.2C137.5,108.9 137.8,108.7 138.2,108.5C138.6,108.7 139,109 139.4,109.2C139.4,109.7 139.4,110.1 139.4,110.6C139.2,110.7 138.9,110.9 138.6,111.1C138.6,111.2 138.7,111.2 138.7,111.3C138.4,111.3 138.1,111.3 137.7,111.3C137.5,111.1 137.3,110.8 137,110.3C137,110.1 137,109.7 137,109.2Z" style="fill:rgb(219,99,103);fill-rule:nonzero;"/>
                <path d="M185,62C185.3,62.5 185.5,62.8 185.7,63.2C185.5,63.6 185.2,64 185,64.4C184.5,64.4 184.1,64.4 183.6,64.4C183.5,64.2 183.3,63.9 182.9,63.5C182.9,63.5 182.9,63.2 182.9,62.7C183.1,62.6 183.5,62.4 183.8,62.2C183.7,62.1 183.7,62.1 183.6,62C184.1,62 184.5,62 185,62Z" style="fill:rgb(219,103,106);fill-rule:nonzero;"/>
                <path d="M132.9,84.5C133.1,84.7 133.4,85 133.6,85.2C133.6,85.7 133.6,86.1 133.6,86.6C133.2,86.8 132.8,87 132.4,87.3C132,87.1 131.6,86.8 131.2,86.6C131.2,86.1 131.2,85.7 131.2,85.2C131.4,85 131.7,84.7 131.9,84.5C132.2,84.5 132.6,84.5 132.9,84.5Z" style="fill:rgb(219,99,103);fill-rule:nonzero;"/>
                <path d="M81.3,87.6C80.9,87.4 80.5,87.1 80.1,86.9C80.1,86.4 80.1,86 80.1,85.5C80.3,85.3 80.5,85.1 80.9,84.8C81.1,84.8 81.4,84.8 81.8,84.8C82,85 82.2,85.3 82.5,85.7C82.5,85.9 82.5,86.4 82.5,86.9C82.1,87.1 81.7,87.4 81.3,87.6Z" style="fill:rgb(160,160,160);fill-rule:nonzero;"/>
                <path d="M124.2,32.5C123.8,32.8 123.6,33.1 123.4,33.3C123,33.3 122.5,33.3 122,33.3C121.8,32.9 121.6,32.5 121.3,32.1C121.5,31.7 121.8,31.3 122,30.9C122.5,30.9 122.9,30.9 123.5,30.9C123.7,31.4 123.9,31.9 124.2,32.5Z" style="fill:rgb(219,101,105);fill-rule:nonzero;"/>
                <path d="M98.2,77.4C98.4,77.7 98.6,78 98.8,78.3C98.7,78.4 98.5,78.5 98.5,78.5C98.5,78.9 98.5,79.3 98.5,79.6C98,80.4 97.4,80 96.8,80.1C96.5,79.8 96.3,79.6 96,79.3C96,79 96,78.6 96,78.3C96.6,77.9 97.2,77.3 98.1,77.9C98.2,77.8 98.2,77.6 98.2,77.4Z" style="fill:rgb(140,140,140);fill-rule:nonzero;"/>
                <path d="M173.4,86.4C173.6,86.2 173.7,86.1 173.8,86C174.3,86 174.9,86 175.4,86C176.1,86.4 175.8,87 175.9,87.7C175.6,87.9 175.4,88.1 174.8,88.4C174.8,88.4 174.5,88.4 174.1,88.4C173.9,88.2 173.7,88 173.4,87.7C173.4,87.4 173.4,86.9 173.4,86.4Z" style="fill:rgb(169,85,87);fill-rule:nonzero;"/>
                <path d="M83,119.2C83.3,118.9 83.6,118.6 83.8,118.4C84.3,118.4 84.7,118.4 85.2,118.4C85.4,118.8 85.6,119.2 85.9,119.6C85.7,120 85.4,120.4 85.2,120.9C84.6,120.8 84.1,120.7 83.6,120.5C83.4,120.1 83.2,119.7 83,119.2Z" style="fill:rgb(88,118,141);fill-rule:nonzero;"/>
                <path d="M136.6,89.4C137.1,89.4 137.6,89.4 138.1,89.4C138.8,90 138.6,90.7 138.6,91.5C138,91.7 137.5,91.8 137,91.9C136.7,91.6 136.4,91.3 136.1,91.1C136.2,90.5 135.9,89.8 136.6,89.4Z" style="fill:rgb(218,97,101);fill-rule:nonzero;"/>
                <path d="M60.6,11.9C60.9,12.6 61.1,13.1 61.4,13.6C61,13.9 60.8,14.2 60.5,14.4C60.1,14.4 59.7,14.4 59.3,14.4C59.2,14.3 59,14.1 58.9,14C58.9,13.5 58.9,12.9 58.9,12.3C59.3,12.3 59.9,12.1 60.6,11.9Z" style="fill:rgb(90,119,142);fill-rule:nonzero;"/>
                <path d="M40.5,108.5C40.8,108.7 41.1,108.8 41.4,108.9C41.5,109.2 41.7,109.5 41.9,109.9C41.7,110.2 41.6,110.5 41.4,110.9C41.2,111 40.9,111.2 40.6,111.3C40.2,111.1 39.8,110.8 39.4,110.6C39.4,110.1 39.4,109.7 39.4,109.2C39.7,109 40.1,108.7 40.5,108.5Z" style="fill:rgb(89,118,141);fill-rule:nonzero;"/>
                <path d="M21,44.5C20.6,44.3 20.2,44.2 19.7,44.1C19.6,43.7 19.4,43.3 19.2,42.8C19.5,42.6 19.8,42.4 20.4,42.1C20.6,42.1 21.2,41.8 21.7,42.4C21.7,42.8 21.7,43.3 21.7,43.6C21.5,43.9 21.2,44.2 21,44.5Z" style="fill:rgb(107,134,157);fill-rule:nonzero;"/>
                <path d="M121.5,78C121.5,78 121.7,78 122.1,78C122.3,78.2 122.5,78.6 122.9,79.1C122.9,79.1 122.9,79.4 122.9,79.7C122.7,79.9 122.4,80.2 122.1,80.5C121.9,80.5 121.6,80.5 121.2,80.5C121,80.3 120.8,80 120.5,79.6C120.5,79.5 120.5,79.2 120.5,78.7C120.6,78.6 121,78.3 121.5,78Z" style="fill:rgb(128,128,128);fill-rule:nonzero;"/>
                <path d="M38.9,112.5C38.9,112.5 39.1,112.5 39.5,112.5C39.7,112.7 39.9,113.1 40.3,113.6C40.3,113.6 40.3,113.9 40.3,114.2C40.1,114.4 39.8,114.7 39.5,115C39.2,115 38.9,115 38.6,115C38.4,114.8 38.2,114.5 37.9,114.1C37.9,114 37.9,113.7 37.9,113.2C38.1,113.1 38.4,112.8 38.9,112.5Z" style="fill:rgb(104,133,155);fill-rule:nonzero;"/>
                <path d="M78.4,66.6C78.3,66.6 78.1,66.6 77.7,66.6C77.5,66.3 77.3,66 76.9,65.5C76.9,65.6 76.9,65.3 76.9,64.9C77.1,64.7 77.4,64.5 77.8,64.2C77.9,64.2 78.2,64.2 78.7,64.2C78.9,64.4 79.1,64.7 79.4,65.1C79.4,65.2 79.4,65.5 79.4,65.9C79.2,66 78.9,66.3 78.4,66.6Z" style="fill:rgb(105,133,155);fill-rule:nonzero;"/>
                <path d="M12.9,71.3C12.5,71.1 12.1,71 11.8,70.9C11.7,70.5 11.5,70.1 11.3,69.6C11.7,69.4 12,69.2 12.4,69C12.8,68.8 13.4,68.5 13.9,69.2C13.9,69.6 13.9,70 13.9,70.5C13.5,70.7 13.3,70.9 12.9,71.3Z" style="fill:rgb(106,134,156);fill-rule:nonzero;"/>
                <path d="M56.6,37.3C56.4,36.8 56.3,36.4 56.1,36C56.4,35.6 56.8,35.3 57.3,34.8C57.6,34.9 58,35.1 58.4,35.2C58.5,35.5 58.6,35.8 58.7,36.3C58.6,36.5 58.4,36.9 58.2,37.2C57.7,37.3 57.2,37.3 56.6,37.3Z" style="fill:rgb(102,130,153);fill-rule:nonzero;"/>
                <path d="M95.4,52.1C95.5,51.7 95.6,51.4 95.7,51C96,50.8 96.3,50.7 96.6,50.5C97,50.7 97.4,50.9 97.8,51.2C97.8,51.5 97.8,51.8 97.8,52.3C97.6,52.4 97.2,52.6 96.9,52.8C97,52.9 97,52.9 97.1,53C96.8,53 96.6,53 96.3,53C95.7,53 95.5,52.8 95.4,52.1Z" style="fill:rgb(118,118,118);fill-rule:nonzero;"/>
                <path d="M75,92.8C75.3,93.2 75.9,93.4 75.8,93.9C75.3,94.4 74.9,94.8 74.5,95.2C74,95.3 73.7,94.8 73.3,94.4C73.4,93.9 73.1,93.3 73.7,92.8C74,92.8 74.5,92.8 75,92.8Z" style="fill:rgb(105,133,155);fill-rule:nonzero;"/>
                <path d="M62.5,69.4C62.2,69.4 62,69.4 61.7,69.4C61.5,69.2 61.2,68.9 61,68.6C61,68.4 61,68.1 61,67.7C61.2,67.5 61.5,67.3 61.9,67C62.1,67 62.4,67 62.9,67C63.1,67.5 63.4,68 63.7,68.6C63.3,68.8 62.9,69 62.6,69.2C62.4,69.2 62.5,69.3 62.5,69.4Z" style="fill:rgb(104,131,154);fill-rule:nonzero;"/>
                <path d="M45.3,71C44.9,71.3 44.6,71.5 44.1,71.9C43.8,71.8 43.3,71.7 42.7,71.5C42.7,71.1 42.7,70.6 42.7,70.4C43,70 43.2,69.7 43.5,69.3C43.9,69.5 44.3,69.6 44.7,69.7C44.9,70 45.1,70.4 45.3,71Z" style="fill:rgb(107,135,157);fill-rule:nonzero;"/>
                <path d="M40.3,80.3C40.3,80.8 40.3,81.3 40.3,81.8C39.7,82.7 38.9,82.2 38.3,81.9C38.2,81.6 38,81.4 37.9,81.1C38,80.9 38.1,80.6 38.3,80.2C38.9,79.7 39.6,79.8 40.3,80.3Z" style="fill:rgb(102,130,151);fill-rule:nonzero;"/>
                <path d="M83.9,87C84.4,87 84.8,87 85.2,87C85.3,87.6 85.5,88.1 85.6,88.8C85,89 84.6,89.2 84.1,89.4C83.8,89.2 83.5,89 83.1,88.8C83.1,88.5 83.1,88.1 83.1,87.7C83.3,87.5 83.6,87.2 83.9,87Z" style="fill:rgb(128,128,128);fill-rule:nonzero;"/>
                <path d="M79.1,41C79.1,41.1 79.1,41.2 79.1,41.3C78.8,41.6 78.3,41.8 78.1,42.2C77.8,42.7 77.7,43.2 77.6,43.8C77.5,44.3 77.8,44.7 78.1,45.1C78.4,45.5 78.9,45.9 79.2,46.3C80.1,46.3 80.8,46.3 81.6,46.3C81.6,46.4 81.6,46.5 81.6,46.6C81,47.1 80.3,46.9 79.6,46.9C77.3,45.5 77.3,45.5 77.3,42.7C77.8,42.1 78.3,41.4 78.8,40.8C78.9,40.8 79,40.9 79.1,41Z" style="fill:rgb(130,130,130);fill-rule:nonzero;"/>
                <path d="M71.4,32.2C71.6,32 71.7,31.9 71.8,31.8C72.2,31.8 72.6,31.8 73.1,31.8C73.3,32 73.5,32.4 73.8,32.7C73.6,33.3 73.4,34 72.3,34.1C72.1,34 71.8,33.8 71.4,33.6C71.4,33.1 71.4,32.7 71.4,32.2Z" style="fill:rgb(104,132,154);fill-rule:nonzero;"/>
                <path d="M50.3,111.6C50.1,111.6 49.9,111.6 49.7,111.6C49.5,111.3 49.2,111.1 48.9,110.8C49,110.3 48.6,109.6 49.3,109.1C49.7,109.1 50.1,109.1 50.6,109.1C50.7,109.2 50.8,109.3 51,109.5C51,109.9 51,110.3 51,110.8C50.8,111.1 50.5,111.3 50.3,111.6Z" style="fill:rgb(104,132,155);fill-rule:nonzero;"/>
                <path d="M20.2,92.9C20.5,93.1 20.9,93.3 21.2,93.5C21.2,94 21.2,94.4 21.2,94.8C20.8,95.6 20.1,95.1 19.8,95.2C19.4,94.8 19.1,94.5 18.8,94.2C18.9,93.6 19.3,93.1 20.2,92.9Z" style="fill:rgb(104,132,154);fill-rule:nonzero;"/>
                <path d="M76.2,85.9C76.7,86.4 77.2,86.9 77.6,87.3C77.4,87.7 77.2,88.1 76.9,88.4C76.4,88.4 76,88.4 75.4,88.4C75.2,88.1 75,87.8 74.7,87.3C75.2,86.9 75.6,86.4 76.2,85.9Z" style="fill:rgb(102,129,151);fill-rule:nonzero;"/>
                <path d="M39.9,30.9C39.4,30.9 39,30.9 38.5,30.9C38.3,30.6 38.1,30.2 37.8,29.8C38,29.4 38.2,29.1 38.4,28.7C38.9,28.7 39.3,28.7 39.8,28.7C40,29 40.2,29.3 40.4,29.7C40.3,30.1 40.1,30.5 39.9,30.9Z" style="fill:rgb(98,126,148);fill-rule:nonzero;"/>
                <path d="M79.4,75.8C79.3,76.2 79.2,76.6 79,77C78.5,77 78,77 77.5,77C77,76.7 77.3,76 76.7,75.7C77.1,75.4 77.4,75.2 77.8,74.9C78,74.9 78.4,74.9 79,74.9C79.2,75.2 79.3,75.5 79.4,75.8Z" style="fill:rgb(93,118,138);fill-rule:nonzero;"/>
                <path d="M83.9,112.2C83.4,112.2 83,112.2 82.7,112.2C82.6,112.1 82.4,111.9 82.2,111.7C82.3,111.2 82.4,110.7 82.6,110.1C83.1,110.1 83.5,110.1 84,110.1C84.2,110.3 84.4,110.6 84.8,111.1C84.8,111.5 84.2,111.8 83.9,112.2Z" style="fill:rgb(102,130,152);fill-rule:nonzero;"/>
                <path d="M106.5,109.4C106.4,109.5 106.3,109.6 106.2,109.7C106,109.7 105.8,109.7 105.6,109.7C105.2,109.6 104.9,109.2 104.4,109.5C104,109.7 103.5,109.8 103.1,109.9C101.3,110.5 100.4,111.9 100.1,113.7C99.7,113.7 99.8,113.4 99.8,113.2C100,111.4 102,109.3 104,109.1L106.6,109.1C106.5,109.2 106.5,109.3 106.5,109.4Z" style="fill:rgb(140,140,140);fill-rule:nonzero;"/>
                <path d="M110.5,90.9C109.9,90.8 110.4,90.3 110.1,90C109.7,89.6 109.2,89.3 108.7,89.1C108.8,88.9 108.8,88.6 108.9,88.4C109.2,88.2 109.5,88 109.9,87.8C110.3,88 110.6,88.2 111.1,88.5C111.1,88.9 111.1,89.4 111.1,90C110.9,90.2 110.4,90.4 110.5,90.9Z" style="fill:rgb(157,157,157);fill-rule:nonzero;"/>
                <path d="M105.3,60.7C105.7,60.6 106.1,60.5 106.5,60.4C106.9,60.3 107.2,60.2 107.6,60.1C108.7,59.9 109.7,60.1 110.8,60.5C111.4,60.7 112,61 112.6,61.3C112.9,61.5 113.1,61.8 113,62.2C112.1,61.6 111.1,61.2 109.9,60.7C109.3,60.7 108.6,60.7 107.8,60.7C106.9,60.6 106.1,61 105.3,61.3C105.3,61.2 105.3,61.1 105.3,61C105.3,61 105.3,60.9 105.3,60.7Z" style="fill:rgb(131,131,131);fill-rule:nonzero;"/>
                <path d="M100.7,34.3C100.7,34.4 100.7,34.5 100.7,34.6C100,34.1 99.2,34.4 98.4,34.3C98.3,34.4 98.2,34.6 98,34.6C97,35 96.6,35.8 96.6,36.8C96.6,37.1 96.6,37.4 96.6,37.7C96.5,37.7 96.4,37.7 96.3,37.7C95.8,37 96,36.4 96.3,35.7C96.6,34.8 97.9,33.7 98.8,33.7C99.4,33.7 100,33.7 100.6,33.7C100.7,33.8 100.7,34 100.7,34.3Z" style="fill:rgb(131,131,131);fill-rule:nonzero;"/>
                <path d="M112.4,77.7C110.4,77.8 109.2,78.3 108.1,79.9C108.1,78.6 108.8,77.8 109.9,77.3C110.8,76.9 111.7,76.9 112.4,77.7Z" style="fill:rgb(127,127,127);fill-rule:nonzero;"/>
                <path d="M82.8,81.4C82.9,81.5 83.1,81.5 83.3,81.6C83.7,81.4 84.1,81.1 84.7,80.7C84.6,81.5 84.9,82.2 84.4,82.9C83.5,82.7 83,82.2 82.8,81.4Z" style="fill:rgb(110,135,154);fill-rule:nonzero;"/>
                <path d="M43.1,29C44.5,29.2 45.8,28.8 47.1,28.4C47,28.6 46.9,28.8 46.8,29C46.1,29.2 45.4,29.4 44.6,29.6C44.5,29.1 44.1,29.4 43.9,29.3C43.6,29.2 43.2,29.6 43.1,29Z" style="fill:rgb(213,226,236);fill-rule:nonzero;"/>
                <path d="M101,39.5C101,39.8 101,40.1 101,40.4C101,40.5 100.8,40.6 100.7,40.8C100.4,40.7 99.9,41.1 99.8,40.5C100.1,40.5 100.3,40.5 100.6,40.5C100.9,40.2 100.3,39.5 101,39.5Z" style="fill:rgb(159,159,159);fill-rule:nonzero;"/>
                <path d="M88,72.8C88,73.3 88,73.8 88,74.3C87.6,73.8 87.6,73.3 88,72.8Z" style="fill:rgb(126,126,126);fill-rule:nonzero;"/>
                <path d="M104.1,38.3C103.6,38.3 103.1,38.3 102.6,38.3C103,37.8 103.6,37.8 104.1,38.3Z" style="fill:rgb(159,159,159);fill-rule:nonzero;"/>
                <path d="M96.4,37.6C96.5,37.6 96.6,37.6 96.7,37.6C96.8,37.7 96.9,37.8 97,37.9C96.6,37.9 96.2,37.9 95.8,37.9C95.7,37.9 95.6,37.7 95.4,37.6C95.7,37.6 96,37.6 96.4,37.6Z" style="fill:rgb(159,159,159);fill-rule:nonzero;"/>
                <path d="M128.4,20.7C128.3,21.2 128,21.4 127.5,21.3C127.6,20.8 127.9,20.6 128.4,20.7Z" style="fill:rgb(168,82,84);fill-rule:nonzero;"/>
                <path d="M88,24.1C88.5,24.1 88.3,24.5 88.3,24.7C88,24.6 87.5,25 87.4,24.4C87.7,24.3 88,24.5 88,24.1Z" style="fill:rgb(131,131,131);fill-rule:nonzero;"/>
                <path d="M89.9,26.5C90.4,26.5 90.2,26.9 90.2,27.1C90.1,27.2 89.9,27.3 89.8,27.4C89.7,27.3 89.6,27.2 89.6,27.1C90,27.1 89.8,26.8 89.9,26.5Z" style="fill:rgb(222,222,222);fill-rule:nonzero;"/>
                <path d="M118.5,95.6C118.3,95.4 118.1,95.2 117.9,95C118.1,95 118.3,95 118.5,95C118.5,95.2 118.5,95.4 118.5,95.6Z" style="fill:rgb(158,158,158);fill-rule:nonzero;"/>
                <path d="M113,62.3C113.1,62.3 113.2,62.3 113.3,62.3C113.3,62.4 113.3,62.5 113.3,62.6C113.3,62.8 113.5,63.2 113,63.2C113,62.9 113,62.6 113,62.3Z" style="fill:rgb(131,131,131);fill-rule:nonzero;"/>
                <path d="M89.3,26.9C89.1,26.9 88.7,27.1 88.7,26.6C88.9,26.6 89.2,26.4 89.3,26.9Z" style="fill:rgb(222,222,222);fill-rule:nonzero;"/>
                <path d="M98.8,114.7C98.8,114.2 99.2,114.4 99.4,114.4C99.4,114.8 99.1,114.6 98.8,114.7Z" style="fill:rgb(158,158,158);fill-rule:nonzero;"/>
                <path d="M98.8,78.3C99,78.3 99.4,78.1 99.4,78.6C99.2,78.6 98.8,78.8 98.8,78.3Z" style="fill:rgb(140,140,140);fill-rule:nonzero;"/>
                <path d="M97.9,76.8C98.4,76.8 98.2,77.2 98.2,77.4C97.7,77.4 97.9,77 97.9,76.8Z" style="fill:rgb(140,140,140);fill-rule:nonzero;"/>
                <path d="M114.2,72.1C114.4,72.1 114.8,71.9 114.8,72.4C114.6,72.4 114.2,72.6 114.2,72.1Z" style="fill:rgb(158,158,158);fill-rule:nonzero;"/>
                <path d="M124.4,58.6C124.4,58.1 124.8,58.3 125,58.3C125,58.7 124.6,58.5 124.4,58.6Z" style="fill:rgb(125,125,125);fill-rule:nonzero;"/>
                <path d="M122.5,59.8C122.5,59.3 122.9,59.5 123.1,59.5C123.1,60 122.8,59.8 122.5,59.8Z" style="fill:rgb(125,125,125);fill-rule:nonzero;"/>
                <path d="M123.5,59.2C123.5,58.7 123.9,58.9 124.1,58.9C124.1,59.4 123.7,59.2 123.5,59.2Z" style="fill:rgb(125,125,125);fill-rule:nonzero;"/>
                <path d="M100.1,73.7C100,73.7 99.9,73.7 99.8,73.7C99.9,73.6 100,73.5 100.1,73.4C100.1,73.5 100.1,73.6 100.1,73.7Z" style="fill:rgb(128,128,128);fill-rule:nonzero;"/>
                <path d="M89.3,25.9C89.4,26 89.5,26.1 89.6,26.2C89.5,26.1 89.4,26 89.3,25.9Z" style="fill:rgb(222,222,222);fill-rule:nonzero;"/>
                <path d="M105.3,61.1C105.3,61.2 105.3,61.3 105.3,61.4C105.2,61.4 105.1,61.4 105,61.4C105.1,61.3 105.2,61.2 105.3,61.1Z" style="fill:rgb(158,158,158);fill-rule:nonzero;"/>
                <path d="M89.6,26.2C89.7,26.3 89.8,26.4 89.9,26.5C89.8,26.4 89.7,26.3 89.6,26.2Z" style="fill:rgb(222,222,222);fill-rule:nonzero;"/>
                <path d="M123.2,59.5C123.3,59.4 123.4,59.3 123.5,59.2C123.4,59.3 123.3,59.4 123.2,59.5Z" style="fill:rgb(125,125,125);fill-rule:nonzero;"/>
                <path d="M89.6,27.2C89.5,27.1 89.4,27 89.3,26.9C89.4,27 89.5,27.1 89.6,27.2Z" style="fill:rgb(222,222,222);fill-rule:nonzero;"/>
                <path d="M124.1,58.9C124.2,58.8 124.3,58.7 124.4,58.6C124.3,58.7 124.2,58.8 124.1,58.9Z" style="fill:rgb(125,125,125);fill-rule:nonzero;"/>
                <path d="M89.3,46C89.2,45.9 89.1,45.8 89,45.7C89.1,45.8 89.2,45.9 89.3,46Z" style="fill:rgb(126,126,126);fill-rule:nonzero;"/>
                <path d="M114.8,103C114.6,103 114.4,103 114,103C114.8,102.2 115.4,101.4 116.2,100.9C116.9,100.4 117.8,100.1 118.7,99.6C118.7,99.8 118.8,100 118.8,100.3C118.8,100.5 118.9,100.7 118.8,100.7C118,101.5 117.4,102.5 116.2,102.7C115.9,103.2 115.3,102.9 114.8,103Z" style="fill:rgb(117,117,117);fill-rule:nonzero;"/>
                <path d="M117.7,57.3C116,57.9 114.7,57.9 113.6,55.9C113.6,55.3 113.6,54.7 113.6,54.2C114.3,52.4 115.6,52.2 117.2,52.4C118.5,53.2 119,54.4 118.8,56.1C118.7,56.2 118.4,56.3 118.2,56.5C118.1,56.7 118,57 117.7,57.3Z" style="fill:rgb(89,89,89);fill-rule:nonzero;"/>
                <path d="M113,60.1C112.5,59.7 112.2,59.2 111.5,59.2C111.4,59.1 111.3,59 111.2,58.9C111,58.8 110.8,58.7 110.6,58.6L109.4,57.4C109.5,57.3 109.6,57.1 109.8,57.1C110.1,57.1 110.4,57.1 110.7,57.1C112,57.5 112.9,58.4 113.5,59.6C113.5,59.8 113.5,60 113.5,60.2C113.2,60.1 113.1,60.1 113,60.1Z" style="fill:rgb(85,85,85);fill-rule:nonzero;"/>
                <path d="M110.5,57.1C110.2,57.1 109.9,57.1 109.6,57.1C109.5,57.1 109.4,57.3 109.2,57.4C108.6,57.3 109,56.9 108.9,56.6C109.3,56.7 109.7,56.7 110,56.8C110.3,56.8 110.4,56.9 110.5,57.1Z" style="fill:rgb(115,115,115);fill-rule:nonzero;"/>
                <path d="M113.3,60.1C113.3,59.9 113.3,59.7 113.3,59.5C113.7,59.6 114.1,59.7 114.5,59.9C114.5,60 114.5,60 114.5,60.1C114.1,60.1 113.7,60.1 113.3,60.1Z" style="fill:rgb(115,115,115);fill-rule:nonzero;"/>
                <path d="M111.1,58.9C111.2,59 111.3,59.1 111.4,59.2C111.3,59.1 111.2,59 111.1,58.9Z" style="fill:rgb(115,115,115);fill-rule:nonzero;"/>
                <path d="M110.2,58.3C110.3,58.4 110.4,58.5 110.5,58.6C110.4,58.5 110.3,58.4 110.2,58.3Z" style="fill:rgb(115,115,115);fill-rule:nonzero;"/>
                <path d="M109.9,58C110,58.1 110.1,58.2 110.2,58.3C110.1,58.2 110,58.1 109.9,58Z" style="fill:rgb(115,115,115);fill-rule:nonzero;"/>
                <path d="M109.6,57.7C109.7,57.8 109.8,57.9 109.9,58C109.8,57.9 109.7,57.8 109.6,57.7Z" style="fill:rgb(115,115,115);fill-rule:nonzero;"/>
                <path d="M109.3,57.4C109.4,57.5 109.5,57.6 109.6,57.7C109.5,57.6 109.4,57.5 109.3,57.4Z" style="fill:rgb(115,115,115);fill-rule:nonzero;"/>
                <path d="M97,94.6C97.3,94.5 97.6,94.3 97.9,94.3C98.6,94.3 99.2,94.3 99.9,94.3C100.4,94.8 100.9,95.2 101.3,95.7C101.3,96.3 101.3,96.8 101.3,97.4C101.3,98.3 100.4,98.7 99.9,99.2C99.1,99.9 98.3,99.3 97.4,99.2C97,98.8 96.5,98.3 96.1,97.9C96.1,97.4 96.1,96.8 96.1,96.2C96.1,95.9 96.3,95.6 96.4,95.2L97,94.6Z" style="fill:rgb(88,88,88);fill-rule:nonzero;"/>
                <path d="M100.1,113.7C100.4,111.9 101.3,110.6 103.1,109.9C103.5,109.7 104,109.7 104.4,109.5C104.9,109.2 105.2,109.6 105.6,109.7C105.8,109.8 106,109.7 106.2,109.7C105.1,111.8 103.2,112.8 101.2,113.9C101,114 100.8,114 100.6,114C100.4,114 100.1,114.2 100.1,113.7Z" style="fill:rgb(117,117,117);fill-rule:nonzero;"/>
                <path d="M108.1,103.3C108.2,103.5 108.3,103.6 108.4,103.8C108,105.3 107.9,106.8 107.2,108.2C106.8,108.2 106.5,108.2 106.1,108.2C105.6,107.7 105.2,107.3 104.7,106.8C104.7,104.5 104.9,104.1 106.7,103C107,103.5 107.6,103.2 108.1,103.3Z" style="fill:rgb(117,117,117);fill-rule:nonzero;"/>
                <path d="M93,107C93,106.1 93,105.2 93,104.5C94.1,101.7 96,100.8 98.6,101.1C99.3,101.5 99.9,101.8 100.5,102.1C100.7,102.4 100.9,102.7 101.1,102.9C102.6,104 102.5,106.9 101.1,108.5C100.6,109.1 100.1,109.7 99.4,109.9C96.9,110.8 94.6,110.2 93.3,107.6C93.2,107.4 93.1,107.3 93,107ZM96.4,101.7C96,101.9 95.9,102 95.7,102C94.8,102.4 94.1,102.9 93.7,103.9C93.3,104.9 93.2,106 93.6,107C94.3,108.7 95.3,109.9 97.4,109.8C98,109.8 98.5,109.8 99,109.8C101,108.6 101.9,107 101.6,105.3C101.5,104.8 101.5,104.3 101.3,103.9C101.1,103.5 100.7,103.1 100.3,102.8C99.9,102.5 99.6,102.1 99.1,101.9C98.7,101.7 98.2,101.7 97.7,101.6C97.3,102 96.7,101.6 96.4,101.7Z" style="fill:rgb(139,139,139);fill-rule:nonzero;"/>
                <path d="M96.4,95.3C96.3,95.6 96.1,95.9 96.1,96.3C96.1,96.9 96.1,97.4 96.1,98C96.6,98.5 97,98.9 97.4,99.3C98.2,99.5 99.1,100 99.9,99.3C100.5,98.8 101.3,98.4 101.3,97.5C101.7,97.5 101.7,97.9 101.6,98C101.4,98.6 101.1,99.3 100.4,99.6C99.9,99.8 99.3,100.5 98.8,100.2C98.2,99.9 97.6,100 97,99.7C96.4,99.4 96.1,99 95.9,98.5C95.8,98.3 95.6,98.2 95.5,98.1C95.4,96.4 95.7,95.5 96.7,94.4C96.8,94.5 96.9,94.7 97,94.8C96.9,94.9 96.8,95 96.7,95.1C96.6,95 96.5,95.2 96.4,95.3Z" style="fill:rgb(136,136,136);fill-rule:nonzero;"/>
                <path d="M88.5,100.2C88.9,100.2 89.3,100.2 89.7,100.2C90,100.6 90.4,100.9 90.8,101.4C90.7,101.9 90.6,102.5 90.5,103.1C89.8,103.5 89.2,103.7 88.5,103.6C87.5,102.6 87.5,102.5 87.4,101.3L87.5,101.2C87.8,100.8 88.2,100.5 88.5,100.2ZM88,101.2C88.1,101.8 87.8,102.5 88.5,102.9C88.9,102.9 89.4,102.9 89.8,102.9C90.1,102.6 90.3,102.3 90.6,102C90.2,101.4 90,100.6 89.3,100.4C88.8,100.7 88.5,100.9 88,101.2Z" style="fill:rgb(140,140,140);fill-rule:nonzero;"/>
                <path d="M85.2,62.5C84.9,62.4 84.5,62.3 83.7,62.1C83.2,61.7 82.9,60.9 82.4,60.2C81.8,59.3 82.6,58.6 82.4,57.8C82.9,57.4 83.4,56.9 83.8,56.5C84.2,56.4 84.6,56.2 85,56.1C85.4,56 85.8,56.1 86.1,56.1C87.2,56.6 88,57.4 88.6,58.6C88.5,59.2 88.4,60 88.3,60.6C87.7,62 86.5,62.3 85.2,62.5ZM86.2,56.7C85.8,56.7 85.1,56.7 84.7,56.7C83.1,57.3 82.7,58.5 82.9,59.8C83.2,60.4 83.4,60.8 83.6,61.1C84.6,61.8 85.5,62.1 86.7,61.8C87.1,61.4 87.6,60.9 88.1,60.4C88.2,58.8 88,57.4 86.2,56.7Z" style="fill:rgb(139,139,139);fill-rule:nonzero;"/>
                <path d="M85.3,52.9C87,52.3 88.6,52.3 90.3,53C89.7,53.9 88.7,53.8 87.9,54C86.9,54.2 85.9,53.8 85.3,52.9Z" style="fill:rgb(89,89,89);fill-rule:nonzero;"/>
                <path d="M83.9,65.2C86,64.8 87.5,65.4 88,66.8C86.7,66.3 85.1,66.5 83.9,65.2Z" style="fill:rgb(89,89,89);fill-rule:nonzero;"/>
                <path d="M101.9,26.2C101.7,26.3 101.6,26.4 101.3,26.5C101.3,25.3 101.3,24.1 101.3,22.9L101.5,22.8C101.8,23.1 102.1,23.5 102.4,23.8C102.4,24.7 102.8,25.6 101.9,26.2Z" style="fill:rgb(119,119,119);fill-rule:nonzero;"/>
                <path d="M88.3,33.1C88.4,33.7 88.5,34.2 88.6,34.9C88.2,35.4 88.3,36.2 87.8,36.9C87.3,37.6 86.7,37.9 86,38.2C85.4,38.5 84.8,38.5 84.1,38.5C83.3,38.5 82.5,38.4 81.9,37.8C81.4,37.2 80.9,36.6 80.3,35.9C80.3,35 80.3,34 80.3,32.8C81,32.1 81.9,31.2 82.6,30.5C83.5,30.4 84.1,30.3 84.8,30.2C86.3,30.7 87.8,31.3 88.3,33.1Z" style="fill:rgb(89,89,89);fill-rule:nonzero;"/>
                <path d="M82.5,27C82.5,27.8 82.5,28.5 82.5,29.2C81.4,30.9 81.3,30.9 78.9,30.9C78.6,30.2 79,29.7 79.4,29.2C79.8,28.7 80.2,27.9 80.7,27.6C81.2,27.4 81.6,26.5 82.5,27Z" style="fill:rgb(89,89,89);fill-rule:nonzero;"/>
                <path d="M89.9,28.6C89.9,28.2 89.9,28 90,27.6C90.5,28.2 91,28.5 91.3,29.4C90.7,29.1 90.3,28.9 89.9,28.6Z" style="fill:rgb(91,91,91);fill-rule:nonzero;"/>
                <path d="M105,61.4C105.1,61.4 105.2,61.4 105.3,61.4C106.1,61.1 106.9,60.7 107.8,60.8C108.6,60.9 109.3,60.8 109.9,60.8C111.1,61.3 112.1,61.8 113,62.3C113,62.6 113,62.9 113,63.2C112.3,64.5 111.1,65.2 109.7,65.3C107.7,65.4 106.1,64.6 105.3,62.1C105.2,61.9 105.1,61.6 105,61.4Z" style="fill:rgb(113,113,113);fill-rule:nonzero;"/>
                <path d="M107.4,74.6C107.2,74.5 107,74.3 106.8,74.3C106.2,74.3 105.5,74.3 105,73.8C104,73 103,72.4 102.4,71.2C102.2,70.7 101.8,70.3 101.6,69.9C101.5,68.9 102.4,69 103,68.7C103.2,68.6 103.4,68.5 103.7,68.5C104.2,69 104.9,68.5 105.5,68.8C106.1,69 106.8,69.3 107,69.8C107.3,70.3 107.8,70.6 107.8,71.3C107.8,71.9 108.1,72.5 108.4,73.2C107.9,73.4 108.3,74.4 107.4,74.6Z" style="fill:rgb(117,117,117);fill-rule:nonzero;"/>
                <path d="M115.1,67.2C115.1,67.5 115.1,67.8 115.1,68.1C115.3,69.6 114.7,70.7 113.9,71.8C113.7,71.8 113.6,71.8 113.4,71.8C113.2,71.2 112.9,70.7 112.7,70.1C112.4,69.3 113,68.6 113.3,67.9C113.7,67.4 114.4,67.1 115.1,67.2Z" style="fill:rgb(118,118,118);fill-rule:nonzero;"/>
                <path d="M89.9,75.8C90.1,75.8 90.3,75.8 90.5,75.8C91.3,75.6 92,76.1 92.7,76.4C93.1,76.6 93.5,76.9 93.6,77.4L93.5,77.5C92.5,77.5 91.6,77.5 90.6,77.5C90.1,77.2 89.5,76.8 88.9,76.5C88.9,76.3 88.9,76 88.9,75.7C89.3,75.8 89.6,75.8 89.9,75.8Z" style="fill:rgb(85,85,85);fill-rule:nonzero;"/>
                <path d="M86.5,78.2C87.9,78.6 87.5,80 88,80.7C87.9,81 87.8,81.2 87.7,81.5C87.6,81.8 87.5,82 87.3,82.3C86.6,81.8 86.4,81.1 86.4,80.4C86.5,79.7 86.5,79 86.5,78.2Z" style="fill:rgb(88,88,88);fill-rule:nonzero;"/>
                <path d="M90.8,83.8C91.8,83.5 92.2,82.8 92.7,82.4C93.1,82.3 93.5,82.2 93.9,82.1C93.7,83.1 92.7,83.2 92.2,83.9C91.9,83.8 91.5,83.8 90.8,83.8Z" style="fill:rgb(92,92,92);fill-rule:nonzero;"/>
                <path d="M113.3,93.7C113.9,93.2 114.4,92.8 115.3,93.3C115.8,93.6 116.6,93.5 117,94C117.1,94.2 117.2,94.4 117.4,94.7C117.1,94.9 116.9,95 116.5,95.2C115.1,95.5 114,95 113.3,93.7Z" style="fill:rgb(116,116,116);fill-rule:nonzero;"/>
                <path d="M112.4,86C112.8,84.5 113.5,83.1 115.3,82.9C115.5,82.9 115.6,82.7 115.8,82.6C115.9,83.3 115.6,83.8 115.2,84.3C114.7,84.8 114.3,85.2 113.9,85.6C113.3,85.8 112.8,85.9 112.4,86Z" style="fill:rgb(89,89,89);fill-rule:nonzero;"/>
                <path d="M118.5,83.5C118.7,83.5 119,83.5 119.1,83.6C119.6,84.4 120.5,85.1 120.4,86.3C120.4,86.4 120.6,86.6 120.6,86.8L120.5,86.9C120.5,86.9 120.4,86.9 120.3,86.9C118.7,86.4 118.5,85 118.5,83.5Z" style="fill:rgb(117,117,117);fill-rule:nonzero;"/>
                <path d="M91.8,72.2C91.5,71.7 91.3,71.3 91.1,71C91.6,70.6 92,70.2 92.4,69.8C92.7,70.1 93,70.5 93.4,70.9C93.7,71.2 93.5,71.6 93,71.8C92.6,71.9 92.2,71.7 91.8,72.2Z" style="fill:rgb(113,113,113);fill-rule:nonzero;"/>
                <path d="M89.9,75.8C89.6,75.8 89.3,75.8 89,75.8C89.3,75.4 89.6,75.4 89.9,75.8Z" style="fill:rgb(125,125,125);fill-rule:nonzero;"/>
                <path d="M99.9,31.6C99.3,32.7 98.5,32.9 97.6,33C96.7,33.1 96.1,32.6 95.5,32C95.3,31.7 95,31.5 94.8,31.4C94.8,31 94.8,30.8 94.8,30.6C94.9,30.6 95,30.6 95,30.6C95.3,31.1 95.7,31.6 96.1,31.9C97.4,32.8 98.6,32.3 99.9,31.6Z" style="fill:rgb(131,131,131);fill-rule:nonzero;"/>
                <path d="M100.1,73.7C100.1,73.6 100.1,73.5 100.1,73.4C100.7,73.5 101.2,73.6 101.8,73.7C102.5,74.4 103.4,75 103.4,76.3C103.4,76.3 103.3,76.5 103.2,76.7C101.3,76.3 100.5,75.5 100.1,73.7Z" style="fill:rgb(88,88,88);fill-rule:nonzero;"/>
                <path d="M96,62.9C96.1,62.8 96.3,62.8 96.5,62.7C97.2,63.4 98.4,63.9 98.1,65.4C97.9,65.4 97.7,65.4 97.5,65.4C96.7,64.8 96,64.1 96,62.9Z" style="fill:rgb(113,113,113);fill-rule:nonzero;"/>
                <path d="M104.2,54.9C104.1,55 103.8,55.3 103.6,55.5C103.3,55.5 103.1,55.5 102.7,55.5C102.5,55.2 102.3,54.8 101.9,54.2C101.9,53.8 102.5,53.2 103,52.7C104.2,53 104.7,53.6 104.2,54.9Z" style="fill:rgb(119,119,119);fill-rule:nonzero;"/>
                <path d="M96.7,20.1C95.3,19.4 95.4,18.1 95.5,17C95.8,16.6 96,16.2 96.3,15.8C96.4,15.8 96.6,15.8 96.7,15.8C96.8,15.9 97,16 97,16C97,17.3 97,18.6 97,19.8C97,19.9 96.8,20 96.7,20.1Z" style="fill:rgb(113,113,113);fill-rule:nonzero;"/>
                <path d="M97,37.9C96.9,37.8 96.8,37.7 96.7,37.6C96.7,37.3 96.7,37 96.7,36.7C96.7,35.7 97.1,34.9 98.1,34.5C98.2,34.4 98.3,34.3 98.5,34.2C99.2,34.3 100.1,34 100.8,34.5C100.4,35.1 100.2,35.8 99.8,36.3C98.9,37.3 97.9,37.6 97,37.9Z" style="fill:rgb(113,113,113);fill-rule:nonzero;"/>
                <path d="M81.6,46.3C80.8,46.3 80.1,46.3 79.2,46.3C78.9,45.9 78.4,45.6 78.1,45.1C77.8,44.7 77.5,44.3 77.6,43.8C77.7,43.3 77.9,42.7 78.1,42.2C78.3,41.8 78.8,41.6 79.1,41.3C79.3,41.3 79.4,41.3 79.6,41.3C80,42.1 80.4,43.1 80.9,43.9C81.5,44.7 81.6,45.4 81.6,46.3Z" style="fill:rgb(113,113,113);fill-rule:nonzero;"/>
                <path d="M96.7,94.9C96.8,94.8 96.9,94.7 97,94.6C96.9,94.7 96.8,94.8 96.7,94.9Z" style="fill:rgb(126,126,126);fill-rule:nonzero;"/>
                <path d="M96.4,95.3C96.5,95.2 96.6,95.1 96.7,95C96.6,95 96.5,95.2 96.4,95.3Z" style="fill:rgb(126,126,126);fill-rule:nonzero;"/>
                <path d="M96.4,101.7C96.7,101.6 97.3,102 97.7,101.5C98.2,101.6 98.7,101.7 99.1,101.8C99.5,102 99.9,102.3 100.3,102.7C100.7,103 101.1,103.4 101.3,103.8C101.5,104.2 101.6,104.7 101.6,105.2C101.8,106.9 100.9,108.5 99,109.7C98.5,109.7 98,109.7 97.4,109.7C95.4,109.8 94.4,108.6 93.6,106.9C93.2,105.9 93.3,104.8 93.7,103.8C94.1,102.9 94.8,102.3 95.7,101.9C95.9,101.9 96,101.9 96.4,101.7Z" style="fill:rgb(117,117,117);fill-rule:nonzero;"/>
                <path d="M88,101.2C88.5,100.9 88.8,100.7 89.2,100.5C89.9,100.7 90.1,101.4 90.5,102.1C90.3,102.4 90,102.7 89.7,103C89.3,103 88.8,103 88.4,103C87.8,102.5 88.1,101.8 88,101.2Z" style="fill:rgb(116,116,116);fill-rule:nonzero;"/>
                <path d="M86.2,56.7C88,57.4 88.2,58.7 88,60.5C87.6,60.9 87,61.5 86.6,61.9C85.4,62.2 84.4,61.9 83.5,61.2C83.4,60.9 83.1,60.5 82.8,59.9C82.6,58.5 83,57.4 84.6,56.8C85.1,56.7 85.7,56.7 86.2,56.7Z" style="fill:rgb(117,117,117);fill-rule:nonzero;"/>
            </g>
        </g>
    </g>
</svg>
