<?xml version="1.0" encoding="UTF-8" standalone="no"?><!DOCTYPE svg PUBLIC "-//W3C//DTD SVG 1.1//EN" "http://www.w3.org/Graphics/SVG/1.1/DTD/svg11.dtd"><svg width="100%" height="100%" viewBox="0 0 100 100" version="1.1" xmlns="http://www.w3.org/2000/svg" xmlns:xlink="http://www.w3.org/1999/xlink" xml:space="preserve" xmlns:serif="http://www.serif.com/" style="fill-rule:evenodd;clip-rule:evenodd;stroke-linejoin:round;stroke-miterlimit:2;"><path id="path26" d="M60.138,93.34c-0.841,-0.853 -0.932,-3.445 -0.932,-26.466l-0,-25.52c-0,0 32.437,-29.595 37.262,-33.953c2.407,0.711 0.423,6.019 -9.405,29.879c-6.73,16.338 -14.385,36.431 -21.687,54.81c-0.879,1.862 -1.287,2.198 -2.672,2.198c-0.898,0 -2.053,-0.425 -2.566,-0.946l-0,-0.002Z" style="fill:#5777b8;fill-rule:nonzero;"/><path id="path36" d="M85.632,9.674c-23.993,7.939 -45.405,13.938 -74.872,23.732c-9.292,2.929 -10.039,5.406 -6.412,7.001c20.681,0.491 43.636,0.952 54.858,0.946c5.335,-4.512 33.007,-29.857 37.262,-33.953c0.052,0 0,-0 0,-0c-1.151,-1.939 -4.589,0.208 -10.834,2.274l-0.002,0Z" style="fill:#f6b81d;fill-rule:nonzero;"/></svg>