<?xml version="1.0" encoding="UTF-8" standalone="no"?><!DOCTYPE svg PUBLIC "-//W3C//DTD SVG 1.1//EN" "http://www.w3.org/Graphics/SVG/1.1/DTD/svg11.dtd"><svg width="100%" height="100%" viewBox="0 0 100 100" version="1.1" xmlns="http://www.w3.org/2000/svg" xmlns:xlink="http://www.w3.org/1999/xlink" xml:space="preserve" xmlns:serif="http://www.serif.com/" style="fill-rule:evenodd;clip-rule:evenodd;stroke-linejoin:round;stroke-miterlimit:2;"><g transform="matrix(0.195312,0,0,0.195312,-2.96834,-0.770232)"><text x="59.315px" y="286.643px" style="font-family:'Athelas-Regular', 'Athelas';font-size:129.453px;fill:#cfb95f;">A<tspan x="144.883px 232.005px " y="286.643px 286.643px ">CC</tspan></text><text x="321.068px" y="286.643px" style="font-family:'Athelas-Regular', 'Athelas';font-size:129.453px;">R<tspan x="407.542px " y="286.643px ">E</tspan></text></g><g transform="matrix(0.195312,0,0,0.195312,0,0)"><text x="154.836px" y="326.955px" style="font-family:'ArialMT', 'Arial', sans-serif;font-size:31.008px;">A<tspan x="171.983px 185.693px 197.662px 211.372px 225.082px 237.051px 250.761px 264.471px 269.551px 288.409px 302.119px 324.414px 338.124px 351.834px 356.914px 360.268px 373.978px 387.689px 392.769px 411.626px 425.337px 439.047px 444.127px 457.837px " y="326.955px 326.955px 326.955px 326.955px 326.955px 326.955px 326.955px 326.955px 326.955px 326.955px 326.955px 326.955px 326.955px 326.955px 326.955px 326.955px 326.955px 326.955px 326.955px 326.955px 326.955px 326.955px 326.955px 326.955px ">dvanced Computing Center</tspan></text><text x="180.236px" y="358.977px" style="font-family:'ArialMT', 'Arial', sans-serif;font-size:31.008px;"><tspan x="180.236px 185.316px 199.026px 205.817px 210.897px 229.755px 243.465px 255.434px 269.144px 282.854px 289.645px 301.614px 315.324px 320.404px 337.551px 342.631px 359.778px 373.488px 387.199px 399.168px 412.878px 417.958px 421.312px 435.022px " y="358.977px 358.977px 358.977px 358.977px 358.977px 358.977px 358.977px 358.977px 358.977px 358.977px 358.977px 358.977px 358.977px 358.977px 358.977px 358.977px 358.977px 358.977px 358.977px 358.977px 358.977px 358.977px 358.977px 358.977px ">for Research &amp; Education</tspan></text></g></svg>