<?xml version="1.0" encoding="UTF-8" standalone="no"?>
<!DOCTYPE svg PUBLIC "-//W3C//DTD SVG 1.1//EN" "http://www.w3.org/Graphics/SVG/1.1/DTD/svg11.dtd">
<svg width="100%" height="100%" viewBox="0 0 100 100" version="1.1" xmlns="http://www.w3.org/2000/svg" xmlns:xlink="http://www.w3.org/1999/xlink" xml:space="preserve" xmlns:serif="http://www.serif.com/" style="fill-rule:evenodd;clip-rule:evenodd;stroke-linejoin:round;stroke-miterlimit:1.41421;">
    <g id="apache" transform="matrix(0.1,0,0,0.1,-0.39433,54.9205)">
        <g transform="matrix(-0.872232,0.661552,-0.661552,-0.872232,879.159,-449.346)">
            <path d="M656.71,-7.089C676.977,-16.683 696.424,-27.233 714.847,-38.944C715.493,-39.368 716.147,-39.743 716.793,-40.167C709.279,-21.07 712.955,12.418 713.039,12.273C724.889,-22.438 739.554,-52.982 761.783,-72.399C770.266,-64.806 776.706,-50.569 781.997,-32.517C784.616,-57.366 780.139,-71.249 777.946,-76.316C788.863,-63.368 808.68,-56.14 829.991,-49.856C806.045,-64.392 790.199,-78.734 783.987,-92.811C852.299,-113.829 926.277,-138.968 1003.95,-166.837C997.855,-171.428 991.308,-172.006 984.505,-170.008C970.482,-164.906 878.285,-131.696 752.865,-93.764C749.302,-92.686 745.708,-91.613 742.097,-90.526C741.09,-90.219 740.071,-89.929 739.082,-89.635C725.908,-85.683 712.416,-81.716 698.62,-77.715C695.476,-76.811 692.333,-75.907 689.172,-74.99C689.106,-74.968 689.04,-74.947 688.991,-74.938L654.477,-6.003C655.189,-6.339 655.971,-6.727 656.718,-7.088L656.71,-7.089Z" style="fill:url(#_Linear1);fill-rule:nonzero;"/>
        </g>
        <g transform="matrix(-0.872232,0.661552,-0.661552,-0.872232,879.159,-449.346)">
            <path d="M23.148,66.819C42.219,74.015 62.756,75.904 82.881,78.093C94.735,79.217 106.619,80.007 118.511,80.586C126.68,63.482 134.849,46.379 143.019,29.275C111.528,30.131 79.932,29.451 48.626,25.735C79.569,28.838 110.763,27.584 141.755,25.905C119.385,-0.764 94.846,-25.523 69.825,-49.683C46.306,-37.844 23.534,-21.333 11.191,2.561C4.891,17.107 1.24,34.095 6.37,49.542C9.126,57.436 15.435,63.702 23.143,66.819L23.148,66.819Z" style="fill:url(#_Linear2);fill-rule:nonzero;"/>
        </g>
        <g transform="matrix(-0.872232,0.661552,-0.661552,-0.872232,879.159,-449.346)">
            <path d="M280.24,-67.687C280.086,-67.82 279.951,-67.966 279.797,-68.099L282.417,-65.268C282.65,-65.139 282.857,-65.045 283.072,-64.903C282.125,-65.847 281.174,-66.76 280.24,-67.687L280.24,-67.687Z" style="fill:none;"/>
        </g>
        <g transform="matrix(-0.872232,0.661552,-0.661552,-0.872232,879.159,-449.346)">
            <path d="M368.72,-99.463C370.409,-97.999 372.036,-96.434 373.64,-94.825C372.036,-96.434 370.391,-97.986 368.72,-99.463Z" style="fill:none;"/>
        </g>
        <g transform="matrix(-0.872232,0.661552,-0.661552,-0.872232,879.159,-449.346)">
            <path d="M640.89,-71.352C640.117,-71.136 639.345,-70.92 638.586,-70.686C622.667,-66.181 607.142,-61.885 591.943,-57.778C574.891,-53.173 558.316,-48.813 542.17,-44.689C525.154,-40.331 508.633,-36.23 492.59,-32.374C475.761,-28.319 459.463,-24.548 443.703,-21.012C430.878,-18.142 418.407,-15.426 406.277,-12.879C402.244,-12.028 398.229,-11.191 394.248,-10.38C386.367,-8.762 378.606,-7.205 371.025,-5.699C364.014,-4.314 357.139,-3.004 350.366,-1.741C348.112,-1.304 345.879,-0.91 343.642,-0.486C343.285,-0.413 342.914,-0.358 342.557,-0.285L344.783,2.125L342.224,7.259C342.776,7.152 343.323,7.076 343.888,6.986C354.124,5.213 364.404,3.353 374.728,1.404C380.693,0.274 386.677,-0.87 392.664,-2.045C409.264,-5.299 425.904,-8.72 442.554,-12.313C459.38,-15.927 476.186,-19.717 492.93,-23.627C509.379,-27.455 525.753,-31.419 542.026,-35.446C558.268,-39.478 574.384,-43.607 590.332,-47.777C606.986,-52.141 623.412,-56.555 639.577,-61.024C643.223,-62.026 646.869,-63.029 650.503,-64.049C663.535,-67.675 676.346,-71.303 688.967,-74.927L693.022,-83.037L690.525,-85.739C690.145,-85.622 689.766,-85.505 689.404,-85.402C672.862,-80.517 656.695,-75.828 640.89,-71.354L640.89,-71.352Z" style="fill:none;"/>
        </g>
        <g transform="matrix(-0.872232,0.661552,-0.661552,-0.872232,879.159,-449.346)">
            <path d="M374.86,-93.62C374.848,-93.637 374.829,-93.624 374.816,-93.642C374.816,-93.642 374.828,-93.624 374.86,-93.62Z" style="fill:none;"/>
        </g>
        <g transform="matrix(-0.872232,0.661552,-0.661552,-0.872232,879.159,-449.346)">
            <path d="M415.36,-112.668C417.877,-110.309 420.442,-107.849 423.077,-105.33C423.089,-105.313 423.121,-105.308 423.134,-105.29C421.845,-106.585 420.57,-107.861 419.272,-109.094C417.974,-110.326 416.685,-111.51 415.36,-112.668L415.36,-112.668Z" style="fill:rgb(190,32,46);fill-rule:nonzero;"/>
        </g>
        <g transform="matrix(-0.872232,0.661552,-0.661552,-0.872232,879.159,-449.346)">
            <path d="M415.36,-112.668C417.877,-110.309 420.442,-107.849 423.077,-105.33C423.089,-105.313 423.121,-105.308 423.134,-105.29C421.845,-106.585 420.57,-107.861 419.272,-109.094C417.974,-110.326 416.685,-111.51 415.36,-112.668L415.36,-112.668Z" style="fill:rgb(190,32,46);fill-opacity:0.35;fill-rule:nonzero;"/>
        </g>
        <g transform="matrix(-0.872232,0.661552,-0.661552,-0.872232,879.159,-449.346)">
            <path d="M374.77,-93.664C374.77,-93.664 374.782,-93.646 374.801,-93.659C374.813,-93.641 374.832,-93.655 374.845,-93.637C374.451,-94.058 374.034,-94.435 373.653,-94.838C372.035,-96.465 370.391,-98.016 368.733,-99.476C370.701,-97.561 372.732,-95.637 374.77,-93.664L374.77,-93.664Z" style="fill:rgb(190,32,46);fill-rule:nonzero;"/>
        </g>
        <g transform="matrix(-0.872232,0.661552,-0.661552,-0.872232,879.159,-449.346)">
            <path d="M374.77,-93.664C374.77,-93.664 374.782,-93.646 374.801,-93.659C374.813,-93.641 374.832,-93.655 374.845,-93.637C374.451,-94.058 374.034,-94.435 373.653,-94.838C372.035,-96.465 370.391,-98.016 368.733,-99.476C370.701,-97.561 372.732,-95.637 374.77,-93.664L374.77,-93.664Z" style="fill:rgb(190,32,46);fill-opacity:0.35;fill-rule:nonzero;"/>
        </g>
        <g transform="matrix(-0.872232,0.661552,-0.661552,-0.872232,879.159,-449.346)">
            <path d="M294.05,14.994C277.089,17.501 260.327,19.723 243.832,21.637C226.71,23.632 209.877,25.276 193.416,26.534C192.459,26.612 191.471,26.686 190.497,26.778C174.279,27.993 158.433,28.822 143.008,29.257L118.5,80.568C121.659,80.722 124.854,80.85 128.111,80.987C140.362,81.451 153.381,81.73 167.013,81.801C182.378,81.877 198.573,81.667 215.373,81.2C230.895,80.748 246.974,80.047 263.424,79.071C277.427,78.236 291.74,77.227 306.262,75.98C306.804,75.935 307.33,75.902 307.872,75.856C321.192,53.686 330.762,30.134 342.207,7.273C326.024,10.054 309.966,12.632 294.05,14.995L294.05,14.994Z" style="fill:url(#_Linear3);fill-rule:nonzero;"/>
        </g>
        <g transform="matrix(-0.872232,0.661552,-0.661552,-0.872232,879.159,-449.346)">
            <path d="M639.56,-61.01C623.381,-56.559 606.956,-52.145 590.315,-47.763C574.38,-43.575 558.269,-39.477 542.009,-35.432C525.749,-31.387 509.379,-27.453 492.913,-23.613C476.169,-19.703 459.35,-15.93 442.537,-12.299C425.905,-8.719 409.247,-5.285 392.647,-2.031C386.659,-0.856 380.676,0.288 374.711,1.418C364.386,3.367 354.106,5.228 343.871,7C343.319,7.108 342.773,7.184 342.208,7.273L307.878,75.856C308.963,75.765 310.034,75.657 311.119,75.566C326.509,74.196 342.134,72.625 357.898,70.759C373.82,68.886 389.863,66.731 405.96,64.316C419.542,62.284 433.122,60.063 446.684,57.634C449.437,57.129 452.142,56.633 454.864,56.123C471.847,52.942 487.958,49.474 503.229,45.833C520.525,41.706 536.739,37.339 551.838,32.838C561.776,29.887 571.252,26.867 580.269,23.858C587.909,21.211 595.501,18.463 602.979,15.635C620.633,8.993 637.819,1.793 654.479,-6.005C666.119,-28.618 678.148,-51.593 688.993,-74.94C676.371,-71.316 663.525,-67.662 650.493,-64.036C646.878,-63.029 643.214,-62.013 639.567,-61.011L639.56,-61.01Z" style="fill:url(#_Linear4);fill-rule:nonzero;"/>
        </g>
        <g transform="matrix(-0.872232,0.661552,-0.661552,-0.872232,879.159,-449.346)">
            <path d="M343.66,-0.499C345.879,-0.91 348.116,-1.334 350.384,-1.753C357.144,-3.034 364.018,-4.344 371.043,-5.712C378.637,-7.199 386.368,-8.761 394.266,-10.392C398.246,-11.203 402.231,-12.045 406.295,-12.891C418.426,-15.438 430.897,-18.155 443.721,-21.024C459.48,-24.56 475.779,-28.331 492.608,-32.386C508.651,-36.242 525.172,-40.343 542.187,-44.701C558.333,-48.826 574.926,-53.199 591.96,-57.79C607.158,-61.898 622.684,-66.193 638.603,-70.698C639.376,-70.914 640.148,-71.13 640.908,-71.364C656.712,-75.839 672.879,-80.528 689.391,-85.417C689.77,-85.534 690.15,-85.651 690.512,-85.755L671.369,-106.431C671.609,-105.922 671.897,-105.423 672.136,-104.915C648.84,-129.343 602.216,-150.193 560.256,-154.912C540.918,-157.09 520.262,-156.754 497.843,-153.987C481.153,-151.928 463.49,-148.517 444.652,-143.768C428.188,-139.627 410.838,-134.5 392.468,-128.343C400.307,-124.579 407.946,-119.27 415.399,-112.697C416.693,-111.543 418.013,-110.355 419.311,-109.122C420.609,-107.89 421.903,-106.627 423.174,-105.319C423.162,-105.337 423.129,-105.341 423.117,-105.359C394.87,-123.291 364.495,-125.297 333.144,-119.885C342.536,-116.616 356.386,-110.258 368.747,-99.506C370.436,-98.042 372.062,-96.478 373.666,-94.869C374.079,-94.461 374.478,-94.071 374.859,-93.668C374.847,-93.685 374.828,-93.672 374.815,-93.69C374.815,-93.69 374.803,-93.707 374.784,-93.694C364.679,-99.7 355.161,-104.028 345.62,-106.831C343.582,-107.433 341.536,-107.973 339.475,-108.421C336.35,-109.121 333.214,-109.65 330.043,-110.042C328.017,-110.296 325.982,-110.488 323.919,-110.605C319.095,-110.896 314.158,-110.857 309.042,-110.467C307.482,-110.352 305.916,-110.206 304.315,-110.034C302.087,-109.672 299.921,-109.3 297.786,-108.924C288.141,-107.206 279.783,-105.343 272.606,-103.479C269.017,-102.546 265.746,-101.63 262.757,-100.703C261.569,-100.344 260.412,-99.98 259.304,-99.625C255.992,-98.541 253.099,-97.521 250.608,-96.552C246.88,-95.105 244.039,-93.794 242.041,-92.751C243.343,-92.401 244.738,-91.926 246.207,-91.314C256.357,-87.097 270.098,-77.148 279.798,-68.099L262.215,-87.079L279.798,-68.099C279.951,-67.966 280.087,-67.819 280.241,-67.686C281.192,-66.773 282.139,-65.829 283.104,-64.898C282.871,-65.027 282.664,-65.071 282.449,-65.213L342.613,-0.323C342.953,-0.383 343.292,-0.443 343.663,-0.498L343.66,-0.499Z" style="fill:url(#_Linear5);fill-rule:nonzero;"/>
        </g>
        <g transform="matrix(-0.872232,0.661552,-0.661552,-0.872232,879.159,-449.346)">
            <path d="M141.76,25.873C156.068,25.005 172.119,23.749 190.002,21.93C190.928,21.847 191.89,21.738 192.833,21.642C208.304,20.048 225.121,18.086 243.321,15.622C259.042,13.513 275.76,11.049 293.566,8.163C309.077,5.662 325.454,2.847 342.609,-0.324L283.119,-64.893C258.383,-78.46 242.298,-81.687 223.278,-81.44C218.103,-81.279 212.755,-81.018 207.296,-80.647C190.585,-79.505 172.827,-77.368 155.692,-74.54C139.152,-71.798 123.257,-68.408 109.462,-64.627C100.691,-62.212 92.778,-59.637 86.13,-56.985C80.268,-54.642 74.864,-52.199 69.843,-49.683C94.944,-25.633 124.432,4.74 141.774,25.874L141.76,25.873Z" style="fill:url(#_Linear6);fill-rule:nonzero;"/>
        </g>
        <g transform="matrix(-0.872232,0.661552,-0.661552,-0.872232,879.159,-449.346)">
            <path d="M419.27,-109.098C420.568,-107.865 421.861,-106.602 423.132,-105.295C421.861,-106.602 420.568,-107.865 419.27,-109.098Z" style="fill:rgb(190,32,46);fill-rule:nonzero;"/>
        </g>
        <g transform="matrix(-0.872232,0.661552,-0.661552,-0.872232,879.159,-449.346)">
            <path d="M419.27,-109.098C420.568,-107.865 421.861,-106.602 423.132,-105.295C421.861,-106.602 420.568,-107.865 419.27,-109.098Z" style="fill:rgb(190,32,46);fill-opacity:0.35;fill-rule:nonzero;"/>
        </g>
        <g transform="matrix(-0.872232,0.661552,-0.661552,-0.872232,879.159,-449.346)">
            <path d="M419.27,-109.098C420.568,-107.865 421.861,-106.602 423.132,-105.295C421.861,-106.602 420.568,-107.865 419.27,-109.098Z" style="fill:url(#_Linear7);fill-rule:nonzero;"/>
        </g>
        <g transform="matrix(-0.872232,0.661552,-0.661552,-0.872232,879.159,-449.346)">
            <path d="M374.86,-93.62C374.466,-94.041 374.049,-94.418 373.668,-94.821C374.049,-94.418 374.448,-94.028 374.86,-93.62Z" style="fill:rgb(190,32,46);fill-rule:nonzero;"/>
        </g>
        <g transform="matrix(-0.872232,0.661552,-0.661552,-0.872232,879.159,-449.346)">
            <path d="M374.86,-93.62C374.466,-94.041 374.049,-94.418 373.668,-94.821C374.049,-94.418 374.448,-94.028 374.86,-93.62Z" style="fill:rgb(190,32,46);fill-opacity:0.35;fill-rule:nonzero;"/>
        </g>
        <g transform="matrix(-0.872232,0.661552,-0.661552,-0.872232,879.159,-449.346)">
            <path d="M374.86,-93.62C374.466,-94.041 374.049,-94.418 373.668,-94.821C374.049,-94.418 374.448,-94.028 374.86,-93.62Z" style="fill:url(#_Linear8);fill-rule:nonzero;"/>
        </g>
        <g transform="matrix(-0.872232,0.661552,-0.661552,-0.872232,879.159,-449.346)">
            <path d="M374.81,-93.66C374.81,-93.66 374.798,-93.677 374.779,-93.664C374.779,-93.664 374.791,-93.647 374.81,-93.66Z" style="fill:rgb(190,32,46);fill-rule:nonzero;"/>
        </g>
        <g transform="matrix(-0.872232,0.661552,-0.661552,-0.872232,879.159,-449.346)">
            <path d="M374.81,-93.66C374.81,-93.66 374.798,-93.677 374.779,-93.664C374.779,-93.664 374.791,-93.647 374.81,-93.66Z" style="fill:rgb(190,32,46);fill-opacity:0.35;fill-rule:nonzero;"/>
        </g>
        <g transform="matrix(-0.872232,0.661552,-0.661552,-0.872232,879.159,-449.346)">
            <path d="M374.81,-93.66C374.81,-93.66 374.798,-93.677 374.779,-93.664C374.779,-93.664 374.791,-93.647 374.81,-93.66Z" style="fill:url(#_Linear9);fill-rule:nonzero;"/>
        </g>
        <g transform="matrix(-0.872232,0.661552,-0.661552,-0.872232,879.159,-449.346)">
            <path d="M697.74,-87.88C710.596,-91.705 723.643,-95.644 736.932,-99.736C737.131,-99.801 737.312,-99.853 737.51,-99.918C739.391,-100.489 741.259,-101.078 743.14,-101.65C752.089,-104.417 760.095,-106.978 778.318,-112.779C775.976,-123.745 780.936,-137.628 787.487,-152.142C776.412,-142.916 769.1,-130.06 767.424,-114.743C739.282,-156.511 703.25,-183.76 660.354,-179.858C656.522,-179.513 652.671,-178.935 648.73,-178.071C665.168,-177.583 677.097,-170.707 690.179,-150.806C690.223,-150.783 690.28,-150.743 690.324,-150.721C690.28,-150.743 690.223,-150.783 690.179,-150.806C656.749,-169.586 634.215,-174.744 604.952,-172.363C598.016,-171.801 590.702,-170.824 582.77,-169.497C626.246,-163.624 654.561,-140.46 671.356,-106.411L672.132,-104.917L690.499,-85.735C692.918,-86.431 695.324,-87.145 697.748,-87.872L697.74,-87.88Z" style="fill:url(#_Linear10);fill-rule:nonzero;"/>
        </g>
    </g>
    <defs>
        <linearGradient id="_Linear1" x1="0" y1="0" x2="1" y2="0" gradientUnits="userSpaceOnUse" gradientTransform="matrix(-483.271,98.803,-98.803,-483.271,947.843,-99.2011)"><stop offset="0" style="stop-color:rgb(40,38,98);stop-opacity:1"/><stop offset="0.1" style="stop-color:rgb(102,46,141);stop-opacity:1"/><stop offset="0.79" style="stop-color:rgb(159,32,100);stop-opacity:1"/><stop offset="0.95" style="stop-color:rgb(205,32,50);stop-opacity:1"/><stop offset="1" style="stop-color:rgb(205,32,50);stop-opacity:1"/></linearGradient>
        <linearGradient id="_Linear2" x1="0" y1="0" x2="1" y2="0" gradientUnits="userSpaceOnUse" gradientTransform="matrix(-159.712,-124.363,124.363,-159.712,110.007,58.7954)"><stop offset="0" style="stop-color:rgb(246,153,35);stop-opacity:1"/><stop offset="0.31" style="stop-color:rgb(247,154,35);stop-opacity:1"/><stop offset="0.84" style="stop-color:rgb(233,120,38);stop-opacity:1"/><stop offset="1" style="stop-color:rgb(233,120,38);stop-opacity:1"/></linearGradient>
        <linearGradient id="_Linear3" x1="0" y1="0" x2="1" y2="0" gradientUnits="userSpaceOnUse" gradientTransform="matrix(-919.582,188.005,-188.005,-919.582,1067.34,-119.597)"><stop offset="0" style="stop-color:rgb(158,32,100);stop-opacity:1"/><stop offset="0.32" style="stop-color:rgb(158,32,100);stop-opacity:1"/><stop offset="0.63" style="stop-color:rgb(201,32,55);stop-opacity:1"/><stop offset="0.75" style="stop-color:rgb(205,35,53);stop-opacity:1"/><stop offset="1" style="stop-color:rgb(233,120,38);stop-opacity:1"/></linearGradient>
        <linearGradient id="_Linear4" x1="0" y1="0" x2="1" y2="0" gradientUnits="userSpaceOnUse" gradientTransform="matrix(-919.582,188.005,-188.005,-919.582,1017.45,-100.471)"><stop offset="0" style="stop-color:rgb(158,32,100);stop-opacity:1"/><stop offset="0.32" style="stop-color:rgb(158,32,100);stop-opacity:1"/><stop offset="0.63" style="stop-color:rgb(201,32,55);stop-opacity:1"/><stop offset="0.75" style="stop-color:rgb(205,35,53);stop-opacity:1"/><stop offset="1" style="stop-color:rgb(233,120,38);stop-opacity:1"/></linearGradient>
        <linearGradient id="_Linear5" x1="0" y1="0" x2="1" y2="0" gradientUnits="userSpaceOnUse" gradientTransform="matrix(-919.582,188.005,-188.005,-919.582,997.991,-195.64)"><stop offset="0" style="stop-color:rgb(158,32,100);stop-opacity:1"/><stop offset="0.32" style="stop-color:rgb(158,32,100);stop-opacity:1"/><stop offset="0.63" style="stop-color:rgb(201,32,55);stop-opacity:1"/><stop offset="0.75" style="stop-color:rgb(205,35,53);stop-opacity:1"/><stop offset="1" style="stop-color:rgb(233,120,38);stop-opacity:1"/></linearGradient>
        <linearGradient id="_Linear6" x1="0" y1="0" x2="1" y2="0" gradientUnits="userSpaceOnUse" gradientTransform="matrix(-919.582,188.005,-188.005,-919.582,1056,-202.58)"><stop offset="0" style="stop-color:rgb(158,32,100);stop-opacity:1"/><stop offset="0.32" style="stop-color:rgb(158,32,100);stop-opacity:1"/><stop offset="0.63" style="stop-color:rgb(201,32,55);stop-opacity:1"/><stop offset="0.75" style="stop-color:rgb(205,35,53);stop-opacity:1"/><stop offset="1" style="stop-color:rgb(233,120,38);stop-opacity:1"/></linearGradient>
        <linearGradient id="_Linear7" x1="0" y1="0" x2="1" y2="0" gradientUnits="userSpaceOnUse" gradientTransform="matrix(-919.582,188.005,-188.005,-919.582,992.204,-223.945)"><stop offset="0" style="stop-color:rgb(158,32,100);stop-opacity:1"/><stop offset="0.32" style="stop-color:rgb(158,32,100);stop-opacity:1"/><stop offset="0.63" style="stop-color:rgb(201,32,55);stop-opacity:1"/><stop offset="0.75" style="stop-color:rgb(205,35,53);stop-opacity:1"/><stop offset="1" style="stop-color:rgb(233,120,38);stop-opacity:1"/></linearGradient>
        <linearGradient id="_Linear8" x1="0" y1="0" x2="1" y2="0" gradientUnits="userSpaceOnUse" gradientTransform="matrix(-919.582,188.005,-188.005,-919.582,992.866,-220.707)"><stop offset="0" style="stop-color:rgb(158,32,100);stop-opacity:1"/><stop offset="0.32" style="stop-color:rgb(158,32,100);stop-opacity:1"/><stop offset="0.63" style="stop-color:rgb(201,32,55);stop-opacity:1"/><stop offset="0.75" style="stop-color:rgb(205,35,53);stop-opacity:1"/><stop offset="1" style="stop-color:rgb(233,120,38);stop-opacity:1"/></linearGradient>
        <linearGradient id="_Linear9" x1="0" y1="0" x2="1" y2="0" gradientUnits="userSpaceOnUse" gradientTransform="matrix(-203.258,41.5553,-41.5553,-203.258,476.391,-114.441)"><stop offset="0" style="stop-color:rgb(158,32,100);stop-opacity:1"/><stop offset="0.32" style="stop-color:rgb(158,32,100);stop-opacity:1"/><stop offset="0.63" style="stop-color:rgb(201,32,55);stop-opacity:1"/><stop offset="0.75" style="stop-color:rgb(205,35,53);stop-opacity:1"/><stop offset="1" style="stop-color:rgb(233,120,38);stop-opacity:1"/></linearGradient>
        <linearGradient id="_Linear10" x1="0" y1="0" x2="1" y2="0" gradientUnits="userSpaceOnUse" gradientTransform="matrix(-547.98,112.032,-112.032,-547.98,937.485,-189.14)"><stop offset="0" style="stop-color:rgb(40,38,98);stop-opacity:1"/><stop offset="0.1" style="stop-color:rgb(102,46,141);stop-opacity:1"/><stop offset="0.79" style="stop-color:rgb(159,32,100);stop-opacity:1"/><stop offset="0.95" style="stop-color:rgb(205,32,50);stop-opacity:1"/><stop offset="1" style="stop-color:rgb(205,32,50);stop-opacity:1"/></linearGradient>
    </defs>
</svg>
