<?xml version="1.0" encoding="UTF-8" standalone="no"?>
<!DOCTYPE svg PUBLIC "-//W3C//DTD SVG 1.1//EN" "http://www.w3.org/Graphics/SVG/1.1/DTD/svg11.dtd">
<svg width="100%" height="100%" viewBox="0 0 150 150" version="1.1" xmlns="http://www.w3.org/2000/svg" xmlns:xlink="http://www.w3.org/1999/xlink" xml:space="preserve" xmlns:serif="http://www.serif.com/" style="fill-rule:evenodd;clip-rule:evenodd;stroke-linecap:round;stroke-linejoin:round;stroke-miterlimit:1.5;">
    <g transform="matrix(0.83612,0,0,0.83612,-2.68136,23.1652)">
        <ellipse cx="135.969" cy="36.003" rx="1.979" ry="1.958" style="fill:rgb(2,42,64);stroke:rgb(2,42,64);stroke-width:2px;"/>
    </g>
    <g id="_-Curve-" serif:id="(Curve)" transform="matrix(0.83612,0,0,0.83612,-2.58151,23.2025)">
        <path d="M61.922,73.494L70.079,80.314" style="fill:none;stroke:rgb(2,42,64);stroke-width:2px;"/>
    </g>
    <g transform="matrix(0.83612,0,0,0.83612,-2.68136,23.1652)">
        <path d="M73.247,79.081C74.583,82.559 72.493,86.461 68.143,90.643C74.352,87.588 78.303,83.605 78.168,77.213L73.247,79.081" style="fill:rgb(2,42,64);stroke:rgb(2,42,64);stroke-width:1.07px;"/>
    </g>
    <g id="_-Curve-1" serif:id="(Curve)" transform="matrix(0.83612,0,0,0.83612,-2.68136,23.1652)">
        <path d="M62.6,71.251C58.117,71.423 54.898,74.208 52.444,78.575C54.7,71.54 58.084,66.822 63.481,66.228L62.6,71.251" style="fill:rgb(2,42,64);stroke:rgb(2,42,64);stroke-width:1.07px;"/>
    </g>
    <g transform="matrix(0.83612,0,0,0.83612,-2.68136,23.1652)">
        <path d="M27.458,99.168C17.197,102.18 15.052,107.737 22.473,116.294C20.105,126.925 25.554,132.226 36.108,127.219C39.646,135.347 45.081,136.319 51.722,132.743C56.204,127.998 56.8,123.304 52.357,118.673" style="fill:none;stroke:rgb(2,42,64);stroke-width:1.33px;"/>
    </g>
    <g transform="matrix(0.83612,0,0,0.83612,-2.68136,23.1652)">
        <path d="M49.073,109.789L64.467,92.063" style="fill:none;stroke:rgb(2,42,64);stroke-width:2px;"/>
    </g>
    <g transform="matrix(0.83612,0,0,0.83612,-2.68136,23.1652)">
        <path d="M34.472,115.505L62.64,82.286" style="fill:none;stroke:rgb(2,42,64);stroke-width:2px;"/>
    </g>
    <g transform="matrix(0.83612,0,0,0.83612,-2.68136,23.1652)">
        <path d="M52.459,82.045L31.89,106.147" style="fill:none;stroke:rgb(2,42,64);stroke-width:2px;"/>
    </g>
    <g transform="matrix(1,0,0,1,-2.665,6.02343)">
        <path d="M86.138,61.704L101.392,42.957L105.881,42.297C113.215,41.348 120.24,40.013 124.199,34.856C126.847,32.886 126.846,30.653 123.535,28.092C121.018,26.747 118.917,26.175 114.023,26.69L106.775,29.331C102.825,30.382 99.782,29.93 98.163,27.115C97.546,25.546 97.564,24.026 98.073,22.543C98.882,20.926 100.028,19.614 101.763,18.83C103.147,18.313 104.467,18.257 105.723,18.663L105.651,23.389L103.496,23.001C102.634,23.111 102.16,23.646 101.95,24.472C102.465,25.509 103.318,25.967 104.48,25.897L117.05,20.182C125.877,18.186 131.852,20.064 134.422,26.571C136.028,30.912 136.501,35.152 134.896,39.207C132.657,43.728 130.236,46.993 127.516,48.185C127.085,50.446 127.857,51.432 129.831,51.142L136.357,49.64C133.748,53.685 131.205,57.825 129.629,63.382C127.998,66.773 128.125,71.535 128.815,76.735C129.755,82.586 130.014,88.459 129.665,94.352C129.253,97.868 127.829,100.741 124.44,102.367C121.424,103.673 118.785,103.427 116.62,101.24C118.843,98.443 119.965,95.605 118.217,92.663C117.586,90.156 115.052,89.229 110.568,89.918C106.35,91.917 103.651,94.871 102.253,98.644C99.795,105.668 95.799,111.959 90.515,117.637C88.303,118.389 86.047,118.854 83.63,118.276C81.778,117.356 81.098,115.693 81.592,113.286C83.078,111.912 84.697,110.581 85.651,108.525C86.929,107.202 86.333,105.113 84.916,102.773C83.713,100.599 81.77,98.775 79.598,97.058C76.681,100.496 74.126,104.991 71.626,109.65C70.834,109.857 70.38,109.626 70.5,108.653L74.322,100.691C74.91,97.158 74.798,93.205 73.986,88.832C71.192,86.117 71.124,83.4 71.685,78.842C77.9,74.786 82.97,68.677 86.138,61.704ZM112.721,43.452C115.34,42.542 118.438,44.604 119.635,48.052C120.832,51.501 119.678,55.039 117.059,55.948C114.44,56.857 111.342,54.795 110.145,51.347C108.948,47.899 110.102,44.361 112.721,43.452Z" style="fill:rgb(1,55,85);stroke:rgb(1,55,85);stroke-width:0.89px;"/>
    </g>
    <g id="_-Curve-2" serif:id="(Curve)" transform="matrix(1,0,0,1,-2.665,6.02343)">
        <path d="M85.843,36.995C85.95,34.946 86.455,34.072 86.906,32.112C87.347,31.207 88.213,30.809 89.438,30.841C93.614,35.238 97.52,39.187 101.176,42.723C100.016,43.559 98.762,44.678 98.483,45.669C95.254,45.518 93.382,45.477 90.35,46.637C90.849,43.422 91.328,39.049 90.909,35.483C89.582,35.852 87.1,36.574 85.843,36.995Z" style="fill:rgb(2,42,64);stroke:rgb(2,42,64);stroke-width:0.89px;"/>
    </g>
    <path d="M78.664,73.594C73.532,81.526 66.69,86.045 56.536,89.171L50.21,83.829C52.446,62.708 64.948,49.19 87.303,42.971C87.218,46.608 87.092,48.773 86.586,52.008C82.095,53.398 77.298,55.956 74.488,60.018C73.005,61.764 72.794,65.809 73.768,68.45C75.412,70.083 77.244,72.094 78.664,73.594Z" style="fill:rgb(103,183,69);stroke:rgb(103,183,69);stroke-width:0.84px;"/>
    <g transform="matrix(0.83612,0,0,0.83612,-2.68136,23.1652)">
        <path d="M117.957,34.183C120.117,43.17 123.609,51.22 128.101,58.566C129.628,61.463 129.814,64.289 128.526,67.04C126.257,74.592 123.367,81.701 117.641,86.781C115.115,79.107 108.199,68.828 92.752,53.486C91.966,50.494 91.979,47.768 93.25,45.459C98.802,37.433 107.677,34.691 117.957,34.183" style="fill:rgb(41,84,115);stroke:rgb(41,84,115);stroke-width:1px;"/>
    </g>
</svg>
