<?xml version="1.0" encoding="UTF-8" standalone="no"?>
<!DOCTYPE svg PUBLIC "-//W3C//DTD SVG 1.1//EN" "http://www.w3.org/Graphics/SVG/1.1/DTD/svg11.dtd">
<svg width="100%" height="100%" viewBox="0 0 100 100" version="1.1" xmlns="http://www.w3.org/2000/svg" xmlns:xlink="http://www.w3.org/1999/xlink" xml:space="preserve" xmlns:serif="http://www.serif.com/" style="fill-rule:evenodd;clip-rule:evenodd;stroke-linecap:round;stroke-linejoin:round;stroke-miterlimit:1.5;">
    <g id="ara4us">
        <path d="M5.51,57.223C45.266,43.592 62.822,35.615 63.264,36.36C67.211,35.223 71.118,34.978 74.971,35.945C80.853,38.991 85.084,42.859 87.175,47.791C87.812,49.283 87.709,50.692 86.829,52.014C86.656,53.421 85.931,54.444 84.653,55.084L72.089,55.432C71.564,54.532 70.696,53.823 69.354,53.377L41.837,54.891L5.51,57.223ZM57.457,42.89L63.518,42.392L66.944,45.414L57.59,47.417L57.457,42.89ZM67.829,37.343C69.9,39.093 71.827,40.883 73.268,42.813L82.874,42.91C80.428,40.613 77.772,38.582 74.819,36.929L67.829,37.343Z" style="fill:rgb(68,165,215);stroke:rgb(68,165,215);stroke-width:0.75px;"/>
        <path d="M5.436,57.727L68.772,55.007C69.525,55.785 70.398,56.304 71.368,56.617L81.351,57.361L91.283,58.471L5.436,57.727" style="fill:rgb(255,128,0);stroke:rgb(255,128,0);stroke-width:0.75px;"/>
    </g>
</svg>
