<?xml version="1.0" encoding="UTF-8" standalone="no"?><!DOCTYPE svg PUBLIC "-//W3C//DTD SVG 1.1//EN" "http://www.w3.org/Graphics/SVG/1.1/DTD/svg11.dtd"><svg width="100%" height="100%" viewBox="0 0 2500 2500" version="1.1" xmlns="http://www.w3.org/2000/svg" xmlns:xlink="http://www.w3.org/1999/xlink" xml:space="preserve" xmlns:serif="http://www.serif.com/" style="fill-rule:evenodd;clip-rule:evenodd;stroke-linejoin:round;stroke-miterlimit:2;"><path d="M712.643,1049.56c0,30.147 3.259,54.591 8.963,72.516c6.518,17.926 14.666,37.481 26.073,58.665c4.074,6.519 5.704,13.037 5.704,18.741c0,8.148 -4.889,16.296 -15.481,24.444l-51.332,34.221c-7.333,4.889 -14.666,7.333 -21.185,7.333c-8.148,0 -16.296,-4.074 -24.444,-11.407c-11.407,-12.222 -21.184,-25.259 -29.332,-38.295c-8.148,-13.852 -16.296,-29.333 -25.259,-48.073c-63.554,74.961 -143.404,112.441 -239.549,112.441c-68.443,0 -123.034,-19.555 -162.959,-58.665c-39.925,-39.11 -60.295,-91.257 -60.295,-156.44c0,-69.258 24.444,-125.479 74.146,-167.848c49.703,-42.369 115.701,-63.554 199.625,-63.554c27.703,0 56.221,2.445 86.368,6.519c30.147,4.073 61.11,10.592 93.701,17.925l0,-59.48c0,-61.924 -13.036,-105.108 -38.295,-130.367c-26.073,-25.259 -70.072,-37.481 -132.811,-37.481c-28.518,0 -57.851,3.26 -87.998,10.593c-30.148,7.333 -59.48,16.296 -87.998,27.703c-13.037,5.703 -22.814,8.962 -28.518,10.592c-5.703,1.63 -9.777,2.444 -13.036,2.444c-11.408,0 -17.111,-8.148 -17.111,-25.258l0,-39.925c0,-13.037 1.629,-22.814 5.703,-28.518c4.074,-5.703 11.408,-11.407 22.815,-17.111c28.517,-14.666 62.739,-26.888 102.664,-36.665c39.925,-10.593 82.294,-15.481 127.108,-15.481c96.96,0 167.847,21.999 213.476,65.998c44.813,43.999 67.628,110.812 67.628,200.439l0,263.994l1.629,0Zm-330.806,123.848c26.888,0 54.591,-4.888 83.924,-14.666c29.332,-9.777 55.406,-27.703 77.405,-52.147c13.037,-15.481 22.814,-32.592 27.703,-52.147c4.889,-19.555 8.148,-43.184 8.148,-70.887l0,-34.221c-23.629,-5.704 -48.888,-10.592 -74.961,-13.852c-26.074,-3.259 -51.332,-4.888 -76.591,-4.888c-54.591,0 -94.516,10.592 -121.404,32.591c-26.888,22 -39.925,52.962 -39.925,93.702c0,38.295 9.778,66.813 30.147,86.368c19.555,20.37 48.073,30.147 85.554,30.147Zm654.28,87.998c-14.667,0 -24.444,-2.444 -30.963,-8.148c-6.518,-4.889 -12.222,-16.296 -17.11,-31.777l-191.477,-629.836c-4.889,-16.296 -7.333,-26.888 -7.333,-32.591c0,-13.037 6.518,-20.37 19.555,-20.37l79.85,0c15.481,0 26.073,2.444 31.777,8.148c6.518,4.888 11.407,16.295 16.296,31.777l136.885,539.393l127.108,-539.393c4.074,-16.296 8.963,-26.889 15.481,-31.777c6.518,-4.889 17.926,-8.148 32.592,-8.148l65.183,0c15.481,0 26.074,2.444 32.592,8.148c6.518,4.888 12.222,16.295 15.481,31.777l128.738,545.912l140.959,-545.912c4.889,-16.296 10.592,-26.889 16.296,-31.777c6.518,-4.889 17.111,-8.148 31.777,-8.148l75.776,0c13.037,0 20.37,6.518 20.37,20.37c0,4.073 -0.815,8.147 -1.63,13.036c-0.815,4.889 -2.444,11.407 -5.703,20.37l-196.366,629.836c-4.889,16.296 -10.592,26.888 -17.111,31.777c-6.518,4.889 -17.11,8.148 -30.962,8.148l-70.072,0c-15.481,0 -26.073,-2.444 -32.592,-8.148c-6.518,-5.704 -12.222,-16.296 -15.481,-32.592l-126.293,-525.542l-125.478,524.727c-4.074,16.296 -8.963,26.889 -15.481,32.592c-6.519,5.704 -17.926,8.148 -32.592,8.148l-70.072,0Zm1047.01,22c-42.369,0 -84.739,-4.889 -125.478,-14.667c-40.74,-9.777 -72.517,-20.37 -93.702,-32.592c-13.036,-7.333 -21.999,-15.481 -25.258,-22.814c-3.259,-7.333 -4.889,-15.481 -4.889,-22.814l0,-41.554c0,-17.111 6.518,-25.259 18.74,-25.259c4.889,0 9.778,0.815 14.667,2.444c4.888,1.63 12.222,4.889 20.369,8.148c27.703,12.222 57.851,22 89.628,28.518c32.592,6.518 64.369,9.778 96.96,9.778c51.332,0 91.257,-8.963 118.96,-26.889c27.703,-17.925 42.37,-43.999 42.37,-77.405c0,-22.814 -7.334,-41.555 -22,-57.036c-14.666,-15.481 -42.369,-29.332 -82.294,-42.369l-118.145,-36.666c-59.48,-18.74 -103.479,-46.443 -130.367,-83.109c-26.889,-35.851 -40.74,-75.776 -40.74,-118.145c0,-34.221 7.333,-64.369 21.999,-90.442c14.667,-26.073 34.222,-48.888 58.666,-66.813c24.443,-18.74 52.146,-32.592 84.738,-42.369c32.592,-9.778 66.813,-13.852 102.664,-13.852c17.926,0 36.666,0.815 54.592,3.259c18.74,2.445 35.85,5.704 52.961,8.963c16.296,4.074 31.777,8.148 46.443,13.037c14.667,4.888 26.074,9.777 34.222,14.666c11.407,6.518 19.555,13.037 24.444,20.37c4.888,6.518 7.333,15.481 7.333,26.888l0,38.295c0,17.111 -6.519,26.074 -18.741,26.074c-6.518,0 -17.11,-3.259 -30.962,-9.778c-46.443,-21.184 -98.59,-31.777 -156.44,-31.777c-46.443,0 -83.109,7.333 -108.368,22.814c-25.258,15.482 -38.295,39.111 -38.295,72.517c0,22.814 8.148,42.369 24.444,57.851c16.296,15.481 46.443,30.962 89.627,44.813l115.701,36.666c58.665,18.74 101.034,44.814 126.293,78.22c25.259,33.407 37.48,71.702 37.48,114.071c0,35.037 -7.333,66.814 -21.184,94.517c-14.667,27.703 -34.222,52.146 -59.48,71.701c-25.259,20.37 -55.406,35.037 -90.442,45.629c-36.666,11.407 -74.961,17.111 -116.516,17.111Z" style="fill:#252f3e;fill-rule:nonzero;"/><g><path d="M2237.12,1679.4c-268.067,197.995 -657.539,303.103 -992.419,303.103c-469.322,0 -892.2,-173.551 -1211.6,-461.988c-25.259,-22.815 -2.445,-53.777 27.703,-35.851c345.473,200.439 771.61,321.843 1212.41,321.843c297.4,0 624.132,-61.924 924.791,-189.032c44.814,-20.37 83.109,29.333 39.11,61.925Z" style="fill:#f90;"/><path d="M2348.75,1552.29c-34.221,-43.999 -226.513,-21.185 -313.696,-10.593c-26.073,3.26 -30.147,-19.555 -6.518,-36.665c153.181,-107.553 404.953,-76.591 434.285,-40.74c29.333,36.666 -8.148,288.437 -151.552,409.027c-21.999,18.74 -43.184,8.962 -33.406,-15.482c32.592,-80.664 105.108,-262.363 70.887,-305.547Z" style="fill:#f90;"/></g></svg>