<?xml version="1.0" encoding="UTF-8" standalone="no"?><!DOCTYPE svg PUBLIC "-//W3C//DTD SVG 1.1//EN" "http://www.w3.org/Graphics/SVG/1.1/DTD/svg11.dtd"><svg width="100%" height="100%" viewBox="0 0 200 200" version="1.1" xmlns="http://www.w3.org/2000/svg" xmlns:xlink="http://www.w3.org/1999/xlink" xml:space="preserve" xmlns:serif="http://www.serif.com/" style="fill-rule:evenodd;clip-rule:evenodd;stroke-linejoin:round;stroke-miterlimit:2;"><g id="ansible"><path id="path10" d="M39.523,104.521c-16.61,3.556 -30.627,17.411 -34.648,34.238c-1.322,5.521 -1.428,14.652 -0.211,20.491c3.385,16.562 16.504,30.204 33.536,34.929c4.92,1.38 17.35,1.38 22.481,-0c21.582,-5.733 35.864,-25.427 34.489,-47.51c-0.423,-6.423 -1.534,-10.776 -4.126,-16.403c-6.136,-13.271 -18.038,-22.879 -32.214,-25.852c-4.761,-1.008 -14.388,-0.955 -19.307,0.107Zm13.171,18.313c0.741,1.221 18.408,43.688 19.096,45.918c0.423,1.433 -1.746,3.875 -3.439,3.875c-0.581,-0 -6.241,-4.141 -13.118,-9.714c-6.612,-5.362 -12.272,-9.874 -12.642,-10.086c-0.371,-0.266 -1.852,2.866 -4.496,9.449l-3.862,9.82l-7.141,0l0.846,-1.964c0.424,-1.115 4.973,-12.103 10.104,-24.472c5.131,-12.368 9.627,-22.826 10.05,-23.25c1.217,-1.168 3.703,-0.956 4.602,0.424Z" style="fill-rule:nonzero;"/><path id="path12" d="M46.18,134.109c-2.3,5.711 -4.125,10.629 -4.125,11.026c0,0.793 24.59,20.226 25.066,19.751c0.317,-0.397 -15.309,-39.502 -16.261,-40.533c-0.317,-0.317 -2.459,4.045 -4.68,9.756Z" style="fill-rule:nonzero;"/></g><g id="docker"><path d="M447.841,106.599c0.379,-0.075 0.606,-0.379 0.606,-0.758c0,-0.303 -0.076,-0.53 -0.303,-0.682c-0.303,-0.152 -0.682,-0.227 -1.061,-0.227c-0.38,-0 -0.834,-0 -1.213,0.075l-0,3.108l0.682,0l-0,-1.212l0.303,-0c0.379,-0 0.607,0.151 0.682,0.454c0.076,0.228 0.152,0.531 0.228,0.758l0.758,0c-0.152,-0.227 -0.228,-0.53 -0.228,-0.758c0.076,-0.303 -0.151,-0.606 -0.454,-0.758m-0.91,-0.227l-0.379,-0l-0,-0.91l0.379,0c0.455,0 0.682,0.228 0.682,0.455c0.076,0.303 -0.303,0.531 -0.682,0.455m-276.241,-55.263c-0.455,-0.379 -4.548,-3.488 -13.342,-3.488c-2.274,0 -4.624,0.228 -6.899,0.607c-1.667,-11.599 -11.295,-17.208 -11.674,-17.512l-2.35,-1.364l-1.516,2.198c-1.895,2.957 -3.335,6.292 -4.169,9.704c-1.592,6.595 -0.607,12.811 2.729,18.118c-4.018,2.274 -10.537,2.804 -11.902,2.88l-107.646,0c-2.805,0 -5.079,2.274 -5.079,5.079c-0.152,9.4 1.44,18.8 4.7,27.67c3.714,9.703 9.248,16.905 16.374,21.302c8.036,4.927 21.15,7.732 35.933,7.732c6.671,-0 13.342,-0.607 19.937,-1.819c9.173,-1.668 17.966,-4.852 26.078,-9.476c6.671,-3.866 12.659,-8.794 17.739,-14.555c8.566,-9.628 13.645,-20.392 17.359,-29.944l1.517,-0c9.324,-0 15.085,-3.715 18.269,-6.898c2.123,-1.971 3.715,-4.397 4.852,-7.126l0.682,-1.971l-1.592,-1.137Z" style="fill:#0091e2;fill-rule:nonzero;"/><path d="M23.928,59.144l14.403,0c0.682,0 1.289,-0.531 1.289,-1.289l-0,-12.887c-0,-0.682 -0.531,-1.289 -1.289,-1.289l-14.403,0c-0.683,0 -1.289,0.531 -1.289,1.289l-0,12.887c0.076,0.758 0.606,1.289 1.289,1.289Zm19.861,0l14.403,0c0.683,0 1.289,-0.531 1.289,-1.289l0,-12.887c0,-0.682 -0.531,-1.289 -1.289,-1.289l-14.403,0c-0.682,0 -1.289,0.531 -1.289,1.289l0,12.887c0.076,0.758 0.607,1.289 1.289,1.289m20.24,0l14.404,0c0.682,0 1.289,-0.531 1.289,-1.289l-0,-12.887c-0,-0.682 -0.531,-1.289 -1.289,-1.289l-14.404,0c-0.682,0 -1.288,0.531 -1.288,1.289l-0,12.887c-0,0.758 0.53,1.289 1.288,1.289Zm19.938,0l14.403,0c0.682,0 1.289,-0.531 1.289,-1.289l-0,-12.887c-0,-0.682 -0.531,-1.289 -1.289,-1.289l-14.403,0c-0.683,0 -1.289,0.531 -1.289,1.289l-0,12.887c-0,0.758 0.606,1.289 1.289,1.289Zm-40.178,-18.421l14.403,-0c0.683,-0 1.289,-0.606 1.289,-1.289l0,-12.887c0,-0.682 -0.531,-1.289 -1.289,-1.289l-14.403,0c-0.682,0 -1.289,0.531 -1.289,1.289l0,12.887c0.076,0.683 0.607,1.289 1.289,1.289m20.24,-0l14.404,-0c0.682,-0 1.289,-0.606 1.289,-1.289l-0,-12.887c-0,-0.682 -0.531,-1.289 -1.289,-1.289l-14.404,0c-0.682,0 -1.288,0.531 -1.288,1.289l-0,12.887c-0,0.683 0.53,1.289 1.288,1.289m19.938,-0l14.403,-0c0.682,-0 1.289,-0.606 1.289,-1.289l-0,-12.887c-0,-0.682 -0.607,-1.289 -1.289,-1.289l-14.403,0c-0.683,0 -1.289,0.531 -1.289,1.289l-0,12.887c-0,0.683 0.606,1.289 1.289,1.289m-0,-18.497l14.403,0c0.682,0 1.289,-0.531 1.289,-1.289l-0,-12.887c-0,-0.682 -0.607,-1.289 -1.289,-1.289l-14.403,0c-0.683,0 -1.289,0.531 -1.289,1.289l-0,12.887c-0,0.683 0.606,1.289 1.289,1.289m20.089,36.918l14.403,0c0.682,0 1.289,-0.531 1.289,-1.289l-0,-12.887c-0,-0.682 -0.531,-1.289 -1.289,-1.289l-14.403,0c-0.683,0 -1.289,0.531 -1.289,1.289l-0,12.887c0.076,0.758 0.606,1.289 1.289,1.289" style="fill:#0091e2;fill-rule:nonzero;"/></g><g id="aws"><path d="M123.851,146.014c-0,1.243 0.134,2.252 0.369,2.991c0.269,0.739 0.605,1.546 1.076,2.42c0.168,0.269 0.235,0.538 0.235,0.773c0,0.336 -0.201,0.672 -0.638,1.008l-2.118,1.412c-0.302,0.202 -0.605,0.303 -0.874,0.303c-0.336,-0 -0.672,-0.168 -1.008,-0.471c-0.471,-0.504 -0.874,-1.042 -1.21,-1.58c-0.336,-0.571 -0.672,-1.21 -1.042,-1.983c-2.622,3.093 -5.916,4.639 -9.882,4.639c-2.823,-0 -5.075,-0.807 -6.722,-2.42c-1.647,-1.614 -2.487,-3.765 -2.487,-6.454c-0,-2.857 1.008,-5.176 3.058,-6.924c2.05,-1.748 4.773,-2.622 8.235,-2.622c1.143,0 2.319,0.101 3.563,0.269c1.243,0.168 2.521,0.437 3.865,0.74l0,-2.454c0,-2.554 -0.538,-4.336 -1.58,-5.378c-1.075,-1.042 -2.89,-1.546 -5.478,-1.546c-1.177,0 -2.387,0.135 -3.63,0.437c-1.244,0.303 -2.454,0.672 -3.63,1.143c-0.538,0.235 -0.941,0.37 -1.177,0.437c-0.235,0.067 -0.403,0.101 -0.538,0.101c-0.47,-0 -0.705,-0.336 -0.705,-1.042l-0,-1.647c-0,-0.538 0.067,-0.941 0.235,-1.177c0.168,-0.235 0.47,-0.47 0.941,-0.705c1.176,-0.605 2.588,-1.11 4.235,-1.513c1.647,-0.437 3.395,-0.639 5.243,-0.639c4,0 6.924,0.908 8.807,2.723c1.848,1.815 2.789,4.571 2.789,8.268l0,10.891l0.068,-0Zm-13.647,5.109c1.11,-0 2.252,-0.202 3.462,-0.605c1.21,-0.404 2.286,-1.143 3.194,-2.152c0.537,-0.638 0.941,-1.344 1.142,-2.151c0.202,-0.806 0.336,-1.781 0.336,-2.924l0,-1.412c-0.974,-0.235 -2.016,-0.437 -3.092,-0.571c-1.075,-0.135 -2.117,-0.202 -3.159,-0.202c-2.252,0 -3.899,0.437 -5.008,1.345c-1.11,0.907 -1.647,2.184 -1.647,3.865c-0,1.58 0.403,2.756 1.243,3.563c0.807,0.84 1.983,1.244 3.529,1.244Zm26.991,3.63c-0.605,-0 -1.009,-0.101 -1.278,-0.337c-0.269,-0.201 -0.504,-0.672 -0.706,-1.31l-7.898,-25.982c-0.202,-0.672 -0.303,-1.109 -0.303,-1.345c0,-0.537 0.269,-0.84 0.807,-0.84l3.294,0c0.638,0 1.075,0.101 1.311,0.336c0.269,0.202 0.47,0.672 0.672,1.311l5.647,22.251l5.243,-22.251c0.168,-0.672 0.37,-1.109 0.639,-1.311c0.269,-0.201 0.739,-0.336 1.344,-0.336l2.689,0c0.639,0 1.076,0.101 1.345,0.336c0.268,0.202 0.504,0.672 0.638,1.311l5.311,22.52l5.815,-22.52c0.201,-0.672 0.437,-1.109 0.672,-1.311c0.269,-0.201 0.706,-0.336 1.311,-0.336l3.126,0c0.537,0 0.84,0.269 0.84,0.84c-0,0.168 -0.034,0.336 -0.067,0.538c-0.034,0.202 -0.101,0.471 -0.236,0.84l-8.1,25.982c-0.202,0.672 -0.437,1.109 -0.706,1.311c-0.269,0.202 -0.706,0.336 -1.277,0.336l-2.891,0c-0.638,0 -1.075,-0.101 -1.344,-0.336c-0.269,-0.235 -0.504,-0.672 -0.639,-1.344l-5.21,-21.68l-5.176,21.646c-0.168,0.672 -0.369,1.109 -0.638,1.344c-0.269,0.236 -0.74,0.337 -1.345,0.337l-2.89,-0Zm43.19,0.907c-1.747,0 -3.495,-0.202 -5.176,-0.605c-1.68,-0.403 -2.991,-0.84 -3.865,-1.344c-0.538,-0.303 -0.908,-0.639 -1.042,-0.941c-0.134,-0.303 -0.202,-0.639 -0.202,-0.942l0,-1.714c0,-0.706 0.269,-1.042 0.773,-1.042c0.202,0 0.404,0.034 0.605,0.101c0.202,0.067 0.505,0.202 0.841,0.336c1.142,0.504 2.386,0.908 3.697,1.177c1.344,0.268 2.655,0.403 4,0.403c2.117,-0 3.764,-0.37 4.907,-1.109c1.143,-0.74 1.748,-1.815 1.748,-3.193c-0,-0.941 -0.303,-1.715 -0.908,-2.353c-0.605,-0.639 -1.747,-1.21 -3.394,-1.748l-4.874,-1.513c-2.454,-0.773 -4.269,-1.915 -5.378,-3.428c-1.109,-1.479 -1.681,-3.126 -1.681,-4.874c0,-1.411 0.303,-2.655 0.908,-3.73c0.605,-1.076 1.412,-2.017 2.42,-2.757c1.008,-0.773 2.151,-1.344 3.496,-1.747c1.344,-0.404 2.756,-0.572 4.235,-0.572c0.739,0 1.512,0.034 2.252,0.135c0.773,0.1 1.479,0.235 2.184,0.369c0.673,0.168 1.311,0.336 1.916,0.538c0.605,0.202 1.076,0.403 1.412,0.605c0.471,0.269 0.807,0.538 1.008,0.84c0.202,0.269 0.303,0.639 0.303,1.11l-0,1.579c-0,0.706 -0.269,1.076 -0.773,1.076c-0.269,-0 -0.706,-0.135 -1.277,-0.403c-1.916,-0.874 -4.067,-1.311 -6.454,-1.311c-1.916,-0 -3.428,0.302 -4.47,0.941c-1.042,0.638 -1.58,1.613 -1.58,2.991c-0,0.941 0.336,1.748 1.008,2.387c0.673,0.638 1.916,1.277 3.698,1.848l4.772,1.513c2.421,0.773 4.168,1.849 5.21,3.227c1.042,1.378 1.546,2.957 1.546,4.705c0,1.446 -0.302,2.756 -0.873,3.899c-0.606,1.143 -1.412,2.151 -2.454,2.958c-1.042,0.84 -2.286,1.445 -3.731,1.882c-1.513,0.471 -3.092,0.706 -4.807,0.706Z" style="fill:#252f3e;fill-rule:nonzero;stroke:#252f3e;stroke-width:1px;"/><path d="M186.738,171.995c-11.058,8.168 -27.124,12.504 -40.939,12.504c-19.36,-0 -36.805,-7.159 -49.98,-19.058c-1.042,-0.941 -0.101,-2.218 1.142,-1.479c14.252,8.269 31.831,13.277 50.015,13.277c12.268,-0 25.746,-2.555 38.149,-7.798c1.848,-0.84 3.428,1.21 1.613,2.554Z" style="fill:#f90;"/><path d="M191.343,166.752c-1.412,-1.815 -9.344,-0.874 -12.941,-0.437c-1.075,0.134 -1.243,-0.807 -0.268,-1.513c6.319,-4.436 16.705,-3.159 17.915,-1.68c1.21,1.512 -0.337,11.898 -6.252,16.873c-0.908,0.773 -1.782,0.37 -1.378,-0.639c1.344,-3.327 4.336,-10.823 2.924,-12.604Z" style="fill:#f90;"/></g></svg>