<?xml version="1.0" encoding="UTF-8" standalone="no"?>
<!DOCTYPE svg PUBLIC "-//W3C//DTD SVG 1.1//EN" "http://www.w3.org/Graphics/SVG/1.1/DTD/svg11.dtd">
<svg width="100%" height="100%" viewBox="0 0 310 310" version="1.1" xmlns="http://www.w3.org/2000/svg" xmlns:xlink="http://www.w3.org/1999/xlink" xml:space="preserve" xmlns:serif="http://www.serif.com/" style="fill-rule:evenodd;clip-rule:evenodd;stroke-linejoin:round;stroke-miterlimit:2;">
    <g id="g6103" transform="matrix(1,0,0,1,-345,67.2881)">
        <g id="g1172" transform="matrix(0.313742,0,0,0.313742,-949.56,-170.633)">
            <path id="path1170" d="M4399.57,773.907C4399.57,773.907 4434.9,794.625 4441.82,798.686C4454.92,806.369 4489.78,826.518 4506.06,835.918C4507.83,836.945 4508.93,838.841 4508.93,840.893C4508.94,842.946 4507.85,844.845 4506.08,845.879C4478.98,861.682 4395.88,910.133 4377.82,920.667C4375.66,921.921 4373,921.904 4370.87,920.621C4357.3,912.474 4307.94,882.83 4295.85,875.746C4278.92,865.835 4258.58,853.906 4258.58,853.906L4399.57,773.907Z" style="fill:url(#_Linear1);"/>
        </g>
        <g id="g1176" transform="matrix(0.313742,0,0,0.313742,-949.56,-170.633)">
            <path id="path1174" d="M4269.48,860.305C4214.98,828.387 4181.14,808.573 4152.3,791.684C4148.32,789.349 4145.87,785.076 4145.86,780.456C4145.86,775.837 4148.31,771.563 4152.3,769.227L4471.71,582.056C4473.73,580.87 4476.23,580.858 4478.27,582.024C4480.3,583.19 4481.56,585.357 4481.56,587.702L4481.56,726.434C4481.56,734.276 4477.4,741.528 4470.62,745.483C4457.3,753.266 4416.19,776.948 4402.89,784.716C4402.89,784.716 4269.59,860.37 4269.48,860.305Z" style="fill:rgb(49,54,158);"/>
        </g>
        <g id="g1180" transform="matrix(0.313742,0,0,0.313742,-949.56,-170.633)">
            <path id="path1178" d="M4604.42,705.593L4689.96,739.96L4689.96,676.158C4689.96,673.53 4688.59,671.092 4686.34,669.727C4684.1,668.362 4681.3,668.268 4678.97,669.48C4673.04,672.558 4604.42,705.593 4604.42,705.593Z" style="fill:rgb(29,33,103);"/>
        </g>
        <g id="g1184" transform="matrix(0.313742,0,0,0.313742,-949.56,-170.633)">
            <path id="path1182" d="M4976.91,704.019C4976.91,704.019 4968.38,699.036 4968.35,699.019C4888.43,652.189 4798.19,599.309 4768.75,582.056C4766.73,580.87 4764.23,580.858 4762.19,582.024C4760.15,583.19 4758.9,585.357 4758.9,587.702L4758.9,726.434C4758.9,734.276 4763.06,741.528 4769.83,745.483C4783.16,753.266 4838.16,785.396 4838.16,785.396L4976.91,704.019Z" style="fill:url(#_Linear2);"/>
        </g>
        <g id="g1188" transform="matrix(0.313742,0,0,0.313742,-949.56,-170.633)">
            <path id="path1186" d="M4968.44,699.073C4968.44,699.073 4732.78,837.308 4704.61,853.835C4701.6,855.599 4697.88,855.618 4694.85,853.885C4691.83,852.152 4689.96,848.932 4689.96,845.445L4689.96,731.796C4689.96,731.796 4578.8,681.413 4561.49,672.425C4559.16,671.213 4556.51,671.576 4554.12,672.672C4552.16,673.57 4550.5,676.475 4550.5,679.103L4550.5,845.445C4550.5,848.932 4550.93,860.49 4538.48,867.671C4536.07,869.063 4408.27,942.949 4408.27,942.949L4620.26,1065.7C4620.26,1065.7 4997.97,844.499 5088.16,791.684C5092.14,789.349 5094.59,785.076 5094.59,780.456C5094.59,775.837 5092.14,771.563 5088.16,769.227C5063.52,754.789 4968.44,699.073 4968.44,699.073" style="fill:url(#_Linear3);"/>
        </g>
    </g>
    <defs>
        <linearGradient id="_Linear1" x1="0" y1="0" x2="1" y2="0" gradientUnits="userSpaceOnUse" gradientTransform="matrix(-158.501,-265.604,265.604,-158.501,4436.06,964.047)"><stop offset="0" style="stop-color:rgb(49,54,158);stop-opacity:1"/><stop offset="0.52" style="stop-color:rgb(38,42,122);stop-opacity:1"/><stop offset="1" style="stop-color:black;stop-opacity:1"/></linearGradient>
        <linearGradient id="_Linear2" x1="0" y1="0" x2="1" y2="0" gradientUnits="userSpaceOnUse" gradientTransform="matrix(160.563,96.0376,-96.0376,160.563,4771.78,656.669)"><stop offset="0" style="stop-color:rgb(49,54,158);stop-opacity:1"/><stop offset="1" style="stop-color:rgb(29,33,103);stop-opacity:1"/></linearGradient>
        <linearGradient id="_Linear3" x1="0" y1="0" x2="1" y2="0" gradientUnits="userSpaceOnUse" gradientTransform="matrix(76.53,136.554,-136.554,76.53,4737.26,847.244)"><stop offset="0" style="stop-color:rgb(49,54,158);stop-opacity:1"/><stop offset="1" style="stop-color:rgb(29,33,103);stop-opacity:1"/></linearGradient>
    </defs>
</svg>
