<?xml version="1.0" encoding="UTF-8" standalone="no"?><!DOCTYPE svg PUBLIC "-//W3C//DTD SVG 1.1//EN" "http://www.w3.org/Graphics/SVG/1.1/DTD/svg11.dtd"><svg width="100%" height="100%" viewBox="0 0 2500 2500" version="1.1" xmlns="http://www.w3.org/2000/svg" xmlns:xlink="http://www.w3.org/1999/xlink" xml:space="preserve" xmlns:serif="http://www.serif.com/" style="fill-rule:evenodd;clip-rule:evenodd;stroke-miterlimit:10;"><g id="bigdata"><path d="M1666.57,24.235c-322.74,-47.297 -365.171,1232.63 -225.363,1279.84c144.679,26.201 453.509,-1240.88 225.363,-1279.84Z" style="fill:none;fill-rule:nonzero;stroke:#bcbfce;stroke-width:45.91px;"/><path d="M2225.8,274.638c65.384,110.594 -1128.2,858.326 -1204.72,626.006c-129.375,-272.659 1174.11,-737.294 1204.72,-626.006Z" style="fill:none;fill-rule:nonzero;stroke:#bcbfce;stroke-width:45.91px;"/><path d="M988.392,245.424c-77.208,139.808 879.193,925.447 932.75,721.994c139.808,-298.396 -805.671,-875.449 -932.75,-721.994Z" style="fill:none;fill-rule:nonzero;stroke:#bcbfce;stroke-width:45.91px;"/><circle cx="2051.56" cy="471.83" r="86.598" style="fill:#bcbfce;"/><circle cx="1278.44" cy="287.158" r="86.598" style="fill:#bcbfce;"/><circle cx="1365.04" cy="1052.97" r="86.598" style="fill:#bcbfce;"/><circle cx="1595.62" cy="1084.27" r="86.598" style="fill:#bcbfce;"/><text x="265.223px" y="1344.82px" style="font-family:'ArialMT', 'Arial', sans-serif;font-size:507.819px;">the</text><text x="986.944px" y="1329.59px" style="font-family:'ArialNarrow-Bold', 'Arial Narrow', sans-serif;font-weight:700;font-stretch:condensed;font-size:945.935px;">B<tspan x="1467.29px 1603.53px " y="1329.59px 1329.59px ">IG</tspan></text><text x="322.793px" y="2071.55px" style="font-family:'ArialNarrow-Bold', 'Arial Narrow', sans-serif;font-weight:700;font-stretch:condensed;font-size:945.935px;fill:#c9232a;">D<tspan x="803.136px 1226.67px 1564.29px " y="2071.55px 2071.55px 2071.55px ">ATA</tspan></text><text x="956.217px" y="2471.15px" style="font-family:'ArialNarrow-Bold', 'Arial Narrow', sans-serif;font-weight:700;font-stretch:condensed;font-size:511.974px;">TEAM</text></g></svg>