<?xml version="1.0" encoding="UTF-8" standalone="no"?><!DOCTYPE svg PUBLIC "-//W3C//DTD SVG 1.1//EN" "http://www.w3.org/Graphics/SVG/1.1/DTD/svg11.dtd"><svg width="100%" height="100%" viewBox="0 0 100 100" version="1.1" xmlns="http://www.w3.org/2000/svg" xmlns:xlink="http://www.w3.org/1999/xlink" xml:space="preserve" xmlns:serif="http://www.serif.com/" style="fill-rule:evenodd;clip-rule:evenodd;stroke-linejoin:round;stroke-miterlimit:2;"><g id="box"><path d="M53.729,38.7c-7.435,-0 -13.892,4.18 -17.154,10.317c-3.263,-6.137 -9.719,-10.317 -17.154,-10.317c-4.37,0 -8.403,1.444 -11.648,3.881l0,-16.357l-0.001,0c-0.046,-2.108 -1.766,-3.804 -3.885,-3.804c-2.119,0 -3.838,1.696 -3.883,3.804l-0.002,0l0,32.216l0.008,0c0.173,10.575 8.794,19.098 19.411,19.098c7.435,-0 13.891,-4.182 17.154,-10.319c3.262,6.138 9.719,10.318 17.154,10.318c10.724,0 19.418,-8.695 19.418,-19.419c0.001,-10.725 -8.694,-19.418 -19.418,-19.418Zm-34.308,31.066c-6.433,-0 -11.648,-5.215 -11.648,-11.647c0,-6.434 5.215,-11.648 11.648,-11.648c6.433,-0 11.647,5.214 11.647,11.648c0,6.432 -5.214,11.647 -11.647,11.647Zm34.308,-0c-6.433,-0 -11.647,-5.215 -11.647,-11.648c-0,-6.433 5.214,-11.647 11.647,-11.647c6.433,-0 11.648,5.214 11.648,11.647c-0,6.433 -5.215,11.648 -11.648,11.648Z" style="fill:#0075c9;fill-rule:nonzero;"/><path d="M99.269,71.426l-9.945,-13.293l9.945,-13.294l-0.002,-0.001c1.23,-1.713 0.874,-4.102 -0.821,-5.375c-1.694,-1.272 -4.087,-0.949 -5.389,0.709l-0.001,0l-8.584,11.473l-8.583,-11.473l-0.001,0.002c-1.302,-1.66 -3.695,-1.983 -5.39,-0.71c-1.695,1.273 -2.051,3.662 -0.82,5.374l-0.002,0.001l9.945,13.294l-9.945,13.293l0.002,0.001c-1.231,1.713 -0.875,4.101 0.82,5.374c1.695,1.273 4.088,0.949 5.39,-0.709l0.001,0.001l8.583,-11.474l8.584,11.474l0.001,-0c1.302,1.658 3.695,1.981 5.389,0.709c1.695,-1.273 2.051,-3.662 0.821,-5.374l0.002,-0.002Z" style="fill:#0075c9;fill-rule:nonzero;"/></g></svg>