<?xml version="1.0" encoding="UTF-8" standalone="no"?>
<!DOCTYPE svg PUBLIC "-//W3C//DTD SVG 1.1//EN" "http://www.w3.org/Graphics/SVG/1.1/DTD/svg11.dtd">
<svg width="100%" height="100%" viewBox="0 0 170 170" version="1.1" xmlns="http://www.w3.org/2000/svg" xmlns:xlink="http://www.w3.org/1999/xlink" xml:space="preserve" xmlns:serif="http://www.serif.com/" style="fill-rule:evenodd;clip-rule:evenodd;stroke-linecap:round;stroke-linejoin:round;">
    <g id="g164165" transform="matrix(1,0,0,1,-1837.86,-232.732)">
        <g id="g164101" transform="matrix(1,0,0,1,-334.911,-28.5564)">
            <path id="path164095" d="M2258.02,412.817L2203.32,386.645L2189.65,327.51L2227.32,279.942L2287.95,279.761L2325.89,327.103L2312.57,386.317L2258.02,412.817Z" style="fill:none;fill-rule:nonzero;stroke:black;stroke-width:3px;"/>
            <g id="path164097" transform="matrix(0.264583,0,0,0.264583,2094.27,335.992)">
                <path d="M526.893,168.372C524.428,168.989 519.604,167.992 519.736,171.733C520.581,176.082 521.195,180.953 519.522,185.15C512.152,189.8 501.94,203.635 493.295,204.735L617.859,263.023L738.934,206.345C741.851,204.296 745.957,207.925 743.313,208.254C733.804,206.411 727.425,198.203 720.944,191.872C717.182,188.409 715.696,183.245 716.369,178.245C716.223,175.185 719.602,171.504 716.708,169.136C713.153,168.944 708.481,167.213 706.066,170.866C697.281,179.914 683.422,183.087 671.728,179.052C667.315,176.63 663.032,180.612 659.048,182.079C639.567,191.066 617.46,194.207 596.785,188.51C587.496,186.183 578.421,182.909 570.224,178.069C566.4,177.681 562.866,180.265 558.987,180.443C548.297,182.147 537.018,177.854 529.618,169.818C528.918,169.06 527.949,168.39 526.893,168.372L526.893,168.372ZM619.025,212.016C623.085,211.162 620.564,216.709 621.284,219.104C621.35,231.242 621.416,243.379 621.482,255.516C617.639,256.35 616.06,254.92 616.965,251.006L616.965,211.947C617.652,211.97 618.338,211.993 619.025,212.016L619.025,212.016Z" style="fill:white;fill-rule:nonzero;"/>
            </g>
            <path id="path164099" d="M2266.41,332.917C2265.99,332.931 2265.56,332.995 2265.19,332.942C2259.43,333.064 2253.67,333.195 2247.91,333.03C2247.1,333.354 2247.21,334.454 2246.89,335.16C2246.25,337.947 2246.83,340.827 2246.96,343.64C2247.16,346.021 2247.36,348.402 2247.56,350.783C2243.94,354.545 2240.62,358.673 2238.2,363.317C2236.91,365.804 2236.44,368.661 2236.8,371.436C2236.85,373.809 2237.2,376.522 2235.53,378.476C2234.95,378.976 2235.1,379.829 2235.72,380.214C2237.48,381.766 2239.94,382.483 2242.24,381.924C2245.07,381.46 2246.88,378.996 2248.81,377.118C2249.26,376.474 2250.61,375.831 2249.9,374.935C2247.72,371.861 2246.13,368.004 2246.87,364.189C2247.22,362.46 2248.69,361.296 2250.18,360.542C2250.99,359.737 2249.6,359.02 2249.51,358.174C2249.75,356.585 2250.04,354.938 2250.77,353.491C2251.5,352.3 2253.06,352.572 2254.2,352.11C2255.99,351.485 2257.99,351.099 2259.82,351.818C2261.09,352.292 2262.49,352.366 2263.73,352.883C2264.89,353.915 2265,355.603 2265.41,357.014C2265.65,357.765 2265.63,358.605 2265.06,359.21C2264.61,359.718 2264.7,360.56 2265.42,360.75C2267.23,361.662 2268.56,363.512 2268.52,365.582C2268.59,369.011 2267.23,372.32 2265.21,375.042C2264.9,375.963 2266.12,376.455 2266.54,377.134C2268.41,379.121 2270.34,381.403 2273.15,381.969C2275.66,382.482 2278.44,381.588 2280.13,379.681C2280.4,378.905 2279.32,378.522 2279.11,377.828C2277.9,375.808 2278.27,373.407 2278.31,371.171C2278.74,367.983 2277.84,364.764 2276.21,362.033C2273.81,357.934 2270.84,354.185 2267.53,350.784C2267.84,346.239 2268.47,341.706 2268.48,337.147C2268.42,335.791 2268.09,334.436 2267.53,333.205C2267.22,332.944 2266.82,332.905 2266.41,332.918L2266.41,332.917ZM2264.1,376.518C2263.97,376.51 2263.82,376.618 2263.69,376.623C2262.15,377.895 2260.3,378.92 2258.24,378.893C2256.21,379.045 2254.11,378.61 2252.48,377.337C2251.92,376.953 2251.1,376.095 2250.53,376.916C2249.19,378.427 2247.74,379.863 2246.34,381.304C2245.9,382.209 2247.25,382.389 2247.82,382.722C2251,384.017 2254.41,384.924 2257.86,384.926C2261.56,384.761 2265.29,383.931 2268.59,382.227C2269.37,381.572 2268.37,380.753 2267.92,380.239C2266.7,379.015 2265.57,377.647 2264.23,376.575C2264.19,376.537 2264.14,376.521 2264.1,376.518L2264.1,376.518Z" style="fill:white;fill-rule:nonzero;"/>
        </g>
        <path id="path164103" d="M1897.5,273.168L1900.42,267.62L1944.17,266.314L1948.68,274.8L1941.26,292.749L1925.88,295.034L1914.74,296.013L1902.81,288.18L1897.5,273.168Z" style="fill:rgb(253,227,133);fill-rule:nonzero;"/>
        <path id="path164105" d="M1895.61,274.125C1899.28,269.531 1902.11,267.331 1905.09,265.958L1906.55,267.857M1948.59,272.417C1944.92,267.823 1942.49,266.05 1939.91,265.104L1938.42,267.107" style="fill:rgb(253,227,133);fill-rule:nonzero;stroke:rgb(252,201,23);stroke-width:2.25px;stroke-linecap:square;stroke-linejoin:miter;"/>
        <path id="path164107" d="M1921.86,330.234C1920.87,330.229 1919.88,330.359 1918.92,330.633C1912.96,332.578 1910.61,334.337 1911.67,340.412C1912.91,346.651 1917.87,351.888 1922.92,351.49C1927.96,351.887 1932.92,346.65 1934.16,340.412C1935.23,334.337 1932.88,332.578 1926.91,330.633C1925.96,330.359 1924.97,330.228 1923.98,330.234C1923.62,330.237 1923.27,330.267 1922.92,330.306C1922.57,330.266 1922.21,330.238 1921.86,330.234Z" style="fill:rgb(204,204,204);fill-rule:nonzero;"/>
        <path id="path164109" d="M1933.46,322.552C1936.07,325.242 1938.43,328.165 1940.52,331.274C1942.46,334.156 1944.21,337.352 1944.33,340.822C1944.4,342.781 1943.95,344.738 1944.09,346.693C1944.16,347.67 1944.39,348.651 1944.88,349.501C1945.37,350.352 1946.13,351.065 1947.06,351.371C1947.69,351.577 1948.37,351.593 1949.02,351.454C1949.66,351.315 1950.27,351.023 1950.8,350.638C1951.87,349.867 1952.64,348.742 1953.25,347.571C1954.73,344.707 1955.38,341.471 1955.6,338.252C1955.82,335.033 1955.64,331.802 1955.55,328.576C1955.5,326.531 1955.49,324.45 1956.06,322.484C1956.71,320.22 1958.09,318.251 1959.32,316.239C1960.55,314.227 1961.67,312.028 1961.7,309.671C1961.72,308.042 1961.21,306.459 1960.82,304.879C1960.42,303.298 1960.13,301.621 1960.58,300.054C1960.88,299.002 1961.49,298.072 1962.03,297.12C1964.72,292.353 1965.7,286.671 1964.94,281.246C1964.19,275.821 1961.74,270.672 1958.16,266.53C1957.99,266.336 1957.82,266.143 1957.62,265.987C1957.41,265.831 1957.17,265.714 1956.92,265.691C1956.68,265.671 1956.44,265.733 1956.24,265.848C1956.03,265.963 1955.85,266.129 1955.71,266.317C1955.42,266.691 1955.25,267.144 1955.06,267.577C1954.07,269.791 1952.33,271.57 1950.55,273.219C1948.77,274.868 1946.9,276.463 1945.54,278.472C1944.09,280.621 1943.3,283.143 1942.71,285.669C1942.13,288.195 1941.74,290.768 1940.99,293.251C1940.73,294.131 1940.42,294.998 1940.07,295.847C1937.7,295.452 1935.29,295.242 1932.88,295.219C1930.27,295.194 1927.66,295.392 1925.08,295.808C1927.43,296.966 1929.51,298.679 1931.1,300.767C1933.05,303.322 1934.25,306.439 1934.52,309.639L1933.46,322.552Z" style="fill:rgb(128,128,128);fill-rule:nonzero;stroke:black;stroke-width:2.25px;stroke-linecap:square;stroke-linejoin:miter;"/>
        <path id="path164111" d="M1887.84,361.534C1891.95,361.931 1893.55,358.936 1895.11,357.654C1898.23,355.09 1895.43,352.212 1895.78,350.857" style="fill:none;fill-rule:nonzero;stroke:black;stroke-width:2.25px;stroke-linecap:butt;stroke-linejoin:miter;"/>
        <path id="path164113" d="M1861.77,304.353L1881.13,309.481" style="fill:none;fill-rule:nonzero;stroke:rgb(253,227,133);stroke-width:2.25px;stroke-linecap:butt;stroke-linejoin:miter;"/>
        <path id="path164115" d="M1912.27,322.552C1909.66,325.242 1907.3,328.165 1905.2,331.274C1903.27,334.156 1901.52,337.352 1901.4,340.822C1901.33,342.781 1901.78,344.738 1901.64,346.693C1901.57,347.67 1901.34,348.651 1900.85,349.501C1900.36,350.352 1899.6,351.065 1898.67,351.371C1898.04,351.577 1897.36,351.593 1896.71,351.454C1896.07,351.315 1895.46,351.023 1894.93,350.638C1893.86,349.867 1893.09,348.742 1892.48,347.571C1891,344.707 1890.35,341.471 1890.13,338.252C1889.91,335.033 1890.09,331.802 1890.18,328.576C1890.23,326.531 1890.24,324.45 1889.67,322.484C1889.02,320.22 1887.63,318.251 1886.41,316.239C1885.18,314.227 1884.06,312.028 1884.03,309.671C1884.01,308.042 1884.52,306.459 1884.91,304.879C1885.31,303.298 1885.6,301.621 1885.15,300.054C1884.85,299.002 1884.24,298.072 1883.7,297.12C1881.01,292.353 1880.03,286.671 1880.79,281.246C1881.54,275.821 1883.99,270.672 1887.57,266.53C1887.74,266.336 1887.91,266.143 1888.11,265.987C1888.32,265.831 1888.56,265.714 1888.81,265.691C1889.05,265.671 1889.29,265.733 1889.49,265.848C1889.7,265.963 1889.88,266.129 1890.02,266.317C1890.31,266.691 1890.48,267.144 1890.67,267.577C1891.66,269.791 1893.4,271.57 1895.18,273.219C1896.96,274.868 1898.83,276.463 1900.19,278.472C1901.64,280.621 1902.43,283.143 1903.02,285.669C1903.6,288.195 1903.99,290.768 1904.74,293.251C1905,294.131 1905.31,294.998 1905.66,295.847C1908.03,295.452 1910.44,295.242 1912.85,295.219C1915.46,295.194 1918.07,295.392 1920.65,295.808C1918.3,296.966 1916.22,298.679 1914.63,300.767C1912.68,303.322 1911.48,306.439 1911.21,309.639L1912.27,322.552Z" style="fill:rgb(128,128,128);fill-rule:nonzero;stroke:black;stroke-width:2.25px;stroke-linecap:square;stroke-linejoin:miter;"/>
        <g id="ellipse164117" transform="matrix(-1,0,0,1,0,0)">
            <ellipse cx="-1944.01" cy="320.149" rx="7.253" ry="7.459" style="stroke:rgb(255,204,0);stroke-width:2.25px;stroke-linecap:square;stroke-linejoin:miter;"/>
        </g>
        <path id="path164119" d="M1950.51,310.476C1949.06,308.586 1946.75,307.384 1944.38,307.282C1942.13,307.186 1939.86,308.066 1938.27,309.651" style="fill:none;fill-rule:nonzero;stroke:black;stroke-width:2.25px;stroke-linecap:square;stroke-linejoin:miter;"/>
        <path id="path164121" d="M1951.23,299.35C1950.26,299.291 1949.3,298.974 1948.49,298.441C1947.67,297.908 1947,297.16 1946.56,296.293C1945.91,295.042 1945.76,293.578 1945.95,292.185C1946.14,290.792 1946.65,289.46 1947.27,288.201C1948.76,285.2 1950.93,282.537 1953.57,280.468" style="fill:none;fill-rule:nonzero;stroke:black;stroke-width:2.25px;stroke-linecap:square;stroke-linejoin:miter;"/>
        <path id="path164123" d="M1922.4,332.497L1922.66,337.694C1922.72,338.752 1922.75,339.822 1922.54,340.861C1922.33,341.9 1921.88,342.89 1921.25,343.735C1920.61,344.581 1919.79,345.277 1918.93,345.896C1918.07,346.516 1917.16,347.071 1916.34,347.74C1915.21,348.656 1914.27,349.771 1913.29,350.84C1912.3,351.908 1911.26,352.949 1909.99,353.666C1908.34,354.606 1906.34,354.933 1904.47,354.572C1902.6,354.211 1900.87,353.165 1899.68,351.676" style="fill:none;fill-rule:nonzero;stroke:black;stroke-width:2.25px;stroke-linecap:square;stroke-linejoin:miter;"/>
        <path id="path164125" d="M1930.33,329.74C1929.75,328.191 1929.75,325.093 1927.98,325.093C1926.22,325.093 1924.59,323.931 1922.86,323.931C1921.12,323.931 1919.5,325.093 1917.73,325.093C1915.97,325.093 1915.97,328.191 1915.38,329.74C1914.8,331.289 1922.86,336.324 1922.86,336.324C1922.86,336.324 1930.92,331.289 1930.33,329.74Z" style="fill:rgb(128,128,128);fill-rule:nonzero;stroke:black;stroke-width:2.25px;stroke-linecap:square;stroke-linejoin:miter;"/>
        <ellipse id="ellipse164127" cx="1901.98" cy="320.149" rx="7.253" ry="7.459" style="stroke:rgb(255,204,0);stroke-width:2.25px;stroke-linecap:square;stroke-linejoin:miter;"/>
        <ellipse id="ellipse164129" cx="1899.56" cy="318.05" rx="3.567" ry="3.717" style="fill:white;"/>
        <path id="path164131" d="M1895.47,310.476C1896.92,308.586 1899.23,307.384 1901.6,307.282C1903.85,307.186 1906.12,308.066 1907.71,309.651" style="fill:none;fill-rule:nonzero;stroke:black;stroke-width:2.25px;stroke-linecap:square;stroke-linejoin:miter;"/>
        <path id="path164133" d="M1893.25,299.35C1894.22,299.291 1895.18,298.974 1895.99,298.441C1896.81,297.908 1897.48,297.16 1897.92,296.293C1898.57,295.042 1898.72,293.578 1898.53,292.185C1898.34,290.792 1897.83,289.46 1897.21,288.201C1895.72,285.2 1893.55,282.537 1890.91,280.468" style="fill:none;fill-rule:nonzero;stroke:black;stroke-width:2.25px;stroke-linecap:square;stroke-linejoin:miter;"/>
        <path id="path164135" d="M1923.17,362.648L1923.17,372.963" style="fill:none;fill-rule:nonzero;stroke:black;stroke-width:2.25px;stroke-linecap:square;stroke-linejoin:miter;"/>
        <path id="path164137" d="M1903.61,284.786C1903.61,284.786 1896.48,290.089 1894.02,290.885C1891.55,291.68 1881.42,293.006 1881.42,293.006L1881.69,300.961C1881.69,300.961 1886.07,301.757 1891.01,300.696C1895.94,299.636 1931.27,299.37 1931.27,299.37" style="fill:rgb(253,227,133);fill-rule:nonzero;stroke:rgb(252,201,23);stroke-width:2.25px;stroke-linecap:square;stroke-linejoin:miter;"/>
        <path id="path164139" d="M1984.63,304.353L1965.27,309.481" style="fill:none;fill-rule:nonzero;stroke:rgb(253,227,133);stroke-width:2.25px;stroke-linecap:butt;stroke-linejoin:miter;"/>
        <path id="path164141" d="M1935.66,353.968C1929.39,357.804 1922.01,357.556 1923.04,357.556C1924.07,357.556 1916.69,357.804 1910.42,353.968" style="fill:none;fill-rule:nonzero;stroke:black;stroke-width:2.25px;stroke-linecap:square;stroke-linejoin:miter;"/>
        <path id="path164143" d="M1958.15,362.064C1954.04,362.462 1952.44,359.467 1950.88,358.185C1947.76,355.621 1950.56,352.743 1950.22,351.388" style="fill:none;fill-rule:nonzero;stroke:black;stroke-width:2.25px;stroke-linecap:butt;stroke-linejoin:miter;"/>
        <path id="path164145" d="M1873.07,353.95L1886.33,344.845" style="fill:none;fill-rule:nonzero;stroke:rgb(253,227,133);stroke-width:2.25px;stroke-linecap:butt;stroke-linejoin:miter;"/>
        <ellipse id="ellipse164147" cx="1946.21" cy="318.05" rx="3.567" ry="3.717" style="fill:white;"/>
        <path id="path164149" d="M1920.73,328.975L1919.23,332.537" style="fill:none;fill-rule:nonzero;stroke:black;stroke-width:2.25px;stroke-linecap:square;stroke-linejoin:miter;"/>
        <path id="path164151" d="M1925.23,328.975L1926.73,332.537" style="fill:none;fill-rule:nonzero;stroke:black;stroke-width:2.25px;stroke-linecap:square;stroke-linejoin:miter;"/>
        <path id="path164153" d="M1971.83,353.95L1958.57,344.845" style="fill:none;fill-rule:nonzero;stroke:rgb(253,227,133);stroke-width:2.25px;stroke-linecap:butt;stroke-linejoin:miter;"/>
        <path id="path164155" d="M1942.06,284.786C1942.06,284.786 1949.18,290.089 1951.65,290.885C1954.11,291.68 1964.25,293.006 1964.25,293.006L1963.98,300.961C1963.98,300.961 1959.59,301.757 1954.66,300.696C1949.73,299.636 1914.39,299.37 1914.39,299.37" style="fill:rgb(253,227,133);fill-rule:nonzero;stroke:rgb(252,201,23);stroke-width:2.25px;stroke-linecap:square;stroke-linejoin:miter;"/>
        <path id="path164157" d="M1941.89,304.061L1958.79,301.806L1932.77,297.297L1907.57,297.438L1887.98,300.961L1898.44,304.062L1920.16,304.625L1941.89,304.061Z" style="fill:rgb(253,227,133);fill-rule:nonzero;stroke:rgb(252,201,23);stroke-width:2.25px;stroke-linecap:square;stroke-linejoin:miter;"/>
        <path id="path164159" d="M1918.54,282.482L1912.35,282.295L1906.92,275.545L1907.1,267.295L1916.07,264.907C1920.87,263.251 1925.13,263.754 1929.59,264.907C1937.33,267.162 1938.8,267.295 1938.8,267.295L1938.98,275.545L1933.55,282.295L1927.36,282.482" style="fill:rgb(252,218,93);stroke:rgb(252,201,23);stroke-width:2.25px;stroke-linecap:butt;stroke-linejoin:miter;"/>
        <path id="path164161" d="M1931.85,277.4L1933.17,262.023L1923.36,260.386L1913.54,262.023L1914.86,277.4L1923.36,287.9L1931.85,277.4Z" style="fill:rgb(253,227,133);stroke:rgb(252,201,23);stroke-width:2.25px;stroke-linecap:butt;stroke-linejoin:miter;"/>
        <path id="path164163" d="M1923.53,332.497L1923.26,337.694C1923.21,338.752 1923.18,339.822 1923.39,340.861C1923.6,341.9 1924.04,342.89 1924.68,343.735C1925.32,344.581 1926.14,345.277 1927,345.896C1927.86,346.516 1928.76,347.071 1929.58,347.74C1930.71,348.656 1931.66,349.771 1932.64,350.84C1933.62,351.908 1934.67,352.949 1935.93,353.666C1937.59,354.606 1939.59,354.933 1941.46,354.572C1943.33,354.211 1945.06,353.165 1946.25,351.676" style="fill:none;fill-rule:nonzero;stroke:black;stroke-width:2.25px;stroke-linecap:square;stroke-linejoin:miter;"/>
    </g>
</svg>
