<?xml version="1.0" encoding="UTF-8" standalone="no"?><!DOCTYPE svg PUBLIC "-//W3C//DTD SVG 1.1//EN" "http://www.w3.org/Graphics/SVG/1.1/DTD/svg11.dtd"><svg width="100%" height="100%" viewBox="0 0 200 200" version="1.1" xmlns="http://www.w3.org/2000/svg" xmlns:xlink="http://www.w3.org/1999/xlink" xml:space="preserve" xmlns:serif="http://www.serif.com/" style="fill-rule:evenodd;clip-rule:evenodd;"><g id="docker"><path d="M447.841,106.599c0.379,-0.075 0.606,-0.379 0.606,-0.758c0,-0.303 -0.076,-0.53 -0.303,-0.682c-0.303,-0.152 -0.682,-0.227 -1.061,-0.227c-0.38,-0 -0.834,-0 -1.213,0.075l-0,3.108l0.682,0l-0,-1.212l0.303,-0c0.379,-0 0.607,0.151 0.682,0.454c0.076,0.228 0.152,0.531 0.228,0.758l0.758,0c-0.152,-0.227 -0.228,-0.53 -0.228,-0.758c0.076,-0.303 -0.151,-0.606 -0.454,-0.758m-0.91,-0.227l-0.379,-0l-0,-0.91l0.379,0c0.455,0 0.682,0.228 0.682,0.455c0.076,0.303 -0.303,0.531 -0.682,0.455m-276.241,-55.263c-0.455,-0.379 -4.548,-3.488 -13.342,-3.488c-2.274,0 -4.624,0.228 -6.899,0.607c-1.667,-11.599 -11.295,-17.208 -11.674,-17.512l-2.35,-1.364l-1.516,2.198c-1.895,2.957 -3.335,6.292 -4.169,9.704c-1.592,6.595 -0.607,12.811 2.729,18.118c-4.018,2.274 -10.537,2.804 -11.902,2.88l-107.646,0c-2.805,0 -5.079,2.274 -5.079,5.079c-0.152,9.4 1.44,18.8 4.7,27.67c3.714,9.703 9.248,16.905 16.374,21.302c8.036,4.927 21.15,7.732 35.933,7.732c6.671,-0 13.342,-0.607 19.937,-1.819c9.173,-1.668 17.966,-4.852 26.078,-9.476c6.671,-3.866 12.659,-8.794 17.739,-14.555c8.566,-9.628 13.645,-20.392 17.359,-29.944l1.517,-0c9.324,-0 15.085,-3.715 18.269,-6.898c2.123,-1.971 3.715,-4.397 4.852,-7.126l0.682,-1.971l-1.592,-1.137Z" style="fill:#0091e2;fill-rule:nonzero;"/><path d="M23.928,59.144l14.403,0c0.682,0 1.289,-0.531 1.289,-1.289l-0,-12.887c-0,-0.682 -0.531,-1.289 -1.289,-1.289l-14.403,0c-0.683,0 -1.289,0.531 -1.289,1.289l-0,12.887c0.076,0.758 0.606,1.289 1.289,1.289Zm19.861,0l14.403,0c0.683,0 1.289,-0.531 1.289,-1.289l0,-12.887c0,-0.682 -0.531,-1.289 -1.289,-1.289l-14.403,0c-0.682,0 -1.289,0.531 -1.289,1.289l0,12.887c0.076,0.758 0.607,1.289 1.289,1.289m20.24,0l14.404,0c0.682,0 1.289,-0.531 1.289,-1.289l-0,-12.887c-0,-0.682 -0.531,-1.289 -1.289,-1.289l-14.404,0c-0.682,0 -1.288,0.531 -1.288,1.289l-0,12.887c-0,0.758 0.53,1.289 1.288,1.289Zm19.938,0l14.403,0c0.682,0 1.289,-0.531 1.289,-1.289l-0,-12.887c-0,-0.682 -0.531,-1.289 -1.289,-1.289l-14.403,0c-0.683,0 -1.289,0.531 -1.289,1.289l-0,12.887c-0,0.758 0.606,1.289 1.289,1.289Zm-40.178,-18.421l14.403,-0c0.683,-0 1.289,-0.606 1.289,-1.289l0,-12.887c0,-0.682 -0.531,-1.289 -1.289,-1.289l-14.403,0c-0.682,0 -1.289,0.531 -1.289,1.289l0,12.887c0.076,0.683 0.607,1.289 1.289,1.289m20.24,-0l14.404,-0c0.682,-0 1.289,-0.606 1.289,-1.289l-0,-12.887c-0,-0.682 -0.531,-1.289 -1.289,-1.289l-14.404,0c-0.682,0 -1.288,0.531 -1.288,1.289l-0,12.887c-0,0.683 0.53,1.289 1.288,1.289m19.938,-0l14.403,-0c0.682,-0 1.289,-0.606 1.289,-1.289l-0,-12.887c-0,-0.682 -0.607,-1.289 -1.289,-1.289l-14.403,0c-0.683,0 -1.289,0.531 -1.289,1.289l-0,12.887c-0,0.683 0.606,1.289 1.289,1.289m-0,-18.497l14.403,0c0.682,0 1.289,-0.531 1.289,-1.289l-0,-12.887c-0,-0.682 -0.607,-1.289 -1.289,-1.289l-14.403,0c-0.683,0 -1.289,0.531 -1.289,1.289l-0,12.887c-0,0.683 0.606,1.289 1.289,1.289m20.089,36.918l14.403,0c0.682,0 1.289,-0.531 1.289,-1.289l-0,-12.887c-0,-0.682 -0.531,-1.289 -1.289,-1.289l-14.403,0c-0.683,0 -1.289,0.531 -1.289,1.289l-0,12.887c0.076,0.758 0.606,1.289 1.289,1.289" style="fill:#0091e2;fill-rule:nonzero;"/></g><g id="centos"><g id="g12804"></g><g id="g12770"></g><g id="g12780"></g><g id="g12792"></g><g id="g12742"><rect id="rect12744" x="112.911" y="111.437" width="31.752" height="31.752" style="fill:#9ccd2a;fill-rule:nonzero;stroke:#fff;stroke-width:2.27px;"/><rect id="rect12746" x="151.467" y="111.437" width="31.752" height="31.752" style="fill:#932279;fill-rule:nonzero;stroke:#fff;stroke-width:2.27px;"/><rect id="rect12748" x="151.467" y="149.994" width="31.752" height="31.752" style="fill:#efa724;fill-rule:nonzero;stroke:#fff;stroke-width:2.27px;"/><rect id="rect12750" x="112.911" y="149.994" width="31.752" height="31.752" style="fill:#262577;fill-rule:nonzero;stroke:#fff;stroke-width:2.27px;"/></g><path id="rect12760" d="M98.349,146.592l22.453,-22.453l22.452,22.453l-22.452,22.452l-22.453,-22.452Z" style="fill:none;fill-rule:nonzero;stroke:#fff;stroke-width:2.27px;"/><path id="rect12762" d="M125.613,119.328l22.452,-22.452l22.452,22.452l-22.452,22.452l-22.452,-22.452Z" style="fill:none;fill-rule:nonzero;stroke:#fff;stroke-width:2.27px;"/><path id="rect12764" d="M152.876,146.592l22.452,-22.453l22.452,22.453l-22.452,22.452l-22.452,-22.452Z" style="fill:none;fill-rule:nonzero;stroke:#fff;stroke-width:2.27px;"/><path id="rect12766" d="M125.613,173.855l22.452,-22.452l22.452,22.452l-22.452,22.452l-22.452,-22.452Z" style="fill:none;fill-rule:nonzero;stroke:#fff;stroke-width:2.27px;"/></g></svg>