<?xml version="1.0" encoding="UTF-8" standalone="no"?><!DOCTYPE svg PUBLIC "-//W3C//DTD SVG 1.1//EN" "http://www.w3.org/Graphics/SVG/1.1/DTD/svg11.dtd"><svg width="100%" height="100%" viewBox="0 0 100 100" version="1.1" xmlns="http://www.w3.org/2000/svg" xmlns:xlink="http://www.w3.org/1999/xlink" xml:space="preserve" xmlns:serif="http://www.serif.com/" style="fill-rule:evenodd;clip-rule:evenodd;stroke-linejoin:round;stroke-miterlimit:2;"><g id="clamav"><path d="M21.465,50.908c-0,-15.99 12.963,-28.952 28.952,-28.952c15.989,0 28.952,12.962 28.952,28.952c-0,15.99 -12.963,28.952 -28.952,28.952c-15.988,-0 -28.952,-12.961 -28.952,-28.952Z" style="fill:url(#_Radial1);fill-rule:nonzero;"/><path d="M29.383,58.455c-0.483,-3.06 0.744,-5.197 1.96,-6.39c0.552,-0.54 1.204,-1.036 1.79,-1.015c0.866,-0.067 5.382,3.224 11.415,6.9c3.139,2.27 4.608,2.545 4.599,3.549l-0,-0.158c-0.396,2.522 -2.469,5.577 -5.346,6.289c-6.925,2.093 -12.98,-2.244 -14.418,-9.175Z" style="fill:#232323;fill-rule:nonzero;"/><path d="M50.416,80.126c-7.804,-0 -15.142,-3.039 -20.661,-8.558c-5.519,-5.519 -8.559,-12.856 -8.559,-20.661c0,-7.804 3.04,-15.142 8.559,-20.661c5.518,-5.519 12.856,-8.559 20.661,-8.559c7.805,0 15.142,3.039 20.661,8.559c5.519,5.518 8.558,12.855 8.558,20.661c0,7.805 -3.039,15.143 -8.558,20.661c-5.519,5.519 -12.856,8.558 -20.661,8.558Zm0,-57.904c-15.817,0 -28.684,12.868 -28.684,28.685c-0,15.817 12.867,28.684 28.684,28.684c7.662,0 14.865,-2.983 20.283,-8.401c5.417,-5.418 8.402,-12.621 8.402,-20.283c-0,-15.817 -12.869,-28.685 -28.685,-28.685l0,0Z" style="fill:#232323;fill-rule:nonzero;"/><path d="M71.45,58.455c0.484,-3.06 -0.744,-5.197 -1.959,-6.39c-0.552,-0.54 -1.204,-1.036 -1.79,-1.015c-0.866,-0.067 -5.382,3.224 -11.415,6.9c-3.139,2.27 -4.607,2.545 -4.599,3.549l0,-0.158c0.395,2.522 2.469,5.577 5.346,6.289c6.924,2.093 12.979,-2.244 14.417,-9.175Z" style="fill:#232323;fill-rule:nonzero;"/><path d="M52.564,60.646c-0.506,0.272 -0.605,0.515 -0.445,1.058c0.42,1.436 1.04,2.568 1.836,3.437c1.926,2.104 4.876,2.669 8.483,2.271c3.075,-0.498 4.57,-1.438 6.864,-4.29c1.009,-2.006 2.339,-4.869 0.828,-8.199c-0.421,-0.927 -1.077,-1.687 -1.845,-2.351c-0.285,-0.246 -0.514,-0.258 -0.842,-0.076c-1.405,0.785 -12.121,6.668 -14.877,8.149l-0.002,0l0,0.001Z" style="fill:#fff;fill-rule:nonzero;"/><path d="M62.642,64.324c-4.932,1.442 -9.56,-0.363 -9.56,-0.363c0,-0 2.166,3.843 7.48,3.817c6.113,-0.471 8.486,-3.861 9.539,-6.073c1.051,-2.212 0.768,-4.253 0.598,-5.03c-0.17,-0.78 -0.815,5.573 -8.057,7.649Z" style="fill:#dadada;fill-rule:nonzero;"/><path d="M48.333,60.646c0.506,0.272 0.605,0.515 0.446,1.058c-0.42,1.436 -1.04,2.568 -1.836,3.437c-1.926,2.104 -4.875,2.669 -8.483,2.271c-3.074,-0.498 -4.569,-1.438 -6.863,-4.29c-1.01,-2.006 -2.34,-4.869 -0.829,-8.199c0.421,-0.927 1.077,-1.687 1.846,-2.351c0.285,-0.246 0.513,-0.258 0.841,-0.076c1.406,0.785 12.121,6.668 14.878,8.149l0,0l0,0.001Z" style="fill:#fff;fill-rule:nonzero;"/><path d="M38.257,64.324c4.932,1.442 9.559,-0.363 9.559,-0.363c0,-0 -2.165,3.843 -7.479,3.817c-6.113,-0.471 -8.486,-3.861 -9.538,-6.073c-1.052,-2.212 -0.769,-4.253 -0.599,-5.03c0.17,-0.78 0.816,5.573 8.057,7.649Z" style="fill:#dadada;fill-rule:nonzero;"/><path d="M62.1,60.756c0.619,2.841 0.528,6.303 0.528,6.303c0.004,0.177 0.004,0.177 0.126,0.573c0.902,-1.704 1.405,-3.498 1.595,-5.38c0.244,-2.427 -0.113,-4.43 -1.257,-7.374c-0.761,-1.387 -1.523,-2.761 -2.596,-3.955c-1.625,-1.808 -2.325,-1.264 -4.195,-0.229c-0.181,0.137 -0.55,0.5 -0.55,0.5c2.042,1.303 4.916,3.393 6.349,9.562Z" style="fill:#020202;fill-rule:nonzero;"/><path d="M32.902,40.573c0.879,-0.556 1.826,-1.566 2.379,-3.227c0.839,-2.676 0.146,-3.946 0.146,-3.946c-0,-0 -0.747,0.583 -2.67,0.021c-2.003,-0.585 -2.905,-0.685 -6.464,-4.159c-4.154,-4.23 -6.132,-8.862 -6.132,-8.862c-0,-0 -0,1.206 0.162,2.413c0,-0 0.873,5.299 4.629,10.122c2.442,3.136 4.97,5.133 6.103,5.835c1.358,0.841 1.847,1.036 1.847,1.803" style="fill:#e03a36;fill-rule:nonzero;"/><path d="M20.324,22.813c-0.078,-0.803 -0.132,-1.607 -0.162,-2.413c2.381,5.16 6.404,9.729 9.78,11.936c0.875,0.571 1.948,0.867 2.816,1.086c1.914,0.482 2.656,0.084 2.828,-0.198c0.157,-0.259 0.124,-0.608 -0.099,-1.04c-0.287,-0.554 -0.814,-0.823 -1.612,-0.823c-0.636,0 -1.365,0.176 -2.01,0.325c-1.366,0.316 -1.537,0.149 -1.537,0.149c-2.965,-1.934 -7.11,-5.666 -10.04,-12.465c-0.185,-0.429 -0.241,-0.557 -0.467,-0.511c-0.226,0.045 -0.217,0.272 -0.217,0.272c-0.314,3.241 0.557,12.364 5.439,19.36c0.327,0.468 0.596,0.835 0.716,1.171c0.417,1.163 -0.291,2.408 -0.291,2.408c-0.863,1.73 -0.218,5.658 1.457,5.79c0.971,0.076 1.568,-1.472 2.028,-2.188c0.459,-0.716 2.076,-2.57 3.07,-3.647c0.994,-1.077 1.268,-1.812 0.209,-2.551c-0.624,-0.437 -1.176,-0.704 -1.176,-0.704c0,-0 -3.081,-1.869 -6.207,-5.964c-3.652,-4.784 -4.525,-9.993 -4.525,-9.993Z" style="fill:#232323;fill-rule:nonzero;"/><path d="M67.803,40.573c-0.879,-0.556 -1.825,-1.566 -2.379,-3.227c-0.839,-2.676 -0.146,-3.946 -0.146,-3.946c0,-0 0.748,0.583 2.67,0.021c2.003,-0.585 2.906,-0.685 6.464,-4.159c4.155,-4.23 6.133,-8.862 6.133,-8.862c-0,0 -0,1.206 -0.162,2.413c-0,-0 -0.874,5.3 -4.629,10.122c-2.443,3.136 -4.971,5.133 -6.104,5.835c-1.358,0.841 -1.847,1.036 -1.847,1.803" style="fill:#e03a36;fill-rule:nonzero;"/><path d="M80.382,22.813c0.078,-0.803 0.132,-1.607 0.161,-2.413c-2.381,5.16 -6.404,9.729 -9.78,11.936c-0.875,0.571 -1.948,0.867 -2.815,1.086c-1.915,0.482 -2.657,0.084 -2.829,-0.198c-0.157,-0.259 -0.124,-0.608 0.099,-1.04c0.286,-0.554 0.814,-0.823 1.612,-0.823c0.636,0 1.365,0.176 2.01,0.325c1.366,0.316 1.537,0.149 1.537,0.149c2.965,-1.934 7.11,-5.666 10.04,-12.465c0.185,-0.428 0.241,-0.557 0.467,-0.511c0.226,0.045 0.217,0.272 0.217,0.272c0.313,3.242 -0.558,12.364 -5.439,19.361c-0.327,0.467 -0.597,0.834 -0.717,1.17c-0.416,1.164 0.293,2.408 0.293,2.408c0.862,1.731 0.217,5.658 -1.457,5.79c-0.972,0.077 -1.569,-1.472 -2.028,-2.188c-0.459,-0.716 -2.076,-2.569 -3.071,-3.646c-0.994,-1.077 -1.268,-1.812 -0.208,-2.552c0.624,-0.437 1.175,-0.704 1.175,-0.704c0,-0 3.082,-1.869 6.207,-5.964c3.652,-4.784 4.526,-9.993 4.526,-9.993Z" style="fill:#232323;fill-rule:nonzero;"/><path d="M38.732,60.756c-0.618,2.841 -0.528,6.303 -0.528,6.303c-0.003,0.177 -0.003,0.177 -0.125,0.573c-0.902,-1.704 -1.405,-3.498 -1.595,-5.38c-0.244,-2.427 0.113,-4.43 1.257,-7.374c0.761,-1.387 1.523,-2.761 2.596,-3.955c1.626,-1.808 2.326,-1.264 4.196,-0.229c0.181,0.137 0.55,0.5 0.55,0.5c-2.043,1.303 -4.918,3.393 -6.351,9.562Z" style="fill:#020202;fill-rule:nonzero;"/></g><defs><radialGradient id="_Radial1" cx="0" cy="0" r="1" gradientUnits="userSpaceOnUse" gradientTransform="matrix(29.4531,0,0,29.4531,50.3896,49.4221)"><stop offset="0" style="stop-color:#e03c3b;stop-opacity:1"/><stop offset="0.2" style="stop-color:#e03c3b;stop-opacity:1"/><stop offset="0.65" style="stop-color:#e03c3b;stop-opacity:1"/><stop offset="0.72" style="stop-color:#dd3c3b;stop-opacity:1"/><stop offset="0.78" style="stop-color:#d33b3a;stop-opacity:1"/><stop offset="0.82" style="stop-color:#c33938;stop-opacity:1"/><stop offset="0.87" style="stop-color:#ac3736;stop-opacity:1"/><stop offset="0.91" style="stop-color:#8e3434;stop-opacity:1"/><stop offset="0.95" style="stop-color:#6a3030;stop-opacity:1"/><stop offset="0.99" style="stop-color:#3f2c2c;stop-opacity:1"/><stop offset="1" style="stop-color:#2f2a2b;stop-opacity:1"/></radialGradient></defs></svg>