<?xml version="1.0" encoding="UTF-8" standalone="no"?>
<!DOCTYPE svg PUBLIC "-//W3C//DTD SVG 1.1//EN" "http://www.w3.org/Graphics/SVG/1.1/DTD/svg11.dtd">
<svg width="100%" height="100%" viewBox="0 0 800 800" version="1.1" xmlns="http://www.w3.org/2000/svg" xmlns:xlink="http://www.w3.org/1999/xlink" xml:space="preserve" xmlns:serif="http://www.serif.com/" style="fill-rule:evenodd;clip-rule:evenodd;stroke-linejoin:round;stroke-miterlimit:2;">
    <path d="M75.375,577.175C68.15,588.975 60.025,602.675 53.1,613.575C46.975,623.967 50.335,637.54 60.6,643.875L205.4,732.975C208.917,735.151 212.971,736.304 217.107,736.304C224.821,736.304 232.004,732.292 236.05,725.725L236.25,725.4C242.025,715.725 249.5,703.125 257.625,689.65C314.975,594.975 372.625,606.575 476.7,656.25L620.275,724.525C623.27,725.952 626.546,726.692 629.864,726.692C638.453,726.692 646.309,721.73 650,713.975L650.275,713.375L719.15,557.5C723.988,546.44 718.999,533.356 708.025,528.325C677.725,514.075 617.475,485.65 563.225,459.475C368.1,364.65 202.25,370.775 75.375,577.175Z" style="fill:url(#_Linear1);fill-rule:nonzero;"/>
    <path d="M724.625,223.3C731.85,211.5 739.975,197.8 746.9,186.9C753.025,176.508 749.665,162.935 739.4,156.6L594.625,67.5C590.95,65.022 586.617,63.697 582.185,63.697C574.786,63.697 567.855,67.387 563.725,73.525C563.427,73.952 563.151,74.394 562.9,74.85C557.1,84.525 549.65,97.125 541.5,110.6C484.15,205.275 426.5,193.675 322.425,144L179.3,76.075C176.308,74.647 173.034,73.906 169.718,73.906C161.147,73.906 153.306,78.859 149.625,86.6L149.35,87.2L80.4,243.15C75.562,254.21 80.551,267.294 91.525,272.325C121.825,286.575 182.075,314.975 236.325,341.15C431.9,435.825 597.75,429.475 724.625,223.3Z" style="fill:url(#_Linear2);fill-rule:nonzero;"/>
    <defs>
        <linearGradient id="_Linear1" x1="0" y1="0" x2="1" y2="0" gradientUnits="userSpaceOnUse" gradientTransform="matrix(-438.05,-251.725,251.725,-438.05,715.175,779.125)"><stop offset="0" style="stop-color:rgb(0,82,204);stop-opacity:1"/><stop offset="0.18" style="stop-color:rgb(0,82,204);stop-opacity:1"/><stop offset="1" style="stop-color:rgb(38,132,255);stop-opacity:1"/></linearGradient>
        <linearGradient id="_Linear2" x1="0" y1="0" x2="1" y2="0" gradientUnits="userSpaceOnUse" gradientTransform="matrix(11767.8,3387.23,-3387.23,11767.8,1.00707e+07,-1.46613e+07)"><stop offset="0" style="stop-color:rgb(0,82,204);stop-opacity:1"/><stop offset="0.18" style="stop-color:rgb(0,82,204);stop-opacity:1"/><stop offset="1" style="stop-color:rgb(38,132,255);stop-opacity:1"/></linearGradient>
    </defs>
</svg>
