<?xml version="1.0" encoding="UTF-8" standalone="no"?>
<!DOCTYPE svg PUBLIC "-//W3C//DTD SVG 1.1//EN" "http://www.w3.org/Graphics/SVG/1.1/DTD/svg11.dtd">
<svg width="100%" height="100%" viewBox="0 0 450 450" version="1.1" xmlns="http://www.w3.org/2000/svg" xmlns:xlink="http://www.w3.org/1999/xlink" xml:space="preserve" xmlns:serif="http://www.serif.com/" style="fill-rule:evenodd;clip-rule:evenodd;stroke-linejoin:round;stroke-miterlimit:2;">
    <g transform="matrix(1,0,0,1,0,35.5)">
        <g transform="matrix(1,0,0,1,13.4459,-4.67531)">
            <path d="M298.288,254.094C293.036,243.591 286.735,233.088 279.382,222.322C274.131,214.707 268.617,207.093 262.577,199.741C260.214,196.852 261.265,193.176 263.103,191.338L268.617,185.824C293.824,160.091 319.819,133.571 339.775,104.95C361.044,74.491 372.86,45.608 375.748,15.674C376.011,12.785 374.698,9.634 372.335,7.796C370.759,6.484 368.921,5.958 366.821,5.958C365.77,5.958 364.72,6.221 363.67,6.484C344.239,13.836 324.808,19.612 306.69,23.551C303.014,24.339 300.126,27.227 298.813,30.378C285.684,66.089 252.337,100.224 217.414,135.934C216.101,137.247 214.001,139.085 210.85,139.085C207.699,139.085 205.598,137.51 204.285,135.934C169.362,100.224 136.015,66.351 122.886,30.378C121.573,27.227 118.685,24.339 115.009,23.551C97.154,19.35 77.46,13.311 58.03,5.958C56.979,5.433 55.929,5.433 54.879,5.433C53.041,5.433 50.94,5.958 49.365,7.271C47.001,9.109 45.688,12.26 45.951,15.149C48.839,44.82 60.655,74.228 81.924,104.687C101.88,133.308 127.875,159.829 153.083,185.561C199.559,232.825 243.147,277.463 247.085,329.191C247.362,333.889 251.308,337.602 256.013,337.594L310.367,337.594C312.73,337.594 315.093,336.543 316.931,334.705C318.506,332.867 319.557,330.504 319.294,328.141C318.769,318.426 317.456,308.71 315.093,298.732L315.093,297.944C315.093,295.844 316.668,294.268 318.769,294.268L319.294,294.268C363.67,300.833 391.766,311.073 392.028,322.627C392.028,333.392 366.821,349.672 325.596,361.751C321.92,362.801 319.294,366.215 319.294,369.891C319.294,374.617 323.233,378.556 327.959,378.556C328.747,378.556 329.272,378.556 329.797,378.293C384.939,365.427 421.699,344.158 421.699,319.738C421.437,291.38 372.072,265.91 298.288,254.094ZM152.295,226.261C151.245,225.211 148.881,223.635 145.993,223.635C142.054,223.635 139.429,226.261 138.641,227.574C132.602,236.501 127.613,245.429 123.149,254.357C49.365,265.91 0,291.643 0,320.264C0,344.421 36.236,365.952 91.64,378.818C92.165,379.081 92.952,379.081 93.74,379.081C98.467,379.081 102.405,375.142 102.405,370.416C102.405,366.477 99.779,363.326 96.103,362.276C55.141,350.197 29.934,333.918 29.934,323.152C29.934,311.599 58.03,301.358 102.405,294.794L102.93,294.794C105.031,294.794 106.606,296.369 106.606,298.47L106.606,299.257C104.243,308.973 102.93,318.688 102.405,328.403C102.405,330.767 103.193,333.392 104.768,334.968C106.344,336.806 108.707,337.856 111.333,337.856L165.424,337.856C170.15,337.856 174.089,334.18 174.351,329.454C175.664,313.437 180.391,297.682 189.581,280.877C192.732,275.1 190.369,269.586 188.531,267.223C179.603,255.67 168.575,243.066 152.295,226.261Z" style="fill:rgb(32,80,129);fill-rule:nonzero;"/>
        </g>
        <g transform="matrix(1,0,0,1,13.4459,-4.67531)">
            <path d="M204.548,91.559C206.648,93.659 209.012,93.922 210.85,93.922C212.425,93.922 215.051,93.659 217.152,91.559C236.32,72.916 246.56,51.122 248.923,45.082C249.186,44.295 249.711,43.244 249.711,41.669C249.711,36.942 245.773,33.266 241.571,33.266C238.158,33.266 228.18,34.317 211.112,34.317C194.045,34.317 184.067,33.266 180.653,33.266C176.452,33.266 172.513,36.68 172.513,41.669C172.513,42.982 172.776,44.032 173.301,45.082C174.877,51.122 185.38,72.916 204.548,91.559Z" style="fill:rgb(32,80,129);fill-rule:nonzero;"/>
        </g>
    </g>
</svg>
