<?xml version="1.0" encoding="UTF-8" standalone="no"?>
<!DOCTYPE svg PUBLIC "-//W3C//DTD SVG 1.1//EN" "http://www.w3.org/Graphics/SVG/1.1/DTD/svg11.dtd">
<svg width="100%" height="100%" viewBox="0 0 237 237" version="1.1" xmlns="http://www.w3.org/2000/svg" xmlns:xlink="http://www.w3.org/1999/xlink" xml:space="preserve" xmlns:serif="http://www.serif.com/" style="fill-rule:evenodd;clip-rule:evenodd;stroke-linejoin:round;stroke-miterlimit:1.41421;">
    <g id="DE-ID">
        <rect x="11.187" y="83.916" width="215.164" height="54.132" style="fill:rgb(255,123,64);"/>
        <g transform="matrix(1,0,0,1,1,0)">
            <path d="M35.217,99.973L44.293,99.973C46.34,99.973 47.9,100.13 48.974,100.443C50.417,100.868 51.653,101.623 52.682,102.708C53.711,103.793 54.494,105.121 55.03,106.693C55.567,108.264 55.836,110.202 55.836,112.506C55.836,114.53 55.584,116.275 55.081,117.74C54.466,119.53 53.588,120.978 52.447,122.085C51.586,122.924 50.422,123.579 48.957,124.048C47.861,124.395 46.396,124.568 44.562,124.568L35.217,124.568L35.217,99.973ZM40.183,104.134L40.183,120.425L43.89,120.425C45.277,120.425 46.278,120.346 46.894,120.19C47.699,119.988 48.367,119.647 48.898,119.166C49.43,118.685 49.863,117.894 50.199,116.792C50.534,115.691 50.702,114.189 50.702,112.288C50.702,110.386 50.534,108.927 50.199,107.909C49.863,106.891 49.393,106.097 48.789,105.527C48.185,104.956 47.419,104.57 46.491,104.369C45.797,104.212 44.439,104.134 42.414,104.134L40.183,104.134Z" style="fill:white;fill-rule:nonzero;"/>
            <path d="M60.047,124.568L60.047,99.973L78.283,99.973L78.283,104.134L65.013,104.134L65.013,109.587L77.361,109.587L77.361,113.731L65.013,113.731L65.013,120.425L78.753,120.425L78.753,124.568L60.047,124.568Z" style="fill:white;fill-rule:nonzero;"/>
            <rect x="82.394" y="113.294" width="9.261" height="4.714" style="fill:white;fill-rule:nonzero;"/>
            <rect x="94.255" y="99.973" width="4.966" height="24.595" style="fill:white;fill-rule:nonzero;"/>
            <path d="M113.481,99.973L122.558,99.973C124.604,99.973 126.165,100.13 127.238,100.443C128.681,100.868 129.917,101.623 130.946,102.708C131.975,103.793 132.758,105.121 133.295,106.693C133.832,108.264 134.1,110.202 134.1,112.506C134.1,114.53 133.848,116.275 133.345,117.74C132.73,119.53 131.852,120.978 130.711,122.085C129.85,122.924 128.687,123.579 127.222,124.048C126.126,124.395 124.66,124.568 122.826,124.568L113.481,124.568L113.481,99.973ZM118.447,104.134L118.447,120.425L122.155,120.425C123.542,120.425 124.543,120.346 125.158,120.19C125.963,119.988 126.632,119.647 127.163,119.166C127.694,118.685 128.128,117.894 128.463,116.792C128.799,115.691 128.966,114.189 128.966,112.288C128.966,110.386 128.799,108.927 128.463,107.909C128.128,106.891 127.658,106.097 127.054,105.527C126.45,104.956 125.684,104.57 124.755,104.369C124.062,104.212 122.703,104.134 120.679,104.134L118.447,104.134Z" style="fill:white;fill-rule:nonzero;"/>
            <path d="M160.49,124.568L155.088,124.568L152.941,118.982L143.109,118.982L141.079,124.568L135.811,124.568L145.391,99.973L150.642,99.973L160.49,124.568ZM151.347,114.838L147.958,105.711L144.636,114.838L151.347,114.838Z" style="fill:rgb(15,89,152);fill-rule:nonzero;"/>
            <path d="M166.111,124.568L166.111,104.134L158.813,104.134L158.813,99.973L178.358,99.973L178.358,104.134L171.077,104.134L171.077,124.568L166.111,124.568Z" style="fill:rgb(15,89,152);fill-rule:nonzero;"/>
            <path d="M203.741,124.568L198.339,124.568L196.192,118.982L186.36,118.982L184.33,124.568L179.062,124.568L188.642,99.973L193.893,99.973L203.741,124.568ZM194.598,114.838L191.209,105.711L187.887,114.838L194.598,114.838Z" style="fill:rgb(15,89,152);fill-rule:nonzero;"/>
        </g>
        <rect x="106.895" y="57.273" width="4.559" height="122.997" style="fill:rgb(15,89,152);"/>
    </g>
</svg>
