<?xml version="1.0" encoding="UTF-8" standalone="no"?><!DOCTYPE svg PUBLIC "-//W3C//DTD SVG 1.1//EN" "http://www.w3.org/Graphics/SVG/1.1/DTD/svg11.dtd"><svg width="100%" height="100%" viewBox="0 0 2500 2500" version="1.1" xmlns="http://www.w3.org/2000/svg" xmlns:xlink="http://www.w3.org/1999/xlink" xml:space="preserve" xmlns:serif="http://www.serif.com/" style="fill-rule:evenodd;clip-rule:evenodd;stroke-linejoin:round;stroke-miterlimit:2;"><g><path d="M6294.74,1834.63c5.331,-1.066 8.529,-5.331 8.529,-10.661c0,-4.265 -1.066,-7.464 -4.265,-9.596c-4.264,-2.132 -9.595,-3.198 -14.926,-3.198c-5.331,-0 -11.728,-0 -17.058,1.066l-0,43.712l9.595,0l0,-17.058l4.265,-0c5.331,-0 8.529,2.132 9.595,6.397c1.066,3.198 2.132,7.463 3.199,10.661l10.661,0c-2.132,-3.198 -3.198,-7.463 -3.198,-10.661c1.066,-4.265 -2.133,-8.53 -6.397,-10.662m-12.794,-3.198l-5.331,-0l0,-12.794l5.331,-0c6.397,-0 9.595,3.198 9.595,6.397c1.066,4.264 -4.264,7.463 -9.595,6.397m-3885.09,-777.231c-6.397,-5.331 -63.97,-49.044 -187.644,-49.044c-31.985,0 -65.036,3.199 -97.021,8.53c-23.455,-163.123 -158.858,-242.019 -164.189,-246.283l-33.051,-19.191l-21.323,30.918c-26.654,41.581 -46.911,88.492 -58.639,136.469c-22.389,92.756 -8.529,180.181 38.382,254.812c-56.506,31.985 -148.196,39.448 -167.387,40.514l-1513.95,0c-39.448,0 -71.432,31.985 -71.432,71.433c-2.133,132.204 20.257,264.408 66.102,389.149c52.241,136.468 130.071,237.753 230.29,299.591c113.013,69.3 297.459,108.748 505.36,108.748c93.822,0 187.644,-8.529 280.4,-25.588c129.006,-23.455 252.68,-68.234 366.759,-133.27c93.823,-54.374 178.049,-123.674 249.482,-204.703c120.476,-135.402 191.909,-286.797 244.151,-421.133l21.323,0c131.138,0 212.166,-52.242 256.945,-97.021c29.852,-27.72 52.241,-61.837 68.234,-100.219l9.595,-27.72l-22.389,-15.992Z" style="fill:#0091e2;fill-rule:nonzero;"/><path d="M332.777,1167.22l202.57,-0c9.595,-0 18.125,-7.463 18.125,-18.125l-0,-181.247c-0,-9.596 -7.463,-18.125 -18.125,-18.125l-202.57,0c-9.596,0 -18.125,7.463 -18.125,18.125l-0,181.247c1.066,10.662 8.529,18.125 18.125,18.125Zm279.334,-0l202.57,-0c9.595,-0 18.125,-7.463 18.125,-18.125l-0,-181.247c-0,-9.596 -7.463,-18.125 -18.125,-18.125l-202.57,0c-9.596,0 -18.125,7.463 -18.125,18.125l-0,181.247c1.066,10.662 8.529,18.125 18.125,18.125m284.664,-0l202.571,-0c9.595,-0 18.125,-7.463 18.125,-18.125l-0,-181.247c-0,-9.596 -7.464,-18.125 -18.125,-18.125l-202.571,0c-9.595,0 -18.124,7.463 -18.124,18.125l-0,181.247c-0,10.662 7.463,18.125 18.124,18.125Zm280.401,-0l202.57,-0c9.595,-0 18.125,-7.463 18.125,-18.125l-0,-181.247c-0,-9.596 -7.463,-18.125 -18.125,-18.125l-202.57,0c-9.596,0 -18.125,7.463 -18.125,18.125l-0,181.247c-0,10.662 8.529,18.125 18.125,18.125Zm-565.065,-259.077l202.57,-0c9.595,-0 18.125,-8.529 18.125,-18.125l-0,-181.247c-0,-9.596 -7.463,-18.125 -18.125,-18.125l-202.57,0c-9.596,0 -18.125,7.463 -18.125,18.125l-0,181.247c1.066,9.596 8.529,18.125 18.125,18.125m284.664,-0l202.571,-0c9.595,-0 18.125,-8.529 18.125,-18.125l-0,-181.247c-0,-9.596 -7.464,-18.125 -18.125,-18.125l-202.571,0c-9.595,0 -18.124,7.463 -18.124,18.125l-0,181.247c-0,9.596 7.463,18.125 18.124,18.125m280.401,-0l202.57,-0c9.595,-0 18.125,-8.529 18.125,-18.125l-0,-181.247c-0,-9.596 -8.53,-18.125 -18.125,-18.125l-202.57,0c-9.596,0 -18.125,7.463 -18.125,18.125l-0,181.247c-0,9.596 8.529,18.125 18.125,18.125m-0,-260.143l202.57,-0c9.595,-0 18.125,-7.463 18.125,-18.125l-0,-181.247c-0,-9.596 -8.53,-18.125 -18.125,-18.125l-202.57,0c-9.596,0 -18.125,7.463 -18.125,18.125l-0,181.247c-0,9.595 8.529,18.125 18.125,18.125m282.532,519.22l202.57,-0c9.596,-0 18.125,-7.463 18.125,-18.125l0,-181.247c0,-9.596 -7.463,-18.125 -18.125,-18.125l-202.57,0c-9.595,0 -18.125,7.463 -18.125,18.125l0,181.247c1.066,10.662 8.53,18.125 18.125,18.125" style="fill:#0091e2;fill-rule:nonzero;"/></g></svg>