<?xml version="1.0" encoding="UTF-8" standalone="no"?><!DOCTYPE svg PUBLIC "-//W3C//DTD SVG 1.1//EN" "http://www.w3.org/Graphics/SVG/1.1/DTD/svg11.dtd"><svg width="100%" height="100%" viewBox="0 0 2500 2500" version="1.1" xmlns="http://www.w3.org/2000/svg" xmlns:xlink="http://www.w3.org/1999/xlink" xml:space="preserve" xmlns:serif="http://www.serif.com/" style="fill-rule:evenodd;clip-rule:evenodd;stroke-linejoin:round;stroke-miterlimit:2;"><g id="docker"><path d="M377.119,1899.26l0,-159.785c0,-20.996 13.125,-37.862 34.863,-37.862l6.016,0c21.729,0 34.795,16.885 34.795,37.862l-0,336.396c-0,82.031 -40.527,147.305 -111.152,188.887c-32.35,19.166 -69.285,29.239 -106.885,29.15l-15.01,0c-82.051,0 -147.236,-40.556 -188.887,-111.133c-19.192,-32.344 -29.264,-69.294 -29.14,-106.904l-0,-14.99c-0,-82.061 40.547,-147.295 111.113,-188.955c32.343,-19.205 69.299,-29.281 106.914,-29.151l15.01,0c55.527,0 102.637,21.524 142.363,56.485Zm-299.736,169.101c-0,59.258 28.721,103.809 80.644,132.227c20.996,11.484 43.789,17.656 67.744,17.656c58.165,0 101.309,-27.441 131.065,-76.728c13.838,-22.93 20.283,-48.018 20.283,-74.688c0,-51.367 -24.316,-91.455 -65.713,-121.23c-25.097,-18.047 -53.349,-27.1 -84.16,-27.1c-63.398,0 -109.023,32.031 -136.406,88.926c-9.238,19.238 -13.457,39.658 -13.457,60.937Zm637.929,-225.586l10.489,0c87.676,0 154.355,42.53 196.611,119.063c16.895,30.615 25.938,64.033 25.938,99.043l-0,14.99c-0,82.031 -40.45,147.393 -111.182,188.897c-32.744,19.209 -68.916,29.14 -106.865,29.14l-14.991,0c-82.05,0 -147.255,-40.556 -188.886,-111.133c-19.202,-32.342 -29.284,-69.291 -29.17,-106.904l-0,-14.99c-0,-82.07 40.713,-147.09 111.103,-188.936c32.725,-19.443 68.926,-29.17 106.953,-29.17Zm-142.382,225.586c-0,57.52 28.222,99.834 76.806,129.59c22.813,13.965 47.94,20.293 74.59,20.293c56.836,0 98.848,-28.818 128.086,-76.787c13.945,-22.871 20.254,-47.998 20.254,-74.629c0,-53.486 -25.762,-94.346 -69.805,-123.955c-24.131,-16.24 -50.996,-24.375 -80.058,-24.375c-63.399,0 -109.024,32.031 -136.397,88.926c-9.258,19.238 -13.476,39.658 -13.476,60.937Zm690,-143.818c-11.426,-5.352 -32.813,-7.129 -45.157,-7.598c-63.222,-2.382 -108.964,33.223 -135.8,88.994c-9.268,19.239 -13.496,39.6 -13.496,60.889c-0,64.815 34.033,110.195 91.884,137.861c21.133,10.098 48.418,12.012 71.514,12.012c20.313,0 49.023,-12.441 67.051,-21.006l3.125,-1.484l13.994,-0l1.543,0.312c17.207,3.584 30.195,14.493 30.195,33.008l0,7.491c0,46.074 -84.199,56.621 -116.328,58.867c-113.379,7.842 -198.174,-54.424 -230.498,-162.569c-5.615,-18.779 -8.145,-37.431 -8.145,-57.002l0,-14.97c0,-82.061 40.723,-147.061 111.104,-188.867c32.725,-19.434 68.916,-29.2 106.934,-29.2l15,0c40.332,0 77.48,11.455 110.781,34.2l2.734,1.894l1.729,2.852c3.593,5.957 6.689,12.851 6.689,19.941l0,7.49c0,19.317 -14.453,29.707 -31.894,33.067l-1.446,0.254l-4.472,-0c-11.289,-0 -36.963,-11.69 -47.041,-16.436Zm245.449,51.24c29.394,-29.433 58.887,-58.808 88.721,-87.754c8.31,-8.076 39.785,-42.256 52.177,-42.256l13.555,0l1.543,0.323c17.266,3.584 30.195,14.511 30.195,33.066l0,7.481c0,12.656 -14.824,27.363 -22.998,36.025c-17.383,18.428 -35.683,36.25 -53.476,54.297l-91.426,92.812c39.365,39.454 78.691,78.936 117.734,118.692c10.829,10.973 21.575,22.028 32.237,33.164c3.759,3.955 9.306,8.877 12.461,14.355c3.388,5.137 5.468,10.928 5.468,17.11l0,7.812l-0.439,1.807c-4.248,17.265 -15.205,31.191 -34.336,31.191l-6.025,0c-12.52,0 -26.661,-14.16 -35.235,-22.256c-17.676,-16.66 -34.736,-34.179 -52.06,-51.201l-58.096,-57.031l-0,91.152c-0,20.996 -13.145,37.871 -34.854,37.871l-5.957,0c-21.738,0 -34.863,-16.875 -34.863,-37.871l0,-513.633c0,-20.996 13.135,-37.792 34.863,-37.792l5.957,-0c21.709,-0 34.854,16.796 34.854,37.792l-0,234.844Zm943.135,-130.01l7.519,0c22.696,0 37.842,15.293 37.842,37.862c0,31.328 -29.951,39.346 -55.859,39.346c-33.985,-0 -66.436,20.576 -89.864,43.652c-29.209,28.799 -41.992,65.683 -41.992,106.23l0,183.194c0,20.996 -13.115,37.851 -34.863,37.851l-5.977,0c-21.748,0 -34.853,-16.845 -34.853,-37.851l-0,-193.711c-0,-74.385 36.211,-135.108 96.582,-177.696c36.045,-25.439 77.334,-38.867 121.465,-38.867l-0,-0.01Zm-537.832,363.047c27.539,9.619 58.935,8.243 87.187,3.321c14.453,-6.143 51.406,-22.266 65,-19.903l2.119,0.362l1.953,0.957c8.301,4.023 16.221,9.716 20.459,18.164c9.903,19.795 5.147,39.697 -14.306,50.937l-6.475,3.74c-71.777,41.426 -148.125,35.684 -219.678,-3.007c-34.209,-18.496 -60.38,-45.948 -79.687,-79.414l-4.512,-7.823c-46.084,-79.804 -39.863,-163.75 12.11,-239.638c17.939,-26.231 41.386,-46.494 68.798,-62.344l10.371,-5.986c67.598,-39.024 140.049,-36.348 209.473,-2.1c37.334,18.418 67.578,45.869 88.418,81.973l3.75,6.504c15.137,26.23 -4.473,49.082 -24.717,64.707c-23.496,18.125 -47.216,39.941 -69.736,59.375c-50.215,43.349 -100.352,86.796 -150.527,130.175Zm-64.991,-45.644c56.153,-48.145 112.325,-96.338 168.33,-144.688c19.141,-16.504 40.127,-33.632 59.112,-50.986c-15.235,-19.199 -40.684,-33.037 -62.305,-41.289c-43.652,-16.631 -86.689,-11.045 -126.719,12.06c-52.392,30.254 -74.707,78.428 -72.754,138.379c0.782,23.614 7.129,46.368 19.659,66.455c4.414,7.081 9.345,13.731 14.677,20.069Zm-408.379,-1516.38l223.301,-0l0,228.271l112.901,0c52.148,0 105.771,-9.287 155.146,-26.015c24.268,-8.233 51.494,-19.678 75.43,-34.082c-31.524,-41.153 -47.617,-93.116 -52.344,-144.336c-6.445,-69.678 7.617,-160.362 54.766,-214.893l23.476,-27.148l27.969,22.49c70.42,56.572 129.648,135.635 140.088,225.762c84.795,-24.942 184.355,-19.043 259.092,24.091l30.664,17.696l-16.133,31.504c-63.213,123.359 -195.371,161.582 -324.57,154.814c-193.33,481.533 -614.239,709.502 -1124.58,709.502c-263.672,0 -505.567,-98.564 -643.321,-332.49l-2.256,-3.809l-20.068,-40.84c-46.562,-102.968 -62.031,-215.771 -51.543,-328.486l3.154,-33.76l190.957,0l0,-228.271l223.291,-0l0,-223.301l446.612,0l-0,-223.301l267.968,0l0,446.602" style="fill:#364548;"/><path d="M2163.77,731.25c14.97,-116.367 -72.11,-207.764 -126.114,-251.162c-62.236,71.953 -71.904,260.527 25.733,339.922c-54.493,48.398 -169.307,92.265 -286.875,92.265l-1431.1,0c-11.426,122.725 10.117,235.743 59.326,332.471l16.28,29.785c10.307,17.483 21.571,34.383 33.74,50.625c58.838,3.78 113.086,5.078 162.715,3.985l0.019,-0c97.53,-2.149 177.11,-13.672 237.422,-34.571c1.654,-0.514 3.376,-0.776 5.108,-0.776c9.434,0 17.197,7.763 17.197,17.197c0,7.109 -4.407,13.517 -11.045,16.06c-8.027,2.793 -16.387,5.39 -25.02,7.861l-0.029,0c-47.49,13.565 -98.418,22.686 -164.121,26.738c3.906,0.069 -4.063,0.586 -4.082,0.586c-2.236,0.147 -5.049,0.469 -7.295,0.586c-25.859,1.455 -53.77,1.758 -82.305,1.758c-31.211,0 -61.943,-0.586 -96.308,-2.344l-0.879,0.586c119.238,134.024 305.683,214.405 539.394,214.405c494.61,-0 914.141,-219.258 1099.92,-711.495c131.797,13.526 258.467,-20.087 316.084,-132.568c-91.777,-52.959 -209.804,-36.074 -277.763,-1.914" style="fill:#22a0c8;"/><path d="M2163.77,731.25c14.97,-116.367 -72.11,-207.764 -126.114,-251.162c-62.236,71.953 -71.904,260.527 25.733,339.922c-54.493,48.398 -169.307,92.265 -286.875,92.265l-1346.36,0c-5.84,187.95 63.906,330.616 187.305,416.866l0.029,-0c97.53,-2.149 177.11,-13.672 237.422,-34.571c1.654,-0.514 3.376,-0.776 5.108,-0.776c9.434,0 17.197,7.763 17.197,17.197c0,7.109 -4.407,13.517 -11.045,16.06c-8.027,2.793 -16.387,5.39 -25.02,7.861l-0.029,0c-47.49,13.565 -102.793,23.858 -168.496,27.91c-0.02,0 -1.592,-1.513 -1.611,-1.513c168.33,86.347 412.402,86.035 692.236,-21.455c313.769,-120.547 605.752,-350.196 809.473,-612.862c-3.067,1.387 -6.055,2.803 -8.955,4.258" style="fill:#37b1d9;"/><path d="M348.096,1061.39c8.886,65.742 28.125,127.295 56.64,183.359l16.28,29.785c10.306,17.484 21.57,34.384 33.74,50.625c58.848,3.78 113.096,5.078 162.734,3.985c97.53,-2.149 177.11,-13.672 237.422,-34.571c1.654,-0.514 3.376,-0.776 5.108,-0.776c9.434,0 17.197,7.763 17.197,17.197c0,7.109 -4.407,13.517 -11.045,16.06c-8.027,2.793 -16.387,5.39 -25.02,7.861l-0.029,0c-47.49,13.565 -102.5,23.272 -168.203,27.334c-2.256,0.137 -6.191,0.166 -8.467,0.293c-25.84,1.445 -53.467,2.334 -82.012,2.334c-31.201,0 -63.115,-0.596 -97.461,-2.344c119.239,134.024 306.836,214.698 540.547,214.698c423.438,-0 791.836,-160.723 1005.65,-515.84l-1683.09,-0" style="fill:#1b81a5;"/><path d="M443.037,1061.39c25.313,115.429 86.143,206.045 174.453,267.754c97.53,-2.149 177.11,-13.672 237.422,-34.571c1.654,-0.514 3.376,-0.776 5.108,-0.776c9.434,0 17.197,7.763 17.197,17.197c0,7.109 -4.407,13.517 -11.045,16.06c-8.027,2.793 -16.387,5.39 -25.02,7.861l-0.029,0c-47.49,13.565 -103.662,23.272 -169.375,27.334c168.32,86.328 411.689,85.088 691.504,-22.392c169.277,-65.04 332.197,-161.856 478.359,-278.467l-1398.57,-0" style="fill:#1d91b4;"/><path d="M539.648,684.014l193.536,-0l-0,193.535l-193.536,-0l0,-193.535Zm16.123,16.132l15.274,0l-0,161.28l-15.274,-0l0,-161.28Zm28.711,0l15.889,0l0,161.28l-15.879,-0l0,-161.28l-0.01,0Zm29.317,0l15.889,0l-0,161.28l-15.889,-0l-0,-161.28Zm29.336,0l15.879,0l-0,161.28l-15.879,-0l-0,-161.28Zm29.326,0l15.879,0l-0,161.28l-15.879,-0l-0,-161.28Zm29.316,0l15.284,0l-0,161.28l-15.284,-0l0,-161.28Zm61.162,-239.433l193.555,-0l0,193.525l-193.555,0l0,-193.525Zm16.143,16.133l15.264,-0l-0,161.269l-15.264,0l0,-161.269Zm28.711,-0l15.879,-0l-0,161.269l-15.869,0l-0,-161.269l-0.01,-0Zm29.316,-0l15.879,-0l0,161.269l-15.879,0l0,-161.269Zm29.327,-0l15.878,-0l0,161.269l-15.878,0l-0,-161.269Zm29.326,-0l15.888,-0l0,161.269l-15.888,0l-0,-161.269Zm29.316,-0l15.293,-0l0,161.269l-15.293,0l0,-161.269Z" style="fill:#23a3c2;"/><path d="M762.939,684.014l193.555,-0l0,193.535l-193.555,-0l0,-193.535Zm16.143,16.132l15.264,0l-0,161.28l-15.264,-0l0,-161.28Zm28.711,0l15.879,0l-0,161.28l-15.869,-0l-0,-161.28l-0.01,0Zm29.316,0l15.879,0l0,161.28l-15.879,-0l0,-161.28Zm29.327,0l15.878,0l0,161.28l-15.878,-0l-0,-161.28Zm29.326,0l15.888,0l0,161.28l-15.888,-0l-0,-161.28Zm29.316,0l15.293,0l0,161.28l-15.293,-0l0,-161.28Z" style="fill:#34bbde;"/><path d="M986.26,684.014l193.535,-0l-0,193.535l-193.535,-0l-0,-193.535Zm16.123,16.132l15.263,0l0,161.28l-15.263,-0l-0,-161.28Zm28.711,0l15.879,0l-0,161.28l-15.879,-0l-0,-161.28Zm29.326,0l15.879,0l-0,161.28l-15.879,-0l-0,-161.28Zm29.326,0l15.879,0l0,161.28l-15.879,-0l0,-161.28Zm29.316,0l15.899,0l-0,161.28l-15.899,-0l0,-161.28Zm29.327,0l15.273,0l0,161.28l-15.273,-0l-0,-161.28Z" style="fill:#23a3c2;"/><path d="M986.26,460.713l193.535,-0l-0,193.525l-193.535,0l-0,-193.525Zm16.123,16.133l15.263,-0l0,161.269l-15.263,0l-0,-161.269Zm28.711,-0l15.879,-0l-0,161.269l-15.879,0l-0,-161.269Zm29.326,-0l15.879,-0l-0,161.269l-15.879,0l-0,-161.269Zm29.326,-0l15.879,-0l0,161.269l-15.879,0l0,-161.269Zm29.316,-0l15.899,-0l-0,161.269l-15.899,0l0,-161.269Zm29.327,-0l15.273,-0l0,161.269l-15.273,0l-0,-161.269Zm61.172,207.168l193.535,-0l-0,193.535l-193.535,-0l-0,-193.535Zm16.132,16.132l15.264,0l0,161.28l-15.264,-0l0,-161.28Zm28.711,0l15.879,0l0,161.28l-15.879,-0l0,-161.28Zm29.317,0l15.879,0l-0,161.28l-15.879,-0l-0,-161.28Zm29.326,0l15.889,0l-0,161.28l-15.889,-0l-0,-161.28Zm29.326,0l15.889,0l-0,161.28l-15.889,-0l0,-161.28Zm29.326,0l15.274,0l-0,161.28l-15.274,-0l0,-161.28Z" style="fill:#34bbde;"/><path d="M1209.56,460.713l193.535,-0l-0,193.525l-193.535,0l-0,-193.525Zm16.132,16.133l15.264,-0l0,161.269l-15.264,0l0,-161.269Zm28.711,-0l15.879,-0l0,161.269l-15.879,0l0,-161.269Zm29.317,-0l15.879,-0l-0,161.269l-15.879,0l-0,-161.269Zm29.326,-0l15.889,-0l-0,161.269l-15.889,0l-0,-161.269Zm29.326,-0l15.889,-0l-0,161.269l-15.889,0l0,-161.269Zm29.326,-0l15.274,-0l-0,161.269l-15.274,0l0,-161.269Z" style="fill:#23a3c2;"/><path d="M1209.56,237.402l193.535,0l-0,193.555l-193.535,0l-0,-193.555Zm16.132,16.123l15.264,0l0,161.289l-15.264,0l0,-161.298l0,0.009Zm28.711,0l15.879,0l0,161.289l-15.879,0l0,-161.298l0,0.009Zm29.317,0l15.879,0l-0,161.289l-15.879,0l-0,-161.298l-0,0.009Zm29.326,0l15.889,0l-0,161.289l-15.889,0l-0,-161.298l-0,0.009Zm29.326,0l15.889,0l-0,161.289l-15.889,0l0,-161.298l0,0.009Zm29.326,0l15.274,0l-0,161.289l-15.274,0l0,-161.298l0,0.009Z" style="fill:#34bbde;"/><path d="M1432.86,684.014l193.535,-0l0,193.535l-193.535,-0l0,-193.535Zm16.114,16.132l15.283,0l-0,161.28l-15.274,-0l0,-161.28l-0.009,0Zm28.711,0l15.888,0l0,161.28l-15.879,-0l0,-161.28l-0.009,0Zm29.335,0l15.889,0l0,161.28l-15.889,-0l0,-161.28Zm29.317,0l15.889,0l-0,161.28l-15.889,-0l-0,-161.28Zm29.336,0l15.879,0l-0,161.28l-15.879,-0l-0,-161.28Zm29.316,0l15.274,0l-0,161.28l-15.274,-0l0,-161.28Z" style="fill:#23a3c2;"/><path d="M944.375,1191.33c0.237,-0.003 0.475,-0.005 0.712,-0.005c29.294,0 53.399,24.105 53.399,53.399c-0,29.293 -24.105,53.398 -53.399,53.398c-0.244,0 -0.488,-0.001 -0.732,-0.005c-29.014,-0.397 -52.666,-24.376 -52.666,-53.393c-0,-29.025 23.664,-53.007 52.686,-53.394" style="fill:#d3ecec;"/><path d="M944.375,1206.48c4.883,-0 9.541,0.918 13.838,2.587c-4.804,2.79 -7.771,7.941 -7.771,13.497c0,8.545 7.019,15.582 15.564,15.605c5.908,0 11.035,-3.271 13.691,-8.115c1.929,4.646 2.922,9.627 2.922,14.658c-0,20.974 -17.259,38.232 -38.233,38.232c-20.973,0 -38.232,-17.258 -38.232,-38.232c0,-20.969 17.252,-38.226 38.221,-38.232m-944.375,-125.791l2483.66,-0c-54.072,-13.711 -171.094,-32.247 -151.797,-103.125c-98.34,113.789 -335.478,79.834 -395.332,23.73c-66.64,96.66 -454.629,59.912 -481.689,-15.391c-83.555,98.057 -342.451,98.057 -426.006,0c-27.08,75.303 -415.059,112.051 -481.709,15.381c-59.844,56.114 -296.973,90.069 -395.313,-23.711c19.297,70.869 -97.724,89.405 -151.816,103.125" style="fill:#364548;"/><path d="M1086.3,1576.07c-132.227,-62.744 -204.795,-148.047 -245.176,-241.152c-49.121,14.014 -108.154,22.978 -176.758,26.826c-25.84,1.445 -53.027,2.188 -81.543,2.188c-32.89,-0 -67.549,-0.977 -103.935,-2.901c121.259,121.192 270.429,214.492 546.64,216.192c20.391,-0 40.625,-0.391 60.772,-1.153" style="fill:#bdd9d7;"/><path d="M890.234,1420.84c-18.291,-24.834 -36.035,-56.045 -49.082,-85.938c-49.121,14.034 -108.173,22.998 -176.787,26.856c47.129,25.576 114.522,49.277 225.879,59.082" style="fill:#d3ecec;"/></g></svg>