<?xml version="1.0" encoding="UTF-8" standalone="no"?><!DOCTYPE svg PUBLIC "-//W3C//DTD SVG 1.1//EN" "http://www.w3.org/Graphics/SVG/1.1/DTD/svg11.dtd"><svg width="100%" height="100%" viewBox="0 0 350 350" version="1.1" xmlns="http://www.w3.org/2000/svg" xmlns:xlink="http://www.w3.org/1999/xlink" xml:space="preserve" xmlns:serif="http://www.serif.com/" style="fill-rule:evenodd;clip-rule:evenodd;stroke-linejoin:round;stroke-miterlimit:2;"><g id="drugpurposing"><g><path d="M206.113,163.853c0.965,10.612 -0.482,21.707 0,32.319c0,6.271 0.483,13.024 -0.965,19.295c-2.894,12.542 -10.129,21.707 -21.706,27.013c-20.743,8.683 -41.967,-0 -50.65,-20.26c-3.376,-7.235 -4.341,-15.918 -2.894,-24.119c0.482,-2.894 -0,-5.788 -0,-8.682c-0.482,-8.683 -0,-17.366 0.482,-26.531c4.824,-2.412 9.648,-2.412 14.472,-0.482c0.964,1.447 0.964,2.894 0.964,4.341c-0.482,16.401 -0.964,32.802 0,49.202c0,1.93 -0.482,5.306 1.93,5.306c3.376,0 2.412,-3.376 1.929,-5.788c-0.482,-15.918 0.965,-31.354 0,-47.273c0,-2.412 -0.482,-4.824 1.93,-6.271c7.235,-1.447 14.953,-0.964 22.189,-0.964c4.341,0.964 8.2,0.482 12.542,0.482c6.753,0.482 13.506,0.482 19.777,2.412Z" style="fill:#fff;fill-rule:nonzero;"/><path d="M206.113,163.853c-6.753,-0 -13.024,-0 -19.777,-0.483c-3.859,-0.964 -8.201,0.483 -12.06,-0.482c-7.235,0 -14.953,0.482 -22.189,0.482c-0.482,-0.482 -0.482,-0.964 -0.965,-1.447c-0.964,-6.271 -1.447,-13.024 -0.482,-19.295c0.965,-9.647 -0.965,-19.777 0.482,-29.425l0,-1.447c0,-1.447 0,-3.859 -2.411,-3.859c-2.412,0 -1.93,2.412 -1.93,3.859c-0.965,8.201 -0.482,16.401 -0.482,24.601c-0,8.201 -0,16.884 -0.483,25.084c0,0.482 -0.482,0.965 -0.964,1.447l-13.989,0c0.482,-11.095 -0.965,-22.672 0.482,-34.249c0.482,-4.341 -0.482,-8.2 0,-12.541c0.965,-20.743 22.672,-38.59 43.896,-34.249c13.024,2.412 22.189,9.165 27.978,20.26c3.859,7.235 4.824,15.918 4.341,24.118c-0.482,7.236 0,13.989 0,21.225c-1.447,5.306 -1.447,10.612 -1.447,16.401Z" style="fill:#d6a94e;fill-rule:nonzero;"/><path d="M151.605,162.888l-0,0.965c-1.447,1.447 -0.965,2.894 -0.965,4.341c0.965,17.366 -0.482,34.249 0.482,51.614c0,2.412 -0.482,4.824 -3.376,4.824c-2.894,0 -3.859,-1.929 -3.859,-4.824c-0.965,-16.4 0.482,-32.801 -0,-49.202c-0,-2.412 0.965,-4.824 0.482,-7.236l0,-0.482c2.412,-1.929 4.824,-1.929 7.236,0Z" style="fill:#8e8d8d;fill-rule:nonzero;"/><path d="M174.276,162.888c3.859,0 8.201,-0.965 12.06,0.482c-4.342,0 -8.201,0.965 -12.06,-0.482Z" style="fill:#eaa44b;fill-rule:nonzero;"/><path d="M151.605,162.888l-6.753,0l-0,-42.449c-0,-3.377 0.482,-6.753 0.482,-10.13c-0,-2.412 0.482,-3.859 2.894,-3.859c2.412,0 3.377,1.447 3.859,3.859c0.483,3.859 -0.482,7.718 -0.482,11.577l-0,41.002Z" style="fill:#fad56e;fill-rule:nonzero;"/><path d="M266.41,127.675c-1.929,6.753 -3.376,13.506 -5.788,20.742c-3.859,-6.754 -7.236,-12.542 -10.613,-18.331c-0.964,-1.447 0,-2.411 0,-3.859c2.412,-9.647 4.824,-19.295 7.236,-28.46c0.965,-3.376 1.93,-4.341 5.789,-3.376c8.682,2.412 16.883,4.823 25.565,6.753c4.342,0.965 7.236,3.377 9.166,7.236c1.929,4.341 5.306,7.718 6.753,13.024c-7.718,-0.483 -14.954,-3.859 -22.189,-5.306c-0.965,1.929 0.482,3.376 0.964,4.823c21.707,54.509 0.965,119.629 -48.237,150.019c-3.859,2.412 -5.789,2.412 -8.201,-1.929c-5.306,-10.13 -5.788,-10.13 3.859,-16.884c36.661,-26.53 52.097,-75.25 38.108,-118.182c0,-2.411 -0.482,-4.341 -2.412,-6.27Z" style="fill:#d6a94e;fill-rule:nonzero;"/><path d="M139.545,306.636c5.307,-5.306 10.613,-10.13 16.401,-15.436c-1.447,-1.93 -3.859,-1.447 -5.788,-1.93c-56.438,-7.718 -102.746,-59.332 -104.676,-116.252c0,-4.824 0.965,-6.271 6.271,-6.271c11.095,0.482 11.095,0 12.542,11.095c6.271,48.237 39.555,83.933 85.863,93.098c0.964,0 2.412,0.482 4.341,-0.965c-5.306,-3.859 -10.13,-8.2 -15.436,-12.059c0.482,-0.965 1.447,-1.93 1.93,-2.894c9.165,1.447 19.777,-3.377 27.495,6.753c4.824,6.271 11.095,11.577 16.883,16.883c2.412,1.93 2.412,3.377 0,5.789c-7.236,7.235 -14.471,14.471 -21.707,21.707" style="fill:#d6a94e;fill-rule:nonzero;"/><path d="M85.519,102.591c7.718,-1.929 13.989,-3.859 21.707,-5.788c-3.859,6.753 -7.235,12.059 -10.13,17.847c-0.964,1.93 -3.376,2.412 -4.823,2.895c-9.648,2.412 -19.295,4.823 -28.461,7.718c-2.894,0.964 -3.859,-0 -4.341,-2.412c-2.412,-10.13 -5.306,-20.26 -8.2,-30.39c-0.483,-1.447 -0.483,-2.412 0.482,-3.859c3.377,-5.306 6.271,-11.094 10.13,-17.365c2.412,8.682 4.341,15.918 6.753,23.636c8.201,-10.13 16.401,-19.295 26.048,-26.048c41.967,-29.907 86.346,-33.284 132.654,-11.095c3.376,1.447 3.859,2.894 1.929,6.271c-6.753,10.612 -6.753,10.612 -18.33,5.789c-42.931,-18.331 -94.546,-6.271 -122.523,28.942c-0.965,0.482 -1.448,1.447 -2.895,3.859Z" style="fill:#d6a94e;fill-rule:nonzero;"/></g></g></svg>