<?xml version="1.0" encoding="UTF-8" standalone="no"?>
<!DOCTYPE svg PUBLIC "-//W3C//DTD SVG 1.1//EN" "http://www.w3.org/Graphics/SVG/1.1/DTD/svg11.dtd">
<svg width="100%" height="100%" viewBox="0 0 100 100" version="1.1" xmlns="http://www.w3.org/2000/svg" xmlns:xlink="http://www.w3.org/1999/xlink" xml:space="preserve" xmlns:serif="http://www.serif.com/" style="fill-rule:evenodd;clip-rule:evenodd;stroke-linejoin:round;stroke-miterlimit:2;">
    <g id="edge" transform="matrix(1,0,0,1,-0.157132,8.16097)">
        <g id="path3456" transform="matrix(1,0,0,1,-7.9785,-4.13234)">
            <path d="M28.793,27.824L17.106,27.824C17.36,29.23 17.939,30.256 18.841,30.904C19.743,31.551 20.725,31.875 21.788,31.875C23.426,31.875 24.798,31.194 25.905,29.833L28.013,31.427C26.43,33.475 24.311,34.498 21.655,34.498C19.618,34.498 17.914,33.801 16.542,32.406C15.169,31.011 14.483,29.28 14.483,27.21C14.483,25.273 15.177,23.594 16.566,22.171C17.955,20.749 19.651,20.038 21.654,20.038C23.624,20.038 25.312,20.76 26.717,22.205C28.124,23.648 28.815,25.522 28.793,27.824ZM17.405,25.516L25.772,25.516C24.842,23.635 23.47,22.694 21.655,22.694C19.673,22.694 18.257,23.635 17.405,25.516Z" style="fill:rgb(120,153,176);fill-rule:nonzero;"/>
        </g>
        <g id="path3460" transform="matrix(1,0,0,1,-7.9785,-4.13234)">
            <path d="M49.722,12.567L52.577,12.567L52.577,34.116L49.755,34.116L49.755,31.26C48.392,33.418 46.607,34.497 44.402,34.497C42.617,34.497 41.088,33.783 39.813,32.355C38.539,30.927 37.901,29.212 37.901,27.209C37.901,25.25 38.549,23.565 39.846,22.154C41.143,20.743 42.689,20.037 44.485,20.037C45.56,20.037 46.563,20.336 47.494,20.933C48.425,21.53 49.168,22.311 49.722,23.274L49.722,12.567ZM50.054,27.243C50.054,26.014 49.605,24.95 48.707,24.047C47.809,23.145 46.739,22.694 45.497,22.694C44.211,22.694 43.122,23.134 42.229,24.014C41.336,24.894 40.89,25.971 40.89,27.243C40.89,28.461 41.345,29.526 42.254,30.439C43.163,31.352 44.222,31.809 45.431,31.809C46.717,31.809 47.809,31.367 48.707,30.481C49.605,29.595 50.054,28.516 50.054,27.243Z" style="fill:rgb(120,153,176);fill-rule:nonzero;"/>
        </g>
        <g id="path3464" transform="matrix(1,0,0,1,-7.9785,-4.13234)">
            <path d="M74.561,20.419L77.383,20.419L77.383,33.567C77.383,35.504 76.716,37.15 75.383,38.506C74.049,39.861 72.436,40.54 70.544,40.54C69.105,40.54 67.782,40.15 66.576,39.37C65.369,38.59 64.484,37.403 63.92,35.809L66.908,35.809C67.804,37.292 69.05,38.034 70.643,38.034C71.727,38.034 72.652,37.644 73.415,36.864C74.178,36.084 74.561,35.146 74.561,34.05L74.561,31.46C73.166,33.485 71.407,34.498 69.282,34.498C67.533,34.498 66.009,33.776 64.708,32.331C63.407,30.887 62.757,29.18 62.757,27.209C62.757,25.239 63.39,23.551 64.658,22.146C65.925,20.741 67.433,20.038 69.182,20.038C71.44,20.038 73.233,21.128 74.561,23.309L74.561,20.419ZM74.959,27.243C74.959,25.959 74.513,24.886 73.623,24.022C72.732,23.159 71.628,22.727 70.311,22.727C69.104,22.727 68.042,23.175 67.123,24.072C66.204,24.968 65.745,26.004 65.745,27.176C65.745,28.449 66.199,29.545 67.106,30.463C68.013,31.382 69.092,31.841 70.343,31.841C71.615,31.841 72.703,31.393 73.605,30.496C74.508,29.6 74.959,28.516 74.959,27.243Z" style="fill:rgb(120,153,176);fill-rule:nonzero;"/>
        </g>
        <g id="path3468" transform="matrix(1,0,0,1,-7.9785,-4.13234)">
            <path d="M101.078,27.824L89.39,27.824C89.644,29.23 90.223,30.256 91.125,30.904C92.027,31.551 93.009,31.875 94.072,31.875C95.71,31.875 97.082,31.194 98.189,29.833L100.297,31.427C98.714,33.475 96.595,34.498 93.939,34.498C91.902,34.498 90.198,33.801 88.826,32.406C87.453,31.011 86.767,29.28 86.767,27.21C86.767,25.273 87.461,23.594 88.85,22.171C90.239,20.749 91.935,20.038 93.938,20.038C95.908,20.038 97.596,20.76 99.001,22.205C100.408,23.648 101.1,25.522 101.078,27.824ZM89.689,25.516L98.056,25.516C97.126,23.635 95.754,22.694 93.939,22.694C91.958,22.694 90.541,23.635 89.689,25.516Z" style="fill:rgb(120,153,176);fill-rule:nonzero;"/>
        </g>
    </g>
    <g id="for">
        <g id="path3472" transform="matrix(0.641855,0,0,0.641855,-33.748,39.1273)">
            <path d="M118.887,12.783L118.887,15.705C118.046,15.141 117.321,14.858 116.712,14.858C116.203,14.858 115.804,15.046 115.517,15.421C115.229,15.796 115.085,16.32 115.085,16.993L115.085,20.419L118.887,20.419L118.887,23.059L115.085,23.059L115.085,34.116L112.196,34.116L112.196,23.059L109.673,23.059L109.673,20.419L112.196,20.419L112.196,17.188C112.196,15.631 112.597,14.388 113.4,13.46C114.202,12.532 115.273,12.068 116.612,12.068C117.277,12.069 118.035,12.307 118.887,12.783Z" style="fill:rgb(120,153,176);fill-rule:nonzero;"/>
        </g>
        <g id="path3476" transform="matrix(0.641855,0,0,0.641855,-33.748,39.1273)">
            <path d="M126.618,27.209C126.618,25.339 127.357,23.676 128.834,22.22C130.312,20.765 132.007,20.037 133.922,20.037C135.892,20.037 137.613,20.754 139.085,22.187C140.557,23.621 141.293,25.294 141.293,27.209C141.293,29.135 140.571,30.831 139.126,32.297C137.682,33.764 136.013,34.497 134.121,34.497C132.096,34.497 130.338,33.772 128.85,32.322C127.362,30.873 126.618,29.168 126.618,27.209ZM138.505,27.218C138.505,26.054 138.062,25.042 137.177,24.182C136.291,23.323 135.24,22.893 134.023,22.893C132.772,22.893 131.696,23.328 130.794,24.199C129.892,25.07 129.441,26.109 129.441,27.318C129.441,28.471 129.898,29.481 130.811,30.345C131.724,31.209 132.795,31.642 134.023,31.642C135.218,31.642 136.264,31.199 137.161,30.311C138.058,29.423 138.505,28.394 138.505,27.218Z" style="fill:rgb(120,153,176);fill-rule:nonzero;"/>
        </g>
        <g id="path3480" transform="matrix(0.641855,0,0,0.641855,-33.748,39.1273)">
            <path d="M153.756,20.419L153.756,23.241C154.398,22.112 155.026,21.296 155.64,20.792C156.254,20.289 157.054,20.037 158.039,20.037C158.315,20.037 158.714,20.103 159.234,20.236L158.354,23.125C157.8,23.015 157.435,22.959 157.258,22.959C156.284,22.959 155.467,23.299 154.809,23.98C154.15,24.661 153.821,25.51 153.821,26.528L153.821,34.115L150.932,34.115L150.932,20.419L153.756,20.419Z" style="fill:rgb(120,153,176);fill-rule:nonzero;"/>
        </g>
    </g>
    <g id="scholars">
        <g id="path3484" transform="matrix(0.659775,0,0,0.651625,-108.525,59.3492)">
            <path d="M176.381,22.046L174.455,23.739C173.957,23.385 173.525,23.116 173.16,22.934C172.795,22.752 172.363,22.66 171.865,22.66C170.692,22.66 170.105,23.092 170.105,23.955C170.105,24.575 170.849,25.177 172.338,25.761C173.826,26.344 174.897,26.985 175.55,27.681C176.203,28.377 176.529,29.218 176.529,30.202C176.529,31.352 176.058,32.355 175.118,33.212C174.177,34.069 173.07,34.497 171.798,34.497C169.861,34.497 168.273,33.601 167.033,31.808L169.307,30.712C170.104,31.487 170.934,31.874 171.797,31.874C172.395,31.874 172.918,31.711 173.366,31.384C173.814,31.058 174.038,30.678 174.038,30.247C174.038,29.483 173.252,28.796 171.681,28.186C170.109,27.576 169.022,26.958 168.419,26.333C167.815,25.708 167.514,24.937 167.514,24.018C167.514,22.879 167.943,21.931 168.801,21.173C169.658,20.415 170.735,20.036 172.03,20.036C173.325,20.036 174.776,20.708 176.381,22.046Z" style="fill:rgb(120,153,176);fill-rule:nonzero;"/>
        </g>
        <g id="path3488" transform="matrix(0.659775,0,0,0.651625,-108.525,59.3492)">
            <path d="M195.832,29.932L195.832,33.236C194.36,34.077 192.932,34.498 191.549,34.498C189.656,34.498 187.999,33.787 186.577,32.365C185.155,30.943 184.444,29.297 184.444,27.426C184.444,25.301 185.152,23.539 186.569,22.138C187.986,20.738 189.762,20.038 191.898,20.038C193.17,20.038 194.482,20.37 195.833,21.034L195.833,24.255C194.383,23.325 193.011,22.86 191.716,22.86C190.521,22.86 189.475,23.281 188.578,24.122C187.682,24.963 187.233,25.948 187.233,27.077C187.233,28.35 187.653,29.421 188.495,30.289C189.336,31.158 190.365,31.592 191.583,31.592C192.821,31.592 194.238,31.039 195.832,29.932Z" style="fill:rgb(120,153,176);fill-rule:nonzero;"/>
        </g>
        <g id="path3492" transform="matrix(0.659775,0,0,0.651625,-108.525,59.3492)">
            <path d="M205.529,12.567L208.418,12.567L208.418,22.661C209.215,21.743 209.959,21.076 210.65,20.661C211.342,20.246 212.186,20.038 213.182,20.038C214.344,20.038 215.349,20.484 216.195,21.374C217.043,22.265 217.466,23.331 217.466,24.57L217.466,34.116L214.577,34.116L214.577,25.384C214.577,24.521 214.358,23.829 213.922,23.309C213.484,22.789 212.906,22.529 212.187,22.529C211.147,22.529 210.258,22.922 209.522,23.708C208.787,24.494 208.418,25.446 208.418,26.563L208.418,34.117L205.529,34.117L205.529,12.567Z" style="fill:rgb(120,153,176);fill-rule:nonzero;"/>
        </g>
        <g id="g3494" transform="matrix(0.659775,0,0,0.651625,-108.525,59.3492)">
            <path id="path3496" d="M226.442,27.209C226.442,25.339 227.18,23.676 228.659,22.22C230.136,20.765 231.832,20.037 233.747,20.037C235.717,20.037 237.438,20.754 238.91,22.187C240.382,23.621 241.118,25.294 241.118,27.209C241.118,29.135 240.395,30.831 238.952,32.297C237.507,33.764 235.839,34.497 233.946,34.497C231.921,34.497 230.164,33.772 228.675,32.322C227.187,30.873 226.442,29.168 226.442,27.209ZM238.329,27.218C238.329,26.054 237.887,25.042 237.001,24.182C236.115,23.322 235.064,22.893 233.847,22.893C232.596,22.893 231.52,23.328 230.618,24.199C229.716,25.07 229.264,26.109 229.264,27.318C229.264,28.471 229.721,29.481 230.633,30.345C231.547,31.21 232.617,31.642 233.846,31.642C235.041,31.642 236.087,31.199 236.984,30.311C237.881,29.423 238.329,28.394 238.329,27.218Z" style="fill:rgb(120,153,176);fill-rule:nonzero;"/>
            <rect id="path3498" x="250.69" y="12.567" width="2.889" height="21.549" style="fill:rgb(120,153,176);fill-rule:nonzero;"/>
        </g>
        <g id="path3502" transform="matrix(0.659775,0,0,0.651625,-108.525,59.3492)">
            <path d="M275.43,20.419L278.319,20.419L278.319,34.115L275.43,34.115L275.43,31.392C274.025,33.462 272.282,34.496 270.201,34.496C268.397,34.496 266.855,33.788 265.578,32.371C264.299,30.954 263.66,29.233 263.66,27.208C263.66,25.293 264.305,23.62 265.594,22.186C266.884,20.753 268.398,20.036 270.135,20.036C271.208,20.036 272.227,20.329 273.19,20.916C274.153,21.503 274.9,22.267 275.431,23.207L275.431,20.419L275.43,20.419ZM275.828,27.309C275.828,26.059 275.379,24.988 274.48,24.097C273.583,23.206 272.506,22.761 271.254,22.761C270.034,22.761 268.969,23.204 268.06,24.089C267.151,24.975 266.697,26.015 266.697,27.21C266.697,28.505 267.14,29.606 268.027,30.514C268.915,31.422 269.99,31.875 271.255,31.875C272.507,31.875 273.583,31.424 274.481,30.522C275.379,29.62 275.828,28.549 275.828,27.309Z" style="fill:rgb(120,153,176);fill-rule:nonzero;"/>
        </g>
        <g id="path3506" transform="matrix(0.659775,0,0,0.651625,-108.525,59.3492)">
            <path d="M292.034,20.419L292.034,23.241C292.676,22.112 293.304,21.296 293.919,20.792C294.532,20.289 295.332,20.037 296.317,20.037C296.593,20.037 296.992,20.103 297.512,20.236L296.632,23.125C296.078,23.015 295.713,22.959 295.536,22.959C294.562,22.959 293.746,23.299 293.088,23.98C292.429,24.661 292.1,25.51 292.1,26.528L292.1,34.115L289.211,34.115L289.211,20.419L292.034,20.419Z" style="fill:rgb(120,153,176);fill-rule:nonzero;"/>
        </g>
        <g id="path3510" transform="matrix(0.659775,0,0,0.651625,-108.525,59.3492)">
            <path d="M314.523,22.046L312.597,23.739C312.099,23.385 311.667,23.116 311.302,22.934C310.937,22.752 310.505,22.66 310.007,22.66C308.834,22.66 308.247,23.092 308.247,23.955C308.247,24.575 308.991,25.177 310.479,25.761C311.968,26.344 313.039,26.985 313.692,27.681C314.345,28.377 314.671,29.218 314.671,30.202C314.671,31.352 314.2,32.355 313.26,33.212C312.32,34.069 311.212,34.497 309.94,34.497C308.003,34.497 306.415,33.601 305.175,31.808L307.449,30.712C308.246,31.487 309.076,31.874 309.939,31.874C310.537,31.874 311.06,31.711 311.507,31.384C311.956,31.058 312.18,30.678 312.18,30.247C312.18,29.483 311.394,28.796 309.823,28.186C308.252,27.576 307.164,26.958 306.56,26.333C305.957,25.708 305.656,24.937 305.656,24.018C305.656,22.879 306.085,21.931 306.943,21.173C307.8,20.415 308.877,20.036 310.172,20.036C311.467,20.036 312.919,20.708 314.523,22.046Z" style="fill:rgb(120,153,176);fill-rule:nonzero;"/>
        </g>
    </g>
</svg>
