<?xml version="1.0" encoding="UTF-8" standalone="no"?>
<!DOCTYPE svg PUBLIC "-//W3C//DTD SVG 1.1//EN" "http://www.w3.org/Graphics/SVG/1.1/DTD/svg11.dtd">
<svg width="100%" height="100%" viewBox="0 0 1280 1280" version="1.1" xmlns="http://www.w3.org/2000/svg" xmlns:xlink="http://www.w3.org/1999/xlink" xml:space="preserve" xmlns:serif="http://www.serif.com/" style="fill-rule:evenodd;clip-rule:evenodd;stroke-linecap:round;stroke-linejoin:round;stroke-miterlimit:1.5;">
    <path d="M995.056,520.186C997.159,531.286 998.258,542.73 998.258,554.429C998.258,655.711 915.848,737.939 814.342,737.939C735.026,737.939 667.369,687.732 641.577,617.452L643.55,617.146C660.912,618.396 678.769,620.282 697.122,622.805C716.593,624.527 732.599,630.234 744.556,640.594C759.785,652.209 775.448,661.238 791.626,667.178C811.124,671.535 830.063,671.956 848.306,667.476C867.19,661.18 885.022,650.882 901.915,637.005C916.356,620.35 927.094,601.85 932.321,580.606L632.614,582.793C631.173,573.54 630.426,564.071 630.426,554.429C630.426,453.146 712.836,370.918 814.342,370.918C886.005,370.918 948.151,411.903 978.494,471.637L894.548,472.974C876.883,455.68 855.905,444.127 830.531,440.194C805.185,437.416 781.026,442.61 758.07,455.87C733.764,472.224 718.104,493.883 712.108,521.474L995.056,520.186Z" style="fill:rgb(135,199,108);stroke:rgb(135,199,108);stroke-width:1px;"/>
    <path id="f" d="M508.925,957.996L507.184,578.896L412.66,579.862C372.38,576.678 354.027,551.174 351.815,511.142L505.415,510.104C517.86,365.589 585.545,292.468 702.482,283.002C706.001,313.841 692.226,338.069 664.623,357.012C620.127,384.951 589.375,421.666 587.569,474.38C583.594,511.196 582.262,548.013 583.145,584.829L583.464,888.92C583.439,936.166 550.997,951.779 508.925,957.996Z" style="fill:rgb(80,184,81);stroke:rgb(80,184,81);stroke-width:1px;"/>
    <path d="M445.964,837.103C419.981,907.868 352.66,958.339 273.792,958.339C172.446,958.339 90.165,874.998 90.165,772.345C90.165,669.693 172.446,586.352 273.792,586.352C375.138,586.352 457.418,669.693 457.418,772.345C457.418,782.991 456.534,793.428 454.834,803.588L161.11,803.874C176.274,846.768 200.681,873.496 233.105,886.205C259.774,893.388 285.492,892.664 310.302,884.396C325.489,877.812 339.635,868.762 353.015,857.897C365.932,849.005 381.02,843.465 397.965,840.796L445.964,837.103ZM168.731,742.297L377.453,740.124C369.624,708.1 347.944,683.423 311.49,666.582C280.47,653.797 248.834,657.482 216.714,674.165C192.984,695.108 177.227,717.873 168.731,742.297Z" style="fill:rgb(49,159,72);"/>
    <g transform="matrix(1.16689,0,0,1,-121.681,0)">
        <text x="672.77px" y="861.012px" style="font-family:'Arial-BoldMT', 'Arial', sans-serif;font-weight:700;font-size:85.166px;fill:rgb(80,184,81);stroke:rgb(80,184,81);stroke-width:0.92px;stroke-linecap:butt;stroke-miterlimit:2;">EDGE</text>
    </g>
    <g transform="matrix(1.04717,0,0,1,-46.3687,0)">
        <text x="980.028px" y="862.34px" style="font-family:'ArialMT', 'Arial', sans-serif;font-size:37.122px;fill:rgb(80,184,81);stroke:rgb(80,184,81);stroke-width:0.98px;stroke-linecap:butt;stroke-miterlimit:2;">FOR</text>
    </g>
    <g transform="matrix(1.10168,0,0,1.08461,-68.3384,-75.7723)">
        <text x="669.033px" y="957.517px" style="font-family:'Arial-BoldMT', 'Arial', sans-serif;font-weight:700;font-size:85.166px;fill:rgb(80,184,81);stroke:rgb(80,184,81);stroke-width:0.91px;stroke-linecap:butt;stroke-miterlimit:2;">SCHOLARS</text>
    </g>
</svg>
