<?xml version="1.0" encoding="UTF-8" standalone="no"?>
<!DOCTYPE svg PUBLIC "-//W3C//DTD SVG 1.1//EN" "http://www.w3.org/Graphics/SVG/1.1/DTD/svg11.dtd">
<svg width="100%" height="100%" viewBox="0 0 100 100" version="1.1" xmlns="http://www.w3.org/2000/svg" xmlns:xlink="http://www.w3.org/1999/xlink" xml:space="preserve" xmlns:serif="http://www.serif.com/" style="fill-rule:evenodd;clip-rule:evenodd;stroke-linejoin:round;stroke-miterlimit:1.41421;">
    <g id="elastic" transform="matrix(0.216055,0,0,0.216055,5,5.17517)">
        <g transform="matrix(2.05255,0,0,2.05255,0,-1.72823)">
            <path d="M79.789,87.907L124.197,108.152L169.002,68.894C169.651,65.656 169.968,62.427 169.968,59.048C169.968,31.426 147.5,8.953 119.878,8.953C103.354,8.953 87.941,17.089 78.572,30.732L71.12,69.397L79.789,87.907Z" style="fill:rgb(252,209,10);fill-rule:nonzero;"/>
        </g>
        <g transform="matrix(2.05255,0,0,2.05255,0,-1.72823)">
            <path d="M33.822,134.933C33.173,138.171 32.841,141.531 32.841,144.93C32.841,172.623 55.374,195.156 83.072,195.156C99.732,195.156 115.22,186.944 124.574,173.161L131.971,134.626L122.099,115.764L77.515,95.444L33.822,134.933Z" style="fill:rgb(32,187,177);fill-rule:nonzero;"/>
        </g>
        <g transform="matrix(2.05255,0,0,2.05255,0,-1.72823)">
            <path d="M33.541,58.083L63.974,65.269L70.642,30.667C66.483,27.489 61.349,25.749 56.069,25.749C42.844,25.749 32.088,36.51 32.088,49.735C32.088,52.657 32.575,55.458 33.541,58.083Z" style="fill:rgb(239,80,153);fill-rule:nonzero;"/>
        </g>
        <g transform="matrix(2.05255,0,0,2.05255,0,-1.72823)">
            <path d="M30.899,65.331C17.301,69.837 7.848,82.871 7.848,97.207C7.848,111.166 16.482,123.632 29.44,128.565L72.138,89.971L64.299,73.221L30.899,65.331Z" style="fill:rgb(25,168,224);fill-rule:nonzero;"/>
        </g>
        <g transform="matrix(2.05255,0,0,2.05255,0,-1.72823)">
            <path d="M132.38,173.159C136.554,176.368 141.663,178.118 146.878,178.118C160.103,178.118 170.859,167.362 170.859,154.136C170.859,151.22 170.371,148.419 169.406,145.794L138.998,138.678L132.38,173.159Z" style="fill:rgb(146,200,61);fill-rule:nonzero;"/>
        </g>
        <g transform="matrix(2.05255,0,0,2.05255,0,-1.72823)">
            <path d="M138.567,130.708L172.043,138.537C185.645,134.041 195.099,121.002 195.099,106.661C195.099,92.727 186.445,80.276 173.461,75.358L129.677,113.716L138.567,130.708Z" style="fill:rgb(6,121,162);fill-rule:nonzero;"/>
        </g>
    </g>
</svg>
