<?xml version="1.0" encoding="utf-8"?>
<!-- Generator: Adobe Illustrator 19.2.1, SVG Export Plug-In . SVG Version: 6.00 Build 0)  -->
<svg version="1.1" id="layer" xmlns="http://www.w3.org/2000/svg" xmlns:xlink="http://www.w3.org/1999/xlink" x="0px" y="0px"
	 viewBox="0 0 652 652" style="enable-background:new 0 0 652 652;" xml:space="preserve">
<path d="M83.6,358.2c10.9,0,19.3-4.9,27.3-12.1c2.9-2.4,4.3-4.5,8.3-4.5c3,0,5.6,2.4,5.9,5.5c0,7.3-10.9,15.8-16.4,18.8
	c-10.5,6.3-21,8.5-33.5,8.5c-27.6-0.1-54.5-18-54.5-47.7c0-34.1,29.3-54.2,60.8-54.2c18,0,41.4,8.3,41.4,29.5
	c0,14.9-14.4,29.3-65.4,34.5C60.3,349.3,70.5,358.2,83.6,358.2z M91.5,299.9c0-7.6-4-13.1-12.1-13.1c-17,0-24.6,22.3-23.6,36.4
	C69.1,322,91.5,316.5,91.5,299.9z"/>
<path d="M139.3,307c0-7,0.9-10.8-6-14.1c-2-0.9-4.3-2.2-4.3-5.5c0-7.3,24.9-14.9,31.2-14.9c6.9,0,8.3,9.3,9.1,14.5
	c8.2-9.3,20.1-14.7,32.5-14.5c12.1,0,22.8,5.5,28.9,16.4c7.9-11.6,20.8-16.4,34.5-16.4c8.9,0,18.8,3,25.4,9.3
	c7.6,7.3,8.9,17.5,8.9,27.7v34.5c0,9.9,0,12.4,3,14.5c3.2,1.4,5,2.9,5,6.3c0,6.3-5,6.5-9.5,6.5h-30c-4.5,0-9.5-0.1-9.5-6.5
	c0-3.4,1.9-4.9,5-6.3c3-2.2,3-4.6,3-14.5v-29.7c0-9.8,0.1-23.7-13.1-23.7c-5.5-0.1-10.6,2.4-13.9,6.9c-3.6,4.9-3.6,11.9-3.6,17.8
	v28.7c0,9.9,0,12.4,3,14.5c3.2,1.4,5,2.9,5,6.3c0,6.3-5,6.5-9.5,6.5h-30c-4.5,0-9.5-0.1-9.5-6.5c0-3.4,1.9-4.9,5-6.3
	c3-2.2,3-4.6,3-14.5v-29.7c0-9.8,0.1-23.7-13.1-23.7c-5.5-0.1-10.6,2.4-13.9,6.9c-3.6,4.9-3.6,11.9-3.6,17.8v28.7
	c0,9.9,0,12.4,3,14.5c3.2,1.4,5,2.9,5,6.3c0,6.3-5,6.5-9.5,6.5h-30.2c-4.5,0-9.5-0.1-9.5-6.5c0-3.4,1.9-4.9,5-6.3
	c3-2.3,3-4.7,3-14.7V307z"/>
<path d="M324.1,307c0-7,0.9-10.8-6-14.1c-2-0.9-4.2-2.2-4.2-5.5c0-7.3,24.9-14.9,31-14.9c6.9,0,8.3,9.3,9.1,14.5
	c8.2-9.3,20.1-14.7,32.5-14.5c12.1,0,22.8,5.5,28.9,16.4c7.9-11.6,20.8-16.4,34.5-16.4c8.9,0,18.8,3,25.4,9.3
	c7.8,7.3,8.9,17.5,8.9,27.7v34.5c0,9.9,0,12.4,3,14.5c3.2,1.4,5,2.9,5,6.3c0,6.3-5,6.5-9.5,6.5h-30c-4.5,0-9.5-0.1-9.5-6.5
	c0-3.4,1.9-4.9,5-6.3c3-2.2,3-4.6,3-14.5v-29.7c0-9.8,0.1-23.7-13.1-23.7c-5.5-0.1-10.6,2.4-13.9,6.9c-3.6,4.9-3.6,11.9-3.6,17.8
	v28.7c0,9.9,0,12.4,3,14.5c3.2,1.4,5,2.9,5,6.3c0,6.3-5,6.5-9.5,6.5h-30c-4.5,0-9.5-0.1-9.5-6.5c0-3.4,1.9-4.9,5-6.3
	c3-2.2,3-4.6,3-14.5v-29.7c0-9.8,0.1-23.7-13.1-23.7c-5.5-0.1-10.6,2.4-13.9,6.9c-3.6,4.9-3.6,11.9-3.6,17.8v28.7
	c0,9.9,0,12.4,3,14.5c3.2,1.4,5,2.9,5,6.3c0,6.3-5,6.5-9.5,6.5h-30.2c-4.5,0-9.5-0.1-9.5-6.5c0-3.4,1.9-4.9,5-6.3
	c3-2.2,3-4.6,3-14.5L324.1,307z"/>
<path d="M594.8,343.7c0,9.5,0.1,12.4,3.9,14.1c4.5,2.3,6.6,3.6,6.6,7c0,6.5-6,6.5-10.9,6.5h-21c-10.1,0-10.1-3.4-10.1-12.5
	c-6.9,11.4-19,15.5-31.3,15.5c-19,0-36.4-10.5-36.4-31.3c0-28.7,36.4-35.8,58.6-35.8h6.8c0-12.1-5.7-21.3-18.7-21.3
	c-12.4,0-14.1,12.9-26.9,12.9c-5.9,0-12.5-2.6-12.5-9.8c0-14.1,31.9-16.8,41.8-16.8c35.2,0,50.1,15.5,50.1,39.2L594.8,343.7z
	 M558.4,320c-14.4,0-28.9,7-28.9,23.3c0,7.6,4.5,14.5,12.8,14.5c6.6,0,11.9-4.3,15.5-9.8c4.3-6.9,4.3-7,4.3-28H558.4z"/>
<path d="M612.5,285.6c-4.5,0-8.2-3.6-8.3-8c0-0.1,0-0.1,0-0.3c0-4.6,3.7-8.3,8.3-8.3c4.6,0,8.3,3.7,8.3,8.3c0.1,4.6-3.4,8.3-8,8.3
	C612.6,285.6,612.5,285.6,612.5,285.6z M612.5,270.3c-3.6-0.1-6.6,2.7-6.8,6.3c0,0.1,0,0.4,0,0.6c-0.1,3.7,2.7,6.9,6.5,7
	s6.9-2.7,7-6.5c0-0.1,0-0.4,0-0.6c0.3-3.6-2.4-6.8-6-7C612.9,270.3,612.6,270.3,612.5,270.3L612.5,270.3z M614.2,281.5l-1.4-3.2H611
	v3.2h-1.6v-8.8h3.2c1.6-0.1,3,1,3.2,2.6v0.1c0,1.1-0.6,2.2-1.6,2.6l1.6,3.4C615.8,281.5,614.2,281.5,614.2,281.5z M612.8,274.1H611
	v2.7h1.6c0.9,0,1.4-0.4,1.4-1.4C614.2,274.6,613.6,274,612.8,274.1C612.9,274.1,612.8,274.1,612.8,274.1L612.8,274.1z"/>
</svg>
