<?xml version="1.0" encoding="UTF-8" standalone="no"?><!DOCTYPE svg PUBLIC "-//W3C//DTD SVG 1.1//EN" "http://www.w3.org/Graphics/SVG/1.1/DTD/svg11.dtd"><svg width="100%" height="100%" viewBox="0 0 732 732" version="1.1" xmlns="http://www.w3.org/2000/svg" xmlns:xlink="http://www.w3.org/1999/xlink" xml:space="preserve" xmlns:serif="http://www.serif.com/" style="fill-rule:evenodd;clip-rule:evenodd;stroke-miterlimit:10;"><g transform="matrix(1,0,0,1,61.2309,-15.1768)"><text x="106.67px" y="525.241px" style="font-family:'Apple-Chancery', 'Apple Chancery', cursive;font-style:italic;font-size:144px;fill:#ddb35d;">e</text><text x="149.089px" y="525.241px" style="font-family:'Arial-BoldMT', 'Arial', sans-serif;font-weight:700;font-size:144px;fill:#ddb35d;">S<tspan x="234.048px 350.999px 419.997px 464.948px " y="525.241px 525.241px 525.241px 525.241px ">mart</tspan></text></g><g id="esmart"><g><g id="Vanderbilt_Institute__for_Clinical_and_Translational_Research_1_"><g id="Vanderbilt_Institute__for_Clinical_and_Translational_Research"><path d="M24.14,220.578c0.08,0.13 0.09,0.28 0.01,0.45l-6.72,19.54c-0.13,0.39 -0.42,0.59 -0.87,0.59l-3.5,0c-0.45,0 -0.75,-0.2 -0.9,-0.59l-6.65,-19.52l-0.06,-0.22c-0,-0.13 0.05,-0.24 0.14,-0.32c0.09,-0.08 0.21,-0.13 0.36,-0.13l4.03,0c0.3,0 0.49,0.16 0.59,0.48l4.59,14.17c0.02,0.13 0.07,0.2 0.14,0.2c0.07,0 0.14,-0.08 0.2,-0.22l4.45,-14.14c0.09,-0.32 0.3,-0.48 0.62,-0.48l3.16,0c0.19,-0.01 0.33,0.06 0.41,0.19Z" style="fill-rule:nonzero;"/><path d="M27.49,241.438c-1.4,0 -2.51,-0.38 -3.33,-1.13c-0.82,-0.76 -1.23,-1.74 -1.23,-2.95c-0,-1.57 0.72,-2.83 2.16,-3.78c1.44,-0.95 3.42,-1.46 5.94,-1.51l1.01,-0.08c0.11,0 0.21,-0.03 0.29,-0.1c0.08,-0.07 0.13,-0.16 0.13,-0.29l-0,-0.59c-0,-0.73 -0.21,-1.29 -0.62,-1.68c-0.41,-0.39 -1,-0.59 -1.76,-0.59c-1.31,0 -2.28,0.56 -2.91,1.68c-0.07,0.19 -0.2,0.28 -0.36,0.28c-0.09,0 -0.18,-0.01 -0.25,-0.03l-2.8,-0.64c-0.17,-0.04 -0.25,-0.14 -0.25,-0.31c-0,-0.11 0.04,-0.25 0.11,-0.42c0.45,-1.08 1.25,-1.89 2.39,-2.44c1.15,-0.54 2.57,-0.81 4.27,-0.81c2.22,0 3.83,0.41 4.82,1.22c0.99,0.81 1.48,1.96 1.48,3.46l-0,9.83c-0,0.22 -0.04,0.38 -0.11,0.48c-0.07,0.1 -0.24,0.12 -0.44,0.12l-2.88,0c-0.19,0 -0.32,-0.07 -0.41,-0.2c-0.08,-0.13 -0.14,-0.33 -0.18,-0.59l-0.03,-0.62c-0.02,-0.17 -0.09,-0.25 -0.22,-0.25c-0.08,0 -0.21,0.08 -0.42,0.22c-1.24,1.15 -2.7,1.72 -4.4,1.72Zm4.87,-7.25c-0.06,-0.07 -0.17,-0.11 -0.34,-0.11l-0.78,0.06c-1.08,0.06 -2.04,0.31 -2.87,0.77c-0.83,0.46 -1.25,1.09 -1.25,1.89c-0,0.56 0.2,1 0.59,1.33c0.39,0.33 0.93,0.49 1.62,0.49c0.86,0 1.59,-0.25 2.18,-0.76c0.62,-0.49 0.92,-0.98 0.92,-1.48l-0,-1.82c0.01,-0.18 -0.01,-0.3 -0.07,-0.37Z" style="fill-rule:nonzero;"/><path d="M38.49,241.028c-0.09,-0.08 -0.14,-0.23 -0.14,-0.43l-0,-13.75c-0,-0.35 0.15,-0.53 0.45,-0.53l3.39,0c0.28,0 0.42,0.16 0.42,0.48l-0,1.37c-0,0.15 0.05,0.22 0.14,0.22c0.06,0 0.12,-0.04 0.2,-0.11c0.77,-0.73 1.53,-1.28 2.3,-1.67c0.77,-0.38 1.58,-0.57 2.44,-0.57c1.36,0 2.44,0.4 3.23,1.2c0.79,0.8 1.19,1.88 1.19,3.22l-0,10.02c-0,0.45 -0.22,0.67 -0.67,0.67l-3.11,0c-0.21,0 -0.35,-0.04 -0.42,-0.13c-0.07,-0.09 -0.12,-0.22 -0.12,-0.42l-0,-9.46c-0,-0.63 -0.17,-1.12 -0.52,-1.47c-0.35,-0.34 -0.85,-0.52 -1.53,-0.52c-0.56,0 -1.08,0.14 -1.55,0.42c-0.47,0.28 -0.98,0.72 -1.53,1.32l-0,9.63c-0,0.22 -0.06,0.39 -0.17,0.49c-0.11,0.1 -0.3,0.15 -0.56,0.15l-3,0c-0.2,0 -0.34,-0.04 -0.44,-0.13Z" style="fill-rule:nonzero;"/><path d="M63.64,240.598l-0,-0.78c-0,-0.15 -0.05,-0.22 -0.14,-0.22c-0.06,0 -0.14,0.04 -0.25,0.11c-0.54,0.52 -1.13,0.94 -1.78,1.26c-0.65,0.32 -1.41,0.48 -2.31,0.48c-1.75,0 -3.17,-0.65 -4.24,-1.96c-1.07,-1.31 -1.61,-3.18 -1.61,-5.63c-0,-1.53 0.28,-2.89 0.83,-4.07c0.55,-1.19 1.29,-2.1 2.23,-2.76c0.93,-0.65 1.96,-0.98 3.08,-0.98c0.73,0 1.39,0.12 1.97,0.36c0.59,0.24 1.15,0.62 1.69,1.12c0.13,0.09 0.22,0.14 0.28,0.14c0.13,0 0.2,-0.12 0.2,-0.36l-0,-6.42c-0,-0.34 0.15,-0.5 0.45,-0.5l3.42,0c0.13,0 0.24,0.05 0.32,0.14c0.08,0.09 0.13,0.22 0.13,0.39l-0,19.66c-0,0.21 -0.05,0.35 -0.14,0.45c-0.09,0.09 -0.26,0.14 -0.5,0.14l-3.02,0c-0.42,-0.01 -0.61,-0.2 -0.61,-0.57Zm-1.33,-11.45c-0.42,-0.22 -0.89,-0.34 -1.41,-0.34c-0.99,0 -1.77,0.41 -2.35,1.22c-0.58,0.81 -0.87,2.07 -0.87,3.77c-0,1.72 0.28,2.97 0.84,3.77c0.56,0.79 1.33,1.19 2.32,1.19c0.75,0 1.39,-0.25 1.93,-0.74c0.54,-0.49 0.81,-1.07 0.81,-1.72l-0,-6.1c-0.43,-0.48 -0.85,-0.83 -1.27,-1.05Z" style="fill-rule:nonzero;"/><path d="M74.68,237.528c0.7,0.64 1.57,0.97 2.62,0.97c0.67,0 1.29,-0.14 1.86,-0.43c0.57,-0.29 1.14,-0.77 1.72,-1.44c0.07,-0.07 0.15,-0.11 0.22,-0.11c0.06,0 0.15,0.03 0.28,0.08l2.02,0.84c0.13,0.06 0.2,0.15 0.2,0.28c-0,0.09 -0.04,0.19 -0.11,0.28c-0.9,1.27 -1.86,2.16 -2.88,2.67c-1.03,0.51 -2.31,0.77 -3.84,0.77c-1.44,0 -2.73,-0.32 -3.89,-0.95c-1.16,-0.63 -2.06,-1.52 -2.72,-2.65c-0.65,-1.13 -0.98,-2.42 -0.98,-3.88c-0,-1.57 0.34,-2.95 1.01,-4.16c0.67,-1.2 1.58,-2.13 2.73,-2.79c1.15,-0.66 2.4,-0.98 3.77,-0.98c1.42,0 2.68,0.31 3.78,0.94c1.1,0.62 1.96,1.53 2.58,2.7c0.62,1.18 0.92,2.58 0.92,4.2c-0,0.24 -0.02,0.41 -0.07,0.5c-0.05,0.09 -0.18,0.15 -0.41,0.17l-9.52,0c-0.22,0 -0.34,0.15 -0.34,0.45c-0,1.05 0.35,1.9 1.05,2.54Zm4.58,-5.33c0.21,0 0.34,-0.02 0.39,-0.07c0.06,-0.05 0.08,-0.15 0.08,-0.32c-0,-0.49 -0.11,-0.97 -0.34,-1.46c-0.22,-0.49 -0.55,-0.89 -0.98,-1.2c-0.43,-0.32 -0.95,-0.48 -1.57,-0.48c-0.93,0 -1.7,0.33 -2.3,0.98c-0.6,0.65 -0.89,1.49 -0.87,2.52l5.59,0.03Z" style="fill-rule:nonzero;"/><path d="M85.14,240.598l-0,-13.75c-0,-0.35 0.15,-0.53 0.45,-0.53l3.28,0c0.3,0 0.45,0.16 0.45,0.48l-0,1.65c-0,0.08 0.02,0.13 0.06,0.17c0.04,0.04 0.07,0.06 0.11,0.06c0.06,0 0.13,-0.05 0.22,-0.14c0.56,-0.75 1.22,-1.35 1.99,-1.81c0.77,-0.46 1.49,-0.69 2.18,-0.69c0.67,0 1.01,0.16 1.01,0.48l-0,3.25c-0,0.13 -0.04,0.23 -0.11,0.31c-0.07,0.08 -0.18,0.09 -0.31,0.06c-0.6,-0.15 -1.25,-0.22 -1.96,-0.22c-0.47,0 -0.94,0.12 -1.41,0.35c-0.48,0.23 -0.87,0.54 -1.18,0.92c-0.31,0.38 -0.46,0.77 -0.46,1.16l-0,8.18c-0,0.43 -0.24,0.64 -0.73,0.64l-3,0c-0.39,-0.01 -0.59,-0.2 -0.59,-0.57Z" style="fill-rule:nonzero;"/><path d="M96.59,241.158c-0.22,0 -0.39,-0.05 -0.49,-0.15c-0.1,-0.1 -0.15,-0.26 -0.15,-0.46l-0,-19.64c-0,-0.17 0.04,-0.3 0.13,-0.39c0.09,-0.09 0.2,-0.14 0.35,-0.14l3.42,0c0.28,0 0.42,0.17 0.42,0.5l-0,6.52c-0,0.22 0.06,0.34 0.2,0.34c0.07,0 0.18,-0.05 0.31,-0.14c1.12,-1.05 2.43,-1.57 3.92,-1.57c1.87,0 3.31,0.69 4.33,2.07c1.02,1.38 1.53,3.23 1.53,5.54c-0,2.41 -0.56,4.31 -1.68,5.7c-1.12,1.39 -2.69,2.09 -4.7,2.09c-0.95,0 -1.81,-0.21 -2.56,-0.64c-0.76,-0.43 -1.38,-0.97 -1.86,-1.62c-0.09,-0.09 -0.16,-0.14 -0.2,-0.14c-0.06,0 -0.1,0.08 -0.14,0.22l-0.36,1.35c-0.06,0.21 -0.13,0.35 -0.22,0.43c-0.09,0.08 -0.23,0.13 -0.42,0.13l-1.83,0Zm3.67,-5.13c-0,0.8 0.27,1.47 0.83,1.99c0.55,0.52 1.21,0.78 1.97,0.78c2.05,0 3.08,-1.7 3.08,-5.1c-0,-1.7 -0.25,-2.94 -0.74,-3.74c-0.5,-0.79 -1.24,-1.19 -2.23,-1.19c-1.12,0 -2.09,0.5 -2.91,1.48l-0,5.78Z" style="fill-rule:nonzero;"/><path d="M116.25,223.828c-0,0.47 -0.25,0.7 -0.76,0.7l-3.02,0c-0.22,0 -0.38,-0.05 -0.48,-0.15c-0.1,-0.1 -0.14,-0.27 -0.14,-0.49l-0,-2.95c-0,-0.37 0.16,-0.56 0.48,-0.56l3.47,0c0.13,0 0.24,0.05 0.32,0.14c0.08,0.09 0.13,0.22 0.13,0.39l-0,2.92Zm-0.06,16.66c-0,0.24 -0.06,0.42 -0.17,0.52c-0.11,0.1 -0.31,0.15 -0.59,0.15l-2.94,0c-0.22,0 -0.38,-0.05 -0.48,-0.14c-0.09,-0.09 -0.14,-0.24 -0.14,-0.45l-0,-13.72c-0,-0.35 0.16,-0.53 0.48,-0.53l3.42,0c0.28,0 0.42,0.16 0.42,0.48l-0,13.69Z" style="fill-rule:nonzero;"/><path d="M122.52,240.488c-0,0.24 -0.06,0.42 -0.17,0.52c-0.11,0.1 -0.31,0.15 -0.59,0.15l-2.97,0c-0.22,0 -0.38,-0.05 -0.48,-0.14c-0.09,-0.09 -0.14,-0.24 -0.14,-0.45l0.08,-19.66c-0,-0.35 0.15,-0.53 0.45,-0.53l3.39,0c0.28,0 0.42,0.17 0.42,0.5l-0,19.61l0.01,0Z" style="fill-rule:nonzero;"/><path d="M130.75,229.288c-0.21,0 -0.31,0.11 -0.31,0.34l-0,6.75c-0,0.63 0.15,1.09 0.45,1.36c0.3,0.27 0.77,0.41 1.43,0.41l1.51,0c0.13,0 0.23,0.04 0.31,0.13c0.08,0.09 0.11,0.2 0.11,0.35l-0.03,1.71c-0,0.37 -0.21,0.6 -0.62,0.67c-0.78,0.11 -1.9,0.17 -3.33,0.17c-1.31,0 -2.32,-0.31 -3.05,-0.92c-0.73,-0.61 -1.09,-1.51 -1.09,-2.69l-0,-7.84c-0,-0.28 -0.12,-0.42 -0.36,-0.42l-1.71,0c-0.35,0 -0.53,-0.16 -0.53,-0.48l-0,-2.07c-0,-0.28 0.17,-0.42 0.5,-0.42l1.93,0c0.15,0 0.24,-0.1 0.28,-0.31l0.39,-4.26c0.04,-0.32 0.18,-0.48 0.42,-0.48l3.05,0c0.13,0 0.24,0.05 0.32,0.14c0.08,0.09 0.13,0.22 0.13,0.39l-0,4.2c-0,0.19 0.09,0.28 0.28,0.28l2.94,0c0.34,0 0.5,0.15 0.5,0.45l-0,2.07c-0,0.32 -0.19,0.48 -0.56,0.48l-2.96,0l0,-0.01Z" style="fill-rule:nonzero;"/><path d="M145,220.378c0.3,0 0.45,0.17 0.45,0.5l-0,19.6c-0,0.24 -0.06,0.42 -0.17,0.52c-0.11,0.1 -0.31,0.15 -0.59,0.15l-3.53,0c-0.22,0 -0.38,-0.05 -0.48,-0.14c-0.09,-0.09 -0.14,-0.24 -0.14,-0.45l-0,-19.65c-0,-0.35 0.15,-0.53 0.45,-0.53l4.01,0Z" style="fill-rule:nonzero;"/><path d="M147.97,241.028c-0.09,-0.08 -0.14,-0.23 -0.14,-0.43l-0,-13.75c-0,-0.35 0.15,-0.53 0.45,-0.53l3.39,0c0.28,0 0.42,0.16 0.42,0.48l-0,1.37c-0,0.15 0.05,0.22 0.14,0.22c0.06,0 0.12,-0.04 0.2,-0.11c0.77,-0.73 1.53,-1.28 2.3,-1.67c0.77,-0.38 1.58,-0.57 2.44,-0.57c1.36,0 2.44,0.4 3.23,1.2c0.79,0.8 1.19,1.88 1.19,3.22l-0,10.02c-0,0.45 -0.22,0.67 -0.67,0.67l-3.11,0c-0.21,0 -0.35,-0.04 -0.42,-0.13c-0.07,-0.09 -0.11,-0.23 -0.11,-0.43l-0,-9.46c-0,-0.63 -0.17,-1.12 -0.52,-1.47c-0.35,-0.34 -0.85,-0.52 -1.53,-0.52c-0.56,0 -1.08,0.14 -1.55,0.42c-0.47,0.28 -0.98,0.72 -1.53,1.32l-0,9.63c-0,0.22 -0.06,0.39 -0.17,0.49c-0.11,0.1 -0.3,0.15 -0.56,0.15l-3,0c-0.21,0.01 -0.36,-0.03 -0.45,-0.12Z" style="fill-rule:nonzero;"/><path d="M169.28,228.668c-0.71,0 -1.3,0.14 -1.76,0.41c-0.46,0.27 -0.7,0.64 -0.7,1.11c-0,0.26 0.11,0.5 0.32,0.71c0.21,0.21 0.63,0.4 1.25,0.55l3.22,0.78c1.47,0.35 2.56,0.92 3.25,1.69c0.69,0.78 1.04,1.69 1.04,2.73c-0,1.47 -0.62,2.64 -1.85,3.5c-1.23,0.86 -2.85,1.29 -4.84,1.29c-1.61,0 -3,-0.28 -4.17,-0.85c-1.18,-0.57 -2.01,-1.31 -2.49,-2.23c-0.09,-0.13 -0.14,-0.25 -0.14,-0.36c-0,-0.13 0.06,-0.22 0.2,-0.28l1.9,-0.98c0.15,-0.07 0.28,-0.11 0.39,-0.11c0.11,0 0.21,0.05 0.31,0.14c0.41,0.58 0.91,1.04 1.5,1.39c0.59,0.35 1.37,0.52 2.34,0.52c0.88,0 1.59,-0.13 2.14,-0.39c0.55,-0.26 0.83,-0.64 0.83,-1.15c-0,-0.34 -0.14,-0.62 -0.42,-0.84c-0.28,-0.22 -0.76,-0.42 -1.43,-0.59l-2.88,-0.62c-2.84,-0.62 -4.26,-2.03 -4.26,-4.23c-0,-0.93 0.26,-1.76 0.77,-2.49c0.51,-0.73 1.25,-1.3 2.2,-1.71c0.95,-0.41 2.07,-0.62 3.36,-0.62c1.36,0 2.57,0.25 3.63,0.76c1.05,0.5 1.81,1.14 2.28,1.9c0.11,0.15 0.17,0.28 0.17,0.39c-0,0.11 -0.07,0.21 -0.2,0.28l-2.02,0.98c-0.06,0.04 -0.13,0.06 -0.22,0.06c-0.17,0 -0.31,-0.07 -0.42,-0.22c-0.79,-1.02 -1.88,-1.52 -3.3,-1.52Z" style="fill-rule:nonzero;"/><path d="M183.36,229.288c-0.21,0 -0.31,0.11 -0.31,0.34l-0,6.75c-0,0.63 0.15,1.09 0.45,1.36c0.3,0.27 0.77,0.41 1.43,0.41l1.51,0c0.13,0 0.23,0.04 0.31,0.13c0.08,0.09 0.11,0.2 0.11,0.35l-0.03,1.71c-0,0.37 -0.21,0.6 -0.62,0.67c-0.78,0.11 -1.9,0.17 -3.33,0.17c-1.31,0 -2.32,-0.31 -3.05,-0.92c-0.73,-0.61 -1.09,-1.51 -1.09,-2.69l-0,-7.84c-0,-0.28 -0.12,-0.42 -0.36,-0.42l-1.71,0c-0.35,0 -0.53,-0.16 -0.53,-0.48l-0,-2.07c-0,-0.28 0.17,-0.42 0.5,-0.42l1.93,0c0.15,0 0.24,-0.1 0.28,-0.31l0.39,-4.26c0.04,-0.32 0.18,-0.48 0.42,-0.48l3.05,0c0.13,0 0.24,0.05 0.32,0.14c0.08,0.09 0.13,0.22 0.13,0.39l-0,4.2c-0,0.19 0.09,0.28 0.28,0.28l2.94,0c0.34,0 0.5,0.15 0.5,0.45l-0,2.07c-0,0.32 -0.19,0.48 -0.56,0.48l-2.96,0l0,-0.01Z" style="fill-rule:nonzero;"/><path d="M192.46,223.828c-0,0.47 -0.25,0.7 -0.76,0.7l-3.02,0c-0.22,0 -0.38,-0.05 -0.48,-0.15c-0.1,-0.1 -0.14,-0.27 -0.14,-0.49l-0,-2.95c-0,-0.37 0.16,-0.56 0.48,-0.56l3.47,0c0.13,0 0.24,0.05 0.32,0.14c0.08,0.09 0.13,0.22 0.13,0.39l-0,2.92Zm-0.05,16.66c-0,0.24 -0.06,0.42 -0.17,0.52c-0.11,0.1 -0.31,0.15 -0.59,0.15l-2.94,0c-0.22,0 -0.38,-0.05 -0.48,-0.14c-0.09,-0.09 -0.14,-0.24 -0.14,-0.45l-0,-13.72c-0,-0.35 0.16,-0.53 0.48,-0.53l3.42,0c0.28,0 0.42,0.16 0.42,0.48l-0,13.69Z" style="fill-rule:nonzero;"/><path d="M200.64,229.288c-0.21,0 -0.31,0.11 -0.31,0.34l-0,6.75c-0,0.63 0.15,1.09 0.45,1.36c0.3,0.27 0.77,0.41 1.43,0.41l1.51,0c0.13,0 0.23,0.04 0.31,0.13c0.08,0.09 0.11,0.2 0.11,0.35l-0.03,1.71c-0,0.37 -0.21,0.6 -0.62,0.67c-0.78,0.11 -1.9,0.17 -3.33,0.17c-1.31,0 -2.32,-0.31 -3.05,-0.92c-0.73,-0.61 -1.09,-1.51 -1.09,-2.69l-0,-7.84c-0,-0.28 -0.12,-0.42 -0.36,-0.42l-1.71,0c-0.35,0 -0.53,-0.16 -0.53,-0.48l-0,-2.07c-0,-0.28 0.17,-0.42 0.5,-0.42l1.93,0c0.15,0 0.24,-0.1 0.28,-0.31l0.39,-4.26c0.04,-0.32 0.18,-0.48 0.42,-0.48l3.05,0c0.13,0 0.24,0.05 0.32,0.14c0.08,0.09 0.13,0.22 0.13,0.39l-0,4.2c-0,0.19 0.09,0.28 0.28,0.28l2.94,0c0.34,0 0.5,0.15 0.5,0.45l-0,2.07c-0,0.32 -0.19,0.48 -0.56,0.48l-2.96,0l0,-0.01Z" style="fill-rule:nonzero;"/><path d="M214.55,236.678l-0,-9.72c-0,-0.43 0.24,-0.64 0.73,-0.64l3.02,0c0.22,0 0.38,0.05 0.46,0.14c0.08,0.09 0.13,0.24 0.13,0.45l-0.06,13.75c-0,0.15 -0.04,0.27 -0.13,0.36c-0.09,0.09 -0.19,0.14 -0.32,0.14l-3.33,0c-0.28,0 -0.42,-0.16 -0.42,-0.48l-0,-1.37c-0,-0.11 -0.03,-0.18 -0.08,-0.2c-0.06,-0.02 -0.13,0.01 -0.22,0.08c-0.78,0.8 -1.56,1.38 -2.32,1.72c-0.77,0.35 -1.6,0.52 -2.49,0.52c-1.25,0 -2.28,-0.41 -3.08,-1.22c-0.8,-0.81 -1.2,-1.91 -1.2,-3.29l-0,-9.94c-0,-0.45 0.22,-0.67 0.67,-0.67l3.11,0c0.35,0 0.53,0.2 0.53,0.59l-0,9.41c-0,0.62 0.18,1.11 0.53,1.47c0.35,0.36 0.83,0.55 1.43,0.55c1.02,0 2.04,-0.55 3.04,-1.65Z" style="fill-rule:nonzero;"/><path d="M227.07,229.288c-0.21,0 -0.31,0.11 -0.31,0.34l-0,6.75c-0,0.63 0.15,1.09 0.45,1.36c0.3,0.27 0.77,0.41 1.43,0.41l1.51,0c0.13,0 0.23,0.04 0.31,0.13c0.08,0.09 0.11,0.2 0.11,0.35l-0.03,1.71c-0,0.37 -0.21,0.6 -0.62,0.67c-0.78,0.11 -1.9,0.17 -3.33,0.17c-1.31,0 -2.32,-0.31 -3.05,-0.92c-0.73,-0.61 -1.09,-1.51 -1.09,-2.69l-0,-7.84c-0,-0.28 -0.12,-0.42 -0.36,-0.42l-1.71,0c-0.35,0 -0.53,-0.16 -0.53,-0.48l-0,-2.07c-0,-0.28 0.17,-0.42 0.5,-0.42l1.93,0c0.15,0 0.24,-0.1 0.28,-0.31l0.39,-4.26c0.04,-0.32 0.18,-0.48 0.42,-0.48l3.05,0c0.13,0 0.24,0.05 0.32,0.14c0.08,0.09 0.13,0.22 0.13,0.39l-0,4.2c-0,0.19 0.09,0.28 0.28,0.28l2.94,0c0.34,0 0.5,0.15 0.5,0.45l-0,2.07c-0,0.32 -0.19,0.48 -0.56,0.48l-2.96,0l0,-0.01Z" style="fill-rule:nonzero;"/><path d="M236.16,237.528c0.7,0.64 1.57,0.97 2.62,0.97c0.67,0 1.29,-0.14 1.86,-0.43c0.57,-0.29 1.14,-0.77 1.72,-1.44c0.07,-0.07 0.15,-0.11 0.22,-0.11c0.06,0 0.15,0.03 0.28,0.08l2.02,0.84c0.13,0.06 0.2,0.15 0.2,0.28c-0,0.09 -0.04,0.19 -0.11,0.28c-0.9,1.27 -1.86,2.16 -2.88,2.67c-1.03,0.51 -2.31,0.77 -3.84,0.77c-1.44,0 -2.73,-0.32 -3.89,-0.95c-1.16,-0.63 -2.06,-1.52 -2.72,-2.65c-0.65,-1.13 -0.98,-2.42 -0.98,-3.88c-0,-1.57 0.34,-2.95 1.01,-4.16c0.67,-1.2 1.58,-2.13 2.73,-2.79c1.15,-0.66 2.4,-0.98 3.77,-0.98c1.42,0 2.68,0.31 3.78,0.94c1.1,0.62 1.96,1.53 2.58,2.7c0.62,1.18 0.92,2.58 0.92,4.2c-0,0.24 -0.02,0.41 -0.07,0.5c-0.05,0.09 -0.18,0.15 -0.41,0.17l-9.52,0c-0.22,0 -0.34,0.15 -0.34,0.45c-0,1.05 0.35,1.9 1.05,2.54Zm4.57,-5.33c0.21,0 0.34,-0.02 0.39,-0.07c0.06,-0.05 0.08,-0.15 0.08,-0.32c-0,-0.49 -0.11,-0.97 -0.34,-1.46c-0.22,-0.49 -0.55,-0.89 -0.98,-1.2c-0.43,-0.32 -0.95,-0.48 -1.57,-0.48c-0.93,0 -1.7,0.33 -2.3,0.98c-0.6,0.65 -0.89,1.49 -0.87,2.52l5.59,0.03Z" style="fill-rule:nonzero;"/><path d="M264.93,226.458c0.09,0.09 0.14,0.21 0.14,0.34l-0,2.07c-0,0.28 -0.16,0.42 -0.48,0.42l-2.32,0c-0.19,0 -0.28,0.1 -0.28,0.31l-0,11.03c-0,0.36 -0.15,0.53 -0.45,0.53l-3.44,0c-0.28,0 -0.42,-0.16 -0.42,-0.48l-0,-11.14c-0,-0.17 -0.08,-0.25 -0.22,-0.25l-2.02,0c-0.34,0 -0.5,-0.14 -0.5,-0.42l-0,-2.07c-0,-0.13 0.05,-0.24 0.14,-0.34c0.09,-0.09 0.22,-0.14 0.39,-0.14l1.88,0c0.13,0 0.22,-0.03 0.27,-0.1c0.05,-0.06 0.07,-0.17 0.07,-0.32l-0,-1.71c-0,-1.19 0.35,-2.13 1.06,-2.8c0.71,-0.67 1.71,-1.01 3,-1.01l2.83,0c0.41,0 0.62,0.2 0.62,0.59l0.03,1.82c-0,0.32 -0.14,0.48 -0.42,0.48l-1.51,0c-0.41,0 -0.75,0.15 -1.01,0.46c-0.26,0.31 -0.39,0.7 -0.39,1.19l-0,1.09c-0,0.21 0.11,0.31 0.34,0.31l2.32,0c0.14,0 0.27,0.05 0.37,0.14Z" style="fill:#878585;fill-rule:nonzero;"/><path d="M268.41,240.468c-1.13,-0.64 -2.01,-1.54 -2.65,-2.7c-0.64,-1.16 -0.95,-2.47 -0.95,-3.95c-0,-1.53 0.32,-2.88 0.97,-4.06c0.64,-1.18 1.54,-2.09 2.69,-2.74c1.15,-0.65 2.44,-0.98 3.88,-0.98c1.47,0 2.78,0.33 3.92,0.99c1.14,0.66 2.02,1.58 2.65,2.76c0.63,1.18 0.94,2.51 0.94,4c-0,1.47 -0.32,2.79 -0.95,3.95c-0.63,1.16 -1.52,2.06 -2.66,2.72c-1.14,0.65 -2.45,0.98 -3.92,0.98c-1.49,0 -2.79,-0.32 -3.92,-0.97Zm6.27,-3.11c0.53,-0.81 0.8,-2.02 0.8,-3.63c-0,-1.62 -0.27,-2.85 -0.8,-3.68c-0.53,-0.83 -1.31,-1.25 -2.34,-1.25c-1.03,0 -1.81,0.42 -2.35,1.25c-0.54,0.83 -0.81,2.06 -0.81,3.68c-0,1.59 0.27,2.79 0.81,3.61c0.54,0.82 1.33,1.23 2.35,1.23c1.03,0.01 1.81,-0.39 2.34,-1.21Z" style="fill:#878585;fill-rule:nonzero;"/><path d="M281.14,240.598l0,-13.75c0,-0.35 0.15,-0.53 0.45,-0.53l3.28,0c0.3,0 0.45,0.16 0.45,0.48l0,1.65c0,0.08 0.02,0.13 0.06,0.17c0.04,0.04 0.07,0.06 0.11,0.06c0.06,0 0.13,-0.05 0.22,-0.14c0.56,-0.75 1.22,-1.35 1.99,-1.81c0.77,-0.46 1.49,-0.69 2.18,-0.69c0.67,0 1.01,0.16 1.01,0.48l0,3.25c0,0.13 -0.04,0.23 -0.11,0.31c-0.07,0.08 -0.18,0.09 -0.31,0.06c-0.6,-0.15 -1.25,-0.22 -1.96,-0.22c-0.47,0 -0.94,0.12 -1.41,0.35c-0.48,0.23 -0.87,0.54 -1.18,0.92c-0.31,0.38 -0.46,0.77 -0.46,1.16l0,8.18c0,0.43 -0.24,0.64 -0.73,0.64l-3,0c-0.4,-0.01 -0.59,-0.2 -0.59,-0.57Z" style="fill:#878585;fill-rule:nonzero;"/><path d="M309.67,220.908c1.19,0.54 2.18,1.28 2.95,2.21c0.77,0.93 1.26,1.98 1.47,3.14c0.04,0.13 0.06,0.28 0.06,0.45c-0,0.11 -0.03,0.19 -0.08,0.22c-0.06,0.04 -0.14,0.07 -0.25,0.08l-3.79,0.26c-0.17,0 -0.28,-0.03 -0.32,-0.08c-0.05,-0.06 -0.09,-0.17 -0.13,-0.34c-0.21,-1.03 -0.62,-1.84 -1.23,-2.44c-0.62,-0.6 -1.44,-0.9 -2.46,-0.9c-2.99,0 -4.48,2.39 -4.48,7.17c-0,2.48 0.37,4.29 1.12,5.43c0.75,1.14 1.89,1.71 3.42,1.71c1.12,0 2.07,-0.28 2.84,-0.84c0.77,-0.56 1.4,-1.47 1.89,-2.74c0.06,-0.13 0.18,-0.2 0.36,-0.2c0.11,0 0.2,0.01 0.25,0.03l2.74,0.59c0.26,0.09 0.36,0.33 0.31,0.7c-0.19,0.8 -0.62,1.67 -1.3,2.6c-0.68,0.93 -1.64,1.75 -2.87,2.44c-1.23,0.69 -2.71,1.04 -4.42,1.04c-1.92,0 -3.6,-0.45 -5.03,-1.36c-1.43,-0.91 -2.52,-2.17 -3.29,-3.81c-0.77,-1.63 -1.15,-3.52 -1.15,-5.67c-0,-2.13 0.38,-3.99 1.15,-5.57c0.77,-1.59 1.86,-2.8 3.29,-3.65c1.43,-0.85 3.1,-1.27 5.03,-1.27c1.42,-0.01 2.72,0.26 3.92,0.8Z" style="fill-rule:nonzero;"/><path d="M320.11,240.488c-0,0.24 -0.06,0.42 -0.17,0.52c-0.11,0.1 -0.31,0.15 -0.59,0.15l-2.97,0c-0.22,0 -0.38,-0.05 -0.48,-0.14c-0.09,-0.09 -0.14,-0.24 -0.14,-0.45l0.08,-19.66c-0,-0.35 0.15,-0.53 0.45,-0.53l3.39,0c0.28,0 0.42,0.17 0.42,0.5l-0,19.61l0.01,0Z" style="fill-rule:nonzero;"/><path d="M326.47,223.828c-0,0.47 -0.25,0.7 -0.76,0.7l-3.02,0c-0.22,0 -0.38,-0.05 -0.48,-0.15c-0.1,-0.1 -0.14,-0.27 -0.14,-0.49l-0,-2.95c-0,-0.37 0.16,-0.56 0.48,-0.56l3.47,0c0.13,0 0.24,0.05 0.32,0.14c0.08,0.09 0.13,0.22 0.13,0.39l-0,2.92Zm-0.06,16.66c-0,0.24 -0.06,0.42 -0.17,0.52c-0.11,0.1 -0.31,0.15 -0.59,0.15l-2.94,0c-0.22,0 -0.38,-0.05 -0.48,-0.14c-0.09,-0.09 -0.14,-0.24 -0.14,-0.45l-0,-13.72c-0,-0.35 0.16,-0.53 0.48,-0.53l3.42,0c0.28,0 0.42,0.16 0.42,0.48l-0,13.69Z" style="fill-rule:nonzero;"/><path d="M328.54,241.028c-0.09,-0.08 -0.14,-0.23 -0.14,-0.43l-0,-13.75c-0,-0.35 0.15,-0.53 0.45,-0.53l3.39,0c0.28,0 0.42,0.16 0.42,0.48l-0,1.37c-0,0.15 0.05,0.22 0.14,0.22c0.06,0 0.12,-0.04 0.2,-0.11c0.77,-0.73 1.53,-1.28 2.3,-1.67c0.77,-0.38 1.58,-0.57 2.44,-0.57c1.36,0 2.44,0.4 3.23,1.2c0.79,0.8 1.19,1.88 1.19,3.22l-0,10.02c-0,0.45 -0.22,0.67 -0.67,0.67l-3.11,0c-0.21,0 -0.35,-0.04 -0.42,-0.13c-0.07,-0.09 -0.11,-0.23 -0.11,-0.43l-0,-9.46c-0,-0.63 -0.17,-1.12 -0.52,-1.47c-0.35,-0.34 -0.85,-0.52 -1.53,-0.52c-0.56,0 -1.08,0.14 -1.55,0.42c-0.47,0.28 -0.98,0.72 -1.53,1.32l-0,9.63c-0,0.22 -0.06,0.39 -0.17,0.49c-0.11,0.1 -0.3,0.15 -0.56,0.15l-3,0c-0.21,0.01 -0.36,-0.03 -0.45,-0.12Z" style="fill-rule:nonzero;"/><path d="M348.34,223.828c-0,0.47 -0.25,0.7 -0.76,0.7l-3.02,0c-0.22,0 -0.38,-0.05 -0.48,-0.15c-0.1,-0.1 -0.14,-0.27 -0.14,-0.49l-0,-2.95c-0,-0.37 0.16,-0.56 0.48,-0.56l3.47,0c0.13,0 0.24,0.05 0.32,0.14c0.08,0.09 0.13,0.22 0.13,0.39l-0,2.92Zm-0.06,16.66c-0,0.24 -0.06,0.42 -0.17,0.52c-0.11,0.1 -0.31,0.15 -0.59,0.15l-2.94,0c-0.22,0 -0.38,-0.05 -0.48,-0.14c-0.09,-0.09 -0.14,-0.24 -0.14,-0.45l-0,-13.72c-0,-0.35 0.16,-0.53 0.48,-0.53l3.42,0c0.28,0 0.42,0.16 0.42,0.48l-0,13.69Z" style="fill-rule:nonzero;"/><path d="M361.17,227.278c1.09,0.83 1.82,1.83 2.2,3.01c0.04,0.15 0.06,0.24 0.06,0.28c-0,0.17 -0.13,0.27 -0.39,0.31l-2.94,0.28l-0.08,0c-0.17,0 -0.28,-0.1 -0.34,-0.31c-0.34,-0.67 -0.68,-1.17 -1.02,-1.5c-0.34,-0.33 -0.84,-0.49 -1.47,-0.49c-1.01,0 -1.8,0.41 -2.37,1.23c-0.57,0.82 -0.85,2.03 -0.85,3.64c-0,1.64 0.3,2.88 0.91,3.7c0.61,0.82 1.45,1.23 2.53,1.23c0.77,0 1.39,-0.2 1.88,-0.59c0.49,-0.39 0.96,-0.99 1.43,-1.79c0.05,-0.09 0.12,-0.14 0.18,-0.15c0.06,-0.01 0.16,0 0.29,0.01l2.07,0.48c0.17,0.02 0.25,0.11 0.25,0.28l-0.06,0.25c-0.37,1.08 -1.1,2.07 -2.17,2.95c-1.07,0.89 -2.49,1.33 -4.24,1.33c-1.44,0 -2.72,-0.32 -3.85,-0.97c-1.13,-0.64 -2.01,-1.54 -2.65,-2.7c-0.64,-1.16 -0.95,-2.48 -0.95,-3.98c-0,-1.51 0.32,-2.86 0.97,-4.03c0.64,-1.18 1.53,-2.09 2.66,-2.74c1.13,-0.65 2.4,-0.98 3.82,-0.98c1.67,0.01 3.04,0.42 4.13,1.25Z" style="fill-rule:nonzero;"/><path d="M368.36,241.438c-1.4,0 -2.51,-0.38 -3.33,-1.13c-0.82,-0.76 -1.23,-1.74 -1.23,-2.95c-0,-1.57 0.72,-2.83 2.16,-3.78c1.44,-0.95 3.42,-1.46 5.94,-1.51l1.01,-0.08c0.11,0 0.21,-0.03 0.29,-0.1c0.08,-0.07 0.13,-0.16 0.13,-0.29l-0,-0.59c-0,-0.73 -0.21,-1.29 -0.62,-1.68c-0.41,-0.39 -1,-0.59 -1.76,-0.59c-1.31,0 -2.28,0.56 -2.91,1.68c-0.08,0.19 -0.2,0.28 -0.36,0.28c-0.09,0 -0.18,-0.01 -0.25,-0.03l-2.8,-0.64c-0.17,-0.04 -0.25,-0.14 -0.25,-0.31c-0,-0.11 0.04,-0.25 0.11,-0.42c0.45,-1.08 1.25,-1.89 2.39,-2.44c1.15,-0.54 2.57,-0.81 4.27,-0.81c2.22,0 3.83,0.41 4.82,1.22c0.99,0.81 1.48,1.96 1.48,3.46l-0,9.83c-0,0.22 -0.04,0.38 -0.11,0.48c-0.08,0.09 -0.21,0.14 -0.42,0.14l-2.88,0c-0.19,0 -0.32,-0.07 -0.41,-0.2c-0.08,-0.13 -0.15,-0.33 -0.18,-0.59l-0.03,-0.62c-0.02,-0.17 -0.09,-0.25 -0.22,-0.25c-0.07,0 -0.21,0.08 -0.42,0.22c-1.26,1.13 -2.73,1.7 -4.42,1.7Zm4.87,-7.25c-0.06,-0.07 -0.17,-0.11 -0.34,-0.11l-0.78,0.06c-1.08,0.06 -2.04,0.31 -2.87,0.77c-0.83,0.46 -1.25,1.09 -1.25,1.89c0,0.56 0.2,1 0.59,1.33c0.39,0.33 0.93,0.49 1.62,0.49c0.86,0 1.59,-0.25 2.18,-0.76c0.62,-0.49 0.92,-0.98 0.92,-1.48l0,-1.82c0.01,-0.18 -0.02,-0.3 -0.07,-0.37Z" style="fill-rule:nonzero;"/><path d="M383.56,240.488c-0,0.24 -0.06,0.42 -0.17,0.52c-0.11,0.1 -0.31,0.15 -0.59,0.15l-2.97,0c-0.22,0 -0.38,-0.05 -0.48,-0.14c-0.1,-0.09 -0.14,-0.24 -0.14,-0.45l0.08,-19.66c-0,-0.35 0.15,-0.53 0.45,-0.53l3.39,0c0.28,0 0.42,0.17 0.42,0.5l-0,19.61l0.01,0Z" style="fill-rule:nonzero;"/><path d="M393.97,241.438c-1.4,0 -2.51,-0.38 -3.33,-1.13c-0.82,-0.76 -1.23,-1.74 -1.23,-2.95c-0,-1.57 0.72,-2.83 2.16,-3.78c1.44,-0.95 3.42,-1.46 5.94,-1.51l1.01,-0.08c0.11,0 0.21,-0.03 0.29,-0.1c0.08,-0.07 0.13,-0.16 0.13,-0.29l-0,-0.59c-0,-0.73 -0.21,-1.29 -0.62,-1.68c-0.41,-0.39 -1,-0.59 -1.76,-0.59c-1.31,0 -2.28,0.56 -2.91,1.68c-0.08,0.19 -0.2,0.28 -0.36,0.28c-0.09,0 -0.18,-0.01 -0.25,-0.03l-2.8,-0.64c-0.17,-0.04 -0.25,-0.14 -0.25,-0.31c-0,-0.11 0.04,-0.25 0.11,-0.42c0.45,-1.08 1.25,-1.89 2.39,-2.44c1.15,-0.54 2.57,-0.81 4.27,-0.81c2.22,0 3.83,0.41 4.82,1.22c0.99,0.81 1.48,1.96 1.48,3.46l-0,9.83c-0,0.22 -0.04,0.38 -0.11,0.48c-0.08,0.09 -0.21,0.14 -0.42,0.14l-2.88,0c-0.19,0 -0.32,-0.07 -0.41,-0.2c-0.08,-0.13 -0.15,-0.33 -0.18,-0.59l-0.03,-0.62c-0.02,-0.17 -0.09,-0.25 -0.22,-0.25c-0.07,0 -0.21,0.08 -0.42,0.22c-1.25,1.13 -2.72,1.7 -4.42,1.7Zm4.88,-7.25c-0.06,-0.07 -0.17,-0.11 -0.34,-0.11l-0.78,0.06c-1.08,0.06 -2.04,0.31 -2.87,0.77c-0.83,0.46 -1.25,1.09 -1.25,1.89c0,0.56 0.2,1 0.59,1.33c0.39,0.33 0.93,0.49 1.62,0.49c0.86,0 1.59,-0.25 2.18,-0.76c0.62,-0.49 0.92,-0.98 0.92,-1.48l0,-1.82c0.01,-0.18 -0.02,-0.3 -0.07,-0.37Z" style="fill:#878585;fill-rule:nonzero;"/><path d="M404.98,241.028c-0.09,-0.08 -0.14,-0.23 -0.14,-0.43l-0,-13.75c-0,-0.35 0.15,-0.53 0.45,-0.53l3.39,0c0.28,0 0.42,0.16 0.42,0.48l-0,1.37c-0,0.15 0.05,0.22 0.14,0.22c0.06,0 0.12,-0.04 0.2,-0.11c0.77,-0.73 1.53,-1.28 2.3,-1.67c0.77,-0.39 1.58,-0.57 2.44,-0.57c1.36,0 2.44,0.4 3.23,1.2c0.79,0.8 1.19,1.88 1.19,3.22l-0,10.02c-0,0.45 -0.22,0.67 -0.67,0.67l-3.11,0c-0.21,0 -0.35,-0.04 -0.42,-0.13c-0.07,-0.09 -0.11,-0.23 -0.11,-0.43l-0,-9.46c-0,-0.63 -0.17,-1.12 -0.52,-1.47c-0.35,-0.34 -0.85,-0.52 -1.53,-0.52c-0.56,0 -1.08,0.14 -1.55,0.42c-0.47,0.28 -0.98,0.72 -1.53,1.32l-0,9.63c-0,0.22 -0.06,0.39 -0.17,0.49c-0.11,0.1 -0.3,0.15 -0.56,0.15l-3,0c-0.21,0.01 -0.36,-0.03 -0.45,-0.12Z" style="fill:#878585;fill-rule:nonzero;"/><path d="M430.12,240.598l-0,-0.78c-0,-0.15 -0.05,-0.22 -0.14,-0.22c-0.06,0 -0.14,0.04 -0.25,0.11c-0.54,0.52 -1.13,0.94 -1.78,1.26c-0.64,0.32 -1.41,0.48 -2.31,0.48c-1.75,0 -3.17,-0.65 -4.24,-1.96c-1.07,-1.31 -1.61,-3.18 -1.61,-5.63c-0,-1.53 0.28,-2.89 0.83,-4.07c0.55,-1.18 1.29,-2.1 2.23,-2.76c0.94,-0.66 1.96,-0.98 3.08,-0.98c0.73,0 1.39,0.12 1.97,0.36c0.58,0.24 1.15,0.62 1.69,1.12c0.13,0.09 0.22,0.14 0.28,0.14c0.13,0 0.2,-0.12 0.2,-0.36l-0,-6.42c-0,-0.34 0.15,-0.5 0.45,-0.5l3.42,0c0.13,0 0.24,0.05 0.32,0.14c0.08,0.09 0.13,0.22 0.13,0.39l-0,19.66c-0,0.21 -0.05,0.35 -0.14,0.45c-0.09,0.09 -0.26,0.14 -0.5,0.14l-3.02,0c-0.41,-0.01 -0.61,-0.2 -0.61,-0.57Zm-1.33,-11.45c-0.42,-0.22 -0.89,-0.34 -1.41,-0.34c-0.99,0 -1.77,0.41 -2.35,1.22c-0.58,0.81 -0.87,2.07 -0.87,3.77c-0,1.72 0.28,2.97 0.84,3.77c0.56,0.79 1.33,1.19 2.32,1.19c0.75,0 1.39,-0.25 1.93,-0.74c0.54,-0.49 0.81,-1.07 0.81,-1.72l-0,-6.1c-0.42,-0.48 -0.85,-0.83 -1.27,-1.05Z" style="fill:#878585;fill-rule:nonzero;"/><path d="M440.37,220.888c-0,-0.15 0.05,-0.27 0.15,-0.36c0.1,-0.09 0.24,-0.14 0.41,-0.14l16.07,0c0.37,0 0.56,0.17 0.56,0.5l-0,2.6c-0,0.28 -0.17,0.42 -0.5,0.42l-5.24,0c-0.21,0 -0.31,0.09 -0.31,0.28l-0,16.44c-0,0.36 -0.16,0.53 -0.48,0.53l-4,0c-0.28,0 -0.42,-0.16 -0.42,-0.48l-0,-16.41c-0,-0.13 -0.02,-0.22 -0.07,-0.28c-0.05,-0.06 -0.13,-0.08 -0.24,-0.08l-5.4,0c-0.35,0 -0.53,-0.14 -0.53,-0.42l-0,-2.6Z" style="fill-rule:nonzero;"/><path d="M456.5,240.598l0,-13.75c0,-0.35 0.15,-0.53 0.45,-0.53l3.28,0c0.3,0 0.45,0.16 0.45,0.48l0,1.65c0,0.08 0.02,0.13 0.06,0.17c0.04,0.04 0.08,0.06 0.11,0.06c0.06,0 0.13,-0.05 0.22,-0.14c0.56,-0.75 1.22,-1.35 1.99,-1.81c0.77,-0.46 1.49,-0.69 2.18,-0.69c0.67,0 1.01,0.16 1.01,0.48l0,3.25c0,0.13 -0.04,0.23 -0.11,0.31c-0.07,0.08 -0.18,0.09 -0.31,0.06c-0.6,-0.15 -1.25,-0.22 -1.96,-0.22c-0.47,0 -0.94,0.12 -1.41,0.35c-0.48,0.23 -0.87,0.54 -1.18,0.92c-0.31,0.38 -0.46,0.77 -0.46,1.16l0,8.18c0,0.43 -0.24,0.64 -0.73,0.64l-3,0c-0.4,-0.01 -0.59,-0.2 -0.59,-0.57Z" style="fill-rule:nonzero;"/><path d="M470.89,241.438c-1.4,0 -2.51,-0.38 -3.33,-1.13c-0.82,-0.76 -1.23,-1.74 -1.23,-2.95c0,-1.57 0.72,-2.83 2.16,-3.78c1.44,-0.95 3.42,-1.46 5.94,-1.51l1.01,-0.08c0.11,0 0.21,-0.03 0.29,-0.1c0.08,-0.07 0.13,-0.16 0.13,-0.29l0,-0.59c0,-0.73 -0.21,-1.29 -0.62,-1.68c-0.41,-0.39 -1,-0.59 -1.76,-0.59c-1.31,0 -2.28,0.56 -2.91,1.68c-0.08,0.19 -0.2,0.28 -0.36,0.28c-0.09,0 -0.18,-0.01 -0.25,-0.03l-2.8,-0.64c-0.17,-0.04 -0.25,-0.14 -0.25,-0.31c0,-0.11 0.04,-0.25 0.11,-0.42c0.45,-1.08 1.25,-1.89 2.39,-2.44c1.15,-0.54 2.57,-0.81 4.27,-0.81c2.22,0 3.83,0.41 4.82,1.22c0.99,0.81 1.48,1.96 1.48,3.46l0,9.83c0,0.22 -0.04,0.38 -0.11,0.48c-0.08,0.09 -0.21,0.14 -0.42,0.14l-2.88,0c-0.19,0 -0.32,-0.07 -0.41,-0.2c-0.08,-0.13 -0.15,-0.33 -0.18,-0.59l-0.03,-0.62c-0.02,-0.17 -0.09,-0.25 -0.22,-0.25c-0.07,0 -0.21,0.08 -0.42,0.22c-1.26,1.13 -2.72,1.7 -4.42,1.7Zm4.87,-7.25c-0.06,-0.07 -0.17,-0.11 -0.34,-0.11l-0.78,0.06c-1.08,0.06 -2.04,0.31 -2.87,0.77c-0.83,0.46 -1.25,1.09 -1.25,1.89c0,0.56 0.2,1 0.59,1.33c0.39,0.33 0.93,0.49 1.62,0.49c0.86,0 1.59,-0.25 2.18,-0.76c0.62,-0.49 0.92,-0.98 0.92,-1.48l0,-1.82c0.02,-0.18 -0.01,-0.3 -0.07,-0.37Z" style="fill-rule:nonzero;"/><path d="M481.89,241.028c-0.09,-0.08 -0.14,-0.23 -0.14,-0.43l0,-13.75c0,-0.35 0.15,-0.53 0.45,-0.53l3.39,0c0.28,0 0.42,0.16 0.42,0.48l0,1.37c0,0.15 0.05,0.22 0.14,0.22c0.06,0 0.12,-0.04 0.2,-0.11c0.77,-0.73 1.53,-1.28 2.3,-1.67c0.77,-0.39 1.58,-0.57 2.44,-0.57c1.36,0 2.44,0.4 3.23,1.2c0.79,0.8 1.19,1.88 1.19,3.22l0,10.02c0,0.45 -0.22,0.67 -0.67,0.67l-3.11,0c-0.21,0 -0.35,-0.04 -0.42,-0.13c-0.07,-0.09 -0.11,-0.23 -0.11,-0.43l0,-9.46c0,-0.63 -0.17,-1.12 -0.52,-1.47c-0.35,-0.34 -0.85,-0.52 -1.53,-0.52c-0.56,0 -1.08,0.14 -1.55,0.42c-0.47,0.28 -0.98,0.72 -1.53,1.32l0,9.63c0,0.22 -0.06,0.39 -0.17,0.49c-0.11,0.1 -0.3,0.15 -0.56,0.15l-3,0c-0.2,0.01 -0.35,-0.03 -0.45,-0.12Z" style="fill-rule:nonzero;"/><path d="M503.2,228.668c-0.71,0 -1.3,0.14 -1.76,0.41c-0.47,0.27 -0.7,0.64 -0.7,1.11c0,0.26 0.11,0.5 0.32,0.71c0.21,0.21 0.63,0.4 1.25,0.55l3.22,0.78c1.47,0.35 2.56,0.92 3.25,1.69c0.69,0.78 1.04,1.69 1.04,2.73c0,1.47 -0.62,2.64 -1.85,3.5c-1.23,0.86 -2.85,1.29 -4.84,1.29c-1.61,0 -3,-0.28 -4.17,-0.85c-1.18,-0.57 -2.01,-1.31 -2.49,-2.23c-0.09,-0.13 -0.14,-0.25 -0.14,-0.36c0,-0.13 0.07,-0.22 0.2,-0.28l1.9,-0.98c0.15,-0.07 0.28,-0.11 0.39,-0.11c0.11,0 0.21,0.05 0.31,0.14c0.41,0.58 0.91,1.04 1.5,1.39c0.59,0.35 1.37,0.52 2.34,0.52c0.88,0 1.59,-0.13 2.14,-0.39c0.55,-0.26 0.83,-0.64 0.83,-1.15c0,-0.34 -0.14,-0.62 -0.42,-0.84c-0.28,-0.22 -0.76,-0.42 -1.43,-0.59l-2.88,-0.62c-2.84,-0.62 -4.26,-2.03 -4.26,-4.23c0,-0.93 0.26,-1.76 0.77,-2.49c0.51,-0.73 1.25,-1.3 2.2,-1.71c0.95,-0.41 2.07,-0.62 3.36,-0.62c1.36,0 2.57,0.25 3.63,0.76c1.06,0.51 1.82,1.14 2.28,1.9c0.11,0.15 0.17,0.28 0.17,0.39c0,0.11 -0.07,0.21 -0.2,0.28l-2.02,0.98c-0.06,0.04 -0.13,0.06 -0.22,0.06c-0.17,0 -0.31,-0.07 -0.42,-0.22c-0.79,-1.02 -1.88,-1.52 -3.3,-1.52Z" style="fill-rule:nonzero;"/><path d="M515.38,240.488c0,0.24 -0.06,0.42 -0.17,0.52c-0.11,0.1 -0.31,0.15 -0.59,0.15l-2.97,0c-0.22,0 -0.38,-0.05 -0.48,-0.14c-0.1,-0.09 -0.14,-0.24 -0.14,-0.45l0.08,-19.66c0,-0.35 0.15,-0.53 0.45,-0.53l3.39,0c0.28,0 0.42,0.17 0.42,0.5l0,19.61l0.01,0Z" style="fill-rule:nonzero;"/><path d="M521.15,241.438c-1.4,0 -2.51,-0.38 -3.33,-1.13c-0.82,-0.76 -1.23,-1.74 -1.23,-2.95c0,-1.57 0.72,-2.83 2.16,-3.78c1.44,-0.95 3.42,-1.46 5.94,-1.51l1.01,-0.08c0.11,0 0.21,-0.03 0.29,-0.1c0.08,-0.07 0.13,-0.16 0.13,-0.29l0,-0.59c0,-0.73 -0.21,-1.29 -0.62,-1.68c-0.41,-0.39 -1,-0.59 -1.76,-0.59c-1.31,0 -2.28,0.56 -2.91,1.68c-0.08,0.19 -0.2,0.28 -0.36,0.28c-0.09,0 -0.18,-0.01 -0.25,-0.03l-2.8,-0.64c-0.17,-0.04 -0.25,-0.14 -0.25,-0.31c0,-0.11 0.04,-0.25 0.11,-0.42c0.45,-1.08 1.25,-1.89 2.39,-2.44c1.15,-0.54 2.57,-0.81 4.27,-0.81c2.22,0 3.83,0.41 4.82,1.22c0.99,0.81 1.48,1.96 1.48,3.46l0,9.83c0,0.22 -0.04,0.38 -0.11,0.48c-0.08,0.09 -0.21,0.14 -0.42,0.14l-2.88,0c-0.19,0 -0.32,-0.07 -0.41,-0.2c-0.08,-0.13 -0.15,-0.33 -0.18,-0.59l-0.03,-0.62c-0.02,-0.17 -0.09,-0.25 -0.22,-0.25c-0.07,0 -0.21,0.08 -0.42,0.22c-1.26,1.13 -2.72,1.7 -4.42,1.7Zm4.87,-7.25c-0.06,-0.07 -0.17,-0.11 -0.34,-0.11l-0.78,0.06c-1.08,0.06 -2.04,0.31 -2.87,0.77c-0.83,0.46 -1.25,1.09 -1.25,1.89c-0,0.56 0.2,1 0.59,1.33c0.39,0.33 0.93,0.49 1.62,0.49c0.86,0 1.59,-0.25 2.18,-0.76c0.62,-0.49 0.92,-0.98 0.92,-1.48l-0,-1.82c0.01,-0.18 -0.01,-0.3 -0.07,-0.37Z" style="fill-rule:nonzero;"/><path d="M538.26,229.288c-0.21,0 -0.31,0.11 -0.31,0.34l0,6.75c0,0.63 0.15,1.09 0.45,1.36c0.3,0.27 0.77,0.41 1.43,0.41l1.51,0c0.13,0 0.23,0.04 0.31,0.13c0.08,0.09 0.11,0.2 0.11,0.35l-0.03,1.71c0,0.37 -0.21,0.6 -0.62,0.67c-0.78,0.11 -1.89,0.17 -3.33,0.17c-1.31,0 -2.32,-0.31 -3.05,-0.92c-0.73,-0.62 -1.09,-1.51 -1.09,-2.69l0,-7.84c0,-0.28 -0.12,-0.42 -0.36,-0.42l-1.71,0c-0.35,0 -0.53,-0.16 -0.53,-0.48l0,-2.07c0,-0.28 0.17,-0.42 0.5,-0.42l1.93,0c0.15,0 0.24,-0.1 0.28,-0.31l0.39,-4.26c0.04,-0.32 0.18,-0.48 0.42,-0.48l3.05,0c0.13,0 0.24,0.05 0.32,0.14c0.08,0.09 0.13,0.22 0.13,0.39l0,4.2c0,0.19 0.09,0.28 0.28,0.28l2.94,0c0.34,0 0.5,0.15 0.5,0.45l0,2.07c0,0.32 -0.19,0.48 -0.56,0.48l-2.96,0l0,-0.01Z" style="fill-rule:nonzero;"/><path d="M547.36,223.828c0,0.47 -0.25,0.7 -0.76,0.7l-3.02,0c-0.22,0 -0.38,-0.05 -0.48,-0.15c-0.09,-0.1 -0.14,-0.27 -0.14,-0.49l0,-2.95c0,-0.37 0.16,-0.56 0.48,-0.56l3.47,0c0.13,0 0.24,0.05 0.32,0.14c0.08,0.09 0.13,0.22 0.13,0.39l0,2.92Zm-0.06,16.66c-0,0.24 -0.06,0.42 -0.17,0.52c-0.11,0.1 -0.31,0.15 -0.59,0.15l-2.94,0c-0.22,0 -0.38,-0.05 -0.48,-0.14c-0.1,-0.09 -0.14,-0.24 -0.14,-0.45l-0,-13.72c-0,-0.35 0.16,-0.53 0.48,-0.53l3.42,0c0.28,0 0.42,0.16 0.42,0.48l-0,13.69Z" style="fill-rule:nonzero;"/><path d="M552.21,240.468c-1.13,-0.64 -2.01,-1.54 -2.65,-2.7c-0.63,-1.16 -0.95,-2.47 -0.95,-3.95c-0,-1.53 0.32,-2.88 0.97,-4.06c0.64,-1.18 1.54,-2.09 2.69,-2.74c1.15,-0.65 2.44,-0.98 3.88,-0.98c1.47,0 2.78,0.33 3.92,0.99c1.14,0.66 2.02,1.58 2.65,2.76c0.63,1.18 0.94,2.51 0.94,4c-0,1.47 -0.32,2.79 -0.95,3.95c-0.63,1.16 -1.52,2.06 -2.66,2.72c-1.14,0.65 -2.45,0.98 -3.92,0.98c-1.47,0 -2.79,-0.32 -3.92,-0.97Zm6.28,-3.11c0.53,-0.81 0.8,-2.02 0.8,-3.63c-0,-1.62 -0.27,-2.85 -0.8,-3.68c-0.53,-0.83 -1.31,-1.25 -2.34,-1.25c-1.03,0 -1.81,0.42 -2.35,1.25c-0.54,0.83 -0.81,2.06 -0.81,3.68c-0,1.59 0.27,2.79 0.81,3.61c0.54,0.82 1.33,1.23 2.35,1.23c1.03,0.01 1.8,-0.39 2.34,-1.21Z" style="fill-rule:nonzero;"/><path d="M565.08,241.028c-0.09,-0.08 -0.14,-0.23 -0.14,-0.43l-0,-13.75c-0,-0.35 0.15,-0.53 0.45,-0.53l3.39,0c0.28,0 0.42,0.16 0.42,0.48l-0,1.37c-0,0.15 0.05,0.22 0.14,0.22c0.06,0 0.12,-0.04 0.2,-0.11c0.77,-0.73 1.53,-1.28 2.3,-1.67c0.77,-0.39 1.58,-0.57 2.44,-0.57c1.36,0 2.44,0.4 3.23,1.2c0.79,0.8 1.19,1.88 1.19,3.22l-0,10.02c-0,0.45 -0.22,0.67 -0.67,0.67l-3.11,0c-0.21,0 -0.35,-0.04 -0.42,-0.13c-0.07,-0.09 -0.11,-0.23 -0.11,-0.43l-0,-9.46c-0,-0.63 -0.17,-1.12 -0.52,-1.47c-0.35,-0.34 -0.85,-0.52 -1.53,-0.52c-0.56,0 -1.08,0.14 -1.55,0.42c-0.47,0.28 -0.98,0.72 -1.53,1.32l-0,9.63c-0,0.22 -0.06,0.39 -0.17,0.49c-0.11,0.1 -0.3,0.15 -0.56,0.15l-3,0c-0.21,0.01 -0.36,-0.03 -0.45,-0.12Z" style="fill-rule:nonzero;"/><path d="M584.29,241.438c-1.4,0 -2.51,-0.38 -3.33,-1.13c-0.82,-0.76 -1.23,-1.74 -1.23,-2.95c0,-1.57 0.72,-2.83 2.16,-3.78c1.44,-0.95 3.42,-1.46 5.94,-1.51l1.01,-0.08c0.11,0 0.21,-0.03 0.29,-0.1c0.08,-0.07 0.13,-0.16 0.13,-0.29l0,-0.59c0,-0.73 -0.21,-1.29 -0.62,-1.68c-0.41,-0.39 -1,-0.59 -1.76,-0.59c-1.31,0 -2.28,0.56 -2.91,1.68c-0.08,0.19 -0.2,0.28 -0.36,0.28c-0.09,0 -0.18,-0.01 -0.25,-0.03l-2.8,-0.64c-0.17,-0.04 -0.25,-0.14 -0.25,-0.31c0,-0.11 0.04,-0.25 0.11,-0.42c0.45,-1.08 1.25,-1.89 2.39,-2.44c1.15,-0.54 2.57,-0.81 4.27,-0.81c2.22,0 3.83,0.41 4.82,1.22c0.99,0.81 1.48,1.96 1.48,3.46l0,9.83c0,0.22 -0.04,0.38 -0.11,0.48c-0.08,0.09 -0.21,0.14 -0.42,0.14l-2.88,0c-0.19,0 -0.32,-0.07 -0.41,-0.2c-0.08,-0.13 -0.15,-0.33 -0.18,-0.59l-0.03,-0.62c-0.02,-0.17 -0.09,-0.25 -0.22,-0.25c-0.07,0 -0.21,0.08 -0.42,0.22c-1.26,1.13 -2.72,1.7 -4.42,1.7Zm4.87,-7.25c-0.06,-0.07 -0.17,-0.11 -0.34,-0.11l-0.78,0.06c-1.08,0.06 -2.04,0.31 -2.87,0.77c-0.83,0.46 -1.25,1.09 -1.25,1.89c-0,0.56 0.2,1 0.59,1.33c0.39,0.33 0.93,0.49 1.62,0.49c0.86,0 1.59,-0.25 2.18,-0.76c0.62,-0.49 0.92,-0.98 0.92,-1.48l-0,-1.82c0.01,-0.18 -0.01,-0.3 -0.07,-0.37Z" style="fill-rule:nonzero;"/><path d="M599.49,240.488c0,0.24 -0.06,0.42 -0.17,0.52c-0.11,0.1 -0.31,0.15 -0.59,0.15l-2.97,0c-0.22,0 -0.38,-0.05 -0.48,-0.14c-0.1,-0.09 -0.14,-0.24 -0.14,-0.45l0.08,-19.66c0,-0.35 0.15,-0.53 0.45,-0.53l3.39,0c0.28,0 0.42,0.17 0.42,0.5l0,19.61l0.01,0Z" style="fill-rule:nonzero;"/><path d="M623.46,240.648c-0,0.15 -0.05,0.27 -0.14,0.36c-0.09,0.09 -0.21,0.14 -0.34,0.14l-4.12,0c-0.32,0 -0.52,-0.17 -0.62,-0.5l-3.02,-7.84c-0.06,-0.15 -0.14,-0.25 -0.25,-0.31c-0.11,-0.06 -0.29,-0.08 -0.53,-0.08l-2.66,0c-0.11,0 -0.2,0.03 -0.25,0.1c-0.06,0.07 -0.08,0.14 -0.08,0.21l-0,7.76c-0,0.24 -0.06,0.42 -0.18,0.52c-0.12,0.1 -0.31,0.15 -0.57,0.15l-3.56,0c-0.22,0 -0.38,-0.05 -0.46,-0.14c-0.08,-0.09 -0.13,-0.23 -0.13,-0.42l-0,-19.69c-0,-0.35 0.15,-0.53 0.45,-0.53l8.74,0c2.52,0 4.47,0.5 5.85,1.48c1.38,0.99 2.07,2.4 2.07,4.23c-0,1.36 -0.36,2.53 -1.09,3.49c-0.73,0.96 -1.64,1.64 -2.74,2.03c-0.15,0.06 -0.19,0.2 -0.11,0.42l3.7,8.37c0.02,0.11 0.04,0.2 0.04,0.25Zm-5.71,-12.22c0.56,-0.46 0.84,-1.12 0.84,-2c-0,-0.9 -0.29,-1.58 -0.85,-2.06c-0.57,-0.48 -1.34,-0.71 -2.31,-0.71l-3.44,0c-0.21,0 -0.35,0.03 -0.42,0.1c-0.07,0.07 -0.11,0.18 -0.11,0.35l-0,4.54c-0,0.17 0.03,0.29 0.08,0.36c0.06,0.08 0.16,0.11 0.31,0.11l3.44,0c1.07,0 1.89,-0.23 2.46,-0.69Z" style="fill-rule:nonzero;"/><path d="M630.05,237.528c0.7,0.64 1.57,0.97 2.62,0.97c0.67,0 1.29,-0.14 1.86,-0.43c0.57,-0.29 1.14,-0.77 1.72,-1.44c0.07,-0.07 0.15,-0.11 0.22,-0.11c0.06,0 0.15,0.03 0.28,0.08l2.02,0.84c0.13,0.06 0.2,0.15 0.2,0.28c-0,0.09 -0.04,0.19 -0.11,0.28c-0.9,1.27 -1.86,2.16 -2.88,2.67c-1.03,0.51 -2.31,0.77 -3.84,0.77c-1.44,0 -2.74,-0.32 -3.89,-0.95c-1.16,-0.63 -2.06,-1.52 -2.72,-2.65c-0.65,-1.13 -0.98,-2.42 -0.98,-3.88c-0,-1.57 0.34,-2.95 1.01,-4.16c0.67,-1.2 1.58,-2.13 2.73,-2.79c1.15,-0.65 2.4,-0.98 3.77,-0.98c1.42,0 2.68,0.31 3.78,0.94c1.1,0.62 1.96,1.53 2.58,2.7c0.62,1.18 0.92,2.58 0.92,4.2c-0,0.24 -0.02,0.41 -0.07,0.5c-0.05,0.09 -0.18,0.15 -0.41,0.17l-9.52,0c-0.22,0 -0.34,0.15 -0.34,0.45c0,1.05 0.35,1.9 1.05,2.54Zm4.58,-5.33c0.21,0 0.34,-0.02 0.39,-0.07c0.06,-0.05 0.08,-0.15 0.08,-0.32c0,-0.49 -0.11,-0.97 -0.34,-1.46c-0.22,-0.49 -0.55,-0.89 -0.98,-1.2c-0.43,-0.32 -0.95,-0.48 -1.57,-0.48c-0.93,0 -1.7,0.33 -2.3,0.98c-0.6,0.65 -0.89,1.49 -0.87,2.52l5.59,0.03Z" style="fill-rule:nonzero;"/><path d="M646.39,228.668c-0.71,0 -1.3,0.14 -1.76,0.41c-0.47,0.27 -0.7,0.64 -0.7,1.11c0,0.26 0.11,0.5 0.32,0.71c0.21,0.21 0.63,0.4 1.25,0.55l3.22,0.78c1.47,0.35 2.56,0.92 3.25,1.69c0.69,0.78 1.04,1.69 1.04,2.73c0,1.47 -0.62,2.64 -1.85,3.5c-1.23,0.86 -2.85,1.29 -4.84,1.29c-1.61,0 -3,-0.28 -4.17,-0.85c-1.18,-0.57 -2.01,-1.31 -2.49,-2.23c-0.09,-0.13 -0.14,-0.25 -0.14,-0.36c0,-0.13 0.07,-0.22 0.2,-0.28l1.9,-0.98c0.15,-0.07 0.28,-0.11 0.39,-0.11c0.11,0 0.21,0.05 0.31,0.14c0.41,0.58 0.91,1.04 1.5,1.39c0.59,0.35 1.37,0.52 2.34,0.52c0.88,0 1.59,-0.13 2.14,-0.39c0.55,-0.26 0.83,-0.64 0.83,-1.15c0,-0.34 -0.14,-0.62 -0.42,-0.84c-0.28,-0.22 -0.76,-0.42 -1.43,-0.59l-2.88,-0.62c-2.84,-0.62 -4.26,-2.03 -4.26,-4.23c0,-0.93 0.26,-1.76 0.77,-2.49c0.51,-0.73 1.25,-1.3 2.2,-1.71c0.95,-0.41 2.07,-0.62 3.36,-0.62c1.36,0 2.57,0.25 3.63,0.76c1.06,0.51 1.82,1.14 2.28,1.9c0.11,0.15 0.17,0.28 0.17,0.39c0,0.11 -0.07,0.21 -0.2,0.28l-2.02,0.98c-0.06,0.04 -0.13,0.06 -0.22,0.06c-0.17,0 -0.31,-0.07 -0.42,-0.22c-0.79,-1.02 -1.88,-1.52 -3.3,-1.52Z" style="fill-rule:nonzero;"/><path d="M659.06,237.528c0.7,0.64 1.57,0.97 2.62,0.97c0.67,0 1.29,-0.14 1.86,-0.43c0.57,-0.29 1.14,-0.77 1.72,-1.44c0.07,-0.07 0.15,-0.11 0.22,-0.11c0.06,0 0.15,0.03 0.28,0.08l2.02,0.84c0.13,0.06 0.2,0.15 0.2,0.28c-0,0.09 -0.04,0.19 -0.11,0.28c-0.9,1.27 -1.86,2.16 -2.88,2.67c-1.03,0.51 -2.31,0.77 -3.84,0.77c-1.44,0 -2.74,-0.32 -3.89,-0.95c-1.16,-0.63 -2.06,-1.52 -2.72,-2.65c-0.65,-1.13 -0.98,-2.42 -0.98,-3.88c-0,-1.57 0.34,-2.95 1.01,-4.16c0.67,-1.2 1.58,-2.13 2.73,-2.79c1.15,-0.65 2.4,-0.98 3.77,-0.98c1.42,0 2.68,0.31 3.78,0.94c1.1,0.62 1.96,1.53 2.58,2.7c0.62,1.18 0.92,2.58 0.92,4.2c-0,0.24 -0.02,0.41 -0.07,0.5c-0.05,0.09 -0.18,0.15 -0.41,0.17l-9.52,0c-0.22,0 -0.34,0.15 -0.34,0.45c0,1.05 0.35,1.9 1.05,2.54Zm4.58,-5.33c0.21,0 0.34,-0.02 0.39,-0.07c0.06,-0.05 0.08,-0.15 0.08,-0.32c0,-0.49 -0.11,-0.97 -0.34,-1.46c-0.22,-0.49 -0.55,-0.89 -0.98,-1.2c-0.43,-0.32 -0.95,-0.48 -1.57,-0.48c-0.93,0 -1.7,0.33 -2.3,0.98c-0.6,0.65 -0.89,1.49 -0.87,2.52l5.59,0.03Z" style="fill-rule:nonzero;"/><path d="M673.3,241.438c-1.4,0 -2.51,-0.38 -3.33,-1.13c-0.82,-0.76 -1.23,-1.74 -1.23,-2.95c-0,-1.57 0.72,-2.83 2.16,-3.78c1.44,-0.95 3.42,-1.46 5.94,-1.51l1.01,-0.08c0.11,0 0.21,-0.03 0.29,-0.1c0.08,-0.07 0.13,-0.16 0.13,-0.29l-0,-0.59c-0,-0.73 -0.21,-1.29 -0.62,-1.68c-0.41,-0.39 -1,-0.59 -1.76,-0.59c-1.31,0 -2.28,0.56 -2.91,1.68c-0.08,0.19 -0.2,0.28 -0.36,0.28c-0.09,0 -0.18,-0.01 -0.25,-0.03l-2.8,-0.64c-0.17,-0.04 -0.25,-0.14 -0.25,-0.31c-0,-0.11 0.04,-0.25 0.11,-0.42c0.45,-1.08 1.25,-1.89 2.39,-2.44c1.15,-0.54 2.57,-0.81 4.27,-0.81c2.22,0 3.83,0.41 4.82,1.22c0.99,0.81 1.48,1.96 1.48,3.46l-0,9.83c-0,0.22 -0.04,0.38 -0.11,0.48c-0.08,0.09 -0.21,0.14 -0.42,0.14l-2.88,0c-0.19,0 -0.32,-0.07 -0.41,-0.2c-0.08,-0.13 -0.15,-0.33 -0.18,-0.59l-0.03,-0.62c-0.02,-0.17 -0.09,-0.25 -0.22,-0.25c-0.07,0 -0.21,0.08 -0.42,0.22c-1.26,1.13 -2.72,1.7 -4.42,1.7Zm4.87,-7.25c-0.06,-0.07 -0.17,-0.11 -0.34,-0.11l-0.78,0.06c-1.08,0.06 -2.04,0.31 -2.87,0.77c-0.83,0.46 -1.25,1.09 -1.25,1.89c-0,0.56 0.2,1 0.59,1.33c0.39,0.33 0.93,0.49 1.62,0.49c0.86,0 1.59,-0.25 2.18,-0.76c0.62,-0.49 0.92,-0.98 0.92,-1.48l-0,-1.82c0.01,-0.18 -0.01,-0.3 -0.07,-0.37Z" style="fill-rule:nonzero;"/><path d="M684.16,240.598l0,-13.75c0,-0.35 0.15,-0.53 0.45,-0.53l3.28,0c0.3,0 0.45,0.16 0.45,0.48l0,1.65c0,0.08 0.02,0.13 0.06,0.17c0.04,0.04 0.08,0.06 0.11,0.06c0.06,0 0.13,-0.05 0.22,-0.14c0.56,-0.75 1.22,-1.35 1.99,-1.81c0.77,-0.46 1.49,-0.69 2.18,-0.69c0.67,0 1.01,0.16 1.01,0.48l0,3.25c0,0.13 -0.04,0.23 -0.11,0.31c-0.07,0.08 -0.18,0.09 -0.31,0.06c-0.6,-0.15 -1.25,-0.22 -1.96,-0.22c-0.47,0 -0.94,0.12 -1.41,0.35c-0.48,0.23 -0.87,0.54 -1.18,0.92c-0.31,0.38 -0.46,0.77 -0.46,1.16l0,8.18c0,0.43 -0.24,0.64 -0.73,0.64l-3,0c-0.39,-0.01 -0.59,-0.2 -0.59,-0.57Z" style="fill-rule:nonzero;"/><path d="M705.4,227.278c1.09,0.83 1.82,1.83 2.2,3.01c0.04,0.15 0.06,0.24 0.06,0.28c0,0.17 -0.13,0.27 -0.39,0.31l-2.94,0.28l-0.08,0c-0.17,0 -0.28,-0.1 -0.34,-0.31c-0.34,-0.67 -0.68,-1.17 -1.02,-1.5c-0.34,-0.33 -0.83,-0.49 -1.47,-0.49c-1.01,0 -1.8,0.41 -2.37,1.23c-0.57,0.82 -0.85,2.03 -0.85,3.64c0,1.64 0.3,2.88 0.91,3.7c0.61,0.82 1.45,1.23 2.53,1.23c0.77,0 1.39,-0.2 1.88,-0.59c0.49,-0.39 0.96,-0.99 1.43,-1.79c0.06,-0.09 0.12,-0.14 0.18,-0.15c0.07,-0.01 0.16,0 0.29,0.01l2.07,0.48c0.17,0.02 0.25,0.11 0.25,0.28l-0.06,0.25c-0.37,1.08 -1.1,2.07 -2.17,2.95c-1.07,0.88 -2.49,1.33 -4.24,1.33c-1.44,0 -2.72,-0.32 -3.85,-0.97c-1.13,-0.64 -2.01,-1.54 -2.65,-2.7c-0.63,-1.16 -0.95,-2.48 -0.95,-3.98c0,-1.51 0.32,-2.86 0.97,-4.03c0.64,-1.18 1.53,-2.09 2.66,-2.74c1.13,-0.65 2.4,-0.98 3.82,-0.98c1.66,0.01 3.04,0.42 4.13,1.25Z" style="fill-rule:nonzero;"/><path d="M708.97,241.028c-0.09,-0.08 -0.14,-0.23 -0.14,-0.43l0,-19.69c0,-0.35 0.15,-0.53 0.45,-0.53l3.36,0c0.28,0 0.42,0.16 0.42,0.48l0,7.17c0,0.15 0.05,0.22 0.14,0.22c0.06,0 0.12,-0.04 0.2,-0.11c0.86,-0.77 1.66,-1.31 2.39,-1.62c0.74,-0.32 1.52,-0.48 2.34,-0.48c1.42,0 2.51,0.39 3.28,1.18c0.77,0.78 1.15,1.89 1.15,3.3l0,9.97c0,0.45 -0.22,0.67 -0.67,0.67l-3.11,0c-0.21,0 -0.35,-0.04 -0.42,-0.13c-0.07,-0.09 -0.11,-0.23 -0.11,-0.43l0,-9.46c0,-0.63 -0.17,-1.12 -0.52,-1.47c-0.35,-0.34 -0.84,-0.52 -1.5,-0.52c-0.58,0 -1.1,0.14 -1.57,0.42c-0.47,0.28 -0.97,0.72 -1.51,1.32l0,9.63c0,0.22 -0.06,0.39 -0.17,0.49c-0.11,0.1 -0.3,0.15 -0.56,0.15l-3,0c-0.21,0 -0.36,-0.04 -0.45,-0.13Z" style="fill-rule:nonzero;"/></g></g><g id="VICTR"><g><path d="M88.75,377.208l-18.63,0l-38.77,-96.58l23.29,0l25.07,67.54l25.07,-67.54l22.74,0l-38.77,96.58Z" style="fill-rule:nonzero;"/><rect x="209.31" y="280.628" width="21.1" height="95.9" style="fill-rule:nonzero;"/><path d="M362.34,378.168c-28.22,0 -49.18,-21.78 -49.18,-49.32l-0,-0.27c-0,-27.26 20.55,-49.59 50,-49.59c18.08,0 28.91,6.03 37.81,14.79l-13.42,15.48c-7.4,-6.71 -14.93,-10.82 -24.52,-10.82c-16.17,0 -27.81,13.43 -27.81,29.86l-0,0.27c-0,16.44 11.37,30.14 27.81,30.14c10.96,0 17.67,-4.38 25.21,-11.23l13.42,13.56c-9.87,10.56 -20.83,17.13 -39.32,17.13Z" style="fill-rule:nonzero;"/><path d="M514.27,300.078l0,76.45l-21.1,0l0,-76.44l-29.18,0l0,-19.46l79.46,0l0,19.45l-29.18,0Z" style="fill-rule:nonzero;"/><path d="M667.16,376.528l-20.55,-30.69l-16.58,0l0,30.69l-21.1,0l0,-95.9l43.84,0c22.6,0 36.17,11.92 36.17,31.65l0,0.27c0,15.48 -8.36,25.21 -20.55,29.73l23.43,34.25l-24.66,0Zm0.41,-63.16c0,-9.04 -6.3,-13.7 -16.58,-13.7l-20.96,0l0,27.54l21.37,0c10.27,0 16.17,-5.48 16.17,-13.56l0,-0.28Z" style="fill-rule:nonzero;"/></g><g><g><path d="M148.86,326.928l-0,0.3c-0,1.92 -0.08,3.82 -0.23,5.7" style="fill:none;fill-rule:nonzero;stroke:#dbdbdb;stroke-width:4px;"/><path d="M147.53,340.778c-6.3,31.72 -34.28,55.63 -67.85,55.63c-35,0 -63.94,-26 -68.54,-59.74" style="fill:none;fill-rule:nonzero;stroke:#dbdbdb;stroke-width:4px;stroke-dasharray:11.89,7.93;"/><path d="M10.72,332.748c-0.14,-1.82 -0.22,-3.67 -0.22,-5.53l-0,-0.47" style="fill:none;fill-rule:nonzero;stroke:#dbdbdb;stroke-width:4px;"/></g></g><g><g><path d="M433.06,327.548l-0,0.3c-0,1.92 -0.08,3.82 -0.23,5.7" style="fill:none;fill-rule:nonzero;stroke:#dbdbdb;stroke-width:4px;"/><path d="M431.71,341.568c-6.44,32.25 -35.16,56.56 -69.61,56.56c-35.93,0 -65.63,-26.45 -70.32,-60.76" style="fill:none;fill-rule:nonzero;stroke:#dbdbdb;stroke-width:4px;stroke-dasharray:12.15,8.1;"/><path d="M291.35,333.368c-0.14,-1.82 -0.22,-3.66 -0.22,-5.52l-0,-0.48" style="fill:none;fill-rule:nonzero;stroke:#dbdbdb;stroke-width:4px;"/></g></g><g><g><path d="M717.69,325.248l-0,0.3c-0,1.92 -0.08,3.82 -0.23,5.69" style="fill:none;fill-rule:nonzero;stroke:#dbdbdb;stroke-width:4px;"/><path d="M716.36,339.308c-6.41,32.59 -35.13,57.17 -69.59,57.17c-35.94,0 -65.63,-26.73 -70.29,-61.39" style="fill:none;fill-rule:nonzero;stroke:#dbdbdb;stroke-width:4px;stroke-dasharray:12.21,8.14;"/><path d="M576.05,331.058c-0.14,-1.82 -0.21,-3.66 -0.21,-5.51l-0,-0.48" style="fill:none;fill-rule:nonzero;stroke:#dbdbdb;stroke-width:4px;"/></g></g><g><g><path d="M149.23,326.888l-0,-0.3c-0,-1.92 0.08,-3.82 0.22,-5.69" style="fill:none;fill-rule:nonzero;stroke:#dbdbdb;stroke-width:4px;"/><path d="M150.56,312.818c6.4,-32.71 35.14,-57.38 69.64,-57.38c35.97,0 65.68,26.83 70.33,61.61" style="fill:none;fill-rule:nonzero;stroke:#dbdbdb;stroke-width:4px;stroke-dasharray:12.23,8.16;"/><path d="M290.95,321.078c0.14,1.82 0.21,3.66 0.21,5.51l0,0.49" style="fill:none;fill-rule:nonzero;stroke:#dbdbdb;stroke-width:4px;"/></g></g><g><g><path d="M433.13,327.358l0,-0.31c0,-1.92 0.08,-3.81 0.22,-5.69" style="fill:none;fill-rule:nonzero;stroke:#dbdbdb;stroke-width:4px;"/><path d="M434.46,313.238c6.42,-32.91 35.34,-57.74 70.04,-57.74c36.18,0 66.07,27 70.74,61.99" style="fill:none;fill-rule:nonzero;stroke:#dbdbdb;stroke-width:4px;stroke-dasharray:12.31,8.2;"/><path d="M575.66,321.548c0.14,1.82 0.21,3.66 0.21,5.51l0,0.49" style="fill:none;fill-rule:nonzero;stroke:#dbdbdb;stroke-width:4px;"/></g></g><g><path d="M575.37,326.788l0,0.31c0,39.52 -31.95,71.56 -71.37,71.56c-39.42,0 -71.37,-32.04 -71.37,-71.56l0,-0.49" style="fill:none;fill-rule:nonzero;stroke:#858585;stroke-width:4px;"/></g><g><path d="M291.02,326.608l0,0.3c0,39.3 -31.77,71.15 -70.96,71.15c-39.19,0 -70.96,-31.86 -70.96,-71.15l0,-0.49" style="fill:none;fill-rule:nonzero;stroke:#a7b748;stroke-width:4px;"/></g></g><g id="Layer_10"><g><path d="M10.43,327.258l-0,-0.3c-0,-38.64 31.01,-69.97 69.27,-69.97c38.26,0 69.27,31.32 69.27,69.97l0,0.3" style="fill:none;fill-rule:nonzero;stroke:#5488a9;stroke-width:4px;"/></g><g><path d="M291.04,328.178l-0,-0.31c-0,-39.5 31.7,-71.51 70.8,-71.51c39.1,0 70.8,32.02 70.8,71.51l-0,0.31" style="fill:none;fill-rule:nonzero;stroke:#e89937;stroke-width:4px;"/></g><g><path d="M575.72,327.308l0,-0.31c0,-39.6 31.78,-71.7 70.98,-71.7c39.2,0 70.98,32.1 70.98,71.7l0,0.31" style="fill:none;fill-rule:nonzero;stroke:#f4c643;stroke-width:4px;"/></g><g><g><path d="M138.12,316.378l11.37,16.38l8.5,-18.04l-19.87,1.66Z" style="fill:#528cb3;fill-rule:nonzero;"/></g></g><g><g><path d="M421.8,316.888l11.38,16.39l8.5,-18.04l-19.88,1.65Z" style="fill:#f09336;fill-rule:nonzero;"/></g></g><g><g><path d="M706.67,315.658l11.37,16.38l8.51,-18.04l-19.88,1.66Z" style="fill:#f4c643;fill-rule:nonzero;"/></g></g><g><g><path d="M584.76,334.128l-8.28,-18.14l-11.57,16.24l19.85,1.9Z" style="fill:#858585;fill-rule:nonzero;"/></g></g><g><g><path d="M300.27,334.448l-8.29,-18.15l-11.57,16.25l19.86,1.9Z" style="fill:#a7b748;fill-rule:nonzero;"/></g></g><g><g><path d="M95.78,385.288l-15.71,12.29l18.5,7.46l-2.79,-19.75Z" style="fill:#dbdbdb;fill-rule:nonzero;"/></g></g><g><g><path d="M378.19,386.868l-15.7,12.29l18.49,7.46l-2.79,-19.75Z" style="fill:#dbdbdb;fill-rule:nonzero;"/></g></g><g><g><path d="M664.02,384.588l-15.71,12.29l18.5,7.46l-2.79,-19.75Z" style="fill:#dbdbdb;fill-rule:nonzero;"/></g></g><g><g><path d="M500.72,245.738l-15.71,12.29l18.5,7.46l-2.79,-19.75Z" style="fill:#dbdbdb;fill-rule:nonzero;"/></g></g><g><g><path d="M216.89,245.738l-15.7,12.29l18.49,7.46l-2.79,-19.75Z" style="fill:#dbdbdb;fill-rule:nonzero;"/></g></g></g></g></g></svg>