<?xml version="1.0" encoding="UTF-8" standalone="no"?><!DOCTYPE svg PUBLIC "-//W3C//DTD SVG 1.1//EN" "http://www.w3.org/Graphics/SVG/1.1/DTD/svg11.dtd"><svg width="100%" height="100%" viewBox="0 0 100 100" version="1.1" xmlns="http://www.w3.org/2000/svg" xmlns:xlink="http://www.w3.org/1999/xlink" xml:space="preserve" xmlns:serif="http://www.serif.com/" style="fill-rule:evenodd;clip-rule:evenodd;stroke-linejoin:round;stroke-miterlimit:2;"><rect x="10.925" y="43.15" width="79.825" height="14" style="fill:none;"/><circle id="bg" cx="50.125" cy="50.075" r="47.7" style="fill:#e21d39;"/><path d="M49.025,54.775c23.425,1.925 32.45,8.375 32,17.175c-0.425,4.725 -4.95,9.25 -10.75,9.675c-6.875,0.425 -10.1,-2.375 -12.025,-5.375c-1.725,-2.8 -3.65,-5.575 -5.575,-8.6c-0.425,-0.85 -1.3,-0.225 -1.925,0.225c-1.5,1.3 -2.8,2.8 -4.075,4.075c-0.85,0.85 -0.65,1.5 -0.425,2.15c1.3,3 2.575,6.025 3.875,8.8c2.15,1.3 11.825,3 18.9,2.375c4.95,-0.425 10.95,-2.375 16.125,-6.025c4.95,-3.875 8.6,-9.025 9.25,-17.4c0.225,-5.15 -0.65,-10.525 -5.15,-15.475c-4.5,-4.95 -12.25,-9.025 -27.925,-10.1c0.85,-2.575 1.5,-4.95 2.375,-7.3c9.45,0.425 17.825,1.075 24.925,1.925c0.65,-2.8 0.85,-5.375 1.5,-7.95l-1.925,-2.375c-3.65,-0.425 -7.1,-1.3 -10.95,-1.725c-4.95,-0.65 -10.1,-1.075 -15.675,-1.3c-3.725,10.375 -8.025,23.475 -12.55,37.225m-6.225,-40.175c-1.725,0 -4.075,0.425 -7.95,1.3c-8.375,2.375 -18.7,8.175 -19.775,17.825c-0.225,1.5 -0.225,3.225 -0.425,4.725c-2.375,0.225 -4.5,0.425 -6.65,0.65c-0.225,1.925 -0.225,3.65 -0.425,5.575c2.15,-0.225 4.3,-0.225 6.65,-0.425c-0.425,10.1 -0,20.2 0.85,29.65c0.225,1.5 0.225,2.8 0.225,3.65c-0.225,0.85 -1.725,1.3 -3.875,1.3l2.8,3.425c8.175,1.5 18.475,2.575 29.425,2.8l-0,-3.225c-6.45,-0.425 -9.45,-1.3 -9.875,-2.575c-0.425,-1.075 -0.425,-2.575 -0.65,-4.075c-0.425,-9.875 -0.65,-20.625 -0.425,-31.575c3.65,0 7.3,0 10.95,-0.225c1.925,-0.85 3.65,-1.725 5.375,-2.575l-0,-3.65c-5.575,0 -10.95,0.225 -16.325,0.225c0.225,-4.5 0.425,-8.8 0.65,-12.9c0.2,-2.8 2.15,-4.75 3.875,-4.75c3,-0.225 5.8,1.075 8.6,2.375c1.5,0.65 3,1.5 4.5,2.15c0.65,0.225 1.5,0.425 2.15,-0.225c0.85,-1.075 1.725,-2.15 2.575,-3c0.425,-0.65 0.225,-1.075 0,-1.3c-1.925,-1.5 -3.65,-2.8 -5.575,-4.3c-1.075,-0.85 -3,-0.85 -4.725,-0.85c-0.65,-0.2 -1.3,0 -1.95,0" style="fill:#fff;fill-rule:nonzero;"/></svg>