<?xml version="1.0" encoding="UTF-8" standalone="no"?><!DOCTYPE svg PUBLIC "-//W3C//DTD SVG 1.1//EN" "http://www.w3.org/Graphics/SVG/1.1/DTD/svg11.dtd"><svg width="100%" height="100%" viewBox="0 0 2500 2500" version="1.1" xmlns="http://www.w3.org/2000/svg" xmlns:xlink="http://www.w3.org/1999/xlink" xml:space="preserve" xmlns:serif="http://www.serif.com/" style="fill-rule:evenodd;clip-rule:evenodd;stroke-linejoin:round;stroke-miterlimit:2;"><path d="M2219.87,0l-1939.73,0c-153.46,0 -280.134,126.674 -280.134,280.134l0,1939.73c0,153.46 126.674,280.134 280.134,280.134l1939.73,0c153.46,0 280.134,-126.674 280.134,-280.134l0,-1939.73c0,-153.46 -126.674,-280.134 -280.134,-280.134Zm-253.349,1586.49c0,23.439 -20.09,33.483 -43.526,43.529c-93.192,40.178 -193.081,76.451 -300.224,76.451c-150.11,0 -219.866,-93.192 -400.11,-93.192c-130.023,0 -266.741,46.875 -376.674,96.541c-6.698,3.346 -13.393,3.346 -20.091,6.694l0,253.349c0,10.044 0,20.09 -3.348,26.785l0,6.698c-13.393,46.875 -56.919,79.799 -106.585,79.799c-63.058,0 -113.282,-50.224 -113.282,-113.282l0,-1219.87c-43.526,-33.483 -73.101,-86.494 -73.101,-146.765c0,-103.235 83.148,-186.941 186.941,-186.941c103.239,0 186.942,83.148 186.942,186.941c0,60.271 -26.785,113.282 -73.101,146.765l0,103.235c10.043,-3.345 20.09,-6.694 30.133,-13.392c103.236,-43.526 226.561,-79.799 343.192,-79.799c126.675,0 226.561,33.482 339.843,76.45c23.439,10.047 46.875,13.396 73.105,13.396c126.671,0 266.741,-89.846 300.221,-89.846c26.788,0 50.224,20.09 50.224,43.529l0,782.921l-0.559,0Z" style="fill:#339af0;fill-rule:nonzero;"/></svg>