<?xml version="1.0" encoding="UTF-8" standalone="no"?>
<!DOCTYPE svg PUBLIC "-//W3C//DTD SVG 1.1//EN" "http://www.w3.org/Graphics/SVG/1.1/DTD/svg11.dtd">
<svg width="100%" height="100%" viewBox="0 0 350 350" version="1.1" xmlns="http://www.w3.org/2000/svg" xmlns:xlink="http://www.w3.org/1999/xlink" xml:space="preserve" xmlns:serif="http://www.serif.com/" style="fill-rule:evenodd;clip-rule:evenodd;stroke-linejoin:round;stroke-miterlimit:2;">
    <g transform="matrix(1,0,0,1,-53.3,34.2)">
        <g>
            <path d="M315,35.2L315,7.1C283.4,7.1 260.1,20.8 245.8,47.8C234,69.8 229.4,97.6 224.6,127C212.3,201.2 199.8,246.3 130.7,246.3L130.7,274.5C174.6,274.5 205.5,258.6 225,225.9C238.2,203.9 244.4,177.4 249.2,150.5C263.4,150.1 277.1,149.6 290.1,148L290.7,119.4C279.9,120.9 267.6,121.6 254.1,122.1C263.2,68 272.9,35.2 315,35.2Z" style="fill:rgb(35,82,160);fill-rule:nonzero;"/>
        </g>
        <path d="M345.4,73.8C344,84.3 340.7,92.4 335.8,98.8L289.4,50.4C285.4,53.4 281.9,57.4 278.9,62.6C277.5,64.9 276.3,67.4 275.1,70.1L316.4,113.2C311.1,115.4 305,117.1 298.4,118.4L298.4,119.9L297.9,147.2C306.9,145.8 315.6,143.8 323.6,140.8C352.2,130.3 368.9,109.1 373.3,77.9L345.4,73.8Z" style="fill:rgb(218,214,223);fill-rule:nonzero;"/>
    </g>
    <g transform="matrix(1,0,0,1,-53.3,34.2)">
        <path d="M144.3,137C109.3,151.9 89.3,180.3 83.3,223.7L111.2,227.6C114.1,206.6 120.4,191.5 130,180.6L176.8,226.5C182.7,222.3 187.8,216.9 192,210.3C192.3,209.8 192.6,209.3 192.9,208.8L149,165.8C165.3,157.3 186.4,153.9 211.7,152.2C213.4,143.7 214.9,134.8 216.4,125.8C216.5,125.1 216.6,124.3 216.8,123.6C191.5,124.8 166.4,127.6 144.3,137Z" style="fill:rgb(218,214,223);fill-rule:nonzero;"/>
    </g>
</svg>
