<?xml version="1.0" encoding="UTF-8" standalone="no"?><!DOCTYPE svg PUBLIC "-//W3C//DTD SVG 1.1//EN" "http://www.w3.org/Graphics/SVG/1.1/DTD/svg11.dtd"><svg width="100%" height="100%" viewBox="0 0 100 100" version="1.1" xmlns="http://www.w3.org/2000/svg" xmlns:xlink="http://www.w3.org/1999/xlink" xml:space="preserve" xmlns:serif="http://www.serif.com/" style="fill-rule:evenodd;clip-rule:evenodd;stroke-linejoin:round;stroke-miterlimit:2;"><path d="M50.029,96.123l18.4,-56.629l-36.8,0l18.4,56.629l0,0Z" style="fill:#e24329;fill-rule:nonzero;"/><path d="M50.029,96.123l-18.4,-56.629l-25.787,-0l44.187,56.629Z" style="fill:#fc6d26;fill-rule:nonzero;"/><path d="M5.842,39.494l-5.591,17.209c-0.509,1.565 0.052,3.292 1.383,4.259l48.395,35.161l-44.187,-56.629l0,-0Z" style="fill:#fca326;fill-rule:nonzero;"/><path d="M5.842,39.494l25.787,0l-11.082,-34.107c-0.57,-1.755 -3.053,-1.755 -3.623,-0l-11.082,34.107Z" style="fill:#e24329;fill-rule:nonzero;"/><path d="M50.029,96.123l18.4,-56.629l25.787,-0l-44.187,56.629l0,-0Z" style="fill:#fc6d26;fill-rule:nonzero;"/><path d="M94.216,39.494l5.592,17.209c0.508,1.566 -0.053,3.292 -1.384,4.259l-48.395,35.161l44.187,-56.629l0,-0Z" style="fill:#fca326;fill-rule:nonzero;"/><path d="M94.216,39.494l-25.787,0l11.082,-34.107c0.571,-1.755 3.053,-1.755 3.623,-0l11.082,34.107Z" style="fill:#e24329;fill-rule:nonzero;"/></svg>