<?xml version="1.0" encoding="UTF-8" standalone="no"?>
<!DOCTYPE svg PUBLIC "-//W3C//DTD SVG 1.1//EN" "http://www.w3.org/Graphics/SVG/1.1/DTD/svg11.dtd">
<svg width="100%" height="100%" viewBox="0 0 1080 1080" version="1.1" xmlns="http://www.w3.org/2000/svg" xmlns:xlink="http://www.w3.org/1999/xlink" xml:space="preserve" xmlns:serif="http://www.serif.com/" style="fill-rule:evenodd;clip-rule:evenodd;stroke-linecap:round;stroke-linejoin:round;stroke-miterlimit:1.5;">
    <g transform="matrix(1,0,0,1,1.68377,166.236)">
        <g transform="matrix(1,0,0,1,-36.2188,-232.988)">
            <path d="M313.544,509.9L314.124,489.287C314.704,479.954 317.166,471.427 320.2,463.147C321.661,460.15 323.499,457.735 325.842,456.099C329.057,455.084 330.958,456.099 331.777,458.788C331.31,463.826 329.025,467.472 324.511,469.413C319.194,470.76 314.376,470.824 310.651,468.084C307.958,466.343 305.877,463.921 304.779,460.406C303.931,457.481 304.013,454.576 305.179,451.694C305.273,450.17 306.58,449.079 309.798,448.674C313.341,448.918 315.091,450.225 315.152,452.534C315.462,454.819 315.553,457.087 315.358,459.333C314.98,461.664 313.993,463.414 312.669,464.842L307.265,469.924L302.562,471.289L296.668,469.685C292.347,467.797 289.604,464.653 288.295,460.37C287.365,459.071 287.132,457.371 287.999,455.038C289.523,454.196 290.837,454.299 291.931,455.383C298.73,460.768 301.702,467.229 302.695,474.008C304.455,479.117 305.276,484.052 305.889,489.038L306.454,509.531" style="fill:none;stroke:rgb(250,133,39);stroke-width:2px;"/>
            <path d="M296.772,511.217L323.119,511.086C322.935,504.914 325.226,498.813 331.366,493.417C337.246,487.033 341.769,479.921 344.182,471.679C345.947,463.818 345.748,455.697 343.033,447.245C340.232,439.618 334.47,433.336 325.022,428.726C315.318,425.105 305.647,424.706 296.019,428.274C288.594,431.494 283.042,437.246 278.796,444.762C275.481,452.958 274.686,461.425 276.147,470.136C278.41,481.237 283.753,489.482 291.773,495.247C296.023,500.286 297.766,505.601 296.772,511.217Z" style="fill:none;stroke:rgb(250,133,39);stroke-width:4px;"/>
        </g>
        <g transform="matrix(1,0,0,1,-17.4821,-186.544)">
            <g transform="matrix(331.655,0,0,331.655,971.007,638.611)">
            </g>
            <text x="141.385px" y="638.611px" style="font-family:'ArialMT', 'Arial', sans-serif;font-size:331.655px;fill:rgb(83,82,81);">gLHS</text>
        </g>
        <g transform="matrix(1,0,0,1,13.5823,146.938)">
            <rect x="125.441" y="380.665" width="803.018" height="27.118" style="fill:rgb(250,133,39);stroke:rgb(250,133,39);stroke-width:1px;"/>
        </g>
    </g>
</svg>
