<?xml version="1.0" encoding="UTF-8" standalone="no"?><!DOCTYPE svg PUBLIC "-//W3C//DTD SVG 1.1//EN" "http://www.w3.org/Graphics/SVG/1.1/DTD/svg11.dtd"><svg width="100%" height="100%" viewBox="0 0 100 100" version="1.1" xmlns="http://www.w3.org/2000/svg" xmlns:xlink="http://www.w3.org/1999/xlink" xml:space="preserve" xmlns:serif="http://www.serif.com/" style="fill-rule:evenodd;clip-rule:evenodd;stroke-linejoin:round;stroke-miterlimit:2;"><g id="googlecloud"><g><path d="M24.838,52.289c-0.89,-1.525 -0.91,-3.406 -0.052,-4.95c2.511,-4.517 7.794,-14.019 10.332,-18.584c0.877,-1.577 2.539,-2.556 4.343,-2.558c5.112,-0.006 15.612,-0.019 20.657,-0.025c1.756,-0.002 3.387,0.913 4.3,2.412c2.683,4.402 8.342,13.689 11.089,18.197c0.961,1.577 0.975,3.555 0.035,5.145c-2.689,4.553 -8.238,13.945 -10.866,18.393c-0.893,1.512 -2.515,2.445 -4.272,2.456c-5.046,0.033 -15.54,0.101 -20.629,0.134c-1.79,0.011 -3.449,-0.935 -4.351,-2.48c-2.599,-4.454 -8.003,-13.713 -10.586,-18.14Zm25.253,-14.339c6.863,-0 12.435,5.572 12.435,12.435c0,6.863 -5.572,12.435 -12.435,12.435c-6.863,0 -12.435,-5.572 -12.435,-12.435c-0,-6.863 5.572,-12.435 12.435,-12.435Z" style="fill:#ebebeb;"/><path d="M60.203,25.994c1.73,0.041 3.386,0.969 4.323,2.425c3.776,6.085 7.506,12.199 11.179,18.346c0.905,1.574 0.92,3.586 0.036,5.174c-3.598,6.213 -7.253,12.393 -10.955,18.543c-0.918,1.472 -2.565,2.417 -4.296,2.471c-6.933,0.101 -13.867,0.147 -20.801,0.134c-1.761,-0.033 -3.444,-0.987 -4.375,-2.494c-3.608,-6.066 -7.166,-12.163 -10.673,-18.288c-0.841,-1.527 -0.86,-3.436 -0.052,-4.977c3.42,-6.274 6.891,-12.52 10.416,-18.736c0.902,-1.529 2.584,-2.526 4.368,-2.573c6.943,-0.067 13.887,-0.073 20.83,-0.025Zm-20.741,0.381c-1.684,0.017 -3.293,0.945 -4.148,2.396c-3.523,6.212 -6.992,12.455 -10.41,18.725c-0.753,1.437 -0.734,3.215 0.048,4.634c3.506,6.122 7.061,12.215 10.668,18.278c0.864,1.4 2.431,2.291 4.073,2.322c6.93,0.013 13.86,-0.033 20.789,-0.134c1.611,-0.05 3.146,-0.932 4,-2.3c3.7,-6.148 7.352,-12.324 10.948,-18.533c0.822,-1.477 0.814,-3.344 -0.033,-4.818c-3.671,-6.143 -7.399,-12.254 -11.173,-18.335c-0.874,-1.358 -2.415,-2.221 -4.026,-2.258c-6.912,-0.049 -13.824,0.015 -20.736,0.023Zm10.792,11.397c5.754,0.11 11.13,4.52 12.225,10.227c1.086,5.663 -2.268,11.878 -7.622,14.067c-5.861,2.397 -13.351,-0.44 -16.135,-6.214c-2.876,-5.965 -0.096,-14.035 6.041,-16.902c1.611,-0.752 3.382,-1.144 5.165,-1.178c0.163,-0.001 0.163,-0.001 0.326,0Zm-0.321,0.357c-5.611,0.107 -10.82,4.414 -11.879,9.937c-1.056,5.504 2.204,11.542 7.406,13.669c5.695,2.329 12.973,-0.427 15.678,-6.038c2.797,-5.8 0.093,-13.637 -5.87,-16.423c-1.565,-0.731 -3.285,-1.112 -5.019,-1.145c-0.159,-0.001 -0.158,-0.001 -0.316,0Z" style="fill:#e0e0e0;"/><path d="M55.375,90.092l8.468,-16.445c0.614,-0.161 1.147,-0.563 1.467,-1.13c2.8,-4.949 13.221,-23.373 13.221,-23.373l-13.561,-22.924c9.596,-0.334 16.856,-0.638 18.209,-0.695l11.848,20.027c1.301,2.2 1.328,4.928 0.069,7.153c-4.389,7.76 -14.705,25.997 -19.113,33.791c-1.271,2.245 -3.653,3.631 -6.233,3.626l-14.375,-0.03Z" style="fill:#db4437;"/><path d="M83.235,25.355c0.056,0.03 0.056,0.03 0.098,0.079c3.97,6.711 7.995,13.389 11.909,20.133c1.218,2.181 1.242,4.919 0.069,7.119c-6.317,11.388 -12.728,22.724 -19.235,34.005c-1.313,2.19 -3.762,3.593 -6.325,3.609l-14.377,-0.029c-0.165,-0.029 -0.198,-0.135 -0.158,-0.26l8.468,-16.445c0.111,-0.158 0.173,-0.107 0.271,-0.139c0.504,-0.18 0.931,-0.536 1.201,-0.999l13.169,-23.282l-13.53,-22.892c-0.002,-0.107 0.023,-0.181 0.169,-0.212c5.803,-0.204 11.616,-0.423 17.43,-0.663l0.778,-0.033c0.021,0.003 0.042,0.006 0.063,0.009Zm-0.826,0.381c-5.71,0.236 -11.421,0.452 -17.132,0.652l13.408,22.666c0.038,0.101 0.015,0.139 0.002,0.178c-4.418,7.81 -8.737,15.677 -13.254,23.43c-0.335,0.542 -0.859,0.952 -1.467,1.136l-8.299,16.116c4.734,0.01 9.468,0.059 14.201,0.029c0.851,-0.02 1.156,-0.089 1.719,-0.242c1.734,-0.47 3.25,-1.638 4.181,-3.191c6.505,-11.278 12.915,-22.61 19.229,-33.995c1.136,-2.13 1.087,-4.785 -0.124,-6.873l-11.793,-19.935c-0.224,0.01 -0.447,0.019 -0.671,0.029Z" style="fill:#db4437;"/><path d="M82.9,24.73l-18.481,0.77c-0.444,-0.453 -1.057,-0.718 -1.708,-0.716c-5.687,0.014 -26.853,0.065 -26.853,0.065l-13.221,23.122c-5.034,-8.176 -8.889,-14.336 -9.608,-15.484l11.55,-20.2c1.269,-2.219 3.627,-3.591 6.184,-3.597c8.914,-0.022 29.868,-0.072 38.821,-0.094c2.58,-0.006 4.963,1.379 6.234,3.624l7.082,12.51Z" style="fill:#4285f4;"/><path d="M69.708,8.418c2.559,0.059 4.984,1.496 6.265,3.714l7.082,12.51c0.057,0.158 -0.019,0.239 -0.148,0.267l-18.481,0.77c-0.211,-0.02 -0.861,-0.708 -1.716,-0.716l-26.748,0.064l-13.209,23.08c-0.092,0.054 -0.169,0.069 -0.268,-0.042c-3.046,-4.944 -6.111,-9.889 -9.194,-14.824l-0.413,-0.659c-0.041,-0.103 -0.018,-0.143 -0.004,-0.183c3.871,-6.769 7.685,-13.57 11.612,-20.307c1.294,-2.136 3.661,-3.511 6.154,-3.58c13.022,-0.14 26.045,-0.172 39.068,-0.094Zm-38.944,0.45c-2.451,0.027 -4.795,1.39 -6.03,3.508l-11.497,20.107c2.89,4.616 5.763,9.251 8.623,13.886l0.772,1.252l13.111,-22.909c0.053,-0.031 0.054,-0.031 0.115,-0.042c8.972,-0.022 17.946,-0.157 26.918,-0.064c0.637,0.023 1.253,0.276 1.713,0.713l18.112,-0.755c-2.332,-4.119 -4.631,-8.258 -6.998,-12.358c-0.437,-0.73 -0.648,-0.96 -1.059,-1.374c-1.266,-1.275 -3.031,-2.015 -4.842,-2.057c-12.979,-0.077 -25.958,0.062 -38.938,0.093Z" style="fill:#4285f4;"/><path d="M12.431,33.468l9.943,15.597c-0.17,0.611 -0.091,1.275 0.238,1.837c2.866,4.911 13.534,23.192 13.534,23.192l26.635,-0.172c-4.544,8.459 -7.937,14.885 -8.569,16.082l-23.268,0.151c-2.557,0.016 -4.927,-1.335 -6.216,-3.543c-4.493,-7.699 -15.054,-25.796 -19.567,-33.529c-1.301,-2.228 -1.299,-4.984 0.005,-7.21l7.265,-12.405Z" style="fill:#f4b400;"/><path d="M12.487,33.298c0.053,0.029 0.054,0.029 0.094,0.074l9.943,15.597c0.089,0.193 -0.179,1.1 0.242,1.844l13.483,23.102l26.591,-0.161c0.094,0.052 0.145,0.111 0.098,0.253c-2.746,5.116 -5.485,10.249 -8.205,15.393c0,-0 -0.191,0.721 -0.52,0.783c-7.797,0.05 -15.594,0.164 -23.391,0.15c-2.49,-0.046 -4.87,-1.396 -6.185,-3.525c-6.658,-11.193 -13.223,-22.44 -19.692,-33.742c-1.234,-2.243 -1.209,-5.062 0.067,-7.283l7.265,-12.406c0.095,-0.113 0.141,-0.089 0.21,-0.079Zm-7.167,12.664c-1.212,2.112 -1.238,4.796 -0.064,6.929c6.467,11.299 13.031,22.543 19.686,33.732c1.269,2.054 3.587,3.349 6.001,3.353l23.161,-0.15c2.542,-4.815 5.109,-9.627 7.681,-14.427l0.696,-1.296l-26.395,0.159c-0.054,-0.03 -0.054,-0.031 -0.094,-0.078c-4.522,-7.749 -9.144,-15.442 -13.567,-23.249c-0.3,-0.563 -0.39,-1.222 -0.243,-1.839l-9.745,-15.286c-2.372,4.051 -4.744,8.101 -7.117,12.152Z" style="fill:#f4b400;"/></g></g></svg>