<?xml version="1.0" encoding="UTF-8" standalone="no"?>
<!DOCTYPE svg PUBLIC "-//W3C//DTD SVG 1.1//EN" "http://www.w3.org/Graphics/SVG/1.1/DTD/svg11.dtd">
<svg width="100%" height="100%" viewBox="0 0 100 100" version="1.1" xmlns="http://www.w3.org/2000/svg" xmlns:xlink="http://www.w3.org/1999/xlink" xml:space="preserve" xmlns:serif="http://www.serif.com/" style="fill-rule:evenodd;clip-rule:evenodd;stroke-linejoin:round;stroke-miterlimit:1.41421;">
    <g id="googlecloud" transform="matrix(0.47619,0,0,0.47619,0,6.42857)">
        <path d="M52.159,96.307C50.29,93.105 50.249,89.154 52.05,85.913C57.325,76.426 68.418,56.473 73.747,46.886C75.589,43.574 79.079,41.518 82.869,41.513C93.604,41.501 115.654,41.475 126.248,41.462C129.936,41.458 133.36,43.378 135.279,46.527C140.911,55.771 152.797,75.274 158.565,84.74C160.583,88.052 160.611,92.206 158.639,95.545C152.99,105.106 141.339,124.828 135.821,134.169C133.944,137.346 130.538,139.304 126.848,139.328C116.251,139.397 94.215,139.539 83.527,139.608C79.769,139.632 76.285,137.646 74.39,134.401C68.932,125.047 57.584,105.603 52.159,96.307ZM105.191,66.195C119.604,66.195 131.305,77.896 131.305,92.309C131.305,106.721 119.604,118.423 105.191,118.423C90.778,118.423 79.077,106.721 79.077,92.309C79.077,77.896 90.778,66.195 105.191,66.195Z" style="fill:rgb(235,235,235);"/>
        <path d="M126.426,41.088C130.059,41.173 133.537,43.122 135.505,46.18C143.435,58.958 151.267,71.797 158.982,84.706C160.881,88.012 160.913,92.236 159.056,95.573C151.5,108.619 143.826,121.596 136.051,134.513C134.122,137.603 130.664,139.588 127.029,139.701C112.47,139.914 97.908,140.01 83.347,139.983C79.649,139.914 76.114,137.91 74.16,134.746C66.582,122.007 59.111,109.203 51.746,96.34C49.98,93.135 49.94,89.125 51.637,85.889C58.819,72.714 66.108,59.597 73.51,46.544C75.404,43.331 78.937,41.24 82.684,41.14C97.264,41 111.846,40.987 126.426,41.088ZM82.871,41.888C79.334,41.923 75.956,43.873 74.159,46.919C66.762,59.965 59.477,73.075 52.298,86.242C50.716,89.26 50.758,92.993 52.4,95.973C59.761,108.829 67.227,121.626 74.801,134.357C76.616,137.297 79.907,139.169 83.355,139.233C97.907,139.26 112.461,139.164 127.012,138.951C130.395,138.846 133.618,136.994 135.412,134.121C143.182,121.212 150.852,108.241 158.404,95.203C160.13,92.1 160.113,88.181 158.334,85.086C150.624,72.184 142.796,59.352 134.871,46.581C133.036,43.729 129.8,41.917 126.415,41.838C111.901,41.737 97.385,41.871 82.871,41.888ZM105.533,65.822C117.618,66.052 128.907,75.313 131.206,87.297C133.487,99.191 126.442,112.241 115.2,116.838C102.891,121.871 87.162,115.914 81.316,103.789C75.277,91.263 81.115,74.316 94.001,68.296C97.385,66.715 101.104,65.893 104.849,65.822C105.192,65.82 105.191,65.82 105.533,65.822ZM104.858,66.572C93.076,66.796 82.138,75.839 79.913,87.439C77.696,98.997 84.541,111.677 95.466,116.144C107.426,121.035 122.709,115.246 128.39,103.463C134.263,91.284 128.586,74.826 116.063,68.975C112.776,67.439 109.163,66.641 105.524,66.572C105.19,66.57 105.191,66.57 104.858,66.572Z" style="fill:rgb(224,224,224);fill-rule:nonzero;"/>
        <g transform="matrix(-0.503582,-0.863948,0.863948,-0.503582,80.376,226.841)">
            <path d="M26.105,56.782L46.985,89.537C46.628,90.82 46.795,92.213 47.484,93.395C53.503,103.708 75.908,142.098 75.908,142.098L131.84,141.737C122.298,159.5 115.172,172.994 113.846,175.509L64.982,175.825C59.613,175.859 54.635,173.022 51.929,168.386C42.493,152.217 20.315,114.214 10.837,97.974C8.106,93.295 8.111,87.507 10.849,82.832L26.105,56.782Z" style="fill:rgb(219,68,55);"/>
        </g>
        <g transform="matrix(-0.503582,-0.863948,0.863948,-0.503582,80.376,226.841)">
            <path d="M114.095,175.79C113.98,175.859 113.98,175.859 113.848,175.884C97.474,175.99 81.101,176.231 64.726,176.199C59.481,176.102 54.489,173.251 51.737,168.796C37.756,145.293 23.97,121.672 10.384,97.938C7.798,93.238 7.843,87.312 10.524,82.644L25.781,56.593C26.008,56.323 26.234,56.375 26.421,56.58L47.301,89.336C47.47,89.704 47.311,89.762 47.266,89.974C47.061,91.078 47.254,92.228 47.809,93.208L76.122,141.721L131.964,141.383C132.161,141.493 132.269,141.617 132.17,141.914C126.403,152.659 120.652,163.437 114.94,174.24L114.177,175.684C114.15,175.719 114.122,175.754 114.095,175.79ZM114.277,173.889C119.887,163.28 125.535,152.69 131.211,142.116L75.91,142.473C75.686,142.435 75.64,142.353 75.584,142.287C66.086,126.013 56.38,109.859 47.093,93.464C46.462,92.282 46.273,90.897 46.581,89.601L26.118,57.501C21.094,66.079 16,74.616 11.049,83.236C10.185,84.801 9.989,85.426 9.67,86.61C8.689,90.253 9.205,94.238 11.038,97.571C24.62,121.298 38.402,144.911 52.379,168.407C55.043,172.721 59.91,175.44 64.981,175.45L113.619,175.136C113.838,174.72 114.057,174.305 114.277,173.889Z" style="fill:rgb(219,68,55);fill-rule:nonzero;"/>
        </g>
        <g transform="matrix(-0.501963,0.864889,-0.864889,-0.501963,236.304,44.3583)">
            <path d="M26.105,56.782L46.985,89.537C46.628,90.82 46.795,92.213 47.484,93.395C53.503,103.708 75.908,142.098 75.908,142.098L131.84,141.737C122.298,159.5 115.172,172.994 113.846,175.509L64.982,175.825C59.613,175.859 54.635,173.022 51.929,168.386C42.493,152.217 20.315,114.214 10.837,97.974C8.106,93.295 8.111,87.507 10.849,82.832L26.105,56.782Z" style="fill:rgb(66,133,244);"/>
        </g>
        <g transform="matrix(-0.501963,0.864889,-0.864889,-0.501963,236.304,44.3583)">
            <path d="M10.384,97.938C7.792,93.227 7.846,87.308 10.524,82.644L25.781,56.593C26.008,56.323 26.234,56.375 26.421,56.58L47.301,89.336C47.487,89.74 46.924,91.646 47.809,93.208L76.122,141.721L131.964,141.383C132.161,141.493 132.269,141.617 132.17,141.914C126.403,152.659 120.652,163.437 114.94,174.24L114.177,175.684C114.034,175.867 113.936,175.867 113.848,175.884C97.474,175.99 81.101,176.23 64.726,176.199C59.481,176.102 54.489,173.251 51.737,168.796C37.756,145.292 23.969,121.672 10.384,97.938ZM52.253,168.195C54.884,172.62 59.832,175.44 64.981,175.45L113.619,175.136C118.957,165.022 124.347,154.918 129.749,144.838L131.211,142.116C131.211,142.116 75.781,142.451 75.781,142.451C75.668,142.386 75.668,142.386 75.584,142.287C66.086,126.013 56.382,109.858 47.093,93.464C46.462,92.282 46.273,90.897 46.581,89.601L26.118,57.501C21.094,66.079 16,74.616 11.049,83.236C10.185,84.801 9.989,85.426 9.67,86.61C8.689,90.252 9.205,94.238 11.038,97.571C24.578,121.227 38.514,144.654 52.253,168.195Z" style="fill:rgb(66,133,244);fill-rule:nonzero;"/>
        </g>
        <path d="M26.105,56.782L46.985,89.537C46.628,90.82 46.795,92.213 47.484,93.395C53.503,103.708 75.908,142.098 75.908,142.098L131.84,141.737C122.298,159.5 115.172,172.994 113.846,175.509L64.982,175.825C59.613,175.859 54.635,173.022 51.929,168.386C42.493,152.217 20.315,114.214 10.837,97.974C8.106,93.295 8.111,87.507 10.849,82.832L26.105,56.782Z" style="fill:rgb(244,180,0);"/>
        <path d="M26.223,56.426C26.335,56.486 26.335,56.486 26.421,56.58L47.301,89.336C47.487,89.74 46.924,91.646 47.809,93.208L76.122,141.721C76.122,141.721 131.964,141.383 131.964,141.383C132.161,141.493 132.269,141.617 132.17,141.914C126.403,152.659 120.652,163.437 114.94,174.24C114.94,174.24 114.538,175.754 113.848,175.884C97.474,175.99 81.101,176.23 64.726,176.199C59.498,176.102 54.5,173.269 51.737,168.796C37.756,145.292 23.969,121.673 10.384,97.938C7.792,93.227 7.846,87.308 10.524,82.644L25.781,56.593C25.982,56.354 26.077,56.404 26.223,56.426ZM11.173,83.021C8.626,87.454 8.573,93.091 11.038,97.571C24.619,121.298 38.402,144.911 52.379,168.407C55.043,172.721 59.91,175.44 64.981,175.45L113.619,175.136C118.957,165.022 124.347,154.918 129.749,144.838L131.211,142.116C131.211,142.116 75.781,142.451 75.781,142.451C75.668,142.386 75.668,142.386 75.584,142.287C66.086,126.013 56.381,109.858 47.093,93.464C46.462,92.282 46.273,90.897 46.581,89.601L26.118,57.501C21.136,66.007 16.155,74.514 11.173,83.021Z" style="fill:rgb(244,180,0);fill-rule:nonzero;"/>
    </g>
</svg>
