<?xml version="1.0" encoding="UTF-8" standalone="no"?><!DOCTYPE svg PUBLIC "-//W3C//DTD SVG 1.1//EN" "http://www.w3.org/Graphics/SVG/1.1/DTD/svg11.dtd"><svg width="100%" height="100%" viewBox="0 0 2400 2400" version="1.1" xmlns="http://www.w3.org/2000/svg" xmlns:xlink="http://www.w3.org/1999/xlink" xml:space="preserve" xmlns:serif="http://www.serif.com/" style="fill-rule:evenodd;clip-rule:evenodd;stroke-linejoin:round;stroke-miterlimit:2;"><g id="gsuite"><path d="M1520.95,768.75l72.8,0l207.4,-207.4l10.2,-88c-385.9,-340.6 -975,-303.9 -1315.6,82c-94.7,107.2 -163.4,234.7 -200.8,372.7c23.1,-9.5 48.7,-11 72.8,-4.4l414.7,-68.4c0,0 21.1,-34.9 32,-32.7c184.5,-202.6 495,-226.2 708,-53.8l-1.5,0Z" style="fill:#ea4335;fill-rule:nonzero;"/><path d="M2096.55,928.05c-47.7,-175.5 -145.5,-333.3 -281.6,-454l-291,291c122.9,100.4 192.9,251.7 189.9,410.4l0,51.7c143.1,0 259,116 259,259c0,143.1 -116,259 -259,259l-518.1,-0l-51.7,52.4l0,310.7l51.7,51.7l518.1,0c297,2.3 560.5,-190.2 648.7,-473.8c88,-283.7 -20,-591.7 -266,-758.1Z" style="fill:#4285f4;fill-rule:nonzero;"/><path d="M676.95,2157.05l518.1,0l0,-414.7l-518.1,-0c-36.9,-0 -73.4,-7.9 -107,-23.3l-72.8,22.5l-208.8,207.4l-18.2,72.8c117.1,88.4 260,135.9 406.8,135.3Z" style="fill:#34a853;fill-rule:nonzero;"/><path d="M676.95,811.65c-287.8,1.7 -542.7,186 -634.5,458.7c-91.8,272.7 -0.3,573.7 227.8,749.1l300.5,-300.5c-130.4,-58.9 -188.3,-212.3 -129.4,-342.7c58.9,-130.4 212.3,-188.3 342.7,-129.4c57.4,26 103.4,72 129.4,129.4l300.5,-300.5c-127.9,-167.1 -326.6,-264.8 -537,-264.1Z" style="fill:#fbbc05;fill-rule:nonzero;"/></g></svg>