<?xml version="1.0" encoding="UTF-8" standalone="no"?>
<!DOCTYPE svg PUBLIC "-//W3C//DTD SVG 1.1//EN" "http://www.w3.org/Graphics/SVG/1.1/DTD/svg11.dtd">
<svg width="100%" height="100%" viewBox="0 0 100 100" version="1.1" xmlns="http://www.w3.org/2000/svg" xmlns:xlink="http://www.w3.org/1999/xlink" xml:space="preserve" xmlns:serif="http://www.serif.com/" style="fill-rule:evenodd;clip-rule:evenodd;stroke-linejoin:round;stroke-miterlimit:2;">
    <g transform="matrix(0.597008,0,0,0.909091,4.68873,5.34822)">
        <path d="M0.371,32.545L0.371,30.545L18.313,30.545L18.313,32.545L15.261,32.545C13.858,32.545 12.99,32.711 12.657,33.045C12.324,33.378 12.157,34.088 12.157,35.176L12.157,64.641C12.157,65.483 12.227,66.079 12.368,66.43C12.648,67.096 13.49,67.43 14.893,67.43L18.313,67.43L18.313,69.429L0.371,69.429L0.371,67.43L3.791,67.43C4.984,67.43 5.755,67.254 6.106,66.903C6.457,66.553 6.632,65.798 6.632,64.641L6.632,35.176C6.632,34.088 6.474,33.404 6.159,33.124C5.738,32.738 4.826,32.545 3.423,32.545L0.371,32.545Z" style="fill:rgb(9,52,122);fill-rule:nonzero;stroke:rgb(9,52,122);stroke-width:0.65px;"/>
        <path d="M40.938,61.957L42.675,62.694C40.114,67.675 36.413,70.166 31.573,70.166C28.24,70.166 25.46,68.982 23.233,66.614C21.005,64.246 19.892,61.186 19.892,57.432C19.892,53.469 20.979,50.241 23.154,47.751C25.329,45.26 28.082,44.015 31.415,44.015C34.782,44.015 37.474,45.199 39.491,47.567C41.508,49.935 42.517,53.206 42.517,57.38L24.838,57.38C24.838,58.748 24.925,59.958 25.101,61.01C25.276,62.063 25.574,62.975 25.995,63.746C27.433,66.447 29.661,67.798 32.678,67.798C36.115,67.798 38.869,65.851 40.938,61.957ZM24.838,55.38L35.519,55.38C36.852,55.38 37.518,54.503 37.518,52.75C37.518,50.785 36.931,49.11 35.756,47.725C34.58,46.339 33.151,45.646 31.467,45.646C29.503,45.646 27.907,46.506 26.679,48.225C25.452,49.943 24.838,52.329 24.838,55.38Z" style="fill:rgb(9,52,122);fill-rule:nonzero;stroke:rgb(9,52,122);stroke-width:0.65px;"/>
        <path d="M44.779,32.545L44.779,30.545L64.879,30.545C67.264,30.545 69.281,30.817 70.93,31.361C72.578,31.905 74.245,32.966 75.928,34.544C79.857,38.262 81.821,43.384 81.821,49.908C81.821,55.451 80.515,59.905 77.901,63.273C75.288,66.64 71.631,68.622 66.931,69.218C66.405,69.289 65.712,69.341 64.852,69.376C63.993,69.411 63.3,69.429 62.774,69.429L44.779,69.429L44.779,67.43L48.462,67.43C50.146,67.43 50.988,66.816 50.988,65.588L50.988,34.281C50.988,33.124 50.251,32.545 48.778,32.545L44.779,32.545ZM63.353,32.545L58.933,32.545C57.355,32.545 56.565,33.176 56.565,34.439L56.565,65.535C56.565,66.798 57.53,67.43 59.459,67.43L62.774,67.43C67.229,67.43 70.456,66.07 72.456,63.352C74.455,60.633 75.455,56.363 75.455,50.54C75.455,44.366 74.473,39.823 72.508,36.912C70.544,34.001 67.492,32.545 63.353,32.545Z" style="fill:rgb(9,52,122);fill-rule:nonzero;stroke:rgb(9,52,122);stroke-width:0.65px;"/>
        <path d="M84.242,32.545L84.242,30.545L115.022,30.545L115.812,43.647L114.023,43.647C113.321,39.753 112.251,36.93 110.813,35.176C109.375,33.422 107.358,32.545 104.762,32.545L97.133,32.545C95.87,32.545 95.239,33.194 95.239,34.492L95.239,48.33L98.606,48.33C100.535,48.33 102.044,47.681 103.131,46.383C104.218,45.085 104.762,43.138 104.762,40.543L106.604,40.543L106.604,58.59L104.762,58.59C104.762,53.048 102.622,50.277 98.343,50.277L95.239,50.277L95.239,65.693C95.239,66.851 96.063,67.43 97.711,67.43L103.762,67.43C110.322,67.43 114.075,63.273 115.022,54.959L116.917,54.959L116.285,69.429L84.242,69.429L84.242,67.43L86.872,67.43C88.767,67.43 89.714,66.728 89.714,65.325L89.714,34.492C89.714,33.194 88.942,32.545 87.399,32.545L84.242,32.545Z" style="fill:rgb(9,52,122);fill-rule:nonzero;stroke:rgb(9,52,122);stroke-width:0.65px;"/>
    </g>
    <g id="Ribbon" transform="matrix(0.909091,0,0,0.909091,4.54545,4.54545)">
        <g transform="matrix(-1.0053,0,0,1,178.155,0)">
            <path d="M78.623,58.311C78.722,58.106 91.71,38.898 91.71,38.898C92.098,38.209 92.2,37.658 92.129,36.969C91.929,36.725 91.673,36.573 91.37,36.5L91.31,30.566C93.729,31.842 95.587,33.781 96.642,36.67C97.274,38.431 97.245,40.193 96.705,41.954L78.923,69.226L78.623,58.311" style="fill:rgb(236,32,40);stroke:rgb(126,19,45);stroke-width:0.5px;stroke-linecap:round;stroke-miterlimit:1.5;"/>
        </g>
        <g transform="matrix(1.0053,0,0,1,-0.512362,0)">
            <path d="M78.623,58.311C78.722,58.106 91.71,38.898 91.71,38.898C92.098,38.209 92.146,37.596 92.076,36.907C91.891,36.735 91.661,36.596 91.37,36.5L91.31,30.566C93.729,31.842 95.587,33.781 96.642,36.67C97.274,38.431 97.245,40.193 96.705,41.954L79.489,69.019L78.623,58.311" style="fill:rgb(236,32,40);stroke:rgb(126,19,45);stroke-width:0.5px;stroke-linecap:round;stroke-miterlimit:1.5;"/>
        </g>
        <path d="M86.339,30.583C87.955,29.898 89.624,29.876 91.29,30.567L91.35,36.464C89.697,36.016 87.952,36.03 86.3,36.483L86.339,30.583Z" style="fill:rgb(126,19,45);stroke:rgb(126,19,45);stroke-width:0.5px;stroke-linecap:round;stroke-miterlimit:1.5;"/>
    </g>
</svg>
