<?xml version="1.0" encoding="UTF-8" standalone="no"?>
<!DOCTYPE svg PUBLIC "-//W3C//DTD SVG 1.1//EN" "http://www.w3.org/Graphics/SVG/1.1/DTD/svg11.dtd">
<svg width="100%" height="100%" viewBox="0 0 263 263" version="1.1" xmlns="http://www.w3.org/2000/svg" xmlns:xlink="http://www.w3.org/1999/xlink" xml:space="preserve" xmlns:serif="http://www.serif.com/" style="fill-rule:evenodd;clip-rule:evenodd;stroke-linecap:round;stroke-linejoin:round;stroke-miterlimit:1.5;">
    <g transform="matrix(1,0,0,1,8.32875,0.0818797)">
        <path d="M108.97,129.001C101.626,104.476 97.483,79.628 94.917,54.622C94.293,48.109 93.866,41.624 95.819,35.48C98.064,25.245 101.746,17.508 105.93,10.646C107.292,8.854 109.99,9.021 113.117,9.813C141.999,21.108 164.641,37.226 177.192,61.146C178.785,63.949 178.832,66.547 177.747,68.994C166.143,93.867 150.329,113.248 129.971,126.904L112.369,130.806C110.218,130.85 109.146,130.209 108.97,129.001" style="fill:rgb(96,213,238);stroke:rgb(96,213,238);stroke-width:1px;"/>
    </g>
    <g transform="matrix(1,0,0,1,8.32875,0.0818797)">
        <g id="Layer1">
            <path d="M109.428,131.958L128.59,127.949C135.945,127.248 143.102,127.525 150.087,128.652C166.646,131.83 183.066,135.461 199.254,139.837C203.329,141.731 204.585,144.199 202.517,147.344C200.526,152.427 196.573,156.025 190.996,158.393C176.391,165.039 158.575,167.792 138.793,168.163C127.697,168.967 116.531,167.042 105.342,164.202C102.326,163.006 100.531,160.258 99.471,156.575C98.674,151.624 98.718,146.673 99.625,141.722C101.423,137.537 104.531,134.18 109.428,131.958" style="fill:rgb(0,181,169);stroke:rgb(0,181,169);stroke-width:1px;"/>
        </g>
    </g>
    <g transform="matrix(1,0,0,1,8.32875,0.0818797)">
        <g id="Layer2">
            <path d="M51.806,180.039C54.982,174.087 62.7,169.499 74.96,166.275C84.451,164.853 94.261,163.976 105.179,164.989L130.856,169.873C139.537,172.956 145.098,176.372 145.8,180.307C147.282,183.448 147.544,186.79 146.226,190.394C144.985,195.843 142.174,199.877 136.564,201.389C118.437,206.845 97.607,205.84 76.768,204.811C64.249,202.9 55.348,197.545 51.246,187.62C50.744,185.093 50.839,182.566 51.806,180.039" style="fill:rgb(11,129,198);stroke:rgb(11,129,198);stroke-width:1px;"/>
        </g>
    </g>
    <g transform="matrix(1,0,0,1,8.32875,0.0818797)">
        <g id="Layer3">
            <path d="M149.136,250.403L50.109,248.845C47.268,248.138 45.36,246.723 44.662,244.393C43.708,242.904 43.61,241.382 44.546,239.819C52.873,225.024 72.077,214.307 98.605,206.334L129.713,203.974C142.833,213.273 151.583,224.292 155.782,237.101C156.426,239.514 156.519,241.871 155.681,244.135C155.129,247.597 152.787,249.552 149.136,250.403" style="fill:rgb(36,77,123);stroke:rgb(36,77,123);stroke-width:1px;"/>
        </g>
    </g>
</svg>
