<?xml version="1.0" encoding="UTF-8" standalone="no"?>
<!DOCTYPE svg PUBLIC "-//W3C//DTD SVG 1.1//EN" "http://www.w3.org/Graphics/SVG/1.1/DTD/svg11.dtd">
<svg width="100%" height="100%" viewBox="0 0 200 200" version="1.1" xmlns="http://www.w3.org/2000/svg" xmlns:xlink="http://www.w3.org/1999/xlink" xml:space="preserve" xmlns:serif="http://www.serif.com/" style="fill-rule:evenodd;clip-rule:evenodd;stroke-linejoin:round;stroke-miterlimit:2;">
    <g id="Layer-1" serif:id="Layer 1" transform="matrix(1,0,0,1,-304.371,-281.449)">
        <g id="g4704">
            <g id="g4692">
                <path id="path4667" d="M337.031,466.434L335.988,464.372L326.134,443.653L316.28,422.935L336.451,380.748L326.356,359.605L316.262,338.462L327.01,315.917L338.564,294.84C357.826,294.709 375.81,294.531 395.072,294.4L405.27,313.801L414.994,334.622L443.38,334.997L471.766,335.372L482.124,357.684L492.481,379.997L482.124,402.31L471.766,424.622L444.088,424.841L416.411,425.059L396.276,468.497L338.074,468.497L337.031,466.434ZM400.847,445.622L408.615,429.122L410.006,425.997L411.396,422.873L402.202,403.122L393.008,383.372L367.19,383.175L341.372,382.978L332.079,402.527L322.786,422.076L322.803,423.872L332.029,443.194L341.256,462.516L367.168,462.319L393.08,462.122L400.847,445.622ZM477.271,399.684L486.463,379.997L477.271,360.309L468.079,340.622L442.181,340.425L416.284,340.228L407.16,359.418L398.036,378.607L398.036,380.532L405.867,397.084C409.937,405.413 413.117,411.886 416.826,419.767L442.452,419.569L468.079,419.372L477.271,399.684ZM396.126,369.684L399.84,361.622L405.367,350.039L410.894,338.457L410.028,336.539L409.163,334.622L400.859,316.8L392.554,298.978L366.641,299.175L340.728,299.372L322.188,338.285L328.363,351.078L334.538,363.872L337.762,370.809L340.987,377.747L366.699,377.746L392.411,377.746L396.126,369.684Z" style="fill:rgb(153,153,153);fill-rule:nonzero;"/>
                <path id="path4665" d="M416.411,419.41L442.286,418.961L455.223,419.186L468.161,419.41L416.411,419.41Z" style="fill:rgb(196,211,241);fill-rule:nonzero;"/>
                <path id="path4661" d="M428.925,340.436L441.44,340.211L467.411,340.66L416.411,340.661L428.925,340.436Z" style="fill:rgb(176,198,244);fill-rule:nonzero;"/>
                <path id="path4659" d="M398.035,379.697L398.035,379.397L407.099,362.302L416.163,345.207L442.364,345.015L468.565,344.824L477.211,361.657L485.857,378.491L486.16,379.244L486.463,379.997L398.036,379.997L398.035,379.697Z" style="fill:rgb(170,194,246);fill-rule:nonzero;"/>
                <path id="path4657" d="M423.296,379.435L441.432,379.221L460.046,379.435L478.661,379.649L405.161,379.65L423.296,379.435ZM431.269,346.436L442.377,346.206L463.661,346.666L441.911,346.666L420.161,346.665L431.269,346.436Z" style="fill:rgb(164,190,247);fill-rule:nonzero;"/>
                <path id="path4655" d="M397.339,379.782C403.747,366.769 409.468,353.361 416.284,340.228L442.316,340.029L468.152,339.827L477.362,359.728L486.572,379.628L477.367,399.519L468.161,419.41C451.114,419.536 434.306,419.73 416.826,419.767C410.144,406.149 403.347,392.87 397.339,379.782L397.339,379.782ZM479.89,379.055L479.898,378.481L472.154,361.842L464.41,345.203L420.425,345.203L412.924,360.827L405.423,376.452L404.922,378.04L404.42,379.629L479.882,379.629L479.891,379.055L479.89,379.055Z" style="fill:rgb(156,185,246);fill-rule:nonzero;"/>
                <path id="path4653" d="M353.925,383.186L366.44,382.961L392.411,383.41L341.411,383.411L353.925,383.186Z" style="fill:rgb(142,143,189);fill-rule:nonzero;"/>
                <path id="path4649" d="M332.839,413.034L338.106,402.556L340.951,396.638L343.985,387.501L366.455,388.65C366.455,388.65 389.916,387.459 389.158,388.975C397.686,401.825 402.178,412.344 407.707,423.701L366.408,423.512L326.902,424.048L332.839,413.034ZM327.52,337.591C333.129,326.175 338.625,314.101 343.063,304.071C358.707,304.653 374.388,304.847 389.939,303.478C396.245,314.688 402.319,329.558 406.058,340.246C379.609,340.107 353.715,340.574 326.869,339.469C326.869,339.469 327.517,337.78 327.519,337.591L327.52,337.591Z" style="fill:rgb(79,80,159);fill-rule:nonzero;"/>
                <path id="path4641" d="M337.323,454.444L333.421,446.372L327.682,434.683L321.943,422.995L331.395,403.558L341.372,382.978L367.264,383.276L393.008,383.372L401.387,401.518L409.85,419.279L410.688,421.201L411.527,423.122C405.235,436.055 399.543,448.665 393.08,462.122L367.033,462.319L341.224,462.517L337.323,454.444ZM405.228,422.746L404.849,421.893L397.003,405.434L389.158,388.975L366.856,389.173L344.554,389.372L336.656,405.497L328.758,421.622L328.25,422.72L328.679,422.746L405.228,422.746ZM338.817,373.059L336.629,368.372L329.157,353.361L321.686,338.35L331.207,318.861L340.728,299.372L366.504,299.174L392.554,298.978C398.559,312.198 404.818,325.297 411.061,338.404C404.449,351.385 398.098,365.503 392.411,377.746L366.579,377.735L341.005,377.746L338.817,373.059ZM404.849,338.747L404.849,338.238L396.921,321.805L388.992,305.372L344.085,305.372L336.701,320.372C333.744,326.484 330.5,332.453 327.948,338.747L404.849,338.747Z" style="fill:rgb(48,50,142);fill-rule:nonzero;"/>
            </g>
        </g>
    </g>
</svg>
