<?xml version="1.0" encoding="UTF-8" standalone="no"?>
<!DOCTYPE svg PUBLIC "-//W3C//DTD SVG 1.1//EN" "http://www.w3.org/Graphics/SVG/1.1/DTD/svg11.dtd">
<svg width="100%" height="100%" viewBox="0 0 350 350" version="1.1" xmlns="http://www.w3.org/2000/svg" xmlns:xlink="http://www.w3.org/1999/xlink" xml:space="preserve" xmlns:serif="http://www.serif.com/" style="fill-rule:evenodd;clip-rule:evenodd;stroke-linecap:round;stroke-linejoin:round;stroke-miterlimit:1.5;">
    <g transform="matrix(1,0,0,1,12.3123,-0.901597)">
        <g transform="matrix(0.936292,0,0,0.936292,1.5536,3.15201)">
            <circle cx="172.226" cy="183.602" r="152.996" style="fill:rgb(0,11,18);fill-opacity:0.87;"/>
        </g>
        <path d="M135.602,315.038C126.876,302.731 120.972,289.502 118.542,275.136C114.659,263.577 114.364,251.775 118.125,239.7C119.472,224.74 123.591,210.383 130.972,196.735C135.292,188.266 141.318,183.21 149.048,181.561C145.39,174.708 143.073,167.855 143.088,161.001C144.595,154.751 148.169,150.023 154.661,147.445C150.298,141.185 149.196,134.692 151.916,127.925C158.539,117.471 170.051,112.698 186.379,113.523C189.971,119.037 194.464,122.956 200.68,123.827L229.147,122.006C233.557,122.001 234.576,129.007 234.089,139.128C234.616,133.239 235.114,127.343 237.769,121.986C249.181,124.67 259.256,134.18 269.171,144.507C276.361,150.018 281.451,149.068 285.289,144.263L289.624,119.095C310.781,143.664 310.325,179.102 298.349,221.673C290.9,254.933 268.591,280.687 235.857,301.173C203.269,318.652 169.914,324.249 135.602,315.038" style="fill:rgb(3,173,201);fill-opacity:0.87;stroke:rgb(2,92,108);stroke-width:1px;"/>
        <path d="M84.352,298.097L92.43,266.223C94.44,255.208 93.466,243.787 89.803,231.998C80.153,207.139 71.566,182.398 66.644,158.064C66.605,149.758 62.487,143.244 51.293,139.838L26.885,129.674C19.412,143.885 16.875,161.159 17.01,180.092C18.603,198.002 22.531,215.809 29.895,233.466C34.229,246.982 41.082,257.877 49.876,266.752C58.874,279.357 70.88,289.361 84.352,298.097" style="fill:rgb(7,166,189);fill-opacity:0.87;stroke:rgb(1,96,119);stroke-width:3.5px;"/>
        <path d="M285.034,103.284C256.804,96.691 230.063,90.763 202.621,93.876C183.822,97.441 166.739,103.947 151.631,113.838C133.449,134.473 119.037,157.065 109.053,181.954C103.452,199.276 101.869,216.703 103.768,234.221C101.393,256.756 104.483,279.293 112.353,301.832L115.391,310.917C148.168,323.337 180.249,322.708 211.732,310.888C242.06,302.207 262.833,287.616 273.384,266.703C294.728,244.596 305.576,217.257 307.25,185.346C309.419,167.647 309.047,150.201 300.606,133.558" style="fill:none;stroke:rgb(2,92,108);stroke-width:3.5px;"/>
        <path d="M96.375,302.098C102.923,288.119 105.101,272.174 104.228,254.855L93.112,190.261C89.429,170.571 82.408,152.466 70.984,136.449C63.984,121.966 52.853,112.465 38.891,106.377C27.658,123.007 21.172,142.129 20.431,164.268C18.797,179.531 20.063,195.64 24.724,212.739C29.531,231.53 37.367,248.489 48.994,263.154C62.666,279.828 78.243,293.187 96.375,302.098Z" style="fill:none;stroke:rgb(2,92,108);stroke-width:3.5px;"/>
        <g transform="matrix(0.828462,0,0,0.828462,15.5694,15.697)">
            <text x="103.901px" y="90.177px" style="font-family:'ArialMT', 'Arial', sans-serif;font-size:12px;fill:rgb(114,211,213);fill-opacity:0.34;">Sc 2</text>
            <text x="103.901px" y="102.569px" style="font-family:'ArialMT', 'Arial', sans-serif;font-size:12px;fill:rgb(114,211,213);fill-opacity:0.34;">TSE/M</text>
            <text x="103.901px" y="114.962px" style="font-family:'ArialMT', 'Arial', sans-serif;font-size:12px;fill:rgb(114,211,213);fill-opacity:0.34;">SL<tspan x="118.134px 121.468px " y="114.962px 114.962px "> 1</tspan>0</text>
        </g>
        <g transform="matrix(0.936292,0,0,0.936292,1.5536,3.15201)">
            <circle cx="172.226" cy="183.602" r="152.996" style="fill:none;stroke:rgb(101,101,101);stroke-width:10.68px;"/>
        </g>
    </g>
</svg>
