<?xml version="1.0" encoding="UTF-8" standalone="no"?>
<!DOCTYPE svg PUBLIC "-//W3C//DTD SVG 1.1//EN" "http://www.w3.org/Graphics/SVG/1.1/DTD/svg11.dtd">
<svg width="100%" height="100%" viewBox="0 0 659 661" version="1.1" xmlns="http://www.w3.org/2000/svg" xmlns:xlink="http://www.w3.org/1999/xlink" xml:space="preserve" xmlns:serif="http://www.serif.com/" style="fill-rule:evenodd;clip-rule:evenodd;stroke-linecap:round;stroke-linejoin:round;stroke-miterlimit:1.5;">
    <g id="green" transform="matrix(1.50566,0,0,1.50566,-300.018,-162.254)">
        <circle cx="215.908" cy="125.897" r="193.085" style="fill:rgb(183,212,50);stroke:rgb(183,212,50);stroke-width:0.66px;"/>
    </g>
    <g id="orange" transform="matrix(-1.50566,0,0,1.50566,956.13,-161.806)">
        <circle cx="215.908" cy="125.897" r="193.085" style="fill:rgb(245,134,32);stroke:rgb(245,134,32);stroke-width:0.66px;"/>
    </g>
    <g id="blue" transform="matrix(1.50566,0,0,1.50566,-301.495,435.253)">
        <circle cx="215.908" cy="125.897" r="193.085" style="fill:rgb(92,153,210);stroke:rgb(92,153,210);stroke-width:0.66px;"/>
    </g>
    <g id="grey" transform="matrix(-1.50566,0,0,1.50566,954.653,435.701)">
        <circle cx="215.908" cy="125.897" r="193.085" style="fill:rgb(156,158,161);stroke:rgb(156,158,161);stroke-width:0.66px;"/>
    </g>
    <g id="border" transform="matrix(1.01558,0,0,1.01558,-6.16917,-6.17846)">
        <path d="M658.513,4.237L1.654,4.237L1.654,657.787L658.513,657.787L658.513,4.237ZM634.531,27.476L25.722,27.476L25.722,634.846L634.531,634.846L634.531,27.476Z" style="fill:rgb(1,2,2);stroke:rgb(7,9,13);stroke-width:0.98px;"/>
    </g>
</svg>
