<?xml version="1.0" encoding="UTF-8" standalone="no"?>
<!DOCTYPE svg PUBLIC "-//W3C//DTD SVG 1.1//EN" "http://www.w3.org/Graphics/SVG/1.1/DTD/svg11.dtd">
<svg width="100%" height="100%" viewBox="0 0 750 750" version="1.1" xmlns="http://www.w3.org/2000/svg" xmlns:xlink="http://www.w3.org/1999/xlink" xml:space="preserve" xmlns:serif="http://www.serif.com/" style="fill-rule:evenodd;clip-rule:evenodd;stroke-linecap:round;stroke-linejoin:round;stroke-miterlimit:1.5;">
    <g transform="matrix(1.50566,0,0,1.50566,-254.518,-117.754)">
        <path d="M408.946,122.192L408.993,125.897C408.993,232.464 322.475,318.982 215.908,318.982L212.513,318.939L212.513,122.192L408.946,122.192Z" style="fill:rgb(183,212,50);stroke:rgb(183,212,50);stroke-width:0.66px;"/>
    </g>
    <g transform="matrix(-1.50566,0,0,1.50566,1001.63,-117.306)">
        <path d="M211.126,121.895L408.943,121.895L408.993,125.897C408.993,232.464 322.475,318.982 215.908,318.982L211.126,318.922L211.126,121.895Z" style="fill:rgb(245,134,32);stroke:rgb(245,134,32);stroke-width:0.66px;"/>
    </g>
    <g transform="matrix(1.50566,0,0,1.50566,-255.995,479.753)">
        <path d="M213.494,-67.157L215.908,-67.188C322.475,-67.188 408.993,19.331 408.993,125.897C408.993,128.956 408.922,131.998 408.772,135.027L213.494,135.027L213.494,-67.157Z" style="fill:rgb(92,153,210);stroke:rgb(92,153,210);stroke-width:0.66px;"/>
    </g>
    <g transform="matrix(-1.50566,0,0,1.50566,1000.15,480.201)">
        <path d="M408.784,134.73L210.145,134.73L210.145,-67.095C212.057,-67.16 213.979,-67.188 215.908,-67.188C322.475,-67.188 408.993,19.331 408.993,125.897C408.993,128.86 408.926,131.807 408.784,134.73Z" style="fill:rgb(156,158,161);stroke:rgb(156,158,161);stroke-width:0.66px;"/>
    </g>
    <g id="border" transform="matrix(1.01558,0,0,1.01558,39.3308,38.3215)">
        <path d="M658.513,4.237L1.654,4.237L1.654,657.787L658.513,657.787L658.513,4.237ZM634.531,27.476L25.722,27.476L25.722,634.846L634.531,634.846L634.531,27.476Z" style="fill:rgb(1,2,2);stroke:rgb(7,9,13);stroke-width:0.98px;"/>
    </g>
</svg>
