<?xml version="1.0" encoding="UTF-8" standalone="no"?>
<!DOCTYPE svg PUBLIC "-//W3C//DTD SVG 1.1//EN" "http://www.w3.org/Graphics/SVG/1.1/DTD/svg11.dtd">
<svg width="100%" height="100%" viewBox="0 0 100 100" version="1.1" xmlns="http://www.w3.org/2000/svg" xmlns:xlink="http://www.w3.org/1999/xlink" xml:space="preserve" xmlns:serif="http://www.serif.com/" style="fill-rule:evenodd;clip-rule:evenodd;stroke-linejoin:round;stroke-miterlimit:1.41421;">
    <g id="java">
        <g id="path5" transform="matrix(0.0641971,0,0,0.0641971,17.2468,5.9107)">
            <path d="M322.061,1048.58C322.061,1048.58 270.247,1078.72 358.935,1088.91C466.379,1101.17 521.293,1099.41 639.697,1077C639.697,1077 670.826,1096.52 714.301,1113.43C448.87,1227.19 113.579,1106.84 322.061,1048.58" style="fill:rgb(11,111,182);fill-rule:nonzero;"/>
        </g>
        <g id="path7" transform="matrix(0.0641971,0,0,0.0641971,17.2468,5.9107)">
            <path d="M289.627,900.136C289.627,900.136 231.512,943.154 320.266,952.334C435.042,964.175 525.682,965.143 682.525,934.942C682.525,934.942 704.218,956.935 738.33,968.962C417.408,1062.8 59.959,976.363 289.627,900.136" style="fill:rgb(11,111,182);fill-rule:nonzero;"/>
        </g>
        <g id="path9" transform="matrix(0.0641971,0,0,0.0641971,17.2468,5.9107)">
            <path d="M563.057,648.319C628.459,723.617 545.873,791.376 545.873,791.376C545.873,791.376 711.94,705.648 635.673,598.295C564.442,498.182 509.818,448.44 805.534,276.935C805.534,276.935 341.357,392.865 563.057,648.319" style="fill:rgb(225,31,33);fill-rule:nonzero;"/>
        </g>
        <g id="path11" transform="matrix(0.0641971,0,0,0.0641971,17.2468,5.9107)">
            <path d="M914.111,1158.39C914.111,1158.39 952.454,1189.98 871.882,1214.42C718.672,1260.83 234.205,1274.85 99.622,1216.27C51.243,1195.22 141.968,1166.02 170.506,1159.89C200.269,1153.43 217.277,1154.64 217.277,1154.64C163.475,1116.74 -130.48,1229.06 67.963,1261.23C609.145,1348.99 1054.49,1221.7 914.111,1158.39" style="fill:rgb(11,111,182);fill-rule:nonzero;"/>
        </g>
        <g id="path13" transform="matrix(0.0641971,0,0,0.0641971,17.2468,5.9107)">
            <path d="M346.978,746.327C346.978,746.327 100.547,804.858 259.71,826.113C326.914,835.111 460.883,833.075 585.672,822.619C687.656,814.016 790.06,795.725 790.06,795.725C790.06,795.725 754.099,811.126 728.082,828.891C477.836,894.705 -5.592,864.088 133.581,796.767C251.279,739.873 346.978,746.327 346.978,746.327" style="fill:rgb(11,111,182);fill-rule:nonzero;"/>
        </g>
        <g id="path15" transform="matrix(0.0641971,0,0,0.0641971,17.2468,5.9107)">
            <path d="M789.044,993.426C1043.43,861.237 925.812,734.204 843.716,751.319C823.594,755.507 814.622,759.136 814.622,759.136C814.622,759.136 822.092,747.434 836.36,742.369C998.772,685.27 1123.68,910.775 783.931,1000.09C783.931,1000.09 787.867,996.573 789.044,993.426" style="fill:rgb(11,111,182);fill-rule:nonzero;"/>
        </g>
        <g id="path17" transform="matrix(0.0641971,0,0,0.0641971,17.2468,5.9107)">
            <path d="M635.673,0C635.673,0 776.557,140.931 502.052,357.642C281.926,531.482 451.856,630.601 501.96,743.849C373.47,627.919 279.175,525.865 342.435,430.883C435.286,291.458 692.516,223.86 635.673,0" style="fill:rgb(225,31,33);fill-rule:nonzero;"/>
        </g>
        <g id="path19" transform="matrix(0.0641971,0,0,0.0641971,17.2468,5.9107)">
            <path d="M371.975,1351.63C616.154,1367.26 991.119,1342.96 1000,1227.42C1000,1227.42 982.93,1271.22 798.199,1306C589.787,1345.22 332.739,1340.64 180.282,1315.51C180.285,1315.51 211.492,1341.34 371.975,1351.63" style="fill:rgb(11,111,182);fill-rule:nonzero;"/>
        </g>
    </g>
</svg>
