<?xml version="1.0" encoding="UTF-8" standalone="no"?><!DOCTYPE svg PUBLIC "-//W3C//DTD SVG 1.1//EN" "http://www.w3.org/Graphics/SVG/1.1/DTD/svg11.dtd"><svg width="100%" height="100%" viewBox="0 0 50 50" version="1.1" xmlns="http://www.w3.org/2000/svg" xmlns:xlink="http://www.w3.org/1999/xlink" xml:space="preserve" xmlns:serif="http://www.serif.com/" style="fill-rule:evenodd;clip-rule:evenodd;stroke-linejoin:round;stroke-miterlimit:2;"><g id="jira"><g><path d="M25.009,31.703c3.987,5.061 3.877,10.024 0.249,14.903l-22.813,-22.625l21.702,-21.883l0.047,0.046c-3.701,5.265 -3.772,10.43 0.311,15.444l-6.795,6.852l7.203,7.143l0.096,0.12Zm21.956,-6.975l-0.278,0.281l0.004,-0.553l0.274,0.272Z" style="fill:#2684ff;"/><path d="M24.837,17.447c-3.989,-5.059 -3.88,-10.022 -0.254,-14.903l22.821,22.618l-21.696,21.89l-0.046,-0.046c3.699,-5.267 3.768,-10.431 -0.316,-15.444l6.792,-6.854l-7.205,-7.14l-0.096,-0.121Zm-21.954,6.983l0.278,-0.281l-0.003,0.553l-0.275,-0.272Z" style="fill:#2684ff;"/></g></g></svg>