<?xml version="1.0" encoding="UTF-8" standalone="no"?>
<!DOCTYPE svg PUBLIC "-//W3C//DTD SVG 1.1//EN" "http://www.w3.org/Graphics/SVG/1.1/DTD/svg11.dtd">
<svg width="100%" height="100%" viewBox="0 0 266 250" version="1.1" xmlns="http://www.w3.org/2000/svg" xmlns:xlink="http://www.w3.org/1999/xlink" xml:space="preserve" xmlns:serif="http://www.serif.com/" style="fill-rule:evenodd;clip-rule:evenodd;stroke-linecap:round;stroke-linejoin:round;stroke-miterlimit:1.5;">
    <g transform="matrix(0.975837,0,0,0.975837,-25.3201,-43.1564)">
        <path d="M161.779,51.521C228.45,51.521 282.578,105.649 282.578,172.32C282.578,238.991 228.45,293.119 161.779,293.119C95.108,293.119 40.98,238.991 40.98,172.32C40.98,105.649 95.108,51.521 161.779,51.521ZM161.779,56.248C225.841,56.248 277.851,108.258 277.851,172.32C277.851,236.382 225.841,288.392 161.779,288.392C97.717,288.392 45.707,236.382 45.707,172.32C45.707,108.258 97.717,56.248 161.779,56.248Z" style="fill:rgb(101,47,108);"/>
    </g>
    <g transform="matrix(1,0,0,1,-24.8399,-32.4556)">
        <path d="M60.271,215.124C75.596,194.713 96.395,178.413 119.8,162.675C151.554,141.322 174.277,119.133 184.795,94.648C190.498,83.649 193.708,72.011 194.647,59.79L194.066,49.621C187.433,45.718 180.157,43.076 172.447,43.646L169.054,54.075C166.079,63.097 160.97,70.573 154.093,76.769C146.959,84.564 138.375,90.669 128.818,95.639L92.86,120.183C75.482,130.512 59.443,143.815 45.135,158.792C43.392,178.521 48.582,197.278 60.271,215.124" style="fill:rgb(101,47,108);stroke:rgb(101,47,108);stroke-width:1px;"/>
    </g>
    <g transform="matrix(1,0,0,1,-24.8399,-32.4556)">
        <path d="M70.648,229.776C78.816,214.739 92.245,201.117 109.143,188.427L159.05,150.199C180.17,133.869 197.401,114.499 202.359,85.534C204.313,74.579 203.892,63.598 202.753,52.721L209.888,55.848C215.288,74.514 216.299,92.828 211.547,110.678C211.208,114.15 211.14,117.642 211.744,121.182C212.205,127.954 214.113,134.497 217.946,140.737L228.925,155.386C230.37,158.313 230.739,160.873 228.977,162.707C227.781,165.212 225.608,166.705 222.501,167.231C219.537,167.966 217.13,169.474 215.394,171.914C213.887,174.389 214.118,176.307 215.076,177.992C216.341,179.663 217.709,180.89 219.179,181.674C220.351,183.176 220.776,184.677 220.583,186.179C220.151,187.864 219.269,189.323 217.445,190.309C216.076,191.316 214.207,191.822 211.882,191.873C212.686,193.732 214.032,194.84 215.723,195.471C216.638,198.829 216.292,201.663 214.742,203.998C212.628,205.644 209.436,206.673 205.412,207.227C204.929,214.26 204.728,219.99 205.898,227.058C205.002,232.38 202.408,236.134 197.492,237.744C193.046,240.111 186.968,240.035 179.774,238.289L153.984,229.116C140.574,225.054 127.321,223.966 114.287,226.989C101.708,228.858 91.012,233.601 82.001,240.914C77.549,237.44 73.785,233.72 70.648,229.776" style="fill:rgb(4,113,186);stroke:rgb(4,113,186);stroke-width:1px;"/>
    </g>
</svg>
