<?xml version="1.0" encoding="UTF-8" standalone="no"?><!DOCTYPE svg PUBLIC "-//W3C//DTD SVG 1.1//EN" "http://www.w3.org/Graphics/SVG/1.1/DTD/svg11.dtd"><svg width="100%" height="100%" viewBox="0 0 100 100" version="1.1" xmlns="http://www.w3.org/2000/svg" xmlns:xlink="http://www.w3.org/1999/xlink" xml:space="preserve" xmlns:serif="http://www.serif.com/" style="fill-rule:evenodd;clip-rule:evenodd;stroke-miterlimit:2.613;"><rect x="0" y="0" width="100" height="100" style="fill:#fff;"/><path d="M85.744,53.814c-0.076,0.682 -0.113,1.024 -0.341,1.555c0.645,0.493 1.482,1.025 2.926,1.025c2.737,-0 4.371,-1.821 4.371,-3.985c-0,-3.907 -5.587,-2.541 -5.587,-5.842c0,-1.291 0.95,-2.201 2.28,-2.201c1.331,-0 1.863,0.986 2.129,1.669l0.19,0c0.152,-0.682 0.266,-1.1 0.494,-1.517c-0.722,-0.531 -1.521,-0.797 -2.622,-0.797c-2.357,0 -3.877,1.366 -3.877,3.339c-0,4.174 5.587,2.769 5.587,6.032c0,1.404 -0.95,2.542 -2.509,2.542c-1.52,0 -2.432,-0.987 -2.813,-1.821l-0.228,0l0,0.001Zm8.514,-9.372l0.304,0c0.076,0 0.152,0 0.19,0.038c0.038,0.038 0.038,0.076 0.038,0.114c-0,0.038 -0,0.075 -0.038,0.075c0,0.038 -0.038,0.076 -0.075,0.076c-0.039,0 -0.076,0.038 -0.152,0.038l-0.267,0l0,-0.341Zm0,0.91l0,-0.455l0.228,0c-0,0 0.038,0 0.076,0.038l0.038,0.038c0.037,0.038 0.076,0.114 0.114,0.152l0.152,0.227l0.152,0l-0.19,-0.303l-0.114,-0.114c-0,-0.038 -0.038,-0.038 -0.076,-0.076c0.114,-0 0.19,-0.038 0.228,-0.076c0.047,-0.052 0.074,-0.119 0.075,-0.19c0,-0.038 -0.037,-0.113 -0.037,-0.151l-0.115,-0.114l-0.683,-0l-0,1.024l0.152,0Z"/><path d="M94.486,45.922c0.608,-0 1.102,-0.494 1.102,-1.063c-0.018,-0.591 -0.51,-1.068 -1.102,-1.068c-0.592,-0 -1.083,0.477 -1.102,1.068c0,0.569 0.494,1.063 1.102,1.063Z" style="fill:none;fill-rule:nonzero;stroke:#000;stroke-width:0.16px;"/><path d="M39.643,48.539c0,-1.29 0.076,-2.58 0.115,-3.87c0.568,-0.054 1.139,-0.079 1.709,-0.075c1.217,-0 2.775,0.455 2.775,2.314c-0,2.124 -1.938,2.731 -3.42,2.731c-0.456,0 -0.837,-0.037 -1.179,-0.113l0,-0.987Zm-1.444,3.035c0,1.518 -0.076,3.073 -0.152,4.591c0.304,-0.037 0.57,-0.075 0.874,-0.075c0.266,-0 0.57,0.038 0.874,0.075c-0.075,-1.518 -0.152,-3.073 -0.152,-4.591l0,-1.29l0.685,0c1.52,1.557 3.876,4.781 4.598,5.881c0.342,-0.037 0.684,-0.075 1.026,-0.075c0.343,-0 0.723,0.038 1.064,0.075c-1.026,-1.137 -3.99,-4.97 -4.864,-6.032c1.33,-0.19 3.648,-1.101 3.648,-3.415c0,-2.086 -1.71,-2.77 -3.686,-2.77c-0.684,0 -1.368,0.076 -2.052,0.076c-0.647,0 -1.331,-0.038 -2.015,-0.076c0.076,1.518 0.152,3.036 0.152,4.591l0,3.035Z"/><path d="M57.848,50.057c0,3.907 -2.166,5.691 -4.94,5.691c-2.775,-0 -4.903,-1.784 -4.903,-5.691c-0,-3.946 2.128,-5.691 4.903,-5.691c2.774,-0 4.94,1.745 4.94,5.691Zm-11.592,0c0,4.022 2.737,6.336 6.651,6.336c3.915,0 6.651,-2.314 6.651,-6.336c0,-4.022 -2.736,-6.336 -6.651,-6.336c-3.914,0 -6.651,2.314 -6.651,6.336Zm24.628,6.336c-0.037,-0.796 -0.076,-4.704 -0.076,-6.526c0,-1.366 0.191,-4.894 0.305,-5.919c-0.229,0.038 -0.38,0.076 -0.57,0.076c-0.191,0 -0.419,-0.038 -0.608,-0.076c0.152,2.732 0.152,6.185 0.152,9.333c-2.167,-2.162 -6.12,-6.449 -9.008,-9.56l-0.266,0c0.038,0.797 0.038,2.504 0.038,4.743c-0,2.314 -0.228,6.867 -0.38,7.701c0.227,-0.037 0.456,-0.075 0.684,-0.075c0.19,-0 0.418,0.038 0.608,0.075c-0.076,-0.72 -0.152,-4.439 -0.152,-5.955c-0,-1.898 0.038,-2.96 0.038,-3.605c3.041,3.225 6.271,6.602 8.969,9.789l0.266,-0l-0,-0.001Zm12.504,-6.336c0,3.907 -2.129,5.691 -4.903,5.691c-2.774,-0 -4.902,-1.784 -4.902,-5.691c0,-3.946 2.128,-5.691 4.902,-5.691c2.774,-0 4.903,1.745 4.903,5.691Zm-11.554,0c0,4.022 2.737,6.336 6.651,6.336c3.916,0 6.651,-2.314 6.651,-6.336c0,-4.022 -2.735,-6.336 -6.651,-6.336c-3.914,0 -6.651,2.314 -6.651,6.336Zm-67.27,-1.935l8.513,-0c0.19,-0 2.432,0.114 3.345,-1.176c0.95,-1.29 3.648,-5.084 3.648,-5.084c0.19,0.114 0.19,0.152 0.342,0.266c0,-0 -4.522,6.298 -4.522,6.336c-0.799,1.062 -2.091,1.328 -3.117,1.328l-8.361,-0c-0,-0.456 0.038,-1.101 0.152,-1.67Zm19.725,1.897c-0,2.504 -0.874,4.819 -2.509,6.526l-3.648,-5.046c-0.343,-0.456 -0.951,-1.215 -1.938,-1.481c0.987,-0.303 1.596,-1.062 1.938,-1.479l3.648,-5.085c1.635,1.709 2.509,4.023 2.509,6.565Z"/><path d="M5.21,46.035l7.296,0c1.901,0 2.243,-0.531 2.737,-1.062c0.038,-0 2.964,-4.135 2.964,-4.135c0,-0 0.19,0.075 0.419,0.19c-0,-0 -1.711,2.427 -3.915,5.463c-0.342,0.455 -0.988,1.214 -2.242,1.214l-7.791,-0c0.152,-0.646 0.38,-1.214 0.532,-1.67Zm1.634,-2.542l4.105,0c0.722,0 1.14,-0.682 1.405,-0.949c0,0.038 1.787,-2.465 1.787,-2.465c-2.47,0.038 -5.245,1.024 -7.297,3.414Z"/><path d="M6.464,43.948l5.587,0c1.33,0.038 2.129,-1.1 2.129,-1.1l1.9,-2.618l0.494,0.076c-0,-0 -2.813,3.908 -2.85,3.945c-0.608,0.949 -1.255,1.291 -2.053,1.328l-6.233,0c0.114,-0.303 0.57,-1.061 1.026,-1.631Zm-1.9,7.93l8.513,0c0.19,0 2.432,-0.076 3.345,1.177c0.95,1.289 3.648,5.083 3.648,5.083c0.19,-0.113 0.19,-0.152 0.342,-0.265c0,-0 -4.522,-6.299 -4.522,-6.336c-0.799,-1.062 -2.091,-1.328 -3.117,-1.328l-8.361,0c-0,0.455 0.038,1.099 0.152,1.669Z"/><path d="M5.21,53.965l7.296,-0c1.901,-0 2.243,0.531 2.737,1.063c0.038,-0 2.964,4.135 2.964,4.135c0,-0 0.19,-0.076 0.419,-0.189c-0,-0 -1.711,-2.428 -3.915,-5.464c-0.342,-0.455 -0.988,-1.214 -2.242,-1.214c-0,0.038 -7.792,0 -7.792,0c0.153,0.644 0.381,1.214 0.533,1.669Zm1.634,2.542l4.105,-0c0.722,-0 1.14,0.682 1.405,0.948l1.787,2.466c-2.47,-0.037 -5.245,-1.024 -7.297,-3.414Z"/><path d="M6.464,56.052l5.587,-0c1.33,-0 2.129,1.1 2.129,1.1l1.9,2.617l0.494,-0.075c-0,-0 -2.813,-3.907 -2.85,-3.946c-0.608,-0.948 -1.255,-1.29 -2.053,-1.327l-6.233,-0c0.228,0.454 0.57,1.061 1.026,1.631Zm22.119,-4.44l0,-3.035c0,-1.518 -0.075,-3.035 -0.151,-4.515c0.304,0.038 0.57,0.076 0.874,0.076c0.266,0 0.532,-0.038 0.836,-0.076c-0.076,1.48 -0.114,2.997 -0.114,4.515l-0,0.987c-0,0.075 0.037,0.113 0.075,0.113c0.076,0 0.114,-0.038 0.266,-0.151c1.635,-1.404 3.649,-3.604 5.284,-5.464c0.228,0.038 0.456,0.076 0.722,0.076c0.266,0 0.57,-0.038 0.836,-0.076c-1.596,1.404 -4.371,3.984 -5.624,5.464c1.9,2.124 3.838,4.363 5.814,6.602c-0.342,-0.038 -0.684,-0.076 -1.064,-0.076c-0.304,0 -0.646,0.038 -0.95,0.076c-1.672,-2.049 -4.333,-5.274 -5.093,-6.033c-0.076,-0.076 -0.152,-0.114 -0.19,-0.114c-0.038,0 -0.076,0.038 -0.076,0.076l0,1.555c0,1.48 0.038,3.035 0.114,4.515c-0.304,-0.038 -0.57,-0.075 -0.836,-0.075c-0.304,-0 -0.57,0.037 -0.874,0.075c0.076,-1.48 0.151,-3.035 0.151,-4.515Z"/></svg>