<?xml version="1.0" encoding="UTF-8" standalone="no"?>
<!DOCTYPE svg PUBLIC "-//W3C//DTD SVG 1.1//EN" "http://www.w3.org/Graphics/SVG/1.1/DTD/svg11.dtd">
<svg width="100%" height="100%" viewBox="0 0 100 100" version="1.1" xmlns="http://www.w3.org/2000/svg" xmlns:xlink="http://www.w3.org/1999/xlink" xml:space="preserve" xmlns:serif="http://www.serif.com/" style="fill-rule:evenodd;clip-rule:evenodd;stroke-linejoin:round;stroke-miterlimit:1.41421;">
    <g id="ld">
        <g>
            <path d="M96.673,9.038L96.673,89.804L3.161,89.804L3.161,9.038L96.673,9.038ZM93.186,12.414L6.829,12.414L6.829,86.332L93.186,86.332L93.186,12.414Z" style="fill:rgb(210,179,144);"/>
            <path d="M93.186,12.414L93.186,86.332L6.829,86.332L6.829,12.414L93.186,12.414ZM27.896,64.533L27.896,30.998L22.865,30.998L22.865,69.02L46.622,69.02L46.622,64.533L27.896,64.533ZM66.333,69.02C68.633,69.02 70.669,68.803 72.441,68.371C74.213,67.939 75.726,67.304 76.98,66.465C78.233,65.626 79.387,64.477 80.442,63.015C81.497,61.554 82.361,59.709 83.036,57.478C83.71,55.248 84.047,52.689 84.047,49.801C84.047,46.412 83.55,43.399 82.556,40.763C81.562,38.126 80.062,35.96 78.056,34.266C76.517,32.952 74.658,32.044 72.48,31.542C70.924,31.179 68.667,30.998 65.711,30.998L52.613,30.998L52.613,69.02L66.333,69.02ZM65.633,35.485C68.624,35.485 70.794,35.744 72.143,36.263C74.01,36.989 75.596,38.42 76.902,40.555C78.207,42.69 78.86,45.747 78.86,49.723C78.86,52.594 78.527,55.036 77.861,57.05C77.196,59.065 76.266,60.668 75.073,61.861C74.226,62.709 73.089,63.366 71.663,63.832C70.236,64.299 68.27,64.533 65.762,64.533L57.645,64.533L57.645,35.485L65.633,35.485Z"/>
        </g>
    </g>
</svg>
