<?xml version="1.0" encoding="UTF-8" standalone="no"?><!DOCTYPE svg PUBLIC "-//W3C//DTD SVG 1.1//EN" "http://www.w3.org/Graphics/SVG/1.1/DTD/svg11.dtd"><svg width="100%" height="100%" viewBox="0 0 100 100" version="1.1" xmlns="http://www.w3.org/2000/svg" xmlns:xlink="http://www.w3.org/1999/xlink" xml:space="preserve" xmlns:serif="http://www.serif.com/" style="fill-rule:evenodd;clip-rule:evenodd;stroke-linejoin:round;stroke-miterlimit:2;"><g><rect x="0" y="0" width="100" height="100" style="fill:#fff;"/><path d="M22.14,21.359l-0.606,4.236c0,-0 -10.286,5.647 -15.731,15.933c-4.236,8.269 -3.832,16.337 -3.832,16.337c-0,-0 0.202,-8.27 5.446,-16.539c7.664,-11.698 13.916,-14.723 13.916,-14.723l-1.412,6.857c0,-0 8.673,-6.051 15.328,-4.437c13.917,3.63 13.715,16.941 13.715,16.941c-0,0 2.017,-19.563 -8.673,-26.219c-8.067,-4.84 -18.151,1.614 -18.151,1.614Zm10.285,55.666l0.807,-4.033c0,-0 2.421,-0.605 7.866,-6.05c8.068,-8.069 8.068,-20.775 8.068,-20.775c-0,0 -1.211,12.707 -10.084,20.976c-4.841,4.638 -5.648,5.243 -5.648,5.243l1.613,-8.067c0,-0 -11.697,8.672 -23.194,5.042c-10.488,-3.228 -9.882,-11.294 -9.882,-11.294c-0,-0 -3.429,16.335 7.663,22.387c9.48,5.042 22.791,-3.429 22.791,-3.429Z" style="fill:#cc1e4c;"/><path d="M7.417,58.067c-1.211,0 -2.219,0 -3.227,0.202c-0.202,-0.202 -0.202,-0.606 -0,-0.808l0.806,0c1.008,-0.202 1.21,-0.605 2.017,-3.024l3.026,-9.278c0.605,-2.219 0.605,-2.622 -0.606,-2.824l-0.605,-0.201c-0.202,-0.202 -0.202,-0.606 0,-0.606l6.858,0c0.201,0 0.201,0.606 -0,0.606l-0.807,0.201c-1.21,0.202 -1.412,0.403 -2.017,2.824l-2.824,8.875c-0.404,1.209 -0.605,2.016 -0.404,2.419c0.202,0.605 0.808,0.605 2.219,0.605c2.622,0 3.63,0 5.446,-2.621c0.201,-0.202 0.605,-0.202 0.806,0.202c-0.403,1.008 -1.411,2.822 -1.815,3.63c-0.807,0 -1.815,-0.202 -2.824,-0.202l-6.049,0Zm15.933,-0.404c0.202,0.202 -0,0.404 -0,0.605c-1.211,-0.201 -2.017,-0.201 -2.824,-0.201c-1.009,-0 -1.815,-0 -2.622,0.201c-0.202,-0.201 -0.202,-0.605 -0,-0.605l0.605,-0.202c0.807,-0 1.008,-0.202 1.613,-2.218l2.42,-7.261c0.404,-1.614 0.404,-2.218 -0.605,-2.218l-0.605,-0c0,-0.202 0,-0.606 0.202,-0.606l5.446,0c-0,0 -0,0.404 -0.202,0.606l-0.403,-0c-1.008,-0 -1.21,0.403 -1.815,2.218l-2.219,7.261c-0.605,1.815 -0.605,2.218 0.403,2.218l0.606,0.202Zm2.017,-0.202c0.807,0 1.008,-0.202 1.613,-2.218l2.219,-7.261c0.605,-1.613 0.605,-2.017 -0.404,-2.218l-0.403,-0.202c-0,0 -0,-0.403 0.202,-0.403l9.076,-0c-0.202,0.201 -0.605,1.815 -1.009,2.823c0,0.202 -0.403,0.202 -0.605,0c0.202,-0.806 0.202,-1.411 -0.403,-1.613c-0.201,-0.202 -0.806,-0.404 -1.815,-0.404l-1.21,0c-0.606,0 -0.606,0 -0.807,0.606l-1.21,4.034c-0,0.403 -0,0.605 0.403,0.605l1.21,-0c1.412,-0 1.815,-0.202 2.42,-1.008l0.202,-0.606c0.201,-0.201 0.605,-0.201 0.605,0c-0.202,0.403 -0.404,1.211 -0.605,2.017c-0.403,0.807 -0.403,1.412 -0.605,2.018c-0.202,0.202 -0.605,0.202 -0.605,0l-0,-0.606c-0,-0.807 -0.202,-1.008 -1.614,-1.008l-1.411,0c-0.404,0 -0.404,0 -0.606,0.605l-0.806,2.622c-0.605,1.815 -0.605,2.218 0.403,2.218l0.807,0.202c-0,0.203 -0,0.404 -0.202,0.606c-1.21,-0.202 -2.017,-0.202 -2.823,-0.202c-0.807,0 -1.614,0 -2.622,0.202c-0.202,-0.202 -0.202,-0.606 -0,-0.606l0.605,-0.203Zm12.505,0.606c-0.807,0 -1.614,0 -2.824,0.202c-0.201,-0.202 -0,-0.606 0.202,-0.606l0.605,-0.202c1.009,0 1.211,-0.202 1.815,-2.218l2.219,-7.261c0.605,-1.613 0.403,-2.017 -0.403,-2.218l-0.606,-0.202c0,0 0,-0.403 0.202,-0.403l9.278,-0c-0.202,0.201 -0.606,1.815 -0.807,2.823c-0.202,0.202 -0.606,0.202 -0.807,0c0.202,-0.806 0.202,-1.411 -0.202,-1.613c-0.403,-0.202 -1.008,-0.404 -2.017,-0.404l-1.21,0c-0.605,0 -0.605,0 -0.807,0.606l-1.21,3.832c-0.202,0.605 -0.202,0.605 0.403,0.605l1.009,0c1.412,0 1.815,-0.202 2.218,-1.009l0.202,-0.605c0.201,-0.202 0.605,-0.202 0.806,0c-0.201,0.605 -0.605,1.412 -0.806,2.017c-0.202,0.807 -0.403,1.412 -0.605,2.017c-0,0.202 -0.403,0.202 -0.606,-0l0.202,-0.605c0,-0.807 -0.403,-1.008 -1.613,-1.008l-1.009,-0c-0.605,-0 -0.605,-0 -0.807,0.605l-0.806,2.42c-0.404,1.008 -0.404,1.613 -0.404,2.017c0.202,0.403 0.606,0.605 2.017,0.605c2.017,-0 2.622,-0.202 4.236,-2.218c-0,-0.202 0.403,-0 0.605,-0c-0.404,0.807 -1.009,2.42 -1.412,3.026c-0.807,-0.202 -1.412,-0.202 -2.218,-0.202l-4.84,-0l-0,-0.001Zm11.092,-1.412c-0.202,-1.21 -0,-2.42 0.202,-3.429c-0,-0.202 0.605,-0.202 0.605,-0c0.202,1.009 0.403,1.816 1.009,2.622c0.605,1.008 1.613,1.613 3.024,1.613c1.614,0 3.429,-1.008 3.429,-3.226c-0,-1.614 -1.21,-2.824 -2.621,-3.832c-1.211,-0.808 -2.623,-2.219 -2.623,-4.236c0,-3.026 2.623,-5.042 5.848,-5.042c1.614,-0 3.429,0.604 4.236,1.21c-0.403,0.807 -0.807,2.017 -1.008,3.227c-0.202,0.202 -0.605,-0 -0.807,-0.202c0.202,-1.614 -0.403,-3.227 -2.824,-3.227c-2.016,0 -3.024,1.412 -3.024,2.823c-0,1.614 1.613,2.824 2.419,3.429c1.614,1.21 2.824,2.622 2.824,4.84c0,3.026 -2.219,5.245 -6.253,5.245c-2.015,0 -4.032,-0.807 -4.436,-1.815Zm13.715,1.412c-1.009,0 -1.614,0 -2.824,0.202c-0.201,-0.202 0,-0.606 0.202,-0.606l0.605,-0.202c0.807,0 1.008,-0.202 1.613,-2.218l2.421,-7.261c0.403,-1.613 0.403,-2.017 -0.403,-2.218l-0.605,-0.202c-0,0 -0,-0.403 0.202,-0.403l9.277,-0c-0.202,0.201 -0.605,1.815 -1.008,2.823c0,0.202 -0.403,0.202 -0.605,0c0.202,-0.806 0.202,-1.411 -0.403,-1.613c-0.202,-0.202 -0.808,-0.404 -1.816,-0.404l-1.209,0c-0.605,0 -0.605,0 -0.807,0.606l-1.211,3.832c-0.202,0.605 -0.202,0.605 0.403,0.605l1.009,0c1.412,0 1.815,-0.202 2.218,-1.009l0.202,-0.605c0.202,-0.202 0.605,-0.202 0.605,0c-0,0.605 -0.403,1.412 -0.605,2.017c-0.202,0.807 -0.403,1.412 -0.605,2.017c-0,0.202 -0.403,0.202 -0.605,-0l-0,-0.605c0.202,-0.807 -0.202,-1.008 -1.412,-1.008l-1.008,-0c-0.606,-0 -0.807,-0 -0.807,0.605l-0.807,2.42c-0.403,1.008 -0.605,1.613 -0.403,2.017c0.201,0.403 0.605,0.605 2.017,0.605c2.017,-0 2.622,-0.202 4.033,-2.218c0.202,-0.202 0.606,-0 0.606,-0c-0.203,0.807 -0.808,2.42 -1.413,3.026c-0.605,-0.202 -1.412,-0.202 -2.218,-0.202l-4.639,-0l0,-0.001Zm15.328,-6.455c-1.008,0 -1.008,0 -0.807,-0.806l1.412,-4.236c-0,-0.606 0.202,-0.606 0.808,-0.606c1.612,0 2.419,1.009 2.217,2.219c0,1.816 -1.613,3.429 -3.63,3.429Zm-1.815,5.849c-1.008,0 -0.807,-0.403 -0.403,-2.218l0.807,-2.42c0.202,-0.403 0.202,-0.605 1.008,-0.605c0.605,-0 0.807,0.202 1.008,1.008c-0,0.606 0.404,2.622 0.808,3.429c0.201,0.806 0.403,1.21 0.806,1.21c0.202,0.202 0.807,0.403 1.412,0.403c0.807,0 1.21,-0.201 1.412,-0.201c0.202,-0 0.202,-0.404 0.202,-0.404c-1.009,-0.202 -1.412,-0.404 -1.815,-1.21l-1.008,-4.034c-0,-0.403 -0,-0.605 0.403,-0.605c1.21,-0.403 3.227,-1.411 3.227,-3.428c0,-2.219 -1.614,-3.228 -5.042,-3.228c-1.413,0 -2.622,0 -3.631,0.202c-0.201,-0 -0.404,0.202 -0.201,0.403l0.605,0.202c0.806,-0 0.806,0.403 0.201,2.017l-2.218,7.261c-0.605,2.016 -0.807,2.218 -1.815,2.218l-0.403,0.202c-0.202,-0 -0.202,0.404 -0,0.605c0.806,-0.201 1.613,-0.201 2.419,-0.201c1.008,-0 1.816,-0 2.623,0.201c0.202,-0.201 0.403,-0.403 0.202,-0.605l-0.607,-0.202Zm8.875,-11.697c-0,-0.202 -0,-0.606 0.201,-0.606l4.639,0c0.202,0 0.202,0.404 -0,0.606l-0.605,-0c-0.403,-0 -0.605,0.201 -0.807,0.201l0,1.413c0.202,2.42 0.605,6.05 0.807,7.865c2.421,-3.428 4.639,-6.656 5.445,-8.269l0.403,-0.807c0,-0.202 0,-0.403 -0.403,-0.403l-0.605,-0c-0.201,-0.202 -0.201,-0.606 0,-0.606l4.236,0c0.202,0 0.202,0.404 -0,0.606l-0.605,-0c-0.403,-0 -0.807,0.201 -1.008,0.605c-0.606,0.605 -1.816,2.218 -3.026,4.034l-2.016,2.823c-1.413,1.816 -3.026,4.437 -3.429,5.043c-0.202,0.202 -0.403,0.202 -0.403,0.202c-0.203,-0 -0.403,-0 -0.403,-0.202c-0.203,-0.606 -0.203,-1.614 -0.203,-2.622c-0.202,-2.623 -0.605,-5.244 -0.807,-7.866c0,-1.412 -0.202,-2.017 -0.806,-2.017l-0.605,-0Z"/></g></svg>