<?xml version="1.0" encoding="UTF-8" standalone="no"?>
<!DOCTYPE svg PUBLIC "-//W3C//DTD SVG 1.1//EN" "http://www.w3.org/Graphics/SVG/1.1/DTD/svg11.dtd">
<svg width="100%" height="100%" viewBox="0 0 3000 3000" version="1.1" xmlns="http://www.w3.org/2000/svg" xmlns:xlink="http://www.w3.org/1999/xlink" xml:space="preserve" xmlns:serif="http://www.serif.com/" style="fill-rule:evenodd;clip-rule:evenodd;stroke-linejoin:round;stroke-miterlimit:2;">
    <g transform="matrix(1,0,0,1,250,250)">
        <path d="M1249.98,1033.67C1369.49,1033.67 1466.36,1130.52 1466.36,1249.99C1466.36,1369.49 1369.49,1466.36 1249.98,1466.36C1130.51,1466.36 1033.64,1369.46 1033.64,1249.99C1033.64,1130.52 1130.51,1033.67 1249.98,1033.67ZM512.822,1249.99C512.822,842.861 842.861,512.832 1249.98,512.832C1657.16,512.832 1987.17,842.861 1987.17,1249.99C1987.17,1276.94 1985.73,1303.53 1982.91,1329.68C1977.31,1401.54 2030.05,1456.4 2101.45,1456.4C2222.64,1456.4 2235.55,1300.15 2235.55,1249.99C2235.55,705.654 1794.31,264.424 1249.98,264.424C705.654,264.424 264.424,705.664 264.424,1249.99C264.424,1794.29 705.654,2235.54 1249.97,2235.54C1539.05,2235.54 1799.06,2111.15 1979.36,1912.93L2181.96,2083.07C1953.11,2338.9 1620.34,2500.04 1249.98,2500.04C559.629,2500.04 0,1940.35 0,1249.99C0,559.629 559.629,0 1249.98,0C1940.37,0 2500,559.629 2500,1250C2500,1527.49 2367.87,1752.83 2102.48,1752.83C1985.68,1752.83 1914.69,1699.32 1875.92,1639.59C1745.74,1848.26 1514.12,1987.21 1249.98,1987.21C842.852,1987.21 512.822,1657.12 512.822,1250L512.822,1249.99ZM1249.98,777.236C988.906,777.236 777.227,988.887 777.227,1249.99C777.227,1511.09 988.906,1722.76 1249.98,1722.76C1511.07,1722.76 1722.76,1511.09 1722.76,1249.99C1722.76,988.887 1511.07,777.236 1249.98,777.236Z" style="fill:rgb(175,37,42);fill-rule:nonzero;"/>
    </g>
</svg>
