<?xml version="1.0" encoding="UTF-8" standalone="no"?><!DOCTYPE svg PUBLIC "-//W3C//DTD SVG 1.1//EN" "http://www.w3.org/Graphics/SVG/1.1/DTD/svg11.dtd"><svg width="100%" height="100%" viewBox="0 0 100 100" version="1.1" xmlns="http://www.w3.org/2000/svg" xmlns:xlink="http://www.w3.org/1999/xlink" xml:space="preserve" xmlns:serif="http://www.serif.com/" style="fill-rule:evenodd;clip-rule:evenodd;stroke-linejoin:round;stroke-miterlimit:2;"><g><path d="M90.667,90.45c-0.316,0.316 -0.71,0.473 -1.184,0.473c-0.474,0 -0.868,-0.157 -1.184,-0.473c-0.316,-0.316 -0.473,-0.71 -0.473,-1.184c-0,-0.474 0.157,-0.908 0.513,-1.223c0.315,-0.316 0.71,-0.434 1.144,-0.434c0.474,-0 0.868,0.157 1.184,0.473c0.316,0.316 0.473,0.71 0.473,1.184c0.04,0.474 -0.118,0.868 -0.473,1.184m-2.131,-2.171c-0.276,0.277 -0.395,0.592 -0.395,0.948c0,0.394 0.119,0.71 0.395,0.986c0.276,0.276 0.592,0.395 0.986,0.395c0.395,-0 0.711,-0.119 0.987,-0.395c0.276,-0.276 0.395,-0.592 0.395,-0.986c-0,-0.356 -0.119,-0.711 -0.395,-0.948c-0.276,-0.276 -0.592,-0.434 -0.987,-0.434c-0.394,0.04 -0.71,0.158 -0.986,0.434m1.5,1.816c-0.158,0.118 -0.316,0.158 -0.474,0.158c-0.237,-0 -0.474,-0.079 -0.671,-0.277c-0.197,-0.197 -0.276,-0.434 -0.276,-0.71c-0,-0.276 0.079,-0.513 0.237,-0.71c0.157,-0.198 0.394,-0.277 0.67,-0.277c0.158,0 0.316,0.04 0.474,0.119c0.197,0.118 0.355,0.315 0.395,0.631l-0.434,0c-0.04,-0.118 -0.079,-0.237 -0.158,-0.276c-0.079,-0.04 -0.158,-0.079 -0.237,-0.079c-0.118,0 -0.237,0.039 -0.316,0.158c-0.079,0.118 -0.118,0.276 -0.118,0.473c-0,0.198 0.039,0.356 0.118,0.435c0.079,0.078 0.198,0.157 0.316,0.157c0.118,0 0.197,-0.039 0.276,-0.079l0.119,-0.236l0.394,-0c-0.039,0.236 -0.158,0.394 -0.315,0.513m4.183,-17.522c-0,-0.158 -0.04,-0.316 -0.04,-0.474c0,-0.118 -0.039,-0.197 -0.039,-0.276c-0.04,-0.237 -0.079,-0.434 -0.158,-0.671c-0.158,-0.434 -0.395,-0.868 -0.71,-1.223c-0.316,-0.355 -0.671,-0.631 -1.027,-0.829c-0.394,-0.197 -0.789,-0.315 -1.105,-0.394c-0.118,-0 -0.197,-0.04 -0.276,-0.04c0.434,-1.894 -0.118,-3.354 -0.473,-4.025l0.079,-0.079c0.473,-0.474 0.868,-0.908 1.223,-1.342l0.079,-0.079c0.276,-0.394 0.434,-0.789 0.552,-1.144c0.079,-0.316 0.158,-0.592 0.158,-0.868l0,-0.75c-0.039,-0.592 -0.118,-1.342 -0.513,-2.171c-0.197,-0.394 -0.473,-0.828 -0.829,-1.223c-0.355,-0.395 -0.789,-0.75 -1.302,-1.026c-0.039,-0.04 -0.079,-0.04 -0.118,-0.079c-1.066,-1.539 -2.25,-2.762 -3.315,-3.67c-0.553,-0.474 -1.066,-0.868 -1.5,-1.184c-0.434,-0.316 -0.789,-0.552 -0.986,-0.71c-0.474,-0.355 -0.829,-0.553 -0.987,-0.632c-0.395,-0.236 -0.671,-0.434 -0.829,-0.552c-0.118,-0.119 -0.197,-0.158 -0.236,-0.198c-0,0 -0,-0.039 -0.04,-0.118c-0.039,-0.118 -0.039,-0.276 -0.039,-0.552c-0,-0.395 -0,-0.987 0.039,-1.776c0.079,-1.263 0.197,-2.96 0.355,-5.288c0.04,-0.75 0.04,-1.46 0.04,-2.092c-0.04,-1.065 -0.198,-2.012 -0.395,-2.881c-0.039,-0.197 -0.118,-0.394 -0.158,-0.592c-0.039,-0.157 -0.079,-0.236 -0.118,-0.315c-0.04,-0.119 -0.079,-0.237 -0.158,-0.395c-0.039,-0.079 -0.039,-0.158 -0.118,-0.237c-0.079,-0.197 -0.158,-0.394 -0.277,-0.592l-0.039,-0.039l-0.04,-0.119l-0.039,-0.078c-0.197,-0.356 -0.434,-0.671 -0.671,-0.948c-0.118,-0.552 -0.316,-1.341 -0.671,-2.249c-0.315,-0.789 -0.71,-1.657 -1.302,-2.526c-0.197,-0.315 -0.434,-0.592 -0.671,-0.868l0.079,-0.079c0.118,-0.118 2.881,-3.038 5.091,-6.827c4.065,-7.064 2.723,-11.365 0.868,-13.733l-0.079,-0.158c-1.776,-1.973 -4.223,-3.157 -7.182,-3.552c-6.196,-0.789 -13.22,2.289 -15.075,3.157l-3.394,-3.709c-0.316,-0.316 -0.631,-0.632 -0.987,-0.868c-0.355,-0.237 -0.749,-0.474 -1.144,-0.671c-0.789,-0.355 -1.658,-0.592 -2.605,-0.711c-1.854,-0.236 -3.985,0 -6.274,0.592c-3.434,0.869 -7.262,2.605 -11.287,5.012c-4.025,2.407 -8.208,5.525 -12.273,9.235c-4.972,4.498 -9.076,9.273 -12.076,13.851c-1.499,2.25 -2.723,4.46 -3.63,6.591c-0.908,2.091 -1.5,4.104 -1.737,5.919c-0.158,1.342 -0.158,2.605 0.119,3.749c0.118,0.513 0.276,0.987 0.513,1.46c0.276,0.592 0.631,1.145 1.065,1.618l3.512,3.67l0.395,0.395l-0.039,0.039l-0.119,0.237c-0.079,0.119 -0.118,0.237 -0.197,0.316l-0.118,0.237c-0.04,0.118 -0.119,0.236 -0.158,0.355l-0.119,0.237c-0.039,0.118 -0.118,0.236 -0.158,0.355c-0.039,0.079 -0.078,0.158 -0.078,0.237l-0.119,0.355c-0.039,0.079 -0.039,0.158 -0.079,0.237c-0.039,0.118 -0.079,0.236 -0.118,0.394c-0,0.04 -0.04,0.079 -0.04,0.119c0,0.039 -0.039,0.078 -0.039,0.118c-0.04,0.118 -0.079,0.276 -0.119,0.395c0,0.078 -0.039,0.157 -0.039,0.236c0,0.04 -0.039,0.119 -0.039,0.158c-0,0.079 -0.04,0.158 -0.04,0.237c0,0.079 -0.039,0.158 -0.039,0.237c-0.04,0.158 -0.04,0.315 -0.079,0.513c-0,0.039 -0,0.079 -0.04,0.158l0,0.039c0,0.118 -0.039,0.237 -0.039,0.316c-0,0.158 -0.04,0.355 -0.04,0.513l0,1.973c0,0.079 0,0.158 0.04,0.237c-0,0.079 -0,0.197 0.039,0.315l0,0.119c0,0.079 0.04,0.197 0.04,0.276c-0,0.079 0.039,0.158 0.039,0.276c0,0.04 0,0.079 0.04,0.119c-0,0.039 0.039,0.118 0.039,0.158l0,0.079c0,0.078 0.04,0.157 0.079,0.315c0,0.04 0,0.04 0.039,0.079c0.04,0.079 0.04,0.158 0.04,0.197l0.118,0.237l0,0.119l0.079,0.157c0,0.079 0.04,0.119 0.04,0.198c0.039,0.079 0.039,0.158 0.079,0.316l-0,-0.04l-0,0.04c-0,0.039 -0,0.039 0.039,0.078c0.04,0.119 0.079,0.198 0.079,0.237c0.04,0.079 0.079,0.158 0.118,0.316l0.04,0.039c0.039,0.079 0.039,0.158 0.079,0.198l0.039,0.079c0,0.039 0.04,0.079 0.04,0.118c-0,0.039 0.039,0.118 0.079,0.158l0.039,0.079c0.04,0.039 0.04,0.118 0.079,0.158c0.04,0.039 0.04,0.079 0.04,0.118c0.039,0.079 0.078,0.158 0.118,0.276l0.039,0.04c0.04,0.039 0.04,0.079 0.079,0.118c0.04,0.04 0.04,0.119 0.079,0.158c0.04,0.039 0.079,0.118 0.119,0.237l0.039,0.039c0.04,0.04 0.04,0.079 0.079,0.119c0.039,0.079 0.079,0.118 0.079,0.157c0.039,0.04 0.079,0.119 0.118,0.198l0,0.039c0.04,0.04 0.04,0.079 0.079,0.119c0.04,0.079 0.079,0.118 0.119,0.158c0.039,0.039 0.079,0.118 0.158,0.236c0.039,0.04 0.078,0.079 0.078,0.119c0.04,0.079 0.079,0.118 0.119,0.158c0.039,0.039 0.079,0.118 0.118,0.197c0.04,0.039 0.079,0.118 0.119,0.158c0.039,0.079 0.079,0.118 0.157,0.158l0.158,0.157c0.079,0.079 0.119,0.158 0.198,0.237l0.67,0.671c0.079,0.079 0.198,0.158 0.277,0.276l0.039,0.04c0.04,0.039 0.079,0.039 0.119,0.118c0.118,0.119 0.236,0.197 0.355,0.316l0.079,0.039l0.039,0.04l0.079,0.039c0.118,0.079 0.197,0.158 0.316,0.237l0.039,0.04c0.04,0.039 0.079,0.039 0.079,0.039l0.079,0.079c0.079,0.079 0.158,0.118 0.237,0.197l0.079,0.04l0.118,0.118c0.079,0.04 0.198,0.118 0.276,0.158c0.04,0.039 0.079,0.079 0.158,0.079l0.079,0.039l0.04,0.04l0.039,-0c0.158,0.079 0.276,0.158 0.395,0.237l0.552,0.276l0.04,-0l0.315,0.158c0.04,-0 0.079,0.039 0.119,0.039c0.039,0.04 0.079,0.04 0.158,0.079l0.039,0c0.079,0.039 0.158,0.079 0.237,0.079l0.039,-0c0.079,0.039 0.158,0.079 0.277,0.118l0.039,0l0.079,0.04c0.039,-0 0.079,0.039 0.118,0.039l0.04,0c0.118,0.04 0.237,0.079 0.395,0.119l0.039,-0c0.197,0.079 0.395,0.118 0.592,0.158l0.039,-0c0.158,0.039 0.356,0.078 0.513,0.118l0.158,-0c0.158,0.039 0.316,0.079 0.474,0.079l0.158,-0c0.118,-0 0.197,0.039 0.315,0.039c0,0.04 0.04,0.079 0.04,0.119c0.276,0.749 0.552,1.499 0.868,2.21c4.657,12.904 17.561,22.928 32.281,24.783c14.72,1.815 30.466,-7.972 36.859,-21.192c0.276,-0.513 0.513,-0.987 0.75,-1.5c0.631,-0.671 1.144,-1.342 1.46,-2.052c0.513,-0.434 0.631,-1.302 0.592,-2.052m-81.729,-5.13l0.04,-0l-0.04,-0" style="fill:#664f44;fill-rule:nonzero;"/></g><path d="M81.63,8.011c-0.711,-0.789 -1.539,-1.381 -2.447,-1.815c-0.158,-0.079 -0.316,-0.119 -0.513,-0.158c-0.079,-0.04 -0.158,-0.119 -0.237,-0.158c-0.789,-0.316 -1.618,-0.513 -2.486,-0.631c-4.262,-0.553 -9.155,1.026 -11.918,2.131c-0.158,0.079 -0.316,0.118 -0.473,0.197c-0.237,0.118 -0.474,0.197 -0.711,0.316c-0.394,0.158 -0.789,0.355 -1.223,0.552c-0.079,0.04 -0.118,0.04 -0.197,0.079l-0.75,-0.868l-0.355,-0.395l-0.316,-0.355l-0.118,-0.158l-2.881,-3.315l-0.237,-0.276l-0.316,-0.355l-0.039,-0l-0.829,0.197l-0.947,0.198c-0.513,-0.237 -1.144,-0.395 -1.855,-0.513c-1.421,-0.198 -3.236,-0 -5.288,0.513c-2.052,0.513 -4.38,1.42 -6.827,2.644c-4.933,2.446 -10.379,6.195 -15.667,11.01c-1.855,1.657 -3.552,3.394 -5.13,5.091c-1.539,1.657 -2.921,3.354 -4.183,4.972c-2.565,3.354 -4.499,6.59 -5.762,9.511c-0.829,1.933 -1.342,3.709 -1.539,5.248c-0.158,1.105 -0.118,2.092 0.079,2.881c0.079,0.276 0.158,0.474 0.237,0.71c0.197,0.474 0.434,0.869 0.749,1.224l3.197,3.354l0.355,0.355l0.04,-0.039c0.079,-0.119 0.197,-0.237 0.315,-0.316l0.158,-0.158c0.079,-0.118 0.197,-0.197 0.276,-0.315c0.079,-0.079 0.119,-0.119 0.198,-0.158c0.079,-0.04 0.118,-0.119 0.197,-0.158l0.079,-0.079c0.079,-0.04 0.118,-0.118 0.197,-0.158c0.079,-0.079 0.198,-0.158 0.277,-0.237c0.039,-0.039 0.118,-0.079 0.157,-0.118l0.04,-0c0.118,-0.079 0.197,-0.158 0.316,-0.237c0.078,-0.039 0.118,-0.079 0.197,-0.158c0.118,-0.079 0.197,-0.158 0.316,-0.236c0.079,-0.04 0.118,-0.079 0.197,-0.119c0.118,-0.079 0.237,-0.158 0.355,-0.197c0.079,-0.04 0.118,-0.079 0.197,-0.119c0.119,-0.079 0.237,-0.118 0.356,-0.197c0.078,-0.039 0.118,-0.079 0.197,-0.118l0.079,-0.04c0.118,-0.039 0.197,-0.118 0.316,-0.158c0.039,-0.039 0.118,-0.039 0.157,-0.079c0.079,-0.039 0.158,-0.078 0.277,-0.118l0.315,-0.158l0.592,-0.237c0.079,-0.039 0.119,-0.039 0.198,-0.078c0.079,-0.04 0.118,-0.04 0.197,-0.079l0.079,-0.04c0.039,0 0.079,-0.039 0.118,-0.039c0.079,-0.04 0.158,-0.04 0.276,-0.079l0.079,-0c0.119,-0.04 0.198,-0.04 0.316,-0.079c0.079,-0.04 0.197,-0.04 0.276,-0.079c0.119,-0.04 0.237,-0.04 0.356,-0.079c0.039,-0 0.078,-0.039 0.157,-0.039c0.04,-0 0.119,-0 0.158,-0.04c0.119,-0.039 0.237,-0.039 0.355,-0.039c0.119,-0 0.198,-0.04 0.316,-0.04c0.079,0 0.158,-0.039 0.237,-0.039l0.316,-0c0.394,-0 0.868,-0 1.341,0.039l0.079,0c0.474,0.04 1.026,0.119 1.579,0.237c0.118,0.039 0.276,0.039 0.394,0.079c0.04,-0.04 0.04,-0.119 0.079,-0.158c0.316,-0.513 0.592,-1.066 0.908,-1.579c1.776,-2.959 3.67,-5.564 5.604,-7.853c0.671,-0.789 1.342,-1.499 2.012,-2.21c2.802,-2.92 5.604,-5.169 8.13,-6.906c0.552,-0.394 1.144,-0.75 1.657,-1.105c0.75,-0.473 1.46,-0.868 2.131,-1.263c0.553,-0.315 1.066,-0.592 1.579,-0.828c0.829,-0.434 1.578,-0.79 2.249,-1.066l0.592,-0.237c0.276,-0.118 0.553,-0.236 0.789,-0.315c-0.197,-0.04 -0.434,-0.04 -0.631,-0.04l-0.789,0c-0.198,0 -0.434,0 -0.632,0.04c-0.394,0.039 -0.828,0.079 -1.262,0.118c-0.158,0.04 -0.277,0.04 -0.435,0.079c1.066,-0.552 2.131,-0.947 3.118,-1.263c0.671,-0.197 1.342,-0.355 1.973,-0.473c0.868,-0.158 1.697,-0.277 2.447,-0.316c0.513,-0.04 0.987,-0.04 1.421,-0.04c0.434,0 0.868,0.04 1.223,0.04c1.302,0.079 2.092,0.276 2.092,0.276c-0.198,-0.276 -0.435,-0.473 -0.671,-0.671c-0.474,-0.355 -0.987,-0.592 -1.46,-0.789c-0.198,-0.079 -0.356,-0.118 -0.513,-0.197c-0.119,-0.04 -0.237,-0.079 -0.316,-0.079c0.237,-0.04 0.434,-0.079 0.631,-0.079c0.237,-0.04 0.434,-0.04 0.671,-0.079c1.855,-0.158 3.512,-0 4.736,0.197c1.46,0.276 2.367,0.632 2.367,0.632c-0.197,-0.395 -0.513,-0.75 -0.868,-1.066c-0.236,-0.197 -0.513,-0.394 -0.75,-0.552c0.514,0.118 0.948,0.236 1.421,0.394c1.184,0.355 2.171,0.79 2.96,1.145l0.71,0.355c0.079,0.039 0.119,0.079 0.158,0.079c0.71,0.394 1.105,0.671 1.105,0.671c-0.118,-0.434 -0.355,-0.829 -0.671,-1.184c-0.079,-0.079 -0.158,-0.198 -0.237,-0.276l0.04,-0c0.039,-0 0.079,0.039 0.158,0.039c0.039,0 0.118,0.039 0.197,0.079c0.316,0.118 0.789,0.316 1.342,0.592c0.039,-0 0.039,0.039 0.079,0.039l0.237,0.119c0.197,0.118 0.394,0.197 0.591,0.355l0.592,0.355c0.119,0.079 0.198,0.118 0.316,0.197c0.197,0.158 0.434,0.316 0.632,0.513c0.236,0.198 0.434,0.395 0.631,0.592l0.118,0.119c0.158,0.158 0.316,0.315 0.434,0.473c0.277,0.316 0.513,0.671 0.75,1.026c0.276,0.434 0.474,0.947 0.671,1.461c0,0.039 0,0.078 0.04,0.078c0.118,-0.118 0.355,-0.355 0.631,-0.67c2.289,-2.684 9.155,-11.366 5.012,-16.654" style="fill:#132134;fill-rule:nonzero;"/><g><path d="M91.851,72.849c-0,0 0.079,-0.592 -0.237,-1.144c0,-0.04 -0.039,-0.079 -0.039,-0.079l-0.158,-0.158c-0.079,-0.079 -0.158,-0.158 -0.277,-0.237c-0.039,-0.039 -0.118,-0.079 -0.197,-0.118c-0.197,-0.079 -0.394,-0.158 -0.671,-0.197c-0.197,-0.04 -0.394,-0.04 -0.631,-0.04l-0.316,0l0,0.079c0,0.039 0.04,0.079 0.04,0.158c-0,0.039 -0,0.079 0.039,0.079c0.04,0.118 0.079,0.315 0.118,0.473c0,0 0,0.04 -0.039,0.119l0,0.039c-0.118,0.276 -0.434,0.908 -1.144,1.697c-0.119,0.158 -0.237,0.276 -0.395,0.434c-1.973,2.052 -6.235,4.933 -15.233,6.551c-3.039,0.434 -5.88,0.474 -8.248,0.158c-3.551,-0.434 -6.195,-1.579 -7.458,-3.118c-0.119,-0.118 -0.198,-0.276 -0.316,-0.394c-0.079,-0.119 -0.118,-0.198 -0.197,-0.316c-0.04,-0.039 -0.04,-0.079 -0.079,-0.118c-0.513,-0.947 -0.75,-1.974 -0.75,-2.96c-0,-1.223 0.395,-2.368 1.026,-3.236c0.513,-0.71 1.184,-1.263 2.013,-1.5c0.394,-0.118 0.828,-0.197 1.262,-0.158c0.079,0 0.198,0 0.356,0.04c0.276,0.039 0.71,0.079 1.223,0.158c0.039,-0 0.118,-0 0.158,0.039c1.697,0.198 4.38,0.474 7.616,0.276c5.92,-0.355 13.694,-2.209 20.758,-8.603l-0,-0.039c0.039,-0.552 -0.039,-1.5 -0.71,-2.249c-0.119,-0.119 -0.237,-0.237 -0.395,-0.356c-0.079,-0.078 -0.197,-0.118 -0.276,-0.197c-0.119,-0.039 -0.198,-0.118 -0.276,-0.158l-0.356,-0.237l0,-0.039c-0.039,-0.079 -0.079,-0.158 -0.158,-0.237c-1.815,-2.762 -4.34,-4.38 -5.367,-5.13c-0.473,-0.355 -0.789,-0.513 -0.789,-0.513c-2.17,-1.342 -2.486,-1.776 -2.289,-5.367c0.079,-1.302 0.198,-2.999 0.356,-5.328c-0,-0.315 0.039,-0.592 0.039,-0.868l-0,-1.144c-0,-0.198 -0.039,-0.395 -0.039,-0.553c-0,-0.079 -0,-0.158 -0.04,-0.236c-0.039,-0.198 -0.039,-0.395 -0.079,-0.592c0,-0.079 -0.039,-0.198 -0.039,-0.277c-0,-0.118 -0.04,-0.197 -0.079,-0.315c-0.04,-0.079 -0.04,-0.198 -0.079,-0.277c-0.04,-0.118 -0.079,-0.236 -0.079,-0.355c-0,-0.039 -0.04,-0.079 -0.04,-0.118c0,-0.04 -0.039,-0.079 -0.039,-0.119l-0,-0.039l-0.04,-0.118c-0.039,-0.079 -0.078,-0.158 -0.078,-0.237l-0,-0.04l-0.079,-0.157c-0.079,-0.158 -0.119,-0.316 -0.198,-0.435l-0.039,-0.118c-0.079,-0.118 -0.158,-0.276 -0.237,-0.395l-0.079,-0.079c-0.079,-0.078 -0.118,-0.157 -0.197,-0.236l-0.079,-0.119c-0.079,-0.118 -0.158,-0.197 -0.237,-0.276l0,-0.316c-0.039,-0.158 -0.079,-0.355 -0.118,-0.552c-0,-0.04 -0.04,-0.119 -0.04,-0.158l0,-0.039c0,-0.079 -0.039,-0.119 -0.039,-0.198c-0.04,-0.158 -0.079,-0.315 -0.158,-0.473c-0,-0.04 -0.039,-0.119 -0.039,-0.158l-0.119,-0.355c-0.039,-0.079 -0.039,-0.158 -0.079,-0.198c-0.039,-0.118 -0.079,-0.236 -0.158,-0.355l-0.118,-0.237c-0.04,-0.118 -0.118,-0.236 -0.158,-0.355l-0.118,-0.237c-0.079,-0.118 -0.119,-0.236 -0.198,-0.355l-0.118,-0.237c-0.079,-0.118 -0.158,-0.236 -0.237,-0.394c-0.039,-0.079 -0.079,-0.119 -0.118,-0.197c-0.04,-0.04 -0.079,-0.119 -0.119,-0.158c-0.118,-0.119 -0.197,-0.237 -0.315,-0.355l-0.079,-0.04c-0.158,-0.158 -0.276,-0.316 -0.434,-0.434l-0.04,-0.04c-0.079,-0.039 -0.158,-0.118 -0.197,-0.157l-0.04,-0c-0.078,-0.04 -0.118,-0.079 -0.197,-0.119l-0.039,-0.039c-0.079,-0.04 -0.198,-0.119 -0.355,-0.198c-0.04,-0.039 -0.119,-0.039 -0.198,-0.078c-0.355,-0.119 -0.789,-0.277 -1.342,-0.435c-0.039,0 -0.078,0 -0.118,-0.039c-0.434,-0.118 -0.947,-0.237 -1.5,-0.316c-0.197,-0.039 -0.355,-0.039 -0.552,-0.079c-0.079,0 -0.158,0 -0.276,-0.039l-0.119,-0c-0.434,-0.04 -0.828,-0.079 -1.262,-0.079l-0.04,-0c-0.552,-0 -1.105,0.039 -1.618,0.158c0.118,-0.198 0.474,-0.434 0.789,-0.632c0.434,-0.236 0.829,-0.394 0.829,-0.394c-0.237,-0 -0.474,0.039 -0.71,0.079c-0.079,-0 -0.158,0.039 -0.237,0.039c-0.04,0 -0.118,0 -0.158,0.04l-0.039,-0c-0.04,-0 -0.079,-0 -0.119,0.039c-1.223,0.276 -2.407,0.71 -3.078,0.987l-0.237,0.118l-0.039,0c-0.079,0 -0.119,0 -0.197,0.04c0.473,-0.908 1.183,-1.382 1.736,-1.618c0.079,-0.04 0.197,-0.079 0.276,-0.119c0.04,0 0.04,0 0.079,-0.039c0.079,-0.04 0.158,-0.04 0.197,-0.079c0.119,-0.04 0.198,-0.04 0.198,-0.04l-0.632,0c-1.341,0.158 -2.565,0.592 -3.591,1.184c-0.71,0.395 -1.342,0.829 -1.894,1.263c-0.158,0.039 -0.276,0.079 -0.434,0.079c-1.5,0.316 -3.197,0.71 -4.973,1.263c-0.67,0.197 -1.341,0.434 -2.012,0.671c-0.513,0.197 -1.066,0.394 -1.579,0.592c-0.394,0.157 -0.75,0.315 -1.144,0.473c-2.723,1.223 -5.446,2.841 -7.696,5.012l-1.065,1.065c-0.079,0.119 -0.197,0.237 -0.276,0.316c-0.434,0.474 -0.829,0.987 -1.224,1.539c-0.276,0.395 -0.552,0.829 -0.789,1.263l-0.039,0.04c-0.513,0.907 -0.987,1.854 -1.342,2.92c-0.197,0.513 -0.355,1.065 -0.513,1.618c-0.04,0.158 -0.079,0.276 -0.119,0.434l-0.039,0.079c-0.158,0.592 -0.276,1.223 -0.355,1.855c-0,0.118 -0.04,0.236 -0.04,0.394c-0.039,0.316 -0.079,0.632 -0.079,0.987c-0.039,0.316 -0.039,0.592 -0.039,0.907l-0,1.224c-0,0.355 -0,0.71 0.039,1.065l0,0.04c0,0.355 0.04,0.71 0.079,1.105c0,0.158 0.04,0.316 0.04,0.473l-0,0.119c-0,0.079 -0,0.158 0.039,0.276c0.04,0.395 0.119,0.829 0.158,1.263c0,0.118 0.04,0.237 0.04,0.355c0.079,0.355 0.118,0.75 0.197,1.105c-0,-0 -0.079,-0.474 -0.04,-1.184c0,-0.158 0.04,-0.355 0.04,-0.513c0.039,-0.395 0.118,-0.868 0.276,-1.302l0.119,-0.355c-0,-0.04 0.039,-0.079 0.078,-0.158c0.079,-0.198 0.198,-0.434 0.316,-0.632c0.04,0.158 0.04,0.316 0.079,0.434l0,2.092c0.04,1.342 0.158,2.96 0.434,4.341c0,-0 0.04,-2.486 0.474,-2.802c-0,0 0.75,4.657 1.42,6.393c0.079,0.237 0.198,0.395 0.277,0.513l-0,-0.473l-0.079,-2.566l-0,-0.276c0.513,1.066 1.105,2.131 1.776,3.276c0.197,0.315 0.355,0.631 0.552,0.947c-1.263,1.105 -2.447,2.723 -3.315,4.617c-0.118,0.316 -0.276,0.631 -0.394,0.947c-0.079,0.197 -0.119,0.355 -0.198,0.553c0,0.039 -0.039,0.118 -0.039,0.157c-0.04,0.119 -0.079,0.277 -0.119,0.395c0,0.079 -0.039,0.118 -0.039,0.197c-0.04,0.119 -0.079,0.277 -0.118,0.395c-0,0.079 -0.04,0.118 -0.04,0.197l-0.118,0.592c-0.04,0.198 -0.079,0.395 -0.079,0.592c-0,0.079 -0,0.119 -0.04,0.198c0,0.157 -0.039,0.276 -0.039,0.434c-0,0.079 -0,0.157 -0.04,0.236c0,0.158 -0.039,0.277 -0.039,0.435l-0,1.381c-0,0.158 -0,0.315 0.039,0.513l0,0.118c0,0.197 0.04,0.395 0.079,0.632c0,0.078 0,0.118 0.04,0.197c-0,0.158 0.039,0.276 0.079,0.434c-0,0.079 0.039,0.158 0.039,0.237c0.04,0.118 0.04,0.276 0.079,0.394c0,0.079 0.04,0.158 0.04,0.237c0.039,0.119 0.078,0.237 0.078,0.395c0.04,0.079 0.04,0.158 0.079,0.276c0.04,0.118 0.079,0.276 0.119,0.395c0.039,0.079 0.039,0.158 0.079,0.236c0.039,0.119 0.079,0.277 0.118,0.395c0.04,0.079 0.04,0.158 0.079,0.237c0.039,0.158 0.118,0.316 0.158,0.434c0.039,0.079 0.039,0.118 0.079,0.197l0.592,1.303c0.039,0.078 0.079,0.118 0.118,0.197l0.237,0.473c0.039,0.079 0.079,0.158 0.158,0.237c0.079,0.119 0.158,0.276 0.237,0.395c0.039,0.079 0.118,0.158 0.157,0.237c0.079,0.118 0.158,0.276 0.277,0.394c0.079,0.079 0.118,0.158 0.197,0.277c0.079,0.118 0.197,0.276 0.276,0.394c0.079,0.079 0.119,0.158 0.198,0.276c0.118,0.119 0.197,0.277 0.315,0.395c0.079,0.079 0.119,0.158 0.198,0.237c0.118,0.158 0.236,0.276 0.394,0.434l0.198,0.197c0.197,0.198 0.394,0.434 0.591,0.632c0,-0 -0.118,-0.158 -0.276,-0.474c-0.039,-0.039 -0.079,-0.118 -0.079,-0.197l-0.118,-0.237c-0.04,-0.079 -0.079,-0.158 -0.118,-0.276c-0.316,-0.711 -0.592,-1.737 -0.553,-2.842l0.355,0.474c0.119,0.276 0.316,0.631 0.513,1.026c0.079,0.118 0.158,0.276 0.198,0.395c0.315,0.552 0.631,1.184 1.026,1.775c0.473,0.75 0.947,1.461 1.46,2.131c-0,0 -0.592,-1.262 -0.79,-2.091c-0.039,-0.237 -0.078,-0.434 -0.039,-0.553c0.039,0.04 0.079,0.119 0.158,0.158c0.039,0.04 0.079,0.119 0.158,0.158c0.079,0.119 0.197,0.276 0.355,0.474l0.079,0.079c0.079,0.079 0.118,0.197 0.197,0.276c0.079,0.118 0.158,0.237 0.276,0.355c0.829,1.066 1.974,2.486 2.763,3.236c0.276,0.237 0.513,0.434 0.671,0.513l-1.145,-2.052c2.605,2.131 13.418,4.854 24.033,1.815c1.303,-0.355 2.565,-0.828 3.828,-1.381c0.75,-0.316 1.5,-0.71 2.25,-1.105l0.118,-0.079c0.513,-0.276 1.026,-0.592 1.539,-0.907c0.395,-0.237 0.789,-0.514 1.145,-0.75c0.631,-0.434 1.262,-0.908 1.894,-1.421c0.039,-0.039 0.079,-0.079 0.118,-0.079c0.592,-0.513 1.184,-1.065 1.697,-1.618c0.711,-0.75 1.342,-1.5 1.894,-2.249l0.04,-0.04c0.158,-0.197 0.276,-0.355 0.394,-0.552l0.04,-0.04c0.039,-0.079 0.079,-0.118 0.118,-0.197c0.198,-0.276 0.356,-0.513 0.553,-0.789c0.039,-0.079 0.079,-0.119 0.118,-0.198c0.079,-0.157 0.158,-0.276 0.276,-0.434c0.079,-0.118 0.119,-0.197 0.198,-0.315c0.079,-0.119 0.158,-0.237 0.197,-0.356c0.118,-0.197 0.237,-0.434 0.355,-0.631l0.513,-1.026c0.079,-0.197 0.198,-0.395 0.277,-0.592l-0,-0.039c0.355,-0.316 0.591,-0.632 0.828,-0.908c0.04,-0.04 0.079,-0.079 0.079,-0.119c0.237,-0.749 0.395,-1.341 0.395,-1.894m-63.497,-7.656c0,-0.039 0,-0.079 -0.039,-0.157c-0.118,-0.671 -0.237,-1.382 -0.276,-2.092l-0,-0.158c-0.119,0.04 -0.237,0.197 -0.395,0.395c-0.039,0.079 -0.118,0.158 -0.158,0.276c-0.355,0.671 -0.671,1.618 -0.671,1.618c0.04,-0.316 0.079,-0.631 0.079,-0.947l0,-0.119c0.04,-0.315 0.079,-0.67 0.119,-0.986l-0,-0.119c0.039,-0.394 0.118,-0.749 0.197,-1.104c-0,-0.04 -0,-0.079 0.039,-0.158l0,-0.04c0,-0.039 0,-0.079 0.04,-0.118c-0,-0.079 0.039,-0.119 0.039,-0.197c0.04,-0.277 0.119,-0.553 0.158,-0.829c0.04,-0.237 0.079,-0.474 0.119,-0.671l-0,-0.079c-0,-0.039 -0,-0.079 0.039,-0.079l0,-0.079c0,-0.039 0.04,-0.118 0.04,-0.158c-0,-0.039 -0,-0.079 0.039,-0.118c-0,-0.079 0.039,-0.158 0.039,-0.197c0,-0.04 0.04,-0.119 0.04,-0.158c-0,-0.079 0.039,-0.158 0.039,-0.198c0,-0.039 0,-0.079 0.04,-0.118c-0,-0.039 -0,-0.079 0.039,-0.079c0,-0.079 0.04,-0.118 0.04,-0.158l-0,-0.118l-0.079,0.079c-0.079,0.039 -0.119,0.118 -0.197,0.158l-0.079,0.079c-0.079,0.078 -0.158,0.157 -0.198,0.236l-0.039,0.04l-0.237,0.355l-0.039,0.039c-0,0.04 -0.04,0.04 -0.04,0.079l-0.118,0.237l-0,0.079c-0.04,0.118 -0.119,0.237 -0.158,0.355c-0.119,0.316 -0.237,0.632 -0.316,0.908c-0.039,0.079 -0.039,0.197 -0.079,0.237c-0.039,0.158 -0.079,0.315 -0.079,0.355l0,0.039l0,-0.039c0,-0.119 0,-0.197 0.04,-0.316c-0,-0.197 0.039,-0.434 0.039,-0.631c0,-0.158 0.04,-0.355 0.079,-0.513c0,-0.04 0,-0.119 0.04,-0.158c-0,-0.079 0.039,-0.158 0.039,-0.237c0,-0.079 0.04,-0.158 0.04,-0.237l-0,-0.118c-0,-0.079 0.039,-0.197 0.039,-0.276l-0,-0.277c-0,-0.039 -0,-0.079 0.039,-0.118c0.04,-0.118 0.079,-0.276 0.079,-0.395l0,-0.039c0.04,-0.079 0.04,-0.197 0.079,-0.276l0,-0.04c0.04,-0.197 0.119,-0.394 0.158,-0.592l0,-0.079c0,-0.039 0,-0.079 0.04,-0.118c0.079,-0.316 0.197,-0.631 0.276,-0.908l-0,-0.039c0.079,-0.237 0.197,-0.513 0.276,-0.75l0,-0.039c0.04,-0.119 0.079,-0.198 0.119,-0.316c0.078,-0.158 0.118,-0.316 0.197,-0.474c-0,-0.039 0.039,-0.118 0.118,-0.276c0.04,-0.039 0.04,-0.118 0.079,-0.158c0.04,-0.079 0.079,-0.158 0.119,-0.276l0.039,-0.079l0.671,-1.223c0.039,-0.04 0.039,-0.119 0.079,-0.158l-0,-0.04l0.039,-0.079c0.079,-0.118 0.158,-0.276 0.237,-0.394c0.118,-0.198 0.197,-0.395 0.316,-0.553c0.197,-0.355 0.355,-0.671 0.473,-0.828c0.04,-0.119 0.079,-0.158 0.119,-0.198c-0.04,0 -0.237,-0.158 -0.553,-0.355c-0.394,-0.237 -0.947,-0.552 -1.618,-0.868c-0.237,-0.119 -0.434,-0.197 -0.671,-0.316c-0.276,-0.118 -0.592,-0.237 -0.907,-0.355c-0.079,-0.039 -0.158,-0.039 -0.237,-0.079c-0.276,-0.079 -0.513,-0.158 -0.789,-0.237c-0.198,-0.039 -0.395,-0.079 -0.553,-0.118c-0.158,-0.04 -0.316,-0.04 -0.473,-0.079c-0.079,-0 -0.158,-0 -0.237,-0.039c-0.079,-0 -0.158,-0 -0.237,-0.04c-0.197,0 -0.434,-0.039 -0.631,-0.039l-0.316,-0c-0.474,-0 -0.908,0.039 -1.342,0.118l-0.079,-0c-0.789,0.118 -1.539,0.316 -2.289,0.592c-0.236,0.079 -0.473,0.197 -0.749,0.316c-0.079,0.039 -0.119,0.079 -0.198,0.079l-0.237,0.118c-0.71,0.355 -1.381,0.829 -2.012,1.342l-0.04,-0c-0.552,0.434 -1.026,0.947 -1.46,1.46l-0.355,0.473c-0.158,0.198 -0.276,0.395 -0.395,0.592c-0.236,0.356 -0.473,0.75 -0.67,1.145c-0.079,0.158 -0.158,0.276 -0.198,0.434c0,0.039 -0.039,0.039 -0.039,0.079c-0.395,0.947 -0.711,1.934 -0.829,2.999c-0.039,0.197 -0.039,0.395 -0.079,0.631l0,0.079c0,0.158 -0.039,0.316 -0.039,0.513l-0,0.711c-0,0.158 -0,0.315 0.039,0.473l0,0.198c0,0.118 0.04,0.236 0.04,0.355l-0,0.039c-0,0.079 -0,0.119 0.039,0.198c0,0.118 0.04,0.236 0.04,0.315c-0,0.079 0.039,0.158 0.039,0.237c0.039,0.118 0.039,0.197 0.079,0.316c-0,0.079 0.039,0.158 0.079,0.237l-0,0.039l0.039,0.079l0,0.079l0.04,0.079c0.039,0.079 0.039,0.158 0.079,0.237c0.039,0.078 0.039,0.197 0.079,0.276c0.039,0.079 0.079,0.158 0.079,0.276l0.039,0.079c0.039,0.079 0.039,0.118 0.079,0.197c0.039,0.079 0.079,0.158 0.118,0.277l0.119,0.236c0.039,0.04 0.039,0.079 0.079,0.119c0.039,0.039 0.039,0.079 0.079,0.118l0.118,0.237c0.039,0.079 0.079,0.197 0.158,0.276c0.039,0.079 0.079,0.158 0.118,0.197c0.04,0.079 0.119,0.198 0.158,0.277c0.039,0.079 0.079,0.118 0.118,0.197c0.04,0.079 0.119,0.197 0.198,0.276c0.039,0.079 0.079,0.119 0.118,0.158c0.079,0.079 0.119,0.197 0.197,0.276c0.04,0.04 0.079,0.119 0.119,0.158c0.079,0.079 0.158,0.197 0.237,0.276c0.039,0.04 0.079,0.079 0.118,0.158c0.079,0.079 0.158,0.198 0.237,0.277l0.118,0.118c0.079,0.079 0.158,0.197 0.276,0.276l0.395,0.395c0.04,0.039 0.079,0.079 0.118,0.079c0.079,0.079 0.198,0.158 0.316,0.276c0.04,0.039 0.079,0.039 0.119,0.079c0.118,0.079 0.197,0.158 0.315,0.237c0.04,0.039 0.079,0.039 0.079,0.079l0.355,0.236l0.079,0.04l0.355,0.237l0.079,0.039c0.119,0.079 0.277,0.158 0.395,0.237l0.079,0.039c0.118,0.079 0.276,0.158 0.395,0.198l0.078,0.039c0.158,0.079 0.277,0.118 0.435,0.197l0.039,0.04c0.158,0.079 0.316,0.118 0.434,0.197l0.04,0c0.157,0.04 0.315,0.119 0.473,0.158l0.04,0c0.079,0.04 0.157,0.04 0.236,0.079c0.079,0.039 0.158,0.039 0.277,0.079l0.039,-0c0.158,0.039 0.355,0.079 0.513,0.118c0.158,0.04 0.355,0.079 0.513,0.079c0.553,0.079 1.105,0.119 1.658,0.158l0.394,0c0.198,0 0.355,0 0.553,-0.039c0.237,-0.04 0.513,-0.04 0.789,-0.079c0.237,-0.04 0.474,-0.079 0.671,-0.119c0.355,-0.079 0.71,-0.158 1.026,-0.276c1.026,-0.276 1.894,-0.671 2.447,-1.105c-0,0 -0.356,-1.578 -0.632,-3.157c-0.079,-0.079 -0.118,-0.237 -0.158,-0.395" style="fill:#90694c;fill-rule:nonzero;"/></g><path d="M53.69,6.551l-0.119,-1.579l0.79,-1.736l0.315,-0.079c-0.513,-0.237 -1.144,-0.395 -1.854,-0.513c-1.421,-0.197 -3.236,0 -5.288,0.513c-2.053,0.513 -4.381,1.421 -6.828,2.644c-4.933,2.447 -10.378,6.196 -15.667,11.01c-1.854,1.658 -3.551,3.394 -5.13,5.091c-1.539,1.658 -2.92,3.355 -4.183,4.973c-2.565,3.354 -4.499,6.59 -5.762,9.51c-0.828,1.934 -1.341,3.71 -1.539,5.249c-0.157,1.105 -0.118,2.091 0.079,2.881c0.079,0.276 0.158,0.473 0.237,0.71c0.197,0.474 0.434,0.868 0.75,1.223l3.196,3.355l0.356,0.355l0.039,-0.04c0.079,-0.118 0.197,-0.236 0.316,-0.315l0.158,-0.158c0.079,-0.119 0.197,-0.197 0.276,-0.316c0.079,-0.079 0.118,-0.118 0.197,-0.158c0.079,-0.039 0.119,-0.118 0.198,-0.158l0.078,-0.079c0.079,-0.039 0.119,-0.118 0.198,-0.157c0.079,-0.079 0.197,-0.158 0.276,-0.237c0.039,-0.04 0.118,-0.079 0.158,-0.119l0.039,0c0.119,-0.078 0.198,-0.157 0.316,-0.236c0.079,-0.04 0.118,-0.079 0.197,-0.158c0.119,-0.079 0.198,-0.158 0.316,-0.237c0.079,-0.039 0.118,-0.079 0.197,-0.118c0.119,-0.079 0.237,-0.158 0.356,-0.198c0.078,-0.039 0.118,-0.079 0.197,-0.118c0.118,-0.079 0.237,-0.118 0.355,-0.197c0.079,-0.04 0.118,-0.079 0.197,-0.119l0.079,-0.039c0.75,-2.092 1.895,-4.42 3.394,-6.788c1.815,-2.92 4.144,-5.998 6.906,-9.076c1.737,-1.934 3.631,-3.868 5.683,-5.723c2.644,-2.407 5.367,-4.577 8.05,-6.472c1.816,-1.262 3.592,-2.407 5.328,-3.393c0.158,-0.079 0.316,-0.198 0.513,-0.277c0.474,-0.276 0.908,-0.513 1.381,-0.75c0.987,-0.513 1.973,-0.986 2.92,-1.381l-0.473,-0.552l-0.079,-0.079l-0.592,-0.671l-3.275,-3.946l0.039,-2.842l-0.039,-0.039l2.328,-0.711l4.42,2.25" style="fill:#2f83c1;fill-rule:nonzero;"/><g><path d="M91.851,72.849c-0,0 0.079,-0.592 -0.237,-1.144c0,-0.04 -0.039,-0.079 -0.039,-0.079l-0.158,-0.158c-0.079,-0.079 -0.158,-0.158 -0.277,-0.237c-0.039,-0.039 -0.118,-0.079 -0.197,-0.118c-0.197,-0.079 -0.394,-0.158 -0.671,-0.197c-0.197,-0.04 -0.394,-0.04 -0.631,-0.04l-0.316,0l0,0.079c0,0.039 0.04,0.079 0.04,0.158c-0,0.039 -0,0.079 0.039,0.079c0.04,0.118 0.079,0.315 0.118,0.473c0,0 0,0.04 -0.039,0.119l0,0.039c-0.118,0.276 -0.434,0.908 -1.144,1.697c-0.119,0.158 -0.237,0.276 -0.395,0.434c-1.973,2.052 -6.235,4.933 -15.233,6.551c-3.039,0.434 -5.88,0.474 -8.248,0.158c-3.551,-0.434 -6.195,-1.579 -7.458,-3.118c-0.119,-0.118 -0.198,-0.276 -0.316,-0.394c-0.079,-0.119 -0.118,-0.198 -0.197,-0.316c-0.04,-0.039 -0.04,-0.079 -0.079,-0.118c-0.513,-0.947 -0.75,-1.974 -0.75,-2.96c-0,-1.223 0.395,-2.368 1.026,-3.236c0.513,-0.71 1.184,-1.263 2.013,-1.5c0.394,-0.118 0.828,-0.197 1.262,-0.158c0.079,0 0.198,0 0.356,0.04c0.276,0.039 0.71,0.079 1.223,0.158c0.039,-0 0.118,-0 0.158,0.039c1.697,0.198 4.38,0.474 7.616,0.276c5.92,-0.355 13.694,-2.209 20.758,-8.603l-0,-0.039c0.039,-0.552 -0.039,-1.5 -0.71,-2.249c-0.119,-0.119 -0.237,-0.237 -0.395,-0.356c-0.079,-0.078 -0.197,-0.118 -0.276,-0.197c-0.119,-0.039 -0.198,-0.118 -0.276,-0.158l-0.356,-0.237l0,-0.039c-0.039,-0.079 -0.079,-0.158 -0.158,-0.237c-1.815,-2.762 -4.34,-4.38 -5.367,-5.13c-0.473,-0.355 -0.789,-0.513 -0.789,-0.513c-2.17,-1.342 -2.486,-1.776 -2.289,-5.367c0.079,-1.302 0.198,-2.999 0.356,-5.328c-0,-0.315 0.039,-0.592 0.039,-0.868l-0,-1.144c-0,-0.198 -0.039,-0.395 -0.039,-0.553c-0,-0.079 -0,-0.158 -0.04,-0.236c-0.039,-0.198 -0.039,-0.395 -0.079,-0.592c0,-0.079 -0.039,-0.198 -0.039,-0.277c-0,-0.118 -0.04,-0.197 -0.079,-0.315c-0.04,-0.079 -0.04,-0.198 -0.079,-0.277c-0.04,-0.118 -0.079,-0.236 -0.079,-0.355c-0,-0.039 -0.04,-0.079 -0.04,-0.118c0,-0.04 -0.039,-0.079 -0.039,-0.119l-0,-0.039l-0.04,-0.118c-0.039,-0.079 -0.078,-0.158 -0.078,-0.237l-0,-0.04l-0.079,-0.157c-0.079,-0.158 -0.119,-0.316 -0.198,-0.435l-0.039,-0.118c-0.079,-0.118 -0.158,-0.276 -0.237,-0.395l-0.079,-0.079c-0.079,-0.078 -0.118,-0.157 -0.197,-0.236l-0.079,-0.119c-0.079,-0.118 -0.158,-0.197 -0.237,-0.276l-0.316,-0.316c-0.118,-0.079 -0.236,-0.158 -0.355,-0.197c-0.039,-0.039 -0.079,-0.039 -0.118,-0.039l-0.237,-0.119c-0.039,0 -0.079,-0.039 -0.118,-0.039c-0.079,-0.04 -0.158,-0.04 -0.198,-0.079c-0.039,-0 -0.079,-0.04 -0.157,-0.04c-0.079,0 -0.119,-0.039 -0.198,-0.039l-0.868,-0c-0.039,-0 -0.079,-0 -0.118,0.039c-0.04,0 -0.079,0 -0.119,0.04c-0.079,-0 -0.158,0.039 -0.276,0.079l-0.079,-0c-0.237,0.079 -0.434,0.158 -0.671,0.236l-0.079,0.04c-0.079,0.039 -0.158,0.079 -0.276,0.118l-0.118,0.04l-0.237,0.118l-0.119,0.079l-0.236,0.119l-0.119,0.078c-0.079,0.04 -0.158,0.119 -0.236,0.158l-0.079,0.04c-0.079,0.079 -0.198,0.118 -0.277,0.197l-0.039,0.04c-0.119,0.078 -0.197,0.157 -0.316,0.197c-0.197,0.118 -0.394,0.276 -0.592,0.394c-0.158,0.119 -0.315,0.237 -0.513,0.356l-0.079,0.039c-0.158,0.119 -0.355,0.237 -0.513,0.316l-0.079,0.039c-0.158,0.119 -0.355,0.198 -0.513,0.316l-0.079,0.039c-0.157,0.119 -0.355,0.198 -0.552,0.277l-0.079,0.039c-0.197,0.079 -0.355,0.158 -0.553,0.237l-0.078,0.039c-0.198,0.079 -0.395,0.119 -0.592,0.198l-0.04,-0c-0.197,0.039 -0.434,0.079 -0.631,0.118c-0.355,0.04 -0.75,0.079 -1.105,0.079c-0.592,0 -1.184,-0.039 -1.816,-0.118l-0.592,-0.119c-0.078,0 -0.157,-0.039 -0.197,-0.039c-0.513,-0.119 -1.065,-0.237 -1.578,-0.355c-0.237,-0.04 -0.434,-0.119 -0.671,-0.158c-0.355,-0.079 -0.711,-0.158 -1.105,-0.237c-0.079,-0 -0.158,-0.039 -0.198,-0.039c-0.039,-0 -0.118,-0.04 -0.157,-0.04c-0.079,0 -0.158,-0.039 -0.237,-0.039c-0.079,-0 -0.158,-0.04 -0.237,-0.04l-0.079,0c-0.079,0 -0.158,-0.039 -0.197,-0.039c-0.158,-0.04 -0.316,-0.079 -0.513,-0.079c-0.04,-0 -0.119,-0 -0.158,-0.04c-0.118,0 -0.237,-0.039 -0.355,-0.039c-0.079,-0 -0.119,-0 -0.198,-0.04c-0.118,0 -0.197,-0.039 -0.315,-0.039l-1.816,-0c-0.197,-0 -0.355,0.039 -0.552,0.039l-0.158,0c-0.118,0 -0.237,0.04 -0.355,0.04l-0.04,-0c-0.078,-0 -0.118,0.039 -0.197,0.039c-0.118,0.04 -0.237,0.04 -0.355,0.079c-0.079,0 -0.158,0.04 -0.197,0.04c-0.119,0.039 -0.237,0.079 -0.355,0.079c-0.079,-0 -0.119,0.039 -0.198,0.079c-0.118,0.039 -0.276,0.078 -0.394,0.118c-0.079,0.039 -0.119,0.039 -0.158,0.079c-0.198,0.079 -0.395,0.158 -0.553,0.237c-1.499,0.868 -2.802,2.052 -3.788,3.393c-0.355,0.474 -0.671,0.948 -0.947,1.421c-0.316,0.513 -0.553,1.066 -0.79,1.618c-0.079,0.158 -0.118,0.316 -0.197,0.474c-0.079,0.276 -0.197,0.552 -0.276,0.828c-0,0.04 -0,0.079 -0.04,0.079c-0.079,0.316 -0.158,0.632 -0.236,0.987c-0.079,0.355 -0.119,0.671 -0.158,1.026c-0.04,0.197 -0.04,0.355 -0.04,0.552c-0.039,0.513 -0.039,0.987 0,1.5l0,0.118c0,0.119 0,0.237 0.04,0.395c0.039,0.355 0.079,0.71 0.158,1.066c0.039,0.118 0.078,0.236 0.078,0.394c0.04,0.119 0.04,0.237 0.079,0.355c0.237,0.908 0.592,1.737 1.026,2.447c1.618,2.802 4.302,4.499 6.275,5.407c0.75,0.315 1.539,0.631 2.368,0.907l-0.079,0.079c-0.158,0.04 -0.316,0.079 -0.513,0.119c-0.276,0.079 -0.631,0.197 -0.987,0.315c-0.394,0.119 -0.868,0.316 -1.341,0.513c-1.263,0.513 -2.684,1.263 -3.947,2.289c-0.158,0.119 -0.315,0.276 -0.473,0.395c-0.277,0.237 -0.513,0.473 -0.75,0.75l-0.197,0.197c-0.079,0.118 -0.198,0.197 -0.277,0.316l-0.118,0.118c-0.118,0.158 -0.237,0.316 -0.316,0.474c-0.118,0.157 -0.197,0.315 -0.315,0.473c-0.75,1.302 -1.184,2.881 -1.066,4.775l0,-0.079c0,-0.039 0,-0.079 0.04,-0.118l-0,-0.04c-0,-0.039 0.039,-0.078 0.039,-0.157l-0,-0.04c-0,-0.039 0.039,-0.118 0.039,-0.197c0,-0.079 0.04,-0.119 0.079,-0.198l0,-0.039c0.04,-0.079 0.04,-0.158 0.079,-0.237l0,-0.039c0.04,-0.079 0.04,-0.158 0.079,-0.237l0,-0.039c0.04,-0.079 0.079,-0.158 0.119,-0.277l0.039,-0.039c0.04,-0.079 0.079,-0.197 0.158,-0.276c0.079,-0.158 0.158,-0.277 0.237,-0.435c0.039,-0.039 0.079,-0.118 0.118,-0.157l0.04,-0.04l0.236,-0.355c0.079,-0.079 0.158,-0.197 0.237,-0.276l0.079,-0.079c0.079,-0.079 0.118,-0.158 0.197,-0.197l0.079,-0.079c0.079,-0.079 0.198,-0.158 0.277,-0.277c-0,0 -1.697,3.868 -0.948,6.906l0,-0.592c0,-0.078 0,-0.157 0.04,-0.236c-0,-0.079 -0,-0.158 0.039,-0.237l0,-0.04c0,-0.078 0.04,-0.197 0.04,-0.276l-0,-0.079c0.039,-0.118 0.039,-0.197 0.079,-0.315l-0,-0.04c0.039,-0.118 0.079,-0.237 0.079,-0.316c-0,-0.039 0.039,-0.079 0.039,-0.118l0.04,-0.079c0.039,-0.079 0.079,-0.197 0.118,-0.276c0.039,-0.119 0.118,-0.237 0.197,-0.355c0,-0.04 0.04,-0.079 0.04,-0.079l0.237,-0.355c-0,-0 -0.079,0.947 -0.079,2.091c-0,0.197 -0,0.355 0.039,0.553c0,0.118 0,0.236 0.04,0.355c0.078,-1.224 0.315,-2.368 0.631,-3.434c-0.316,1.066 -0.553,2.21 -0.631,3.434c-0.04,0.789 -0.04,1.578 0.039,2.407c0.118,1.381 0.474,2.881 1.066,4.42c-0,-0 -0.553,-1.776 0.236,-3.552l0.237,0.474c0.079,0.513 0.158,1.263 0.316,2.091c0.158,1.382 0.789,5.525 3.63,8.406c0,0 -1.065,-1.381 -0.907,-3.157c0.118,0.237 0.237,0.434 0.315,0.631c0.474,0.908 1.421,2.566 2.487,3.749c-0,0 -0.829,-1.618 -0.632,-1.973c0,0 2.763,3.434 3.631,3.749l-1.145,-1.894l-0.039,-0.039c3.986,2.92 9.511,3.985 16.298,2.091c1.184,-0.316 2.368,-0.75 3.631,-1.263c0.75,-0.315 1.5,-0.71 2.249,-1.105l0.119,-0.079c0.513,-0.276 1.026,-0.592 1.539,-0.907c0.394,-0.237 0.789,-0.513 1.144,-0.75c0.632,-0.434 1.263,-0.908 1.894,-1.421c0.04,-0.039 0.079,-0.079 0.119,-0.079c0.592,-0.513 1.184,-1.065 1.697,-1.618c0.71,-0.749 1.342,-1.499 1.894,-2.249l0.039,-0.04c0.158,-0.197 0.277,-0.355 0.395,-0.552l0.04,-0.04c0.039,-0.078 0.078,-0.118 0.118,-0.197c0.197,-0.276 0.355,-0.513 0.552,-0.789c0.04,-0.079 0.079,-0.118 0.119,-0.197c0.079,-0.158 0.158,-0.277 0.276,-0.434c0.079,-0.119 0.118,-0.198 0.197,-0.316c0.079,-0.119 0.158,-0.237 0.198,-0.355c0.118,-0.198 0.236,-0.434 0.355,-0.632l0.513,-1.026c0.079,-0.197 0.197,-0.394 0.276,-0.592l0,-0.039c0.355,-0.316 0.592,-0.632 0.829,-0.908c0.039,-0.039 0.079,-0.079 0.079,-0.118c0.355,-0.513 0.513,-1.105 0.513,-1.658m-63.812,-10.063c-0.119,0.04 -0.237,0.197 -0.395,0.395c-0.039,0.079 -0.118,0.158 -0.158,0.276c-0.355,0.671 -0.671,1.618 -0.671,1.618c0.04,-0.316 0.079,-0.631 0.079,-0.947l0,-0.119c0.04,-0.315 0.079,-0.67 0.119,-0.986l-0,-0.119c0.039,-0.394 0.118,-0.749 0.197,-1.104c-0,-0.04 -0,-0.079 0.039,-0.158l0,-0.04c0,-0.039 0,-0.079 0.04,-0.118c-0,-0.079 0.039,-0.119 0.039,-0.197c0.04,-0.277 0.119,-0.553 0.158,-0.829c0.04,-0.237 0.079,-0.474 0.119,-0.671l-0,-0.079c-0,-0.039 -0,-0.079 0.039,-0.079l0,-0.079c0,-0.039 0.04,-0.118 0.04,-0.158c-0,-0.039 -0,-0.079 0.039,-0.118c-0,-0.079 0.039,-0.158 0.039,-0.197c0,-0.04 0.04,-0.119 0.04,-0.158c-0,-0.079 0.039,-0.158 0.039,-0.198c0,-0.039 0,-0.079 0.04,-0.118c-0,-0.039 -0,-0.079 0.039,-0.079c0,-0.079 0.04,-0.118 0.04,-0.158l-0,-0.118l-0.079,0.079c-0.079,0.039 -0.119,0.118 -0.197,0.158l-0.079,0.079c-0.079,0.078 -0.158,0.157 -0.198,0.236l-0.039,0.04l-0.237,0.355l-0.039,0.039c-0,0.04 -0.04,0.04 -0.04,0.079l-0.118,0.237l-0,0.079c-0.04,0.118 -0.119,0.237 -0.158,0.355c-0.119,0.316 -0.237,0.632 -0.316,0.908c-0.039,0.079 -0.039,0.197 -0.079,0.237c-0.039,0.158 -0.079,0.315 -0.079,0.355l0,0.039l0,-0.039c0,-0.119 0,-0.197 0.04,-0.316c-0,-0.197 0.039,-0.434 0.039,-0.631c0,-0.158 0.04,-0.355 0.079,-0.513c0,-0.04 0,-0.119 0.04,-0.158c-0,-0.079 0.039,-0.158 0.039,-0.237c0,-0.079 0.04,-0.158 0.04,-0.237l-0,-0.118c-0,-0.079 0.039,-0.197 0.039,-0.276l-0,-0.277c-0,-0.039 -0,-0.079 0.039,-0.118c0.04,-0.118 0.079,-0.276 0.079,-0.395l0,-0.039c0.04,-0.079 0.04,-0.197 0.079,-0.276l0,-0.04c0.04,-0.197 0.119,-0.394 0.158,-0.592l0,-0.079c0,-0.039 0,-0.079 0.04,-0.118c0.079,-0.316 0.197,-0.631 0.276,-0.908l-0,-0.039c0.079,-0.237 0.197,-0.513 0.276,-0.75l0,-0.039c0.04,-0.119 0.079,-0.198 0.119,-0.316c0.078,-0.158 0.118,-0.316 0.197,-0.474c-0,-0.039 0.039,-0.118 0.118,-0.276c0.04,-0.039 0.04,-0.118 0.079,-0.158c0.04,-0.079 0.079,-0.158 0.119,-0.276l0.039,-0.079c-0.039,-0.039 -0.118,-0.039 -0.158,-0.079l-0.039,0l-0.079,-0.039c-0.355,-0.158 -0.75,-0.316 -1.145,-0.434l-0.079,-0c-0.276,-0.079 -0.513,-0.119 -0.789,-0.158c-0.158,-0 -0.316,-0.04 -0.473,-0.04l-0.395,0c-0.197,0 -0.395,0.04 -0.592,0.04c-0.079,-0 -0.118,-0 -0.197,0.039c-0.079,0 -0.198,0.04 -0.277,0.04c-0.039,-0 -0.079,-0 -0.118,0.039c-0.079,0 -0.118,0.04 -0.197,0.04c-0.119,0.039 -0.277,0.078 -0.395,0.118c-0.039,-0 -0.118,0.039 -0.158,0.039c-0.158,0.079 -0.355,0.119 -0.513,0.198c-0.079,0.039 -0.118,0.079 -0.197,0.079l-0.316,0.157c-0.079,0.04 -0.158,0.079 -0.237,0.158c-0.079,0.04 -0.157,0.079 -0.236,0.158c-0.079,0.04 -0.158,0.119 -0.237,0.158c-0.04,0.039 -0.119,0.079 -0.158,0.118c-0.118,0.119 -0.276,0.237 -0.395,0.356l-0.197,0.197c-0.118,0.118 -0.197,0.237 -0.316,0.355l-0.039,0.04c-0.04,0.078 -0.119,0.118 -0.158,0.197l-0.118,0.118c-0.198,0.276 -0.395,0.592 -0.553,0.908c-0.039,0.039 -0.039,0.079 -0.079,0.118c-0.079,0.158 -0.118,0.316 -0.197,0.474c-0.04,0.079 -0.04,0.118 -0.079,0.197c-0.039,0.158 -0.118,0.316 -0.158,0.513l0,0.158c-0.039,0.118 -0.039,0.237 -0.079,0.355c0,0.079 0,0.119 -0.039,0.198c-0,0.078 -0,0.118 -0.04,0.197l0,0.158c0,0.197 -0.039,0.394 0,0.592c0,0.158 0,0.315 0.04,0.473l-0,0.079c-0,0.079 0.039,0.158 0.039,0.237c0.04,0.316 0.119,0.592 0.198,0.908c0.078,0.236 0.157,0.434 0.236,0.631c0.158,0.395 0.355,0.75 0.592,1.105c0.474,0.71 1.105,1.342 1.855,1.815c0.395,0.277 0.868,0.474 1.342,0.632c0.434,0.158 0.907,0.276 1.42,0.315c0.119,0 0.237,0.04 0.316,0.04l0.513,-0c0.158,-0 0.316,-0.04 0.474,-0.04c0.079,0 0.197,0 0.276,-0.039c0.237,-0.04 0.434,-0.079 0.671,-0.118l0.039,-0c0.079,-0.04 0.158,-0.04 0.277,-0.079c0.276,-0.079 0.552,-0.198 0.789,-0.316l0.039,-0.04c0.079,-0.039 0.158,-0.078 0.198,-0.078c-0.119,-0.671 -0.237,-1.382 -0.277,-2.092c0.198,-0.079 0.198,-0.118 0.198,-0.158" style="fill:#fce9cd;fill-rule:nonzero;"/></g><path d="M54.676,7.024l0.119,0.079l-0.119,-0.079Z" style="fill:#4d9ed7;fill-rule:nonzero;"/><path d="M89.444,71.231c-0,-0.039 -0,-0.079 -0.04,-0.079c-0.039,-0.079 -0.039,-0.118 -0.039,-0.158c-0.198,-0.631 -0.434,-1.104 -0.671,-1.46c-0.276,-0.434 -0.513,-0.671 -0.513,-0.671l0.118,-0.473c0.04,-0.197 0.079,-0.395 0.079,-0.592c0.158,-1.421 -0.197,-2.526 -0.513,-3.157c-0.039,-0.119 -0.079,-0.197 -0.118,-0.276c-0.237,0.157 -0.434,0.315 -0.671,0.473c-4.262,2.881 -9.037,4.736 -14.207,5.525c-3.552,0.553 -7.301,0.592 -11.208,0.118l0.079,0.04c0,-0 -2.367,0.316 -2.999,2.565l0.04,0.039l-0.198,1.5c0.079,2.052 0.987,3.315 2.052,3.986c1.105,0.434 2.447,0.75 3.947,0.947c2.565,0.316 5.564,0.237 8.563,-0.237c4.025,-0.552 9.708,-2.683 13.773,-5.446c0.908,-0.631 1.776,-1.302 2.486,-1.973l0.079,-0.079c0,-0.276 -0.039,-0.434 -0.039,-0.592" style="fill:#fff;fill-rule:nonzero;"/><g><path d="M81.748,51.736c-2.17,-1.341 -2.486,-1.775 -2.289,-5.367c0.079,-1.302 0.198,-2.999 0.356,-5.327c-0,-0.316 0.039,-0.592 0.039,-0.868l-0,-1.145c-0,-0.197 -0.039,-0.394 -0.039,-0.552c-0,-0.079 -0,-0.158 -0.04,-0.237c-0.039,-0.197 -0.039,-0.395 -0.079,-0.592c0,-0.079 -0.039,-0.197 -0.039,-0.276c-0,-0.119 -0.04,-0.198 -0.079,-0.316c-0.04,-0.079 -0.04,-0.197 -0.079,-0.276c-0.316,-0.474 -0.671,-0.868 -1.105,-1.224l-0.079,-0.078l-0.079,-0.04l-0.039,0c-0.079,-0.039 -0.119,-0.079 -0.198,-0.118c-0.079,-0.04 -0.158,-0.079 -0.197,-0.119c-0.632,-0.394 -1.381,-0.631 -2.131,-0.75c-0.434,-0.078 -0.868,-0.078 -1.302,-0.078c-0.198,-0 -0.435,0.039 -0.632,0.039c-0.552,0.079 -1.105,0.197 -1.697,0.355c-0.197,0.119 -0.394,0.276 -0.592,0.395c-0.158,0.118 -0.315,0.237 -0.513,0.355l-0.079,0.039c-0.157,0.119 -0.355,0.237 -0.513,0.316l-0.079,0.04c-0.157,0.118 -0.355,0.197 -0.513,0.315l-0.079,0.04c-0.157,0.118 -0.355,0.197 -0.552,0.276l-0.079,0.039c-0.197,0.079 -0.355,0.158 -0.552,0.237l-0.079,0.04c-0.198,0.079 -0.395,0.118 -0.592,0.197l-0.04,0c-0.197,0.04 -0.434,0.079 -0.631,0.118c-0.355,0.04 -0.75,0.079 -1.105,0.079c-0.592,0 -1.184,-0.039 -1.815,-0.118l-0.592,-0.118c-0.079,-0 -0.158,-0.04 -0.198,-0.04c-0.513,-0.118 -1.065,-0.237 -1.578,-0.355c-0.237,-0.04 -0.434,-0.118 -0.671,-0.158c-0.355,-0.079 -0.71,-0.158 -1.105,-0.237c-0.079,0 -0.158,-0.039 -0.197,-0.039c-0.316,-0 -0.632,0.039 -0.908,0.079l-0.079,-0c-0.908,0.118 -1.776,0.315 -2.684,0.631c-0.039,0 -0.078,0.04 -0.157,0.04c-0.158,0.039 -0.277,0.118 -0.434,0.158c-0.198,0.078 -0.356,0.157 -0.553,0.236c-1.302,0.553 -2.526,1.342 -3.71,2.329c-0.473,0.394 -0.907,0.828 -1.341,1.262c-0.632,0.671 -1.184,1.382 -1.697,2.131c-0.04,0.04 -0.04,0.079 -0.079,0.119c-0.276,0.394 -0.513,0.829 -0.71,1.223c-0.079,0.158 -0.158,0.316 -0.237,0.434l-0,0.04c-0.237,0.513 -0.434,0.986 -0.592,1.499c-0,0.04 -0,0.079 -0.04,0.079c-0.039,0.079 -0.039,0.158 -0.079,0.237c-0.079,0.237 -0.157,0.474 -0.197,0.71c-0.079,0.237 -0.118,0.474 -0.158,0.75c0,0.04 -0.039,0.119 -0.039,0.158c-0.04,0.158 -0.04,0.316 -0.079,0.434c-0.079,0.553 -0.119,1.105 -0.158,1.658l0,0.394c0.237,0.908 0.592,1.737 1.026,2.447c1.618,2.802 4.302,4.499 6.275,5.406c0.75,0.316 1.539,0.632 2.368,0.908l0.039,0.04l0.039,-0.04c0.119,-0.079 0.198,-0.158 0.316,-0.237c0.04,-0.039 0.079,-0.039 0.119,-0.079l0.355,-0.236c0.039,-0.04 0.079,-0.04 0.118,-0.079l0.355,-0.237c0.04,-0.04 0.079,-0.04 0.119,-0.079c0.118,-0.079 0.236,-0.158 0.394,-0.237c0.04,-0.039 0.079,-0.039 0.119,-0.079c0.118,-0.079 0.276,-0.158 0.394,-0.236c0.04,-0.04 0.079,-0.04 0.119,-0.079c0.118,-0.079 0.276,-0.158 0.394,-0.237c0.04,-0.04 0.119,-0.04 0.158,-0.079c0.119,-0.079 0.276,-0.158 0.395,-0.237c0.039,-0.039 0.118,-0.079 0.158,-0.079c0.118,-0.079 0.276,-0.158 0.434,-0.237c0.079,-0.039 0.118,-0.079 0.197,-0.079c0.158,-0.078 0.276,-0.157 0.434,-0.197c0.079,-0.039 0.119,-0.079 0.198,-0.079c0.157,-0.079 0.276,-0.118 0.434,-0.197l0.236,-0.118c0.158,-0.079 0.277,-0.119 0.434,-0.198c0.079,-0.039 0.158,-0.079 0.277,-0.118c0.158,-0.04 0.276,-0.119 0.434,-0.158c0.079,-0.04 0.197,-0.079 0.276,-0.118c0.158,-0.04 0.276,-0.119 0.434,-0.158c0.119,-0.04 0.197,-0.079 0.316,-0.119c0.158,-0.039 0.276,-0.118 0.434,-0.158l0.355,-0.118c0.119,-0.039 0.276,-0.079 0.395,-0.158c0.118,-0.039 0.276,-0.079 0.394,-0.118c0.119,-0.04 0.277,-0.079 0.395,-0.119c0.158,-0.039 0.316,-0.078 0.434,-0.118c0.119,-0.039 0.237,-0.079 0.395,-0.118c0.158,-0.04 0.315,-0.079 0.513,-0.158c0.079,-0.04 0.158,-0.04 0.237,-0.079c0.631,-1.618 2.565,-5.643 5.84,-6.077c0.355,-0.04 0.671,-0.079 0.987,-0.079l0.236,-0c-0.039,-0.237 -0.078,-0.474 -0.078,-0.75c-0.119,-1.737 0.434,-3.197 1.183,-3.236c0.592,-0.04 1.066,0.829 1.145,1.105c0.237,0.513 0.395,1.184 0.434,1.933c0.039,0.671 -0.039,1.303 -0.158,1.855c0.079,0.079 0.119,0.158 0.197,0.198c0.75,0.947 0.869,2.21 0.829,3.157c0.276,-0.04 0.592,-0.04 0.908,-0.079c0.079,-0 0.158,-0 0.237,-0.04l0.157,0c0.356,-0.039 0.75,-0.079 1.145,-0.079c0.868,-0.079 1.736,-0.118 2.644,-0.158c-0.513,-0.276 -0.829,-0.434 -0.829,-0.434m8.248,24.31c-1.421,1.263 -2.92,2.289 -4.42,3.117c-0.75,0.395 -1.499,0.75 -2.21,1.066c-1.618,0.71 -3.157,1.184 -4.538,1.539c-3.039,0.75 -5.13,0.75 -5.13,0.75c1.657,0.907 3.749,0.907 5.169,0.789c0.987,-0.079 1.658,-0.276 1.658,-0.276c-0.04,0.592 -0.119,1.144 -0.197,1.697c-0.119,0.592 -0.277,1.105 -0.474,1.578l-0,0.04c-0.237,0.592 -0.553,1.105 -0.868,1.578c-0.04,0.04 -0.079,0.119 -0.119,0.158l0.119,-0.079c0.513,-0.276 1.026,-0.592 1.539,-0.907c0.394,-0.237 0.789,-0.514 1.144,-0.75c0.632,-0.434 1.263,-0.908 1.895,-1.421c0.039,-0.039 0.078,-0.079 0.118,-0.079c0.592,-0.513 1.184,-1.065 1.697,-1.618c0.71,-0.75 1.342,-1.5 1.894,-2.249l0.04,-0.04c0.157,-0.197 0.276,-0.355 0.394,-0.552l0.04,-0.04c0.039,-0.079 0.079,-0.118 0.118,-0.197c0.197,-0.276 0.355,-0.513 0.553,-0.789c0.039,-0.079 0.078,-0.119 0.118,-0.198c0.079,-0.157 0.158,-0.276 0.276,-0.434c0.079,-0.118 0.119,-0.197 0.197,-0.315c0.079,-0.119 0.158,-0.237 0.198,-0.356c0.118,-0.197 0.237,-0.434 0.355,-0.631l0.513,-1.026c0.079,-0.197 0.197,-0.395 0.276,-0.592c-0.158,0.039 -0.237,0.118 -0.355,0.237m-35.99,-15.904c-0.395,0.118 -0.869,0.316 -1.342,0.513c-1.263,0.513 -2.684,1.263 -3.947,2.289c-0.157,0.118 -0.315,0.276 -0.473,0.395c-0.276,0.236 -0.513,0.473 -0.75,0.749l-0.197,0.198c-0.079,0.118 -0.198,0.197 -0.276,0.315l-0.119,0.119c-0.118,0.158 -0.237,0.316 -0.316,0.473c-0.118,0.158 -0.197,0.316 -0.315,0.474c-0.75,1.302 -1.184,2.881 -1.066,4.775l0,-0.079c0,-0.039 0,-0.079 0.04,-0.118l-0,-0.04c-0,-0.039 0.039,-0.079 0.039,-0.158l0,-0.039c0,-0.04 0.04,-0.118 0.04,-0.197c-0,-0.079 0.039,-0.119 0.079,-0.198l-0,-0.039c0.039,-0.079 0.039,-0.158 0.078,-0.237l0,-0.039c0.04,-0.079 0.04,-0.158 0.079,-0.237l0,-0.04c0.04,-0.079 0.079,-0.158 0.119,-0.276l0.039,-0.039c0.04,-0.079 0.079,-0.198 0.158,-0.277c0.079,-0.157 0.158,-0.276 0.237,-0.434c0.039,-0.039 0.079,-0.118 0.118,-0.158l0.04,-0.039l0.236,-0.355c0.079,-0.079 0.158,-0.198 0.237,-0.276l0.079,-0.079c0.079,-0.079 0.119,-0.158 0.198,-0.198l0.078,-0.079c0.079,-0.079 0.198,-0.157 0.277,-0.276c-0,0 -1.697,3.868 -0.947,6.906l-0,-0.592c-0,-0.079 -0,-0.158 0.039,-0.237c0,-0.078 0,-0.157 0.039,-0.236l0,-0.04c0,-0.079 0.04,-0.197 0.04,-0.276l-0,-0.079c0.039,-0.118 0.039,-0.197 0.079,-0.316l-0,-0.039c0.039,-0.119 0.079,-0.237 0.079,-0.316c-0,-0.039 0.039,-0.079 0.039,-0.118l0.04,-0.079c0.039,-0.079 0.079,-0.197 0.118,-0.276c0.04,-0.119 0.119,-0.237 0.197,-0.356c0,-0.039 0.04,-0.078 0.04,-0.078l0.237,-0.356c-0,0 -0.079,0.947 -0.079,2.092c-0,0.197 -0,0.355 0.039,0.552c0,0.119 0,0.237 0.04,0.356c0.079,-1.224 0.315,-2.368 0.631,-3.434c0.079,-0.276 0.197,-0.592 0.276,-0.868c0,-0.039 0.04,-0.079 0.04,-0.118c0.118,-0.277 0.197,-0.513 0.316,-0.79c0.039,-0.039 0.039,-0.079 0.078,-0.157c0.119,-0.237 0.237,-0.513 0.356,-0.75c0.039,-0.04 0.039,-0.079 0.039,-0.119c0.276,-0.513 0.553,-0.986 0.829,-1.42c0.039,-0.04 0.039,-0.079 0.079,-0.119c0.118,-0.158 0.237,-0.315 0.355,-0.513c0.039,-0.039 0.039,-0.079 0.079,-0.118c0.039,-0.04 0.039,-0.079 0.079,-0.119c0.158,-0.197 0.276,-0.394 0.434,-0.591c0.039,-0.04 0.039,-0.079 0.079,-0.079c0.158,-0.198 0.315,-0.395 0.473,-0.553c0.198,-0.237 0.395,-0.434 0.592,-0.671c0.158,-0.158 0.277,-0.315 0.434,-0.434l0.158,-0.158c0.316,-0.315 0.632,-0.631 0.947,-0.907c0.869,-0.79 1.579,-1.303 1.816,-1.46c-0.158,0.039 -0.316,0.078 -0.513,0.118c-0.237,0.118 -0.553,0.237 -0.947,0.355" style="fill:#f2d2ac;fill-rule:nonzero;"/><path d="M76.736,51.579c0,-0 0,-0.079 -0.039,-0.237c-0.158,-0.553 -0.71,-1.894 -2.881,-1.697c-2.289,0.237 -3.078,2.091 -3.275,2.723c-0.04,0.118 -0.04,0.197 -0.04,0.197l0.079,0.04c0.276,-0.237 0.829,-0.237 1.342,0.118c0.237,0.158 0.394,0.316 0.552,0.513c0.198,0.316 0.237,0.631 0.119,0.868l-0.119,0.119c0,-0 0.079,0.039 0.237,0.078c0.632,0.198 2.407,0.553 3.355,-0.67c0.039,-0.079 0.078,-0.119 0.118,-0.198c-0.197,-0.079 -0.276,-0.355 -0.276,-0.71c-0,-0.158 0.039,-0.316 0.079,-0.513c0.118,-0.474 0.473,-0.75 0.749,-0.631m-11.405,16.89c-1.499,0.316 -2.801,0.552 -3.788,0.71c0.039,0 0.118,0 0.158,0.04c1.697,0.197 4.38,0.473 7.616,0.276c5.92,-0.355 13.694,-2.21 20.758,-8.603l-0,-0.04c0.039,-0.552 -0.039,-1.499 -0.71,-2.249c-0.119,-0.118 -0.237,-0.237 -0.395,-0.355c-0.039,-0 -0.039,-0.04 -0.079,-0.04c-0.197,-0.118 -0.355,-0.197 -0.513,-0.315l-0.355,-0.237l-0,-0.04c-0.434,0.632 -0.947,1.224 -1.5,1.776c-0.197,0.198 -0.394,0.395 -0.631,0.592c-1.934,1.737 -4.459,3.236 -7.182,4.42c-4.499,1.973 -9.551,3.276 -13.379,4.065m-37.411,-10.3c-0.079,0.039 -0.118,0.118 -0.197,0.158l-0.079,0.079c-0.079,0.079 -0.158,0.158 -0.197,0.236l-0.04,0.04l-0.237,0.355l-0.039,0.04c0,0.039 -0.039,0.039 -0.039,0.078l-0.119,0.237l0,0.079c-0.039,0.119 -0.118,0.237 -0.158,0.355c-0.118,0.316 -0.236,0.632 -0.315,0.908c-0.04,0.079 -0.04,0.197 -0.079,0.237c-0.04,0.158 -0.079,0.316 -0.079,0.355l-0,0.039l-0,-0.039c-0,-0.118 -0,-0.197 0.039,-0.316c0,-0.197 0.04,-0.434 0.04,-0.631c-0,-0.158 0.039,-0.355 0.079,-0.513c-0,-0.04 -0,-0.119 0.039,-0.158c0,-0.079 0.04,-0.158 0.04,-0.237c-0,-0.079 0.039,-0.158 0.039,-0.237l-0,-0.118c-0,-0.079 0.039,-0.197 0.039,-0.276l0,-0.276c0,-0.04 0,-0.079 0.04,-0.119c0.039,-0.118 0.079,-0.276 0.079,-0.394l-0,-0.04c0.039,-0.079 0.039,-0.197 0.079,-0.276l-0,-0.04c0.039,-0.197 0.118,-0.394 0.158,-0.592l-0,-0.079c-0,-0.039 -0,-0.078 0.039,-0.118c0.079,-0.316 0.197,-0.631 0.276,-0.908l0,-0.039c0.079,-0.237 0.198,-0.513 0.277,-0.75l-0,-0.039c0.039,-0.119 0.079,-0.198 0.118,-0.316c0.079,-0.158 0.118,-0.316 0.197,-0.474c0,-0.039 0.04,-0.118 0.119,-0.276c0.039,-0.039 0.039,-0.118 0.079,-0.158c0.039,-0.079 0.079,-0.158 0.118,-0.276l0.039,-0.079c-0.039,-0.039 -0.118,-0.039 -0.157,-0.079l-0.04,0l-0.079,-0.039c-0.355,-0.158 -0.75,-0.316 -1.144,-0.434l-0.079,-0c-0.276,-0.079 -0.513,-0.119 -0.789,-0.158c-0.158,-0 -0.316,-0.04 -0.474,-0.04l-0.395,0c-0.197,0 -0.394,0.04 -0.592,0.04c-0.078,-0 -0.118,-0 -0.197,0.039c-0.079,0 -0.197,0.04 -0.276,0.04c-0.04,-0 -0.079,-0 -0.119,0.039c-0.078,0 -0.118,0.04 -0.197,0.04c-0.118,0.039 -0.276,0.079 -0.394,0.118c-0.04,0 -0.119,0.04 -0.158,0.04c-0.158,0.078 -0.355,0.118 -0.513,0.197c-0.079,0.039 -0.119,0.079 -0.198,0.079l-0.315,0.158c-0.079,0.039 -0.158,0.079 -0.237,0.157c-0.079,0.04 -0.158,0.079 -0.237,0.158c-0.079,0.04 -0.158,0.119 -0.237,0.158c-0.039,0.04 -0.118,0.079 -0.158,0.119c-0.118,0.118 -0.276,0.236 -0.394,0.355l-0.197,0.197c-0.119,0.118 -0.198,0.237 -0.316,0.355l-0.04,0.04c-0.039,0.079 -0.118,0.118 -0.158,0.197l-0.118,0.118c-0.197,0.277 -0.395,0.592 -0.552,0.908c-0.04,0.04 -0.04,0.079 -0.079,0.118c-0.079,0.158 -0.119,0.316 -0.198,0.474c-0.039,0.079 -0.039,0.118 -0.079,0.197c0,0.04 0.04,0.079 0.04,0.119c0.039,0.158 0.079,0.276 0.118,0.434l0,0.079c0.04,0.118 0.119,0.276 0.158,0.394c0.158,0.395 0.316,0.75 0.513,1.066c0.04,0.039 0.04,0.079 0.079,0.118l0,0.04l0.04,0.039c0.118,0.237 0.236,0.434 0.355,0.592c0.197,0.276 0.355,0.474 0.473,0.632l0.079,0.078c0,0.04 0.04,0.04 0.04,0.04l0.079,0.079c-0,-0.079 -0.04,-0.158 -0.04,-0.197c-0.118,-0.513 -0.158,-0.987 -0.158,-1.5l0,-0.079c0,-0.316 0,-0.631 0.04,-0.908l0.118,0.356c0.04,0.157 0.119,0.315 0.158,0.473l-0,0.079c0.237,0.671 0.513,1.223 0.789,1.657c0.316,0.553 0.592,0.908 0.79,1.145c0.039,0.039 0.078,0.079 0.078,0.118l0.079,0.079c-0.118,-0.552 -0.197,-1.065 -0.197,-1.578l0,-0.513c0,-0.237 0,-0.434 0.04,-0.632c0.078,0.355 0.197,0.711 0.315,1.026l0,0.04c0.434,1.144 0.947,1.973 1.303,2.486l0.039,0.039c0.079,0.079 0.118,0.158 0.158,0.237c0.039,0.04 0.079,0.079 0.079,0.119l0.118,0.118l0,-0.079c0,-0.079 -0.039,-0.158 -0.039,-0.237c-0.04,-0.276 -0.079,-0.552 -0.119,-0.789c0,-0.158 -0.039,-0.355 -0.039,-0.513l-0,-0.868c-0,-0.198 0.039,-0.434 0.039,-0.632c0.04,0.119 0.079,0.277 0.119,0.395c0.039,0.079 0.079,0.197 0.118,0.276l0,0.04l0.04,0.039c0.039,0.119 0.078,0.237 0.118,0.316c0.079,0.197 0.158,0.395 0.276,0.552c0.119,0.237 0.197,0.434 0.316,0.592c0.079,0.119 0.118,0.198 0.158,0.277c0.079,0.118 0.158,0.236 0.197,0.315c0.079,0.079 0.118,0.158 0.158,0.237l0.039,0.04c0.04,0.078 0.119,0.118 0.158,0.197c0.04,0.039 0.079,0.079 0.079,0.118c0.079,0.079 0.119,0.158 0.158,0.158l0.039,0.04l0,-0.119c0.04,-0.316 0.079,-0.671 0.119,-0.986l-0,-0.119c0.039,-0.394 0.118,-0.75 0.197,-1.105c0,-0.039 0,-0.079 0.04,-0.158l-0,-0.039c-0,-0.04 -0,-0.079 0.039,-0.118c0,-0.079 0.04,-0.119 0.04,-0.198c0.039,-0.276 0.118,-0.552 0.157,-0.829c0.04,-0.236 0.079,-0.473 0.119,-0.67l-0,-0.079c-0,-0.04 -0,-0.079 0.039,-0.079l0,-0.079c0,-0.04 0.04,-0.119 0.04,-0.158c-0,-0.04 -0,-0.079 0.039,-0.118c0,-0.079 0.04,-0.158 0.04,-0.198c-0,-0.039 0.039,-0.118 0.039,-0.158c0,-0.079 0.04,-0.157 0.04,-0.197c-0,-0.039 -0,-0.079 0.039,-0.118c0,-0.04 0,-0.079 0.04,-0.079c-0,-0.079 0.039,-0.119 0.039,-0.158l-0,-0.118l0.197,0.118m47.83,16.496c0.552,-0.198 1.026,-0.356 1.42,-0.513c0.75,-0.316 1.145,-0.553 1.145,-0.632c-0.04,-0.079 -0.474,-0.039 -1.263,0.158c-0.395,0.079 -0.868,0.158 -1.46,0.316c-0.276,0.079 -0.592,0.118 -0.908,0.158c-0.315,0.039 -0.671,0.118 -1.026,0.157c-0.71,0.119 -1.499,0.198 -2.368,0.277l-1.302,0.118c-0.434,0.039 -0.907,0.039 -1.381,0.079c-1.894,0.039 -3.986,-0.04 -6.117,-0.434c-1.105,-0.197 -2.644,-0.71 -3.709,-1.302l-0.04,-0.04c0.632,-2.249 2.999,-2.565 2.999,-2.565l-0.079,-0.039l-0.118,-0c-0.355,-0.04 -0.631,-0.079 -0.908,-0.119c-0.197,-0.039 -0.355,-0.039 -0.473,-0.079c-0.119,0 -0.237,-0.039 -0.276,-0.039c-1.421,-0.079 -2.21,1.105 -2.447,1.618l-0.119,0.237c-0.197,0.473 -0.355,0.986 -0.394,1.578c-0.079,1.066 0.197,2.21 1.026,3.197c0.552,0.67 1.499,1.262 2.723,1.736c-1.066,-0.671 -2.013,-1.973 -2.052,-3.986c1.223,0.513 2.604,0.829 3.67,1.026c2.249,0.434 4.459,0.474 6.393,0.355c0.473,-0.039 0.986,-0.079 1.421,-0.118c0.473,-0.079 0.907,-0.118 1.341,-0.158c0.868,-0.158 1.618,-0.276 2.368,-0.434c0.355,-0.079 0.71,-0.158 1.026,-0.276c0.355,-0.079 0.632,-0.158 0.908,-0.276" style="fill:#f2d2ac;fill-rule:nonzero;"/></g><g><path d="M73.895,48.303c1.184,0.04 1.973,0.395 2.526,0.947c0.118,-0.513 0.197,-1.144 0.158,-1.855c-0.04,-0.749 -0.198,-1.42 -0.435,-1.933c-0.078,-0.316 -0.552,-1.145 -1.144,-1.105c-0.75,0.039 -1.302,1.499 -1.184,3.236c0,0.237 0.04,0.473 0.079,0.71m1.973,4.459c0,0.316 0.119,0.592 0.276,0.711c0.277,0.158 0.632,-0.158 0.79,-0.671c-0,-0.04 0.039,-0.079 0.039,-0.118c0.119,-0.474 0,-0.948 -0.276,-1.066c-0.276,-0.158 -0.631,0.158 -0.789,0.671c-0,0.158 -0.04,0.316 -0.04,0.473m-5.367,0.869c0.119,0.197 0.316,0.394 0.553,0.552c0.513,0.316 1.065,0.355 1.381,0.079l0.118,-0.118c0.119,-0.237 0.079,-0.553 -0.118,-0.869c-0.119,-0.197 -0.316,-0.394 -0.553,-0.513c-0.513,-0.315 -1.065,-0.355 -1.341,-0.118c-0.04,0.04 -0.079,0.079 -0.119,0.158c-0.118,0.197 -0.079,0.513 0.079,0.829m19.613,7.221c-0.039,0 -0.039,0 0,0m-0.631,10.932c-0.75,0.71 -1.579,1.381 -2.526,2.012c-4.064,2.763 -9.747,4.933 -13.772,5.446c-3.039,0.474 -5.999,0.553 -8.564,0.237c-1.499,-0.197 -2.802,-0.513 -3.946,-0.947c-1.224,-0.474 -2.171,-1.066 -2.723,-1.736c-0.829,-0.987 -1.066,-2.171 -1.026,-3.197c0.039,-0.552 0.158,-1.105 0.394,-1.578l0.119,-0.237c0.276,-0.513 1.026,-1.737 2.447,-1.618c0.039,-0 0.157,-0 0.276,0.039c0.118,0 0.316,0.04 0.473,0.079c0.277,0.04 0.553,0.079 0.908,0.119l0.118,-0c3.907,0.473 7.656,0.434 11.208,-0.119c5.17,-0.789 9.945,-2.644 14.207,-5.525c0.237,-0.158 0.434,-0.315 0.671,-0.473l2.328,-3.473c-7.064,6.432 -14.838,8.287 -20.758,8.642c-3.236,0.198 -5.919,-0.039 -7.616,-0.276c-0.079,0 -0.119,0 -0.158,-0.039c-0.513,-0.079 -0.908,-0.119 -1.223,-0.158c-0.158,-0 -0.277,-0.04 -0.356,-0.04c-0.434,-0.039 -0.868,0.04 -1.262,0.158c-0.79,0.237 -1.5,0.79 -2.013,1.5c-0.631,0.868 -1.026,2.052 -1.026,3.236c-0,0.986 0.237,2.012 0.75,2.96c0.039,0.039 0.039,0.079 0.079,0.118c0.079,0.118 0.118,0.197 0.197,0.316c0.079,0.118 0.197,0.276 0.316,0.394c1.223,1.539 3.907,2.644 7.458,3.118c2.408,0.316 5.209,0.276 8.248,-0.158c8.998,-1.618 13.26,-4.538 15.233,-6.551c0.158,-0.158 0.276,-0.276 0.395,-0.434c0.71,-0.829 1.026,-1.46 1.144,-1.697l0,-0.039c0.039,-0.079 0.039,-0.119 0.039,-0.119l-0.039,0.04" style="fill:#664f44;fill-rule:nonzero;"/></g><g><path d="M60.872,40.608c-0.276,-0.158 -0.592,-0.277 -0.908,-0.355c-0.197,-0.04 -0.394,-0.079 -0.631,-0.119c-0.079,0 -0.158,0 -0.237,-0.039c-1.065,-0.079 -1.973,0.079 -1.973,0.079c-0.197,0.039 -0.395,0.079 -0.552,0.157c-1.421,0.435 -2.408,1.184 -3.118,2.053c-0.552,0.71 -0.947,1.46 -1.144,2.21c-0.04,0.078 -0.04,0.118 -0.04,0.197c-0.039,0.197 -0.118,0.394 -0.158,0.552c-0.118,0.632 -0.197,1.184 -0.197,1.658c-0,0.631 0.039,1.026 0.039,1.026c0.237,-0.553 0.513,-1.026 0.79,-1.5c0.671,-1.144 1.381,-2.091 2.131,-2.841c1.42,-1.46 2.881,-2.25 3.986,-2.644c1.183,-0.395 2.012,-0.434 2.012,-0.434m17.088,-2.013l-0.04,-0.079c-0.158,-0.197 -0.355,-0.394 -0.592,-0.552c-0.552,-0.355 -1.302,-0.553 -2.328,-0.355c0,-0 -1.223,0.276 -1.934,1.104c0,0 2.131,-0.907 4.42,0.711c0.198,0.158 0.434,0.316 0.632,0.513c0.197,0.197 0.434,0.394 0.631,0.671c0,-0 -0.079,-0.987 -0.671,-1.855c-0.039,-0.079 -0.079,-0.118 -0.118,-0.158" style="fill:#e9b784;fill-rule:nonzero;"/></g><path d="M61.148,54.301c0.829,-0.236 1.697,-0.473 2.684,-0.71c0.158,-0.75 0.197,-1.657 0.079,-2.644c-0.276,-2.289 -1.302,-4.065 -2.329,-3.946c-1.026,0.118 -1.618,2.091 -1.341,4.38c0.158,1.184 0.473,2.21 0.907,2.92" style="fill:#664f44;fill-rule:nonzero;"/><path d="M56.452,2.723l-2.131,0.474l0.434,3.867l-5.643,-2.881l-2.328,0.71l0.039,0.04l6.867,7.814l0.158,-0.079c0.197,-0.119 0.434,-0.277 0.631,-0.395c0.079,-0.039 0.158,-0.079 0.237,-0.158c0.316,-0.197 0.631,-0.394 0.947,-0.552l-2.92,-3.355l4.696,2.289c0.158,-0.079 0.276,-0.158 0.434,-0.237l-0.434,-3.354l2.131,2.486l0.039,0c0.198,-0.079 0.355,-0.197 0.553,-0.276l0.158,-0.079c0.039,0 0.079,-0.039 0.079,-0.039l0.236,-0.119c0,0 0.04,0 0.04,-0.039c0.237,-0.119 0.513,-0.237 0.75,-0.355l-4.973,-5.762" style="fill:#ffd250;fill-rule:nonzero;"/><g><path d="M54.361,3.315l-0,-0.118l-0,0.118m-0,-0.118l0.315,-0.079c-0.513,-0.237 -1.144,-0.395 -1.854,-0.513c-1.421,-0.198 -3.236,-0 -5.288,0.513c-2.053,0.513 -4.381,1.42 -6.828,2.644c-4.933,2.446 -10.378,6.195 -15.667,11.01c-1.854,1.657 -3.551,3.394 -5.13,5.091l6.393,7.892c1.737,-1.894 3.591,-3.788 5.644,-5.643c2.723,-2.486 5.485,-4.696 8.208,-6.59c2.644,-1.855 5.288,-3.434 7.774,-4.696l-1.105,-5.052l0.04,-2.841l-0.04,-0.04l2.329,-0.71l4.538,2.328l-0.119,-1.578l0.79,-1.736" style="fill:#4d9ed7;fill-rule:nonzero;"/></g><g><path d="M54.361,3.197l-0.79,1.736l0.119,1.618l1.105,0.552l-0.434,-3.906Zm-1.618,5.011l4.735,2.329l-1.815,1.026l-2.92,-3.355Zm4.735,-1.302l0.434,3.354l1.697,-0.868l-2.131,-2.486Z" style="fill:#132134;fill-rule:nonzero;"/></g><path d="M75.316,5.683l0.868,-0c0.789,-0 1.539,0.118 2.249,0.276c0.04,-0 0.079,-0 0.119,0.039l0.039,0l0.079,0.04l0.079,-0c-0.079,-0.04 -0.158,-0.119 -0.237,-0.158c-0.789,-0.316 -1.618,-0.513 -2.486,-0.631c-4.262,-0.553 -9.155,1.026 -11.918,2.131c-0.158,0.079 -0.316,0.118 -0.473,0.197c-0.237,0.118 -0.474,0.197 -0.711,0.316c-0.394,0.158 -0.789,0.355 -1.223,0.552c-0.079,0.04 -0.119,0.04 -0.197,0.079c-0.237,0.118 -0.513,0.237 -0.75,0.355c-0,0 -0.04,0 -0.04,0.04l-0.236,0.118c-0.04,0 -0.079,0.04 -0.079,0.04l-0.158,-0l-0.04,0.039c-0.197,0.079 -0.355,0.158 -0.552,0.276l-0.04,0c-0.039,0.04 -0.079,0.04 -0.118,0.079l-0.04,0c-0.039,0 -0.078,0.04 -0.078,0.04c-0.277,0.158 -0.553,0.276 -0.829,0.434c-0.198,0.118 -0.395,0.197 -0.592,0.315l-0.04,0c-0.157,0.079 -0.276,0.158 -0.434,0.237c-0.473,0.237 -0.907,0.513 -1.381,0.79c-0.039,0.039 -0.079,0.039 -0.158,0.078c-0.039,0.04 -0.079,0.04 -0.118,0.079c-0.04,0.04 -0.079,0.04 -0.119,0.079l-0.039,0.04c-0.316,0.197 -0.631,0.355 -0.947,0.552c-0.079,0.04 -0.158,0.079 -0.237,0.158c-0.197,0.118 -0.434,0.276 -0.631,0.395l-0.158,0.079l-1.776,1.184c-0.987,0.67 -1.934,1.341 -2.881,2.052c-0.118,0.079 -0.237,0.197 -0.355,0.276c-2.486,1.855 -4.854,3.867 -7.143,5.919c-2.407,2.21 -4.735,4.46 -6.906,6.749c-1.184,1.183 -2.21,2.249 -2.999,3.117c-1.658,1.776 -2.565,2.881 -2.526,2.92c0,0 0.158,-0.118 0.434,-0.394c-0.197,0.237 -0.434,0.513 -0.631,0.75c3.63,-3.868 7.616,-7.814 11.918,-11.524c2.604,-2.249 5.327,-4.42 8.129,-6.432c1.224,-0.868 2.486,-1.737 3.749,-2.565c0.395,-0.277 0.829,-0.513 1.224,-0.79c0.197,-0.118 0.394,-0.236 0.631,-0.355c0.118,-0.079 0.237,-0.158 0.355,-0.197c0.237,-0.118 0.434,-0.276 0.671,-0.395c0.197,-0.118 0.434,-0.236 0.631,-0.394c0.119,-0.079 0.237,-0.119 0.356,-0.198l0.828,-0.473c0.158,-0.079 0.316,-0.197 0.474,-0.276c0.513,-0.277 1.026,-0.553 1.578,-0.829c0.04,-0.04 0.079,-0.04 0.119,-0.079l0.237,-0.118c0.118,-0.04 0.197,-0.119 0.315,-0.158c0.04,-0.04 0.079,-0.04 0.119,-0.079l0.237,-0.119c-0,0 0.039,0 0.039,-0.039l0.039,-0c0.237,-0.118 0.474,-0.237 0.671,-0.316c0.04,0 0.079,-0.039 0.119,-0.079l0.236,-0.118c0.277,-0.118 0.514,-0.237 0.79,-0.355c0.079,-0.04 0.158,-0.079 0.197,-0.119c0.04,0 0.079,-0.039 0.118,-0.039c0.079,-0.04 0.158,-0.079 0.237,-0.079c0.316,-0.118 0.592,-0.276 0.908,-0.395c0.276,-0.118 0.513,-0.236 0.789,-0.355c1.5,-0.631 2.881,-1.144 4.183,-1.578c2.447,-0.671 4.617,-1.105 6.512,-1.184" style="fill:#fff;fill-rule:nonzero;"/></svg>