<?xml version="1.0" encoding="UTF-8" standalone="no"?>
<!DOCTYPE svg PUBLIC "-//W3C//DTD SVG 1.1//EN" "http://www.w3.org/Graphics/SVG/1.1/DTD/svg11.dtd">
<svg width="100%" height="100%" viewBox="0 0 1024 1024" version="1.1" xmlns="http://www.w3.org/2000/svg" xmlns:xlink="http://www.w3.org/1999/xlink" xml:space="preserve" xmlns:serif="http://www.serif.com/" style="fill-rule:evenodd;clip-rule:evenodd;stroke-linejoin:round;stroke-miterlimit:1.41421;">
    <g id="mariadb">
        <path d="M243.594,619.101C285.575,567.488 346.089,523.27 415.415,507.319L508.911,485.679C579.95,467.218 628.548,439.811 657.78,404.683C688.255,357.014 719.625,312.024 751.119,267.401C765.938,244.979 783.297,225.005 806.901,211.048C828.534,194.933 854.934,187.438 883.697,184.61L920.082,180.743C940.953,176.255 959.535,171.97 974.471,165.676C994.322,161.296 1003.61,167.443 1006.19,180.281C1008.53,211.554 998.389,238.446 974.036,260.353L934.208,293.018C909.972,312.069 892.598,336.868 884.119,369.116C869.22,443.337 851.467,516.123 828.762,586.419L824.877,634.409C827.482,670.085 840.196,692.577 860.712,704.896C811.23,737.419 768.357,731.609 732.093,687.466C706.945,701.295 688.155,723.616 672.227,749.756C630.6,801.377 585.156,814.849 518.186,806.794C540.871,776.977 564.101,745.496 577.097,711.938L439.587,693.773L363.395,691.872C325.083,691.122 284.838,706.473 242.748,737.187C197.591,773.458 144.802,791.597 82.851,787.966C73.123,786.67 63.662,784.148 54.607,779.767C43.797,775.815 41.626,769.128 49.637,759.219C61.567,751.082 72.322,742.885 81.473,734.607C60.995,739.742 43.944,737.018 33.279,719.649C48.106,700.434 74.016,691.142 107.592,688.715L150.177,686.109C210.668,683.702 246.027,621.801 243.594,619.101ZM931.777,263.575C932.027,252.009 935.163,241.632 940.342,232.097C944.712,223.511 949.372,215.692 954.173,208.242C956.179,207.793 956.985,208.527 955.756,211.267L942.976,233.265C938.197,242.201 935.629,251.81 935.377,262.125C933.489,268.1 932.36,268.014 931.777,263.575ZM943.833,263.209C942.856,252.064 945.233,241.124 949.083,231.131C951.558,224.368 954.532,218.273 958.603,213.648C960.571,213.243 961.317,214.19 960.363,217.02C957.135,222.179 954.694,227.584 953.405,233.349C948.855,242.023 946.729,252.185 947.23,262.441C946.675,266.548 945.451,266.195 943.833,263.209ZM918.061,260.035C919.432,248.866 924.231,237.066 933.24,226.105L949.285,205.053C952.478,202.704 952.945,203.96 951.977,207.112L935.782,228.907C927.755,238.13 922.893,248.403 921.328,259.768C919.388,265.967 918.434,265.089 918.061,260.035ZM904.868,258.645C908.912,246.642 915.058,235.726 923.086,225.783C930.173,215.192 937.844,205.406 946.965,198.063C948.254,197.736 949.003,198.287 948.684,200.575L927.342,226.467C918,236.593 912.356,247.646 908.951,259.262C906.042,263.176 904.775,262.721 904.868,258.645ZM839.675,250.258C844.753,230.749 860.931,222.777 886.024,224.071L885.762,232.488C881.547,253.196 868.56,259.282 848.432,253.464L839.675,250.258Z"/>
    </g>
</svg>
