<?xml version="1.0" encoding="UTF-8" standalone="no"?>
<!DOCTYPE svg PUBLIC "-//W3C//DTD SVG 1.1//EN" "http://www.w3.org/Graphics/SVG/1.1/DTD/svg11.dtd">
<svg width="100%" height="100%" viewBox="0 0 166 166" version="1.1" xmlns="http://www.w3.org/2000/svg" xmlns:xlink="http://www.w3.org/1999/xlink" xml:space="preserve" xmlns:serif="http://www.serif.com/" style="fill-rule:evenodd;clip-rule:evenodd;stroke-linecap:round;stroke-linejoin:round;stroke-miterlimit:1.5;">
    <circle cx="83.059" cy="82.675" r="82.453" style="stroke:white;stroke-width:1px;"/>
    <path d="M12.289,113.985C21.757,114.111 30.946,112.272 39.763,107.818C40.877,106.714 40.889,105.425 40.335,104.04C34.082,93.279 31.873,81.645 33.522,69.176C34.301,52.424 40.008,38.126 50.804,26.363C71.711,38.649 84.424,54.261 87.415,73.821C87.442,75.952 88.572,76.879 90.755,76.658C111.557,73.676 130.402,76.588 146.74,87.044C143.318,102.415 134.413,114.262 119.126,122.005C108.207,127.892 96.269,130.977 82.73,129.656C80.332,129.617 78.846,130.77 78.315,133.173L66.18,157.045C38.793,151.716 21.491,136.729 12.289,113.985" style="fill:white;stroke:white;stroke-width:1px;"/>
</svg>
