<?xml version="1.0" encoding="UTF-8" standalone="no"?>
<!DOCTYPE svg PUBLIC "-//W3C//DTD SVG 1.1//EN" "http://www.w3.org/Graphics/SVG/1.1/DTD/svg11.dtd">
<svg width="100%" height="100%" viewBox="0 0 500 500" version="1.1" xmlns="http://www.w3.org/2000/svg" xmlns:xlink="http://www.w3.org/1999/xlink" xml:space="preserve" xmlns:serif="http://www.serif.com/" style="fill-rule:evenodd;clip-rule:evenodd;stroke-linejoin:round;stroke-miterlimit:2;">
    <g id="mongodb" transform="matrix(0.2,0,0,0.2,0,0)">
        <g transform="matrix(1,0,0,1,94.6947,62.3333)">
            <path d="M1209.22,2371.95L1146.17,2350.4C1146.17,2350.4 1153.87,2028.97 1038.5,2005.9C961.617,1916.68 1050.83,-1777.65 1327.67,1993.58C1327.67,1993.58 1232.3,2041.25 1215.38,2122.78C1196.92,2202.77 1209.22,2371.95 1209.22,2371.95Z" style="fill:white;"/>
        </g>
        <g transform="matrix(1,0,0,1,94.6947,62.3333)">
            <path d="M1209.22,2371.95L1146.17,2350.4C1146.17,2350.4 1153.87,2028.97 1038.5,2005.9C961.617,1916.68 1050.83,-1777.65 1327.67,1993.58C1327.67,1993.58 1232.3,2041.25 1215.38,2122.78C1196.92,2202.77 1209.22,2371.95 1209.22,2371.95Z" style="fill:rgb(166,163,133);"/>
        </g>
        <g transform="matrix(1,0,0,1,94.6947,62.3333)">
            <path d="M1243.07,2061.27C1243.07,2061.27 1795.23,1698.28 1666.02,943.1C1541.45,394.05 1247.68,214.1 1215.38,144.883C1180.02,95.667 1146.17,9.55 1146.17,9.55L1169.25,1536.78C1169.25,1538.33 1121.57,2004.35 1243.08,2061.28" style="fill:white;"/>
        </g>
        <g transform="matrix(1,0,0,1,94.6947,62.3333)">
            <path d="M1243.07,2061.27C1243.07,2061.27 1795.23,1698.28 1666.02,943.1C1541.45,394.05 1247.68,214.1 1215.38,144.883C1180.02,95.667 1146.17,9.55 1146.17,9.55L1169.25,1536.78C1169.25,1538.33 1121.57,2004.35 1243.08,2061.28" style="fill:rgb(73,157,74);"/>
        </g>
        <g transform="matrix(1,0,0,1,94.6947,62.3333)">
            <path d="M1113.88,2081.25C1113.88,2081.25 595.55,1727.5 626.317,1104.62C655.533,481.717 1021.58,175.65 1092.33,120.283C1138.48,71.067 1140.02,52.6 1143.1,3.383C1175.4,72.6 1169.25,1038.48 1173.85,1152.28C1187.68,1590.62 1149.25,1998.22 1113.88,2081.25Z" style="fill:white;"/>
        </g>
        <g transform="matrix(1,0,0,1,94.6947,62.3333)">
            <path d="M1113.88,2081.25C1113.88,2081.25 595.55,1727.5 626.317,1104.62C655.533,481.717 1021.58,175.65 1092.33,120.283C1138.48,71.067 1140.02,52.6 1143.1,3.383C1175.4,72.6 1169.25,1038.48 1173.85,1152.28C1187.68,1590.62 1149.25,1998.22 1113.88,2081.25Z" style="fill:rgb(88,170,80);"/>
        </g>
    </g>
</svg>
