<?xml version="1.0" encoding="UTF-8" standalone="no"?>
<!DOCTYPE svg PUBLIC "-//W3C//DTD SVG 1.1//EN" "http://www.w3.org/Graphics/SVG/1.1/DTD/svg11.dtd">
<svg width="100%" height="100%" viewBox="0 0 100 100" version="1.1" xmlns="http://www.w3.org/2000/svg" xmlns:xlink="http://www.w3.org/1999/xlink" xml:space="preserve" xmlns:serif="http://www.serif.com/" style="fill-rule:evenodd;clip-rule:evenodd;stroke-linejoin:round;stroke-miterlimit:1.41421;">
    <g id="monit">
        <g opacity="0.5">
            <path d="M20.08,32.548C20.449,38.82 21.689,44.308 24.286,48.574C23.746,52.911 23.629,56.995 24.144,60.703C24.906,65.788 27.685,70.651 30.527,73.013C31.989,65.639 30.782,56.65 30.608,48.656C32.314,50.073 33.965,50.469 35.586,50.297C35.043,47.98 33.795,46.325 31.808,45.364C31.25,43.742 32.01,42.806 33.672,42.34C35.841,42.802 38.036,43.819 40.277,45.832C42.986,46.996 45.398,46.922 47.572,45.86C48.007,44.248 48.822,43.196 49.829,42.426C51.406,43.597 52.278,44.706 52.552,45.76C54.785,46.59 56.846,46.547 58.764,45.78C61.13,44.031 63.686,42.75 66.374,41.788C68.988,42.25 70.082,43.49 70.137,45.262C67.778,45.665 65.815,47.165 64.201,49.629C66.089,50.183 67.915,49.995 69.679,49.064C69.094,56.933 69.113,64.849 69.494,72.794C73.039,70.713 74.63,66.698 75.878,62.344C76.253,57.007 76.302,51.849 76.067,46.845C77.312,46.246 78.26,44.33 78.622,39.81L79.441,33.718C79.709,32.715 80.256,32.099 81.139,31.95C81.854,32.059 82.275,32.507 82.402,33.296L82.688,38.456C82.625,40.439 83.124,41.719 84.575,41.808C85.773,41.313 86.223,40.245 86.135,38.767C86.924,36.294 87.118,33.945 86.54,31.754C86.561,30.606 85.503,29.459 80.601,28.322C77.895,27.668 75.236,27.488 72.643,28L70.488,27.727C66.194,24.583 62.474,22.713 59.222,21.88C56.891,21.435 54.72,21.407 52.731,21.856C51.539,22.442 50.269,22.863 48.914,23.102C47.996,22.795 47.08,22.396 46.164,21.822C43.945,21.534 41.827,21.558 39.811,21.895C36.151,23.126 32.764,25.032 29.729,27.81L27.826,29.605L25.869,27.496C24.611,26.922 23.235,26.84 21.752,27.206C20.965,27.539 20.135,28.224 19.254,29.322L16.423,29.822C15.387,30.241 14.787,30.907 14.485,31.741C13.283,33.746 13.25,36.561 13.473,39.554C13.351,41.072 14.013,41.81 15.281,41.945C16.347,41.995 16.76,40.963 16.618,39.014L16.99,32.954L18.618,32.006L20.08,32.548Z" style="fill:white;"/>
            <path d="M87.321,31.784C87.868,34.111 87.597,36.576 86.89,38.864C86.952,40.311 86.325,41.846 84.931,42.472C84.931,42.472 83.549,42.636 82.757,41.723C82.007,40.857 81.915,39.623 81.936,38.531L81.655,33.381C81.554,32.804 81.119,32.629 80.757,32.893C80.444,33.122 80.279,33.507 80.178,33.869L79.367,39.891C79.351,40.095 79.332,40.298 79.313,40.501C79.293,40.701 79.272,40.901 79.25,41.1C78.974,43.407 78.617,45.931 76.849,47.249C76.849,47.249 77.023,52.293 76.914,56.434C76.862,58.423 76.762,60.41 76.626,62.395C76.626,62.395 76.077,64.413 75.481,65.979C74.373,68.893 72.7,71.688 70.051,73.334C70.051,73.334 69.842,73.497 69.614,73.534C69.203,73.601 68.834,73.464 68.745,72.829C68.396,65.347 68.355,57.916 68.828,50.492C68.828,50.492 69.338,50.128 68.289,50.421C66.915,50.785 65.457,50.754 64.086,50.376C64.086,50.376 62.975,50.083 63.814,48.861C65.17,46.926 67.023,45.301 69.291,44.68C69.291,44.68 69.208,44.231 68.958,43.879C68.389,43.082 67.375,42.759 66.466,42.569L66.437,42.563C63.868,43.493 61.42,44.767 59.207,46.385C59.207,46.385 57.851,46.938 56.723,47.065C55.305,47.224 53.865,47.015 52.514,46.543C51.759,46.28 51.624,45.233 51.02,44.516C50.587,44.003 49.848,43.39 49.848,43.39C49.121,44.07 48.618,44.963 48.335,45.92C48.335,45.92 48.161,46.427 47.568,46.689C45.241,47.716 42.518,47.564 40.115,46.578C40.115,46.578 38.263,45.021 36.605,44.172C35.686,43.701 34.713,43.35 33.708,43.116C33.708,43.116 32.085,43.412 32.435,44.842C34.386,45.868 35.737,47.822 36.288,50.01C36.288,50.01 36.532,51.044 35.073,51.082C33.801,51.115 32.538,50.768 31.426,50.14L31.401,50.126C31.663,57.796 32.697,65.571 31.298,72.981C31.298,72.981 31.216,73.521 30.842,73.694C30.173,74.003 29.62,73.247 29.062,72.674C25.166,68.672 23.322,62.891 23.098,57.335C22.984,54.519 23.166,51.7 23.492,48.892C23.492,48.892 23.562,48.866 23.041,47.907C20.663,43.412 19.729,38.29 19.369,33.185L18.689,32.833L17.714,33.401L17.369,39.013C17.379,39.152 17.386,39.292 17.391,39.431C17.394,39.579 17.396,39.727 17.393,39.875C17.376,40.704 17.243,41.644 16.598,42.233C15.237,43.477 12.576,42.069 12.719,39.576C12.719,39.576 12.689,39.091 12.669,38.76C12.654,38.478 12.654,38.479 12.641,38.197C12.554,35.845 12.651,33.384 13.806,31.417C14.209,30.343 15.124,29.357 16.292,29.083L18.85,28.631C19.757,27.558 20.801,26.563 22.324,26.326C23.735,26.107 25.364,25.993 26.419,26.986L27.862,28.54L29.22,27.26C32.169,24.578 35.641,22.545 39.396,21.244C39.396,21.244 43.202,20.706 46.047,21.051C46.471,21.102 47.701,21.879 48.971,22.329C49.108,22.303 49.244,22.274 49.38,22.245C50.425,22.008 51.439,21.65 52.402,21.181C52.402,21.181 56.239,20.607 58.913,21.062C59.328,21.132 61.467,21.723 63.22,22.506C65.886,23.697 68.366,25.267 70.728,26.973L72.618,27.241C76.295,26.53 80.224,27.157 83.855,28.471C85.534,29.079 87.207,29.965 87.29,31.691C87.29,31.704 87.257,31.527 87.321,31.784ZM18.879,31.303L20.471,31.908C20.892,32.224 20.848,32.83 20.886,33.371C21.275,38.538 22.265,43.755 24.929,48.188C24.929,48.188 24.864,49.945 24.742,51.444C24.157,58.595 25.088,66.229 30.013,71.499L30.027,71.514C31.165,64.121 30.053,56.291 29.868,49.05C29.86,48.75 29.84,48.386 30.053,48.152C30.851,47.273 32.363,49.429 34.563,49.575C34.563,49.575 33.562,47.063 31.477,46.037C31.477,46.037 30.303,44.193 31.425,42.81C32.047,42.043 33.465,41.619 33.465,41.619C33.982,41.515 34.003,41.643 34.258,41.705C36.651,42.302 38.849,43.554 40.683,45.19C42.675,46.032 44.967,46.181 46.948,45.323C46.988,45.198 47.03,45.075 47.074,44.953C47.549,43.683 48.302,42.367 49.486,41.758C49.971,41.51 50.467,41.945 51.002,42.398C51.875,43.138 52.682,44.013 53.118,45.085C53.118,45.085 54.725,45.649 55.949,45.616C56.973,45.588 58.4,45.117 58.4,45.117C58.801,44.824 58.802,44.824 59.239,44.525C61.302,43.143 63.553,42.022 65.864,41.175C67.625,40.529 70.691,42.348 70.877,45.046C70.943,45.999 69.376,46.12 68.38,46.626C67.24,47.205 66.29,48.101 65.494,49.109L65.473,49.135C66.796,49.306 68.148,49.016 69.333,48.399C69.333,48.399 70.405,48.18 70.427,49.119C69.885,56.528 69.876,63.897 70.176,71.273L70.182,71.409C72.875,69.255 74.113,65.737 75.135,62.212C75.463,57.426 75.54,52.619 75.359,47.815L75.325,46.735C75.48,46.11 76.263,45.888 76.632,45.252C77.56,43.655 77.715,41.665 77.876,39.729L78.698,33.618C78.931,32.487 79.774,31.475 80.905,31.231C80.905,31.231 81.925,31.202 82.538,31.854C82.893,32.233 83.092,32.743 83.15,33.254L83.438,38.445C83.431,38.699 83.431,38.952 83.445,39.206C83.452,39.324 83.462,39.443 83.476,39.56C83.486,39.646 83.499,39.731 83.515,39.816C83.608,40.327 83.873,40.929 84.445,41.039C84.445,41.039 84.709,40.897 84.854,40.756C85.612,40.024 85.419,38.541 85.419,38.541C86.092,36.412 86.373,34.107 85.813,31.942C85.813,31.942 85.606,31.054 85.006,30.661C82.804,29.221 79.982,28.776 77.382,28.532C75.85,28.388 74.297,28.444 72.786,28.736L72.549,28.744L70.394,28.471C70.176,28.424 69.666,28.055 69.256,27.765C66.113,25.552 62.75,23.574 59.059,22.612C58.86,22.575 58.861,22.576 58.661,22.541C56.623,22.205 54.403,21.925 52.588,22.752C51.155,23.389 49.317,24.037 48.496,23.752C47.607,23.443 46.754,23.051 45.948,22.569L45.909,22.546C44.049,22.312 42.157,22.314 40.299,22.578C40.299,22.578 38.761,23.042 37.587,23.56C34.901,24.747 32.414,26.383 30.239,28.361L28.341,30.15C27.836,30.54 27.696,30.486 27.276,30.115L25.426,28.121C24.344,27.671 23.115,27.637 21.991,27.92C21.33,28.087 20.493,28.984 19.837,29.794C19.837,29.794 19.803,29.947 19.385,30.06L16.635,30.546C15.781,30.903 15.132,32.121 15.132,32.121C13.892,34.233 14.036,36.935 14.221,39.5C14.221,39.5 13.913,40.949 15.181,41.174C15.788,41.281 15.933,40.041 15.87,39.062L16.242,32.908C16.242,32.908 16.321,32.517 16.613,32.306L18.241,31.358C18.438,31.266 18.654,31.242 18.879,31.303Z" style="fill-rule:nonzero;"/>
            <path d="M31.093,77.735C33.421,79.22 42.623,78.661 44.141,77.689C45.576,78.021 46.685,78.552 47.517,79.252C49.384,80.023 51.281,80.033 53.205,79.318C53.991,78.383 55.008,77.717 56.306,77.374C60.832,78.367 65.246,78.957 69.022,77.246L68.82,70.113C67.827,65.174 66.65,60.494 64.087,56.367C62.49,52.363 59.395,49.715 54.78,48.627L49.724,47.713L43.97,48.238C39.407,49.845 36.847,53.14 35.18,57.186C33.129,60.816 31.685,65.222 31.107,70.011L31.093,77.735ZM39.568,78.314C41.359,73.76 43.587,69.555 46.491,65.89L53.45,65.921C56.673,69.459 58.83,73.585 60.521,77.969C61.169,77 61.387,75.815 61.225,74.44C60.471,70.823 58.572,67.321 55.813,63.905C54.28,63.103 52.774,62.687 51.292,62.638L51.223,56.312C51.37,55.763 51.633,55.733 51.991,56.131L52.231,56.96L56.073,56.831C54.865,56.009 54.223,54.654 53.838,53.058C52.958,52.488 51.975,52.08 50.814,51.947L49.031,51.876C47.819,52.029 46.81,52.405 46.084,53.091C45.792,54.549 45.298,55.907 43.937,56.844L47.989,56.894L48.093,55.967C48.445,55.678 48.749,55.68 48.96,56.255L48.944,62.478C47.174,62.621 45.676,63.121 44.437,63.962C41.85,67.018 39.984,70.652 38.752,74.795C38.696,76.443 39.032,77.522 39.568,78.314Z" style="fill:white;"/>
            <path d="M49.858,46.975L54.935,47.893C55.167,47.949 55.167,47.949 55.399,48.008C59.569,49.13 63.149,52.071 64.758,56.027C64.864,56.199 64.864,56.199 64.968,56.372C67.393,60.489 68.599,65.246 69.555,69.965L69.569,70.092L69.772,77.225C69.75,77.812 69.516,77.859 68.952,78.094C65.131,79.646 60.74,79.077 56.574,78.199L56.33,78.147C55.341,78.437 54.449,79.018 53.774,79.806C53.774,79.806 51.572,80.766 49.549,80.546C48.569,80.439 47.234,79.947 47.234,79.947C46.941,79.81 46.945,79.751 46.823,79.658C45.913,78.982 44.459,78.403 44.034,78.568C40.392,79.907 36.006,79.906 32.169,78.95C31.796,78.858 31.427,78.742 31.079,78.58C30.714,78.409 30.37,78.169 30.343,77.734L30.362,69.919C30.924,65.381 32.239,60.962 34.428,56.993C34.428,56.993 35.592,54.083 37.396,51.907C39.029,49.938 41.202,48.448 43.609,47.571C43.609,47.571 43.692,47.524 43.902,47.491L49.757,46.963C49.791,46.967 49.824,46.971 49.858,46.975ZM46.814,66.694C44.276,69.993 42.289,73.691 40.689,77.54L40.62,77.707C41.729,77.586 42.885,77.506 43.835,77.004C43.835,77.004 46.306,77.325 47.904,78.6C49.416,79.194 51.113,79.226 52.695,78.703C52.695,78.703 54.671,76.364 56.465,76.641C57.431,76.85 58.4,77.046 59.376,77.208L59.415,77.214C57.853,73.4 55.849,69.741 53.114,66.669L46.855,66.642C46.841,66.659 46.827,66.677 46.814,66.694ZM44.132,48.977C40.313,50.337 37.463,53.657 35.872,57.475C35.872,57.475 34.977,59.101 34.369,60.53C33.101,63.505 32.295,66.669 31.879,69.881L31.857,70.058L31.844,77.277C33.846,78.089 36.202,77.964 38.476,77.863C37.26,75.042 38.908,71.377 40.698,68.106C41.596,66.465 42.657,64.914 43.863,63.48C43.863,63.48 44.95,62.739 45.805,62.408C46.572,62.111 47.376,61.922 48.191,61.805C48.191,61.805 48.178,57.62 48.178,57.62C48.079,57.638 48.08,57.638 47.979,57.644L43.928,57.594C43.14,57.529 43.051,56.672 43.907,55.915C44.743,55.152 45.125,54.033 45.349,52.94C45.349,52.94 45.697,52.38 46.189,52.057C47.009,51.519 47.969,51.261 48.932,51.133L50.875,51.199C52.48,51.396 54.319,52.097 54.566,52.877C54.877,54.134 55.393,55.448 56.5,56.215C56.5,56.215 56.777,56.432 56.816,56.733C56.871,57.15 56.535,57.535 56.098,57.581L52.256,57.71C52.201,57.708 52.171,57.724 51.988,57.668L52.035,61.939C53.188,62.057 55.333,62.285 56.397,63.436C58.982,66.652 61.103,70.277 61.958,74.284C61.958,74.284 62.164,76.1 61.622,77.484L61.617,77.495C63.848,77.685 66.134,77.577 68.214,76.773L68.072,70.199C67.133,65.561 65.964,60.854 63.448,56.76C63.448,56.76 62.087,53.543 59.807,51.755C58.302,50.574 56.496,49.814 54.625,49.361L49.691,48.469C47.838,48.638 45.985,48.807 44.132,48.977ZM51.659,55.116C52.413,55.21 52.789,56.191 52.789,56.191L54.331,56.139C53.78,55.364 53.441,54.467 53.188,53.548C53.188,53.548 52.081,52.878 50.826,52.704L49.065,52.628C48.276,52.733 47.472,52.961 46.826,53.444C46.826,53.444 46.531,54.908 45.717,56.11C45.717,56.11 47.319,56.135 47.319,56.135C47.319,56.135 47.353,55.555 47.77,55.272C48.48,54.792 49.645,55.153 49.71,56.256L49.694,62.48C49.663,62.924 49.735,63.149 48.696,63.255C47.376,63.406 46.08,63.797 44.964,64.513L44.942,64.527C42.435,67.51 40.676,71.072 39.528,74.819C39.528,74.819 39.488,75.691 39.584,76.298C41.217,72.488 43.228,68.858 45.765,65.6C45.765,65.6 45.953,65.173 46.494,65.14L53.453,65.171C53.87,65.201 54.184,65.613 54.462,65.93C56.994,68.864 58.939,72.273 60.468,75.842C60.468,75.842 60.548,74.818 60.381,74.106C59.519,70.567 57.612,67.372 55.356,64.534L55.328,64.499C54.06,63.864 52.68,63.445 51.262,63.387C51.262,63.387 50.593,63.281 50.542,62.646L50.473,56.32C50.524,54.944 51.461,55.101 51.659,55.116Z" style="fill-rule:nonzero;"/>
        </g>
    </g>
</svg>
