<?xml version="1.0" encoding="UTF-8" standalone="no"?>
<!DOCTYPE svg PUBLIC "-//W3C//DTD SVG 1.1//EN" "http://www.w3.org/Graphics/SVG/1.1/DTD/svg11.dtd">
<svg width="100%" height="100%" viewBox="0 0 100 100" version="1.1" xmlns="http://www.w3.org/2000/svg" xmlns:xlink="http://www.w3.org/1999/xlink" xml:space="preserve" xmlns:serif="http://www.serif.com/" style="fill-rule:evenodd;clip-rule:evenodd;stroke-linejoin:round;stroke-miterlimit:1.41421;">
    <g id="monyog">
        <path d="M43.983,64.032C41.049,65.856 37.588,66.91 33.882,66.91C23.3,66.91 14.71,58.319 14.71,47.738C14.71,37.157 23.3,28.566 33.882,28.566C40.976,28.566 47.175,32.427 50.491,38.161C53.806,32.427 60.006,28.566 67.1,28.566C77.681,28.566 86.272,37.157 86.272,47.738C86.272,58.319 77.681,66.91 67.1,66.91C63.378,66.91 59.902,65.847 56.959,64.008L50.509,71.611L43.983,64.032ZM33.882,33.706C41.626,33.706 47.913,39.994 47.913,47.738C47.913,55.482 41.626,61.77 33.882,61.77C26.137,61.77 19.85,55.482 19.85,47.738C19.85,39.994 26.137,33.706 33.882,33.706ZM67.1,33.706C74.844,33.706 81.132,39.994 81.132,47.738C81.132,55.482 74.844,61.77 67.1,61.77C59.356,61.77 53.068,55.482 53.068,47.738C53.068,39.994 59.356,33.706 67.1,33.706Z" style="fill:rgb(31,226,232);"/>
        <g transform="matrix(1,0,0,1,-1.1257,-1.95211)">
            <circle cx="35.071" cy="49.879" r="10.102" style="fill:rgb(31,226,232);"/>
        </g>
        <g transform="matrix(1,0,0,1,32.3818,-2.1355)">
            <circle cx="35.071" cy="49.879" r="10.102" style="fill:rgb(31,226,232);"/>
        </g>
    </g>
</svg>
