<?xml version="1.0" encoding="UTF-8" standalone="no"?>
<!DOCTYPE svg PUBLIC "-//W3C//DTD SVG 1.1//EN" "http://www.w3.org/Graphics/SVG/1.1/DTD/svg11.dtd">
<svg width="100%" height="100%" viewBox="0 0 1024 1024" version="1.1" xmlns="http://www.w3.org/2000/svg" xmlns:xlink="http://www.w3.org/1999/xlink" xml:space="preserve" xmlns:serif="http://www.serif.com/" style="fill-rule:evenodd;clip-rule:evenodd;stroke-linejoin:round;stroke-miterlimit:1.41421;">
    <g id="mysql">
        <path d="M97.473,157.753C97.473,157.753 62.468,109.781 56.001,78.836C53.89,62.676 61.292,54.897 78.208,55.499C109.356,58.329 148.471,78.168 190.193,103.575C218.168,116.465 240.553,123.229 258.025,124.607C294.999,127.246 335.68,141.51 379.791,166.529C475.28,219.491 553.239,292.859 610.886,389.874L739.221,650.758C760.532,687.959 787.007,708.561 818.644,712.565C886.405,737.232 946.429,773.009 998.498,820.208C1004.52,826.474 1004.78,831.576 997.566,835.172C981.179,845.398 936.306,846.091 892.581,847.169C881.096,849.86 870.4,854.277 860.334,860.074C844.417,866.517 842.207,876.482 849.839,888.979C896.229,941.924 955.172,985.626 1024.53,1021.66L906.289,1024.33C791.717,984.123 677.828,940.678 564.768,893.297C502.629,868.74 457.096,832.451 427.832,784.671C394.083,732.448 364.138,678.621 333.843,624.94C320.185,608.922 310.547,607.064 305.024,619.702L273.819,736.126C264.78,748.718 256.158,747.251 247.856,734.935C205.075,674.352 197.259,589.73 220.309,483.887L231.21,447.757L219.669,406.326L184.714,342.772L97.473,157.753ZM253.193,219.112C253.655,208.286 259.337,205.752 269.344,210.086C283.875,220.634 291.229,232.711 288.833,246.864C287.798,255.395 284.103,259.025 276.519,255.491C260.505,246.626 250.529,220.525 253.193,219.112Z"/>
    </g>
</svg>
