<?xml version="1.0" encoding="UTF-8" standalone="no"?>
<!DOCTYPE svg PUBLIC "-//W3C//DTD SVG 1.1//EN" "http://www.w3.org/Graphics/SVG/1.1/DTD/svg11.dtd">
<svg width="100%" height="100%" viewBox="0 0 250 250" version="1.1" xmlns="http://www.w3.org/2000/svg" xmlns:xlink="http://www.w3.org/1999/xlink" xml:space="preserve" xmlns:serif="http://www.serif.com/" style="fill-rule:evenodd;clip-rule:evenodd;stroke-linecap:round;stroke-linejoin:round;stroke-miterlimit:1.5;">
    <g transform="matrix(1,0,0,1,-216.457,-138.315)">
        <path d="M328.457,265.283C305.8,263.06 286.661,264.378 272.135,270.34C275.361,274.533 279.606,277.433 285.759,277.847C291.185,278.81 296.575,278.562 301.799,277.644C314.133,275.076 322.894,270.899 328.457,265.283Z" style="fill:rgb(0,152,178);stroke:rgb(0,152,178);stroke-width:1px;"/>
    </g>
    <g transform="matrix(1,0,0,1,-216.906,-138.397)">
        <path d="M286.229,376.412C288.953,365.131 294.112,354.033 300.8,343.048C309.393,331.418 320.51,322.425 333.994,315.904C347.284,308.999 358.828,300.17 367.296,287.948C369.795,284.959 369.733,281.288 367.341,276.994C363.122,273.017 357.299,270.942 350.147,270.442C331.116,271.14 316.286,279.508 304.432,293.309C295.34,305.146 289.478,319.114 285.846,335.117C284.81,348.64 284.439,362.347 286.229,376.412" style="fill:rgb(0,51,111);stroke:rgb(0,46,108);stroke-width:1px;"/>
    </g>
    <g transform="matrix(1,0,0,1,-216.457,-138.315)">
        <path d="M389.563,291.545C399.082,278.247 404.783,265.187 406.966,252.348C408.374,247.145 412.264,242.264 419.343,237.796C424.659,234.61 430.696,232.215 437.721,230.902L453.433,227.024C436.501,227.975 425.034,226.078 418.904,221.398L409.007,215.45C391.481,205.836 379.59,210.356 370.434,221.739C381.788,214.423 393.063,211.03 404.124,218.333L412.474,225.461C413.307,226.052 413.429,226.641 412.906,227.229L393.228,234.746C389.025,236.731 386.436,240.044 384.551,243.935C382.953,247.433 382.686,250.92 384.083,254.394L388.835,265.537C391.304,274.228 391.896,282.9 389.563,291.545Z" style="fill:rgb(0,150,176);stroke:rgb(0,150,176);stroke-width:1px;"/>
    </g>
    <g transform="matrix(1,0,0,1,-216.457,-138.315)">
        <path d="M339.822,237.691C324.773,200.768 300.403,172.74 267.139,153.199L262.424,151.039C259.751,150.158 257.054,150.051 254.329,150.794C248.986,153.581 244.41,157.924 240.127,162.866C238.434,165.484 237.996,168.103 238.701,170.721C240.858,175.19 243.693,178.794 247.003,181.793C252.119,187.842 258.5,192.583 266.311,196.336L339.822,237.691Z" style="fill:rgb(152,193,115);stroke:rgb(152,193,115);stroke-width:1px;"/>
    </g>
    <g transform="matrix(1,0,0,1,-216.457,-138.315)">
        <path d="M322.259,244.558C297.926,217.485 267.763,198.808 229.481,191.823L229.589,201.824C231.656,215.431 239.766,221.355 249.244,225.541L321.388,247.686C321.954,246.876 322.281,245.864 322.259,244.558Z" style="fill:rgb(97,185,142);stroke:rgb(97,185,142);stroke-width:1px;"/>
    </g>
    <g transform="matrix(1,0,0,1,-216.457,-138.315)">
        <path d="M321.753,257.275C297.908,242.948 272.745,235.159 244.58,242.248C246.506,251.309 252.749,255.914 260.648,258.809C280.873,259.31 301.241,258.8 321.753,257.275Z" style="fill:rgb(31,176,176);stroke:rgb(31,176,176);stroke-width:1px;"/>
    </g>
</svg>
