<?xml version="1.0" encoding="UTF-8" standalone="no"?>
<!DOCTYPE svg PUBLIC "-//W3C//DTD SVG 1.1//EN" "http://www.w3.org/Graphics/SVG/1.1/DTD/svg11.dtd">
<svg width="100%" height="100%" viewBox="0 0 312 312" version="1.1" xmlns="http://www.w3.org/2000/svg" xmlns:xlink="http://www.w3.org/1999/xlink" xml:space="preserve" xmlns:serif="http://www.serif.com/" style="fill-rule:evenodd;clip-rule:evenodd;stroke-linejoin:round;stroke-miterlimit:1.41421;">
    <g id="netezza" transform="matrix(0.1,0,0,-0.1,0,355.298)">
        <path d="M1324.41,3498.86C715.69,3403.35 227.951,2932.16 101.878,2320.9C62.4,2132.42 70.041,1838.25 118.433,1654.87C156.637,1513.52 249.6,1307.22 331.102,1186.24C539.951,879.331 893.976,645.012 1263.28,571.151C1854.17,451.445 2461.62,701.045 2796.54,1201.52C2969.73,1461.31 3043.59,1705.81 3043.59,2022.91C3043.59,2219.02 3020.67,2362.92 2965.91,2519.56C2727.77,3199.59 2038.82,3610.92 1324.41,3498.86ZM1762.48,3344.77C2339.36,3251.8 2786.35,2806.09 2878.04,2227.93C2900.96,2090.4 2888.23,1834.43 2852.57,1703.27C2751.97,1330.14 2507.46,1021.96 2177.63,851.314C1787.95,650.106 1368.98,645.012 974.204,837.306C622.727,1009.22 376.947,1309.76 271.249,1696.9C240.686,1803.87 236.865,1842.07 236.865,2028C236.865,2217.75 239.412,2249.58 271.249,2362.92C455.902,3031.49 1093.91,3451.74 1762.48,3344.77Z" style="fill:rgb(189,198,0);fill-rule:nonzero;"/>
        <path d="M891.429,2021.63L891.429,1263.92L1111.74,1266.46L1330.78,1270.29L1334.6,1677.8L1337.14,2084.03L1565.09,1677.8L1793.05,1270.29L2247.67,1270.29L2251.49,2025.45L2254.04,2779.35L2031.18,2779.35L1808.33,2779.35L1805.78,2382.02L1801.96,1983.43L1585.47,2382.02L1368.98,2779.35L1130.84,2779.35L891.429,2779.35L891.429,2021.63Z" style="fill:rgb(23,113,124);fill-rule:nonzero;"/>
    </g>
</svg>
