<?xml version="1.0" encoding="UTF-8" standalone="no"?>
<!DOCTYPE svg PUBLIC "-//W3C//DTD SVG 1.1//EN" "http://www.w3.org/Graphics/SVG/1.1/DTD/svg11.dtd">
<svg width="100%" height="100%" viewBox="0 0 360 360" version="1.1" xmlns="http://www.w3.org/2000/svg" xmlns:xlink="http://www.w3.org/1999/xlink" xml:space="preserve" xmlns:serif="http://www.serif.com/" style="fill-rule:evenodd;clip-rule:evenodd;stroke-linejoin:round;stroke-miterlimit:1.41421;">
    <g id="nginx">
        <path id="Shape" d="M326.255,83.2L190.695,4.93C184.071,1.12 175.919,1.12 169.295,4.93L33.735,83.2C27.128,87.034 23.056,94.091 23.045,101.73L23.045,258.28C23.056,265.922 27.132,272.98 33.745,276.81L169.305,355.07C175.929,358.88 184.081,358.88 190.705,355.07L326.265,276.81C332.874,272.978 336.946,265.92 336.955,258.28L336.955,101.73C336.944,94.088 332.868,87.03 326.255,83.2ZM101.198,242.539L100.761,119.359C103.142,107.031 111.995,103.226 121.294,102.159C130.982,101.046 139.331,104.994 145.38,113.15L223.585,207.113L223.547,116.652C226.046,106.639 234.067,102.22 240.876,102.214C247.632,102.207 255.731,106.408 258.529,117.088L258.81,241.855C255.952,252.879 247.984,257.755 235.363,257.033C227.44,256.722 220.484,253.158 214.542,246.184L136.507,153.211L136.125,242.8C133.72,253.509 124.3,257.981 118.148,258.045C112.186,258.107 104.77,253.634 101.198,242.539Z" style="fill:rgb(0,150,57);fill-rule:nonzero;"/>
    </g>
</svg>
