<?xml version="1.0" encoding="UTF-8" standalone="no"?>
<!DOCTYPE svg PUBLIC "-//W3C//DTD SVG 1.1//EN" "http://www.w3.org/Graphics/SVG/1.1/DTD/svg11.dtd">
<svg width="100%" height="100%" viewBox="0 0 290 290" version="1.1" xmlns="http://www.w3.org/2000/svg" xmlns:xlink="http://www.w3.org/1999/xlink" xml:space="preserve" xmlns:serif="http://www.serif.com/" style="fill-rule:evenodd;clip-rule:evenodd;stroke-linejoin:round;stroke-miterlimit:1.41421;">
    <g id="nodejs" transform="matrix(1,0,0,1,17.0001,4.0266)">
        <path d="M116.504,3.58C123.466,-0.405 132.534,-0.423 139.49,3.58C174.485,23.354 209.491,43.097 244.48,62.883C251.061,66.59 255.463,73.914 255.396,81.497L255.396,200.465C255.445,208.362 250.608,215.861 243.665,219.484C208.785,239.149 173.923,258.838 139.049,278.503C131.943,282.566 122.693,282.252 115.81,277.857C105.352,271.795 94.877,265.763 84.42,259.707C82.282,258.433 79.873,257.419 78.364,255.348C79.698,253.549 82.083,253.325 84.021,252.54C88.386,251.152 92.395,248.924 96.405,246.762C97.419,246.068 98.657,246.334 99.629,246.955C108.571,252.082 117.434,257.358 126.406,262.436C128.32,263.541 130.258,262.074 131.894,261.162C166.122,241.817 200.392,222.545 234.614,203.194C235.882,202.584 236.583,201.238 236.48,199.849C236.504,160.604 236.486,121.352 236.492,82.107C236.637,80.531 235.725,79.082 234.3,78.436C199.541,58.862 164.8,39.257 130.047,19.677C128.803,18.832 127.197,18.826 125.953,19.671C91.2,39.257 56.465,58.88 21.712,78.454C20.293,79.1 19.339,80.525 19.508,82.107C19.514,121.352 19.508,160.604 19.508,199.855C19.387,201.244 20.136,202.56 21.398,203.158C30.672,208.417 39.958,213.639 49.238,218.88C54.466,221.694 60.885,223.366 66.645,221.211C71.728,219.387 75.291,214.201 75.194,208.803C75.242,169.787 75.17,130.765 75.23,91.755C75.103,90.023 76.746,88.592 78.43,88.755C82.886,88.725 87.348,88.694 91.804,88.767C93.663,88.725 94.943,90.59 94.714,92.335C94.696,131.598 94.762,170.862 94.684,210.125C94.696,220.589 90.397,231.976 80.718,237.096C68.794,243.272 54.056,241.962 42.276,236.039C32.078,230.949 22.346,224.942 12.329,219.49C5.368,215.885 0.555,208.356 0.604,200.465L0.604,81.497C0.531,73.757 5.108,66.3 11.894,62.648C46.768,42.965 81.636,23.269 116.504,3.58L116.504,3.58Z" style="fill:rgb(140,200,75);fill-rule:nonzero;"/>
        <path d="M146.928,85.989C162.137,85.011 178.421,85.41 192.109,92.903C202.705,98.645 208.58,110.696 208.767,122.469C208.471,124.057 206.811,124.933 205.295,124.824C200.881,124.818 196.468,124.885 192.054,124.794C190.183,124.866 189.096,123.14 188.86,121.485C187.592,115.852 184.519,110.273 179.218,107.556C171.079,103.481 161.642,103.686 152.767,103.771C146.288,104.115 139.321,104.676 133.832,108.486C129.618,111.372 128.338,117.199 129.841,121.89C131.26,125.259 135.149,126.346 138.331,127.348C156.661,132.142 176.084,131.665 194.065,137.974C201.509,140.546 208.791,145.546 211.339,153.34C214.672,163.786 213.211,176.272 205.778,184.658C199.752,191.559 190.974,195.315 182.219,197.356C170.572,199.952 158.484,200.018 146.657,198.865C135.535,197.597 123.961,194.675 115.375,187.097C108.033,180.722 104.447,170.789 104.803,161.202C104.888,159.583 106.5,158.454 108.051,158.587C112.495,158.551 116.939,158.539 121.383,158.593C123.158,158.466 124.474,160 124.564,161.672C125.386,167.04 127.402,172.673 132.081,175.855C141.114,181.682 152.447,181.283 162.789,181.446C171.357,181.066 180.975,180.951 187.967,175.288C191.656,172.057 192.749,166.654 191.752,162.005C190.672,158.08 186.566,156.251 183.04,155.055C164.945,149.331 145.304,151.408 127.384,144.936C120.109,142.364 113.075,137.503 110.279,130.029C106.379,119.451 108.166,106.367 116.377,98.264C124.383,90.204 135.94,87.1 146.928,85.989L146.928,85.989Z" style="fill:rgb(140,200,75);fill-rule:nonzero;"/>
    </g>
</svg>
