<?xml version="1.0" encoding="UTF-8" standalone="no"?>
<!DOCTYPE svg PUBLIC "-//W3C//DTD SVG 1.1//EN" "http://www.w3.org/Graphics/SVG/1.1/DTD/svg11.dtd">
<svg width="100%" height="100%" viewBox="0 0 250 207" version="1.1" xmlns="http://www.w3.org/2000/svg" xmlns:xlink="http://www.w3.org/1999/xlink" xml:space="preserve" xmlns:serif="http://www.serif.com/" style="fill-rule:evenodd;clip-rule:evenodd;stroke-linejoin:round;stroke-miterlimit:1.41421;">
    <g id="notfound">
        <path d="M161.574,20.296L178.869,37.421L178.869,141.548L178.878,141.548L178.869,141.558L178.869,141.59L178.839,141.59L168.878,152.48L158.917,141.59L157.123,141.59L147.159,152.483L137.194,141.59L135.403,141.59L125.439,152.483L115.475,141.59L113.684,141.59L103.72,152.483L93.755,141.59L91.964,141.59L82,152.483L72.036,141.59L72,141.59L72,20.296L161.574,20.296Z" style="fill:rgb(166,37,0);"/>
        <g transform="matrix(1.00025,0,0,1.0075,0.105417,0.126855)">
            <path d="M161.368,19.974L178.785,37.067L161.368,37.067L161.368,19.974Z"/>
        </g>
        <g transform="matrix(0.00156639,-1.59095,1.30637,0.00128621,1.47649,260.874)">
            <path d="M108.874,94.486C108.874,96.872 108.557,99.089 107.923,101.139C107.289,103.188 106.326,105.275 105.036,107.401C104.309,108.593 103.735,109.342 103.312,109.645C102.889,109.949 102.314,110.101 101.588,110.101C101.046,110.101 100.775,109.954 100.775,109.661C100.775,109.564 100.162,108.46 100.617,107.511C101.073,106.562 102.034,105.918 102.881,104.701C103.647,103.599 104.601,102.364 105.071,100.617C105.522,98.94 106.099,96.483 106.026,94.451C105.954,92.489 105.637,90.348 105.086,88.641C104.544,86.964 103.567,85.409 102.873,84.256C102.211,83.158 101.564,82.401 100.995,81.505C100.383,80.54 100.621,79.377 100.775,79.295C100.775,79.002 101.046,78.856 101.588,78.856C102.347,78.856 102.932,78.999 103.344,79.287C103.756,79.574 104.32,80.32 105.036,81.523C105.676,82.586 106.234,83.632 106.711,84.662C107.188,85.692 107.587,86.723 107.907,87.753C108.227,88.783 108.468,89.856 108.63,90.973C108.793,92.09 108.874,93.261 108.874,94.486Z" style="fill:white;fill-rule:nonzero;"/>
        </g>
        <g transform="matrix(1.3,0,0,1,-29.6366,0)">
            <path d="M100.265,67.859L104.835,61.186L100.99,55.25C100.628,54.674 100.356,54.18 100.175,53.766C99.994,53.353 99.903,52.956 99.903,52.575C99.903,52.185 100.077,51.834 100.426,51.523C100.774,51.212 101.199,51.056 101.701,51.056C102.276,51.056 102.725,51.226 103.045,51.565C103.366,51.904 103.809,52.533 104.376,53.453L107.441,58.413L110.715,53.453C110.984,53.035 111.214,52.677 111.405,52.38C111.595,52.083 111.779,51.837 111.955,51.642C112.132,51.446 112.329,51.3 112.547,51.203C112.766,51.105 113.019,51.056 113.307,51.056C113.827,51.056 114.252,51.212 114.581,51.523C114.911,51.834 115.076,52.203 115.076,52.631C115.076,53.253 114.718,54.098 114.003,55.167L109.977,61.186L114.31,67.859C114.7,68.445 114.983,68.93 115.16,69.315C115.336,69.701 115.424,70.065 115.424,70.409C115.424,70.734 115.345,71.031 115.188,71.301C115.03,71.57 114.807,71.784 114.519,71.942C114.231,72.1 113.906,72.179 113.543,72.179C113.153,72.179 112.824,72.097 112.554,71.935C112.285,71.772 112.067,71.57 111.899,71.329C111.732,71.087 111.421,70.618 110.966,69.921L107.371,64.265L103.554,70.089C103.256,70.553 103.045,70.878 102.92,71.064C102.794,71.25 102.643,71.431 102.467,71.607C102.29,71.784 102.081,71.923 101.84,72.025C101.598,72.127 101.315,72.179 100.99,72.179C100.488,72.179 100.073,72.025 99.743,71.719C99.413,71.412 99.248,70.966 99.248,70.381C99.248,69.694 99.587,68.853 100.265,67.859Z" style="fill:white;fill-rule:nonzero;"/>
        </g>
        <g transform="matrix(1.3,0,0,1,0.363421,0)">
            <path d="M100.265,67.859L104.835,61.186L100.99,55.25C100.628,54.674 100.356,54.18 100.175,53.766C99.994,53.353 99.903,52.956 99.903,52.575C99.903,52.185 100.077,51.834 100.426,51.523C100.774,51.212 101.199,51.056 101.701,51.056C102.276,51.056 102.725,51.226 103.045,51.565C103.366,51.904 103.809,52.533 104.376,53.453L107.441,58.413L110.715,53.453C110.984,53.035 111.214,52.677 111.405,52.38C111.595,52.083 111.779,51.837 111.955,51.642C112.132,51.446 112.329,51.3 112.547,51.203C112.766,51.105 113.019,51.056 113.307,51.056C113.827,51.056 114.252,51.212 114.581,51.523C114.911,51.834 115.076,52.203 115.076,52.631C115.076,53.253 114.718,54.098 114.003,55.167L109.977,61.186L114.31,67.859C114.7,68.445 114.983,68.93 115.16,69.315C115.336,69.701 115.424,70.065 115.424,70.409C115.424,70.734 115.345,71.031 115.188,71.301C115.03,71.57 114.807,71.784 114.519,71.942C114.231,72.1 113.906,72.179 113.543,72.179C113.153,72.179 112.824,72.097 112.554,71.935C112.285,71.772 112.067,71.57 111.899,71.329C111.732,71.087 111.421,70.618 110.966,69.921L107.371,64.265L103.554,70.089C103.256,70.553 103.045,70.878 102.92,71.064C102.794,71.25 102.643,71.431 102.467,71.607C102.29,71.784 102.081,71.923 101.84,72.025C101.598,72.127 101.315,72.179 100.99,72.179C100.488,72.179 100.073,72.025 99.743,71.719C99.413,71.412 99.248,70.966 99.248,70.381C99.248,69.694 99.587,68.853 100.265,67.859Z" style="fill:white;fill-rule:nonzero;"/>
        </g>
        <g transform="matrix(1.09,0,0,1,-4.33943,0)">
            <path d="M57.24,176.592C57.24,177.22 57.078,177.784 56.755,178.285C56.431,178.785 55.958,179.177 55.335,179.461C54.711,179.744 53.972,179.886 53.118,179.886C52.093,179.886 51.248,179.692 50.582,179.305C50.11,179.026 49.726,178.654 49.431,178.189C49.136,177.724 48.988,177.272 48.988,176.833C48.988,176.578 49.077,176.359 49.254,176.177C49.431,175.996 49.656,175.905 49.93,175.905C50.152,175.905 50.34,175.976 50.493,176.117C50.647,176.259 50.778,176.469 50.886,176.748C51.019,177.078 51.161,177.354 51.315,177.576C51.468,177.798 51.684,177.981 51.963,178.125C52.242,178.269 52.608,178.341 53.061,178.341C53.684,178.341 54.191,178.196 54.58,177.906C54.97,177.615 55.165,177.253 55.165,176.819C55.165,176.474 55.06,176.194 54.849,175.979C54.639,175.764 54.368,175.6 54.035,175.487C53.702,175.373 53.257,175.253 52.7,175.126C51.954,174.951 51.329,174.747 50.826,174.513C50.323,174.279 49.924,173.96 49.629,173.557C49.334,173.153 49.186,172.651 49.186,172.051C49.186,171.48 49.342,170.972 49.654,170.528C49.965,170.085 50.416,169.743 51.007,169.505C51.597,169.266 52.291,169.147 53.089,169.147C53.727,169.147 54.278,169.226 54.743,169.384C55.208,169.543 55.594,169.753 55.901,170.015C56.208,170.277 56.433,170.552 56.574,170.84C56.716,171.128 56.787,171.409 56.787,171.683C56.787,171.933 56.698,172.159 56.521,172.36C56.344,172.56 56.123,172.661 55.859,172.661C55.618,172.661 55.435,172.6 55.31,172.48C55.185,172.36 55.049,172.162 54.903,171.888C54.714,171.497 54.487,171.191 54.223,170.971C53.958,170.752 53.533,170.642 52.948,170.642C52.405,170.642 51.967,170.761 51.634,171C51.301,171.238 51.134,171.525 51.134,171.86C51.134,172.068 51.191,172.247 51.304,172.398C51.418,172.55 51.573,172.679 51.772,172.788C51.97,172.897 52.171,172.982 52.374,173.043C52.577,173.104 52.912,173.194 53.38,173.312C53.965,173.449 54.495,173.6 54.97,173.766C55.444,173.931 55.848,174.132 56.181,174.368C56.514,174.604 56.774,174.902 56.96,175.264C57.147,175.625 57.24,176.068 57.24,176.592Z" style="fill-rule:nonzero;"/>
            <path d="M66.13,175.954C66.13,176.53 66.04,177.062 65.861,177.548C65.681,178.034 65.421,178.452 65.081,178.802C64.741,179.151 64.335,179.419 63.863,179.606C63.391,179.792 62.86,179.886 62.269,179.886C61.684,179.886 61.157,179.791 60.69,179.602C60.222,179.413 59.817,179.143 59.475,178.791C59.133,178.439 58.873,178.024 58.696,177.545C58.519,177.065 58.43,176.535 58.43,175.954C58.43,175.369 58.52,174.833 58.699,174.346C58.879,173.86 59.136,173.444 59.471,173.1C59.807,172.755 60.213,172.489 60.69,172.303C61.167,172.116 61.693,172.023 62.269,172.023C62.855,172.023 63.386,172.117 63.863,172.306C64.34,172.495 64.748,172.764 65.089,173.114C65.429,173.463 65.687,173.879 65.864,174.361C66.041,174.842 66.13,175.373 66.13,175.954ZM64.189,175.954C64.189,175.166 64.015,174.552 63.668,174.113C63.321,173.673 62.855,173.454 62.269,173.454C61.892,173.454 61.559,173.552 61.271,173.748C60.983,173.944 60.761,174.233 60.605,174.616C60.449,174.998 60.371,175.444 60.371,175.954C60.371,176.46 60.448,176.901 60.601,177.279C60.755,177.657 60.974,177.946 61.26,178.147C61.546,178.347 61.882,178.448 62.269,178.448C62.855,178.448 63.321,178.227 63.668,177.785C64.015,177.344 64.189,176.733 64.189,175.954Z" style="fill-rule:nonzero;"/>
            <path d="M69.572,177.095L69.572,178.71C69.572,179.102 69.48,179.396 69.296,179.592C69.112,179.788 68.878,179.886 68.595,179.886C68.316,179.886 68.087,179.786 67.908,179.588C67.728,179.39 67.639,179.097 67.639,178.71L67.639,173.326C67.639,172.457 67.953,172.023 68.581,172.023C68.902,172.023 69.133,172.125 69.275,172.328C69.416,172.531 69.494,172.831 69.509,173.227C69.74,172.831 69.977,172.531 70.22,172.328C70.464,172.125 70.788,172.023 71.194,172.023C71.6,172.023 71.995,172.125 72.377,172.328C72.76,172.531 72.951,172.8 72.951,173.135C72.951,173.371 72.87,173.566 72.707,173.72C72.544,173.873 72.368,173.95 72.179,173.95C72.108,173.95 71.937,173.906 71.665,173.819C71.394,173.731 71.154,173.688 70.946,173.688C70.663,173.688 70.432,173.762 70.252,173.911C70.073,174.06 69.934,174.28 69.834,174.573C69.735,174.866 69.667,175.214 69.629,175.618C69.591,176.022 69.572,176.514 69.572,177.095Z" style="fill-rule:nonzero;"/>
            <path d="M75.735,177.095L75.735,178.71C75.735,179.102 75.643,179.396 75.459,179.592C75.274,179.788 75.041,179.886 74.757,179.886C74.479,179.886 74.25,179.786 74.07,179.588C73.891,179.39 73.801,179.097 73.801,178.71L73.801,173.326C73.801,172.457 74.115,172.023 74.743,172.023C75.064,172.023 75.296,172.125 75.437,172.328C75.579,172.531 75.657,172.831 75.671,173.227C75.902,172.831 76.14,172.531 76.383,172.328C76.626,172.125 76.951,172.023 77.357,172.023C77.763,172.023 78.157,172.125 78.54,172.328C78.922,172.531 79.114,172.8 79.114,173.135C79.114,173.371 79.032,173.566 78.869,173.72C78.706,173.873 78.53,173.95 78.342,173.95C78.271,173.95 78.099,173.906 77.828,173.819C77.556,173.731 77.317,173.688 77.109,173.688C76.826,173.688 76.594,173.762 76.415,173.911C76.235,174.06 76.096,174.28 75.997,174.573C75.898,174.866 75.829,175.214 75.791,175.618C75.754,176.022 75.735,176.514 75.735,177.095Z" style="fill-rule:nonzero;"/>
            <path d="M81.954,180.126L82.131,179.694L79.751,173.702C79.605,173.357 79.532,173.107 79.532,172.951C79.532,172.786 79.574,172.632 79.659,172.491C79.744,172.349 79.861,172.236 80.01,172.151C80.158,172.066 80.313,172.023 80.474,172.023C80.752,172.023 80.962,172.112 81.104,172.289C81.246,172.466 81.371,172.72 81.479,173.05L83.116,177.81L84.667,173.383C84.79,173.024 84.901,172.743 85,172.54C85.099,172.337 85.204,172.2 85.315,172.129C85.426,172.058 85.583,172.023 85.786,172.023C85.933,172.023 86.073,172.062 86.208,172.14C86.342,172.218 86.446,172.323 86.519,172.455C86.592,172.587 86.629,172.727 86.629,172.873C86.61,172.963 86.579,173.09 86.537,173.256C86.494,173.421 86.443,173.588 86.381,173.758L83.859,180.36C83.642,180.941 83.43,181.397 83.222,181.727C83.014,182.058 82.739,182.312 82.397,182.489C82.054,182.666 81.593,182.754 81.012,182.754C80.445,182.754 80.02,182.693 79.737,182.57C79.454,182.447 79.312,182.223 79.312,181.897C79.312,181.675 79.379,181.504 79.514,181.384C79.648,181.263 79.848,181.203 80.112,181.203C80.216,181.203 80.318,181.217 80.417,181.246C80.54,181.274 80.646,181.288 80.736,181.288C80.958,181.288 81.132,181.255 81.26,181.189C81.387,181.123 81.502,181.008 81.603,180.845C81.705,180.682 81.822,180.443 81.954,180.126Z" style="fill-rule:nonzero;"/>
            <path d="M88.251,179.9C87.939,179.9 87.67,179.804 87.444,179.613C87.217,179.422 87.104,179.154 87.104,178.809C87.104,178.511 87.215,178.261 87.437,178.058C87.659,177.855 87.921,177.754 88.223,177.754C88.449,177.754 88.655,177.815 88.839,177.938C89.023,178.06 89.167,178.241 89.271,178.48C89.375,178.718 89.427,179.012 89.427,179.361C89.427,179.829 89.328,180.267 89.129,180.675C88.931,181.084 88.689,181.407 88.403,181.646C88.118,181.884 87.859,182.004 87.628,182.004C87.481,182.004 87.362,181.955 87.27,181.858C87.178,181.762 87.132,181.649 87.132,181.522C87.132,181.328 87.229,181.172 87.422,181.054C87.975,180.747 88.251,180.363 88.251,179.9Z" style="fill-rule:nonzero;"/>
            <path d="M97.042,173.121L97.042,178.71C97.042,179.097 96.95,179.39 96.765,179.588C96.581,179.786 96.347,179.886 96.064,179.886C95.781,179.886 95.551,179.784 95.373,179.581C95.196,179.378 95.108,179.088 95.108,178.71L95.108,173.178C95.108,172.795 95.196,172.507 95.373,172.313C95.551,172.12 95.781,172.023 96.064,172.023C96.347,172.023 96.581,172.12 96.765,172.313C96.95,172.507 97.042,172.776 97.042,173.121ZM96.085,171.123C95.816,171.123 95.586,171.041 95.395,170.876C95.203,170.71 95.108,170.477 95.108,170.174C95.108,169.9 95.206,169.675 95.402,169.498C95.598,169.321 95.826,169.232 96.085,169.232C96.336,169.232 96.558,169.312 96.751,169.473C96.945,169.634 97.042,169.867 97.042,170.174C97.042,170.472 96.947,170.704 96.758,170.872C96.569,171.04 96.345,171.123 96.085,171.123Z" style="fill-rule:nonzero;"/>
            <path d="M99.145,172.193L99.358,172.193L99.358,171.031C99.358,170.72 99.366,170.475 99.383,170.298C99.399,170.121 99.445,169.969 99.521,169.841C99.596,169.709 99.705,169.602 99.847,169.519C99.988,169.436 100.147,169.395 100.321,169.395C100.567,169.395 100.789,169.487 100.987,169.671C101.119,169.794 101.203,169.944 101.239,170.121C101.274,170.298 101.292,170.55 101.292,170.876L101.292,172.193L102,172.193C102.274,172.193 102.483,172.258 102.627,172.388C102.771,172.518 102.843,172.684 102.843,172.887C102.843,173.147 102.74,173.329 102.535,173.433C102.329,173.537 102.035,173.588 101.653,173.588L101.292,173.588L101.292,177.144C101.292,177.447 101.302,177.679 101.324,177.842C101.345,178.005 101.401,178.137 101.494,178.239C101.586,178.34 101.736,178.391 101.943,178.391C102.057,178.391 102.21,178.371 102.404,178.331C102.597,178.291 102.748,178.271 102.857,178.271C103.013,178.271 103.153,178.333 103.279,178.458C103.404,178.583 103.466,178.738 103.466,178.922C103.466,179.234 103.296,179.472 102.956,179.638C102.616,179.803 102.127,179.886 101.49,179.886C100.886,179.886 100.427,179.784 100.116,179.581C99.804,179.378 99.6,179.097 99.503,178.738C99.406,178.379 99.358,177.9 99.358,177.3L99.358,173.588L99.103,173.588C98.824,173.588 98.612,173.522 98.465,173.39C98.319,173.258 98.246,173.09 98.246,172.887C98.246,172.684 98.323,172.518 98.476,172.388C98.629,172.258 98.853,172.193 99.145,172.193Z" style="fill-rule:nonzero;"/>
            <path d="M109.572,176.429L105.79,176.429C105.794,176.868 105.883,177.255 106.055,177.591C106.228,177.926 106.457,178.179 106.742,178.349C107.028,178.519 107.343,178.604 107.688,178.604C107.919,178.604 108.131,178.576 108.322,178.522C108.513,178.468 108.699,178.383 108.878,178.267C109.057,178.151 109.223,178.027 109.374,177.895C109.525,177.763 109.721,177.584 109.962,177.357C110.061,177.272 110.203,177.229 110.387,177.229C110.585,177.229 110.746,177.284 110.868,177.392C110.991,177.501 111.053,177.654 111.053,177.853C111.053,178.027 110.984,178.232 110.847,178.465C110.71,178.699 110.504,178.923 110.227,179.138C109.951,179.353 109.604,179.531 109.186,179.673C108.768,179.815 108.288,179.886 107.745,179.886C106.503,179.886 105.537,179.531 104.848,178.823C104.158,178.115 103.813,177.154 103.813,175.94C103.813,175.369 103.898,174.839 104.068,174.35C104.238,173.861 104.486,173.442 104.812,173.093C105.138,172.743 105.539,172.475 106.016,172.289C106.493,172.102 107.022,172.009 107.603,172.009C108.359,172.009 109.007,172.168 109.547,172.487C110.088,172.806 110.493,173.218 110.762,173.723C111.031,174.228 111.166,174.743 111.166,175.267C111.166,175.754 111.027,176.069 110.748,176.213C110.469,176.357 110.077,176.429 109.572,176.429ZM105.79,175.331L109.296,175.331C109.249,174.67 109.07,174.175 108.761,173.847C108.452,173.519 108.044,173.355 107.539,173.355C107.058,173.355 106.662,173.521 106.353,173.854C106.043,174.187 105.856,174.679 105.79,175.331Z" style="fill-rule:nonzero;"/>
            <path d="M119.227,176.096L119.227,178.667C119.227,179.073 119.135,179.378 118.951,179.581C118.766,179.784 118.523,179.886 118.221,179.886C117.928,179.886 117.691,179.784 117.509,179.581C117.327,179.378 117.236,179.073 117.236,178.667L117.236,175.586C117.236,175.1 117.22,174.722 117.187,174.453C117.154,174.183 117.064,173.963 116.918,173.79C116.771,173.618 116.54,173.532 116.223,173.532C115.591,173.532 115.174,173.749 114.973,174.183C114.773,174.618 114.672,175.241 114.672,176.053L114.672,178.667C114.672,179.069 114.581,179.372 114.399,179.577C114.218,179.783 113.978,179.886 113.68,179.886C113.388,179.886 113.148,179.783 112.962,179.577C112.775,179.372 112.682,179.069 112.682,178.667L112.682,173.135C112.682,172.772 112.766,172.495 112.933,172.306C113.101,172.117 113.322,172.023 113.595,172.023C113.86,172.023 114.081,172.112 114.258,172.289C114.435,172.466 114.523,172.71 114.523,173.022L114.523,173.206C114.859,172.805 115.218,172.509 115.6,172.321C115.983,172.132 116.408,172.037 116.875,172.037C117.361,172.037 117.779,172.134 118.129,172.328C118.478,172.521 118.766,172.814 118.993,173.206C119.319,172.809 119.668,172.515 120.041,172.324C120.414,172.133 120.828,172.037 121.281,172.037C121.81,172.037 122.266,172.141 122.648,172.349C123.031,172.557 123.316,172.854 123.505,173.241C123.67,173.591 123.753,174.141 123.753,174.892L123.753,178.667C123.753,179.073 123.661,179.378 123.477,179.581C123.293,179.784 123.049,179.886 122.747,179.886C122.454,179.886 122.215,179.783 122.028,179.577C121.842,179.372 121.748,179.069 121.748,178.667L121.748,175.416C121.748,175 121.731,174.668 121.695,174.417C121.66,174.167 121.564,173.957 121.408,173.787C121.253,173.617 121.017,173.532 120.7,173.532C120.445,173.532 120.203,173.607 119.974,173.758C119.745,173.91 119.567,174.113 119.439,174.368C119.298,174.693 119.227,175.27 119.227,176.096Z" style="fill-rule:nonzero;"/>
            <path d="M131.014,173.093L131.014,173.326C131.354,172.878 131.725,172.548 132.129,172.338C132.533,172.128 132.997,172.023 133.521,172.023C134.031,172.023 134.487,172.134 134.888,172.356C135.29,172.578 135.589,172.892 135.788,173.298C135.915,173.534 135.998,173.789 136.036,174.063C136.073,174.337 136.092,174.686 136.092,175.111L136.092,178.71C136.092,179.097 136.004,179.39 135.827,179.588C135.65,179.786 135.419,179.886 135.136,179.886C134.848,179.886 134.614,179.784 134.435,179.581C134.255,179.378 134.166,179.088 134.166,178.71L134.166,175.487C134.166,174.849 134.077,174.362 133.9,174.024C133.723,173.686 133.37,173.518 132.841,173.518C132.496,173.518 132.182,173.62 131.899,173.826C131.616,174.031 131.408,174.313 131.276,174.672C131.181,174.96 131.134,175.499 131.134,176.287L131.134,178.71C131.134,179.102 131.043,179.396 130.861,179.592C130.679,179.788 130.444,179.886 130.156,179.886C129.878,179.886 129.649,179.784 129.469,179.581C129.29,179.378 129.2,179.088 129.2,178.71L129.2,173.121C129.2,172.753 129.28,172.478 129.441,172.296C129.602,172.114 129.821,172.023 130.1,172.023C130.27,172.023 130.423,172.063 130.56,172.143C130.697,172.224 130.807,172.344 130.89,172.505C130.972,172.665 131.014,172.861 131.014,173.093Z" style="fill-rule:nonzero;"/>
            <path d="M145.258,175.954C145.258,176.53 145.168,177.062 144.989,177.548C144.81,178.034 144.55,178.452 144.21,178.802C143.87,179.151 143.464,179.419 142.992,179.606C142.519,179.792 141.988,179.886 141.398,179.886C140.812,179.886 140.286,179.791 139.818,179.602C139.351,179.413 138.946,179.143 138.603,178.791C138.261,178.439 138.001,178.024 137.824,177.545C137.647,177.065 137.559,176.535 137.559,175.954C137.559,175.369 137.648,174.833 137.828,174.346C138.007,173.86 138.265,173.444 138.6,173.1C138.935,172.755 139.341,172.489 139.818,172.303C140.295,172.116 140.822,172.023 141.398,172.023C141.983,172.023 142.515,172.117 142.992,172.306C143.468,172.495 143.877,172.764 144.217,173.114C144.557,173.463 144.815,173.879 144.993,174.361C145.17,174.842 145.258,175.373 145.258,175.954ZM143.317,175.954C143.317,175.166 143.144,174.552 142.797,174.113C142.45,173.673 141.983,173.454 141.398,173.454C141.02,173.454 140.687,173.552 140.399,173.748C140.111,173.944 139.889,174.233 139.733,174.616C139.577,174.998 139.499,175.444 139.499,175.954C139.499,176.46 139.576,176.901 139.73,177.279C139.883,177.657 140.103,177.946 140.388,178.147C140.674,178.347 141.011,178.448 141.398,178.448C141.983,178.448 142.45,178.227 142.797,177.785C143.144,177.344 143.317,176.733 143.317,175.954Z" style="fill-rule:nonzero;"/>
            <path d="M146.887,172.193L147.1,172.193L147.1,171.031C147.1,170.72 147.108,170.475 147.125,170.298C147.141,170.121 147.187,169.969 147.263,169.841C147.338,169.709 147.447,169.602 147.589,169.519C147.73,169.436 147.888,169.395 148.063,169.395C148.309,169.395 148.531,169.487 148.729,169.671C148.861,169.794 148.945,169.944 148.981,170.121C149.016,170.298 149.034,170.55 149.034,170.876L149.034,172.193L149.742,172.193C150.016,172.193 150.225,172.258 150.369,172.388C150.513,172.518 150.585,172.684 150.585,172.887C150.585,173.147 150.482,173.329 150.277,173.433C150.071,173.537 149.777,173.588 149.395,173.588L149.034,173.588L149.034,177.144C149.034,177.447 149.044,177.679 149.066,177.842C149.087,178.005 149.143,178.137 149.236,178.239C149.328,178.34 149.478,178.391 149.685,178.391C149.799,178.391 149.952,178.371 150.146,178.331C150.339,178.291 150.49,178.271 150.599,178.271C150.755,178.271 150.895,178.333 151.021,178.458C151.146,178.583 151.208,178.738 151.208,178.922C151.208,179.234 151.038,179.472 150.698,179.638C150.358,179.803 149.869,179.886 149.232,179.886C148.628,179.886 148.169,179.784 147.858,179.581C147.546,179.378 147.342,179.097 147.245,178.738C147.148,178.379 147.1,177.9 147.1,177.3L147.1,173.588L146.845,173.588C146.566,173.588 146.354,173.522 146.207,173.39C146.061,173.258 145.988,173.09 145.988,172.887C145.988,172.684 146.065,172.518 146.218,172.388C146.371,172.258 146.595,172.193 146.887,172.193Z" style="fill-rule:nonzero;"/>
            <path d="M155.387,172.193L155.848,172.193L155.848,171.612C155.848,171.008 155.925,170.527 156.078,170.171C156.232,169.814 156.491,169.554 156.857,169.392C157.223,169.229 157.725,169.147 158.362,169.147C159.491,169.147 160.055,169.423 160.055,169.976C160.055,170.155 159.996,170.309 159.878,170.436C159.76,170.564 159.621,170.628 159.46,170.628C159.385,170.628 159.255,170.613 159.071,170.585C158.887,170.557 158.731,170.543 158.603,170.543C158.254,170.543 158.03,170.645 157.93,170.851C157.831,171.056 157.782,171.35 157.782,171.733L157.782,172.193L158.256,172.193C158.993,172.193 159.361,172.415 159.361,172.859C159.361,173.175 159.263,173.376 159.067,173.461C158.871,173.546 158.601,173.588 158.256,173.588L157.782,173.588L157.782,178.71C157.782,179.092 157.691,179.384 157.509,179.585C157.327,179.785 157.092,179.886 156.804,179.886C156.53,179.886 156.302,179.785 156.121,179.585C155.939,179.384 155.848,179.092 155.848,178.71L155.848,173.588L155.317,173.588C155.029,173.588 154.807,173.524 154.651,173.394C154.495,173.264 154.417,173.095 154.417,172.887C154.417,172.424 154.74,172.193 155.387,172.193Z" style="fill-rule:nonzero;"/>
            <path d="M167.422,175.954C167.422,176.53 167.332,177.062 167.153,177.548C166.973,178.034 166.714,178.452 166.374,178.802C166.034,179.151 165.628,179.419 165.155,179.606C164.683,179.792 164.152,179.886 163.562,179.886C162.976,179.886 162.45,179.791 161.982,179.602C161.515,179.413 161.11,179.143 160.767,178.791C160.425,178.439 160.165,178.024 159.988,177.545C159.811,177.065 159.722,176.535 159.722,175.954C159.722,175.369 159.812,174.833 159.992,174.346C160.171,173.86 160.428,173.444 160.764,173.1C161.099,172.755 161.505,172.489 161.982,172.303C162.459,172.116 162.986,172.023 163.562,172.023C164.147,172.023 164.678,172.117 165.155,172.306C165.632,172.495 166.041,172.764 166.381,173.114C166.721,173.463 166.979,173.879 167.156,174.361C167.334,174.842 167.422,175.373 167.422,175.954ZM165.481,175.954C165.481,175.166 165.308,174.552 164.961,174.113C164.614,173.673 164.147,173.454 163.562,173.454C163.184,173.454 162.851,173.552 162.563,173.748C162.275,173.944 162.053,174.233 161.897,174.616C161.741,174.998 161.663,175.444 161.663,175.954C161.663,176.46 161.74,176.901 161.894,177.279C162.047,177.657 162.267,177.946 162.552,178.147C162.838,178.347 163.174,178.448 163.562,178.448C164.147,178.448 164.614,178.227 164.961,177.785C165.308,177.344 165.481,176.733 165.481,175.954Z" style="fill-rule:nonzero;"/>
            <path d="M173.967,178.795L173.967,178.547C173.736,178.84 173.493,179.085 173.238,179.284C172.983,179.482 172.704,179.629 172.402,179.726C172.099,179.823 171.755,179.871 171.368,179.871C170.9,179.871 170.481,179.775 170.11,179.581C169.74,179.387 169.453,179.121 169.25,178.781C169.009,178.37 168.888,177.779 168.888,177.01L168.888,173.178C168.888,172.79 168.976,172.501 169.15,172.31C169.325,172.119 169.557,172.023 169.845,172.023C170.137,172.023 170.373,172.12 170.553,172.313C170.732,172.507 170.822,172.795 170.822,173.178L170.822,176.273C170.822,176.722 170.86,177.098 170.935,177.403C171.011,177.707 171.147,177.946 171.343,178.118C171.539,178.291 171.804,178.377 172.14,178.377C172.465,178.377 172.772,178.28 173.06,178.086C173.349,177.893 173.559,177.64 173.691,177.329C173.799,177.055 173.854,176.455 173.854,175.529L173.854,173.178C173.854,172.795 173.944,172.507 174.123,172.313C174.302,172.12 174.536,172.023 174.824,172.023C175.112,172.023 175.344,172.119 175.518,172.31C175.693,172.501 175.78,172.79 175.78,173.178L175.78,178.781C175.78,179.149 175.697,179.425 175.529,179.609C175.361,179.794 175.145,179.886 174.881,179.886C174.616,179.886 174.398,179.79 174.226,179.599C174.053,179.407 173.967,179.139 173.967,178.795Z" style="fill-rule:nonzero;"/>
            <path d="M179.464,173.093L179.464,173.326C179.804,172.878 180.176,172.548 180.579,172.338C180.983,172.128 181.447,172.023 181.971,172.023C182.481,172.023 182.937,172.134 183.338,172.356C183.74,172.578 184.04,172.892 184.238,173.298C184.366,173.534 184.448,173.789 184.486,174.063C184.524,174.337 184.543,174.686 184.543,175.111L184.543,178.71C184.543,179.097 184.454,179.39 184.277,179.588C184.1,179.786 183.87,179.886 183.586,179.886C183.298,179.886 183.065,179.784 182.885,179.581C182.706,179.378 182.616,179.088 182.616,178.71L182.616,175.487C182.616,174.849 182.527,174.362 182.35,174.024C182.173,173.686 181.82,173.518 181.291,173.518C180.947,173.518 180.633,173.62 180.349,173.826C180.066,174.031 179.858,174.313 179.726,174.672C179.631,174.96 179.584,175.499 179.584,176.287L179.584,178.71C179.584,179.102 179.493,179.396 179.312,179.592C179.13,179.788 178.895,179.886 178.607,179.886C178.328,179.886 178.099,179.784 177.92,179.581C177.74,179.378 177.65,179.088 177.65,178.71L177.65,173.121C177.65,172.753 177.731,172.478 177.891,172.296C178.052,172.114 178.271,172.023 178.55,172.023C178.72,172.023 178.874,172.063 179.01,172.143C179.147,172.224 179.257,172.344 179.34,172.505C179.423,172.665 179.464,172.861 179.464,173.093Z" style="fill-rule:nonzero;"/>
            <path d="M191.768,178.781L191.768,178.589C191.508,178.887 191.252,179.129 190.999,179.315C190.746,179.502 190.473,179.644 190.177,179.74C189.882,179.837 189.56,179.886 189.211,179.886C188.748,179.886 188.319,179.788 187.925,179.592C187.531,179.396 187.189,179.116 186.901,178.752C186.613,178.389 186.395,177.961 186.246,177.47C186.097,176.979 186.023,176.448 186.023,175.876C186.023,174.668 186.318,173.725 186.908,173.05C187.499,172.375 188.276,172.037 189.239,172.037C189.796,172.037 190.266,172.133 190.648,172.324C191.031,172.515 191.404,172.809 191.768,173.206L191.768,170.351C191.768,169.955 191.847,169.655 192.005,169.452C192.163,169.249 192.389,169.147 192.681,169.147C192.974,169.147 193.2,169.24 193.358,169.427C193.516,169.614 193.595,169.889 193.595,170.252L193.595,178.781C193.595,179.149 193.51,179.425 193.34,179.609C193.17,179.794 192.951,179.886 192.681,179.886C192.417,179.886 192.199,179.79 192.026,179.599C191.854,179.407 191.768,179.135 191.768,178.781ZM187.964,175.94C187.964,176.464 188.045,176.911 188.208,177.279C188.371,177.647 188.594,177.925 188.878,178.111C189.161,178.298 189.47,178.391 189.806,178.391C190.146,178.391 190.456,178.302 190.737,178.125C191.018,177.948 191.242,177.677 191.41,177.311C191.578,176.945 191.661,176.488 191.661,175.94C191.661,175.425 191.578,174.983 191.41,174.612C191.242,174.241 191.016,173.958 190.73,173.762C190.444,173.566 190.131,173.468 189.791,173.468C189.437,173.468 189.121,173.568 188.842,173.769C188.564,173.97 188.348,174.258 188.194,174.633C188.041,175.009 187.964,175.444 187.964,175.94Z" style="fill-rule:nonzero;"/>
        </g>
    </g>
</svg>
