<?xml version="1.0" encoding="UTF-8" standalone="no"?><!DOCTYPE svg PUBLIC "-//W3C//DTD SVG 1.1//EN" "http://www.w3.org/Graphics/SVG/1.1/DTD/svg11.dtd"><svg width="100%" height="100%" viewBox="0 0 2230 2500" version="1.1" xmlns="http://www.w3.org/2000/svg" xmlns:xlink="http://www.w3.org/1999/xlink" xml:space="preserve" xmlns:serif="http://www.serif.com/" style="fill-rule:evenodd;clip-rule:evenodd;stroke-linejoin:round;stroke-miterlimit:2;"><path d="M69.39,630.34l1060.48,-617.457l1060.47,617.457l0,1233.91l-1060.47,617.456l-1060.48,-617.456l0,-1233.91Z" style="fill:#c00;fill-rule:nonzero;"/><path d="M1159.6,1246.79l986.141,-567.892l39.643,1144.71l-1025.78,619.434l0,-1196.26Z" style="fill:#fff;fill-rule:nonzero;"/><path d="M2160.61,644.216l-2.979,1213.1l-1028.76,596.638l-4.956,-1192.29l1036.69,-617.448Zm-865.227,716.551l2.962,796.846l341.934,-199.216l-0.993,-600.592l172.456,-102.091l0,602.587l172.448,-101.088l0.993,-806.751l-689.808,410.313l0.008,-0.008Z" style="fill:#c00;fill-rule:nonzero;"/><path d="M1197.27,21.803c-47.579,-26.759 -123.894,-26.759 -171.464,0l-939.555,540.148c-47.579,26.76 -85.236,94.155 -85.236,147.674l0,1080.3c0,54.503 38.65,120.906 85.236,147.674l939.555,540.139c47.57,26.76 123.885,26.76 171.464,0l939.547,-540.139c47.578,-26.76 85.244,-94.164 85.244,-147.674l0,-1080.3c0,-54.512 -38.659,-120.914 -85.235,-147.674l-939.556,-540.148Zm833.51,564.922c47.57,26.759 47.57,71.359 0,98.118l-822.613,472.753c-47.57,26.759 -123.885,26.759 -171.455,0l-834.512,-479.687c-47.578,-26.759 -47.578,-71.358 0,-98.118l822.605,-472.753c47.578,-26.759 123.885,-26.759 171.463,0l834.495,479.687l0.017,0Zm-1956.43,201.193c0,-54.503 38.658,-76.307 85.235,-49.556l841.446,483.659c47.561,26.759 85.226,94.155 85.226,147.674l0,959.382c0,54.512 -38.649,76.306 -85.226,49.555l-841.446,-483.658c-47.57,-26.76 -85.235,-94.155 -85.235,-147.674l0,-959.382Zm1172.47,1575.85c-47.579,26.76 -85.236,4.957 -85.236,-49.556l0,-944.512c0,-54.512 38.65,-120.915 85.227,-147.674l816.664,-468.789c47.578,-26.76 85.235,-4.957 85.235,49.555l0,944.513c0,54.512 -38.65,120.914 -85.235,147.674l-816.664,468.789l0.009,0Z" style="fill:#910505;fill-rule:nonzero;"/></svg>