<?xml version="1.0" encoding="UTF-8" standalone="no"?>
<!DOCTYPE svg PUBLIC "-//W3C//DTD SVG 1.1//EN" "http://www.w3.org/Graphics/SVG/1.1/DTD/svg11.dtd">
<svg width="100%" height="100%" viewBox="0 0 1000 1000" version="1.1" xmlns="http://www.w3.org/2000/svg" xmlns:xlink="http://www.w3.org/1999/xlink" xml:space="preserve" xmlns:serif="http://www.serif.com/" style="fill-rule:evenodd;clip-rule:evenodd;stroke-linejoin:round;stroke-miterlimit:2;">
    <g transform="matrix(1,0,0,1,100,100)">
        <path d="M166.835,504.336C134.282,510.071 112.561,541.057 118.286,573.61C123.376,602.634 148.605,623.064 177.112,623.064C180.558,623.064 184.033,622.76 187.537,622.141L222.031,616.09L222.031,740.189C222.031,773.195 248.821,800 281.842,800C314.879,800 341.658,773.195 341.658,740.189L341.658,595.064L448.358,576.291L448.358,702.807C448.358,735.844 475.166,762.618 508.18,762.618C541.206,762.618 567.99,735.844 567.99,702.807L567.99,555.297L641.139,542.395C673.672,536.709 695.411,505.705 689.701,473.173C683.985,440.598 652.96,418.901 620.427,424.621L567.969,433.834L567.969,309.64L633.17,298.18C665.703,292.453 687.431,261.444 681.701,228.911C676.015,196.373 644.951,174.7 612.437,180.359L567.967,188.169L567.967,59.811C567.964,26.779 541.18,0 508.153,0C475.14,0 448.332,26.779 448.332,59.811L448.332,209.197L341.632,227.944L341.632,97.179C341.632,64.158 314.853,37.364 281.819,37.364C248.797,37.364 222.008,64.158 222.008,97.179L222.008,248.986L158.861,260.085C126.302,265.812 104.587,296.821 110.306,329.349C115.391,358.372 140.621,378.828 169.137,378.828C172.581,378.828 176.048,378.509 179.549,377.906L222.008,370.446L222.008,494.65L166.835,504.336ZM341.632,349.442L448.332,330.694L448.332,454.862L341.632,473.617L341.632,349.442Z" style="fill-rule:nonzero;"/>
    </g>
</svg>
