<?xml version="1.0" encoding="UTF-8" standalone="no"?>
<!DOCTYPE svg PUBLIC "-//W3C//DTD SVG 1.1//EN" "http://www.w3.org/Graphics/SVG/1.1/DTD/svg11.dtd">
<svg width="100%" height="100%" viewBox="0 0 100 100" version="1.1" xmlns="http://www.w3.org/2000/svg" xmlns:xlink="http://www.w3.org/1999/xlink" xml:space="preserve" xmlns:serif="http://www.serif.com/" style="fill-rule:evenodd;clip-rule:evenodd;stroke-linejoin:round;stroke-miterlimit:1.41421;">
    <g id="nutch">
        <path d="M55.063,85.227L43.07,85.227L47.852,60.531L49.687,61.486L50.146,50.892L64.051,45.948L52.447,43.228C52.447,43.228 86.717,43.329 86.872,43.327C90.605,43.277 94.76,45.365 94.046,49.525L87.053,85.078C87.053,85.078 73.631,85.113 73.631,85.078C73.631,85.043 80.127,57.981 80.127,57.981C81.119,54.982 80.751,54.296 78.224,54.259C78.224,54.259 60.643,53.979 60.643,54.259C60.643,54.539 54.891,85.992 55.063,85.227" style="fill:rgb(248,156,14);"/>
        <path d="M87.234,42.829C87.637,42.839 88.039,42.87 88.438,42.925C88.776,42.971 89.112,43.034 89.444,43.114C91.768,43.674 94.165,45.204 94.568,47.817C94.66,48.415 94.636,49.018 94.539,49.614L87.543,85.175C87.477,85.395 87.411,85.542 87.054,85.578C82.568,85.589 78.065,85.809 73.601,85.578C72.851,85.497 73.245,84.538 73.424,83.788C75.15,76.57 76.89,69.327 78.626,62.094L79.645,57.845C79.704,57.664 79.762,57.483 79.818,57.301C80.162,56.143 81.067,54.839 78.329,54.761C72.597,54.651 66.829,54.381 61.109,54.693C61.109,54.693 60.889,55.787 60.759,56.519C59.043,66.107 57.25,75.667 55.558,85.283C55.444,85.93 55.162,85.776 54.952,85.727L43.07,85.727C42.616,85.683 42.54,85.547 42.579,85.132L47.362,60.436C47.494,59.983 47.677,59.922 48.083,60.087L49.222,60.68L49.66,50.773C49.717,50.614 49.822,50.495 49.978,50.421L62.281,46.046L52.241,43.683C51.814,43.438 51.912,42.779 52.448,42.728C63.917,42.762 75.35,42.806 86.871,42.827C86.992,42.827 87.113,42.826 87.234,42.829ZM56.826,43.741L64.259,45.493C64.817,45.818 64.511,46.281 64.219,46.419L50.631,51.25L50.173,61.607C50.015,62.046 49.853,62.088 49.457,61.929L48.216,61.284L43.676,84.727L54.639,84.727C56.432,74.535 58.484,64.285 60.158,54.139C60.158,54.139 59.747,53.744 61.379,53.679C67.07,53.452 72.777,53.603 78.471,53.765C79.371,53.799 80.392,53.9 80.875,54.668C81.493,55.649 80.999,56.88 80.692,57.858L80.608,58.118C78.536,66.751 76.463,75.385 74.397,84.02L74.261,84.589C77.829,84.605 81.391,84.59 84.954,84.583L86.641,84.579L93.554,49.437C93.713,48.466 93.593,47.462 93.102,46.622C91.877,44.528 89.196,43.826 86.962,43.826C76.944,43.915 66.875,43.77 56.826,43.741ZM61.137,54.347C61.146,54.309 61.138,54.337 61.137,54.347Z" style="fill-rule:nonzero;"/>
        <path d="M67.865,85.046L73.509,85.07L80.38,56.403C80.532,55.174 80.051,54.453 78.75,54.389L60.703,54.389L60.298,56.432L72.866,56.432C73.626,56.448 73.963,56.8 73.848,57.511L67.865,85.046Z"/>
        <path d="M78.843,53.894C79.533,53.945 80.235,54.203 80.603,54.795C81.014,55.454 80.866,56.52 80.866,56.52L73.995,85.186C73.89,85.515 73.827,85.547 73.507,85.57L67.862,85.546C67.395,85.509 67.339,85.205 67.376,84.94L73.356,57.422C73.364,57.368 73.37,57.314 73.37,57.259C73.371,57.061 73.152,56.943 72.857,56.932L60.298,56.932C59.972,56.908 59.758,56.739 59.808,56.335L60.212,54.292C60.308,53.95 60.376,53.914 60.703,53.889C66.75,53.889 72.806,53.548 78.843,53.894ZM61.113,54.889L60.907,55.932L72.875,55.932C73.761,55.963 74.474,56.672 74.341,57.6L68.484,84.548L73.115,84.568L79.887,56.316C79.893,56.26 79.898,56.204 79.902,56.148C79.938,55.562 79.528,54.948 78.777,54.892C72.899,54.555 67.001,54.889 61.113,54.889Z" style="fill-rule:nonzero;"/>
        <path d="M35.738,85.227L43.081,85.234L47.509,61.67L37.126,73.781L35.738,85.227Z"/>
        <path d="M47.601,61.179C48.011,61.284 48.027,61.54 48,61.762L43.573,85.326C43.476,85.708 43.268,85.722 43.081,85.734L35.738,85.727C35.434,85.707 35.225,85.473 35.242,85.167L36.629,73.721C36.644,73.639 36.632,73.605 36.746,73.456L47.129,61.345C47.241,61.23 47.308,61.143 47.601,61.179ZM37.604,73.992L36.302,84.727L42.666,84.733L46.672,63.414C43.65,66.94 40.627,70.466 37.604,73.992Z" style="fill-rule:nonzero;"/>
        <path d="M42.708,10.245C43.072,10.326 43.307,10.389 43.527,10.942L53.12,42.224L63.417,45.25C64.103,45.656 64.153,46.7 63.329,47.087L51.051,51.656L50.508,61.547C50.002,63.138 48.239,61.751 48.239,61.751L27.196,86.132C26.51,86.8 25.249,86.177 25.489,85.165L34.972,56.418L7.131,43.736C6.451,43.186 6.712,42.007 7.674,41.909C18.012,41.722 28.422,41.181 38.796,41.752C38.796,41.752 39.115,39.567 39.242,38.128C40.035,29.13 40.803,20.141 41.575,11.15C41.575,11.15 41.69,10.188 42.708,10.245ZM42.693,21.503C42.075,28.666 41.604,35.838 40.807,42.996C40.509,45.106 39.53,43.885 39.352,43.805C36.242,43.392 32.925,43.63 29.649,43.642C24.007,43.662 18.367,43.737 12.726,43.823L12.138,43.833L36.759,55.048C37.304,55.48 37.298,55.591 37.153,56.193L28.96,81.026C28.96,81.026 47.099,59.886 47.099,59.886C47.824,59.074 47.36,59.119 48.618,59.7L49.088,50.894C49.175,50.264 49.389,50.175 49.738,50.01L59.807,46.263L51.888,43.934C51.648,43.792 51.472,43.59 51.366,43.326L43.127,16.458C42.982,18.14 42.837,19.821 42.693,21.503ZM39.023,43.536C39.023,43.536 39.017,43.527 39.023,43.536ZM38.813,43.041C38.813,43.041 38.803,42.889 38.813,43.041Z" style="fill-rule:nonzero;"/>
    </g>
</svg>
