<?xml version="1.0" encoding="UTF-8" standalone="no"?>
<!DOCTYPE svg PUBLIC "-//W3C//DTD SVG 1.1//EN" "http://www.w3.org/Graphics/SVG/1.1/DTD/svg11.dtd">
<svg width="100%" height="100%" viewBox="0 0 650 650" version="1.1" xmlns="http://www.w3.org/2000/svg" xmlns:xlink="http://www.w3.org/1999/xlink" xml:space="preserve" xmlns:serif="http://www.serif.com/" style="fill-rule:evenodd;clip-rule:evenodd;stroke-linejoin:round;stroke-miterlimit:2;">
    <g id="path44560" transform="matrix(1,0,0,1,-31.573,28.7602)">
        <path d="M656.779,161.204C650.06,147.326 642.285,133.932 633.263,121.301L536.879,156.377C548.087,167.849 557.505,180.745 565.207,194.535L656.779,161.204ZM230.72,267.808L134.307,302.885C135.54,318.348 138.21,333.619 141.95,348.583L233.537,315.237C230.559,299.746 229.503,283.784 230.72,267.808" style="fill:rgb(64,180,229);fill-rule:nonzero;"/>
    </g>
    <g id="path44564" transform="matrix(1,0,0,1,-31.573,28.7602)">
        <path d="M444.686,133.899C464.741,143.259 482.11,156.022 496.766,170.986L593.15,135.909C566.45,98.441 530.082,67.135 485.528,46.347C347.731,-17.909 183.335,41.917 119.094,179.7C98.292,224.283 90.56,271.639 94.199,317.498L190.597,282.421C192.196,261.531 197.287,240.596 206.632,220.527C248.383,131.009 355.168,92.163 444.686,133.899" style="fill:rgb(0,55,100);fill-rule:nonzero;"/>
    </g>
    <g id="path44572" transform="matrix(1,0,0,1,-31.573,28.7602)">
        <path d="M547.491,310.038C545.951,330.914 540.684,351.849 531.31,371.932C489.573,461.465 382.773,500.312 293.27,458.575C273.186,449.201 255.685,436.54 241.088,421.547L144.895,456.55C171.536,494.018 207.86,525.339 252.443,546.142C390.241,610.383 554.606,550.558 618.862,412.76C639.679,368.206 647.352,320.85 643.684,275.035L547.491,310.038Z" style="fill:rgb(0,55,100);fill-rule:nonzero;"/>
    </g>
    <g id="path44576" transform="matrix(1,0,0,1,-31.573,28.7602)">
        <path d="M571.194,192.358L479.608,225.688C496.625,256.173 504.664,291.265 502.024,326.561L598.217,291.573C595.459,257.054 586.26,223.356 571.194,192.358M147.954,346.384L56.367,379.744C64.773,413.134 79.37,444.865 99.439,473.106L195.617,438.088C170.927,412.738 154.511,380.654 147.954,346.384" style="fill:rgb(0,55,100);fill-rule:nonzero;"/>
    </g>
    <g id="path44584" transform="matrix(1,0,0,1,-31.573,28.7602)">
        <path d="M642.819,135.811C639.782,130.882 636.628,126.026 633.268,121.302L536.885,156.379C541.124,160.721 545.027,165.328 548.753,170.051L642.819,135.811ZM230.352,287.166C230.117,280.74 230.219,274.285 230.718,267.816L134.305,302.892C134.804,309.069 135.581,315.201 136.506,321.318L230.351,287.166L230.352,287.166Z" style="fill:rgb(64,180,229);fill-rule:nonzero;"/>
    </g>
    <g id="path44588" transform="matrix(1,0,0,1,-31.573,28.7602)">
        <path d="M643.678,275.033L547.485,310.037C546.473,323.885 543.774,337.764 539.358,351.407L644.06,313.235C644.809,300.442 644.69,287.679 643.678,275.033M144.904,456.564C152.312,466.994 160.513,476.941 169.418,486.33L274.134,448.143C261.899,440.485 250.838,431.551 241.082,421.546L144.904,456.564Z" style="fill:rgb(64,180,229);fill-rule:nonzero;"/>
    </g>
</svg>
