<?xml version="1.0" encoding="UTF-8" standalone="no"?><!DOCTYPE svg PUBLIC "-//W3C//DTD SVG 1.1//EN" "http://www.w3.org/Graphics/SVG/1.1/DTD/svg11.dtd"><svg width="100%" height="100%" viewBox="0 0 100 100" version="1.1" xmlns="http://www.w3.org/2000/svg" xmlns:xlink="http://www.w3.org/1999/xlink" xml:space="preserve" xmlns:serif="http://www.serif.com/" style="fill-rule:evenodd;clip-rule:evenodd;stroke-linejoin:round;stroke-miterlimit:2;"><g><path d="M89.537,76.739l-71.327,13.281l-13.017,-69.9l71.328,-13.282l13.016,69.901Z" style="fill:#236ab3;"/><path d="M53.981,15.868c9.377,-1.762 14.788,3.584 16.314,11.7c1.459,7.762 -1.299,15.011 -10.953,16.825c-9.652,1.815 -14.853,-3.938 -16.312,-11.7c-1.414,-7.525 2.244,-15.188 10.951,-16.825Zm4.518,24.034c5.438,-1.022 6.57,-5.845 5.571,-11.163c-1.001,-5.319 -4.043,-9.357 -9.245,-8.379c-5.2,0.978 -6.569,5.845 -5.569,11.163c0.999,5.319 3.806,9.401 9.243,8.379Zm-26.388,12.562c9.377,-1.763 14.788,3.584 16.313,11.7c1.459,7.762 -1.298,15.01 -10.951,16.825c-9.653,1.816 -14.854,-3.938 -16.314,-11.7c-1.414,-7.525 2.245,-15.188 10.952,-16.825Zm4.517,24.034c5.438,-1.022 6.571,-5.845 5.571,-11.164c-0.999,-5.319 -4.043,-9.356 -9.244,-8.378c-5.2,0.978 -6.569,5.845 -5.57,11.163c1,5.319 3.807,9.401 9.243,8.379Zm27.764,-25.495l-0.757,-4.018l11.191,-2.103l0.755,4.018l-2.168,0.408l-8.454,11.012l12.601,8.441l2.207,-0.416l0.754,3.789l-12.135,2.281l-0.755,-3.788l3.231,-0.607l-0.015,-0.08c-0.664,-0.283 -1.556,-0.686 -2.158,-1.063l-9.23,-6.137l1.711,9.101l2.482,-0.467l0.755,3.789l-10.716,2.013l-0.755,-3.788l2.482,-0.466l-3.674,-19.543l-2.482,0.467l-0.755,-4.018l10.715,-2.015l0.757,4.019l-2.483,0.467l1.652,8.786l7.681,-10.527l-2.437,0.445Zm-46.473,-23.734l-2.955,0.555l-0.755,-4.019l10.598,-1.992c3.901,-0.734 5.979,-0.96 7.967,-0.151c1.635,0.672 3.38,2.139 3.921,5.015c0.836,4.451 -2.455,6.906 -4.465,7.283l0.015,0.08c3.822,-0.719 7.726,0.954 8.57,5.446c0.682,3.624 -1.329,8.122 -8.932,9.551l-12.253,2.303l-0.756,-4.019l2.718,-0.511l-3.673,-19.541Zm7.115,6.167l2.679,-0.503c2.364,-0.445 4.051,-2.107 3.584,-4.59c-0.437,-2.324 -2.149,-3.185 -4.868,-2.675l-2.758,0.518l1.363,7.25Zm2.311,12.293l3.112,-0.585c3.349,-0.63 4.467,-2.716 4.052,-4.922c-0.401,-2.128 -2.366,-3.472 -5.282,-2.924l-3.349,0.63l1.467,7.801Z" style="fill:#fff;"/></g></svg>