<?xml version="1.0" encoding="UTF-8" standalone="no"?><!DOCTYPE svg PUBLIC "-//W3C//DTD SVG 1.1//EN" "http://www.w3.org/Graphics/SVG/1.1/DTD/svg11.dtd"><svg width="100%" height="100%" viewBox="0 0 100 100" version="1.1" xmlns="http://www.w3.org/2000/svg" xmlns:xlink="http://www.w3.org/1999/xlink" xml:space="preserve" xmlns:serif="http://www.serif.com/" style="fill-rule:evenodd;clip-rule:evenodd;stroke-linejoin:round;stroke-miterlimit:2;"><path d="M86.254,8.053l-51.512,-0.001c-2.307,0 -4.206,1.899 -4.206,4.207l-0,4.782l29.033,8.989l30.892,-8.989l-0,-4.782c-0,-2.308 -1.899,-4.207 -4.207,-4.207Z" style="fill:#0364b8;fill-rule:nonzero;"/><path d="M95.405,54.21c0.438,-1.38 0.789,-2.786 1.048,-4.21c-0.001,-0.711 -0.382,-1.37 -0.998,-1.726l-0.038,-0.024l-0.012,-0.006l-32.474,-18.499c-0.14,-0.091 -0.285,-0.174 -0.434,-0.248c-1.258,-0.625 -2.739,-0.625 -3.997,-0c-0.15,0.073 -0.295,0.155 -0.435,0.245l-32.473,18.505l-0.012,0.006l-0.036,0.021c-0.617,0.355 -0.999,1.014 -1.001,1.726c0.26,1.424 0.61,2.83 1.049,4.21l34.433,25.183l35.38,-25.183Z" style="fill:#0a2767;fill-rule:nonzero;"/><path d="M72.483,17.041l-20.974,0l-6.055,8.989l6.055,8.989l20.974,17.977l17.978,0l-0,-17.977l-17.978,-17.978Z" style="fill:#28a8ea;fill-rule:nonzero;"/><rect x="30.536" y="17.041" width="20.974" height="17.978" style="fill:#0078d4;fill-rule:nonzero;"/><rect x="72.483" y="17.041" width="17.978" height="17.978" style="fill:#50d9ff;fill-rule:nonzero;"/><path d="M72.483,52.996l-20.974,-17.977l-20.973,-0l-0,17.977l20.973,17.978l32.456,5.297l-11.482,-23.275Z" style="fill:#0364b8;fill-rule:nonzero;"/><path d="M30.629,17.041l59.832,0" style="fill:none;fill-rule:nonzero;"/><rect x="51.509" y="35.019" width="20.974" height="17.978" style="fill:#0078d4;fill-rule:nonzero;"/><rect x="30.536" y="52.996" width="20.974" height="17.978" style="fill:#064a8c;fill-rule:nonzero;"/><rect x="72.483" y="52.996" width="17.978" height="17.978" style="fill:#0078d4;fill-rule:nonzero;"/><path d="M61.068,77.619l-35.335,-25.767l1.483,-2.607c-0,-0 32.195,18.337 32.686,18.613c0.406,0.162 0.862,0.149 1.258,-0.036l32.758,-18.667l1.487,2.604l-34.337,25.86Z" style="fill:#0a2767;fill-opacity:0.5;fill-rule:nonzero;"/><path d="M95.455,51.729l-0.041,0.024l-0.009,0.006l-32.474,18.499c-1.31,0.844 -2.97,0.948 -4.374,0.272l11.308,15.164l24.731,5.385l-0,0.012c1.166,-0.844 1.858,-2.199 1.857,-3.638l0,-37.453c0,0.712 -0.381,1.373 -0.998,1.729Z" style="fill:#1490df;fill-rule:nonzero;"/><path d="M96.453,87.453l0,-2.211l-29.911,-17.043l-3.611,2.059c-1.31,0.844 -2.97,0.948 -4.374,0.272l11.308,15.164l24.731,5.385l-0,0.012c1.166,-0.844 1.858,-2.199 1.857,-3.638Z" style="fill-opacity:0.05;fill-rule:nonzero;"/><path d="M96.303,88.601l-32.788,-18.676l-0.584,0.33c-1.309,0.845 -2.969,0.95 -4.374,0.275l11.308,15.164l24.731,5.385l-0,0.012c0.838,-0.608 1.442,-1.487 1.707,-2.487l0,-0.003Z" style="fill-opacity:0.1;fill-rule:nonzero;"/><path d="M25.592,51.768l-0,-0.03l-0.03,-0l-0.09,-0.06c-0.582,-0.357 -0.935,-0.995 -0.929,-1.678l0,37.453c0,0.002 0,0.004 0,0.006c0,2.462 2.026,4.489 4.489,4.489c0.002,-0 0.004,-0 0.006,-0.001l62.921,0.001c0.374,-0.004 0.747,-0.054 1.108,-0.15c0.188,-0.033 0.37,-0.094 0.54,-0.18c0.063,-0.006 0.125,-0.027 0.18,-0.06c0.245,-0.1 0.476,-0.231 0.689,-0.39c0.06,-0.029 0.09,-0.029 0.12,-0.089l-69.004,-39.311Z" style="fill:#28a8ea;fill-rule:nonzero;"/><path d="M54.506,75.968l-0,-48.94c-0.007,-2.189 -1.806,-3.988 -3.994,-3.994l-19.886,-0l-0,22.34l-5.034,2.87l-0.015,0.006l-0.036,0.021c-0.617,0.356 -0.998,1.017 -0.998,1.729l0,0.015l0,-0.015l0,29.962l25.969,0.001c2.188,-0.007 3.987,-1.806 3.994,-3.995Z" style="fill-opacity:0.1;fill-rule:nonzero;"/><path d="M51.509,78.965l0,-48.941c-0.006,-2.189 -1.805,-3.987 -3.994,-3.994l-16.889,-0l-0,19.344l-5.034,2.87l-0.015,0.006l-0.036,0.021c-0.617,0.356 -0.998,1.017 -0.998,1.729l0,0.015l0,-0.015l0,32.959l22.972,-0c2.189,-0.007 3.988,-1.806 3.994,-3.994Z" style="fill-opacity:0.2;fill-rule:nonzero;"/><path d="M51.509,72.972l0,-42.948c-0.006,-2.189 -1.805,-3.987 -3.994,-3.994l-16.889,-0l-0,19.344l-5.034,2.87l-0.015,0.006l-0.036,0.021c-0.617,0.356 -0.998,1.017 -0.998,1.729l0,0.015l0,-0.015l0,26.966l22.972,0c2.189,-0.006 3.988,-1.805 3.994,-3.994Z" style="fill-opacity:0.2;fill-rule:nonzero;"/><path d="M48.513,72.972l0,-42.948c-0.006,-2.189 -1.805,-3.987 -3.994,-3.994l-13.893,-0l-0,19.344l-5.034,2.87l-0.015,0.006l-0.036,0.021c-0.617,0.356 -0.998,1.017 -0.998,1.729l0,0.015l0,-0.015l0,26.966l19.976,0c2.189,-0.006 3.988,-1.805 3.994,-3.994Z" style="fill-opacity:0.2;fill-rule:nonzero;"/><path d="M4.567,26.03l39.952,-0c2.191,-0 3.994,1.803 3.994,3.994l0,39.952c0,2.191 -1.803,3.994 -3.994,3.994l-39.952,0c-2.191,0 -3.994,-1.803 -3.994,-3.994l0,-39.952c0,-2.191 1.803,-3.994 3.994,-3.994Z" style="fill:#0078d4;fill-rule:nonzero;"/><path d="M12.16,42.413c1.061,-2.261 2.775,-4.154 4.92,-5.435c2.376,-1.36 5.083,-2.038 7.82,-1.959c2.534,-0.055 5.036,0.588 7.23,1.857c2.065,1.231 3.729,3.035 4.788,5.193c1.153,2.379 1.728,4.997 1.678,7.64c0.055,2.761 -0.537,5.497 -1.729,7.988c-1.082,2.235 -2.796,4.104 -4.929,5.376c-2.28,1.31 -4.877,1.97 -7.506,1.908c-2.59,0.062 -5.148,-0.588 -7.394,-1.878c-2.082,-1.233 -3.765,-3.039 -4.848,-5.202c-1.162,-2.344 -1.745,-4.932 -1.699,-7.547c-0.05,-2.739 0.52,-5.454 1.669,-7.941Zm5.243,12.759c0.565,1.429 1.525,2.67 2.766,3.577c1.264,0.885 2.78,1.342 4.323,1.303c1.644,0.064 3.265,-0.408 4.618,-1.345c1.227,-0.907 2.162,-2.154 2.687,-3.586c0.59,-1.597 0.88,-3.288 0.857,-4.989c0.018,-1.718 -0.255,-3.426 -0.809,-5.052c-0.488,-1.462 -1.39,-2.753 -2.595,-3.715c-1.316,-0.984 -2.933,-1.485 -4.575,-1.417c-1.577,-0.04 -3.126,0.42 -4.425,1.315c-1.266,0.909 -2.247,2.159 -2.829,3.604c-1.286,3.313 -1.294,6.989 -0.021,10.308l0.003,-0.003Z" style="fill:#fff;fill-rule:nonzero;"/><rect x="0.573" y="2.06" width="95.88" height="95.88" style="fill:none;fill-rule:nonzero;"/></svg>