<?xml version="1.0" encoding="UTF-8" standalone="no"?><!DOCTYPE svg PUBLIC "-//W3C//DTD SVG 1.1//EN" "http://www.w3.org/Graphics/SVG/1.1/DTD/svg11.dtd"><svg width="100%" height="100%" viewBox="0 0 450 450" version="1.1" xmlns="http://www.w3.org/2000/svg" xmlns:xlink="http://www.w3.org/1999/xlink" xml:space="preserve" xmlns:serif="http://www.serif.com/" style="fill-rule:evenodd;clip-rule:evenodd;stroke-linecap:round;stroke-linejoin:round;stroke-miterlimit:1.5;"><g id="passitonstudy"><path id="left-hand" serif:id="left hand" d="M-69.544,212.444l20.593,-51.183l77.858,16.186c6.062,1.032 14.305,-2.123 18.642,-4.657l32.973,-41.104c1.581,-1.468 3.365,-3.216 5.389,-2.99c16.378,1.831 29.945,-3.179 44.546,-4.853c3.669,-1.379 7.703,-1.197 12.101,0.546l31.526,10.236c2.02,1.507 1.486,2.946 0.095,4.364l-48.995,30.111c-8.339,4.891 -15.502,10.592 -20.747,18.094c-6.854,7.224 -14.947,13.262 -23.863,18.514c-17.722,8.192 -36.633,12.345 -57.664,9.299l-92.454,-2.563Zm170.569,-51.448c-0.934,-1.273 -1.208,-2.83 -0.686,-4.729l12.084,-12.606c7.575,-2.415 15.149,-4.382 22.724,-5.341c0.451,1.478 0.453,2.768 0.044,3.888c-11.008,6.754 -21.879,13.686 -34.166,18.788Z" style="fill:#18506f;stroke:#fef4f4;stroke-width:0.75px;"/><text x="130.974px" y="198.164px" style="font-family:'Arial-BoldMT', 'Arial', sans-serif;font-weight:700;font-size:84.423px;fill:#379cd9;">P<tspan x="174.011px 227.972px 277.274px " y="198.164px 198.164px 198.164px ">ASS</tspan></text><text x="211.289px" y="268.92px" style="font-family:'Arial-BoldMT', 'Arial', sans-serif;font-weight:700;font-size:84.423px;fill:#379cd9;">O<tspan x="278.898px " y="268.92px ">N</tspan></text><text x="128.881px" y="269.951px" style="font-family:'Arial-BoldMT', 'Arial', sans-serif;font-weight:700;font-size:84.423px;fill:#379cd9;">I<tspan x="154.278px " y="269.951px ">T</tspan></text><path id="right-hand" serif:id="right hand" d="M461.326,322.826l22.429,-43.599c-31.493,-17.101 -62.852,-32.478 -93.588,-39.783c-5.054,-1.466 -10.47,-0.758 -16.071,1.051c-12.682,4.937 -22.972,13.347 -32.897,22.288l-4.296,3.877c-12.912,-1.394 -24.962,-4.729 -36.361,-9.526l-12.192,5.056c11.988,3.625 25.009,6.912 37.819,9.256l-2.21,1.286c-15.264,-4.354 -31.38,-6.593 -47.146,-10.966l-9.642,1.076c-2.813,1.556 -4.393,3.479 -4.286,5.902l28.293,5.991c6.451,2.141 13.022,2.62 19.65,2.326l-2.681,1.717l-17.765,-2.354c-9.166,-2.744 -19.144,-4.418 -29.794,-5.905c-3.372,0.295 -5.818,1.434 -7.632,3.151c-1.242,2.111 -1.885,4.222 -1.532,6.334c11.557,0.405 22.797,4.413 33.567,8.361l9.187,0.357l-0.871,2.052l-12.903,0.123c-9.435,0.524 -16.363,2.476 -20.044,6.278c-1.749,1.538 -2.683,3.678 -3.097,5.926c10.405,2.282 20.926,1.788 31.615,1.839c5.903,1.62 11.761,1.603 17.577,0.079l24.468,-0.419c3.633,0.328 7.122,-0.513 10.519,-2.098l48.402,-21.962c4.033,-0.978 8.025,-0.75 11.97,0.85c21.628,10.9 41.262,25.397 59.512,41.436Zm-110.705,-36.598l-5.78,-0.029c-1.667,0.018 -3.365,0.514 -5.084,1.336l-13.911,6.945l-20.703,6.086c-3.14,0.489 -6.303,0.676 -9.493,0.537c-1.424,-0.694 -2.238,-1.713 -2.382,-3.088c-0.263,-1.8 -0.351,-3.693 -0.018,-5.806c3.661,-6.777 9.113,-11.484 16.887,-13.508c5.852,-1.721 11.62,-3.626 16.951,-6.499l6.536,-4.767l1.574,1.455l-7.07,5.103c-5.107,2.659 -11.07,4.535 -17.386,6.09c-6.94,2.393 -12.29,6.258 -15.124,12.045c-0.562,1.63 -0.518,3.344 -0.281,5.187c0.006,0.999 0.514,1.535 1.32,1.799c2.783,0.128 5.464,-0.1 8.037,-0.7l20.071,-5.769l14.055,-6.879c1.902,-0.901 3.873,-1.442 5.935,-1.49l6.165,-0.052l-0.299,2.004Z" style="fill:#18506f;stroke:#fff;stroke-width:0.75px;"/></g></svg>