<?xml version="1.0" encoding="UTF-8" standalone="no"?>
<!DOCTYPE svg PUBLIC "-//W3C//DTD SVG 1.1//EN" "http://www.w3.org/Graphics/SVG/1.1/DTD/svg11.dtd">
<svg width="100%" height="100%" viewBox="0 0 100 100" version="1.1" xmlns="http://www.w3.org/2000/svg" xmlns:xlink="http://www.w3.org/1999/xlink" xml:space="preserve" xmlns:serif="http://www.serif.com/" style="fill-rule:evenodd;clip-rule:evenodd;stroke-linecap:round;stroke-linejoin:round;stroke-miterlimit:1.5;">
    <g id="pegasus">
        <g id="main" transform="matrix(1,0,0,1,-2.96507,1.59816)">
            <path d="M7.254,28.975L21.034,27.287C35.624,27.569 50.197,28.973 64.756,31.602C75.721,32.466 85.834,32.4 94.812,31.077L99.7,30.567L85.495,44.457C80.248,45.431 68.565,44.043 65.914,43.83C63.676,43.651 40.922,38.742 35.822,40.025C41.356,40.801 46.779,42.058 52,44.176C56.315,45.765 60.669,46.849 65.057,47.49L79.232,48.426L63.408,58.973C61.328,59.937 58.742,59.918 55.439,59.47C52.567,57.66 48.71,55.999 44.247,54.609C41.23,53.883 37.9,53.373 34.9,53.428C39.054,54.507 52.604,60.553 54.816,62.889C48.011,66.334 40.972,69.375 33.699,72.012C30.049,72.226 26.38,71.937 22.689,71.055C18.268,70.07 14.094,68.225 10.213,65.366L10.107,49.78L14.493,54.223L15.118,60.077C17.884,60.266 20.222,59.917 21.221,57.883C22.383,56.447 23.02,54.417 23.252,51.928C23.623,47.692 23.685,43.43 23.514,39.149C24.67,38.851 25.515,38.16 26.103,37.144C23.44,34.435 20.059,32.308 15.779,30.907C12.921,30.611 10.073,30.105 7.254,28.975" style="fill:rgb(63,102,204);stroke:black;stroke-width:0.75px;"/>
        </g>
        <g id="bottom-tip" serif:id="bottom tip" transform="matrix(1.03803,0,0,0.9694,-3.85942,3.77374)">
            <path d="M23.518,71.098C46.148,60.751 47.242,58.569 47.242,58.569C49.601,59.689 51.736,61.027 53.658,62.575C47.235,66.175 40.438,69.312 33.368,72.115C29.722,72.176 26.391,71.891 23.518,71.098" style="fill:rgb(212,179,125);stroke:black;stroke-width:0.75px;"/>
        </g>
        <g id="middle-tip" serif:id="middle tip" transform="matrix(1.05643,0,0,1.05597,-6.72389,-1.06844)">
            <path d="M52.312,56.87L67.904,47.701L78.417,48.495L63.802,58.396C61.514,59.577 61.684,59.559 58.846,60.464L52.312,56.87Z" style="fill:rgb(212,179,125);stroke:black;stroke-width:0.71px;"/>
        </g>
        <g id="top-tip" serif:id="top tip" transform="matrix(1.12413,0,0,1.04028,-13.5594,-0.0814253)">
            <path d="M73.298,44.272L85.346,32.383L98.088,31.083L85.448,44.404C81.247,44.685 77.507,44.706 73.298,44.272Z" style="fill:rgb(212,179,125);stroke:black;stroke-width:0.69px;"/>
        </g>
    </g>
</svg>
