<?xml version="1.0" encoding="UTF-8" standalone="no"?>
<!DOCTYPE svg PUBLIC "-//W3C//DTD SVG 1.1//EN" "http://www.w3.org/Graphics/SVG/1.1/DTD/svg11.dtd">
<svg width="100%" height="100%" viewBox="0 0 100 99" version="1.1" xmlns="http://www.w3.org/2000/svg" xmlns:xlink="http://www.w3.org/1999/xlink" xml:space="preserve" xmlns:serif="http://www.serif.com/" style="fill-rule:evenodd;clip-rule:evenodd;stroke-linejoin:round;stroke-miterlimit:1.41421;">
    <g id="pivotaltracker" transform="matrix(0.390746,0,0,0.390746,0.929139,0.324921)">
        <g transform="matrix(1,0,0,1,0.22561,0.23424)">
            <path d="M95.365,60.264L122.833,107.949C127.345,107.535 131.838,107.933 136.311,109.29L150.818,84.27L126.244,41.923L95.365,60.264" style="fill:rgb(220,117,56);"/>
        </g>
        <g transform="matrix(1,0,0,1,0.22561,0.23424)">
            <path d="M126.339,41.56C126.398,41.584 126.459,41.593 126.569,41.734L151.143,84.082C151.194,84.206 151.196,84.33 151.143,84.458L136.636,109.478C136.104,110.164 132.487,108.613 129.55,108.329C127.325,108.113 125.091,108.131 122.865,108.322C122.865,108.322 122.634,108.307 122.508,108.136C113.352,92.241 104.194,76.347 95.04,60.451C95.023,60.422 95.174,59.942 95.174,59.942C95.174,59.942 126.241,41.548 126.241,41.548C126.274,41.552 126.306,41.556 126.339,41.56ZM95.875,60.398L123.038,107.555C127.392,107.18 131.792,107.615 135.996,108.805C135.996,108.805 150.385,84.27 150.385,84.27L126.11,42.438C116.032,48.425 105.953,54.411 95.875,60.398Z" style="fill:rgb(220,117,56);fill-rule:nonzero;"/>
        </g>
        <g transform="matrix(0.484584,0.874745,-0.874745,0.484584,176.88,-45.9128)">
            <path d="M95.365,60.264L122.833,107.949C127.345,107.535 131.838,107.933 136.311,109.29L150.818,84.27L126.244,41.923L95.365,60.264" style="fill:rgb(220,117,56);"/>
        </g>
        <g transform="matrix(0.484584,0.874745,-0.874745,0.484584,176.88,-45.9128)">
            <path d="M95.061,60.048C95.083,60.014 95.112,59.992 95.14,59.964C105.526,53.982 115.748,47.721 126.053,41.6C126.362,41.461 126.456,41.583 126.569,41.734L151.143,84.082C151.2,84.209 151.198,84.334 151.143,84.458L136.636,109.478C136.136,110.153 132.492,108.613 129.55,108.329C127.325,108.113 125.091,108.131 122.865,108.322C122.865,108.322 122.634,108.307 122.508,108.136C113.352,92.241 104.195,76.347 95.04,60.451C94.962,60.316 94.977,60.155 95.061,60.048ZM123.038,107.555C126.225,107.28 131.253,107.462 135.996,108.805L150.385,84.27L126.11,42.438L95.875,60.398C104.929,76.117 113.984,91.836 123.038,107.555Z" style="fill:rgb(220,117,56);fill-rule:nonzero;"/>
        </g>
        <g transform="matrix(-0.507206,0.861825,-0.861825,-0.507206,301.681,81.5249)">
            <path d="M95.365,60.264L122.833,107.949C127.345,107.535 131.838,107.933 136.311,109.29L150.818,84.27L126.244,41.923L95.365,60.264" style="fill:rgb(220,117,56);"/>
        </g>
        <g transform="matrix(-0.507206,0.861825,-0.861825,-0.507206,301.681,81.5249)">
            <path d="M95.04,60.451C94.964,60.272 95.006,60.092 95.14,59.964C105.526,53.982 115.748,47.721 126.053,41.6C126.225,41.523 126.367,41.463 126.569,41.734L151.143,84.082C151.2,84.209 151.198,84.334 151.143,84.458L136.636,109.478C136.136,110.153 132.492,108.613 129.55,108.329C127.325,108.113 125.091,108.131 122.865,108.322C122.865,108.322 122.651,108.331 122.508,108.136C113.352,92.241 104.196,76.346 95.04,60.451ZM123.225,107.539C127.517,107.218 131.848,107.631 135.996,108.805C135.996,108.805 150.385,84.27 150.385,84.27L126.11,42.438L95.875,60.398L123.038,107.555C123.101,107.549 123.163,107.544 123.225,107.539Z" style="fill:rgb(220,117,56);fill-rule:nonzero;"/>
        </g>
        <g transform="matrix(-0.999983,0.00579125,-0.00579125,-0.999983,255.931,253.158)">
            <path d="M95.365,60.264L122.833,107.949C127.345,107.535 131.838,107.933 136.311,109.29L150.818,84.27L126.244,41.923L95.365,60.264" style="fill:rgb(220,117,56);"/>
        </g>
        <g transform="matrix(-0.999983,0.00579125,-0.00579125,-0.999983,255.931,253.158)">
            <path d="M136.205,109.649C135.375,109.404 135.376,109.404 134.542,109.19C130.726,108.261 126.776,107.986 122.865,108.322C122.865,108.322 122.651,108.331 122.508,108.136C113.352,92.241 104.194,76.347 95.04,60.451C95.023,60.422 95.174,59.942 95.174,59.942C95.174,59.942 126.143,41.561 126.143,41.561C126.313,41.537 126.458,41.591 126.569,41.734L151.143,84.082C151.194,84.206 151.196,84.33 151.143,84.458L136.636,109.478C136.53,109.614 136.388,109.678 136.205,109.649ZM150.385,84.27L126.11,42.438L95.875,60.398L123.038,107.555C127.41,107.178 131.794,107.616 135.996,108.805L136.135,108.846C140.885,100.654 145.635,92.462 150.385,84.27Z" style="fill:rgb(220,117,56);fill-rule:nonzero;"/>
        </g>
        <g transform="matrix(-0.479292,-0.877656,0.877656,-0.479292,77.5008,299.745)">
            <path d="M95.365,60.264L122.833,107.949C127.345,107.535 131.838,107.933 136.311,109.29L150.818,84.27L126.244,41.923L95.365,60.264" style="fill:rgb(220,117,56);"/>
        </g>
        <g transform="matrix(-0.479292,-0.877656,0.877656,-0.479292,77.5008,299.745)">
            <path d="M136.636,109.478C136.136,110.153 132.492,108.613 129.55,108.329C127.325,108.113 125.091,108.131 122.865,108.322C122.865,108.322 122.651,108.331 122.508,108.136C113.352,92.241 104.195,76.347 95.04,60.451C94.945,60.287 94.998,60.046 95.158,59.954C104.644,52.64 115.754,47.717 126.053,41.6C126.362,41.461 126.456,41.583 126.569,41.734L151.143,84.082C151.2,84.209 151.198,84.334 151.143,84.458C146.307,92.798 141.471,101.138 136.636,109.478ZM126.11,42.438L95.875,60.398L123.038,107.555C126.225,107.28 131.253,107.462 135.996,108.805C135.996,108.805 150.385,84.27 150.385,84.27C142.293,70.326 134.202,56.382 126.11,42.438Z" style="fill:rgb(220,117,56);fill-rule:nonzero;"/>
        </g>
        <g transform="matrix(0.495236,-0.868758,0.868758,0.495236,-45.61,175.009)">
            <path d="M95.365,60.264L122.833,107.949C127.345,107.535 131.838,107.933 136.311,109.29L150.818,84.27L126.244,41.923L95.365,60.264" style="fill:rgb(220,117,56);"/>
        </g>
        <g transform="matrix(0.495236,-0.868758,0.868758,0.495236,-45.61,175.009)">
            <path d="M151.175,84.154C151.199,84.269 151.191,84.35 151.143,84.458L136.636,109.478C136.136,110.153 132.492,108.613 129.55,108.329C127.325,108.113 125.091,108.131 122.865,108.322C122.865,108.322 122.634,108.307 122.508,108.136C113.352,92.241 104.195,76.347 95.04,60.451C94.945,60.287 94.998,60.046 95.158,59.954C104.644,52.64 115.754,47.717 126.053,41.6C126.362,41.461 126.456,41.583 126.569,41.734C134.773,55.873 144.499,69.232 151.175,84.154ZM126.11,42.438L95.875,60.398L123.038,107.555C126.225,107.28 131.253,107.462 135.996,108.805C135.996,108.805 150.385,84.27 150.385,84.27C142.293,70.326 134.202,56.382 126.11,42.438Z" style="fill:rgb(220,117,56);fill-rule:nonzero;"/>
        </g>
        <g transform="matrix(9.59702,0,0,9.59702,10.4182,11.9645)">
            <g id="Circles">
                <path d="M12,0C18.623,0 24,5.377 24,12C24,18.623 18.623,24 12,24C5.377,24 0,18.623 0,12C0,5.377 5.377,0 12,0ZM12.04,2.016C17.628,2.016 22.164,6.552 22.164,12.14C22.164,17.727 17.628,22.264 12.04,22.264C6.453,22.264 1.916,17.727 1.916,12.14C1.916,6.552 6.453,2.016 12.04,2.016Z" style="fill:rgb(82,131,176);"/>
            </g>
        </g>
    </g>
</svg>
