<?xml version="1.0" encoding="UTF-8" standalone="no"?>
<!DOCTYPE svg PUBLIC "-//W3C//DTD SVG 1.1//EN" "http://www.w3.org/Graphics/SVG/1.1/DTD/svg11.dtd">
<svg width="100%" height="100%" viewBox="0 0 100 100" version="1.1" xmlns="http://www.w3.org/2000/svg" xmlns:xlink="http://www.w3.org/1999/xlink" xml:space="preserve" xmlns:serif="http://www.serif.com/" style="fill-rule:evenodd;clip-rule:evenodd;stroke-linecap:round;stroke-linejoin:round;stroke-miterlimit:1.5;">
    <g id="pma" transform="matrix(1.5625,0,0,1.5625,0,0)">
        <path d="M4.025,48.074C16.648,12.976 16.981,12.846 16.981,12.846L15.323,47.283L4.025,48.074" style="fill:rgb(255,175,54);stroke:black;stroke-width:1px;"/>
        <g transform="matrix(1,0,0,1,-0.0681189,0.226141)">
            <path d="M16.418,45.915C25.572,31.434 31.321,17.422 35.192,3.669L33.02,45.409L16.418,45.915" style="fill:rgb(255,175,54);stroke:black;stroke-width:1px;"/>
        </g>
        <path d="M37.927,44.989L49.106,43.495C44.335,35.698 39.796,27.212 35.422,18.237C37.529,26.823 37.809,35.885 37.927,44.989" style="fill:rgb(255,175,54);stroke:black;stroke-width:1px;"/>
        <g transform="matrix(1,0,0,1,0.0698479,0.0618949)">
            <path d="M36.016,4.231L59.862,42.864L44.977,34.719C43.659,33.998 40.614,29.258 40.686,27.455C40.451,19.546 39.15,11.773 36.016,4.231" style="fill:rgb(255,175,54);stroke:black;stroke-width:1px;"/>
        </g>
        <path d="M3.948,50.372L62.655,43.186C53.585,45.463 47.423,49.667 42.911,54.964C28.793,53.135 16.563,52.499 9.247,57.579C6.173,56.211 4.322,53.875 3.948,50.372" style="fill:rgb(113,113,160);stroke:black;stroke-width:1px;"/>
        <path d="M46.453,55.502C47.128,55.507 47.072,55.483 47.219,55.792C47.363,56.097 47.126,56.493 46.759,56.506C44.74,56.477 42.656,56.711 40.999,57.84C40.939,57.881 40.209,58.533 39.31,58.98C37.571,59.846 35.555,59.97 33.599,59.751C33.599,59.751 33.169,59.617 33.155,59.274C33.128,58.615 34.303,58.861 35.357,58.849C37.097,58.831 38.866,58.354 40.217,57.171C40.217,57.171 40.954,56.645 41.673,56.328C43.162,55.671 44.825,55.498 46.453,55.502Z" style="fill-rule:nonzero;"/>
        <path d="M20.648,57.395C20.914,57.399 21.179,57.408 21.444,57.427C21.709,57.446 21.997,57.509 22.096,57.762C22.232,58.112 22.15,58.49 21.479,58.433C19.284,58.266 17.086,58.79 15.186,59.906C14.68,60.195 14.589,60.232 14.296,60.364C12.451,61.2 10.368,61.433 8.317,61.264C8.317,61.264 7.954,61.181 7.876,60.9C7.671,60.167 9.197,60.369 10.359,60.298C13.767,60.088 16.379,57.521 20.2,57.399C20.35,57.396 20.499,57.394 20.648,57.395Z" style="fill-rule:nonzero;"/>
        <path d="M14.413,57.131C14.694,57.188 14.717,57.278 14.775,57.382C15.203,58.149 13.08,58.574 11.921,58.957C8.626,60.024 4.973,58.057 1.675,59.805C1.675,59.805 1.362,59.924 1.147,59.768C0.874,59.57 0.891,59.109 1.206,58.921C1.676,58.672 1.723,58.663 1.961,58.567C3.96,57.759 6.226,57.981 8.292,58.318C8.876,58.404 8.962,58.399 9.276,58.404C10.981,58.429 12.575,57.57 14.212,57.142C14.212,57.142 14.275,57.117 14.413,57.131Z" style="fill-rule:nonzero;"/>
    </g>
</svg>
