<?xml version="1.0" encoding="UTF-8" standalone="no"?><!DOCTYPE svg PUBLIC "-//W3C//DTD SVG 1.1//EN" "http://www.w3.org/Graphics/SVG/1.1/DTD/svg11.dtd"><svg width="100%" height="100%" viewBox="0 0 100 100" version="1.1" xmlns="http://www.w3.org/2000/svg" xmlns:xlink="http://www.w3.org/1999/xlink" xml:space="preserve" xmlns:serif="http://www.serif.com/" style="fill-rule:evenodd;clip-rule:evenodd;stroke-linejoin:round;stroke-miterlimit:2;"><g id="powershell"><path d="M41.348,87.408c-11.727,-0.004 -23.456,0.05 -35.183,-0.027c-5.948,-0.039 -7.03,-1.458 -5.69,-7.343c4.538,-19.959 9.223,-39.882 13.66,-59.863c1.19,-5.358 3.757,-7.727 9.432,-7.675c23.454,0.221 46.91,0.071 70.366,0.096c5.884,0.006 6.871,1.279 5.55,7.314c-4.279,19.597 -8.609,39.183 -12.991,58.757c-1.644,7.325 -3.536,8.723 -11.152,8.739c-11.332,0.023 -22.663,0.007 -33.992,0.002Z" style="fill:#0277bd;fill-rule:nonzero;"/><path d="M52.202,49.837c-1.267,-1.431 -2.321,-2.639 -3.19,-3.608c-5.062,-5.683 -9.7,-10.979 -14.714,-16.394c-2.296,-2.477 -3.027,-4.883 -0.271,-7.329c2.723,-2.416 5.4,-2.204 7.898,0.577c6.958,7.744 13.908,15.496 20.981,23.134c2.642,2.852 2.025,4.791 -0.883,6.906c-11.156,8.127 -22.274,16.307 -33.354,24.537c-2.492,1.848 -4.869,2.311 -6.884,-0.418c-2.22,-3.011 -0.166,-4.802 2.138,-6.488c8.239,-6.027 16.464,-12.079 24.654,-18.177c1.142,-0.848 2.663,-2.021 3.625,-2.739Z" style="fill:#fafafa;fill-rule:nonzero;"/><path d="M45.312,77.083c-2.343,0 -3.645,-2.083 -3.645,-4.166c0,-2.084 1.302,-4.167 3.645,-4.167l19.792,0c2.344,0 3.646,2.083 3.646,4.167c0,2.083 -1.302,4.166 -3.646,4.166l-19.792,0Z" style="fill:#fafafa;fill-rule:nonzero;"/></g></svg>