<?xml version="1.0" encoding="UTF-8" standalone="no"?>
<!DOCTYPE svg PUBLIC "-//W3C//DTD SVG 1.1//EN" "http://www.w3.org/Graphics/SVG/1.1/DTD/svg11.dtd">
<svg width="100%" height="100%" viewBox="0 0 500 500" version="1.1" xmlns="http://www.w3.org/2000/svg" xmlns:xlink="http://www.w3.org/1999/xlink" xml:space="preserve" xmlns:serif="http://www.serif.com/" style="fill-rule:evenodd;clip-rule:evenodd;stroke-linecap:round;stroke-linejoin:round;stroke-miterlimit:1.5;">
    <g transform="matrix(1,0,0,0.994156,39.3929,41.0723)">
        <path d="M192.396,419.789L63.614,419.789C28.709,419.789 0.37,391.283 0.37,356.172L0.37,64.14C0.37,29.029 28.709,0.523 63.614,0.523L357.6,0.523C392.506,0.523 420.845,29.029 420.845,64.14L420.845,356.172C420.845,391.283 392.506,419.789 357.6,419.789L242.404,419.789C276.771,400.08 301.691,377.17 310.362,348.753C313.762,340.435 316.585,332.117 316.878,323.799C316.559,322.282 315.162,322.167 313.108,322.905C294.891,339.063 274.665,353.682 253.779,367.795C226.565,383.427 205.169,400.523 192.396,419.789ZM233.49,345.452C242.746,336.676 250.932,327.621 257.506,318.143C258.937,315.004 258.505,312.045 256.209,309.265C246.697,301.443 234.862,295.531 221.653,290.751C214.474,289.541 207.798,289.48 201.823,291.024C187.42,293.85 174.496,299.808 163.197,309.211C160.842,312.103 161.219,314.668 162.771,317.092C167.728,326.282 174.412,334.651 182.804,342.207C184.923,344.197 186.309,344.193 186.499,340.931L186.673,335.585C187.37,333.468 188.571,333.258 190.349,335.229L208.775,362.907C210.156,365.448 211.404,365.896 212.416,362.591C216.69,352.739 221.377,343.583 226.658,335.424C228.345,334.253 229.512,334.406 229.918,336.497L230.288,342.717C230.911,345.332 231.92,346.466 233.49,345.452ZM173.264,402.025C176.19,395.726 176.341,395.214 176.341,395.214C177.721,390.146 177.421,385.316 174.77,380.821C170.038,373.12 163.902,365.952 156.146,359.398C139.292,347.038 122.39,333.637 105.455,319.493C103.215,318.836 102.51,319.722 102.891,321.7C106.74,338.315 118.085,352.066 132.716,364.562C136.944,368.776 145.372,376.611 159.975,389.771C163.497,393.625 165.954,398.125 167.159,403.385C169.554,407.552 171.618,407.479 173.264,402.025ZM160.172,213.466C192.622,216.06 225.158,216.155 257.853,211.657C266.555,211.67 268.989,213.535 264.39,217.479C255.92,226.499 244.07,233.6 229.664,239.252C223.457,243.712 219.335,249.43 218.483,257.122C216.667,263.092 216.961,268.047 220.252,271.562C232.074,284.08 246.908,290.913 263.427,294.565C270.718,295.788 277.368,295.395 283.302,293.198C290.386,290.66 296.418,287.012 299.75,280.518C301.78,275.803 302.331,270.283 300.849,263.658C295.784,252.537 289.87,242.384 283.312,231.818L296.145,231.597C304.58,230.657 311.486,226.099 317.206,218.735C328.958,206.676 338.344,193.181 342.218,176.34C344.295,170.104 343.875,163.704 341.881,157.2C334.386,142.953 325.321,131.17 315.789,120.121C310.708,126.86 305.363,131.982 299.853,136.088C295.193,141.57 288.54,145.56 280.097,148.211C264.875,153.785 258.932,167.677 255.513,183.83C250.441,169.505 247.73,154.368 247.813,138.27C249.008,133.837 251.545,130.406 255.942,128.364C273.637,123.239 291.066,117.946 306.865,111.616C308.942,110.166 309.688,108.189 307.965,105.237C304.532,95.958 298.914,86.929 290.593,78.208C287.865,76.065 284.291,74.689 279.528,74.389L269.813,73.727C267.245,73.277 266.636,71.893 268.351,69.4L272.59,62.828C273.7,60.492 272.569,60.083 270.285,60.664C263.585,65.652 255.195,70.927 246.055,76.33C242.993,78.659 241.397,78.313 242.521,73.007L252.509,45.885C253.123,44.168 252.574,43.453 250.609,43.958C235.145,54.705 222.092,68.747 211.874,86.02C200.748,74.172 189.34,62.643 175.619,53.724C175.744,61.918 178.401,69.316 181.571,76.552C182.851,80.639 181.796,80.957 179.035,78.524C163.646,72.951 152.589,67.245 143.276,61.486C144.427,64.763 146.037,67.838 148.43,70.568C151.9,74.527 150.69,75.286 146.985,74.339C127.075,79.911 117.934,91.321 111.714,104.316C108.997,107.177 108.967,109.287 112.601,110.374C126.134,118.339 142.248,123.415 157.95,128.954C164.236,131.717 167.379,135.245 166.638,139.72C168.79,159.204 168.232,178.417 164.943,197.357C164.215,202.752 162.843,202.695 160.887,197.682C158.793,187.234 156.597,176.24 154.325,164.841C152.576,159.335 148.988,154.642 141.869,151.511C138.247,151.613 134.894,150.682 132.115,147.543C124.415,145.698 114.364,137.651 101.594,122.433C93.213,132.256 85.438,142.99 78.995,155.73C75.777,161.435 74.8,167.825 77.933,175.474C84.556,195.282 95.355,213.051 110.896,228.507C117.061,236.006 125.46,236.693 134.943,234.077C129.486,244.244 124.559,254.614 122.007,265.893C118.314,278.385 122.336,286.359 133.875,289.928C144.624,296.2 154.535,295.935 163.957,291.858C178.263,288.296 190.29,281.374 200.517,271.795C205.8,267.769 205.962,261.287 202.176,252.911C199.363,246.264 193.976,240.933 186.278,236.784C175.768,233.797 166.253,229.109 158.524,221.368C155.735,219.282 154.526,216.938 160.172,213.466Z" style="fill:rgb(129,56,138);stroke:rgb(129,56,138);stroke-width:1px;"/>
    </g>
</svg>
