<?xml version="1.0" encoding="UTF-8" standalone="no"?>
<!DOCTYPE svg PUBLIC "-//W3C//DTD SVG 1.1//EN" "http://www.w3.org/Graphics/SVG/1.1/DTD/svg11.dtd">
<svg width="100%" height="100%" viewBox="0 0 100 100" version="1.1" xmlns="http://www.w3.org/2000/svg" xmlns:xlink="http://www.w3.org/1999/xlink" xml:space="preserve" xmlns:serif="http://www.serif.com/" style="fill-rule:evenodd;clip-rule:evenodd;stroke-linejoin:round;stroke-miterlimit:1.41421;">
    <g id="presentation">
        <g transform="matrix(1.51271,0,0,1.51271,-25.1999,-30.3303)">
            <path d="M76.822,33.873L74.777,33.873L74.777,63.534L53.146,63.534L53.146,66.704L63.211,79.737C63.366,79.938 63.435,80.193 63.403,80.445C63.371,80.696 63.239,80.925 63.038,81.08C62.709,81.334 62.325,81.631 61.997,81.885C61.797,82.039 61.544,82.108 61.294,82.075C61.044,82.043 60.817,81.913 60.663,81.713L49.992,67.895L39.32,81.713C39.166,81.913 38.939,82.043 38.689,82.075C38.439,82.108 38.186,82.039 37.986,81.885C37.658,81.631 37.274,81.334 36.945,81.08C36.744,80.925 36.613,80.696 36.58,80.445C36.548,80.193 36.617,79.938 36.772,79.737L47.115,66.344L47.115,63.534L24.561,63.534L24.561,33.873L23.178,33.873L23.178,27.801L76.822,27.801L76.822,33.873ZM71.047,34.786L28.482,34.786L28.482,60.868L71.047,60.868L71.047,34.786Z" style="fill:white;"/>
        </g>
        <g transform="matrix(1.51271,0,0,1.51271,-25.1999,-30.3303)">
            <path d="M76.873,27.644C76.935,27.675 76.976,27.727 76.987,27.801L76.987,33.873C76.973,33.964 76.923,34.023 76.822,34.039L74.942,34.039C74.942,34.039 74.934,63.585 74.934,63.585C74.902,63.646 74.851,63.687 74.777,63.699L53.311,63.699L53.311,66.648C56.666,70.992 60.183,75.216 63.375,79.681C63.687,80.142 63.604,80.807 63.183,81.176C62.697,81.581 62.208,82.074 61.708,82.209C61.283,82.325 60.808,82.163 60.532,81.815L49.992,68.166C46.467,72.73 43.108,77.427 39.416,81.857C39.052,82.273 38.392,82.362 37.93,82.048C37.415,81.68 36.814,81.331 36.556,80.881C36.336,80.497 36.372,79.994 36.641,79.637L46.95,66.288L46.95,63.699L24.561,63.699C24.471,63.685 24.412,63.634 24.396,63.534L24.396,34.039L23.127,34.031C23.065,33.999 23.024,33.948 23.013,33.873L23.013,27.801C23.027,27.711 23.077,27.652 23.178,27.636L76.822,27.636C76.839,27.639 76.856,27.641 76.873,27.644ZM23.343,27.967L23.343,33.708L24.561,33.708C24.651,33.723 24.71,33.773 24.726,33.873L24.726,63.368L47.166,63.377C47.228,63.408 47.269,63.459 47.28,63.534L47.28,66.344C47.272,66.397 47.272,66.397 47.246,66.445C43.79,70.92 40.167,75.27 36.88,79.87C36.659,80.195 36.718,80.664 37.015,80.925C37.768,81.552 38.653,82.29 39.19,81.611L49.861,67.794C49.947,67.712 50.033,67.71 50.122,67.794C53.687,72.411 57.084,77.162 60.818,81.643C61.075,81.935 61.54,81.997 61.864,81.777C62.664,81.206 63.604,80.535 63.08,79.837L53.015,66.805C52.99,66.758 52.99,66.758 52.981,66.704L52.981,63.534C52.995,63.443 53.045,63.384 53.146,63.368L74.611,63.368L74.619,33.822C74.651,33.761 74.702,33.72 74.777,33.708L76.657,33.708L76.657,27.967C58.886,27.967 41.114,27.967 23.343,27.967ZM71.098,34.629C71.16,34.66 71.2,34.712 71.212,34.786L71.212,60.868C71.198,60.958 71.148,61.017 71.047,61.033L28.482,61.033C28.392,61.019 28.333,60.969 28.317,60.868L28.317,34.786C28.331,34.696 28.381,34.637 28.482,34.621L71.047,34.621C71.064,34.624 71.081,34.626 71.098,34.629ZM28.647,34.952L28.647,60.703L70.882,60.703L70.882,34.952C56.804,34.952 42.726,34.952 28.647,34.952Z" style="fill-rule:nonzero;"/>
        </g>
        <g transform="matrix(1.51271,0,0,1.51271,-25.2079,-26.2893)">
            <rect x="46.832" y="22.835" width="6.205" height="2.295" style="fill:white;"/>
        </g>
        <g transform="matrix(1.51271,0,0,1.51271,-25.2079,-26.2893)">
            <path d="M53.057,22.671C53.13,22.684 53.187,22.738 53.202,22.815C53.248,23.586 53.203,24.359 53.203,25.13C53.198,25.211 53.143,25.279 53.057,25.294C50.986,25.42 48.907,25.296 46.832,25.296C46.751,25.291 46.684,25.236 46.668,25.15C46.621,24.38 46.667,23.607 46.667,22.835C46.672,22.755 46.726,22.687 46.812,22.671C48.89,22.545 50.979,22.545 53.057,22.671ZM46.997,23L46.997,24.965L52.872,24.965L52.872,23C50.914,23 48.956,23 46.997,23Z" style="fill-rule:nonzero;"/>
        </g>
        <g transform="matrix(1.51871,0,0,1.50676,-25.519,-30.0876)">
            <rect x="28.579" y="34.768" width="42.391" height="26.185"/>
        </g>
        <g transform="matrix(0.13497,0,0,0.136707,36.6649,28.1552)">
            <path d="M190.039,25.578L190.039,35.4L184.185,35.439C177.776,36.931 173.272,40.116 170.85,45.153L120.647,173.252L80.796,173.252L27.807,41.924C25.734,37.581 22.504,35.426 18.104,35.487L10.102,35.487L10.102,25.688L91.009,25.688L91.009,35.731L80.731,35.731C76.195,36.645 75.239,39.102 77.821,43.083L87.911,52.154C91.388,55.249 94.514,58.75 96.772,63.254C97.761,66.73 96.576,68.429 92.561,68.052C90.207,67.831 88.199,66.935 85.586,65.799C82.934,65.006 80.176,64.612 77.223,64.831C75.292,64.891 74.082,65.693 73.536,67.178C72.786,69.412 72.962,71.462 74.126,73.313C79.111,79.649 85.842,83.402 93.509,85.769C98.528,88.42 102.232,92.03 105.174,96.354L110.594,112.97L105.28,111.315C102.906,110.61 101.402,109.089 100.712,106.802L97.891,100.433C97.643,99.503 96.895,99.079 95.67,99.14C94.271,99.233 93.554,100.039 93.588,101.628C93.445,107.785 92.127,113.304 88.874,117.772C88.348,121.338 89.765,122.042 92.83,120.318L100.005,115.548C101.368,115.396 102.706,115.5 104.05,115.711C106.107,116.032 107.956,116.628 109.96,117.612C111.536,118.658 112.93,119.965 114.162,121.5L120.218,138.665L126.008,139.174L123.496,131.279C121.217,125.226 122.404,120.25 125.134,115.754L138.583,98.283C139.782,93.191 140.344,88.861 135.896,90.512L128.92,93.975C126.564,94.488 124.238,94.948 123.552,92.6C123.375,89.209 124.286,86.24 125.968,83.57L140.071,63.954C141.277,61.516 140.226,59.591 138.452,57.83C137.534,56.528 136.228,56.111 134.367,56.96L121.636,65.187C119.858,66.929 117.976,67.067 115.989,65.6C113.37,62.114 114.252,58.784 116.803,55.529L125.636,42.325C128.244,37.143 125.69,35.208 120.091,35.189L109.28,35.189L109.28,25.578L190.039,25.578ZM85.958,117.073C88.841,111.841 91.04,106.381 90.268,99.925C88.01,99.257 85.38,98.848 82.354,98.716C80.268,98.625 71.205,103.007 75.329,111.732C77.742,114.475 81.23,116.302 85.958,117.073Z" style="fill:rgb(149,118,80);"/>
        </g>
    </g>
</svg>
