<?xml version="1.0" encoding="UTF-8" standalone="no"?><!DOCTYPE svg PUBLIC "-//W3C//DTD SVG 1.1//EN" "http://www.w3.org/Graphics/SVG/1.1/DTD/svg11.dtd"><svg width="100%" height="100%" viewBox="0 0 100 100" version="1.1" xmlns="http://www.w3.org/2000/svg" xmlns:xlink="http://www.w3.org/1999/xlink" xml:space="preserve" xmlns:serif="http://www.serif.com/" style="fill-rule:evenodd;clip-rule:evenodd;stroke-linecap:round;stroke-linejoin:round;stroke-miterlimit:10;"><path id="redcap" d="M21.312,57.738l-1.385,-12.696c-0.68,-4.698 -0.28,-8.728 1.307,-12.026c5.678,-11.172 14.179,-18.399 26.934,-19.683c0.042,-1.056 0.855,-1.797 2.262,-2.296c1.435,0.04 2.282,0.344 2.513,0.925c10.728,-2.037 20.127,-0.829 27.847,4.484c8.582,8.875 12.658,19.111 13.727,30.255l-11.29,3.733c-3.202,1.111 -5.84,2.878 -7.775,5.459c-3.511,8.015 -8.452,15.11 -14.054,21.781c-3.54,4.938 -8.003,7.619 -13.317,8.223c-4.425,0.985 -8.842,1.076 -13.252,0.417l-17.793,-5.672c-1.281,2.782 -2.81,5.421 -5.476,7.413c-1.844,1.127 -3.685,1.321 -5.516,-0.329c-1.038,-1.447 -0.39,-2.952 0.758,-4.475l12.516,-18.477c1.809,-1.892 2.669,-4.16 1.994,-7.036" style="fill:#a72a2f;stroke:#a72a2f;stroke-width:0.75px;"/></svg>