<?xml version="1.0" encoding="UTF-8" standalone="no"?>
<!DOCTYPE svg PUBLIC "-//W3C//DTD SVG 1.1//EN" "http://www.w3.org/Graphics/SVG/1.1/DTD/svg11.dtd">
<svg width="100%" height="100%" viewBox="0 0 275 275" version="1.1" xmlns="http://www.w3.org/2000/svg" xmlns:xlink="http://www.w3.org/1999/xlink" xml:space="preserve" xmlns:serif="http://www.serif.com/" style="fill-rule:evenodd;clip-rule:evenodd;stroke-linejoin:round;stroke-miterlimit:2;">
    <g transform="matrix(1,0,0,1,9.5,19.5)">
        <path d="M200.134,0L255.689,117.514L200.134,235.032L152.839,235.032L208.394,117.514L152.839,0L200.134,0ZM110.08,99.836L130.136,61.744L127.846,52.876L102.847,0L55.552,0L104.199,102.898L110.08,99.836ZM127.846,174.269L110.513,135.235L104.199,132.134L55.552,235.032L102.847,235.032L127.846,182.153L127.846,174.269Z" style="fill:rgb(215,30,0);fill-rule:nonzero;"/>
        <path d="M152.842,235.032L97.287,117.514L152.842,0L200.137,0L144.582,117.514L200.137,235.032L152.842,235.032ZM55.555,235.032L-0,117.514L55.555,0L102.851,0L47.295,117.514L102.851,235.032L55.555,235.032Z" style="fill:rgb(194,26,0);fill-rule:nonzero;"/>
    </g>
</svg>
