<?xml version="1.0" encoding="UTF-8" standalone="no"?>
<!DOCTYPE svg PUBLIC "-//W3C//DTD SVG 1.1//EN" "http://www.w3.org/Graphics/SVG/1.1/DTD/svg11.dtd">
<svg width="100%" height="100%" viewBox="0 0 50 50" version="1.1" xmlns="http://www.w3.org/2000/svg" xmlns:xlink="http://www.w3.org/1999/xlink" xml:space="preserve" xmlns:serif="http://www.serif.com/" style="fill-rule:evenodd;clip-rule:evenodd;stroke-linejoin:round;stroke-miterlimit:2;">
    <g id="circle3828" transform="matrix(0.39458,0,0,0.39458,3.26956,5.26974)">
        <circle cx="55.069" cy="50" r="50" style="fill:rgb(215,30,0);"/>
    </g>
    <g id="path3830" transform="matrix(0.39458,0,0,0.39458,3.26956,5.26974)">
        <path d="M90.429,14.641C109.958,34.17 109.958,65.831 90.429,85.359C70.9,104.889 39.237,104.889 19.709,85.359L90.429,14.641Z" style="fill:rgb(194,26,0);fill-rule:nonzero;"/>
    </g>
    <g id="polygon3832" transform="matrix(0.39458,0,0,0.39458,3.26956,5.26974)">
        <path d="M59.608,49.99L74.668,81.859L61.838,81.859L46.789,49.99L61.838,18.14L74.668,18.14L59.608,49.99Z" style="fill:white;fill-rule:nonzero;"/>
    </g>
    <g id="polygon3834" transform="matrix(0.39458,0,0,0.39458,3.26956,5.26974)">
        <path d="M74.668,81.859L89.718,49.99L74.668,18.14L68.258,31.7L76.898,49.99L68.258,68.291L74.668,81.859Z" style="fill:rgb(183,183,183);fill-rule:nonzero;"/>
    </g>
    <g id="polygon3836" transform="matrix(0.39458,0,0,0.39458,3.26956,5.26974)">
        <path d="M33.239,49.99L48.299,81.859L35.469,81.859L20.419,49.99L35.469,18.14L48.299,18.14L33.239,49.99Z" style="fill:white;fill-rule:nonzero;"/>
    </g>
    <g id="polygon3838" transform="matrix(0.39458,0,0,0.39458,3.26956,5.26974)">
        <path d="M48.659,46.04L55.069,32.47L48.299,18.14L41.879,31.71L48.659,46.04Z" style="fill:rgb(183,183,183);fill-rule:nonzero;"/>
    </g>
    <g id="polygon3840" transform="matrix(0.39458,0,0,0.39458,3.26956,5.26974)">
        <path d="M41.879,68.291L48.299,81.859L55.069,67.529L48.659,53.961L41.879,68.291Z" style="fill:rgb(183,183,183);fill-rule:nonzero;"/>
    </g>
</svg>
