<?xml version="1.0" encoding="UTF-8" standalone="no"?>
<!DOCTYPE svg PUBLIC "-//W3C//DTD SVG 1.1//EN" "http://www.w3.org/Graphics/SVG/1.1/DTD/svg11.dtd">
<svg width="100%" height="100%" viewBox="0 0 120 120" version="1.1" xmlns="http://www.w3.org/2000/svg" xmlns:xlink="http://www.w3.org/1999/xlink" xml:space="preserve" xmlns:serif="http://www.serif.com/" style="fill-rule:evenodd;clip-rule:evenodd;stroke-linecap:round;stroke-linejoin:round;stroke-miterlimit:1.5;">
    <g id="redhat">
        <g transform="matrix(1,0,0,1,1.48661,15.7258)">
            <path d="M33.974,4.937C30.929,11.928 28.277,19.295 25.771,26.804C32.117,35.83 41.147,42.156 51.997,46.605C56.215,48.335 62.422,50.153 70.584,51.18C76.423,51.579 82.294,51.288 88.209,50.059C93.512,48.791 96.504,45.744 96.987,40.767C95.609,33.053 94.04,25.45 91.629,18.341C91.301,15.779 90.201,13.777 88.536,12.185C80.962,7.106 72.627,3.517 63.803,0.886C61.251,0.126 58.862,0.258 56.671,1.468C56.108,2.488 55.033,3.3 53.395,3.884C52.224,4.384 50.721,4.471 48.566,4.185C46.68,4.378 44.618,3.488 42.372,1.462C38.642,1.101 35.882,2.323 33.974,4.937" style="fill:rgb(238,0,0);stroke:rgb(238,0,0);stroke-width:1px;"/>
        </g>
        <g transform="matrix(1,0,0,1,1.48661,15.7258)">
            <path d="M23.262,31.36C14.436,31.454 7.173,33.504 2.405,38.673C0.08,42.097 -0.132,46.023 1.82,50.462C6.603,60.681 15.27,67.718 26.338,72.788C38.294,79.475 50.782,85.029 64.602,86.506C76.425,88.666 87.804,88.862 98.483,85.969C107.877,83.643 113.56,78.836 115.618,71.606C117.002,67.105 116.854,62.81 114.901,58.759C110.329,52.692 104.757,47.638 98.174,43.609C99.185,46.79 99.415,49.856 98.633,52.771C97.379,57.629 94.297,60.798 89.148,61.745C81.085,64.379 74.729,65.144 66.036,63.592C57.957,62.15 49.837,60.127 41.549,55.521C35.286,52.364 29.875,48.224 25.733,42.621C23.159,39.461 22.53,35.641 23.262,31.36" style="fill:rgb(238,0,0);stroke:rgb(238,0,0);stroke-width:1px;"/>
        </g>
        <g transform="matrix(1,0,0,1,1.48661,15.7258)">
            <path d="M25.564,27.555L23.685,33.14C23.5,34.823 23.504,36.639 23.83,38.68C26.198,44.672 31.588,49.6 39.393,53.678C47.316,58.348 55.698,61.089 64.537,62.812C71.713,64.21 78.175,64.486 84.078,62.497C91.281,61.663 96.045,58.713 98.369,53.649C98.976,49.157 98.473,45.166 97.172,41.331C96.867,45.995 94.271,48.797 89.59,49.903C81.854,52.285 73.693,52.083 65.332,50.623C54.823,48.919 47.02,45.628 40.962,41.415C34.586,38.127 29.331,33.393 25.564,27.555Z" style="stroke:black;stroke-width:1px;"/>
        </g>
    </g>
</svg>
