<?xml version="1.0" encoding="UTF-8" standalone="no"?><!DOCTYPE svg PUBLIC "-//W3C//DTD SVG 1.1//EN" "http://www.w3.org/Graphics/SVG/1.1/DTD/svg11.dtd"><svg width="100%" height="100%" viewBox="0 0 724 724" version="1.1" xmlns="http://www.w3.org/2000/svg" xmlns:xlink="http://www.w3.org/1999/xlink" xml:space="preserve" xmlns:serif="http://www.serif.com/" style="fill-rule:evenodd;clip-rule:evenodd;stroke-linejoin:round;stroke-miterlimit:2;"><path d="M361.453,567.437c-199.124,0 -360.547,-108.109 -360.547,-241.468c-0,-133.36 161.423,-241.469 360.547,-241.469c199.125,0 360.547,108.109 360.547,241.469c0,133.359 -161.422,241.468 -360.547,241.468Zm55.188,-388.531c-151.352,0 -274.047,73.908 -274.047,165.078c0,91.17 122.695,165.078 274.047,165.078c151.351,0 263.046,-50.529 263.046,-165.078c0,-114.513 -111.695,-165.078 -263.046,-165.078Z" style="fill:url(#_Linear1);"/><path d="M550,458.5c0,0 21.822,6.585 34.5,13c4.399,2.226 12.01,6.668 17.5,12.5c5.378,5.712 8,11.5 8,11.5l86,145l-139,0.062l-65,-122.062c0,0 -13.31,-22.869 -21.5,-29.5c-6.832,-5.531 -9.745,-7.5 -16.5,-7.5l-33.026,0l0.026,158.974l-123,0.052l0,-406.088l247,0c0,0 112.5,2.029 112.5,109.062c0,107.033 -107.5,115 -107.5,115Zm-53.5,-135.976l-74.463,-0.048l-0.037,69.05l74.5,-0.024c0,0 34.5,-0.107 34.5,-35.125c0,-35.722 -34.5,-33.853 -34.5,-33.853Z" style="fill:url(#_Linear2);"/><defs><linearGradient id="_Linear1" x1="0" y1="0" x2="1" y2="0" gradientUnits="userSpaceOnUse" gradientTransform="matrix(721.094,482.937,-482.937,721.094,0.906,84.5)"><stop offset="0" style="stop-color:#cbced0;stop-opacity:1"/><stop offset="1" style="stop-color:#84838b;stop-opacity:1"/></linearGradient><linearGradient id="_Linear2" x1="0" y1="0" x2="1" y2="0" gradientUnits="userSpaceOnUse" gradientTransform="matrix(398,406.124,-406.124,398,298,234.438)"><stop offset="0" style="stop-color:#276dc3;stop-opacity:1"/><stop offset="1" style="stop-color:#165caa;stop-opacity:1"/></linearGradient></defs></svg>