<?xml version="1.0" encoding="UTF-8" standalone="no"?><!DOCTYPE svg PUBLIC "-//W3C//DTD SVG 1.1//EN" "http://www.w3.org/Graphics/SVG/1.1/DTD/svg11.dtd"><svg width="100%" height="100%" viewBox="0 0 100 100" version="1.1" xmlns="http://www.w3.org/2000/svg" xmlns:xlink="http://www.w3.org/1999/xlink" xml:space="preserve" xmlns:serif="http://www.serif.com/" style="fill-rule:evenodd;clip-rule:evenodd;stroke-linejoin:round;stroke-miterlimit:2;"><path d="M5.555,27.26l0,45.179l46.151,-0l45.174,-45.174l-91.325,0l0,-0.005Z" style="fill:url(#_Linear1);fill-rule:nonzero;"/><path d="M64.012,67.821l0,3.369l0.509,0l0,-1.462l0.572,-0l0.921,1.462l0.573,0l-0.986,-1.462c0.493,-0.061 0.89,-0.348 0.89,-0.954c0,-0.664 -0.406,-0.953 -1.207,-0.953l-1.272,-0Zm0.509,0.445l0.699,0c0.344,0 0.731,0.055 0.731,0.476c0,0.526 -0.392,0.573 -0.827,0.573l-0.603,-0l0,-1.049Zm0.636,-1.685c-1.613,-0 -2.989,1.243 -2.989,2.924c0,1.694 1.376,2.956 2.989,2.956c0.002,-0 0.005,-0 0.007,-0c1.601,-0 2.918,-1.317 2.918,-2.917c-0,-0.013 -0.001,-0.026 -0.001,-0.039c0,-1.681 -1.333,-2.924 -2.924,-2.924Zm-0,0.477c1.316,-0 2.352,1.063 2.352,2.447c-0,1.408 -1.036,2.447 -2.352,2.447c-1.339,0 -2.416,-1.039 -2.416,-2.447c-0,-1.383 1.077,-2.447 2.416,-2.447Z" style="fill:#1870c5;fill-rule:nonzero;"/><path d="M60.277,48.877l-1.979,0l-0,-7.239l1.979,-0c2.643,-0 4.747,0.871 4.747,3.573c-0,2.792 -2.104,3.666 -4.747,3.666m-21.305,5.176c-0.982,0.003 -1.958,-0.17 -2.879,-0.511l2.851,-8.992l0.061,0l2.792,9.017c-0.906,0.322 -1.86,0.487 -2.822,0.486m20.777,-18.296l-8.988,-0l-0,21.374l-7.853,-21.374l-7.784,-0l-6.709,17.87c-0.709,-4.505 -5.375,-6.064 -9.043,-7.227c-2.418,-0.778 -4.991,-1.921 -4.968,-3.187c0.02,-1.036 1.382,-1.996 4.069,-1.853c1.81,0.092 3.407,0.238 6.578,1.771l3.123,-5.44c-2.893,-1.478 -6.902,-2.405 -10.181,-2.412l-0.021,-0c-3.825,-0 -7.013,1.247 -8.991,3.288c-1.374,1.428 -2.117,3.235 -2.151,5.246c-0.051,2.754 0.963,4.709 3.086,6.273c1.797,1.316 4.088,2.163 6.113,2.798c2.497,0.77 4.535,1.442 4.512,2.876c-0.021,0.521 -0.215,1.011 -0.592,1.397c-0.622,0.646 -1.577,0.885 -2.898,0.915c-2.547,0.051 -4.436,-0.346 -7.445,-2.124l-2.776,5.516c3.102,1.762 6.607,2.695 10.175,2.707l0.469,-0c3.153,-0.061 5.7,-0.961 7.736,-2.597l0.329,-0.288l-0.899,2.417l8.163,-0l1.371,-4.17c1.434,0.486 3.068,0.758 4.797,0.758c1.688,0 3.28,-0.254 4.689,-0.718l1.318,4.13l13.319,-0l-0,-8.636l2.906,-0c7.019,-0 11.175,-3.572 11.175,-9.568c-0,-6.673 -4.036,-9.733 -12.63,-9.733" style="fill:#fff;"/><defs><linearGradient id="_Linear1" x1="0" y1="0" x2="1" y2="0" gradientUnits="userSpaceOnUse" gradientTransform="matrix(2.74007e-14,447.487,-447.487,2.74007e-14,169.582,24.5444)"><stop offset="0" style="stop-color:#00b8f1;stop-opacity:1"/><stop offset="0.22" style="stop-color:#06a5e5;stop-opacity:1"/><stop offset="0.79" style="stop-color:#1870c5;stop-opacity:1"/><stop offset="1" style="stop-color:#1d61bc;stop-opacity:1"/></linearGradient></defs></svg>