<?xml version="1.0" encoding="UTF-8" standalone="no"?><!DOCTYPE svg PUBLIC "-//W3C//DTD SVG 1.1//EN" "http://www.w3.org/Graphics/SVG/1.1/DTD/svg11.dtd"><svg width="100%" height="100%" viewBox="0 0 100 100" version="1.1" xmlns="http://www.w3.org/2000/svg" xmlns:xlink="http://www.w3.org/1999/xlink" xml:space="preserve" xmlns:serif="http://www.serif.com/" style="fill-rule:evenodd;clip-rule:evenodd;stroke-miterlimit:2.613;"><path d="M1.47,68.496l24.15,0c3.502,0 11.567,-3.337 11.567,-12.423c0,-9.086 -8.111,-11.867 -9.954,-11.867l-7.743,-0l0,-0.742l39.081,0l0,0.742l-11.613,-0c-2.396,-0 -9.033,5.377 -9.033,11.497c-0,6.119 4.424,12.794 11.614,12.794l10.507,-0c2.397,-0 10.416,-2.967 10.416,-11.311l-0,-15.947c-0,-2.782 -3.78,-8.901 -12.628,-8.901l-40.372,0c-3.687,0 -9.77,4.08 -9.77,11.682c-0,7.603 5.162,11.497 9.402,11.497l8.295,0l0,0.742l-16.775,0l-7.144,12.237Zm70.144,-0.091l0,-25.126c0,-3.616 4.61,-10.338 10.278,-10.338l16.638,-0l-7.19,11.265l-8.572,-0l-0,24.199l-11.154,-0Z" style="fill:#324289;"/><path d="M3.959,62.471l21.384,-0c8.204,-0 7.743,-12.332 0.646,-12.332l-8.48,0c-3.41,0 -4.885,-2.41 -4.885,-6.027c-0,-3.616 2.304,-6.304 5.807,-6.304l39.726,-0c2.581,-0 6.453,1.113 6.453,6.49l0,14.185c0,2.689 -1.199,5.1 -5.069,5.1l-11.061,-0c-1.659,-0 -4.931,-2.04 -4.931,-6.444c-0,-3.663 1.429,-6.258 5.3,-6.258l9.494,-0m-8.389,6.119l8.664,0l0,-13.536m-14.01,-11.96l-8.941,12.331m41.478,24.661l-0,-24.569c-0,-2.781 2.212,-5.424 5.393,-5.424l13.78,0" style="fill:none;fill-rule:nonzero;stroke:#fff;stroke-width:0.74px;"/></svg>