<?xml version="1.0" encoding="UTF-8" standalone="no"?>
<!DOCTYPE svg PUBLIC "-//W3C//DTD SVG 1.1//EN" "http://www.w3.org/Graphics/SVG/1.1/DTD/svg11.dtd">
<svg width="100%" height="100%" viewBox="0 0 1000 1000" version="1.1" xmlns="http://www.w3.org/2000/svg" xmlns:xlink="http://www.w3.org/1999/xlink" xml:space="preserve" xmlns:serif="http://www.serif.com/" style="fill-rule:evenodd;clip-rule:evenodd;stroke-linejoin:round;stroke-miterlimit:2;">
    <g transform="matrix(0.863276,0,0,0.863276,204.299,57.1378)">
        <path d="M357.632,0.098C322.252,-0.701 285.702,3.432 248.267,12.787C75.167,56.024 -118.596,278.696 92.982,535.443L219.265,688.312L254.914,731.818C278.842,760.267 317.996,759.759 346.758,736.044C375.664,712.215 383.88,673.133 360.049,644.203C355.223,638.355 350.389,632.515 345.547,626.681L346.15,626.681C337.025,615.7 335.041,613.855 325.609,602.51C279.904,547.541 227.723,484.08 227.723,484.08C135.857,372.587 176.849,234.848 301.44,156.59C411.218,87.632 612.667,112.263 682.101,225.469C638.37,96.398 510.953,3.564 357.632,0.098ZM383.011,269.586C366.691,269.029 349.646,275.251 335.278,287.107C306.323,310.964 298.178,350.089 321.988,378.951C322.037,379.022 324.91,382.599 329.84,388.618C384.606,454.414 457.333,542.694 457.333,542.694C549.224,654.187 508.21,791.323 383.619,869.584C273.865,938.514 72.392,913.835 2.955,800.702C56.781,959.493 237.178,1063.3 436.792,1013.39C609.938,970.076 803.652,748.04 592.077,491.336L444.041,312.488L427.12,291.341C415.156,277.113 399.335,270.14 383.011,269.586Z" style="fill:rgb(0,124,194);fill-rule:nonzero;"/>
    </g>
</svg>
