<?xml version="1.0" encoding="UTF-8" standalone="no"?>
<!DOCTYPE svg PUBLIC "-//W3C//DTD SVG 1.1//EN" "http://www.w3.org/Graphics/SVG/1.1/DTD/svg11.dtd">
<svg width="100%" height="100%" viewBox="0 0 225 225" version="1.1" xmlns="http://www.w3.org/2000/svg" xmlns:xlink="http://www.w3.org/1999/xlink" xml:space="preserve" xmlns:serif="http://www.serif.com/" style="fill-rule:evenodd;clip-rule:evenodd;stroke-linejoin:round;stroke-miterlimit:1.41421;">
    <g id="searchguard" transform="matrix(1,0,0,1,-86.704,0)">
        <g transform="matrix(1,0,0,1,21.0731,12.3545)">
            <path d="M237.982,23.035C209.15,-12.987 133.096,-12.909 120.458,68.011C120.458,68.011 133.906,65.755 141.545,51.729C152.824,31.026 186.597,15.579 212.922,34.414C216.219,27.182 223.495,22.146 231.96,22.146C234.056,22.146 236.075,22.462 237.982,23.035" style="fill:rgb(0,75,110);fill-rule:nonzero;"/>
        </g>
        <g transform="matrix(1,0,0,1,21.0731,12.3545)">
            <path d="M211.847,37.336C182.844,16.777 153.363,41.451 153.363,41.451C153.363,44.825 153.26,48.361 153.26,48.361C158.03,44.714 172.553,38.572 189.435,42.85C189.354,40.9 189.435,36.493 189.435,36.493C189.435,36.493 200.882,39.631 212.033,49.469C211.387,47.452 211.031,45.308 211.031,43.077C211.03,41.083 211.326,39.161 211.847,37.336" style="fill:rgb(108,126,143);fill-rule:nonzero;"/>
        </g>
        <g transform="matrix(1,0,0,1,21.0731,12.3545)">
            <path d="M171.122,99.676C171.122,99.676 191.239,80.194 189.334,45.994C170.78,40.3 136.459,49.374 138.605,81.339C141.51,124.6 128.027,130.337 128.027,130.337C143.623,140.86 160.385,126.408 189.661,146.802C195.436,119.938 171.122,99.676 171.122,99.676" style="fill:rgb(0,75,110);fill-rule:nonzero;"/>
        </g>
        <g transform="matrix(1,0,0,1,21.0731,12.3545)">
            <path d="M193.636,41.093C195.446,79.159 174.459,99.43 174.459,99.43C174.459,99.43 202.488,122.824 190.573,154.598C197.151,156.522 209.257,199.387 209.257,199.387C209.53,198.944 207.409,158.964 213.76,146.711C213.76,146.711 211.395,143.533 211.21,142.981C216.062,125.25 214.451,114.786 212.792,111.528C210.963,107.94 210.752,108.056 207.971,107.859C205.208,107.661 202.73,107.364 200.617,106.797C194.822,105.248 193.662,103.899 193.241,100.592C192.773,96.924 195.919,95.198 202.162,96.133C209.293,97.201 217.008,100.41 219.69,104.556C219.926,105.478 216.755,124.307 217.098,124.839C218.18,126.53 220.122,129.976 220.122,129.976C227.473,94.534 239.132,62.23 193.636,41.093" style="fill:rgb(0,75,110);fill-rule:nonzero;"/>
        </g>
    </g>
</svg>
