<?xml version="1.0" encoding="UTF-8" standalone="no"?>
<!DOCTYPE svg PUBLIC "-//W3C//DTD SVG 1.1//EN" "http://www.w3.org/Graphics/SVG/1.1/DTD/svg11.dtd">
<svg width="100%" height="100%" viewBox="0 0 2100 2100" version="1.1" xmlns="http://www.w3.org/2000/svg" xmlns:xlink="http://www.w3.org/1999/xlink" xml:space="preserve" xmlns:serif="http://www.serif.com/" style="fill-rule:evenodd;clip-rule:evenodd;stroke-linejoin:round;stroke-miterlimit:2;">
    <g transform="matrix(1,0,0,1,53.8335,77)">
        <circle cx="1019.33" cy="556" r="556" style="fill:rgb(3,108,112);"/>
    </g>
    <g transform="matrix(1,0,0,1,53.8335,77)">
        <circle cx="1482.67" cy="1065.67" r="509.667" style="fill:rgb(26,155,161);"/>
    </g>
    <g transform="matrix(1,0,0,1,53.8335,77)">
        <circle cx="1088.83" cy="1552.17" r="393.833" style="fill:rgb(55,198,208);"/>
    </g>
    <g transform="matrix(1,0,0,1,53.8335,77)">
        <path d="M1112,501.79L1112,1490.54C1111.77,1524.9 1090.95,1555.77 1059.18,1568.85C1049.06,1573.12 1038.19,1575.33 1027.21,1575.33L695.463,1575.33C695,1567.46 695,1560.04 695,1552.17C694.846,1544.43 695.155,1536.7 695.927,1529C704.407,1380.89 795.648,1250.22 931.764,1191.23L931.764,1105.05C628.832,1057.04 422.172,772.554 470.177,469.622C470.51,467.524 470.854,465.427 471.211,463.333C473.517,447.707 476.767,432.234 480.941,417L1027.21,417C1073.96,417.178 1111.82,455.036 1112,501.79Z" style="fill-opacity:0.1;fill-rule:nonzero;"/>
    </g>
    <g transform="matrix(1,0,0,1,53.8335,77)">
        <path d="M980.877,463.333L471.21,463.333C419.724,765.719 623.118,1052.59 925.503,1104.08C934.659,1105.63 943.853,1106.96 953.076,1108.06C809.443,1176.17 704.776,1369.61 695.88,1529C695.109,1536.7 694.799,1544.43 694.953,1552.17C694.953,1560.04 694.953,1567.46 695.416,1575.33C696.252,1590.91 698.266,1606.4 701.439,1621.67L980.829,1621.67C1015.19,1621.44 1046.05,1600.62 1059.13,1568.85C1063.41,1558.73 1065.62,1547.86 1065.62,1536.88L1065.62,548.123C1065.44,501.387 1027.61,463.537 980.877,463.333Z" style="fill-opacity:0.2;fill-rule:nonzero;"/>
    </g>
    <g transform="matrix(1,0,0,1,53.8335,77)">
        <path d="M980.877,463.333L471.21,463.333C419.735,765.747 623.16,1052.63 925.574,1104.11C931.76,1105.16 937.963,1106.11 944.181,1106.95C805.181,1179.97 704.638,1372.95 695.927,1529L980.877,1529C1027.56,1528.65 1065.31,1490.89 1065.67,1444.21L1065.67,548.123C1065.49,501.369 1027.63,463.511 980.877,463.333Z" style="fill-opacity:0.2;fill-rule:nonzero;"/>
    </g>
    <g transform="matrix(1,0,0,1,53.8335,77)">
        <path d="M934.543,463.333L471.21,463.333C422.604,748.815 601.489,1023.74 882.187,1094.95C775.901,1216.38 710.711,1368.3 695.927,1529L934.544,1529C981.298,1528.82 1019.16,1490.96 1019.33,1444.21L1019.33,548.123C1019.31,501.306 981.361,463.359 934.543,463.333Z" style="fill-opacity:0.2;fill-rule:nonzero;"/>
    </g>
    <g transform="matrix(1,0,0,1,53.8335,77)">
        <path d="M84.929,463.333L934.404,463.333C981.309,463.333 1019.33,501.357 1019.33,548.262L1019.33,1397.74C1019.33,1444.64 981.309,1482.67 934.404,1482.67L84.929,1482.67C38.024,1482.67 0,1444.64 0,1397.74L0,548.262C0,501.357 38.024,463.333 84.929,463.333Z" style="fill:url(#_Linear1);fill-rule:nonzero;"/>
    </g>
    <g transform="matrix(1,0,0,1,53.8335,77)">
        <path d="M379.331,962.621C359.428,949.419 342.803,931.844 330.727,911.237C319.026,889.695 313.194,865.456 313.815,840.949C312.773,807.768 323.97,775.363 345.275,749.904C367.663,724.414 396.601,705.538 428.953,695.323C465.824,683.187 504.443,677.207 543.257,677.624C594.3,675.759 645.272,682.896 693.84,698.706L693.84,805.273C672.737,792.489 649.752,783.107 625.73,777.473C599.665,771.081 572.92,767.876 546.083,767.928C517.783,766.889 489.664,772.841 464.212,785.257C444.562,793.732 431.82,813.064 431.779,834.463C431.699,847.444 436.686,859.944 445.679,869.306C456.301,880.343 468.866,889.327 482.746,895.809C498.19,903.5 521.357,913.725 552.246,926.482C555.647,927.557 558.962,928.889 562.161,930.467C592.562,942.348 621.89,956.811 649.824,973.696C670.978,986.739 688.732,1004.62 701.625,1025.87C714.843,1049.95 721.25,1077.18 720.158,1104.63C721.667,1138.7 711.245,1172.23 690.69,1199.43C670.202,1224.44 642.81,1242.88 611.923,1252.44C575.594,1263.82 537.678,1269.33 499.611,1268.75C465.457,1268.9 431.353,1266.11 397.678,1260.41C369.244,1255.75 341.496,1247.6 315.066,1236.13L315.066,1123.77C340.33,1141.81 368.555,1155.3 398.466,1163.62C428.276,1172.9 459.264,1177.87 490.484,1178.35C519.379,1180.18 548.223,1174.06 573.884,1160.65C591.86,1150.51 602.793,1131.29 602.333,1110.66C602.453,1096.3 596.773,1082.5 586.58,1072.39C573.904,1059.94 559.228,1049.71 543.166,1042.13C524.633,1032.86 497.342,1020.65 461.295,1005.48C432.618,993.951 405.161,979.594 379.331,962.621Z" style="fill:white;fill-rule:nonzero;"/>
    </g>
    <defs>
        <linearGradient id="_Linear1" x1="0" y1="0" x2="1" y2="0" gradientUnits="userSpaceOnUse" gradientTransform="matrix(665.176,1152.06,-1152.06,665.176,177.079,396.972)"><stop offset="0" style="stop-color:rgb(5,143,146);stop-opacity:1"/><stop offset="0.5" style="stop-color:rgb(3,132,137);stop-opacity:1"/><stop offset="1" style="stop-color:rgb(2,109,113);stop-opacity:1"/></linearGradient>
    </defs>
</svg>
