<?xml version="1.0" encoding="UTF-8" standalone="no"?><!DOCTYPE svg PUBLIC "-//W3C//DTD SVG 1.1//EN" "http://www.w3.org/Graphics/SVG/1.1/DTD/svg11.dtd"><svg width="100%" height="100%" viewBox="0 0 500 500" version="1.1" xmlns="http://www.w3.org/2000/svg" xmlns:xlink="http://www.w3.org/1999/xlink" xml:space="preserve" xmlns:serif="http://www.serif.com/" style="fill-rule:evenodd;clip-rule:evenodd;stroke-linecap:round;stroke-linejoin:round;stroke-miterlimit:1.5;"><g id="Shiny"><path d="M10.974,382.994c51.587,3.093 89.975,26.555 117.524,66.745c15.349,-40.669 46.875,-66.168 91.811,-79.09c34.653,-8.567 69.083,-14.159 103.322,-17.203c40.152,-1.106 73.565,-9.903 96.378,-30.8c29.5,-24.756 54.268,-52.322 71.686,-84.25c1.77,-3.498 2.867,-7.42 2.98,-11.962c1.142,-7.52 -1.439,-10.929 -9.875,-7.871c-11.537,7.376 -20.72,16.244 -29.543,25.34c-6.554,5.729 -13.173,10.607 -19.94,13.535c5.586,-26.564 11.289,-53.062 20.852,-77.437c2.038,-3.977 4.632,-7.61 7.95,-10.798l-18.485,0.825c-5.504,1.193 -9.448,5.162 -12.365,10.963l-9.108,28.816c-4.902,10.978 -11.028,20.942 -17.564,30.567c-10.408,12.187 -16.038,12.097 -15.474,-3.903c3.03,-24.481 11.373,-44.539 23.44,-61.496c0.368,-3.198 -1.718,-4.119 -4.919,-4.007l-9.007,1.889c-7.371,2.031 -12.453,6.953 -16.081,13.711c-4.362,9.21 -7.394,18.716 -9.981,28.321c-3.949,9.536 -7.983,19.044 -14.285,27.799l-5.753,5.858c-7.085,8.955 -10.386,6.857 -9.903,-6.294l11.797,-49.206c0.732,-10.632 -5.964,-14.634 -18.062,-14.492c-10.96,2.621 -20.159,8.677 -28.11,17.167l0.209,-8.19c0.618,-3.164 -1.095,-4.484 -4.738,-4.277l-17.222,-0.346c0.896,11.299 0.038,22.442 -2.342,33.45l-14.631,29.109l-9.508,13.745c-8.692,8.921 -12.609,7.77 -11.523,-3.937c2.336,-19.4 8.82,-38.334 17.438,-57.027l5.442,-7.877l-16.289,0.129c-5.169,1.931 -8.773,5.729 -11.382,10.714c-5.673,9.844 -8.923,22.217 -12.289,34.468c-5.201,10.237 -10.434,20.392 -16.501,28.376l-4.788,4.715c-6.601,6.646 -9.77,5.098 -9.169,-5.448l11.889,-51.05c1.234,-9.999 -2.431,-15.164 -11.414,-15.082c-8.531,-0.24 -15.741,3.109 -22.472,7.756c15.314,-21.783 28.362,-44.283 32.935,-69.464c1.268,-11.564 -3.408,-16.337 -14.028,-14.321c-7.982,0.842 -14.907,5.979 -21.313,13.224c-23.422,43.518 -38.847,103.257 -50.877,162.627l21.979,-0.216l10.645,-50.834c5.503,-14.367 13.345,-25.45 23.625,-33.114c5.88,-1.839 9.621,-1.217 8.874,4.574l-8.938,35.135c-2.235,8.65 -3.041,17.619 -2.633,26.86c2.042,14.629 9.456,17.806 20.286,13.7c12.608,-6.322 20.776,-18.873 27.297,-33.517l1.967,15.01c2.2,11.926 9.234,14.603 19.826,10.471c9.025,-6.771 16.209,-15.1 21.699,-24.865l-2.871,18.144l21.196,-0.712c3.365,-20.085 7.391,-40.092 15.211,-59.651c3.245,-7.288 6.89,-14.12 12.306,-18.941c2.571,-3.171 5.651,-5.165 9.161,-6.161c7.294,-1.409 8.754,0.933 6.223,5.842c-4.511,18.91 -8.332,38.178 -10.182,58.468c-0.786,18.12 7.755,21.332 21.943,15.519c10.834,-6.847 18.263,-18.744 24.54,-31.927c1.516,24.627 10.742,33.624 31.819,18.598l14.301,-16.589c-0.16,7.655 -2.131,15.659 -4.406,22.699c-10.917,1.97 -21.606,3.422 -32.718,7.269c-8.686,2.961 -14.904,8.909 -17.953,18.692c-0.573,13.885 8.378,19.381 24.339,18.703c9.802,0.018 18.494,-3.669 26.736,-8.856c10.342,-11.06 17.498,-22.2 18.689,-33.489c16.046,-7.105 29.587,-17.501 43.033,-28.021l1.355,7.712l-53.213,59.411c-17.151,12.484 -37.645,21.519 -64.266,24.235c-35.907,5.737 -74.152,7.643 -113.108,8.385c-96.684,1.248 -177.732,11.205 -233.474,43.445Zm396.139,-106.338c-1.48,7.295 -4.695,13.484 -9.576,18.611c-2.552,3.136 -5.777,5.445 -10.176,6.311c-2.049,0.591 -4.068,0.434 -6.066,-0.233c-3.283,-0.788 -5.519,-2.931 -6.988,-6.065c-1.403,-2.904 -1.451,-5.912 -0.113,-9.028c8.479,-7.742 20.79,-9.417 32.919,-9.596Zm-236.324,-73.644c12.399,-18.659 23.043,-38.498 31.345,-60.006c1.7,-3.959 2.414,-8.232 2.045,-12.849c-0.897,-1.432 -2.171,-1.978 -4.237,-0.667c-15.37,23.738 -23.484,47.894 -29.153,73.522Z" style="fill:#4187c3;stroke:#4187c3;stroke-width:1px;"/><path d="M129.311,178.176c6.143,-2.228 9.913,-6.924 12.256,-13.103c1.202,-3.232 1.365,-6.525 -0.335,-9.929c-3.964,-6.362 -11.145,-10.407 -20.391,-12.964c-8.525,-3.08 -17.15,-3.269 -25.867,-0.828c-15.633,3.036 -25.847,15.581 -32.073,35.126c-1.589,7.767 -1.896,15.424 0.561,22.845c6.892,17.776 17.853,31.494 30.275,43.755c5.352,6.36 8.426,13.396 9.167,21.126c1.154,10.649 -2.45,19.122 -11.662,25.03c-7.02,6.703 -13.977,7.241 -20.899,4.415c-5.24,-3.443 -10.097,-8.547 -14.42,-15.961c-3.031,-6.326 -3.556,-13.507 -3.676,-21.566c-1.141,-2.797 -3.226,-3.034 -5.87,-1.76c-5.182,4.678 -8.357,10.3 -10.549,16.385c-0.63,4.407 -0.735,8.144 -0.27,11.153c2.323,9.089 7.443,15.816 17.18,18.645c8.941,2.586 17.929,2.366 26.946,0.387c14.489,-1.1 26.376,-6.921 36.146,-16.587c11.181,-11.681 13.888,-25.622 10.294,-41.244c-3.233,-11.385 -11.679,-24.352 -25.688,-39.004c-7.36,-5.689 -12.495,-13.398 -16.108,-22.489c-0.107,-8.008 1.853,-15.455 5.364,-22.479c0.917,-2.428 2.744,-4.43 5.526,-5.987c7.675,-2.381 13.372,-1.777 17.799,0.742c3.33,1.356 5.112,3.591 5.763,6.467l3.017,13.808c1.436,4.505 4.028,5.583 7.514,4.017" style="fill:#4187c3;stroke:#4187c3;stroke-width:1px;"/><path d="M261.642,162.087c-2.133,13.055 5.973,17.562 15.706,7.581l0.845,-1.919c1.149,-13.33 -5.344,-15.626 -15.764,-7.423l-0.787,1.761" style="fill:#4187c3;stroke:#4187c3;stroke-width:1px;"/></g></svg>