<?xml version="1.0" encoding="UTF-8" standalone="no"?><!DOCTYPE svg PUBLIC "-//W3C//DTD SVG 1.1//EN" "http://www.w3.org/Graphics/SVG/1.1/DTD/svg11.dtd"><svg width="100%" height="100%" viewBox="0 0 100 100" version="1.1" xmlns="http://www.w3.org/2000/svg" xmlns:xlink="http://www.w3.org/1999/xlink" xml:space="preserve" xmlns:serif="http://www.serif.com/" style="fill-rule:evenodd;clip-rule:evenodd;stroke-linejoin:round;stroke-miterlimit:2;"><g><path d="M93.593,62.441l0.447,0l0.851,1.506l0.006,0l0,-1.506l0.401,0l0,2.507l-0.443,-0l-0.855,-1.505l-0.004,0l-0,1.505l-0.403,-0l-0,-2.507Zm-55.363,-6.874c0,0.522 0.025,0.77 0.261,0.82c0.05,0.05 0.038,0.261 -0.037,0.299c-0.211,0.036 -0.535,0.074 -0.87,0.186c-0.435,0.137 -1.504,0.298 -2.2,0.298c-0.846,-0 -1.567,-0.087 -2.449,-0.435c-1.454,-0.585 -2.449,-1.965 -2.449,-3.754c-0,-1.554 0.696,-2.922 2.187,-3.755c0.846,-0.46 1.853,-0.659 2.909,-0.659c1.38,0 2.064,0.298 2.461,0.298c0.038,0.373 0.05,1.243 0.174,2.002c-0.05,0.137 -0.385,0.149 -0.472,0.025c-0.398,-1.169 -1.181,-1.753 -2.337,-1.753c-1.977,0 -2.934,1.641 -2.934,3.606c0,1.777 0.609,2.834 1.418,3.381c0.596,0.398 1.243,0.472 1.702,0.472c0.709,0 0.858,-0.136 0.858,-0.945l-0,-0.783c-0,-0.671 -0.075,-0.746 -0.672,-0.833l-0.546,-0.074c-0.137,-0.075 -0.137,-0.361 -0,-0.435c0.882,0.025 1.491,0.037 2.1,0.037c0.597,-0 1.206,-0.012 1.629,-0.037c0.099,0.074 0.099,0.36 -0,0.435l-0.286,0.05c-0.373,0.075 -0.448,0.186 -0.448,0.857l0,0.697l0.001,0Zm10.478,-0.709c0,0.809 0,1.592 0.025,2.001c-0.087,0.15 -0.435,0.287 -0.733,0.287c-0.013,-0 -0.423,-0.635 -1.007,-1.356l-2.872,-3.555c-0.709,-0.895 -1.131,-1.405 -1.355,-1.591c-0.062,0.124 -0.062,0.336 -0.062,0.795l-0,2.413c-0,1.005 0.05,1.938 0.186,2.274c0.112,0.261 0.398,0.336 0.721,0.398l0.348,0.05c0.1,0.099 0.075,0.36 0,0.435c-0.555,-0.023 -1.11,-0.035 -1.666,-0.037c-0.46,0 -0.919,0.012 -1.392,0.037c-0.075,-0.075 -0.099,-0.336 -0,-0.435l0.211,-0.037c0.336,-0.075 0.572,-0.15 0.684,-0.41c0.124,-0.336 0.174,-1.269 0.174,-2.275l-0,-3.158c-0,-0.684 -0,-0.883 -0.087,-1.057c-0.087,-0.211 -0.273,-0.335 -0.709,-0.422l-0.348,-0.05c-0.087,-0.099 -0.074,-0.398 0.05,-0.435c0.584,0.025 1.206,0.037 1.716,0.037c0.422,0 0.783,-0.012 1.044,-0.037c0.125,0.56 0.932,1.504 2.051,2.834l1.045,1.231c0.559,0.647 0.907,1.081 1.193,1.367c0.05,-0.124 0.05,-0.335 0.05,-0.559l-0,-1.716c-0,-1.007 -0.05,-1.939 -0.187,-2.275c-0.112,-0.26 -0.385,-0.335 -0.721,-0.397l-0.335,-0.05c-0.099,-0.099 -0.075,-0.361 -0,-0.436c0.555,0.024 1.11,0.036 1.665,0.038c0.461,-0 0.908,-0.013 1.393,-0.038c0.075,0.075 0.099,0.336 -0,0.436l-0.224,0.037c-0.323,0.075 -0.559,0.15 -0.672,0.41c-0.136,0.336 -0.186,1.268 -0.186,2.275l0,2.971Zm5.319,-0.696c-0.298,-0 -0.336,0.012 -0.41,0.248l-0.46,1.443c-0.075,0.248 -0.087,0.348 -0.087,0.447c-0,0.075 0.099,0.15 0.446,0.211l0.374,0.062c0.075,0.087 0.099,0.373 -0.025,0.436c-0.435,-0.026 -0.932,-0.026 -1.454,-0.037c-0.424,-0 -0.709,0.037 -1.281,0.037c-0.137,-0.075 -0.125,-0.336 -0.037,-0.436l0.335,-0.036c0.299,-0.038 0.559,-0.137 0.759,-0.622c0.224,-0.498 0.434,-1.094 0.77,-1.989l1.119,-3.033c0.298,-0.784 0.522,-1.219 0.485,-1.579c0.596,-0.137 1.056,-0.746 1.081,-0.746c0.162,-0 0.236,0.062 0.287,0.248c0.099,0.361 0.248,0.821 0.559,1.704l1.69,4.873c0.262,0.746 0.373,1.019 0.833,1.106l0.472,0.075c0.075,0.061 0.1,0.36 -0.012,0.435c-0.638,-0.025 -1.276,-0.038 -1.914,-0.037c-0.622,0 -1.106,0.012 -1.679,0.037c-0.136,-0.075 -0.161,-0.336 -0.024,-0.435l0.398,-0.062c0.286,-0.05 0.336,-0.137 0.336,-0.212c-0,-0.086 -0.088,-0.385 -0.236,-0.845l-0.337,-1.069c-0.061,-0.199 -0.161,-0.224 -0.595,-0.224l-1.393,-0Z"/><path d="M55.357,53.503c0.285,0 0.36,-0.037 0.249,-0.36l-0.324,-1.007c-0.174,-0.534 -0.336,-1.044 -0.447,-1.305c-0.125,0.273 -0.324,0.795 -0.51,1.368l-0.311,0.932c-0.124,0.335 -0.05,0.373 0.261,0.373l1.082,-0l-0,-0.001Z" style="fill:#fff;"/><path d="M62.689,49.7c-0,-0.299 -0,-0.361 -0.298,-0.361l-0.771,0c-0.908,0 -1.168,0.498 -1.541,1.404c-0.15,0.076 -0.386,0.05 -0.461,-0.111c0.261,-0.858 0.324,-1.629 0.411,-2.114c0.049,-0.038 0.11,-0.06 0.173,-0.062c0.062,-0.003 0.123,0.015 0.174,0.05c0.062,0.212 0.099,0.261 1.045,0.261l4.625,-0c0.819,-0 1.006,-0.013 1.118,-0.274c0.05,-0.026 0.105,-0.039 0.162,-0.037c0.075,0 0.161,0.05 0.186,0.087c-0.125,0.423 -0.211,1.43 -0.186,2.138c-0.062,0.112 -0.398,0.137 -0.461,0.038c-0.21,-0.796 -0.385,-1.38 -1.317,-1.38l-0.746,-0c-0.299,-0 -0.336,0.037 -0.336,0.36l-0,5.482c-0,1.156 0.075,1.243 0.634,1.33l0.498,0.062c0.087,0.075 0.087,0.36 -0,0.435c-0.663,-0.023 -1.326,-0.035 -1.989,-0.037c-0.597,-0 -1.243,0.012 -2.114,0.037c-0.099,-0.075 -0.099,-0.36 0,-0.435l0.56,-0.062c0.559,-0.087 0.634,-0.174 0.634,-1.33l0,-5.481l-0,-0Zm7.44,0.857c0,-1.156 -0.074,-1.243 -0.633,-1.342l-0.312,-0.063c-0.099,-0.074 -0.112,-0.348 0.025,-0.423c1.209,0.05 2.421,0.05 3.63,0c0.099,0.075 0.099,0.349 0,0.423l-0.299,0.05c-0.559,0.112 -0.633,0.199 -0.633,1.355l-0,2.871c-0,1.455 0.161,3.058 2.051,3.058c1.59,0 2.076,-1.392 2.076,-3.094l-0,-1.505c-0,-1.007 -0.05,-1.951 -0.186,-2.275c-0.113,-0.26 -0.385,-0.335 -0.722,-0.397l-0.335,-0.063c-0.099,-0.099 -0.075,-0.348 -0,-0.423c0.672,0.025 1.156,0.038 1.666,0.038c0.46,-0 0.92,-0.013 1.392,-0.038c0.075,0.075 0.099,0.324 0,0.423l-0.224,0.05c-0.323,0.075 -0.559,0.15 -0.671,0.41c-0.137,0.324 -0.186,1.268 -0.186,2.275l0,1.393c0,1.168 -0.113,2.237 -0.796,2.996c-0.547,0.583 -1.454,0.895 -2.461,0.895c-0.945,-0 -1.79,-0.149 -2.462,-0.696c-0.646,-0.534 -0.919,-1.455 -0.919,-2.81l-0,-3.108l-0.001,-0Zm10.01,0.224c0,-1.243 -0.024,-1.38 -0.546,-1.454l-0.336,-0.05c-0.124,-0.062 -0.124,-0.373 0.025,-0.435c1.026,-0.074 2.054,-0.111 3.082,-0.113c1.057,0 1.965,0.162 2.437,0.448c0.722,0.423 1.094,1.045 1.094,1.84c0,1.106 -0.746,1.579 -1.318,1.865c-0.124,0.062 -0.124,0.136 -0.062,0.273c0.82,1.666 1.33,2.599 1.926,3.108c0.324,0.261 0.647,0.335 0.833,0.348c0.113,0.062 0.113,0.248 0.051,0.323c-0.2,0.087 -0.597,0.112 -0.983,0.112c-1.143,-0 -1.865,-0.411 -2.412,-1.306c-0.397,-0.658 -0.682,-1.267 -0.969,-1.926c-0.149,-0.336 -0.348,-0.436 -0.659,-0.436c-0.435,0 -0.46,0.026 -0.46,0.274l-0,1.529c-0,1.144 0.075,1.231 0.634,1.33l0.335,0.062c0.088,0.061 0.088,0.36 0,0.435c-1.213,-0.05 -2.428,-0.05 -3.642,0c-0.099,-0.075 -0.099,-0.374 0,-0.435l0.336,-0.062c0.559,-0.099 0.634,-0.186 0.634,-1.33l-0,-4.4l0,-0Z"/><path d="M81.842,52.359c0,0.436 0.038,0.473 0.771,0.473c0.447,-0 0.708,-0.112 0.944,-0.348c0.212,-0.212 0.448,-0.609 0.448,-1.343c0,-1.118 -0.659,-1.839 -1.628,-1.839c-0.51,-0 -0.51,0.037 -0.535,0.634l-0,2.423l0,0Z" style="fill:#fff;"/><path d="M91.412,51.999c0,0.348 0.012,0.372 0.348,0.372l0.858,0c0.647,0 0.784,-0.086 0.92,-0.682l0.062,-0.312c0.087,-0.099 0.398,-0.099 0.46,0.012c-0.026,0.399 -0.038,0.846 -0.038,1.319c0,0.472 0.012,0.919 0.038,1.317c-0.062,0.112 -0.373,0.124 -0.46,0.012l-0.062,-0.311c-0.137,-0.596 -0.273,-0.696 -0.92,-0.696l-0.858,0c-0.335,0 -0.348,0.012 -0.348,0.385l0,1.48c0,0.571 0.05,0.969 0.199,1.181c0.162,0.223 0.399,0.323 1.305,0.323c1.083,0 1.505,-0.037 2.188,-1.442c0.1,-0.137 0.411,-0.088 0.46,0.062c-0.049,0.647 -0.347,1.653 -0.522,1.989c-0.658,-0.025 -1.852,-0.037 -2.871,-0.037l-1.616,-0c-0.597,-0 -1.206,0.012 -2.138,0.037c-0.099,-0.075 -0.099,-0.374 -0,-0.435l0.585,-0.088c0.559,-0.074 0.633,-0.161 0.633,-1.305l0,-4.637c0,-1.131 -0.074,-1.218 -0.633,-1.318l-0.312,-0.062c-0.111,-0.075 -0.099,-0.36 0.026,-0.435c0.596,0.025 1.192,0.037 1.789,0.037l2.636,0c0.795,0 1.503,-0.012 1.665,-0.037c0.012,0.199 0.099,1.094 0.162,1.926c-0.05,0.137 -0.335,0.162 -0.46,0.051c-0.136,-0.436 -0.311,-0.809 -0.473,-0.983c-0.236,-0.236 -0.609,-0.385 -1.218,-0.385l-0.994,-0c-0.41,-0 -0.41,0.025 -0.41,0.485l-0,2.177l-0.001,0Zm-51.166,5.607c-0.021,-0.509 -0.217,-0.376 -0.449,-0.286c-0.469,0.184 -2.09,0.898 -3.651,1.061c-2.195,0.229 -3.747,-0.857 -4.726,-1.51c-1.012,-0.674 -2.296,-2.049 -4.836,-3.825l-0,-2.464c-0,-1.168 0.075,-1.255 0.646,-1.355l0.348,-0.062c0.099,-0.075 0.099,-0.361 -0,-0.436c-0.626,0.025 -1.251,0.037 -1.877,0.038c-0.597,-0 -1.218,-0.013 -1.89,-0.038c-0.099,0.075 -0.099,0.361 0,0.436l0.349,0.062c0.571,0.099 0.646,0.186 0.646,1.355l-0,1.298c-2.371,-1.439 -4.17,-2.006 -4.747,-2.231c-0.384,-0.618 -0.973,-1.137 -1.762,-1.61c-3.257,-1.952 -3.733,-2.631 -3.733,-2.631c-3.685,-4.251 2.631,-8.139 3.427,-8.506c0.795,-0.368 3.977,-0.673 4.589,1.529c0.613,2.204 -0.551,3.917 -0.551,3.917c-0.428,1.041 0.49,0.734 0.49,0.734c1.224,-0.367 3.078,-3.127 2.142,-5.568c-1.04,-2.713 -4.039,-2.938 -7.283,-2.081c-3.144,0.831 -6.548,4.406 -6.548,7.282c0,2.876 3.794,4.284 5.263,5.018c1.469,0.735 1.673,1.367 1.673,1.367c-0,-0 -2.721,-0.843 -6.854,-0.204c-5.893,0.91 -6.432,5.65 -6.432,5.65c-0,0 -1.11,6.215 5.596,6.515c6.812,0.305 9.261,-4.209 9.995,-5.678c0.431,-0.86 0.923,-2.602 0.57,-4.267c1.206,0.276 2.709,1.105 4.165,2.067l-0,1.974c-0,1.169 -0.075,1.256 -0.646,1.355l-0.349,0.062c-0.099,0.075 -0.099,0.36 0,0.435c0.63,-0.024 1.26,-0.037 1.89,-0.037c0.584,0 1.193,0.012 1.864,0.037c0.1,-0.075 0.112,-0.36 0.013,-0.435l-0.348,-0.062c-0.572,-0.099 -0.646,-0.186 -0.646,-1.355l-0,-0.725c1.667,1.231 3.048,2.399 3.503,2.726c1.081,0.775 2.469,2.152 4.917,2.804c2.398,0.639 5.269,-1.698 5.242,-2.356Z"/><path d="M17.91,50.452c-0,0 -4.102,-1.16 -7.711,0.857c-3.794,2.122 -3.699,5.753 -2.353,7.1c0,-0 3.611,3.094 7.412,-0.816c3.415,-3.515 2.652,-7.141 2.652,-7.141Z" style="fill:#fff;"/><path d="M29.249,58.626l-10.503,0l-0,1.06l11.962,0c-0.5,-0.333 -0.987,-0.687 -1.459,-1.06Zm12.613,0c-0.083,0.226 -0.298,0.626 -0.693,1.06l54.419,0l0,-1.06l-53.726,0Z"/><rect x="93.298" y="61.978" width="2.279" height="3.434" style="fill:#fff;"/></g></svg>