<?xml version="1.0" encoding="UTF-8" standalone="no"?>
<!DOCTYPE svg PUBLIC "-//W3C//DTD SVG 1.1//EN" "http://www.w3.org/Graphics/SVG/1.1/DTD/svg11.dtd">
<svg width="100%" height="100%" viewBox="0 0 65 65" version="1.1" xmlns="http://www.w3.org/2000/svg" xmlns:xlink="http://www.w3.org/1999/xlink" xml:space="preserve" xmlns:serif="http://www.serif.com/" style="fill-rule:evenodd;clip-rule:evenodd;stroke-linejoin:round;stroke-miterlimit:1.41421;">
    <g id="slack">
        <g transform="matrix(1,0,0,1,2.633,2.426)">
            <path d="M21.902,0.148C18.603,0.148 15.929,2.828 15.929,6.133C15.929,6.135 15.929,6.137 15.929,6.139C15.929,9.417 18.624,12.115 21.902,12.118L27.876,12.118L27.876,6.133C27.879,2.853 25.182,0.151 21.902,0.148M21.902,16.108L5.973,16.108C2.674,16.108 0,18.788 0,22.094C0,25.399 2.674,28.079 5.973,28.079L21.903,28.079C25.201,28.079 27.876,25.399 27.876,22.094C27.876,18.788 25.201,16.108 21.902,16.108" style="fill:rgb(54,197,240);fill-rule:nonzero;"/>
        </g>
        <g transform="matrix(1,0,0,1,2.633,2.426)">
            <path d="M59.734,22.094C59.734,18.788 57.059,16.108 53.76,16.108C50.461,16.108 47.787,18.788 47.787,22.094L47.787,28.079L53.76,28.079C57.04,28.076 59.737,25.374 59.734,22.094M43.805,22.094L43.805,6.133C43.808,2.853 41.111,0.151 37.831,0.148C34.532,0.148 31.858,2.828 31.858,6.133L31.858,22.093C31.858,25.4 34.532,28.08 37.831,28.08C41.111,28.077 43.808,25.375 43.805,22.095" style="fill:rgb(46,182,125);fill-rule:nonzero;"/>
        </g>
        <g transform="matrix(1,0,0,1,2.633,2.426)">
            <path d="M37.831,60C41.111,59.997 43.808,57.295 43.805,54.015C43.808,50.735 41.111,48.033 37.831,48.03L31.858,48.03L31.858,54.015C31.858,57.32 34.532,60 37.831,60M37.831,44.04L53.761,44.04C57.059,44.04 59.734,41.36 59.734,38.054C59.737,34.774 57.04,32.072 53.76,32.069L37.831,32.069C34.532,32.069 31.858,34.749 31.858,38.054C31.858,38.056 31.858,38.058 31.858,38.06C31.858,41.338 34.553,44.036 37.831,44.039" style="fill:rgb(236,178,46);fill-rule:nonzero;"/>
        </g>
        <g transform="matrix(1,0,0,1,2.633,2.426)">
            <path d="M0,38.054C0,38.056 0,38.058 0,38.06C0,41.338 2.695,44.036 5.973,44.039C9.253,44.036 11.95,41.334 11.947,38.054L11.947,32.069L5.973,32.069C2.674,32.069 0,34.749 0,38.054M15.929,38.054L15.929,54.014C15.929,57.32 18.603,60 21.902,60C25.182,59.997 27.879,57.295 27.876,54.015L27.876,38.054C27.876,38.052 27.876,38.05 27.876,38.048C27.876,34.77 25.18,32.072 21.902,32.069C18.603,32.069 15.929,34.749 15.929,38.054" style="fill:rgb(224,30,90);fill-rule:nonzero;"/>
        </g>
    </g>
</svg>
