<?xml version="1.0" encoding="UTF-8" standalone="no"?>
<!DOCTYPE svg PUBLIC "-//W3C//DTD SVG 1.1//EN" "http://www.w3.org/Graphics/SVG/1.1/DTD/svg11.dtd">
<svg width="100%" height="100%" viewBox="0 0 100 99" version="1.1" xmlns="http://www.w3.org/2000/svg" xmlns:xlink="http://www.w3.org/1999/xlink" xml:space="preserve" xmlns:serif="http://www.serif.com/" style="fill-rule:evenodd;clip-rule:evenodd;stroke-linejoin:round;stroke-miterlimit:1.41421;">
    <g id="solr" transform="matrix(0.161341,0,0,0.161341,-12.9447,-20.7012)">
        <path d="M412.975,717.019C379.15,697.932 361.638,688.901 340.877,676.57C386.784,681.873 453.375,689.655 499.268,695.076C474.919,707.795 440.678,714.143 412.975,717.019ZM544.44,669.476C479.694,657.064 412.967,644.351 348.489,630.616C442.619,611.063 538.988,592.534 633.365,574.206C624.777,598.76 574.817,654.905 546.208,669.729L544.44,669.476ZM340.692,585.401C448.627,524.648 563.784,460.235 667.071,402.091C672.773,453.681 666.209,504.453 646.433,548.359C546.503,560.657 440.648,573.308 340.692,585.401ZM321.004,542.576C411.297,443.936 502.317,345.962 593,247.679C629.135,284.975 653.045,333.154 663.658,383.819C550.139,437.896 435.267,489.846 321.004,542.576ZM287.832,509.787C335.654,396.32 400.43,264.516 446.3,165.076C497.119,175.059 545.182,200.291 582,236.742C485.448,327.392 384.879,419.666 287.832,509.787ZM153.281,488.093C138.819,463.446 125.22,438.301 111.222,413.388C113.815,383.042 121.411,352.927 134.192,325.265C140.756,379.516 147.361,433.768 153.281,488.093ZM245.749,488.576C257.735,385.717 269.639,282.765 282.433,179.995C320.346,164.694 366.054,154.564 428.873,161.54C397.809,217.038 279.015,429.452 245.749,488.576ZM200.114,481.552C189.784,432.241 165.743,311.812 159.322,279.434C184.848,243.762 217.826,213.271 256.636,192.576C239.907,281.553 217.555,392.712 200.114,481.552Z" style="fill:rgb(218,67,39);fill-rule:nonzero;"/>
    </g>
</svg>
