<?xml version="1.0" encoding="UTF-8" standalone="no"?>
<!DOCTYPE svg PUBLIC "-//W3C//DTD SVG 1.1//EN" "http://www.w3.org/Graphics/SVG/1.1/DTD/svg11.dtd">
<svg width="100%" height="100%" viewBox="0 0 950 950" version="1.1" xmlns="http://www.w3.org/2000/svg" xmlns:xlink="http://www.w3.org/1999/xlink" xml:space="preserve" xmlns:serif="http://www.serif.com/" style="fill-rule:evenodd;clip-rule:evenodd;stroke-linecap:round;stroke-linejoin:round;stroke-miterlimit:1.5;">
    <g id="sqldm">
        <g transform="matrix(1,0,0,1,17.5,17)">
            <path d="M40.03,489.799C31.743,492.113 31.911,507.022 39.826,511.118L224.219,521.33L353.969,659.805C359.23,665.717 364.288,667.383 368.919,660.139L537.653,394.869L592.911,499.722C598.039,507.611 603.037,510.713 607.916,509.454L875.478,494.726C882.671,490.866 885.581,479.784 877.092,472.258L657.641,457.098L550.49,251.825C545.468,246.316 539.555,246.288 532.905,250.803L351.382,541.767L292.969,480.919C289.376,476.027 283.202,473.936 274.677,474.396L40.03,489.799" style="fill:white;stroke:white;stroke-width:1px;"/>
        </g>
        <g transform="matrix(1,0,0,1,17.5,17)">
            <path d="M458.12,2.158C709.069,2.158 912.808,205.87 912.808,456.787C912.808,707.703 709.069,911.416 458.12,911.416C207.171,911.416 3.432,707.703 3.432,456.787C3.432,205.87 207.171,2.158 458.12,2.158ZM40.03,489.799C31.743,492.113 31.911,507.022 39.826,511.118L224.219,521.33L353.969,659.805C359.23,665.717 364.288,667.383 368.919,660.139L537.653,394.869L592.911,499.722C598.039,507.611 603.037,510.713 607.916,509.454L875.478,494.726C882.671,490.866 885.581,479.784 877.092,472.258L657.641,457.098L550.49,251.825C545.468,246.316 539.555,246.288 532.905,250.803L351.382,541.767L292.969,480.919C289.376,476.027 283.202,473.936 274.677,474.396L40.03,489.799Z" style="fill:rgb(149,201,66);stroke:rgb(149,201,66);stroke-width:1px;"/>
        </g>
    </g>
</svg>
