<?xml version="1.0" encoding="UTF-8" standalone="no"?>
<!DOCTYPE svg PUBLIC "-//W3C//DTD SVG 1.1//EN" "http://www.w3.org/Graphics/SVG/1.1/DTD/svg11.dtd">
<svg width="100%" height="100%" viewBox="0 0 100 100" version="1.1" xmlns="http://www.w3.org/2000/svg" xmlns:xlink="http://www.w3.org/1999/xlink" xml:space="preserve" xmlns:serif="http://www.serif.com/" style="fill-rule:evenodd;clip-rule:evenodd;stroke-linecap:round;stroke-linejoin:round;stroke-miterlimit:1.5;">
    <g id="Layer1">
        <path d="M27.281,60.867L73.213,60.966C80.766,59.989 83.736,55.05 84.861,51.689C86.458,46.915 84.329,38.584 75.76,37.011L72.306,36.694L71.953,31.618C69.3,16.28 50.08,14.123 39.89,27.866C32.507,26.865 27.927,29.609 26.535,36.615C10.557,42.88 12.1,57.769 27.281,60.867Z" style="fill:rgb(18,111,148);stroke:black;stroke-width:1.56px;"/>
        <g transform="matrix(1,0,0,1,-0.339838,1.17133)">
            <path d="M26.972,76.887L30.102,76.582C30.29,77.633 30.672,78.404 31.248,78.897C31.824,79.39 32.601,79.636 33.579,79.636C34.615,79.636 35.396,79.417 35.921,78.979C36.446,78.54 36.709,78.028 36.709,77.441C36.709,77.064 36.598,76.744 36.377,76.479C36.156,76.215 35.771,75.985 35.22,75.789C34.843,75.659 33.985,75.427 32.645,75.094C30.921,74.666 29.711,74.141 29.015,73.518C28.037,72.641 27.548,71.573 27.548,70.312C27.548,69.501 27.778,68.742 28.238,68.036C28.698,67.329 29.361,66.791 30.227,66.422C31.093,66.052 32.138,65.868 33.362,65.868C35.361,65.868 36.866,66.306 37.877,67.183C38.888,68.059 39.418,69.229 39.469,70.693L36.252,70.834C36.115,70.015 35.82,69.427 35.367,69.068C34.914,68.709 34.235,68.53 33.329,68.53C32.395,68.53 31.663,68.722 31.134,69.106C30.794,69.352 30.623,69.682 30.623,70.095C30.623,70.472 30.783,70.794 31.102,71.062C31.507,71.403 32.493,71.758 34.057,72.127C35.622,72.496 36.78,72.879 37.529,73.273C38.279,73.668 38.866,74.208 39.29,74.893C39.714,75.577 39.925,76.423 39.925,77.43C39.925,78.343 39.672,79.198 39.165,79.995C38.658,80.791 37.94,81.384 37.013,81.771C36.086,82.159 34.93,82.353 33.547,82.353C31.533,82.353 29.986,81.887 28.907,80.956C27.827,80.025 27.182,78.669 26.972,76.887Z" style="fill-rule:nonzero;"/>
            <path d="M41.816,76.887L44.946,76.582C45.134,77.633 45.516,78.404 46.092,78.897C46.668,79.39 47.445,79.636 48.423,79.636C49.459,79.636 50.24,79.417 50.765,78.979C51.29,78.54 51.553,78.028 51.553,77.441C51.553,77.064 51.442,76.744 51.222,76.479C51.001,76.215 50.615,75.985 50.064,75.789C49.687,75.659 48.829,75.427 47.489,75.094C45.765,74.666 44.555,74.141 43.859,73.518C42.881,72.641 42.392,71.573 42.392,70.312C42.392,69.501 42.622,68.742 43.082,68.036C43.542,67.329 44.205,66.791 45.071,66.422C45.937,66.052 46.982,65.868 48.206,65.868C50.205,65.868 51.711,66.306 52.721,67.183C53.732,68.059 54.262,69.229 54.313,70.693L51.097,70.834C50.959,70.015 50.664,69.427 50.211,69.068C49.758,68.709 49.079,68.53 48.173,68.53C47.239,68.53 46.507,68.722 45.978,69.106C45.638,69.352 45.468,69.682 45.468,70.095C45.468,70.472 45.627,70.794 45.946,71.062C46.351,71.403 47.337,71.758 48.901,72.127C50.466,72.496 51.624,72.879 52.373,73.273C53.123,73.668 53.71,74.208 54.134,74.893C54.558,75.577 54.77,76.423 54.77,77.43C54.77,78.343 54.516,79.198 54.009,79.995C53.502,80.791 52.785,81.384 51.857,81.771C50.93,82.159 49.774,82.353 48.391,82.353C46.377,82.353 44.83,81.887 43.751,80.956C42.671,80.025 42.026,78.669 41.816,76.887Z" style="fill-rule:nonzero;"/>
            <path d="M56.823,74.203C56.823,72.58 57.066,71.218 57.551,70.117C57.914,69.305 58.408,68.577 59.035,67.932C59.661,67.288 60.348,66.81 61.094,66.498C62.087,66.078 63.231,65.868 64.528,65.868C66.875,65.868 68.753,66.596 70.162,68.052C71.571,69.508 72.276,71.533 72.276,74.127C72.276,76.698 71.577,78.71 70.179,80.163C68.78,81.616 66.911,82.342 64.571,82.342C62.202,82.342 60.319,81.619 58.921,80.174C57.522,78.729 56.823,76.738 56.823,74.203ZM60.138,74.094C60.138,75.898 60.554,77.265 61.387,78.196C62.221,79.127 63.278,79.593 64.561,79.593C65.843,79.593 66.895,79.131 67.717,78.207C68.54,77.283 68.951,75.898 68.951,74.05C68.951,72.225 68.55,70.863 67.75,69.965C66.949,69.066 65.886,68.617 64.561,68.617C63.235,68.617 62.166,69.072 61.355,69.981C60.543,70.89 60.138,72.261 60.138,74.094Z" style="fill-rule:nonzero;"/>
        </g>
    </g>
</svg>
