<?xml version="1.0" encoding="UTF-8" standalone="no"?>
<!DOCTYPE svg PUBLIC "-//W3C//DTD SVG 1.1//EN" "http://www.w3.org/Graphics/SVG/1.1/DTD/svg11.dtd">
<svg width="100%" height="100%" viewBox="0 0 300 300" version="1.1" xmlns="http://www.w3.org/2000/svg" xmlns:xlink="http://www.w3.org/1999/xlink" xml:space="preserve" xmlns:serif="http://www.serif.com/" style="fill-rule:evenodd;clip-rule:evenodd;stroke-linejoin:round;stroke-miterlimit:1.41421;">
    <g id="starnetwork">
        <g transform="matrix(1,0,0,1,12.99,21.565)">
            <path d="M138.83,-0.13L110.69,87.05L120.15,87.05L138.83,29.17L157.52,87.05L166.97,87.05L138.83,-0.13Z" style="fill:rgb(0,154,222);fill-rule:nonzero;"/>
        </g>
        <g transform="matrix(1,0,0,1,12.99,21.565)">
            <path d="M184.86,107.26L246.15,107.14L196.49,143.07L199.42,152.07L274.02,98.09L181.93,98.26L184.86,107.26Z" style="fill:rgb(0,154,222);fill-rule:nonzero;"/>
        </g>
        <g transform="matrix(1,0,0,1,12.99,21.565)">
            <path d="M55.29,257L129.93,202.55L122.28,196.99L72.51,233.3L91.66,174.74L84.01,169.18L55.29,257Z" style="fill:rgb(0,154,222);fill-rule:nonzero;"/>
        </g>
        <g transform="matrix(1,0,0,1,12.99,21.565)">
            <path d="M80.94,142.91L31.52,107.14L92.53,107.26L95.45,98.26L3.65,98.08L3.65,98.09L78.02,151.9L80.94,142.91Z" style="fill:rgb(0,154,222);fill-rule:nonzero;"/>
        </g>
        <g transform="matrix(1,0,0,1,12.99,21.565)">
            <path d="M185.95,174.57L205.16,233.3L155.24,196.89L147.59,202.44L222.38,257L193.61,169.02L185.95,174.57Z" style="fill:rgb(0,154,222);fill-rule:nonzero;"/>
        </g>
        <g transform="matrix(1,0,0,1,12.99,21.565)">
            <path d="M196.03,21.93L206.16,21.93C207.74,21.93 209.1,22.21 210.25,22.76C211.4,23.32 212.34,24.11 213.07,25.13C213.8,26.15 214.34,27.39 214.68,28.84C215.02,30.29 215.19,31.91 215.19,33.71C215.19,37.22 214.4,40.03 212.82,42.13C211.24,44.23 208.88,45.28 205.72,45.28L196.02,45.28L196.02,21.93L196.03,21.93ZM216.38,87.06L232.65,87.06L232.65,86.31L218.94,54.26C220.7,53.29 222.27,52.14 223.67,50.82C225.07,49.49 226.26,47.94 227.25,46.17C228.24,44.4 228.99,42.37 229.51,40.09C230.03,37.81 230.29,35.26 230.29,32.43C230.29,28.56 229.72,25.15 228.6,22.21C227.47,19.27 225.84,16.81 223.7,14.81C221.56,12.81 218.97,11.31 215.9,10.29C212.83,9.27 209.35,8.76 205.44,8.76L180.94,8.76L180.94,87.07L196.03,87.07L196.03,58.45L204.6,58.45L216.38,87.06Z" style="fill:rgb(35,31,32);fill-rule:nonzero;"/>
            <path d="M34.96,70.02C34.67,71.1 34.2,72.02 33.53,72.79C32.87,73.56 32.01,74.17 30.95,74.62C29.89,75.07 28.61,75.29 27.1,75.29C25.24,75.29 23.6,75.07 22.21,74.62C20.81,74.17 19.64,73.44 18.69,72.41C17.74,71.39 17.03,70.05 16.57,68.4C16.1,66.75 15.87,64.74 15.87,62.38L0,62.38C0,66.83 0.78,70.66 2.34,73.89C3.9,77.12 5.95,79.79 8.5,81.9C11.05,84.02 13.94,85.58 17.19,86.61C20.44,87.64 23.74,88.14 27.11,88.14C30.84,88.14 34.19,87.65 37.17,86.66C40.15,85.67 42.68,84.26 44.78,82.41C46.88,80.56 48.49,78.3 49.62,75.61C50.75,72.92 51.31,69.86 51.31,66.41C51.31,63.18 50.86,60.29 49.96,57.72C49.06,55.16 47.7,52.85 45.87,50.81C44.04,48.77 41.76,46.94 39.04,45.32C36.32,43.71 33.12,42.24 29.47,40.91C27.71,40.16 26.11,39.39 24.66,38.6C23.21,37.81 21.97,36.97 20.95,36.07C19.93,35.17 19.14,34.21 18.58,33.17C18.02,32.13 17.75,30.96 17.75,29.67C17.75,28.42 17.93,27.23 18.29,26.12C18.65,25.01 19.19,24.05 19.9,23.24C20.62,22.43 21.52,21.8 22.62,21.33C23.71,20.86 25.01,20.63 26.52,20.63C28.13,20.63 29.51,20.91 30.66,21.46C31.81,22.02 32.75,22.79 33.48,23.77C34.21,24.76 34.75,25.94 35.09,27.32C35.43,28.7 35.6,30.22 35.6,31.86L51.36,31.86C51.36,28.31 50.79,25.06 49.64,22.1C48.49,19.14 46.85,16.6 44.72,14.46C42.59,12.33 40,10.66 36.98,9.46C33.95,8.26 30.55,7.66 26.79,7.66C23.13,7.66 19.79,8.19 16.76,9.25C13.73,10.31 11.11,11.79 8.91,13.69C6.71,15.59 4.99,17.89 3.77,20.6C2.55,23.31 1.94,26.29 1.94,29.55C1.94,32.96 2.54,35.94 3.74,38.5C4.94,41.06 6.56,43.32 8.58,45.28C10.6,47.24 12.95,48.93 15.63,50.36C18.3,51.79 21.11,53.07 24.05,54.18C26.52,55.18 28.5,56.14 29.99,57.03C31.48,57.93 32.63,58.85 33.43,59.8C34.24,60.75 34.77,61.76 35.02,62.84C35.27,63.92 35.4,65.14 35.4,66.5C35.39,67.78 35.25,68.94 34.96,70.02" style="fill:rgb(35,31,32);fill-rule:nonzero;"/>
        </g>
        <g transform="matrix(1,0,0,1,12.99,21.565)">
            <path d="M113.95,8.76L59.69,8.76L59.69,21.93L79.09,21.93L79.09,87.06L94.23,87.06L94.23,21.93L113.95,21.93L113.95,8.76Z" style="fill:rgb(35,31,32);fill-rule:nonzero;"/>
        </g>
    </g>
</svg>
