<?xml version="1.0" encoding="UTF-8" standalone="no"?><!DOCTYPE svg PUBLIC "-//W3C//DTD SVG 1.1//EN" "http://www.w3.org/Graphics/SVG/1.1/DTD/svg11.dtd"><svg width="100%" height="100%" viewBox="0 0 300 300" version="1.1" xmlns="http://www.w3.org/2000/svg" xmlns:xlink="http://www.w3.org/1999/xlink" xml:space="preserve" xmlns:serif="http://www.serif.com/" style="fill-rule:evenodd;clip-rule:evenodd;stroke-linejoin:round;stroke-miterlimit:2;"><g id="statuscake"><g><path d="M212.498,104.096c2.148,-13.933 17.348,-24.746 35.755,-24.746c19.877,0 36.015,12.61 36.015,28.142c-0,15.531 -16.138,28.141 -36.015,28.141c-7.117,-0 -13.755,-1.617 -19.345,-4.406c-2.955,-10.253 -8.676,-19.521 -16.41,-27.131Z" style="fill:#0899db;"/><path d="M108.179,101.801c-3.489,-18.122 3.219,-35.014 16.58,-39.512c13.163,-4.431 28.456,4.625 36.729,20.711c-0.789,-0.022 -1.58,-0.034 -2.374,-0.034c-19.881,0 -37.892,7.2 -50.935,18.835Z" style="fill:#f7a11a;"/><path d="M89.562,130.406c-1.317,0.248 -2.676,0.378 -4.065,0.378c-12.076,0 -21.88,-9.804 -21.88,-21.88c-0,-12.076 9.804,-21.881 21.88,-21.881c10.112,0 18.631,6.875 21.135,16.201c-7.981,7.569 -13.931,16.862 -17.07,27.182Z" style="fill:#0899db;"/><path d="M21.375,139.096c0.097,-8.704 14.813,-15.755 32.925,-15.755c17.863,-0 32.423,6.859 32.913,15.398c-0.747,8.146 -0.838,8.519 -0.838,17.739c0,22.265 8.711,32.474 14.961,47.253c12.312,12.381 15.223,16.306 27.652,21.782c13.703,6.038 17.605,6.362 32.97,6.362c16.666,-0 17.514,-2.257 30.984,-7.519c11.524,-8.268 15.823,-8.464 26.992,-23.153c2.474,-7.552 9.654,-13.49 13.3,-18.243c3.646,-4.752 10.919,-5.188 18.991,-5.188c6.901,-0 14.534,2.613 19.482,7.43c4.948,4.818 13.802,14.756 13.802,21.918c-2.922,6.363 -1.076,19.35 -12.395,29.609c-4.492,10.612 -14.992,17.673 -24.628,27.895c-9.635,10.221 -21.94,18.522 -36.914,24.902c-14.974,6.38 -32.422,9.57 -52.344,9.57c-15.104,0 -29.147,-3.781 -41.517,-6.645c-12.37,-2.865 -22.59,-9.06 -32.682,-15.115c-10.091,-6.055 -18.255,-12.618 -26.718,-22.514c-7.552,-8.984 -15.814,-16.37 -21.153,-27.503c-5.339,-11.133 -9.342,-23.014 -12.012,-35.644c-2.669,-12.631 -4.004,-26.042 -4.004,-40.235c0,-8.314 -0.219,-4.613 0.233,-12.344Z" style="fill:#0899db;"/><path d="M51.286,111.974c11.628,-0 21.068,9.44 21.068,21.068c-0,11.627 -9.44,21.067 -21.068,21.067c-11.627,0 -21.068,-9.44 -21.068,-21.067c0,-11.628 9.441,-21.068 21.068,-21.068Z" style="fill:#de59a1;"/><path d="M53.127,92.779c3.634,0 6.585,3.095 6.585,6.908c0,3.812 -2.951,6.908 -6.585,6.908c-3.635,-0 -6.586,-3.096 -6.586,-6.908c0,-3.813 2.951,-6.908 6.586,-6.908Z" style="fill:#de59a1;"/><path d="M38.801,69.53c4.87,-0 8.824,3.954 8.824,8.824c0,4.871 -3.954,8.825 -8.824,8.825c-4.871,-0 -8.825,-3.954 -8.825,-8.825c0,-4.87 3.954,-8.824 8.825,-8.824Z" style="fill:#de59a1;"/><path d="M82.2,43.198c6.442,0 11.673,5.231 11.673,11.673c-0,6.443 -5.231,11.673 -11.673,11.673c-6.443,0 -11.674,-5.23 -11.674,-11.673c0,-6.442 5.231,-11.673 11.674,-11.673Z" style="fill:#de59a1;"/><path d="M105.406,60.598c2.453,-0 4.444,1.991 4.444,4.444c0,2.452 -1.991,4.444 -4.444,4.444c-2.452,-0 -4.443,-1.992 -4.443,-4.444c-0,-2.453 1.991,-4.444 4.443,-4.444Z" style="fill:#de59a1;"/><path d="M140.933,54.267c5.781,-0 10.474,4.693 10.474,10.474c-0,5.781 -4.693,10.474 -10.474,10.474c-5.781,0 -10.474,-4.693 -10.474,-10.474c-0,-5.781 4.693,-10.474 10.474,-10.474Z" style="fill:#f06522;"/><path d="M154.256,13.585c5.206,0 9.433,4.227 9.433,9.433c-0,5.206 -4.227,9.433 -9.433,9.433c-5.207,0 -9.434,-4.227 -9.434,-9.433c0,-5.206 4.227,-9.433 9.434,-9.433Z" style="fill:#de59a1;"/><path d="M119.022,3.316c2.368,0 4.291,1.923 4.291,4.291c0,2.368 -1.923,4.291 -4.291,4.291c-2.368,-0 -4.29,-1.923 -4.29,-4.291c-0,-2.368 1.922,-4.291 4.29,-4.291Z" style="fill:#de59a1;"/><path d="M225.925,76.284c7.894,-0 14.304,6.409 14.304,14.304c-0,7.895 -6.41,14.304 -14.304,14.304c-7.895,0 -14.305,-6.409 -14.305,-14.304c0,-7.895 6.41,-14.304 14.305,-14.304Z" style="fill:#de59a1;"/><path d="M248.269,39.515c4.85,-0 8.788,3.937 8.788,8.788c0,4.85 -3.938,8.787 -8.788,8.787c-4.85,0 -8.788,-3.937 -8.788,-8.787c0,-4.851 3.938,-8.788 8.788,-8.788Z" style="fill:#de59a1;"/><path d="M218.279,27.234c6.762,0 12.252,5.655 12.252,12.621c-0,6.965 -5.49,12.62 -12.252,12.62c-6.761,0 -12.251,-5.655 -12.251,-12.62c0,-6.966 5.49,-12.621 12.251,-12.621Z" style="fill:#f06522;"/><path d="M191.897,52.497c9.871,0 17.885,8.074 17.885,18.019c0,9.945 -8.014,18.019 -17.885,18.019c-9.871,-0 -17.885,-8.074 -17.885,-18.019c0,-9.945 8.014,-18.019 17.885,-18.019Z" style="fill:#f7a11a;"/><path d="M232.465,65.063c2.172,0 3.935,1.763 3.935,3.935c0,2.172 -1.763,3.935 -3.935,3.935c-2.171,0 -3.935,-1.763 -3.935,-3.935c0,-2.172 1.764,-3.935 3.935,-3.935Z" style="fill:#de59a1;"/><path d="M269.688,73.396c7.291,0 13.21,6.776 13.21,15.122c0,8.346 -5.919,15.122 -13.21,15.122c-7.292,-0 -13.211,-6.776 -13.211,-15.122c-0,-8.346 5.919,-15.122 13.211,-15.122Z" style="fill:#de59a1;"/></g></g></svg>