<?xml version="1.0" encoding="UTF-8" standalone="no"?>
<!DOCTYPE svg PUBLIC "-//W3C//DTD SVG 1.1//EN" "http://www.w3.org/Graphics/SVG/1.1/DTD/svg11.dtd">
<svg width="100%" height="100%" viewBox="0 0 300 300" version="1.1" xmlns="http://www.w3.org/2000/svg" xmlns:xlink="http://www.w3.org/1999/xlink" xml:space="preserve" xmlns:serif="http://www.serif.com/" style="fill-rule:evenodd;clip-rule:evenodd;stroke-linejoin:round;stroke-miterlimit:1.41421;">
    <g id="statuscake">
        <path d="M212.498,104.096C214.646,90.163 229.846,79.35 248.253,79.35C268.13,79.35 284.268,91.96 284.268,107.492C284.268,123.023 268.13,135.633 248.253,135.633C241.136,135.633 234.498,134.016 228.908,131.227C225.953,120.974 220.232,111.706 212.498,104.096Z" style="fill:rgb(8,153,219);"/>
        <path d="M108.179,101.801C104.69,83.679 111.398,66.787 124.759,62.289C137.922,57.858 153.215,66.914 161.488,83C160.699,82.978 159.908,82.966 159.114,82.966C139.233,82.966 121.222,90.166 108.179,101.801Z" style="fill:rgb(247,161,26);"/>
        <path d="M89.562,130.406C88.245,130.654 86.886,130.784 85.497,130.784C73.421,130.784 63.617,120.98 63.617,108.904C63.617,96.828 73.421,87.023 85.497,87.023C95.609,87.023 104.128,93.898 106.632,103.224C98.651,110.793 92.701,120.086 89.562,130.406Z" style="fill:rgb(8,153,219);"/>
        <path d="M21.375,139.096C21.472,130.392 36.188,123.341 54.3,123.341C72.163,123.341 86.723,130.2 87.213,138.739C86.466,146.885 86.375,147.258 86.375,156.478C86.375,178.743 95.086,188.952 101.336,203.731C113.648,216.112 116.559,220.037 128.988,225.513C142.691,231.551 146.593,231.875 161.958,231.875C178.624,231.875 179.472,229.618 192.942,224.356C204.466,216.088 208.765,215.892 219.934,201.203C222.408,193.651 229.588,187.713 233.234,182.96C236.88,178.208 244.153,177.772 252.225,177.772C259.126,177.772 266.759,180.385 271.707,185.202C276.655,190.02 285.509,199.958 285.509,207.12C282.587,213.483 284.433,226.47 273.114,236.729C268.622,247.341 258.122,254.402 248.486,264.624C238.851,274.845 226.546,283.146 211.572,289.526C196.598,295.906 179.15,299.096 159.228,299.096C144.124,299.096 130.081,295.315 117.711,292.451C105.341,289.586 95.121,283.391 85.029,277.336C74.938,271.281 66.774,264.718 58.311,254.822C50.759,245.838 42.497,238.452 37.158,227.319C31.819,216.186 27.816,204.305 25.146,191.675C22.477,179.044 21.142,165.633 21.142,151.44C21.142,143.126 20.923,146.827 21.375,139.096L21.375,139.096Z" style="fill:rgb(8,153,219);fill-rule:nonzero;"/>
        <g transform="matrix(1,0,0,1,-0.586342,-0.85267)">
            <circle cx="51.872" cy="133.894" r="21.068" style="fill:rgb(222,89,161);"/>
        </g>
        <ellipse cx="53.127" cy="99.687" rx="6.586" ry="6.908" style="fill:rgb(222,89,161);"/>
        <circle cx="38.801" cy="78.354" r="8.825" style="fill:rgb(222,89,161);"/>
        <circle cx="82.2" cy="54.871" r="11.673" style="fill:rgb(222,89,161);"/>
        <circle cx="105.406" cy="65.042" r="4.444" style="fill:rgb(222,89,161);"/>
        <circle cx="140.933" cy="64.741" r="10.474" style="fill:rgb(240,101,34);"/>
        <circle cx="154.256" cy="23.018" r="9.433" style="fill:rgb(222,89,161);"/>
        <circle cx="119.022" cy="7.607" r="4.291" style="fill:rgb(222,89,161);"/>
        <circle cx="225.925" cy="90.588" r="14.304" style="fill:rgb(222,89,161);"/>
        <circle cx="248.269" cy="48.303" r="8.788" style="fill:rgb(222,89,161);"/>
        <g transform="matrix(1,0,0,1,-0.14527,-0.543182)">
            <ellipse cx="218.425" cy="40.398" rx="12.251" ry="12.621" style="fill:rgb(240,101,34);"/>
        </g>
        <g transform="matrix(1.20224,0,0,0.999066,-36.9583,0.168919)">
            <ellipse cx="190.358" cy="70.413" rx="14.876" ry="18.036" style="fill:rgb(247,161,26);"/>
        </g>
        <circle cx="232.465" cy="68.998" r="3.935" style="fill:rgb(222,89,161);"/>
        <ellipse cx="269.688" cy="88.518" rx="13.211" ry="15.122" style="fill:rgb(222,89,161);"/>
    </g>
</svg>
