<?xml version="1.0" encoding="UTF-8" standalone="no"?><!DOCTYPE svg PUBLIC "-//W3C//DTD SVG 1.1//EN" "http://www.w3.org/Graphics/SVG/1.1/DTD/svg11.dtd"><svg width="100%" height="100%" viewBox="0 0 100 100" version="1.1" xmlns="http://www.w3.org/2000/svg" xmlns:xlink="http://www.w3.org/1999/xlink" xml:space="preserve" xmlns:serif="http://www.serif.com/" style="fill-rule:evenodd;clip-rule:evenodd;stroke-linejoin:round;stroke-miterlimit:2;"><g id="stonnebranch"><g><g id="Page-4"><g id="Logo-horizontal"><path id="Combined-Shape-Copy-2" d="M53.566,5.131l33.365,19.319c2.228,1.297 3.601,3.689 3.597,6.267l-0,38.567c0.004,2.577 -1.37,4.969 -3.597,6.266l-33.365,19.319c-2.203,1.277 -4.929,1.277 -7.132,0l-33.365,-19.319c-2.227,-1.297 -3.601,-3.689 -3.597,-6.266l0,-38.567c-0.004,-2.578 1.369,-4.97 3.597,-6.267l33.365,-19.319c2.203,-1.277 4.929,-1.277 7.132,-0Z" style="fill:#156de0;fill-rule:nonzero;"/><path id="Path" d="M35.08,63.351c0,3.281 0.906,4.082 4.154,4.812c1.51,0.365 4.984,0.948 9.515,0.948c11.707,-0 16.237,-3.572 16.237,-11.009c0,-6.126 -3.097,-8.824 -8.684,-10.938l-7.855,-2.989c-2.266,-0.876 -3.095,-1.313 -3.095,-2.48c-0,-1.312 1.056,-1.968 5.588,-1.968c4.153,0 6.495,0.51 8.08,0.875c3.323,0.802 4.23,-0 4.23,-3.282l-0,-0.729c-0,-3.28 -0.831,-4.083 -4.154,-4.812c-0.906,-0.218 -3.476,-0.874 -8.007,-0.874c-11.175,-0 -15.405,3.644 -15.405,10.718c0,5.979 3.021,8.385 7.855,10.353l7.023,2.844c3.852,1.53 4.758,2.042 4.758,3.354c0,1.676 -1.435,2.115 -5.815,2.115c-5.363,-0 -8.383,-0.657 -10.271,-1.167c-3.323,-0.875 -4.154,0.146 -4.154,3.427l0,0.802Z" style="fill:#fff;fill-rule:nonzero;"/></g></g></g></g></svg>