<?xml version="1.0" encoding="UTF-8" standalone="no"?><!DOCTYPE svg PUBLIC "-//W3C//DTD SVG 1.1//EN" "http://www.w3.org/Graphics/SVG/1.1/DTD/svg11.dtd"><svg width="100%" height="100%" viewBox="0 0 100 100" version="1.1" xmlns="http://www.w3.org/2000/svg" xmlns:xlink="http://www.w3.org/1999/xlink" xml:space="preserve" xmlns:serif="http://www.serif.com/" style="fill-rule:evenodd;clip-rule:evenodd;stroke-linejoin:round;stroke-miterlimit:2;"><path id="path26" d="M62.085,96.076c-0.856,-0.945 -0.949,-3.818 -0.949,-29.331l0,-28.282c0,-0 33.006,-32.8 37.916,-37.629c2.449,0.788 0.43,6.671 -9.57,33.114c-6.847,18.106 -14.637,40.374 -22.067,60.743c-0.894,2.063 -1.31,2.436 -2.718,2.436c-0.915,-0 -2.09,-0.472 -2.612,-1.048l0,-0.003Z" style="fill:#5777b8;fill-rule:nonzero;"/><path id="path36" d="M88.026,3.354c-24.413,8.797 -46.2,15.446 -76.184,26.3c-9.454,3.247 -10.215,5.992 -6.524,7.759c21.044,0.545 44.401,1.055 55.819,1.048c5.429,-5 33.585,-33.089 37.915,-37.628c0.053,0 0,-0 0,-0c-1.172,-2.148 -4.669,0.23 -11.024,2.52l-0.002,0.001Z" style="fill:#f6b81d;fill-rule:nonzero;"/></svg>