<?xml version="1.0" encoding="UTF-8" standalone="no"?>
<!DOCTYPE svg PUBLIC "-//W3C//DTD SVG 1.1//EN" "http://www.w3.org/Graphics/SVG/1.1/DTD/svg11.dtd">
<svg width="100%" height="100%" viewBox="0 0 800 800" version="1.1" xmlns="http://www.w3.org/2000/svg" xmlns:xlink="http://www.w3.org/1999/xlink" xml:space="preserve" xmlns:serif="http://www.serif.com/" style="fill-rule:evenodd;clip-rule:evenodd;stroke-linejoin:round;stroke-miterlimit:2;">
    <g transform="matrix(1,0,0,1,-200,0)">
        <path d="M713.24,333.333L861.333,333.333C875.325,333.333 886.667,344.675 886.667,358.667L886.667,493.56C886.667,544.981 844.981,586.666 793.56,586.666L793.12,586.666C741.698,586.674 700.007,544.994 700,493.573L700,346.573C700,339.261 705.928,333.333 713.24,333.333Z" style="fill:rgb(80,89,201);fill-rule:nonzero;"/>
    </g>
    <g transform="matrix(1,0,0,1,-200,0)">
        <circle cx="813.333" cy="246.667" r="60" style="fill:rgb(80,89,201);"/>
    </g>
    <g transform="matrix(1,0,0,1,-200,0)">
        <circle cx="626.667" cy="220" r="86.667" style="fill:rgb(123,131,235);"/>
    </g>
    <g transform="matrix(1,0,0,1,-200,0)">
        <path d="M742.227,333.333L497.773,333.333C483.949,333.675 473.013,345.148 473.333,358.973L473.333,512.827C471.403,595.79 537.039,664.636 620,666.667C702.961,664.636 768.597,595.79 766.667,512.827L766.667,358.973C766.987,345.148 756.051,333.675 742.227,333.333Z" style="fill:rgb(123,131,235);fill-rule:nonzero;"/>
    </g>
    <g transform="matrix(1,0,0,1,-200,0)">
        <path d="M633.333,333.333L633.333,548.933C633.267,558.82 627.276,567.702 618.133,571.466C615.222,572.698 612.094,573.333 608.933,573.333L485.067,573.333C483.333,568.933 481.733,564.533 480.4,560C475.733,544.701 473.351,528.795 473.333,512.8L473.333,358.933C473.013,345.13 483.931,333.675 497.733,333.333L633.333,333.333Z" style="fill-opacity:0.1;fill-rule:nonzero;"/>
    </g>
    <g transform="matrix(1,0,0,1,-200,0)">
        <path d="M620,333.333L620,562.266C620,565.427 619.365,568.556 618.133,571.466C614.369,580.609 605.487,586.6 595.6,586.666L491.333,586.666C489.067,582.266 486.933,577.866 485.067,573.333C483.2,568.8 481.733,564.533 480.4,560C475.733,544.701 473.351,528.795 473.333,512.8L473.333,358.933C473.013,345.13 483.931,333.675 497.733,333.333L620,333.333Z" style="fill-opacity:0.2;fill-rule:nonzero;"/>
    </g>
    <g transform="matrix(1,0,0,1,-200,0)">
        <path d="M620,333.333L620,535.6C619.899,549.034 609.034,559.898 595.6,560L480.4,560C475.733,544.701 473.351,528.795 473.333,512.8L473.333,358.933C473.013,345.13 483.931,333.675 497.733,333.333L620,333.333Z" style="fill-opacity:0.2;fill-rule:nonzero;"/>
    </g>
    <g transform="matrix(1,0,0,1,-200,0)">
        <path d="M606.667,333.333L606.667,535.6C606.565,549.034 595.7,559.898 582.267,560L480.4,560C475.733,544.701 473.351,528.795 473.333,512.8L473.333,358.933C473.013,345.13 483.931,333.675 497.733,333.333L606.667,333.333Z" style="fill-opacity:0.2;fill-rule:nonzero;"/>
    </g>
    <g transform="matrix(1,0,0,1,-200,0)">
        <path d="M633.333,264.4L633.333,306.4C631.067,306.533 628.933,306.667 626.667,306.667C624.4,306.667 622.267,306.534 620,306.4C615.499,306.101 611.036,305.387 606.667,304.267C579.667,297.873 557.36,278.937 546.667,253.334C544.827,249.034 543.398,244.569 542.4,240L608.933,240C622.388,240.051 633.282,250.945 633.333,264.4Z" style="fill-opacity:0.1;fill-rule:nonzero;"/>
    </g>
    <g transform="matrix(1,0,0,1,-200,0)">
        <path d="M620,277.733L620,306.4C615.499,306.101 611.036,305.387 606.667,304.267C579.667,297.873 557.36,278.937 546.667,253.334L595.6,253.334C609.055,253.384 619.949,264.279 620,277.733Z" style="fill-opacity:0.2;fill-rule:nonzero;"/>
    </g>
    <g transform="matrix(1,0,0,1,-200,0)">
        <path d="M620,277.733L620,306.4C615.499,306.101 611.036,305.387 606.667,304.267C579.667,297.873 557.36,278.937 546.667,253.334L595.6,253.334C609.055,253.384 619.949,264.279 620,277.733Z" style="fill-opacity:0.2;fill-rule:nonzero;"/>
    </g>
    <g transform="matrix(1,0,0,1,-200,0)">
        <path d="M606.667,277.733L606.667,304.267C579.667,297.872 557.36,278.937 546.667,253.333L582.267,253.333C595.721,253.384 606.615,264.279 606.667,277.733Z" style="fill-opacity:0.2;fill-rule:nonzero;"/>
    </g>
    <g transform="matrix(1,0,0,1,-200,0)">
        <path d="M337.773,253.333L582.227,253.333C595.724,253.333 606.666,264.276 606.666,277.773L606.666,522.226C606.666,535.724 595.724,546.666 582.227,546.666L337.773,546.666C324.275,546.666 313.333,535.724 313.333,522.226L313.333,277.773C313.333,264.276 324.276,253.333 337.773,253.333Z" style="fill:url(#_Linear1);fill-rule:nonzero;"/>
    </g>
    <g transform="matrix(1,0,0,1,-200,0)">
        <path d="M524.32,346.373L475.453,346.373L475.453,479.44L444.32,479.44L444.32,346.373L395.68,346.373L395.68,320.56L524.32,320.56L524.32,346.373Z" style="fill:white;fill-rule:nonzero;"/>
    </g>
    <defs>
        <linearGradient id="_Linear1" x1="0" y1="0" x2="1" y2="0" gradientUnits="userSpaceOnUse" gradientTransform="matrix(191.417,331.527,-331.527,191.417,364.291,-32.4305)"><stop offset="0" style="stop-color:rgb(90,98,195);stop-opacity:1"/><stop offset="0.5" style="stop-color:rgb(77,85,189);stop-opacity:1"/><stop offset="1" style="stop-color:rgb(57,64,171);stop-opacity:1"/></linearGradient>
    </defs>
</svg>
