<?xml version="1.0" encoding="UTF-8" standalone="no"?><!DOCTYPE svg PUBLIC "-//W3C//DTD SVG 1.1//EN" "http://www.w3.org/Graphics/SVG/1.1/DTD/svg11.dtd"><svg width="100%" height="100%" viewBox="0 0 100 100" version="1.1" xmlns="http://www.w3.org/2000/svg" xmlns:xlink="http://www.w3.org/1999/xlink" xml:space="preserve" xmlns:serif="http://www.serif.com/" style="fill-rule:evenodd;clip-rule:evenodd;stroke-linejoin:round;stroke-miterlimit:2;"><g id="thousandeyes"><path d="M54.2,62.8c5.2,-2.9 11.3,-6.7 16.3,-13c-5,-6.2 -11.9,-9.8 -17,-12.6c12.3,-2.7 23.1,9.5 23.1,9.5l2.9,3.2l-2.8,3.1c-11.3,12.2 -22.5,9.8 -22.5,9.8Z" style="fill:#fb7c32;fill-rule:nonzero;"/><circle cx="49.4" cy="50" r="5.8" style="fill:#fff;"/><path d="M57.3,75c-21.4,0 -35.7,-22.2 -36.3,-23.1l-1.4,-2.1l1.4,-2.1c0.6,-1 15,-22.7 36.3,-22.7c12.6,0 24.7,7.5 35.9,22.4l1.8,2.4l-1.7,2.4c-11.3,15.1 -23.3,22.8 -36,22.8Zm-28.1,-25.2c3.8,5.1 14.5,17.3 28.1,17.3c9.3,0 18.7,-5.8 27.7,-17.3c-9,-11.2 -18.3,-16.9 -27.7,-16.9c-13.5,0 -24.2,11.9 -28.1,16.9Z" style="fill:#fb7c32;fill-rule:nonzero;"/><path d="M41,75c-20.8,-0.7 -34.3,-22.4 -34.9,-23.3l-1.1,-2.2l1.3,-2.1c0.6,-0.9 13.8,-21.6 34.6,-22.4c-16.2,7.4 -27.4,24.9 -27.4,24.9c0,0 9.4,15.8 27.5,25.1Z" style="fill:#fb7c32;fill-rule:nonzero;"/></g></svg>