<?xml version="1.0" encoding="UTF-8" standalone="no"?>
<!DOCTYPE svg PUBLIC "-//W3C//DTD SVG 1.1//EN" "http://www.w3.org/Graphics/SVG/1.1/DTD/svg11.dtd">
<svg width="100%" height="100%" viewBox="0 0 300 300" version="1.1" xmlns="http://www.w3.org/2000/svg" xmlns:xlink="http://www.w3.org/1999/xlink" xml:space="preserve" xmlns:serif="http://www.serif.com/" style="fill-rule:evenodd;clip-rule:evenodd;stroke-linejoin:round;stroke-miterlimit:1.41421;">
    <g id="tierpoint">
        <g transform="matrix(1,0,0,1,-127,-285.65)">
            <path d="M277,324.4C215.4,324.4 165.2,374.3 165.2,435.6C165.2,496.9 215.4,546.9 277,546.9C338.6,546.9 388.8,497 388.8,435.6C388.8,374.2 338.6,324.4 277,324.4M277,581C196.5,581 131,515.8 131,435.6C131,355.4 196.5,290.3 277,290.3C357.5,290.3 423,355.5 423,435.6C423,515.7 357.5,581 277,581" style="fill:rgb(63,174,73);fill-rule:nonzero;"/>
        </g>
        <g transform="matrix(1,0,0,1,-127,-285.65)">
            <path d="M250.2,412.6C250.2,422.3 242.4,430.1 232.8,430.2C223.1,430.2 215.3,422.4 215.2,412.8C215.2,403.1 223,395.3 232.6,395.2L232.7,395.2C242.4,395.1 250.2,402.9 250.2,412.6" style="fill:rgb(38,51,123);fill-rule:nonzero;"/>
        </g>
        <g transform="matrix(1,0,0,1,-127,-285.65)">
            <path d="M315.4,513.5C281.7,517.1 263.9,496.9 263.9,465.5L263.9,370.3L293.3,370.3L293.3,399.4L314,399.4L314,425.4L293.3,425.4L293.3,465.8C293.3,481.8 300.7,487.8 315.4,486.9L315.4,513.5Z" style="fill:rgb(38,51,123);fill-rule:nonzero;"/>
        </g>
    </g>
</svg>
