<?xml version="1.0" encoding="UTF-8" standalone="no"?>
<!DOCTYPE svg PUBLIC "-//W3C//DTD SVG 1.1//EN" "http://www.w3.org/Graphics/SVG/1.1/DTD/svg11.dtd">
<svg width="100%" height="100%" viewBox="0 0 100 100" version="1.1" xmlns="http://www.w3.org/2000/svg" xmlns:xlink="http://www.w3.org/1999/xlink" xml:space="preserve" xmlns:serif="http://www.serif.com/" style="fill-rule:evenodd;clip-rule:evenodd;stroke-linejoin:round;stroke-miterlimit:1.41421;">
    <g id="tomcat" transform="matrix(1.08149,0,0,1.0685,0.297733,-4.05843)">
        <g transform="matrix(0.333333,0,0,0.333333,0,16.6667)">
            <path d="M53.73,130C56.69,133.65 59.98,137.35 63.6,141.069C53.06,144.24 46.15,150.13 41.84,155.33C35.02,163.561 31.41,174.431 32.24,183.76L14.09,183.76C17.73,175.86 32.26,153.04 53.73,130Z" style="fill:rgb(209,164,26);fill-rule:nonzero;"/>
        </g>
        <g transform="matrix(0.92465,0,0,0.935887,-0.275299,3.79823)">
            <path d="M95.465,80.962L87.509,80.962C69.257,71.553 53.233,64.917 36.21,63.467C36.247,61.127 36.668,58.478 37.479,55.525L35.911,55.108C35.078,58.143 34.642,60.889 34.592,63.346C32.818,63.229 31.034,63.172 29.231,63.172C27.706,63.172 26.315,63.311 25.046,63.553C23.391,61.922 21.982,60.362 20.785,58.884C22.92,56.687 25.431,54.547 28.182,52.54L31.962,55.119L30.728,50.766C31.889,49.993 33.082,49.245 34.298,48.527L39.902,51.341L37.271,46.859C38.046,46.446 38.826,46.047 39.611,45.661L47.451,50.857L44.877,43.32C47.559,42.253 50.235,41.38 52.822,40.747C55.991,51.155 62.794,58.285 71.049,63.083C71.654,62.741 72.249,62.385 72.833,62.007L74.244,63.508L71.862,67.129L75.925,65.296L78.292,67.814L74.313,70.81L79.792,69.409L87.235,77.326L87.866,77.272C91.799,76.938 94.034,79.046 94.625,79.702C95.062,80.179 95.321,80.617 95.465,80.962Z" style="fill:rgb(209,164,26);fill-rule:nonzero;"/>
        </g>
        <g transform="matrix(0.92465,0,0,0.935887,-0.275299,3.79823)">
            <path d="M86.116,43.502C83.214,51.121 77.824,57.149 71.211,60.882C62.896,56.79 57.816,49.689 55.106,42.126L57.156,41.559L54.574,40.538C54.315,39.71 54.083,38.879 53.877,38.048L57.843,37.781L53.309,35.404C52.206,29.37 52.431,23.515 53.554,19.107C54.376,23.545 55.872,26.326 59.102,27.691C61.969,26.88 65.274,26.374 68.668,26.189L71.469,32.26L73.266,26.137C76.694,26.246 80.053,26.69 82.981,27.488C85.956,25.35 87.109,22.084 87.74,19.232C88.526,22.551 88.436,29.724 88.439,29.724C88.494,32.391 88.279,34.954 87.826,37.398L84.606,38.75L87.449,39.175C87.225,40.114 86.965,41.033 86.671,41.932L83.92,42.721L86.116,43.502Z" style="fill:rgb(255,220,118);fill-rule:nonzero;"/>
        </g>
        <g transform="matrix(0.333333,0,0,0.333333,0,16.6667)">
            <rect x="141.923" y="99.303" width="26.245" height="3.239"/>
        </g>
        <g transform="matrix(0.333333,0,0,0.333333,0,16.6667)">
            <rect x="141.923" y="91.525" width="26.245" height="3.24"/>
        </g>
        <g transform="matrix(0.333333,0,0,0.333333,0,16.6667)">
            <rect x="222.063" y="99.303" width="26.244" height="3.239"/>
        </g>
        <g transform="matrix(0.333333,0,0,0.333333,0,16.6667)">
            <rect x="222.063" y="91.525" width="26.244" height="3.24"/>
        </g>
        <g transform="matrix(0.333333,0,0,0.333333,0,16.6667)">
            <path d="M212.813,72.316L185.626,72.316L182.605,72.316L170.045,72.316L170.045,69.4L183.354,69.4C184.993,62.383 185.317,55.676 183.341,52.275C182.497,50.83 181.331,50.154 179.667,50.154C172.058,50.154 168.914,58.201 168.783,58.543L168.785,58.541L166.055,57.517C166.211,57.097 170.02,47.238 179.667,47.238C182.359,47.238 184.501,48.475 185.858,50.809C188.269,54.949 187.985,62.113 186.353,69.4L209.707,69.4C212.81,60.285 219.288,55.987 230.112,55.987L230.112,58.902C218.38,58.902 215.094,63.876 212.746,69.4L225.489,69.4L225.46,72.302L212.813,72.316Z" style="fill-rule:nonzero;"/>
        </g>
        <g transform="matrix(0.333333,0,0,0.333333,0,16.6667)">
            <path d="M214.73,86.718L214.749,86.715C211.29,81.614 210.194,77.26 211.641,72.302L208.67,72.316C207.635,75.617 208.05,80.59 210.599,84.856L180.924,84.856C182.729,81.24 184.403,76.831 185.626,72.316L182.605,72.316C181.258,77.104 179.364,81.841 177.233,85.594L176.544,86.807L193.196,97.289L183.821,103.467L185.427,105.902L195.905,98.994L207.217,106.376L208.771,103.908L198.282,97.42C198.282,97.42 213.964,87.233 214.743,86.736C214.738,86.729 214.735,86.724 214.73,86.718ZM195.87,95.526L183.553,87.771L207.624,87.777L195.87,95.526Z" style="fill-rule:nonzero;"/>
        </g>
        <g transform="matrix(0.333333,0,0,0.333333,0,16.6667)">
            <path d="M249.394,41.333C249.375,36.263 247.796,14.833 244.894,8.933C237.025,11.923 222.705,21.612 219.463,31.521C203.931,29.201 186.421,29.476 171.083,32.13C168.52,21.47 155.658,13.312 145.955,8.716C141.862,15.622 140.049,31.636 140.51,42.995C140.493,43.007 140.474,43.019 140.456,43.031C142.256,90.731 165.656,120.431 196.255,138.431C227.737,120.442 250.227,85.374 249.356,41.312C249.369,41.319 249.382,41.325 249.394,41.333ZM223.198,32.137C223.312,32.157 223.426,32.179 223.542,32.2C223.427,32.179 223.313,32.157 223.198,32.137ZM221.24,31.799C221.515,31.843 221.793,31.893 222.07,31.939C221.793,31.893 221.517,31.845 221.24,31.799ZM244.497,44.774C245.306,84.465 225.056,116.054 196.707,132.255C148.588,108.278 139.524,47.544 147.729,14.966C150.012,27.421 154.154,35.232 163.123,39.064C182.656,33.474 209.546,33.032 229.354,38.495C237.609,32.493 240.81,23.325 242.558,15.315C244.742,24.637 244.49,44.771 244.497,44.774Z" style="fill-rule:nonzero;"/>
        </g>
        <g transform="matrix(0.333333,0,0,0.333333,0,16.6667)">
            <path d="M265.017,182.091C260.076,176.563 250.394,173.946 242.31,174.14C236.572,167.31 203.306,132.278 203.306,132.278L201,135.182L241.163,178.42L242.906,178.271C253.818,177.336 260.021,183.254 261.663,185.09C262.867,186.437 263.593,187.665 263.989,188.629L241.914,188.629C191.29,162.213 146.835,143.585 99.616,139.517C99.72,132.945 100.89,125.507 103.134,117.218L98.791,116.041C96.483,124.562 95.268,132.277 95.13,139.174C90.21,138.848 85.258,138.679 80.263,138.679C76.026,138.679 72.167,139.072 68.648,139.756C64.059,135.169 60.148,130.797 56.826,126.647C78.762,103.798 114.976,83.149 146.359,75.556L145.344,71.159C111.552,79.308 74.564,101.494 53.953,122.921C44.388,110.011 40.593,99.417 39.466,91.389C38.042,81.249 40.463,71.947 46.465,64.489C55.862,52.815 69.214,51.993 82.942,54.302C82.674,56.47 82.959,58.542 83.828,59.824C87.458,65.187 106.971,67.07 118.619,61.874C110.023,49.829 92.613,43.948 87.789,46.305C86.19,47.085 84.985,48.519 84.159,50.19C79.414,49.342 74.701,48.71 71.256,48.735C59.148,48.824 49.893,53.055 42.96,61.668C36.158,70.118 33.409,80.612 35.01,92.015C36.526,102.814 41.873,114.301 50.835,126.213C49.346,127.81 47.907,129.387 46.522,130.936C24.679,155.377 8.712,181.586 8.712,185.929L8.712,188.179L37.528,188.179L37.023,185.511C35.396,176.91 38.646,166.16 45.303,158.126C49.482,153.082 56.402,147.325 67.271,144.669C76.934,154.1 89.245,164.115 102.949,173.778L124.363,173.778L124.363,171.528C124.363,168.989 123.104,166.767 120.818,165.271C117.435,163.06 112.213,162.755 107.416,164.391C102.843,159.298 100.279,152.494 99.725,144.044C146.199,148.159 190.652,166.927 240.81,193.129L268.408,193.129L268.769,191.32C269.285,188.745 267.881,185.295 265.017,182.091ZM41.838,155.255C35.022,163.481 31.409,174.349 32.237,183.679L14.084,183.679C17.731,175.785 32.26,152.967 53.728,129.919C56.686,133.575 59.98,137.269 63.6,140.992C53.06,144.16 46.149,150.052 41.838,155.255Z" style="fill-rule:nonzero;"/>
        </g>
        <g transform="matrix(0.333333,0,0,0.333333,0,16.6667)">
            <path d="M123.458,82.428L130.801,104.184L108.501,89.227L123.458,82.428Z" style="fill-rule:nonzero;"/>
        </g>
        <g transform="matrix(0.333333,0,0,0.333333,0,16.6667)">
            <path d="M101.975,91.946L109.861,105.543L93.273,97.113L101.975,91.946Z" style="fill-rule:nonzero;"/>
        </g>
        <g transform="matrix(0.333333,0,0,0.333333,0,16.6667)">
            <path d="M84.027,102.552L87.834,116.149L76.413,108.263L84.027,102.552Z" style="fill-rule:nonzero;"/>
        </g>
        <g transform="matrix(0.333333,0,0,0.333333,0,16.6667)">
            <path d="M205.585,138.992L198.515,149.87L211.023,144.159L205.585,138.992Z" style="fill-rule:nonzero;"/>
        </g>
        <g transform="matrix(0.333333,0,0,0.333333,0,16.6667)">
            <path d="M216.734,151.502L205.313,160.204L221.086,156.125L216.734,151.502Z" style="fill-rule:nonzero;"/>
        </g>
        <g transform="matrix(0.333333,0,0,0.333333,0,16.6667)">
            <path d="M188.996,33.479L197.427,51.971L202.865,33.207L188.996,33.479Z" style="fill-rule:nonzero;"/>
        </g>
        <g transform="matrix(0.333333,0,0,0.333333,0,16.6667)">
            <path d="M146.302,60.4L159.627,67.471L147.661,68.287L146.302,60.4Z" style="fill-rule:nonzero;"/>
        </g>
        <g transform="matrix(0.333333,0,0,0.333333,0,16.6667)">
            <path d="M149.565,74.814L157.723,78.077L150.925,79.98L149.565,74.814Z" style="fill-rule:nonzero;"/>
        </g>
        <g transform="matrix(0.333333,0,0,0.333333,0,16.6667)">
            <path d="M244.745,65.568L233.867,70.191L242.841,71.551L244.745,65.568Z" style="fill-rule:nonzero;"/>
        </g>
        <g transform="matrix(0.333333,0,0,0.333333,0,16.6667)">
            <path d="M240.394,78.893L231.964,81.341L238.762,83.788L240.394,78.893Z" style="fill-rule:nonzero;"/>
        </g>
    </g>
</svg>
