<?xml version="1.0" encoding="UTF-8" standalone="no"?><!DOCTYPE svg PUBLIC "-//W3C//DTD SVG 1.1//EN" "http://www.w3.org/Graphics/SVG/1.1/DTD/svg11.dtd"><svg width="100%" height="100%" viewBox="0 0 2500 2500" version="1.1" xmlns="http://www.w3.org/2000/svg" xmlns:xlink="http://www.w3.org/1999/xlink" xml:space="preserve" xmlns:serif="http://www.serif.com/" style="fill-rule:evenodd;clip-rule:evenodd;stroke-linejoin:round;stroke-miterlimit:2;"><g id="twilio"><path d="M1248.63,2170.94c-507.862,-0.001 -919.571,-411.709 -919.571,-919.561c0,-507.861 411.709,-919.561 919.571,-919.561c507.851,0 919.551,411.7 919.551,919.561c0,507.852 -411.7,919.561 -919.551,919.561Zm0,-2168.19c-689.6,0 -1248.63,559.043 -1248.63,1248.63c0,689.6 559.033,1248.62 1248.63,1248.62c689.59,0 1248.62,-559.023 1248.62,-1248.62c0,-689.59 -559.033,-1248.63 -1248.63,-1248.63l0.01,0Z" style="fill:#cf272d;fill-rule:nonzero;"/><path d="M1299.96,940.4c0,-143.379 116.24,-259.619 259.629,-259.619c143.389,0 259.619,116.24 259.619,259.619c0,143.399 -116.23,259.629 -259.619,259.629c-143.389,0 -259.629,-116.23 -259.629,-259.629m0,621.934c0,-143.379 116.24,-259.629 259.629,-259.629c143.389,0 259.619,116.25 259.619,259.629c0,143.389 -116.23,259.629 -259.619,259.629c-143.389,0 -259.629,-116.24 -259.629,-259.629m-621.924,0c0,-143.379 116.25,-259.629 259.629,-259.629c143.389,0 259.629,116.25 259.629,259.629c0,143.389 -116.24,259.629 -259.629,259.629c-143.379,0 -259.629,-116.24 -259.629,-259.629m0,-621.924c0,-143.389 116.25,-259.619 259.629,-259.619c143.389,0 259.629,116.23 259.629,259.619c0,143.399 -116.24,259.629 -259.629,259.629c-143.379,0 -259.629,-116.23 -259.629,-259.629" style="fill:#cf272d;fill-rule:nonzero;"/></g></svg>