<?xml version="1.0" encoding="UTF-8" standalone="no"?>
<!DOCTYPE svg PUBLIC "-//W3C//DTD SVG 1.1//EN" "http://www.w3.org/Graphics/SVG/1.1/DTD/svg11.dtd">
<svg width="100%" height="100%" viewBox="0 0 640 640" version="1.1" xmlns="http://www.w3.org/2000/svg" xmlns:xlink="http://www.w3.org/1999/xlink" xml:space="preserve" xmlns:serif="http://www.serif.com/" style="fill-rule:evenodd;clip-rule:evenodd;stroke-linejoin:round;stroke-miterlimit:2;">
    <path d="M279.253,268.374L279.408,360.038L301.189,359.858L301.534,324.71L336.457,324.755L336.441,305.602L301.457,305.906L301.516,287.52L339.408,287.761L339.553,268.258L279.253,268.374Z" style="fill:rgb(67,161,210);"/>
    <path d="M232.776,268.52L197.919,359.464L175.576,359.577L140.679,268.225L165.714,268.299L187.35,333.17L208.297,268.269L232.776,268.52Z" style="fill:rgb(75,86,159);"/>
    <path id="dash" d="M232.922,318.116L264.962,317.888L264.574,333.468L232.723,334.024L232.922,318.116" style="fill:rgb(70,128,187);"/>
    <path d="M18.194,267.87L19.085,359.711L72.395,359.9L72.509,345.391L125.87,345.467C126.944,345.237 127.623,344.671 127.559,343.476L127.47,338.046L81.441,337.85L81.43,325.357L127.86,325.252C129.198,325.234 129.964,324.696 129.934,323.433L129.946,320.627L92.055,320.642L92.218,310.874L131.536,310.933C132.734,310.444 133.527,309.672 133.648,308.427L133.607,307.061L102.732,306.961L102.795,298.559L135.48,298.644C137.277,298.433 138.388,297.375 138.453,295.294L113.955,295.174L113.82,287.863L141.813,287.929C143.393,287.532 144.151,286.59 144.107,285.115L124.177,285.169L123.956,279.34L144.964,279.184L144.178,277.076L134.7,277.078L134.626,273.079L142.609,273.151L140.802,268.243L18.194,267.87Z" style="fill:rgb(111,140,110);"/>
    <path d="M351.759,311.297L351.806,359.054L374.073,358.917L373.648,307.518C371.433,310.095 369.572,313.114 368.488,317.103C367.81,321.995 368.493,326.772 370.226,331.46C365.549,326.633 360.543,321.686 355.219,316.621C354.075,315.204 352.922,313.411 351.759,311.297L368.926,329.349C367.619,325.471 367.111,321.394 367.418,317.113C368.723,313.786 370.585,310.236 373.142,306.408C382.828,298.352 392.4,290.249 400.166,281.395C403.242,277.465 405.657,273.297 406.745,268.652C408.25,261.987 407.244,256.306 404.326,251.372C403.547,256.491 400.783,261.168 396.593,265.527C392.591,269.85 387.48,273.831 381.44,277.527L359.253,290.169C356.742,291.978 354.722,294.224 353.083,296.81C350.388,300.539 350.287,305.312 352.618,311.065C354.813,315.339 361.417,322.09 368.926,329.349" style="fill:rgb(114,183,172);"/>
    <g transform="matrix(1,0,0,1,-1.4356,-1.59172)">
        <circle cx="365.523" cy="267.079" r="9.683" style="fill:rgb(64,187,228);"/>
    </g>
    <path d="M401.657,239.278L404.435,233.163L407.531,239.39L414.226,240.4L409.326,244.971L410.441,251.688L404.62,248.577L398.775,251.561L399.546,245.032L395.074,240.38L401.657,239.278" style="fill:rgb(247,146,30);"/>
    <path d="M388.124,268.816L388.175,272.027L392.081,268.854L388.124,268.816Z" style="fill:rgb(98,184,190);"/>
    <path d="M388.601,294.047C397.781,286.159 404.934,277.959 407.444,269.175L425.941,269.113C432.924,269.016 439.285,270.584 445.096,273.627C451.114,276.5 455.384,281.105 457.304,288.04C458.843,292.652 459.042,297.477 457.901,302.513C457.279,307.386 454.767,311.585 450.724,315.238C447.951,318.077 444.333,320.202 439.633,321.414L462.284,359.017L436.426,359.257L417.891,324.224L410.408,324.276L411.724,359.265L388.616,359.199L388.601,294.047ZM410.275,286.945L410.173,308.102L425.039,308.025C430.041,307.408 433.875,305.492 435.892,301.56C437.148,297.733 436.806,294.153 434.565,290.864C432.535,288.556 429.141,287.362 424.918,286.842L410.275,286.945Z" style="fill:rgb(98,184,190);"/>
    <path d="M548.112,268.247L621.863,268.145L621.745,287.38L596.137,286.882L596.256,359.423L574.079,359.637L574.036,287.186L548.188,286.982L548.112,268.247Z" style="fill:rgb(232,90,36);"/>
    <path d="M537.456,276.895L523.705,291.526C519.702,287.418 514.906,284.815 509.202,283.938C506.232,283.726 503.451,284.166 500.81,285.089C498.162,286.085 496.435,287.663 495.607,289.812C494.817,292.777 494.987,295.092 496.057,296.797C497.713,298.981 500.065,300.606 503.235,301.572L519.067,307.095C526.049,309.754 531.306,313.693 534.389,319.243C537.132,324.516 537.857,330.153 536.641,336.139C535.875,342.148 533.652,346.739 530.178,350.111C527.272,353.332 523.765,355.768 519.644,357.4C514.198,360.204 508.32,361.557 501.843,360.896C494.477,361.393 487.262,359.326 480.265,356.21C475.982,354.263 472.033,351.495 468.419,347.902L482.831,333.21C487.262,337.83 492.228,341.082 497.989,342.301C502.69,343.119 507.035,342.868 510.814,340.926C512.942,339.223 514.247,336.808 514.803,334.169C515.184,331.104 513.678,328.792 510.603,325.942C508.075,324.326 505.038,322.935 501.219,321.89L489.283,317.825C482.836,315.159 477.966,311.07 475.195,305.083C472.794,299.501 472.318,293.8 473.679,287.986C474.506,282.242 477.529,277.73 482.253,274.173C487.222,269.903 493.367,267.055 501.328,266.403C507.936,265.283 514.076,265.523 519.814,267.434C526.749,268.935 532.554,272.355 537.456,276.895" style="fill:rgb(237,162,32);"/>
</svg>
