<?xml version="1.0" encoding="UTF-8" standalone="no"?>
<!DOCTYPE svg PUBLIC "-//W3C//DTD SVG 1.1//EN" "http://www.w3.org/Graphics/SVG/1.1/DTD/svg11.dtd">
<svg width="100%" height="100%" viewBox="0 0 350 350" version="1.1" xmlns="http://www.w3.org/2000/svg" xmlns:xlink="http://www.w3.org/1999/xlink" xml:space="preserve" xmlns:serif="http://www.serif.com/" style="fill-rule:evenodd;clip-rule:evenodd;stroke-linejoin:round;stroke-miterlimit:1.41421;">
    <g id="victr" transform="matrix(1,0,0,1,0,91.5)">
        <g transform="matrix(-1,0,0,1,360.942,1.46719)">
            <path d="M24.017,15.941L40.319,15.941L40.319,26.802L32.635,26.802L32.635,139.3L40.319,139.3L40.319,148.83L24.017,148.83L24.017,15.941Z"/>
        </g>
        <g transform="matrix(1,0,0,1,-4.39369,1.46719)">
            <path d="M24.017,15.941L40.319,15.941L40.319,26.802L32.635,26.802L32.635,139.3L40.319,139.3L40.319,148.83L24.017,148.83L24.017,15.941Z"/>
        </g>
        <g transform="matrix(1,0,0,1,-3.7073,1.46719)">
            <path d="M94.687,115.722L116.848,49.787L101.815,49.787L86.736,101.512L86.416,101.512L71.338,49.787L55.894,49.787L78.054,115.722L94.687,115.722Z" style="fill:rgb(251,182,3);fill-rule:nonzero;"/>
            <rect x="120.008" y="49.787" width="13.799" height="65.934" style="fill:rgb(251,182,3);fill-rule:nonzero;"/>
            <path d="M170.37,116.864C186.545,116.864 197.831,107.543 199.384,92.83L185.951,92.83C184.489,100.643 178.594,105.441 170.415,105.441C159.86,105.441 153.235,96.759 153.235,82.686C153.235,68.796 159.952,60.068 170.37,60.068C178.412,60.068 184.626,65.369 185.905,73.456L199.339,73.456C198.288,58.698 186.225,48.645 170.37,48.645C151.27,48.645 139.162,61.485 139.162,82.732C139.162,104.025 151.179,116.864 170.37,116.864Z" style="fill:rgb(251,182,3);fill-rule:nonzero;"/>
            <path d="M231.834,115.722L231.834,61.165L250.934,61.165L250.934,49.787L198.981,49.787L198.981,61.165L218.035,61.165L218.035,115.722L231.834,115.722Z" style="fill:rgb(251,182,3);fill-rule:nonzero;"/>
            <path d="M268.808,60.571L280.551,60.571C287.404,60.571 291.7,64.683 291.7,71.08C291.7,77.614 287.633,81.59 280.688,81.59L268.808,81.59L268.808,60.571ZM268.808,91.596L279.865,91.596L292.156,115.722L307.783,115.722L293.893,89.54C301.478,86.57 305.864,79.259 305.864,70.806C305.864,57.784 297.183,49.787 282.013,49.787L255.008,49.787L255.008,115.722L268.808,115.722L268.808,91.596Z" style="fill:rgb(251,182,3);fill-rule:nonzero;"/>
        </g>
    </g>
</svg>
