<?xml version="1.0" encoding="UTF-8" standalone="no"?>
<!DOCTYPE svg PUBLIC "-//W3C//DTD SVG 1.1//EN" "http://www.w3.org/Graphics/SVG/1.1/DTD/svg11.dtd">
<svg width="100%" height="100%" viewBox="0 0 528 528" version="1.1" xmlns="http://www.w3.org/2000/svg" xmlns:xlink="http://www.w3.org/1999/xlink" xml:space="preserve" xmlns:serif="http://www.serif.com/" style="fill-rule:evenodd;clip-rule:evenodd;stroke-linejoin:round;stroke-miterlimit:1.41421;">
    <g id="victraim" transform="matrix(1,0,0,1,0,60)">
        <g transform="matrix(1,0,0,-1.03547,3,330.215)">
            <path d="M203.277,146.577L262.139,146.577L262.139,102.97C253.285,72.997 213.608,73.753 203.912,102.97L203.912,146.577" style="fill:rgb(47,73,110);"/>
        </g>
        <g transform="matrix(1,0,0,1,3,32)">
            <path d="M203.277,146.577L262.139,146.577L262.139,102.97C253.285,72.997 213.608,73.753 203.912,102.97L203.912,146.577" style="fill:rgb(41,136,188);"/>
        </g>
        <g transform="matrix(6.12323e-17,-1,1,6.12323e-17,63.0603,470.495)">
            <path d="M249.982,194.481L247.774,191.066C247.552,191.062 247.242,191.049 246.843,191.026L246.843,194.481L245.319,194.481L245.319,186.211C245.401,186.211 245.719,186.197 246.273,186.168C246.826,186.14 247.272,186.126 247.611,186.126C249.711,186.126 250.761,186.939 250.761,188.565C250.761,189.054 250.616,189.5 250.326,189.903C250.036,190.306 249.671,190.59 249.231,190.755L251.676,194.481L249.982,194.481ZM246.843,187.487L246.843,189.784C247.114,189.807 247.321,189.818 247.464,189.818C248.077,189.818 248.526,189.732 248.81,189.559C249.095,189.385 249.237,189.049 249.237,188.548C249.237,188.141 249.084,187.857 248.779,187.695C248.474,187.534 247.995,187.453 247.34,187.453C247.182,187.453 247.016,187.464 246.843,187.487Z" style="fill:white;fill-rule:nonzero;"/>
            <path d="M256.181,194.481L254.628,192.511L253.234,194.481L251.563,194.481L253.883,191.388L251.749,188.435L253.369,188.435L254.645,190.281L256.068,188.435L257.677,188.435L255.356,191.388L257.891,194.481L256.181,194.481Z" style="fill:white;fill-rule:nonzero;"/>
        </g>
        <g transform="matrix(1,0,0,1,3,32)">
            <path d="M39.649,232.122L49.565,232.122L66.665,248.136L50.069,263.645L39.705,263.645L56.957,248.37L39.649,232.122"/>
        </g>
        <g transform="matrix(1,0,0,1,21,32)">
            <path d="M39.649,232.122L49.565,232.122L66.665,248.136L50.069,263.645L39.705,263.645L56.957,248.37L39.649,232.122"/>
        </g>
        <g transform="matrix(1,0,0,1,39,32)">
            <path d="M39.649,232.122L49.565,232.122L66.665,248.136L50.069,263.645L39.705,263.645L56.957,248.37L39.649,232.122"/>
        </g>
        <g transform="matrix(1.0053,0,0,1,0.504939,32)">
            <path d="M100.939,246.251L451.115,246.251L451.115,231.785L470.863,247.076L451.275,263.194L451.275,251.183L100.333,251.183L100.939,246.251"/>
        </g>
        <g transform="matrix(1.30135,0,0,1,247.151,32)">
            <path d="M175.07,213.13L152.437,213.13L138.785,142.177L112.29,214.837L103.937,214.837L77.442,142.177L63.252,213.13L40.708,213.13L67.204,81.463L79.598,81.463L108.069,170.11L135.911,81.463L148.216,81.463L175.07,213.13Z" style="fill-rule:nonzero;"/>
        </g>
        <g transform="matrix(1.14154,0,0,1,-2.57117,32)">
            <path d="M129.175,213.041L119.565,186.366L74.479,186.366L65.317,213.041L39.361,213.041L91.813,79.667L102.051,79.667L154.952,213.041L129.175,213.041ZM96.932,119.904L81.125,168.493L112.739,168.493L96.932,119.904Z" style="fill-rule:nonzero;"/>
        </g>
    </g>
</svg>
