<?xml version="1.0" encoding="UTF-8" standalone="no"?>
<!DOCTYPE svg PUBLIC "-//W3C//DTD SVG 1.1//EN" "http://www.w3.org/Graphics/SVG/1.1/DTD/svg11.dtd">
<svg width="100%" height="100%" viewBox="0 0 100 100" version="1.1" xmlns="http://www.w3.org/2000/svg" xmlns:xlink="http://www.w3.org/1999/xlink" xml:space="preserve" xmlns:serif="http://www.serif.com/" style="fill-rule:evenodd;clip-rule:evenodd;stroke-linejoin:round;stroke-miterlimit:1.41421;">
    <g transform="matrix(1,0,0,1,-8.5073,-9.04396)">
        <path d="M18.956,63.717L11.792,43.674L16.18,43.674L21.252,58.508L26.161,43.674L30.454,43.674L23.276,63.717L18.956,63.717Z" style="fill-rule:nonzero;"/>
        <rect x="30.995" y="43.674" width="4.047" height="20.043" style="fill-rule:nonzero;"/>
        <path d="M50.322,56.348L54.245,57.592C53.644,59.78 52.644,61.404 51.244,62.466C49.845,63.528 48.07,64.059 45.919,64.059C43.258,64.059 41.07,63.15 39.357,61.332C37.643,59.513 36.786,57.027 36.786,53.874C36.786,50.538 37.648,47.947 39.37,46.101C41.093,44.255 43.358,43.332 46.165,43.332C48.617,43.332 50.609,44.057 52.14,45.506C53.051,46.363 53.735,47.594 54.191,49.198L50.185,50.155C49.948,49.116 49.453,48.295 48.701,47.694C47.95,47.092 47.036,46.791 45.96,46.791C44.475,46.791 43.269,47.325 42.344,48.391C41.419,49.457 40.956,51.185 40.956,53.573C40.956,56.107 41.412,57.911 42.324,58.987C43.235,60.062 44.42,60.6 45.878,60.6C46.954,60.6 47.879,60.258 48.654,59.575C49.428,58.891 49.984,57.816 50.322,56.348Z" style="fill-rule:nonzero;"/>
        <path d="M60.83,63.717L60.83,47.065L54.883,47.065L54.883,43.674L70.81,43.674L70.81,47.065L64.877,47.065L64.877,63.717L60.83,63.717Z" style="fill-rule:nonzero;"/>
        <path d="M88.018,63.717L83.615,63.717L81.865,59.165L73.854,59.165L72.199,63.717L67.906,63.717L75.713,43.674L79.992,43.674L88.018,63.717ZM80.567,55.788L77.805,48.35L75.098,55.788L80.567,55.788Z" style="fill-rule:nonzero;"/>
        <path d="M87.739,57.196L91.676,56.813C91.913,58.135 92.394,59.105 93.119,59.725C93.843,60.345 94.821,60.655 96.051,60.655C97.355,60.655 98.337,60.379 98.998,59.828C99.658,59.276 99.989,58.631 99.989,57.893C99.989,57.419 99.85,57.016 99.572,56.683C99.294,56.35 98.808,56.061 98.116,55.815C97.642,55.651 96.562,55.359 94.876,54.94C92.706,54.402 91.184,53.741 90.309,52.957C89.079,51.855 88.463,50.51 88.463,48.924C88.463,47.903 88.753,46.949 89.332,46.06C89.91,45.171 90.744,44.495 91.834,44.03C92.923,43.565 94.237,43.332 95.778,43.332C98.293,43.332 100.187,43.884 101.459,44.987C102.73,46.09 103.398,47.562 103.461,49.403L99.415,49.581C99.241,48.551 98.87,47.81 98.3,47.359C97.731,46.908 96.876,46.682 95.737,46.682C94.561,46.682 93.64,46.924 92.975,47.407C92.547,47.717 92.333,48.131 92.333,48.651C92.333,49.125 92.533,49.53 92.934,49.868C93.445,50.296 94.684,50.743 96.653,51.207C98.622,51.672 100.078,52.153 101.021,52.65C101.964,53.147 102.703,53.826 103.236,54.687C103.769,55.548 104.036,56.612 104.036,57.879C104.036,59.028 103.717,60.103 103.079,61.106C102.441,62.109 101.538,62.854 100.372,63.341C99.205,63.829 97.751,64.073 96.01,64.073C93.476,64.073 91.53,63.487 90.172,62.316C88.814,61.145 88.003,59.438 87.739,57.196Z" style="fill-rule:nonzero;"/>
    </g>
    <g transform="matrix(1,0,0,1,-1.49436,-11.0695)">
        <path d="M6.318,72.571L7.39,72.478C7.441,72.907 7.559,73.26 7.745,73.535C7.93,73.811 8.218,74.033 8.609,74.203C9,74.373 9.439,74.458 9.927,74.458C10.361,74.458 10.744,74.394 11.076,74.265C11.408,74.136 11.655,73.959 11.817,73.735C11.979,73.51 12.06,73.265 12.06,72.999C12.06,72.73 11.982,72.494 11.826,72.293C11.669,72.092 11.412,71.923 11.052,71.786C10.822,71.696 10.312,71.557 9.523,71.367C8.734,71.178 8.181,70.999 7.865,70.831C7.455,70.616 7.149,70.35 6.948,70.031C6.747,69.713 6.646,69.357 6.646,68.962C6.646,68.528 6.769,68.123 7.015,67.746C7.261,67.369 7.621,67.083 8.093,66.888C8.566,66.693 9.091,66.595 9.669,66.595C10.306,66.595 10.868,66.697 11.354,66.902C11.84,67.108 12.214,67.409 12.476,67.808C12.738,68.206 12.878,68.657 12.898,69.161L11.808,69.243C11.75,68.7 11.551,68.29 11.213,68.013C10.876,67.735 10.377,67.597 9.716,67.597C9.029,67.597 8.528,67.723 8.213,67.975C7.899,68.227 7.742,68.53 7.742,68.886C7.742,69.194 7.853,69.448 8.076,69.648C8.294,69.847 8.866,70.051 9.79,70.26C10.713,70.469 11.347,70.652 11.691,70.808C12.191,71.038 12.56,71.33 12.798,71.684C13.037,72.037 13.156,72.444 13.156,72.905C13.156,73.362 13.025,73.793 12.763,74.197C12.502,74.602 12.126,74.916 11.635,75.141C11.145,75.365 10.593,75.478 9.98,75.478C9.203,75.478 8.551,75.364 8.026,75.138C7.501,74.911 7.088,74.57 6.79,74.115C6.491,73.66 6.334,73.146 6.318,72.571Z" style="fill-rule:nonzero;"/>
        <path d="M14.4,67.954L14.4,66.741L15.454,66.741L15.454,67.954L14.4,67.954ZM14.4,75.331L14.4,69.109L15.454,69.109L15.454,75.331L14.4,75.331Z" style="fill-rule:nonzero;"/>
        <path d="M19.183,74.388L19.335,75.319C19.038,75.382 18.772,75.413 18.538,75.413C18.155,75.413 17.858,75.353 17.647,75.232C17.436,75.11 17.288,74.951 17.202,74.754C17.116,74.557 17.073,74.142 17.073,73.509L17.073,69.929L16.3,69.929L16.3,69.109L17.073,69.109L17.073,67.568L18.122,66.935L18.122,69.109L19.183,69.109L19.183,69.929L18.122,69.929L18.122,73.568C18.122,73.868 18.141,74.062 18.178,74.148C18.215,74.234 18.275,74.302 18.359,74.353C18.443,74.403 18.563,74.429 18.72,74.429C18.837,74.429 18.991,74.415 19.183,74.388Z" style="fill-rule:nonzero;"/>
        <path d="M24.294,73.327L25.383,73.462C25.212,74.099 24.893,74.593 24.428,74.944C23.963,75.296 23.37,75.472 22.647,75.472C21.737,75.472 21.015,75.192 20.482,74.631C19.949,74.07 19.682,73.284 19.682,72.273C19.682,71.226 19.952,70.413 20.491,69.835C21.03,69.257 21.729,68.968 22.588,68.968C23.421,68.968 24.1,69.251 24.628,69.818C25.155,70.384 25.419,71.181 25.419,72.208C25.419,72.271 25.417,72.364 25.413,72.489L20.772,72.489C20.811,73.173 21.004,73.696 21.352,74.06C21.7,74.423 22.133,74.605 22.653,74.605C23.04,74.605 23.37,74.503 23.643,74.3C23.917,74.097 24.133,73.773 24.294,73.327ZM20.831,71.622L24.305,71.622C24.258,71.099 24.126,70.706 23.907,70.444C23.571,70.038 23.135,69.835 22.6,69.835C22.116,69.835 21.709,69.997 21.379,70.321C21.048,70.646 20.866,71.079 20.831,71.622Z" style="fill-rule:nonzero;"/>
        <path d="M29.781,75.331L29.781,66.741L31.492,66.741L33.525,72.823C33.713,73.39 33.85,73.814 33.936,74.095C34.033,73.782 34.186,73.323 34.393,72.718L36.449,66.741L37.978,66.741L37.978,75.331L36.883,75.331L36.883,68.142L34.387,75.331L33.361,75.331L30.877,68.019L30.877,75.331L29.781,75.331Z" style="fill-opacity:0.486275;fill-rule:nonzero;"/>
        <path d="M43.558,74.564C43.168,74.896 42.792,75.13 42.43,75.267C42.069,75.403 41.681,75.472 41.267,75.472C40.584,75.472 40.058,75.305 39.691,74.971C39.324,74.637 39.14,74.21 39.14,73.691C39.14,73.386 39.21,73.108 39.348,72.856C39.487,72.604 39.669,72.402 39.893,72.249C40.118,72.097 40.371,71.982 40.652,71.903C40.859,71.849 41.172,71.796 41.589,71.745C42.441,71.644 43.068,71.523 43.47,71.382C43.474,71.237 43.476,71.146 43.476,71.107C43.476,70.677 43.377,70.374 43.177,70.198C42.908,69.96 42.507,69.841 41.976,69.841C41.48,69.841 41.114,69.928 40.878,70.102C40.641,70.276 40.466,70.583 40.353,71.025L39.322,70.884C39.416,70.443 39.57,70.086 39.785,69.815C40,69.543 40.31,69.334 40.716,69.188C41.123,69.041 41.593,68.968 42.129,68.968C42.66,68.968 43.091,69.03 43.423,69.155C43.756,69.28 44,69.438 44.156,69.627C44.312,69.817 44.422,70.056 44.484,70.345C44.519,70.525 44.537,70.849 44.537,71.318L44.537,72.724C44.537,73.704 44.559,74.324 44.604,74.584C44.649,74.844 44.738,75.093 44.871,75.331L43.769,75.331C43.66,75.112 43.589,74.857 43.558,74.564ZM43.47,72.208C43.088,72.364 42.513,72.497 41.748,72.607C41.314,72.669 41.007,72.739 40.828,72.818C40.648,72.896 40.509,73.01 40.412,73.16C40.314,73.311 40.265,73.478 40.265,73.661C40.265,73.943 40.372,74.177 40.585,74.364C40.798,74.552 41.109,74.646 41.519,74.646C41.925,74.646 42.287,74.557 42.603,74.379C42.92,74.201 43.152,73.958 43.3,73.65C43.414,73.411 43.47,73.06 43.47,72.595L43.47,72.208Z" style="fill-opacity:0.486275;fill-rule:nonzero;"/>
        <path d="M45.992,75.331L45.992,69.109L46.941,69.109L46.941,69.993C47.398,69.31 48.058,68.968 48.921,68.968C49.296,68.968 49.641,69.035 49.955,69.17C50.27,69.305 50.505,69.482 50.661,69.7C50.818,69.919 50.927,70.179 50.99,70.48C51.029,70.675 51.048,71.017 51.048,71.505L51.048,75.331L49.993,75.331L49.993,71.546C49.993,71.116 49.952,70.795 49.87,70.582C49.788,70.369 49.643,70.199 49.434,70.072C49.225,69.945 48.98,69.882 48.699,69.882C48.249,69.882 47.862,70.025 47.535,70.31C47.209,70.595 47.046,71.136 47.046,71.933L47.046,75.331L45.992,75.331Z" style="fill-opacity:0.486275;fill-rule:nonzero;"/>
        <path d="M56.546,74.564C56.155,74.896 55.779,75.13 55.418,75.267C55.057,75.403 54.669,75.472 54.255,75.472C53.571,75.472 53.046,75.305 52.679,74.971C52.312,74.637 52.128,74.21 52.128,73.691C52.128,73.386 52.197,73.108 52.336,72.856C52.475,72.604 52.656,72.402 52.881,72.249C53.105,72.097 53.358,71.982 53.64,71.903C53.847,71.849 54.159,71.796 54.577,71.745C55.429,71.644 56.056,71.523 56.458,71.382C56.462,71.237 56.464,71.146 56.464,71.107C56.464,70.677 56.364,70.374 56.165,70.198C55.896,69.96 55.495,69.841 54.964,69.841C54.468,69.841 54.102,69.928 53.865,70.102C53.629,70.276 53.454,70.583 53.341,71.025L52.31,70.884C52.403,70.443 52.558,70.086 52.772,69.815C52.987,69.543 53.298,69.334 53.704,69.188C54.11,69.041 54.581,68.968 55.116,68.968C55.647,68.968 56.079,69.03 56.411,69.155C56.743,69.28 56.987,69.438 57.144,69.627C57.3,69.817 57.409,70.056 57.472,70.345C57.507,70.525 57.524,70.849 57.524,71.318L57.524,72.724C57.524,73.704 57.547,74.324 57.592,74.584C57.637,74.844 57.726,75.093 57.858,75.331L56.757,75.331C56.647,75.112 56.577,74.857 56.546,74.564ZM56.458,72.208C56.075,72.364 55.501,72.497 54.735,72.607C54.302,72.669 53.995,72.739 53.815,72.818C53.636,72.896 53.497,73.01 53.399,73.16C53.302,73.311 53.253,73.478 53.253,73.661C53.253,73.943 53.359,74.177 53.572,74.364C53.785,74.552 54.097,74.646 54.507,74.646C54.913,74.646 55.274,74.557 55.591,74.379C55.907,74.201 56.14,73.958 56.288,73.65C56.401,73.411 56.458,73.06 56.458,72.595L56.458,72.208Z" style="fill-opacity:0.486275;fill-rule:nonzero;"/>
        <path d="M58.786,75.847L59.811,75.999C59.854,76.316 59.973,76.546 60.169,76.691C60.43,76.886 60.788,76.984 61.241,76.984C61.729,76.984 62.106,76.886 62.372,76.691C62.637,76.495 62.817,76.222 62.911,75.87C62.966,75.655 62.991,75.204 62.987,74.517C62.526,75.06 61.952,75.331 61.264,75.331C60.409,75.331 59.747,75.023 59.278,74.405C58.809,73.788 58.575,73.048 58.575,72.185C58.575,71.591 58.682,71.043 58.897,70.541C59.112,70.039 59.424,69.652 59.832,69.378C60.24,69.105 60.719,68.968 61.27,68.968C62.005,68.968 62.61,69.265 63.087,69.859L63.087,69.109L64.059,69.109L64.059,74.487C64.059,75.456 63.961,76.143 63.763,76.547C63.566,76.951 63.254,77.271 62.826,77.505C62.398,77.739 61.872,77.857 61.247,77.857C60.505,77.857 59.905,77.69 59.448,77.356C58.991,77.022 58.77,76.519 58.786,75.847ZM59.659,72.109C59.659,72.925 59.821,73.521 60.145,73.896C60.469,74.271 60.876,74.458 61.364,74.458C61.848,74.458 62.255,74.272 62.583,73.899C62.911,73.526 63.075,72.941 63.075,72.144C63.075,71.382 62.906,70.808 62.568,70.421C62.23,70.034 61.823,69.841 61.346,69.841C60.878,69.841 60.479,70.031 60.151,70.412C59.823,70.793 59.659,71.359 59.659,72.109Z" style="fill-opacity:0.486275;fill-rule:nonzero;"/>
        <path d="M69.733,73.327L70.823,73.462C70.651,74.099 70.332,74.593 69.868,74.944C69.403,75.296 68.809,75.472 68.086,75.472C67.176,75.472 66.454,75.192 65.921,74.631C65.388,74.07 65.121,73.284 65.121,72.273C65.121,71.226 65.391,70.413 65.93,69.835C66.469,69.257 67.168,68.968 68.028,68.968C68.86,68.968 69.539,69.251 70.067,69.818C70.594,70.384 70.858,71.181 70.858,72.208C70.858,72.271 70.856,72.364 70.852,72.489L66.211,72.489C66.25,73.173 66.444,73.696 66.791,74.06C67.139,74.423 67.573,74.605 68.092,74.605C68.479,74.605 68.809,74.503 69.082,74.3C69.356,74.097 69.573,73.773 69.733,73.327ZM66.27,71.622L69.744,71.622C69.698,71.099 69.565,70.706 69.346,70.444C69.01,70.038 68.575,69.835 68.039,69.835C67.555,69.835 67.148,69.997 66.818,70.321C66.488,70.646 66.305,71.079 66.27,71.622Z" style="fill-opacity:0.486275;fill-rule:nonzero;"/>
        <path d="M71.967,75.331L71.967,69.109L72.91,69.109L72.91,69.982C73.106,69.677 73.365,69.432 73.689,69.246C74.014,69.061 74.383,68.968 74.797,68.968C75.258,68.968 75.636,69.064 75.931,69.255C76.226,69.446 76.434,69.714 76.555,70.058C77.047,69.331 77.688,68.968 78.477,68.968C79.094,68.968 79.568,69.139 79.9,69.481C80.232,69.822 80.398,70.349 80.398,71.06L80.398,75.331L79.35,75.331L79.35,71.411C79.35,70.989 79.315,70.686 79.247,70.5C79.179,70.315 79.055,70.165 78.875,70.052C78.695,69.939 78.484,69.882 78.242,69.882C77.805,69.882 77.441,70.027 77.152,70.318C76.863,70.61 76.719,71.075 76.719,71.716L76.719,75.331L75.664,75.331L75.664,71.288C75.664,70.819 75.578,70.468 75.406,70.234C75.234,69.999 74.953,69.882 74.563,69.882C74.266,69.882 73.991,69.96 73.739,70.116C73.487,70.273 73.305,70.501 73.191,70.802C73.078,71.103 73.022,71.536 73.022,72.103L73.022,75.331L71.967,75.331Z" style="fill-opacity:0.486275;fill-rule:nonzero;"/>
        <path d="M86.043,73.327L87.133,73.462C86.961,74.099 86.642,74.593 86.177,74.944C85.713,75.296 85.119,75.472 84.396,75.472C83.486,75.472 82.764,75.192 82.231,74.631C81.698,74.07 81.431,73.284 81.431,72.273C81.431,71.226 81.701,70.413 82.24,69.835C82.779,69.257 83.478,68.968 84.338,68.968C85.17,68.968 85.849,69.251 86.377,69.818C86.904,70.384 87.168,71.181 87.168,72.208C87.168,72.271 87.166,72.364 87.162,72.489L82.521,72.489C82.56,73.173 82.754,73.696 83.101,74.06C83.449,74.423 83.883,74.605 84.402,74.605C84.789,74.605 85.119,74.503 85.392,74.3C85.666,74.097 85.883,73.773 86.043,73.327ZM82.58,71.622L86.054,71.622C86.008,71.099 85.875,70.706 85.656,70.444C85.32,70.038 84.884,69.835 84.349,69.835C83.865,69.835 83.458,69.997 83.128,70.321C82.798,70.646 82.615,71.079 82.58,71.622Z" style="fill-opacity:0.486275;fill-rule:nonzero;"/>
        <path d="M88.277,75.331L88.277,69.109L89.226,69.109L89.226,69.993C89.683,69.31 90.343,68.968 91.206,68.968C91.581,68.968 91.926,69.035 92.241,69.17C92.555,69.305 92.79,69.482 92.947,69.7C93.103,69.919 93.212,70.179 93.275,70.48C93.314,70.675 93.333,71.017 93.333,71.505L93.333,75.331L92.279,75.331L92.279,71.546C92.279,71.116 92.238,70.795 92.156,70.582C92.074,70.369 91.928,70.199 91.719,70.072C91.51,69.945 91.265,69.882 90.984,69.882C90.535,69.882 90.147,70.025 89.821,70.31C89.495,70.595 89.331,71.136 89.331,71.933L89.331,75.331L88.277,75.331Z" style="fill-opacity:0.486275;fill-rule:nonzero;"/>
        <path d="M97.073,74.388L97.226,75.319C96.929,75.382 96.663,75.413 96.429,75.413C96.046,75.413 95.749,75.353 95.538,75.232C95.327,75.11 95.179,74.951 95.093,74.754C95.007,74.557 94.964,74.142 94.964,73.509L94.964,69.929L94.191,69.929L94.191,69.109L94.964,69.109L94.964,67.568L96.013,66.935L96.013,69.109L97.073,69.109L97.073,69.929L96.013,69.929L96.013,73.568C96.013,73.868 96.031,74.062 96.068,74.148C96.106,74.234 96.166,74.302 96.25,74.353C96.334,74.403 96.454,74.429 96.61,74.429C96.728,74.429 96.882,74.415 97.073,74.388Z" style="fill-opacity:0.486275;fill-rule:nonzero;"/>
    </g>
</svg>
