<?xml version="1.0" encoding="UTF-8" standalone="no"?>
<!DOCTYPE svg PUBLIC "-//W3C//DTD SVG 1.1//EN" "http://www.w3.org/Graphics/SVG/1.1/DTD/svg11.dtd">
<svg width="100%" height="100%" viewBox="0 0 900 900" version="1.1" xmlns="http://www.w3.org/2000/svg" xmlns:xlink="http://www.w3.org/1999/xlink" xml:space="preserve" xmlns:serif="http://www.serif.com/" style="fill-rule:evenodd;clip-rule:evenodd;stroke-linecap:round;stroke-linejoin:round;stroke-miterlimit:1.5;">
    <g transform="matrix(1,0,0,1,-79.5,247)">
        <path d="M670.471,136.9L720.302,298.394L761.774,298.06L791.89,201.062L824.081,297.702L864.308,298.187L914.789,136.534L868.542,136.439L843.371,233.357L811.577,135.41L772.804,136.082L742.209,231.284L717.249,136.367L670.471,136.9Z" style="stroke:black;stroke-width:1px;"/>
    </g>
    <g transform="matrix(1,0,0,1,-79.5,247)">
        <rect x="472.322" y="136.889" width="44.423" height="160.72"/>
    </g>
    <g transform="matrix(1,0,0,1,-79.5,247)">
        <rect x="470.868" y="78.202" width="48.216" height="41.463"/>
    </g>
    <g id="Layer1" transform="matrix(1,0,0,1,-79.5,247)">
        <path d="M567.173,233.387L679.282,232.279L679.264,209.617C677.519,183.807 666.869,162.751 646.552,146.855C616.275,128.048 585.113,128.063 553.745,148.355C538.376,159.643 528.577,175.707 524.099,195.382C520.382,209.779 520.48,224.555 524.577,239.729C527.277,253.457 534.353,265.509 544.456,276.401C553.827,285.18 564.035,291.268 575.045,294.772C597.739,304.023 620.876,304.147 644.6,292.161C655.506,285.946 665.013,278.968 671.505,270.349L645.1,247.657L628.109,259.44C614.177,265.437 600.411,265.301 586.793,259.678C576.06,253.754 569.609,244.93 567.173,233.387ZM566.839,203.988L634.615,203.777C633.276,192.531 629.246,184.531 623.392,178.731C619.689,174.975 615.085,172.798 609.732,170.667C603.564,169.677 597.326,169.433 591.068,170.793C584.639,172.998 579.718,176.401 576.209,180.926C571.059,187.026 568.117,194.855 566.839,203.988Z" style="stroke:black;stroke-width:1px;"/>
        <path d="M175.954,82.38C175.723,82.385 175.492,82.388 175.26,82.388C158.928,82.388 145.669,69.11 145.669,52.755C145.669,36.4 158.928,23.122 175.26,23.122C191.591,23.122 204.85,36.4 204.85,52.755C204.85,54.384 204.719,55.982 204.466,57.54C221.667,83.793 243.313,104.125 269.794,118.013C290.624,100.351 317.538,89.699 346.909,89.699C412.957,89.699 466.579,143.563 466.579,209.908C466.579,276.252 412.957,330.116 346.909,330.116C280.862,330.116 227.239,276.252 227.239,209.908C227.239,186.309 234.024,164.289 245.74,145.708C224.574,112.377 200.862,90.944 175.954,82.38ZM263.664,136.998L326.162,298.241L367.619,298.769L430.926,135.964L383.065,135.954L347.857,241.552L311.59,136.219L263.664,136.998Z" style="fill:rgb(84,136,199);"/>
    </g>
</svg>
