<?xml version="1.0" encoding="UTF-8" standalone="no"?>
<!DOCTYPE svg PUBLIC "-//W3C//DTD SVG 1.1//EN" "http://www.w3.org/Graphics/SVG/1.1/DTD/svg11.dtd">
<svg width="100%" height="100%" viewBox="0 0 100 100" version="1.1" xmlns="http://www.w3.org/2000/svg" xmlns:xlink="http://www.w3.org/1999/xlink" xml:space="preserve" xmlns:serif="http://www.serif.com/" style="fill-rule:evenodd;clip-rule:evenodd;stroke-linejoin:round;stroke-miterlimit:1.41421;">
    <g id="vumc-white" transform="matrix(0.5,0,0,0.5,0,0)">
        <path d="M190.039,25.578L190.039,35.4L184.185,35.439C177.776,36.931 173.272,40.116 170.85,45.153L120.647,173.252L80.796,173.252L27.807,41.924C25.734,37.581 22.504,35.426 18.104,35.487L10.102,35.487L10.102,25.688L91.009,25.688L91.009,35.731L80.731,35.731C76.195,36.645 75.239,39.102 77.821,43.083L87.911,52.154C91.388,55.249 94.514,58.75 96.772,63.254C97.761,66.73 96.576,68.429 92.561,68.052C90.207,67.831 88.199,66.935 85.586,65.799C82.934,65.006 80.176,64.612 77.223,64.831C75.292,64.891 74.082,65.693 73.536,67.178C72.786,69.412 72.962,71.462 74.126,73.313C79.111,79.649 85.842,83.402 93.509,85.769C98.528,88.42 102.232,92.03 105.174,96.354L110.594,112.97L105.28,111.315C102.906,110.61 101.402,109.089 100.712,106.802L97.891,100.433C97.643,99.503 96.895,99.079 95.67,99.14C94.271,99.233 93.554,100.039 93.588,101.628C93.445,107.785 92.127,113.304 88.874,117.772C88.348,121.338 89.765,122.042 92.83,120.318L100.005,115.548C101.368,115.396 102.706,115.5 104.05,115.711C106.107,116.032 107.956,116.628 109.96,117.612C111.536,118.658 112.93,119.965 114.162,121.5L120.218,138.665L126.008,139.174L123.496,131.279C121.217,125.226 122.404,120.25 125.134,115.754L138.583,98.283C139.782,93.191 140.344,88.861 135.896,90.512L128.92,93.975C126.564,94.488 124.238,94.948 123.552,92.6C123.375,89.209 124.286,86.24 125.968,83.57L140.071,63.954C141.277,61.516 140.226,59.591 138.452,57.83C137.534,56.528 136.228,56.111 134.367,56.96L121.636,65.187C119.858,66.929 117.976,67.067 115.989,65.6C113.37,62.114 114.252,58.784 116.803,55.529L125.636,42.325C128.244,37.143 125.69,35.208 120.091,35.189L109.28,35.189L109.28,25.578L190.039,25.578ZM85.958,117.073C88.841,111.841 91.04,106.381 90.268,99.925C88.01,99.257 85.38,98.848 82.354,98.716C80.268,98.625 71.205,103.007 75.329,111.732C77.742,114.475 81.23,116.302 85.958,117.073Z" style="fill:white;"/>
    </g>
</svg>
