<?xml version="1.0" encoding="UTF-8" standalone="no"?>
<!DOCTYPE svg PUBLIC "-//W3C//DTD SVG 1.1//EN" "http://www.w3.org/Graphics/SVG/1.1/DTD/svg11.dtd">
<svg width="100%" height="100%" viewBox="0 0 1500 1500" version="1.1" xmlns="http://www.w3.org/2000/svg" xmlns:xlink="http://www.w3.org/1999/xlink" xml:space="preserve" xmlns:serif="http://www.serif.com/" style="fill-rule:evenodd;clip-rule:evenodd;stroke-linejoin:round;stroke-miterlimit:2;">
    <g transform="matrix(1,0,0,1,52.055,175.75)">
        <path d="M649.29,777.91C649.36,777.91 649.45,777.9 649.51,777.89C649.44,777.89 649.36,777.88 649.29,777.88L649.29,777.91Z" style="fill:white;fill-rule:nonzero;"/>
        <path d="M697.94,260.96L697.96,261L764.98,408.25L765.61,409.66L742.72,409.75C742.75,409.94 742.77,410.14 742.8,410.33C743.16,412.52 743.45,414.72 743.45,417.01C743.45,424.24 741.58,430.97 738.41,436.92C736.94,439.68 735.21,442.29 733.21,444.68C733.21,444.68 730.22,476.88 730.51,536.67L730.51,536.87C730.69,572.7 732.69,625.66 736.88,683.59C806.98,687.56 872.18,695.55 932.04,705.98L932.04,455.96L914.57,455.89L959.31,357.63L1002.24,456.24L984.76,456.17L984.76,716.04C1048.56,729.31 1105.31,745.08 1154.29,761.11L1154.29,543.41L1136.82,543.34L1181.56,445.08L1224.49,543.69L1207.01,543.62L1207.01,779.48C1265.05,800.97 1308.36,821.35 1335.07,835.03C1368.46,520.12 1300.06,246.97 1300.06,246.97C981.4,236.67 697.94,67.07 697.94,67.07L697.94,260.96Z" style="fill:rgb(33,141,193);fill-rule:nonzero;"/>
        <path d="M1207.01,835.25L1207.01,1081.42L1281.48,1081.42C1291.99,1047.3 1301.09,1012.21 1308.71,977.91L1308.72,977.92C1318.25,943.52 1324.04,915.29 1327.53,894.87C1327.54,894.88 1327.67,894.1 1327.72,893.73C1327.94,892.43 1328.15,891.18 1328.35,889.95C1309.72,879.89 1268.18,858.82 1207.01,835.25Z" style="fill:rgb(33,141,193);fill-rule:nonzero;"/>
        <path d="M984.76,769.22L984.76,1081.43L1154.29,1081.43L1154.29,816.15C1106.02,799.71 1049.16,783.19 984.76,769.22Z" style="fill:rgb(33,141,193);fill-rule:nonzero;"/>
        <path d="M932.04,1081.42L932.04,758.68C873.54,748.03 809.67,739.78 741.13,735.56C741.15,735.83 741.18,736.1 741.2,736.36C741.33,737.66 745.69,772.09 746.37,777.88C757.05,857.56 778.64,983.27 800.71,1081.23L799.61,1081.23C799.62,1081.29 799.64,1081.35 799.65,1081.41L932.04,1081.41L932.04,1081.42Z" style="fill:rgb(33,141,193);fill-rule:nonzero;"/>
        <path d="M595.17,1081.24C617.24,983.28 638.83,857.57 649.51,777.89C649.44,777.89 649.35,777.9 649.29,777.91L649.29,777.89C649.36,777.89 649.44,777.9 649.51,777.9C650.19,772.11 654.55,737.67 654.68,736.38C654.7,736.11 654.73,735.85 654.75,735.58C585.74,739.84 521.8,748.17 463.84,758.68L463.84,1081.43L596.22,1081.43C596.23,1081.37 596.24,1081.31 596.26,1081.25L595.17,1081.25L595.17,1081.24Z" style="fill:rgb(26,113,157);fill-rule:nonzero;"/>
        <path d="M188.88,779.47L188.88,543.61L171.4,543.68L214.33,445.07L259.07,543.33L241.6,543.4L241.6,761.1C290.57,745.07 347.32,729.3 411.13,716.03L411.13,456.16L393.65,456.23L436.58,357.62L481.32,455.88L463.85,455.95L463.85,705.97C523.7,695.54 588.9,687.55 659,683.58C663.18,625.65 665.19,572.69 665.37,536.86L665.37,536.66C665.66,476.87 662.67,444.67 662.67,444.67C660.67,442.28 658.94,439.67 657.47,436.91C654.3,430.96 652.43,424.23 652.43,417C652.43,414.72 652.72,412.51 653.08,410.32C653.11,410.13 653.13,409.93 653.16,409.74L630.27,409.65L630.9,408.24L697.92,261L697.94,260.96L697.94,67.07C697.94,67.07 414.48,236.67 95.83,246.95C95.83,246.95 27.43,520.1 60.82,835.01C87.52,821.34 130.84,800.96 188.88,779.47Z" style="fill:rgb(26,113,157);fill-rule:nonzero;"/>
        <path d="M241.6,815.84L241.6,1081.42L411.13,1081.42L411.13,769.12C344.41,783.52 287.33,800.3 241.6,815.84Z" style="fill:rgb(26,113,157);fill-rule:nonzero;"/>
        <path d="M67.57,889.9C67.56,889.9 67.55,889.91 67.55,889.91C67.75,891.15 67.96,892.41 68.18,893.72C68.23,894.1 68.29,894.51 68.35,894.88C68.36,894.87 68.37,894.87 68.38,894.87C71.86,915.29 77.66,943.52 87.19,977.92L87.2,977.91C94.82,1012.22 103.91,1047.3 114.43,1081.42L188.9,1081.42L188.9,834.97C127.87,858.54 86.23,879.78 67.57,889.9Z" style="fill:rgb(26,113,157);fill-rule:nonzero;"/>
    </g>
</svg>
