<?xml version="1.0" encoding="UTF-8" standalone="no"?>
<!DOCTYPE svg PUBLIC "-//W3C//DTD SVG 1.1//EN" "http://www.w3.org/Graphics/SVG/1.1/DTD/svg11.dtd">
<svg width="100%" height="100%" viewBox="0 0 3000 3000" version="1.1" xmlns="http://www.w3.org/2000/svg" xmlns:xlink="http://www.w3.org/1999/xlink" xml:space="preserve" xmlns:serif="http://www.serif.com/" style="fill-rule:evenodd;clip-rule:evenodd;stroke-linejoin:round;stroke-miterlimit:2;">
    <g transform="matrix(49.3418,0,0,49.3418,250,250)">
        <path d="M25.333,50.667C39.325,50.667 50.667,39.324 50.667,25.333C50.667,11.342 39.325,0 25.333,0C11.341,0 0,11.342 0,25.333C0,39.324 11.342,50.667 25.333,50.667Z" style="fill:rgb(33,150,243);fill-rule:nonzero;"/>
    </g>
    <g transform="matrix(49.3418,0,0,49.3418,250,250)">
        <path d="M14.866,32.574L31.621,32.574L31.621,20.288C31.621,18.437 30.121,16.937 28.27,16.937L11.515,16.937L11.515,29.223C11.515,31.074 13.015,32.574 14.866,32.574ZM33.854,28.107L40.556,32.574L40.556,16.937L33.855,21.405L33.854,28.107Z" style="fill:white;"/>
    </g>
</svg>
